<svg width="33" height="97" viewBox="0 0 33 97" fill="none" xmlns="http://www.w3.org/2000/svg">
<g filter="url(#filter0_d_40000623_6443)">
<path d="M30.6357 13.77L27.8861 82.2287C27.5569 90.4261 21.1654 96.8379 13.6694 96.4584C6.24859 96.0799 0.588697 89.0918 0.915421 80.9571L2.67232 37.214C2.73007 35.7763 3.84069 34.6555 5.15134 34.7082L5.94703 34.7401C6.9394 34.78 7.76198 35.4801 8.07615 36.4423L6.27834 81.2038C6.07836 86.183 9.63213 90.4948 14.1808 90.5912C18.5989 90.6862 22.3269 86.869 22.5219 82.0132L25.266 13.6916C25.419 9.88186 22.7009 6.56887 19.2205 6.49383C15.8404 6.42085 12.9883 9.34139 12.8391 13.0552L12.3754 24.6001L7.01127 24.3847L7.46717 13.0337C7.74677 6.07224 13.026 0.465218 19.3851 0.612719C25.8568 0.764746 30.9193 6.70865 30.6358 13.768L30.6357 13.77Z" fill="#CBCBC5"/>
</g>
<path d="M27.9471 13.8226L25.204 82.1206C24.9393 88.7119 19.8079 93.8461 13.7785 93.5176C7.84194 93.1948 3.33566 87.5832 3.597 81.0762L5.45885 34.7202L5.94699 34.7398C6.93937 34.7797 7.76195 35.4798 8.07612 36.442C8.18015 36.7502 8.22935 37.0857 8.21527 37.4364L6.45082 81.3674C6.26004 86.1174 9.5948 90.1301 13.9097 90.3838C18.3515 90.6466 22.1537 86.7224 22.3492 81.853L25.0927 13.5471C25.2376 9.93903 22.7023 6.89039 19.4254 6.69796C16.0503 6.49962 13.1612 9.49519 13.0126 13.1953L12.5542 24.607L9.69332 24.4921L10.157 12.9472C10.3754 7.50967 14.6182 3.2736 19.5978 3.56581C24.4739 3.84994 28.1618 8.47713 27.9471 13.8226Z" fill="#9C9C9C"/>
<defs>
<filter id="filter0_d_40000623_6443" x="0.901855" y="0.135218" width="31.1691" height="96.8138" filterUnits="userSpaceOnUse" color-interpolation-filters="sRGB">
<feFlood flood-opacity="0" result="BackgroundImageFix"/>
<feColorMatrix in="SourceAlpha" type="matrix" values="0 0 0 0 0 0 0 0 0 0 0 0 0 0 0 0 0 0 127 0" result="hardAlpha"/>
<feOffset dx="0.949291"/>
<feGaussianBlur stdDeviation="0.237323"/>
<feComposite in2="hardAlpha" operator="out"/>
<feColorMatrix type="matrix" values="0 0 0 0 0 0 0 0 0 0 0 0 0 0 0 0 0 0 0.25 0"/>
<feBlend mode="normal" in2="BackgroundImageFix" result="effect1_dropShadow_40000623_6443"/>
<feBlend mode="normal" in="SourceGraphic" in2="effect1_dropShadow_40000623_6443" result="shape"/>
</filter>
</defs>
</svg>
