<svg width="13" height="13" viewBox="0 0 13 13" fill="none" xmlns="http://www.w3.org/2000/svg">
<path d="M8.01683 2.49863L11.6465 8.54417C12.1682 9.41247 11.912 10.5548 11.074 11.0954C10.7929 11.2779 10.465 11.375 10.1299 11.3749H2.86991C1.88354 11.3749 1.0835 10.5462 1.0835 9.52296C1.0835 9.17684 1.1772 8.8383 1.35325 8.54417L4.9835 2.49863C5.50458 1.63034 6.60633 1.36438 7.44429 1.90496C7.67612 2.05446 7.8722 2.25759 8.01683 2.49863ZM6.50016 9.20826C6.64382 9.20826 6.7816 9.15119 6.88318 9.04961C6.98476 8.94802 7.04183 8.81025 7.04183 8.66659C7.04183 8.52293 6.98476 8.38516 6.88318 8.28357C6.7816 8.18199 6.64382 8.12492 6.50016 8.12492C6.3565 8.12492 6.21873 8.18199 6.11715 8.28357C6.01556 8.38516 5.9585 8.52293 5.9585 8.66659C5.9585 8.81025 6.01556 8.94802 6.11715 9.04961C6.21873 9.15119 6.3565 9.20826 6.50016 9.20826ZM6.50016 4.33326C6.3565 4.33326 6.21873 4.39033 6.11715 4.49191C6.01556 4.59349 5.9585 4.73126 5.9585 4.87492V7.04159C5.9585 7.18525 6.01556 7.32302 6.11715 7.42461C6.21873 7.52619 6.3565 7.58326 6.50016 7.58326C6.64382 7.58326 6.7816 7.52619 6.88318 7.42461C6.98476 7.32302 7.04183 7.18525 7.04183 7.04159V4.87492C7.04183 4.73126 6.98476 4.59349 6.88318 4.49191C6.7816 4.39033 6.64382 4.33326 6.50016 4.33326Z" fill="#FF5757"/>
</svg>
