<svg width="12" height="12" viewBox="0 0 12 12" fill="none" xmlns="http://www.w3.org/2000/svg">
<path d="M1.49514 3.68975C1.43694 3.74781 1.39076 3.81678 1.35925 3.89271C1.32774 3.96864 1.31152 4.05005 1.31152 4.13225C1.31152 4.21446 1.32774 4.29587 1.35925 4.3718C1.39076 4.44773 1.43694 4.5167 1.49514 4.57475L5.65014 8.72975C5.6964 8.77611 5.75134 8.81288 5.81183 8.83797C5.87232 8.86306 5.93716 8.87598 6.00264 8.87598C6.06812 8.87598 6.13297 8.86306 6.19345 8.83797C6.25394 8.81288 6.30888 8.77611 6.35514 8.72975L10.5101 4.57475C10.7551 4.32975 10.7551 3.93475 10.5101 3.68975C10.2651 3.44475 9.87014 3.44475 9.62514 3.68975L6.00014 7.30975L2.37514 3.68475C2.13514 3.44476 1.73514 3.44475 1.49514 3.68975Z" fill="black"/>
</svg>
