<svg xmlns="http://www.w3.org/2000/svg" width="24" height="24" viewBox="0 0 24 24" fill="none">
  <g filter="url(#filter0_g_40000282_8719)">
    <path d="M11 5H4.77778C4.30628 5 3.8541 5.1873 3.5207 5.5207C3.1873 5.8541 3 6.30628 3 6.77778V19.2222C3 19.6937 3.1873 20.1459 3.5207 20.4793C3.8541 20.8127 4.30628 21 4.77778 21H17.2222C17.6937 21 18.1459 20.8127 18.4793 20.4793C18.8127 20.1459 19 19.6937 19 19.2222V13" stroke="#5C5C5C" stroke-width="2" stroke-linecap="round" stroke-linejoin="round"/>
    <path d="M17.6662 3.57198C18.0325 3.20575 18.5292 3 19.0471 3C19.5651 3 20.0618 3.20575 20.428 3.57198C20.7943 3.93822 21 4.43494 21 4.95287C21 5.47081 20.7943 5.96753 20.428 6.33376L11.6824 15.0794L8 16L8.92059 12.3176L17.6662 3.57198Z" stroke="#5C5C5C" stroke-width="2" stroke-linecap="round" stroke-linejoin="round"/>
  </g>
  <defs>
    <filter id="filter0_g_40000282_8719" x="-0.4" y="-0.4" width="24.8" height="24.8" filterUnits="userSpaceOnUse" color-interpolation-filters="sRGB">
      <feFlood flood-opacity="0" result="BackgroundImageFix"/>
      <feBlend mode="normal" in="SourceGraphic" in2="BackgroundImageFix" result="shape"/>
      <feTurbulence type="fractalNoise" baseFrequency="0.66666668653488159 0.66666668653488159" numOctaves="3" seed="7043"/>
      <feDisplacementMap in="shape" scale="0.80000001192092896" xChannelSelector="R" yChannelSelector="G" result="displacedImage" width="100%" height="100%"/>
      <feMerge result="effect1_texture_40000282_8719">
        <feMergeNode in="displacedImage"/>
      </feMerge>
    </filter>
  </defs>
</svg>