<svg width="26" height="26" viewBox="0 0 26 26" fill="none" xmlns="http://www.w3.org/2000/svg">
<g filter="url(#filter0_g_40000111_1995)">
<path d="M13.0002 5C13.2966 5.00004 13.5335 5.08072 13.7463 5.23828L13.7522 5.24219L20.4583 10.1279L20.467 10.1348C20.6153 10.2405 20.7294 10.3709 20.8157 10.5381C20.9014 10.7042 20.942 10.8724 20.9417 11.0547V20.8281C20.9417 21.1481 20.8364 21.4034 20.5872 21.6455C20.3371 21.8884 20.062 22.0004 19.7073 22H16.3528C16.3068 22 16.2869 21.9929 16.2825 21.9912C16.2797 21.9901 16.2712 21.9873 16.2551 21.9717C16.2457 21.9625 16.2418 21.956 16.2405 21.9541L16.2395 21.9531C16.2393 21.9524 16.2382 21.9506 16.2375 21.9473L16.2356 21.9121V16.4854C16.2355 15.9162 16.0242 15.3964 15.6086 14.9941C15.1967 14.5955 14.6783 14.4018 14.1204 14.4004H11.8821C11.3221 14.4005 10.8015 14.5948 10.3889 14.9971C9.97673 15.3989 9.76627 15.9161 9.76489 16.4834V21.9141C9.76489 21.9326 9.76296 21.9439 9.76196 21.9492C9.76122 21.9532 9.761 21.9551 9.76099 21.9551C9.75988 21.9567 9.75545 21.9618 9.74634 21.9707C9.72957 21.987 9.72063 21.9902 9.71802 21.9912C9.71395 21.9928 9.6948 22.0001 9.64966 22H6.29419C5.93732 22 5.6614 21.8874 5.41235 21.6455C5.19538 21.4347 5.08759 21.213 5.06372 20.9453L5.05884 20.8271V11.0576C5.05884 10.8745 5.09971 10.7049 5.18579 10.5381C5.27247 10.3702 5.38656 10.2394 5.53442 10.1338L5.54224 10.1279L12.2473 5.24219L12.2542 5.23828C12.467 5.08076 12.7039 5 13.0002 5Z" stroke="#9C9C9C" stroke-width="2"/>
</g>
<defs>
<filter id="filter0_g_40000111_1995" x="-0.4" y="-0.4" width="26.8" height="26.8" filterUnits="userSpaceOnUse" color-interpolation-filters="sRGB">
<feFlood flood-opacity="0" result="BackgroundImageFix"/>
<feBlend mode="normal" in="SourceGraphic" in2="BackgroundImageFix" result="shape"/>
<feTurbulence type="fractalNoise" baseFrequency="0.66666668653488159 0.66666668653488159" numOctaves="3" seed="7043" />
<feDisplacementMap in="shape" scale="0.80000001192092896" xChannelSelector="R" yChannelSelector="G" result="displacedImage" width="100%" height="100%" />
<feMerge result="effect1_texture_40000111_1995">
<feMergeNode in="displacedImage"/>
</feMerge>
</filter>
</defs>
</svg>
