<svg width="26" height="26" viewBox="0 0 26 26" fill="none" xmlns="http://www.w3.org/2000/svg">
<g filter="url(#filter0_g_40000111_1992)">
<g filter="url(#filter1_g_40000111_1992)">
<path d="M21.1895 11.7727C21.1895 17.8182 13.1895 23 13.1895 23C13.1895 23 5.18945 17.8182 5.18945 11.7727C5.18945 9.71127 6.03231 7.73425 7.5326 6.27658C9.03289 4.81891 11.0677 4 13.1895 4C15.3112 4 17.346 4.81891 18.8463 6.27658C20.3466 7.73425 21.1895 9.71127 21.1895 11.7727Z" stroke="#9C9C9C" stroke-width="2" stroke-linecap="round" stroke-linejoin="round"/>
</g>
<g filter="url(#filter2_g_40000111_1992)">
<path d="M13.1896 14.3639C14.6624 14.3639 15.8563 13.204 15.8563 11.773C15.8563 10.3421 14.6624 9.18213 13.1896 9.18213C11.7169 9.18213 10.5229 10.3421 10.5229 11.773C10.5229 13.204 11.7169 14.3639 13.1896 14.3639Z" stroke="#9C9C9C" stroke-width="2" stroke-linecap="round" stroke-linejoin="round"/>
</g>
</g>
<defs>
<filter id="filter0_g_40000111_1992" x="-0.4" y="-0.4" width="26.8" height="26.8" filterUnits="userSpaceOnUse" color-interpolation-filters="sRGB">
<feFlood flood-opacity="0" result="BackgroundImageFix"/>
<feBlend mode="normal" in="SourceGraphic" in2="BackgroundImageFix" result="shape"/>
<feTurbulence type="fractalNoise" baseFrequency="0.66666668653488159 0.66666668653488159" numOctaves="3" seed="7043" />
<feDisplacementMap in="shape" scale="0.80000001192092896" xChannelSelector="R" yChannelSelector="G" result="displacedImage" width="100%" height="100%" />
<feMerge result="effect1_texture_40000111_1992">
<feMergeNode in="displacedImage"/>
</feMerge>
</filter>
<filter id="filter1_g_40000111_1992" x="3.8628" y="2.67334" width="18.6533" height="21.6533" filterUnits="userSpaceOnUse" color-interpolation-filters="sRGB">
<feFlood flood-opacity="0" result="BackgroundImageFix"/>
<feBlend mode="normal" in="SourceGraphic" in2="BackgroundImageFix" result="shape"/>
<feTurbulence type="fractalNoise" baseFrequency="1.5017729997634888 1.5017729997634888" numOctaves="3" seed="6687" />
<feDisplacementMap in="shape" scale="0.65331590175628662" xChannelSelector="R" yChannelSelector="G" result="displacedImage" width="100%" height="100%" />
<feMerge result="effect1_texture_40000111_1992">
<feMergeNode in="displacedImage"/>
</feMerge>
</filter>
<filter id="filter2_g_40000111_1992" x="9.14604" y="7.80522" width="8.08708" height="7.93571" filterUnits="userSpaceOnUse" color-interpolation-filters="sRGB">
<feFlood flood-opacity="0" result="BackgroundImageFix"/>
<feBlend mode="normal" in="SourceGraphic" in2="BackgroundImageFix" result="shape"/>
<feTurbulence type="fractalNoise" baseFrequency="1.5918792486190796 1.5918792486190796" numOctaves="3" seed="2578" />
<feDisplacementMap in="shape" scale="0.7538260817527771" xChannelSelector="R" yChannelSelector="G" result="displacedImage" width="100%" height="100%" />
<feMerge result="effect1_texture_40000111_1992">
<feMergeNode in="displacedImage"/>
</feMerge>
</filter>
</defs>
</svg>
