<svg width="24" height="24" viewBox="0 0 24 24" fill="none" xmlns="http://www.w3.org/2000/svg">
<g filter="url(#filter0_g_40000619_5841)">
<path fill-rule="evenodd" clip-rule="evenodd" d="M2.00714 1C1.45486 1 1 1.44772 1 2V16.115C1 16.6673 1.44772 17.115 2 17.115H16.1143C16.6665 17.115 17.1143 16.6673 17.1143 16.115V2C17.1143 1.44772 16.6665 1 16.1143 1H2.00714ZM14.1 12.0791C14.6523 12.0791 15.1 11.6313 15.1 11.0791V4.01437C15.1 3.46209 14.6523 3.01438 14.1 3.01438H4.01428C3.462 3.01438 3.01428 3.46209 3.01428 4.01438V11.0791C3.01428 11.6313 3.462 12.0791 4.01428 12.0791H14.1ZM22.0271 6.20011L19.3884 5.49306L18.8677 7.43895L19.5667 7.62629C20.1001 7.76925 20.4167 8.31753 20.2738 8.85096L17.4033 19.5664C17.2603 20.0999 16.712 20.4165 16.1785 20.2736L7.80727 18.0305L7.28557 19.9764L17.5957 22.7381C18.1295 22.8818 18.6864 22.56 18.8294 22.026L22.7392 7.43291C22.8823 6.89911 22.561 6.34272 22.0271 6.20011Z" fill="#5C5C5C"/>
</g>
<defs>
<filter id="filter0_g_40000619_5841" x="-0.4" y="-0.4" width="24.8" height="24.8" filterUnits="userSpaceOnUse" color-interpolation-filters="sRGB">
<feFlood flood-opacity="0" result="BackgroundImageFix"/>
<feBlend mode="normal" in="SourceGraphic" in2="BackgroundImageFix" result="shape"/>
<feTurbulence type="fractalNoise" baseFrequency="0.66666668653488159 0.66666668653488159" numOctaves="3" seed="7043" />
<feDisplacementMap in="shape" scale="0.80000001192092896" xChannelSelector="R" yChannelSelector="G" result="displacedImage" width="100%" height="100%" />
<feMerge result="effect1_texture_40000619_5841">
<feMergeNode in="displacedImage"/>
</feMerge>
</filter>
</defs>
</svg>
