<svg width="196" height="195" viewBox="0 0 196 195" fill="none" xmlns="http://www.w3.org/2000/svg">
<g clip-path="url(#clip0_40001167_16809)" filter="url(#filter0_g_40001167_16809)">
<rect width="194" height="193" transform="translate(1 1)" fill="#FBD7D5"/>
<path d="M182.29 130.725C182.29 135.283 181.996 139.743 181.423 144.073C179.575 158.201 171.496 170.751 159.344 178.287C143.659 188.037 123.133 194.158 100.531 194.711C99.3858 194.743 98.241 194.76 97.0798 194.76H96.0821C74.9513 194.597 55.4886 189.6 39.984 181.266C26.7363 174.153 17.7737 161.212 15.484 146.417C14.6989 141.354 14.29 136.097 14.29 130.725C14.29 117.166 16.9069 104.438 21.5027 93.4181C31.1195 70.337 49.3718 54.7598 70.3064 54.7598C77.5844 54.7598 84.5354 56.6316 90.9302 60.0661C95.5587 62.5403 101.038 62.5403 105.65 60.0661C112.028 56.6479 118.979 54.7598 126.241 54.7598C148.435 54.7598 167.619 72.2577 176.68 97.6176C180.262 107.628 182.274 118.859 182.274 130.725H182.29Z" fill="#EEEDEB" stroke="#2C2C2C" stroke-miterlimit="10"/>
<path d="M99.6242 121.764C99.6242 129.833 97.8185 136.372 90.0753 136.372C82.8201 136.372 79.4854 129.833 79.4854 121.764C79.4854 113.696 81.9417 107.156 90.0753 107.156C97.1515 107.156 99.6242 113.696 99.6242 121.764Z" fill="#FBFBFB" stroke="#2C2C2C" stroke-miterlimit="10"/>
<path d="M119.763 121.764C119.763 129.833 117.957 136.372 110.214 136.372C102.959 136.372 99.624 129.833 99.624 121.764C99.624 113.696 102.08 107.156 110.214 107.156C117.29 107.156 119.763 113.696 119.763 121.764Z" fill="#FBFBFB" stroke="#2C2C2C" stroke-miterlimit="10"/>
<path d="M99.6241 122.578C99.6241 127.051 98.6318 130.679 94.3373 130.679C90.3193 130.679 88.4648 127.051 88.4648 122.578C88.4648 118.104 89.8313 114.477 94.3373 114.477C98.2577 114.477 99.6241 118.104 99.6241 122.578Z" fill="#2C2C2C"/>
<path d="M119.763 121.764C119.763 126.238 118.771 129.865 114.476 129.865C110.458 129.865 108.604 126.238 108.604 121.764C108.604 117.291 109.97 113.663 114.476 113.663C118.396 113.663 119.763 117.291 119.763 121.764Z" fill="#2C2C2C"/>
<path d="M100.991 136.844C100.991 136.844 92.7757 137.267 93.8168 141.838C94.8579 146.41 106.326 145.466 107.953 143.514C109.58 141.562 108.441 137.219 100.991 136.828V136.844Z" fill="#2C2C2C"/>
<path d="M76.8496 139.269C76.8496 139.269 83.6005 158.724 105.155 148.931" stroke="#2C2C2C" stroke-miterlimit="10" stroke-linecap="round"/>
<path d="M62.8598 134.794C63.4258 134.794 63.8846 134.335 63.8846 133.769C63.8846 133.203 63.4258 132.744 62.8598 132.744C62.2938 132.744 61.835 133.203 61.835 133.769C61.835 134.335 62.2938 134.794 62.8598 134.794Z" fill="#2C2C2C"/>
<path d="M69.2524 134.794C69.8184 134.794 70.2772 134.335 70.2772 133.769C70.2772 133.203 69.8184 132.744 69.2524 132.744C68.6864 132.744 68.2275 133.203 68.2275 133.769C68.2275 134.335 68.6864 134.794 69.2524 134.794Z" fill="#2C2C2C"/>
<path d="M66.0649 137.967C66.6309 137.967 67.0897 137.508 67.0897 136.942C67.0897 136.376 66.6309 135.917 66.0649 135.917C65.4989 135.917 65.04 136.376 65.04 136.942C65.04 137.508 65.4989 137.967 66.0649 137.967Z" fill="#2C2C2C"/>
<path d="M123.308 134.794C123.874 134.794 124.333 134.335 124.333 133.769C124.333 133.203 123.874 132.744 123.308 132.744C122.742 132.744 122.283 133.203 122.283 133.769C122.283 134.335 122.742 134.794 123.308 134.794Z" fill="#2C2C2C"/>
<path d="M129.701 134.794C130.267 134.794 130.725 134.335 130.725 133.769C130.725 133.203 130.267 132.744 129.701 132.744C129.135 132.744 128.676 133.203 128.676 133.769C128.676 134.335 129.135 134.794 129.701 134.794Z" fill="#2C2C2C"/>
<path d="M126.513 137.967C127.079 137.967 127.538 137.508 127.538 136.942C127.538 136.376 127.079 135.917 126.513 135.917C125.947 135.917 125.488 136.376 125.488 136.942C125.488 137.508 125.947 137.967 126.513 137.967Z" fill="#2C2C2C"/>
</g>
<defs>
<filter id="filter0_g_40001167_16809" x="0.6" y="0.6" width="194.8" height="193.8" filterUnits="userSpaceOnUse" color-interpolation-filters="sRGB">
<feFlood flood-opacity="0" result="BackgroundImageFix"/>
<feBlend mode="normal" in="SourceGraphic" in2="BackgroundImageFix" result="shape"/>
<feTurbulence type="fractalNoise" baseFrequency="0.66666668653488159 0.66666668653488159" numOctaves="3" seed="7043" />
<feDisplacementMap in="shape" scale="0.80000001192092896" xChannelSelector="R" yChannelSelector="G" result="displacedImage" width="100%" height="100%" />
<feMerge result="effect1_texture_40001167_16809">
<feMergeNode in="displacedImage"/>
</feMerge>
</filter>
<clipPath id="clip0_40001167_16809">
<rect width="194" height="193" fill="white" transform="translate(1 1)"/>
</clipPath>
</defs>
</svg>
