<svg width="16" height="16" viewBox="0 0 16 16" fill="none" xmlns="http://www.w3.org/2000/svg">
<g clip-path="url(#clip0_40000282_8828)">
<g filter="url(#filter0_g_40000282_8828)">
<path d="M14.3307 2.6665V6.6665H10.3307" stroke="#2C2C2C" stroke-width="1.5" stroke-linecap="round" stroke-linejoin="round"/>
</g>
<g filter="url(#filter1_g_40000282_8828)">
<path d="M12.6573 10.0002C12.224 11.2268 11.4037 12.2793 10.3201 12.9992C9.23649 13.719 7.94829 14.0672 6.6496 13.9912C5.3509 13.9153 4.11209 13.4193 3.11982 12.578C2.12755 11.7367 1.4356 10.5957 1.14823 9.32688C0.860854 8.0581 0.993634 6.7303 1.52656 5.54355C2.05948 4.35681 2.96367 3.37541 4.10288 2.74726C5.2421 2.11912 6.5546 1.87824 7.84262 2.06093C9.13064 2.24363 10.3244 2.84 11.244 3.76017L14.3307 6.66684" stroke="#2C2C2C" stroke-width="1.5" stroke-linecap="round" stroke-linejoin="round"/>
</g>
</g>
<defs>
<filter id="filter0_g_40000282_8828" x="9.18069" y="1.5165" width="6.3" height="6.3" filterUnits="userSpaceOnUse" color-interpolation-filters="sRGB">
<feFlood flood-opacity="0" result="BackgroundImageFix"/>
<feBlend mode="normal" in="SourceGraphic" in2="BackgroundImageFix" result="shape"/>
<feTurbulence type="fractalNoise" baseFrequency="0.66666668653488159 0.66666668653488159" numOctaves="3" seed="7043" />
<feDisplacementMap in="shape" scale="0.80000001192092896" xChannelSelector="R" yChannelSelector="G" result="displacedImage" width="100%" height="100%" />
<feMerge result="effect1_texture_40000282_8828">
<feMergeNode in="displacedImage"/>
</feMerge>
</filter>
<filter id="filter1_g_40000282_8828" x="-0.15" y="0.851465" width="15.6306" height="14.3" filterUnits="userSpaceOnUse" color-interpolation-filters="sRGB">
<feFlood flood-opacity="0" result="BackgroundImageFix"/>
<feBlend mode="normal" in="SourceGraphic" in2="BackgroundImageFix" result="shape"/>
<feTurbulence type="fractalNoise" baseFrequency="0.66666668653488159 0.66666668653488159" numOctaves="3" seed="7043" />
<feDisplacementMap in="shape" scale="0.80000001192092896" xChannelSelector="R" yChannelSelector="G" result="displacedImage" width="100%" height="100%" />
<feMerge result="effect1_texture_40000282_8828">
<feMergeNode in="displacedImage"/>
</feMerge>
</filter>
<clipPath id="clip0_40000282_8828">
<rect width="16" height="16" fill="white"/>
</clipPath>
</defs>
</svg>
