<svg width="16" height="16" viewBox="0 0 16 16" fill="none" xmlns="http://www.w3.org/2000/svg">
<g clip-path="url(#clip0_40000623_10542)">
<g filter="url(#filter0_g_40000623_10542)">
<path d="M14.3306 2.66663V6.66663H10.3306" stroke="#5C5C5C" stroke-width="1.5" stroke-linecap="round" stroke-linejoin="round"/>
</g>
<g filter="url(#filter1_g_40000623_10542)">
<path d="M12.6573 10.0001C12.224 11.2267 11.4037 12.2792 10.3201 12.9991C9.23649 13.7189 7.94829 14.0671 6.6496 13.9911C5.3509 13.9151 4.11209 13.4191 3.11982 12.5778C2.12755 11.7365 1.4356 10.5955 1.14823 9.32675C0.860854 8.05798 0.993634 6.73017 1.52656 5.54343C2.05948 4.35668 2.96367 3.37529 4.10288 2.74714C5.2421 2.11899 6.5546 1.87812 7.84262 2.06081C9.13064 2.24351 10.3244 2.83988 11.244 3.76005L14.3307 6.66672" stroke="#5C5C5C" stroke-width="1.5" stroke-linecap="round" stroke-linejoin="round"/>
</g>
</g>
<defs>
<filter id="filter0_g_40000623_10542" x="9.18057" y="1.51663" width="6.3" height="6.3" filterUnits="userSpaceOnUse" color-interpolation-filters="sRGB">
<feFlood flood-opacity="0" result="BackgroundImageFix"/>
<feBlend mode="normal" in="SourceGraphic" in2="BackgroundImageFix" result="shape"/>
<feTurbulence type="fractalNoise" baseFrequency="0.66666668653488159 0.66666668653488159" numOctaves="3" seed="7043" />
<feDisplacementMap in="shape" scale="0.80000001192092896" xChannelSelector="R" yChannelSelector="G" result="displacedImage" width="100%" height="100%" />
<feMerge result="effect1_texture_40000623_10542">
<feMergeNode in="displacedImage"/>
</feMerge>
</filter>
<filter id="filter1_g_40000623_10542" x="-0.15" y="0.851343" width="15.6306" height="14.3" filterUnits="userSpaceOnUse" color-interpolation-filters="sRGB">
<feFlood flood-opacity="0" result="BackgroundImageFix"/>
<feBlend mode="normal" in="SourceGraphic" in2="BackgroundImageFix" result="shape"/>
<feTurbulence type="fractalNoise" baseFrequency="0.66666668653488159 0.66666668653488159" numOctaves="3" seed="7043" />
<feDisplacementMap in="shape" scale="0.80000001192092896" xChannelSelector="R" yChannelSelector="G" result="displacedImage" width="100%" height="100%" />
<feMerge result="effect1_texture_40000623_10542">
<feMergeNode in="displacedImage"/>
</feMerge>
</filter>
<clipPath id="clip0_40000623_10542">
<rect width="16" height="16" fill="white"/>
</clipPath>
</defs>
</svg>
