<svg width="29" height="22" viewBox="0 0 29 22" fill="none" xmlns="http://www.w3.org/2000/svg">
<mask id="path-1-inside-1_40000294_4014" fill="white">
<path d="M0.5 0H28.5V22H0.5V0Z"/>
</mask>
<path d="M28.5 22V20.5H0.5V22V23.5H28.5V22Z" fill="black" mask="url(#path-1-inside-1_40000294_4014)"/>
<path d="M9.89475 4.56C10.2788 4.56 10.4548 4.88 10.4548 5.248C10.4548 5.616 10.2788 5.936 9.89475 5.936H6.82275V15.344C6.82275 15.808 6.45475 16.016 6.02275 16.016C5.60675 16.016 5.22275 15.808 5.22275 15.344V5.936H2.16675C1.76675 5.936 1.59075 5.616 1.59075 5.248C1.59075 4.88 1.76675 4.56 2.16675 4.56H9.89475ZM13.8859 7.344C15.9019 7.344 17.2299 8.4 17.2299 10.144V15.408C17.2299 15.824 16.8779 16.016 16.5099 16.016C16.1419 16.016 15.7899 15.824 15.7899 15.408V14.8H15.7739C15.6139 15.168 15.2619 15.472 14.8459 15.68C14.4139 15.904 13.8219 16.064 13.1819 16.064C11.3419 16.064 10.2539 15.136 10.2539 13.568V13.36C10.2539 11.952 11.1019 10.896 13.4379 10.896H15.6619V10.496C15.6619 9.264 15.1019 8.72 13.8539 8.72C13.1019 8.72 12.3659 8.944 11.7099 9.36C11.3739 9.568 11.0219 9.44 10.8139 9.12C10.6219 8.8 10.6539 8.416 10.9899 8.192C11.7099 7.696 12.7659 7.344 13.8859 7.344ZM13.4859 12.128C12.2379 12.128 11.7899 12.672 11.7899 13.44V13.504C11.7899 14.288 12.3179 14.736 13.3099 14.736C13.9339 14.736 14.4139 14.64 14.8299 14.416C15.3739 14.096 15.6779 13.648 15.6779 12.944V12.128H13.4859ZM20.0562 4.08C20.4722 4.08 20.8562 4.288 20.8562 4.736V8.576C21.3682 7.728 22.4562 7.344 23.3682 7.344C25.6242 7.344 26.7603 8.752 26.7603 11.424V11.968C26.7603 14.704 25.3843 16.064 23.2723 16.064C22.1363 16.064 21.2402 15.6 20.8242 14.88H20.7762V15.376C20.7762 15.824 20.4082 16.016 20.0242 16.016C19.6402 16.016 19.2722 15.824 19.2722 15.376V4.736C19.2722 4.288 19.6562 4.08 20.0562 4.08ZM23.0963 8.72C21.7842 8.72 20.8242 9.616 20.8242 10.976V12.816C20.8242 13.776 21.7682 14.704 23.1122 14.704C24.4243 14.704 25.2083 13.808 25.2083 11.92V11.488C25.2083 9.632 24.5683 8.72 23.0963 8.72Z" fill="#2C2C2C"/>
</svg>
