<svg width="46" height="98" viewBox="0 0 46 98" fill="none" xmlns="http://www.w3.org/2000/svg">
<path d="M28.1677 58.7673C30.6682 51.0776 15.001 51.0776 17.5015 58.7673C15.001 51.0776 2.32395 60.2739 8.87232 65.0292C2.32832 60.2739 -2.51521 75.16 5.58065 75.16C-2.51521 75.16 2.32832 90.0461 8.87669 85.2907C2.32832 90.0461 15.001 99.2424 17.5059 91.5526C15.0054 99.2424 30.6725 99.2424 28.1721 91.5526C30.6725 99.2424 43.3496 90.0461 36.8013 85.2907C43.3496 90.0461 48.1932 75.16 40.0973 75.16C48.1932 75.16 43.3496 60.2739 36.8013 65.0292C43.3496 60.2739 30.6769 51.0776 28.1721 58.7673H28.1677Z" fill="#EEEDEB"/>
<path d="M28.1677 58.7673C30.6682 51.0776 15.001 51.0776 17.5015 58.7673C15.001 51.0776 2.32395 60.2739 8.87232 65.0292C2.32832 60.2739 -2.51521 75.16 5.58065 75.16C-2.51521 75.16 2.32832 90.0461 8.87669 85.2907C2.32832 90.0461 15.001 99.2424 17.5059 91.5526C15.0054 99.2424 30.6725 99.2424 28.1721 91.5526C30.6725 99.2424 43.3496 90.0461 36.8013 85.2907C43.3496 90.0461 48.1932 75.16 40.0973 75.16C48.1932 75.16 43.3496 60.2739 36.8013 65.0292C43.3496 60.2739 30.6769 51.0776 28.1721 58.7673H28.1677Z" fill="#EEEDEB" stroke="#9C9C9C" stroke-miterlimit="10"/>
<path d="M23.6379 72.7629V72.907C23.6379 72.9943 23.6335 73.0773 23.6335 73.1646C23.6292 73.2956 23.6204 73.4266 23.6117 73.5532C23.6117 73.5926 23.6073 73.6319 23.6029 73.6712C23.4674 75.4004 22.8554 76.6885 21.0763 76.6885C19.1266 76.6885 18.2305 74.9288 18.2305 72.7629C18.2305 72.2607 18.2654 71.776 18.3529 71.335C19.1747 71.4398 20.0315 71.514 20.9101 71.5664C21.7276 71.6188 22.5625 71.645 23.4193 71.645C23.4674 71.6494 23.5199 71.6494 23.568 71.6494C23.616 72.0031 23.6379 72.3742 23.6379 72.7629Z" fill="#FBFBFB" stroke="#2C2C2C" stroke-miterlimit="10"/>
<path d="M23.657 72.907V72.9856C23.657 73.0467 23.657 73.1035 23.6526 73.1646C23.6482 73.2956 23.6395 73.4266 23.6308 73.5533C23.6308 73.5926 23.6264 73.6319 23.622 73.6712C23.5171 74.5358 23.1587 75.1602 22.2363 75.1602C21.1565 75.1602 20.6582 74.1864 20.6582 72.9856C20.6582 72.4441 20.7325 71.9463 20.9292 71.5664C21.7467 71.6188 22.5816 71.645 23.4384 71.645C23.5827 71.9943 23.6482 72.431 23.657 72.907Z" fill="#2C2C2C"/>
<path d="M29.0446 72.7629C29.0446 72.8371 29.0446 72.9113 29.0402 72.9856C29.0096 75.0467 28.4894 76.6885 26.4786 76.6885C24.4678 76.6885 23.6328 74.9288 23.6328 72.7629C23.6328 72.3742 23.6547 72.0031 23.7028 71.6494C24.5596 71.6494 25.3945 71.6232 26.2119 71.5751C27.1037 71.5271 27.9605 71.4529 28.7911 71.3481H28.7954C28.8392 71.3481 28.8829 71.3437 28.9266 71.335C28.9965 71.7061 29.0315 72.1079 29.0402 72.5271C29.0446 72.6057 29.0446 72.6843 29.0446 72.7629Z" fill="#FBFBFB" stroke="#2C2C2C" stroke-miterlimit="10"/>
<path d="M23.4365 77.1152C23.4385 77.1157 23.4403 77.116 23.4414 77.1162L23.4492 77.1182C23.4514 77.119 23.4538 77.1202 23.4561 77.1211C23.4983 77.1384 23.5588 77.1649 23.6299 77.1982C23.7756 77.2667 23.9503 77.3597 24.0967 77.4658C24.2295 77.5621 24.2923 77.6378 24.3174 77.6787C24.3113 77.6867 24.3044 77.6984 24.292 77.7109C23.9604 78.0434 23.8074 78.0334 23.79 78.0312C23.7623 78.0275 23.6805 77.997 23.5508 77.8096C23.5584 77.8208 23.5375 77.786 23.5049 77.6758C23.4766 77.5802 23.45 77.4619 23.4307 77.3408C23.4172 77.2568 23.4095 77.1775 23.4053 77.1084C23.4191 77.1109 23.4299 77.1137 23.4365 77.1152Z" fill="#EEEDEB" stroke="#2C2C2C"/>
<path d="M23.5823 71.6515C23.5342 71.6515 23.4817 71.6515 23.4337 71.6472C22.5769 71.6472 21.7419 71.621 20.9245 71.5686C20.0458 71.5162 19.189 71.4419 18.3672 71.3371C18.6338 69.8787 19.412 68.8438 21.0906 68.8438C22.6512 68.8438 23.3768 70.0271 23.5823 71.6515Z" stroke="#2C2C2C" stroke-miterlimit="10"/>
<path d="M28.925 71.3371C28.8813 71.3459 28.8376 71.3502 28.7939 71.3502H28.7895C27.9589 71.455 27.1021 71.5293 26.2104 71.5773C25.3929 71.6253 24.558 71.6515 23.7012 71.6515C23.9154 70.0271 24.6847 68.8438 26.477 68.8438C27.9371 68.8438 28.6671 69.8787 28.925 71.3371Z" stroke="#2C2C2C" stroke-miterlimit="10"/>
<path d="M29.0637 72.7674C29.0637 72.8416 29.0637 72.9158 29.0593 72.9901C29.0244 74.0861 28.7184 74.942 27.6386 74.942C26.5589 74.942 26.0605 73.9682 26.0605 72.7674C26.0605 72.3263 26.1086 71.9202 26.231 71.5796C27.1228 71.5316 27.9796 71.4573 28.8102 71.3525H28.8145C28.9632 71.6757 29.0375 72.0818 29.0593 72.5316C29.0637 72.6102 29.0637 72.6888 29.0637 72.7674Z" fill="#2C2C2C"/>
</svg>
