<svg width="46" height="98" viewBox="0 0 46 98" fill="none" xmlns="http://www.w3.org/2000/svg">
<rect x="10.8652" y="27.083" width="24.7539" height="70.4085" fill="#FEE888" stroke="#2C2C2C"/>
<path d="M28.1677 6.76734C30.6682 -0.922445 15.001 -0.922445 17.5015 6.76734C15.001 -0.922445 2.32395 8.27385 8.87232 13.0292C2.32832 8.27385 -2.51521 23.16 5.58065 23.16C-2.51521 23.16 2.32832 38.0461 8.87669 33.2907C2.32832 38.0461 15.001 47.2424 17.5059 39.5526C15.0054 47.2424 30.6725 47.2424 28.1721 39.5526C30.6725 47.2424 43.3496 38.0461 36.8013 33.2907C43.3496 38.0461 48.1932 23.16 40.0973 23.16C48.1932 23.16 43.3496 8.27385 36.8013 13.0292C43.3496 8.27385 30.6769 -0.922445 28.1721 6.76734H28.1677Z" fill="#FEE888"/>
<path d="M28.1677 6.76734C30.6682 -0.922445 15.001 -0.922445 17.5015 6.76734C15.001 -0.922445 2.32395 8.27385 8.87232 13.0292C2.32832 8.27385 -2.51521 23.16 5.58065 23.16C-2.51521 23.16 2.32832 38.0461 8.87669 33.2907C2.32832 38.0461 15.001 47.2424 17.5059 39.5526C15.0054 47.2424 30.6725 47.2424 28.1721 39.5526C30.6725 47.2424 43.3496 38.0461 36.8013 33.2907C43.3496 38.0461 48.1932 23.16 40.0973 23.16C48.1932 23.16 43.3496 8.27385 36.8013 13.0292C43.3496 8.27385 30.6769 -0.922445 28.1721 6.76734H28.1677Z" fill="#FEE888" stroke="#2C2C2C" stroke-miterlimit="10"/>
<path d="M23.6379 20.7629V20.907C23.6379 20.9943 23.6335 21.0773 23.6335 21.1646C23.6292 21.2956 23.6204 21.4266 23.6117 21.5532C23.6117 21.5926 23.6073 21.6319 23.6029 21.6712C23.4674 23.4004 22.8554 24.6885 21.0763 24.6885C19.1266 24.6885 18.2305 22.9288 18.2305 20.7629C18.2305 20.2607 18.2654 19.776 18.3529 19.335C19.1747 19.4398 20.0315 19.514 20.9101 19.5664C21.7276 19.6188 22.5625 19.645 23.4193 19.645C23.4674 19.6494 23.5199 19.6494 23.568 19.6494C23.616 20.0031 23.6379 20.3742 23.6379 20.7629Z" fill="#FBFBFB" stroke="#2C2C2C" stroke-miterlimit="10"/>
<path d="M23.657 20.907V20.9856C23.657 21.0467 23.657 21.1035 23.6526 21.1646C23.6482 21.2956 23.6395 21.4266 23.6308 21.5533C23.6308 21.5926 23.6264 21.6319 23.622 21.6712C23.5171 22.5358 23.1587 23.1602 22.2363 23.1602C21.1565 23.1602 20.6582 22.1864 20.6582 20.9856C20.6582 20.4441 20.7325 19.9463 20.9292 19.5664C21.7467 19.6188 22.5816 19.645 23.4384 19.645C23.5827 19.9943 23.6482 20.431 23.657 20.907Z" fill="#2C2C2C"/>
<path d="M29.0446 20.7629C29.0446 20.8371 29.0446 20.9113 29.0402 20.9856C29.0096 23.0467 28.4894 24.6885 26.4786 24.6885C24.4678 24.6885 23.6328 22.9288 23.6328 20.7629C23.6328 20.3742 23.6547 20.0031 23.7028 19.6494C24.5596 19.6494 25.3945 19.6232 26.2119 19.5751C27.1037 19.5271 27.9605 19.4529 28.7911 19.3481H28.7954C28.8392 19.3481 28.8829 19.3437 28.9266 19.335C28.9965 19.7061 29.0315 20.1079 29.0402 20.5271C29.0446 20.6057 29.0446 20.6843 29.0446 20.7629Z" fill="#FBFBFB" stroke="#2C2C2C" stroke-miterlimit="10"/>
<path d="M23.4365 25.1152C23.4385 25.1157 23.4403 25.116 23.4414 25.1162L23.4492 25.1182C23.4514 25.119 23.4538 25.1202 23.4561 25.1211C23.4983 25.1384 23.5588 25.1649 23.6299 25.1982C23.7756 25.2667 23.9503 25.3597 24.0967 25.4658C24.2295 25.5621 24.2923 25.6378 24.3174 25.6787C24.3113 25.6867 24.3044 25.6984 24.292 25.7109C23.9604 26.0434 23.8074 26.0334 23.79 26.0312C23.7623 26.0275 23.6805 25.997 23.5508 25.8096C23.5584 25.8208 23.5375 25.786 23.5049 25.6758C23.4766 25.5802 23.45 25.4619 23.4307 25.3408C23.4172 25.2568 23.4095 25.1775 23.4053 25.1084C23.4191 25.1109 23.4299 25.1137 23.4365 25.1152Z" fill="#FEE888" stroke="#2C2C2C"/>
<path d="M23.5823 19.6515C23.5342 19.6515 23.4817 19.6515 23.4337 19.6472C22.5769 19.6472 21.7419 19.621 20.9245 19.5686C20.0458 19.5162 19.189 19.4419 18.3672 19.3371C18.6338 17.8787 19.412 16.8438 21.0906 16.8438C22.6512 16.8438 23.3768 18.0271 23.5823 19.6515Z" stroke="#2C2C2C" stroke-miterlimit="10"/>
<path d="M28.925 19.3371C28.8813 19.3459 28.8376 19.3502 28.7939 19.3502H28.7895C27.9589 19.455 27.1021 19.5293 26.2104 19.5773C25.3929 19.6253 24.558 19.6515 23.7012 19.6515C23.9154 18.0271 24.6847 16.8438 26.477 16.8438C27.9371 16.8438 28.6671 17.8787 28.925 19.3371Z" stroke="#2C2C2C" stroke-miterlimit="10"/>
<path d="M29.0637 20.7674C29.0637 20.8416 29.0637 20.9158 29.0593 20.9901C29.0244 22.0861 28.7184 22.942 27.6386 22.942C26.5589 22.942 26.0605 21.9682 26.0605 20.7674C26.0605 20.3263 26.1086 19.9202 26.231 19.5796C27.1228 19.5316 27.9796 19.4573 28.8102 19.3525H28.8145C28.9632 19.6757 29.0375 20.0818 29.0593 20.5316C29.0637 20.6102 29.0637 20.6888 29.0637 20.7674Z" fill="#2C2C2C"/>
</svg>
