<svg width="46" height="98" viewBox="0 0 46 98" fill="none" xmlns="http://www.w3.org/2000/svg">
<rect x="10.8652" y="27.083" width="24.7539" height="70.4085" fill="#EEEDEB" stroke="#9C9C9C"/>
<path d="M28.1677 24.7673C30.6682 17.0776 15.001 17.0776 17.5015 24.7673C15.001 17.0776 2.32395 26.2739 8.87232 31.0292C2.32832 26.2739 -2.51521 41.16 5.58065 41.16C-2.51521 41.16 2.32832 56.0461 8.87669 51.2907C2.32832 56.0461 15.001 65.2424 17.5059 57.5526C15.0054 65.2424 30.6725 65.2424 28.1721 57.5526C30.6725 65.2424 43.3496 56.0461 36.8013 51.2907C43.3496 56.0461 48.1932 41.16 40.0973 41.16C48.1932 41.16 43.3496 26.2739 36.8013 31.0292C43.3496 26.2739 30.6769 17.0776 28.1721 24.7673H28.1677Z" fill="#EEEDEB"/>
<path d="M28.1677 24.7673C30.6682 17.0776 15.001 17.0776 17.5015 24.7673C15.001 17.0776 2.32395 26.2739 8.87232 31.0292C2.32832 26.2739 -2.51521 41.16 5.58065 41.16C-2.51521 41.16 2.32832 56.0461 8.87669 51.2907C2.32832 56.0461 15.001 65.2424 17.5059 57.5526C15.0054 65.2424 30.6725 65.2424 28.1721 57.5526C30.6725 65.2424 43.3496 56.0461 36.8013 51.2907C43.3496 56.0461 48.1932 41.16 40.0973 41.16C48.1932 41.16 43.3496 26.2739 36.8013 31.0292C43.3496 26.2739 30.6769 17.0776 28.1721 24.7673H28.1677Z" fill="#EEEDEB" stroke="#9C9C9C" stroke-miterlimit="10"/>
<path d="M23.6379 38.7629V38.907C23.6379 38.9943 23.6335 39.0773 23.6335 39.1646C23.6292 39.2956 23.6204 39.4266 23.6117 39.5532C23.6117 39.5926 23.6073 39.6319 23.6029 39.6712C23.4674 41.4004 22.8554 42.6885 21.0763 42.6885C19.1266 42.6885 18.2305 40.9288 18.2305 38.7629C18.2305 38.2607 18.2654 37.776 18.3529 37.335C19.1747 37.4398 20.0315 37.514 20.9101 37.5664C21.7276 37.6188 22.5625 37.645 23.4193 37.645C23.4674 37.6494 23.5199 37.6494 23.568 37.6494C23.616 38.0031 23.6379 38.3742 23.6379 38.7629Z" fill="#FBFBFB" stroke="#2C2C2C" stroke-miterlimit="10"/>
<path d="M23.657 38.907V38.9856C23.657 39.0467 23.657 39.1035 23.6526 39.1646C23.6482 39.2956 23.6395 39.4266 23.6308 39.5533C23.6308 39.5926 23.6264 39.6319 23.622 39.6712C23.5171 40.5358 23.1587 41.1602 22.2363 41.1602C21.1565 41.1602 20.6582 40.1864 20.6582 38.9856C20.6582 38.4441 20.7325 37.9463 20.9292 37.5664C21.7467 37.6188 22.5816 37.645 23.4384 37.645C23.5827 37.9943 23.6482 38.431 23.657 38.907Z" fill="#2C2C2C"/>
<path d="M29.0446 38.7629C29.0446 38.8371 29.0446 38.9113 29.0402 38.9856C29.0096 41.0467 28.4894 42.6885 26.4786 42.6885C24.4678 42.6885 23.6328 40.9288 23.6328 38.7629C23.6328 38.3742 23.6547 38.0031 23.7028 37.6494C24.5596 37.6494 25.3945 37.6232 26.2119 37.5751C27.1037 37.5271 27.9605 37.4529 28.7911 37.3481H28.7954C28.8392 37.3481 28.8829 37.3437 28.9266 37.335C28.9965 37.7061 29.0315 38.1079 29.0402 38.5271C29.0446 38.6057 29.0446 38.6843 29.0446 38.7629Z" fill="#FBFBFB" stroke="#2C2C2C" stroke-miterlimit="10"/>
<path d="M23.4365 43.1152C23.4385 43.1157 23.4403 43.116 23.4414 43.1162L23.4492 43.1182C23.4514 43.119 23.4538 43.1202 23.4561 43.1211C23.4983 43.1384 23.5588 43.1649 23.6299 43.1982C23.7756 43.2667 23.9503 43.3597 24.0967 43.4658C24.2295 43.5621 24.2923 43.6378 24.3174 43.6787C24.3113 43.6867 24.3044 43.6984 24.292 43.7109C23.9604 44.0434 23.8074 44.0334 23.79 44.0312C23.7623 44.0275 23.6805 43.997 23.5508 43.8096C23.5584 43.8208 23.5375 43.786 23.5049 43.6758C23.4766 43.5802 23.45 43.4619 23.4307 43.3408C23.4172 43.2568 23.4095 43.1775 23.4053 43.1084C23.4191 43.1109 23.4299 43.1137 23.4365 43.1152Z" fill="#EEEDEB" stroke="#2C2C2C"/>
<path d="M23.5823 37.6515C23.5342 37.6515 23.4817 37.6515 23.4337 37.6472C22.5769 37.6472 21.7419 37.621 20.9245 37.5686C20.0458 37.5162 19.189 37.4419 18.3672 37.3371C18.6338 35.8787 19.412 34.8438 21.0906 34.8438C22.6512 34.8438 23.3768 36.0271 23.5823 37.6515Z" stroke="#2C2C2C" stroke-miterlimit="10"/>
<path d="M28.925 37.3371C28.8813 37.3459 28.8376 37.3502 28.7939 37.3502H28.7895C27.9589 37.455 27.1021 37.5293 26.2104 37.5773C25.3929 37.6253 24.558 37.6515 23.7012 37.6515C23.9154 36.0271 24.6847 34.8438 26.477 34.8438C27.9371 34.8438 28.6671 35.8787 28.925 37.3371Z" stroke="#2C2C2C" stroke-miterlimit="10"/>
<path d="M29.0637 38.7674C29.0637 38.8416 29.0637 38.9158 29.0593 38.9901C29.0244 40.0861 28.7184 40.942 27.6386 40.942C26.5589 40.942 26.0605 39.9682 26.0605 38.7674C26.0605 38.3263 26.1086 37.9202 26.231 37.5796C27.1228 37.5316 27.9796 37.4573 28.8102 37.3525H28.8145C28.9632 37.6757 29.0375 38.0818 29.0593 38.5316C29.0637 38.6102 29.0637 38.6888 29.0637 38.7674Z" fill="#2C2C2C"/>
</svg>
