<svg width="46" height="98" viewBox="0 0 46 98" fill="none" xmlns="http://www.w3.org/2000/svg">
<rect x="10.5" y="46.5" width="25" height="51" fill="#EEEDEB" stroke="#9C9C9C"/>
<path d="M28.1677 43.7673C30.6682 36.0776 15.001 36.0776 17.5015 43.7673C15.001 36.0776 2.32395 45.2739 8.87232 50.0292C2.32832 45.2739 -2.51521 60.16 5.58065 60.16C-2.51521 60.16 2.32832 75.0461 8.87669 70.2907C2.32832 75.0461 15.001 84.2424 17.5059 76.5526C15.0054 84.2424 30.6725 84.2424 28.1721 76.5526C30.6725 84.2424 43.3496 75.0461 36.8013 70.2907C43.3496 75.0461 48.1932 60.16 40.0973 60.16C48.1932 60.16 43.3496 45.2739 36.8013 50.0292C43.3496 45.2739 30.6769 36.0776 28.1721 43.7673H28.1677Z" fill="#EEEDEB"/>
<path d="M28.1677 43.7673C30.6682 36.0776 15.001 36.0776 17.5015 43.7673C15.001 36.0776 2.32395 45.2739 8.87232 50.0292C2.32832 45.2739 -2.51521 60.16 5.58065 60.16C-2.51521 60.16 2.32832 75.0461 8.87669 70.2907C2.32832 75.0461 15.001 84.2424 17.5059 76.5526C15.0054 84.2424 30.6725 84.2424 28.1721 76.5526C30.6725 84.2424 43.3496 75.0461 36.8013 70.2907C43.3496 75.0461 48.1932 60.16 40.0973 60.16C48.1932 60.16 43.3496 45.2739 36.8013 50.0292C43.3496 45.2739 30.6769 36.0776 28.1721 43.7673H28.1677Z" fill="#EEEDEB" stroke="#9C9C9C" stroke-miterlimit="10"/>
<path d="M23.6379 57.7629V57.907C23.6379 57.9943 23.6335 58.0773 23.6335 58.1646C23.6292 58.2956 23.6204 58.4266 23.6117 58.5532C23.6117 58.5926 23.6073 58.6319 23.6029 58.6712C23.4674 60.4004 22.8554 61.6885 21.0763 61.6885C19.1266 61.6885 18.2305 59.9288 18.2305 57.7629C18.2305 57.2607 18.2654 56.776 18.3529 56.335C19.1747 56.4398 20.0315 56.514 20.9101 56.5664C21.7276 56.6188 22.5625 56.645 23.4193 56.645C23.4674 56.6494 23.5199 56.6494 23.568 56.6494C23.616 57.0031 23.6379 57.3742 23.6379 57.7629Z" fill="#FBFBFB" stroke="#2C2C2C" stroke-miterlimit="10"/>
<path d="M23.657 57.907V57.9856C23.657 58.0467 23.657 58.1035 23.6526 58.1646C23.6482 58.2956 23.6395 58.4266 23.6308 58.5533C23.6308 58.5926 23.6264 58.6319 23.622 58.6712C23.5171 59.5358 23.1587 60.1602 22.2363 60.1602C21.1565 60.1602 20.6582 59.1864 20.6582 57.9856C20.6582 57.4441 20.7325 56.9463 20.9292 56.5664C21.7467 56.6188 22.5816 56.645 23.4384 56.645C23.5827 56.9943 23.6482 57.431 23.657 57.907Z" fill="#2C2C2C"/>
<path d="M29.0446 57.7629C29.0446 57.8371 29.0446 57.9113 29.0402 57.9856C29.0096 60.0467 28.4894 61.6885 26.4786 61.6885C24.4678 61.6885 23.6328 59.9288 23.6328 57.7629C23.6328 57.3742 23.6547 57.0031 23.7028 56.6494C24.5596 56.6494 25.3945 56.6232 26.2119 56.5751C27.1037 56.5271 27.9605 56.4529 28.7911 56.3481H28.7954C28.8392 56.3481 28.8829 56.3437 28.9266 56.335C28.9965 56.7061 29.0315 57.1079 29.0402 57.5271C29.0446 57.6057 29.0446 57.6843 29.0446 57.7629Z" fill="#FBFBFB" stroke="#2C2C2C" stroke-miterlimit="10"/>
<path d="M23.4365 62.1152C23.4385 62.1157 23.4403 62.116 23.4414 62.1162L23.4492 62.1182C23.4514 62.119 23.4538 62.1202 23.4561 62.1211C23.4983 62.1384 23.5588 62.1649 23.6299 62.1982C23.7756 62.2667 23.9503 62.3597 24.0967 62.4658C24.2295 62.5621 24.2923 62.6378 24.3174 62.6787C24.3113 62.6867 24.3044 62.6984 24.292 62.7109C23.9604 63.0434 23.8074 63.0334 23.79 63.0312C23.7623 63.0275 23.6805 62.997 23.5508 62.8096C23.5584 62.8208 23.5375 62.786 23.5049 62.6758C23.4766 62.5802 23.45 62.4619 23.4307 62.3408C23.4172 62.2568 23.4095 62.1775 23.4053 62.1084C23.4191 62.1109 23.4299 62.1137 23.4365 62.1152Z" fill="#EEEDEB" stroke="#2C2C2C"/>
<path d="M23.5823 56.6515C23.5342 56.6515 23.4817 56.6515 23.4337 56.6472C22.5769 56.6472 21.7419 56.621 20.9245 56.5686C20.0458 56.5162 19.189 56.4419 18.3672 56.3371C18.6338 54.8787 19.412 53.8438 21.0906 53.8438C22.6512 53.8438 23.3768 55.0271 23.5823 56.6515Z" stroke="#2C2C2C" stroke-miterlimit="10"/>
<path d="M28.925 56.3371C28.8813 56.3459 28.8376 56.3502 28.7939 56.3502H28.7895C27.9589 56.455 27.1021 56.5293 26.2104 56.5773C25.3929 56.6253 24.558 56.6515 23.7012 56.6515C23.9154 55.0271 24.6847 53.8438 26.477 53.8438C27.9371 53.8438 28.6671 54.8787 28.925 56.3371Z" stroke="#2C2C2C" stroke-miterlimit="10"/>
<path d="M29.0637 57.7674C29.0637 57.8416 29.0637 57.9158 29.0593 57.9901C29.0244 59.0861 28.7184 59.942 27.6386 59.942C26.5589 59.942 26.0605 58.9682 26.0605 57.7674C26.0605 57.3263 26.1086 56.9202 26.231 56.5796C27.1228 56.5316 27.9796 56.4573 28.8102 56.3525H28.8145C28.9632 56.6757 29.0375 57.0818 29.0593 57.5316C29.0637 57.6102 29.0637 57.6888 29.0637 57.7674Z" fill="#2C2C2C"/>
</svg>
