<svg width="48" height="30" viewBox="0 0 48 30" fill="none" xmlns="http://www.w3.org/2000/svg">
<rect width="48" height="30" rx="15" fill="#A7E1B6"/>
<path d="M17.884 10.552C17.988 10.552 18.064 10.588 18.112 10.66C18.16 10.732 18.184 10.82 18.184 10.924C18.184 11.036 18.16 11.128 18.112 11.2C18.064 11.272 17.988 11.308 17.884 11.308H14.92C14.768 11.308 14.692 11.38 14.692 11.524V13.48H17.704C17.808 13.48 17.884 13.516 17.932 13.588C17.98 13.66 18.004 13.748 18.004 13.852C18.004 13.948 17.98 14.036 17.932 14.116C17.884 14.188 17.808 14.224 17.704 14.224H14.692V16.24C14.692 16.384 14.768 16.456 14.92 16.456C15.208 16.456 15.508 16.452 15.82 16.444C16.132 16.428 16.44 16.412 16.744 16.396C17.048 16.38 17.336 16.36 17.608 16.336C17.888 16.304 18.144 16.272 18.376 16.24C18.464 16.224 18.54 16.248 18.604 16.312C18.668 16.368 18.708 16.448 18.724 16.552C18.74 16.664 18.724 16.764 18.676 16.852C18.636 16.932 18.568 16.98 18.472 16.996C18.112 17.06 17.596 17.112 16.924 17.152C16.252 17.192 15.5 17.212 14.668 17.212C14.356 17.212 14.14 17.156 14.02 17.044C13.9 16.924 13.84 16.712 13.84 16.408V11.356C13.84 11.052 13.9 10.844 14.02 10.732C14.14 10.612 14.356 10.552 14.668 10.552H17.884ZM22.288 9.712C22.4 9.712 22.496 9.74 22.576 9.796C22.664 9.852 22.708 9.94 22.708 10.06V19.636C22.708 19.756 22.664 19.844 22.576 19.9C22.496 19.956 22.4 19.984 22.288 19.984C22.184 19.984 22.088 19.956 22 19.9C21.92 19.844 21.88 19.756 21.88 19.636V14.236H20.284V19.132C20.284 19.252 20.24 19.34 20.152 19.396C20.072 19.452 19.976 19.48 19.864 19.48C19.76 19.48 19.664 19.452 19.576 19.396C19.496 19.34 19.456 19.252 19.456 19.132V10.18C19.456 10.06 19.496 9.972 19.576 9.916C19.664 9.86 19.76 9.832 19.864 9.832C19.976 9.832 20.072 9.86 20.152 9.916C20.24 9.972 20.284 10.06 20.284 10.18V13.48H21.88V10.06C21.88 9.94 21.92 9.852 22 9.796C22.088 9.74 22.184 9.712 22.288 9.712ZM32.0339 10.552C32.3459 10.552 32.5619 10.612 32.6819 10.732C32.8019 10.844 32.8619 11.052 32.8619 11.356V12.424C32.8619 13.232 32.8299 13.988 32.7659 14.692C32.7019 15.388 32.5939 16.08 32.4419 16.768C32.4259 16.88 32.3659 16.96 32.2619 17.008C32.1659 17.056 32.0539 17.068 31.9259 17.044C31.8139 17.028 31.7219 16.984 31.6499 16.912C31.5859 16.832 31.5659 16.74 31.5899 16.636C31.7259 15.924 31.8259 15.232 31.8899 14.56C31.9619 13.888 31.9979 13.228 31.9979 12.58V11.548C31.9979 11.46 31.9779 11.404 31.9379 11.38C31.9059 11.348 31.8499 11.332 31.7699 11.332H25.9979C25.8859 11.332 25.8059 11.296 25.7579 11.224C25.7099 11.144 25.6859 11.048 25.6859 10.936C25.6859 10.824 25.7099 10.732 25.7579 10.66C25.8059 10.588 25.8859 10.552 25.9979 10.552H32.0339ZM34.0739 18.1C34.1859 18.1 34.2659 18.14 34.3139 18.22C34.3619 18.292 34.3859 18.384 34.3859 18.496C34.3859 18.6 34.3619 18.688 34.3139 18.76C34.2659 18.832 34.1859 18.868 34.0739 18.868H24.6899C24.5779 18.868 24.4979 18.832 24.4499 18.76C24.4019 18.688 24.3779 18.6 24.3779 18.496C24.3779 18.384 24.4019 18.292 24.4499 18.22C24.4979 18.14 24.5779 18.1 24.6899 18.1H34.0739Z" fill="#2C2C2C"/>
</svg>
