<svg width="158" height="166" viewBox="0 0 158 166" fill="none" xmlns="http://www.w3.org/2000/svg">
<rect x="0.5" y="0.5" width="157" height="165" rx="14.5" stroke="#CBCBC5"/>
<g filter="url(#filter0_g_40002013_11026)">
<path d="M79.2579 150.502C102.596 150.502 121.516 147.635 121.516 144.099C121.516 140.563 102.596 137.696 79.2579 137.696C55.9195 137.696 37 140.563 37 144.099C37 147.635 55.9195 150.502 79.2579 150.502Z" fill="#2C2C2C"/>
<path d="M76.4731 78.6113V138.751C76.4731 142.043 73.8141 144.712 70.5351 144.712H49.9362C39.1472 144.712 38.2039 128.39 48.966 127.569C49.2984 127.542 49.6398 127.533 49.9901 127.533C54.5088 127.533 59.7191 129.201 64.3276 131.348L69.9602 78.6203H76.4731V78.6113Z" fill="#CBCBC5" stroke="#2C2C2C" stroke-miterlimit="10"/>
<path d="M68.9538 133.908C67.9836 133.349 65.8366 132.015 61.7222 130.211Z" fill="#CBCBC5"/>
<path d="M68.9538 133.908C67.9836 133.349 65.8366 132.015 61.7222 130.211" stroke="#2C2C2C" stroke-miterlimit="10" stroke-linecap="round"/>
<path d="M79.258 82.1646L85.6452 140.708C86.4896 143.892 89.7326 145.785 92.9038 144.938L112.811 139.635C123.241 136.858 119.98 120.842 109.37 122.808C109.038 122.871 108.706 122.943 108.373 123.033C104.007 124.197 100.396 126.334 96.4882 129.598L85.5464 80.4873L79.249 82.1646H79.258Z" fill="#CBCBC5" stroke="#2C2C2C" stroke-miterlimit="10"/>
<path d="M91.6553 134.053C92.4458 133.259 94.1886 131.42 97.7011 128.615Z" fill="#FBFBFB"/>
<path d="M91.6553 134.053C92.4458 133.259 94.1886 131.42 97.7011 128.615" stroke="#2C2C2C" stroke-miterlimit="10" stroke-linecap="round"/>
<path d="M92.9131 144.532C92.9131 144.532 110.619 126.974 114.662 131.05" stroke="#2C2C2C" stroke-miterlimit="10" stroke-linecap="round"/>
<path d="M100.27 85.5105C100.27 95.8449 90.2987 104.222 78.0094 104.222C65.7201 104.222 55.7485 95.8449 55.7485 85.5105C55.7485 82.3452 56.6828 79.3603 58.3268 76.7541C60.7074 72.9757 60.8781 68.3134 59.0365 64.2464C58.183 62.3617 57.7159 60.3236 57.7159 58.1864C57.7159 55.6073 58.3986 53.1725 59.6114 50.9812C61.974 46.7338 62.4412 41.6387 60.2941 37.2741C59.3599 35.3803 58.8478 33.2972 58.8478 31.1239C58.8478 22.2233 67.4269 15 78.0094 15C88.5918 15 97.1799 22.2233 97.1799 31.1239C97.1799 33.3062 96.6679 35.3893 95.7336 37.2831C93.5866 41.6477 94.0537 46.7428 96.4163 50.9992C97.6291 53.1815 98.3029 55.6163 98.3029 58.1864C98.3029 60.3236 97.8357 62.3617 96.9823 64.2464C95.1407 68.3134 95.3114 72.9757 97.692 76.7541C99.3359 79.3693 100.27 82.3452 100.27 85.5105Z" fill="#EEEDEB" stroke="#2C2C2C" stroke-miterlimit="10"/>
<path d="M61.9203 130.293C61.9203 130.293 61.8484 130.257 61.8035 130.248L61.7227 130.203C61.7945 130.23 61.8574 130.266 61.9203 130.293Z" fill="#FBFBFB" stroke="#2C2C2C" stroke-miterlimit="10" stroke-linecap="round"/>
<path d="M77.3763 31.5642C77.3763 34.7502 76.6626 37.3423 73.6203 37.3423C70.7658 37.3423 69.4512 34.7596 69.4512 31.5642C69.4512 28.3688 70.4183 25.7861 73.6203 25.7861C76.4091 25.7861 77.3763 28.3688 77.3763 31.5642Z" fill="#FBFBFB" stroke="#2C2C2C" stroke-miterlimit="10"/>
<path d="M85.3014 31.5642C85.3014 31.6773 85.3014 31.781 85.3014 31.8941C85.2827 33.3834 85.0855 34.7125 84.5502 35.6928C83.4798 35.8059 82.5596 36.428 82.0244 37.314C81.8741 37.3329 81.7145 37.3423 81.5549 37.3423C78.7003 37.3423 77.3857 34.7596 77.3857 31.5642C77.3857 28.3688 78.3623 25.7861 81.5549 25.7861C84.2404 25.7861 85.2357 28.1803 85.3108 31.2155C85.3108 31.3286 85.3108 31.4511 85.3108 31.5642H85.3014Z" fill="#FBFBFB" stroke="#2C2C2C" stroke-miterlimit="10"/>
<path d="M77.3759 31.8845C77.3759 33.6566 76.9815 35.0893 75.2914 35.0893C73.7045 35.0893 72.9814 33.6566 72.9814 31.8845C72.9814 30.1124 73.5167 28.6797 75.2914 28.6797C76.8407 28.6797 77.3759 30.1124 77.3759 31.8845Z" fill="#2C2C2C"/>
<path d="M85.3012 31.5642C85.3012 33.3363 84.9068 34.769 83.2167 34.769C81.6298 34.769 80.9067 33.3363 80.9067 31.5642C80.9067 29.7921 81.442 28.3594 83.2167 28.3594C84.766 28.3594 85.3012 29.7921 85.3012 31.5642Z" fill="#2C2C2C"/>
<path d="M77.5669 37.29C78.0714 37.3737 78.3343 37.6379 78.4644 37.9111C78.6085 38.214 78.5862 38.5146 78.5288 38.6514C78.5164 38.6602 78.464 38.703 78.3247 38.7451C78.1468 38.7988 77.9108 38.8246 77.6714 38.7998C77.1751 38.7484 76.8553 38.5229 76.7886 38.1426C76.7438 37.887 76.7876 37.7408 76.8345 37.6553C76.8845 37.564 76.9684 37.4882 77.0854 37.4268C77.2039 37.3646 77.3363 37.3273 77.4468 37.3066C77.496 37.2975 77.5377 37.293 77.5669 37.29Z" fill="#93D1E0" stroke="#2C2C2C"/>
<path d="M82.8221 38.8604C82.8221 38.8604 80.9066 43.3565 75.3384 40.8021" stroke="#2C2C2C" stroke-miterlimit="10" stroke-linecap="round"/>
<path d="M84.5405 35.6923C84.6626 35.6735 84.7941 35.6641 84.9161 35.6641C86.1744 35.6641 87.273 36.3522 87.8552 37.3702" stroke="#2C2C2C" stroke-miterlimit="10" stroke-linecap="round"/>
<path d="M82.0151 37.3145L81.9771 37.3717" stroke="#2C2C2C" stroke-miterlimit="10" stroke-linecap="round"/>
</g>
<defs>
<filter id="filter0_g_40002013_11026" x="36.6" y="14.1" width="85.3156" height="136.802" filterUnits="userSpaceOnUse" color-interpolation-filters="sRGB">
<feFlood flood-opacity="0" result="BackgroundImageFix"/>
<feBlend mode="normal" in="SourceGraphic" in2="BackgroundImageFix" result="shape"/>
<feTurbulence type="fractalNoise" baseFrequency="0.66666668653488159 0.66666668653488159" numOctaves="3" seed="7043" />
<feDisplacementMap in="shape" scale="0.80000001192092896" xChannelSelector="R" yChannelSelector="G" result="displacedImage" width="100%" height="100%" />
<feMerge result="effect1_texture_40002013_11026">
<feMergeNode in="displacedImage"/>
</feMerge>
</filter>
</defs>
</svg>