<svg width="100" height="132" viewBox="0 0 100 132" fill="none" xmlns="http://www.w3.org/2000/svg">
<g filter="url(#filter0_f_40000319_7067)">
<ellipse cx="50.0001" cy="117.802" rx="13.7363" ry="3.84615" fill="#9C9C9C"/>
</g>
<path d="M63.9034 9.56055C76.9089 9.56074 88.6881 19.4093 94.0157 34.4746L94.381 35.542C96.1496 40.904 97.0392 46.6112 97.0392 52.5127C97.0392 54.9402 96.8839 57.3682 96.5802 59.7412L96.5792 59.7422C95.4401 68.5123 90.522 76.2278 83.0724 80.9072H83.0714C81.8588 81.6683 80.5977 82.3822 79.296 83.0518C81.545 83.9321 83.1385 86.1199 83.1388 88.6807V99.6699C83.1388 103.008 80.4328 105.714 77.0948 105.714H57.3488L52.8077 113.453H52.8214L52.3331 114.281C51.3275 115.989 48.8722 116.045 47.7804 114.44L47.6798 114.28L42.6544 105.714H23.2482C19.9104 105.714 17.2042 103.008 17.2042 99.6699V88.6807C17.2045 86.1322 18.7828 83.9531 21.0148 83.0645C20.9616 83.037 20.9077 83.011 20.8546 82.9834L20.0441 82.5537C12.2974 78.3551 6.80069 70.673 5.18665 61.8877L5.04211 61.0342C4.61375 58.253 4.39566 55.3865 4.39563 52.5283C4.39563 45.4105 5.75071 38.3739 8.30872 32.1611V32.1602L8.58118 31.5137C14.3857 18.016 25.3923 9.56836 37.5323 9.56836C42.012 9.56848 46.3552 10.6937 50.4318 12.8965H50.4327C50.5397 12.9526 50.6309 12.9736 50.7179 12.9736C50.8072 12.9735 50.8988 12.9521 50.9933 12.8984L51.0031 12.8926L51.7706 12.4902C55.6253 10.5432 59.7015 9.56055 63.9034 9.56055Z" fill="#FBD7D5"/>
<path d="M63.9034 9.56055L63.9035 9.0111H63.9034V9.56055ZM94.0157 34.4746L94.5356 34.2967L94.5338 34.2914L94.0157 34.4746ZM94.381 35.542L94.9028 35.3699L94.9008 35.3641L94.381 35.542ZM97.0392 52.5127L97.5886 52.5127V52.5127H97.0392ZM96.5802 59.7412L96.9687 60.1297L97.1014 59.9971L97.1252 59.811L96.5802 59.7412ZM96.5792 59.7422L96.1907 59.3537L96.0584 59.4859L96.0343 59.6714L96.5792 59.7422ZM83.0724 80.9072V81.4567H83.2306L83.3646 81.3725L83.0724 80.9072ZM83.0714 80.9072V80.3578H82.9133L82.7793 80.4418L83.0714 80.9072ZM79.296 83.0518L79.0447 82.5632L77.9625 83.1198L79.0957 83.5634L79.296 83.0518ZM83.1388 88.6807H83.6882V88.6806L83.1388 88.6807ZM77.0948 105.714V106.263H77.0949L77.0948 105.714ZM57.3488 105.714V105.164H57.0341L56.8749 105.436L57.3488 105.714ZM52.8077 113.453L52.3338 113.175L51.8483 114.003H52.8077V113.453ZM52.8214 113.453L53.2947 113.732L53.7832 112.904H52.8214V113.453ZM52.3331 114.281L51.8598 114.002L51.8597 114.002L52.3331 114.281ZM47.7804 114.44L47.3151 114.733L47.3205 114.741L47.3261 114.749L47.7804 114.44ZM47.6798 114.28L47.2059 114.558L47.2101 114.565L47.2145 114.573L47.6798 114.28ZM42.6544 105.714L43.1283 105.436L42.9691 105.164H42.6544V105.714ZM23.2482 105.714L23.2481 106.263H23.2482V105.714ZM17.2042 88.6807L16.6548 88.6806V88.6807H17.2042ZM21.0148 83.0645L21.218 83.5749L22.3385 83.1288L21.2666 82.5761L21.0148 83.0645ZM20.8546 82.9834L20.5973 83.4689L20.6012 83.4709L20.8546 82.9834ZM20.0441 82.5537L19.7822 83.0368L19.7867 83.0392L20.0441 82.5537ZM5.18665 61.8877L4.64485 61.9794L4.64624 61.987L5.18665 61.8877ZM5.04211 61.0342L4.49901 61.1178L4.50038 61.1259L5.04211 61.0342ZM4.39563 52.5283H3.84618V52.5283L4.39563 52.5283ZM8.30872 32.1611L8.81679 32.3703L8.85817 32.2698V32.1611H8.30872ZM8.30872 32.1602L7.80239 31.9468L7.75927 32.0491V32.1602H8.30872ZM8.58118 31.5137L8.07641 31.2966L8.07486 31.3003L8.58118 31.5137ZM37.5323 9.56836L37.5324 9.01891H37.5323V9.56836ZM50.4318 12.8965L50.1706 13.3799L50.2928 13.4459H50.4318V12.8965ZM50.4327 12.8965L50.6879 12.4099L50.5681 12.347H50.4327V12.8965ZM50.7179 12.9736V13.5231L50.7184 13.5231L50.7179 12.9736ZM50.9933 12.8984L51.2646 13.3764L51.276 13.3696L50.9933 12.8984ZM51.0031 12.8926L50.748 12.4059L50.7339 12.4133L50.7204 12.4214L51.0031 12.8926ZM51.7706 12.4902L51.5229 11.9997L51.5155 12.0036L51.7706 12.4902ZM63.9034 9.56055L63.9034 10.11C76.6107 10.1102 88.2234 19.7432 93.4977 34.6578L94.0157 34.4746L94.5338 34.2914C89.1528 19.0754 77.2072 9.0113 63.9035 9.0111L63.9034 9.56055ZM94.0157 34.4746L93.4959 34.6525L93.8611 35.7199L94.381 35.542L94.9008 35.3641L94.5356 34.2967L94.0157 34.4746ZM94.381 35.542L93.8592 35.7141C95.6085 41.0177 96.4897 46.6666 96.4897 52.5127H97.0392H97.5886C97.5886 46.5558 96.6906 40.7903 94.9028 35.3699L94.381 35.542ZM97.0392 52.5127L96.4897 52.5127C96.4897 54.917 96.3359 57.3216 96.0352 59.6715L96.5802 59.7412L97.1252 59.811C97.4318 57.4147 97.5886 54.9634 97.5886 52.5127L97.0392 52.5127ZM96.5802 59.7412L96.1917 59.3527L96.1907 59.3537L96.5792 59.7422L96.9677 60.1307L96.9687 60.1297L96.5802 59.7412ZM96.5792 59.7422L96.0343 59.6714C94.9162 68.2803 90.0898 75.8505 82.7801 80.4419L83.0724 80.9072L83.3646 81.3725C90.9543 76.6052 95.964 68.7443 97.1241 59.813L96.5792 59.7422ZM83.0724 80.9072V80.3578H83.0714V80.9072V81.4567H83.0724V80.9072ZM83.0714 80.9072L82.7793 80.4418C81.5809 81.194 80.3335 81.9002 79.0447 82.5632L79.296 83.0518L79.5473 83.5404C80.8619 82.8642 82.1366 82.1426 83.3635 81.3726L83.0714 80.9072ZM79.296 83.0518L79.0957 83.5634C81.1415 84.3642 82.5891 86.3538 82.5893 88.6807L83.1388 88.6807L83.6882 88.6806C83.6879 85.8859 81.9486 83.5 79.4963 82.5401L79.296 83.0518ZM83.1388 88.6807H82.5893V99.6699H83.1388H83.6882V88.6807H83.1388ZM83.1388 99.6699H82.5893C82.5893 102.704 80.1293 105.164 77.0948 105.164L77.0948 105.714L77.0949 106.263C80.7362 106.263 83.6882 103.311 83.6882 99.6699H83.1388ZM77.0948 105.714V105.164H57.3488V105.714V106.263H77.0948V105.714ZM57.3488 105.714L56.8749 105.436L52.3338 113.175L52.8077 113.453L53.2816 113.731L57.8227 105.992L57.3488 105.714ZM52.8077 113.453V114.003H52.8214V113.453V112.904H52.8077V113.453ZM52.8214 113.453L52.3481 113.174L51.8598 114.002L52.3331 114.281L52.8064 114.56L53.2947 113.732L52.8214 113.453ZM52.3331 114.281L51.8597 114.002C51.0599 115.36 49.1011 115.405 48.2347 114.131L47.7804 114.44L47.3261 114.749C48.6433 116.686 51.5952 116.617 52.8066 114.56L52.3331 114.281ZM47.7804 114.44L48.2457 114.148L48.1451 113.988L47.6798 114.28L47.2145 114.573L47.3151 114.733L47.7804 114.44ZM47.6798 114.28L48.1537 114.002L43.1283 105.436L42.6544 105.714L42.1805 105.992L47.2059 114.558L47.6798 114.28ZM42.6544 105.714V105.164H23.2482V105.714V106.263H42.6544V105.714ZM23.2482 105.714L23.2482 105.164C20.2138 105.164 17.7537 102.704 17.7537 99.6699H17.2042H16.6548C16.6548 103.311 19.607 106.263 23.2481 106.263L23.2482 105.714ZM17.2042 99.6699H17.7537V88.6807H17.2042H16.6548V99.6699H17.2042ZM17.2042 88.6807L17.7537 88.6807C17.7539 86.365 19.1878 84.3833 21.218 83.5749L21.0148 83.0645L20.8115 82.554C18.3779 83.5229 16.6551 85.8994 16.6548 88.6806L17.2042 88.6807ZM21.0148 83.0645L21.2666 82.5761C21.1673 82.5249 21.1892 82.538 21.108 82.4959L20.8546 82.9834L20.6012 83.4709C20.6262 83.4839 20.7559 83.5491 20.763 83.5528L21.0148 83.0645ZM20.8546 82.9834L21.112 82.4979L20.3014 82.0683L20.0441 82.5537L19.7867 83.0392L20.5973 83.4689L20.8546 82.9834ZM20.0441 82.5537L20.3059 82.0706C12.7091 77.9533 7.31183 70.4144 5.72705 61.7884L5.18665 61.8877L4.64624 61.987C6.28955 70.9316 11.8858 78.757 19.7823 83.0368L20.0441 82.5537ZM5.18665 61.8877L5.72838 61.796L5.58385 60.9424L5.04211 61.0342L4.50038 61.1259L4.64491 61.9794L5.18665 61.8877ZM5.04211 61.0342L5.58516 60.9505C5.16112 58.1975 4.94511 55.3589 4.94508 52.5283L4.39563 52.5283L3.84618 52.5283C3.84621 55.4141 4.06638 58.3086 4.49907 61.1178L5.04211 61.0342ZM4.39563 52.5283H4.94508C4.94508 45.4782 6.28761 38.5131 8.81679 32.3703L8.30872 32.1611L7.80065 31.9519C5.21382 38.2347 3.84618 45.3428 3.84618 52.5283H4.39563ZM8.30872 32.1611H8.85817V32.1602H8.30872H7.75927V32.1611H8.30872ZM8.30872 32.1602L8.81504 32.3735L9.0875 31.7271L8.58118 31.5137L8.07486 31.3003L7.80239 31.9468L8.30872 32.1602ZM8.58118 31.5137L9.08593 31.7307C14.8284 18.3772 25.6683 10.1178 37.5323 10.1178V9.56836V9.01891C25.1163 9.01891 13.9429 17.6548 8.07642 31.2966L8.58118 31.5137ZM37.5323 9.56836L37.5323 10.1178C41.917 10.1179 46.1708 11.2186 50.1706 13.3799L50.4318 12.8965L50.693 12.4131C46.5395 10.1687 42.1069 9.01903 37.5324 9.01891L37.5323 9.56836ZM50.4318 12.8965V13.4459H50.4327V12.8965V12.347H50.4318V12.8965ZM50.4327 12.8965L50.1776 13.3831C50.3538 13.4755 50.5319 13.5231 50.7179 13.5231V12.9736V12.4242C50.7185 12.4242 50.7196 12.4242 50.7209 12.4244C50.7222 12.4246 50.7225 12.4247 50.7215 12.4244C50.7199 12.424 50.7093 12.4211 50.6879 12.4099L50.4327 12.8965ZM50.7179 12.9736L50.7184 13.5231C50.9019 13.5229 51.0869 13.4771 51.2645 13.3763L50.9933 12.8984L50.722 12.4206C50.7143 12.425 50.7117 12.4253 50.7137 12.4248C50.7157 12.4243 50.7175 12.4242 50.7174 12.4242L50.7179 12.9736ZM50.9933 12.8984L51.276 13.3696L51.2857 13.3637L51.0031 12.8926L50.7204 12.4214L50.7106 12.4273L50.9933 12.8984ZM51.0031 12.8926L51.2581 13.3792L52.0257 12.9769L51.7706 12.4902L51.5155 12.0036L50.748 12.4059L51.0031 12.8926ZM51.7706 12.4902L52.0184 12.9807C55.7982 11.0714 59.7898 10.11 63.9034 10.11V9.56055V9.0111C59.6132 9.0111 55.4524 10.015 51.5229 11.9998L51.7706 12.4902Z" fill="#5C5C5C"/>
<g filter="url(#filter1_g_40000319_7067)">
<path d="M89.6421 52.5198C89.6421 54.6915 89.5033 56.8166 89.2334 58.8797C88.362 65.6119 84.5528 71.5918 78.8236 75.1828C71.4288 79.8287 61.7516 82.7449 51.095 83.0086C50.5553 83.0241 50.0155 83.0319 49.468 83.0319H48.9977C39.0351 82.9543 29.8591 80.5732 22.5491 76.6022C16.3033 73.2128 12.0777 67.0468 10.9981 59.9966C10.628 57.5845 10.4352 55.0793 10.4352 52.5198C10.4352 46.0591 11.669 39.9939 13.8358 34.7431C18.3698 23.7451 26.9752 16.3226 36.8452 16.3226C40.2766 16.3226 43.5537 17.2146 46.5687 18.8511C48.7509 20.03 51.3341 20.03 53.5086 18.8511C56.5158 17.2223 59.793 16.3226 63.2166 16.3226C73.6804 16.3226 82.7253 24.6603 86.9972 36.7441C88.6859 41.5141 89.6343 46.8657 89.6343 52.5198H89.6421Z" fill="#EEEDEB"/>
<path d="M89.6421 52.5198C89.6421 54.6915 89.5033 56.8166 89.2334 58.8797C88.362 65.6119 84.5528 71.5918 78.8236 75.1828C71.4288 79.8287 61.7516 82.7449 51.095 83.0086C50.5553 83.0241 50.0155 83.0319 49.468 83.0319H48.9977C39.0351 82.9543 29.8591 80.5732 22.5491 76.6022C16.3033 73.2128 12.0777 67.0468 10.9981 59.9966C10.628 57.5845 10.4352 55.0793 10.4352 52.5198C10.4352 46.0591 11.669 39.9939 13.8358 34.7431C18.3698 23.7451 26.9752 16.3226 36.8452 16.3226C40.2766 16.3226 43.5537 17.2146 46.5687 18.8511C48.7509 20.03 51.3341 20.03 53.5086 18.8511C56.5158 17.2223 59.793 16.3226 63.2166 16.3226C73.6804 16.3226 82.7253 24.6603 86.9972 36.7441C88.6859 41.5141 89.6343 46.8657 89.6343 52.5198H89.6421Z" stroke="#2C2C2C" stroke-width="1.0989" stroke-miterlimit="10"/>
</g>
<g filter="url(#filter2_g_40000319_7067)">
<path d="M49.6224 48.1988C49.6224 52.175 48.7326 55.3977 44.9167 55.3977C41.3414 55.3977 39.698 52.175 39.698 48.1988C39.698 44.2226 40.9085 41 44.9167 41C48.4039 41 49.6224 44.2226 49.6224 48.1988Z" fill="#FBFBFB" stroke="#2C2C2C" stroke-miterlimit="10"/>
<path d="M47.4898 48.1989C47.4898 50.4034 47.0008 52.1911 44.8844 52.1911C42.9044 52.1911 41.9905 50.4034 41.9905 48.1989C41.9905 45.9943 42.6639 44.2067 44.8844 44.2067C46.8164 44.2067 47.4898 45.9943 47.4898 48.1989Z" fill="#2C2C2C"/>
<path d="M59.5388 48.1988C59.5388 52.175 58.649 55.3977 54.8331 55.3977C51.2578 55.3977 49.6144 52.175 49.6144 48.1988C49.6144 44.2226 50.8249 41 54.8331 41C58.3203 41 59.5388 44.2226 59.5388 48.1988Z" fill="#FBFBFB" stroke="#2C2C2C" stroke-miterlimit="10"/>
<path d="M50.2878 55.6301C50.2878 55.6301 46.2394 55.8385 46.7525 58.0912C47.2655 60.3438 52.9172 59.8788 53.7188 58.9169C54.5205 57.9549 53.9593 55.8145 50.2878 55.6221V55.6301Z" fill="#FBD7D5" stroke="#2C2C2C" stroke-miterlimit="10"/>
<path d="M46.9984 62.3201H53.642" stroke="#2C2C2C" stroke-miterlimit="10" stroke-linecap="round"/>
<path d="M57.4062 48.1989C57.4062 50.4034 56.9172 52.1911 54.8008 52.1911C52.8207 52.1911 51.9069 50.4034 51.9069 48.1989C51.9069 45.9943 52.5802 44.2067 54.8008 44.2067C56.7328 44.2067 57.4062 45.9943 57.4062 48.1989Z" fill="#2C2C2C"/>
<path d="M33.3083 53.9852C33.3083 54.0158 33.2821 54.0468 33.2439 54.0468C33.206 54.0465 33.1804 54.0157 33.1804 53.9852C33.1806 53.9549 33.2061 53.9249 33.2439 53.9247C33.2819 53.9247 33.3082 53.9548 33.3083 53.9852Z" fill="#2C2C2C" stroke="#2C2C2C" stroke-width="1.0989"/>
<path d="M36.3389 53.9851C36.3389 54.0157 36.3126 54.0466 36.2744 54.0466C36.2365 54.0464 36.2109 54.0156 36.2109 53.9851C36.2111 53.9548 36.2366 53.9248 36.2744 53.9246C36.3124 53.9246 36.3387 53.9547 36.3389 53.9851Z" fill="#2C2C2C" stroke="#2C2C2C" stroke-width="1.0989"/>
<path d="M34.8274 55.4974C34.8274 55.528 34.8011 55.559 34.7629 55.559C34.725 55.5587 34.6995 55.5279 34.6995 55.4974C34.6997 55.4671 34.7252 55.4371 34.7629 55.4369C34.801 55.4369 34.8272 55.467 34.8274 55.4974Z" fill="#2C2C2C" stroke="#2C2C2C" stroke-width="1.0989"/>
<path d="M61.9622 53.9852C61.9622 54.0158 61.9359 54.0468 61.8977 54.0468C61.8598 54.0465 61.8342 54.0157 61.8342 53.9852C61.8344 53.9549 61.8599 53.9249 61.8977 53.9247C61.9357 53.9247 61.962 53.9548 61.9622 53.9852Z" fill="#2C2C2C" stroke="#2C2C2C" stroke-width="1.0989"/>
<path d="M64.9926 53.9851C64.9926 54.0157 64.9663 54.0466 64.9281 54.0466C64.8902 54.0464 64.8646 54.0156 64.8646 53.9851C64.8648 53.9548 64.8903 53.9248 64.9281 53.9246C64.9661 53.9246 64.9924 53.9547 64.9926 53.9851Z" fill="#2C2C2C" stroke="#2C2C2C" stroke-width="1.0989"/>
<path d="M63.4812 55.4974C63.4812 55.528 63.4549 55.559 63.4167 55.559C63.3788 55.5587 63.3533 55.5279 63.3533 55.4974C63.3535 55.4671 63.379 55.4371 63.4167 55.4369C63.4548 55.4369 63.481 55.467 63.4812 55.4974Z" fill="#2C2C2C" stroke="#2C2C2C" stroke-width="1.0989"/>
</g>
<path d="M47.0111 89.6758C47.3331 89.6758 47.6271 89.8438 47.6271 90.2078V92.6998H50.1051C50.4271 92.6998 50.5811 92.9518 50.5811 93.2598C50.5811 93.5818 50.4271 93.8338 50.1051 93.8338H47.6271V96.5358C47.6271 96.8998 47.3331 97.0678 47.0111 97.0678C46.6891 97.0678 46.3811 96.8998 46.3811 96.5358V93.8338H43.9031C43.5811 93.8338 43.4271 93.5818 43.4271 93.2598C43.4271 92.9518 43.5811 92.6998 43.9031 92.6998H46.3811V90.2078C46.3811 89.8438 46.6891 89.6758 47.0111 89.6758ZM55.7643 90.7118C57.4303 90.7118 58.4243 91.7058 58.4243 93.4418V97.7258C58.4243 98.1178 58.0883 98.2998 57.7383 98.2998C57.3883 98.2998 57.0523 98.1178 57.0523 97.7258V93.7638C57.0523 92.4198 56.4363 91.9298 55.3723 91.9298C54.3503 91.9298 53.4823 92.6438 53.4823 93.7918V97.7258C53.4823 98.1178 53.1463 98.2998 52.7823 98.2998C52.4323 98.2998 52.0963 98.1178 52.0963 97.7258V91.3698C52.0963 90.9778 52.4183 90.8098 52.7543 90.8098C53.0903 90.8098 53.4123 90.9778 53.4123 91.3698V91.8598H53.4403C53.7903 91.2158 54.7143 90.7118 55.7643 90.7118Z" fill="#2C2C2C"/>
<g filter="url(#filter3_g_40000319_7067)">
<path d="M39 36.2362C39 36.2362 42.44 34.0562 45.88 35.4862" stroke="#2C2C2C" stroke-miterlimit="10" stroke-linecap="round"/>
</g>
<g filter="url(#filter4_g_40000319_7067)">
<path d="M59.2601 36.2362C59.2601 36.2362 55.8201 34.0562 52.3801 35.4862" stroke="#2C2C2C" stroke-miterlimit="10" stroke-linecap="round"/>
</g>
<defs>
<filter id="filter0_f_40000319_7067" x="27.3627" y="105.055" width="45.2747" height="25.4945" filterUnits="userSpaceOnUse" color-interpolation-filters="sRGB">
<feFlood flood-opacity="0" result="BackgroundImageFix"/>
<feBlend mode="normal" in="SourceGraphic" in2="BackgroundImageFix" result="shape"/>
<feGaussianBlur stdDeviation="4.45055" result="effect1_foregroundBlur_40000319_7067"/>
</filter>
<filter id="filter1_g_40000319_7067" x="9.44624" y="15.3336" width="81.1848" height="68.6872" filterUnits="userSpaceOnUse" color-interpolation-filters="sRGB">
<feFlood flood-opacity="0" result="BackgroundImageFix"/>
<feBlend mode="normal" in="SourceGraphic" in2="BackgroundImageFix" result="shape"/>
<feTurbulence type="fractalNoise" baseFrequency="0.6066666841506958 0.6066666841506958" numOctaves="3" seed="7043" />
<feDisplacementMap in="shape" scale="0.87912094593048096" xChannelSelector="R" yChannelSelector="G" result="displacedImage" width="100%" height="100%" />
<feMerge result="effect1_texture_40000319_7067">
<feMergeNode in="displacedImage"/>
</feMerge>
</filter>
<filter id="filter2_g_40000319_7067" x="32.319" y="40.0604" width="33.5349" height="23.1992" filterUnits="userSpaceOnUse" color-interpolation-filters="sRGB">
<feFlood flood-opacity="0" result="BackgroundImageFix"/>
<feBlend mode="normal" in="SourceGraphic" in2="BackgroundImageFix" result="shape"/>
<feTurbulence type="fractalNoise" baseFrequency="0.6066666841506958 0.6066666841506958" numOctaves="3" seed="7043" />
<feDisplacementMap in="shape" scale="0.87912094593048096" xChannelSelector="R" yChannelSelector="G" result="displacedImage" width="100%" height="100%" />
<feMerge result="effect1_texture_40000319_7067">
<feMergeNode in="displacedImage"/>
</feMerge>
</filter>
<filter id="filter3_g_40000319_7067" x="38.0999" y="34.1" width="8.68025" height="3.03621" filterUnits="userSpaceOnUse" color-interpolation-filters="sRGB">
<feFlood flood-opacity="0" result="BackgroundImageFix"/>
<feBlend mode="normal" in="SourceGraphic" in2="BackgroundImageFix" result="shape"/>
<feTurbulence type="fractalNoise" baseFrequency="0.66666668653488159 0.66666668653488159" numOctaves="3" seed="7043" />
<feDisplacementMap in="shape" scale="0.80000001192092896" xChannelSelector="R" yChannelSelector="G" result="displacedImage" width="100%" height="100%" />
<feMerge result="effect1_texture_40000319_7067">
<feMergeNode in="displacedImage"/>
</feMerge>
</filter>
<filter id="filter4_g_40000319_7067" x="51.48" y="34.1" width="8.68013" height="3.03621" filterUnits="userSpaceOnUse" color-interpolation-filters="sRGB">
<feFlood flood-opacity="0" result="BackgroundImageFix"/>
<feBlend mode="normal" in="SourceGraphic" in2="BackgroundImageFix" result="shape"/>
<feTurbulence type="fractalNoise" baseFrequency="0.66666668653488159 0.66666668653488159" numOctaves="3" seed="7043" />
<feDisplacementMap in="shape" scale="0.80000001192092896" xChannelSelector="R" yChannelSelector="G" result="displacedImage" width="100%" height="100%" />
<feMerge result="effect1_texture_40000319_7067">
<feMergeNode in="displacedImage"/>
</feMerge>
</filter>
</defs>
</svg>
