<svg width="100" height="131" viewBox="0 0 100 131" fill="none" xmlns="http://www.w3.org/2000/svg">
<g filter="url(#filter0_f_40000294_5874)">
<ellipse cx="50.0001" cy="117.033" rx="13.7363" ry="3.84615" fill="#9C9C9C"/>
</g>
<path d="M63.9034 8.79126C76.9089 8.79145 88.6881 18.64 94.0157 33.7053L94.381 34.7727C96.1496 40.1347 97.0392 45.8419 97.0392 51.7434C97.0392 54.1709 96.8839 56.5989 96.5802 58.9719L96.5792 58.9729C95.4401 67.743 90.522 75.4585 83.0724 80.1379H83.0714C81.8588 80.899 80.5977 81.6129 79.296 82.2825C81.545 83.1628 83.1385 85.3506 83.1388 87.9114V98.9006C83.1388 102.239 80.4328 104.944 77.0948 104.945H57.3488L52.8077 112.684H52.8214L52.3331 113.512C51.3275 115.219 48.8722 115.276 47.7804 113.671L47.6798 113.511L42.6544 104.945H23.2482C19.9104 104.944 17.2042 102.238 17.2042 98.9006V87.9114C17.2045 85.3629 18.7828 83.1838 21.0148 82.2952C20.9616 82.2677 20.9077 82.2417 20.8546 82.2141L20.0441 81.7844C12.2974 77.5858 6.80069 69.9037 5.18665 61.1184L5.04211 60.2649C4.61375 57.4837 4.39566 54.6172 4.39563 51.759C4.39563 44.6412 5.75071 37.6046 8.30872 31.3918V31.3909L8.58118 30.7444C14.3857 17.2467 25.3923 8.79907 37.5323 8.79907C42.012 8.79919 46.3552 9.92437 50.4318 12.1272H50.4327C50.5397 12.1833 50.6309 12.2043 50.7179 12.2043C50.8072 12.2043 50.8988 12.1828 50.9933 12.1292L51.0031 12.1233L51.7706 11.7209C55.6253 9.77394 59.7015 8.79126 63.9034 8.79126Z" fill="#FBD7D5"/>
<path d="M63.9034 8.79126L63.9035 8.24181H63.9034V8.79126ZM94.0157 33.7053L94.5356 33.5274L94.5338 33.5221L94.0157 33.7053ZM94.381 34.7727L94.9028 34.6006L94.9008 34.5948L94.381 34.7727ZM97.0392 51.7434L97.5886 51.7434V51.7434H97.0392ZM96.5802 58.9719L96.9687 59.3604L97.1014 59.2278L97.1252 59.0417L96.5802 58.9719ZM96.5792 58.9729L96.1907 58.5844L96.0584 58.7166L96.0343 58.9021L96.5792 58.9729ZM83.0724 80.1379V80.6874H83.2306L83.3646 80.6032L83.0724 80.1379ZM83.0714 80.1379V79.5885H82.9133L82.7793 79.6726L83.0714 80.1379ZM79.296 82.2825L79.0447 81.7939L77.9625 82.3505L79.0957 82.7941L79.296 82.2825ZM83.1388 87.9114H83.6882V87.9113L83.1388 87.9114ZM77.0948 104.945V105.494H77.0949L77.0948 104.945ZM57.3488 104.945V104.395H57.0341L56.8749 104.667L57.3488 104.945ZM52.8077 112.684L52.3338 112.406L51.8483 113.233H52.8077V112.684ZM52.8214 112.684L53.2947 112.963L53.7832 112.134H52.8214V112.684ZM52.3331 113.512L51.8598 113.233L51.8597 113.233L52.3331 113.512ZM47.7804 113.671L47.3151 113.963L47.3205 113.972L47.3261 113.98L47.7804 113.671ZM47.6798 113.511L47.2059 113.789L47.2101 113.796L47.2145 113.803L47.6798 113.511ZM42.6544 104.945L43.1283 104.667L42.9691 104.395H42.6544V104.945ZM23.2482 104.945L23.2481 105.494H23.2482V104.945ZM17.2042 87.9114L16.6548 87.9113V87.9114H17.2042ZM21.0148 82.2952L21.218 82.8056L22.3385 82.3595L21.2666 81.8068L21.0148 82.2952ZM20.8546 82.2141L20.5973 82.6996L20.6012 82.7016L20.8546 82.2141ZM20.0441 81.7844L19.7822 82.2675L19.7867 82.2699L20.0441 81.7844ZM5.18665 61.1184L4.64485 61.2102L4.64624 61.2177L5.18665 61.1184ZM5.04211 60.2649L4.49901 60.3485L4.50038 60.3566L5.04211 60.2649ZM4.39563 51.759H3.84618V51.759L4.39563 51.759ZM8.30872 31.3918L8.81679 31.601L8.85817 31.5005V31.3918H8.30872ZM8.30872 31.3909L7.80239 31.1775L7.75927 31.2798V31.3909H8.30872ZM8.58118 30.7444L8.07641 30.5273L8.07486 30.531L8.58118 30.7444ZM37.5323 8.79907L37.5324 8.24962H37.5323V8.79907ZM50.4318 12.1272L50.1706 12.6106L50.2928 12.6766H50.4318V12.1272ZM50.4327 12.1272L50.6879 11.6406L50.5681 11.5777H50.4327V12.1272ZM50.7179 12.2043V12.7538L50.7184 12.7538L50.7179 12.2043ZM50.9933 12.1292L51.2646 12.6071L51.276 12.6003L50.9933 12.1292ZM51.0031 12.1233L50.748 11.6366L50.7339 11.644L50.7204 11.6521L51.0031 12.1233ZM51.7706 11.7209L51.5229 11.2305L51.5155 11.2343L51.7706 11.7209ZM63.9034 8.79126L63.9034 9.34071C76.6107 9.3409 88.2234 18.9739 93.4977 33.8885L94.0157 33.7053L94.5338 33.5221C89.1528 18.3061 77.2072 8.24201 63.9035 8.24181L63.9034 8.79126ZM94.0157 33.7053L93.4959 33.8832L93.8611 34.9506L94.381 34.7727L94.9008 34.5948L94.5356 33.5274L94.0157 33.7053ZM94.381 34.7727L93.8592 34.9448C95.6085 40.2484 96.4897 45.8973 96.4897 51.7434H97.0392H97.5886C97.5886 45.7866 96.6906 40.021 94.9028 34.6006L94.381 34.7727ZM97.0392 51.7434L96.4897 51.7434C96.4897 54.1477 96.3359 56.5523 96.0352 58.9022L96.5802 58.9719L97.1252 59.0417C97.4318 56.6454 97.5886 54.1941 97.5886 51.7434L97.0392 51.7434ZM96.5802 58.9719L96.1917 58.5834L96.1907 58.5844L96.5792 58.9729L96.9677 59.3614L96.9687 59.3604L96.5802 58.9719ZM96.5792 58.9729L96.0343 58.9021C94.9162 67.511 90.0898 75.0812 82.7801 79.6727L83.0724 80.1379L83.3646 80.6032C90.9543 75.8359 95.964 67.9751 97.1241 59.0437L96.5792 58.9729ZM83.0724 80.1379V79.5885H83.0714V80.1379V80.6874H83.0724V80.1379ZM83.0714 80.1379L82.7793 79.6726C81.5809 80.4247 80.3335 81.1309 79.0447 81.7939L79.296 82.2825L79.5473 82.7711C80.8619 82.0949 82.1366 81.3733 83.3635 80.6033L83.0714 80.1379ZM79.296 82.2825L79.0957 82.7941C81.1415 83.5949 82.5891 85.5845 82.5893 87.9114L83.1388 87.9114L83.6882 87.9113C83.6879 85.1167 81.9486 82.7307 79.4963 81.7708L79.296 82.2825ZM83.1388 87.9114H82.5893V98.9006H83.1388H83.6882V87.9114H83.1388ZM83.1388 98.9006H82.5893C82.5893 101.935 80.1293 104.395 77.0948 104.395L77.0948 104.945L77.0949 105.494C80.7362 105.494 83.6882 102.542 83.6882 98.9006H83.1388ZM77.0948 104.945V104.395H57.3488V104.945V105.494H77.0948V104.945ZM57.3488 104.945L56.8749 104.667L52.3338 112.406L52.8077 112.684L53.2816 112.962L57.8227 105.223L57.3488 104.945ZM52.8077 112.684V113.233H52.8214V112.684V112.134H52.8077V112.684ZM52.8214 112.684L52.3481 112.405L51.8598 113.233L52.3331 113.512L52.8064 113.791L53.2947 112.963L52.8214 112.684ZM52.3331 113.512L51.8597 113.233C51.0599 114.591 49.1011 114.636 48.2347 113.362L47.7804 113.671L47.3261 113.98C48.6433 115.916 51.5952 115.848 52.8066 113.791L52.3331 113.512ZM47.7804 113.671L48.2457 113.379L48.1451 113.219L47.6798 113.511L47.2145 113.803L47.3151 113.963L47.7804 113.671ZM47.6798 113.511L48.1537 113.233L43.1283 104.667L42.6544 104.945L42.1805 105.223L47.2059 113.789L47.6798 113.511ZM42.6544 104.945V104.395H23.2482V104.945V105.494H42.6544V104.945ZM23.2482 104.945L23.2482 104.395C20.2138 104.395 17.7537 101.935 17.7537 98.9006H17.2042H16.6548C16.6548 102.542 19.607 105.494 23.2481 105.494L23.2482 104.945ZM17.2042 98.9006H17.7537V87.9114H17.2042H16.6548V98.9006H17.2042ZM17.2042 87.9114L17.7537 87.9114C17.7539 85.5957 19.1878 83.614 21.218 82.8056L21.0148 82.2952L20.8115 81.7847C18.3779 82.7536 16.6551 85.1301 16.6548 87.9113L17.2042 87.9114ZM21.0148 82.2952L21.2666 81.8068C21.1673 81.7556 21.1892 81.7688 21.108 81.7266L20.8546 82.2141L20.6012 82.7016C20.6262 82.7146 20.7559 82.7799 20.763 82.7835L21.0148 82.2952ZM20.8546 82.2141L21.112 81.7287L20.3014 81.299L20.0441 81.7844L19.7867 82.2699L20.5973 82.6996L20.8546 82.2141ZM20.0441 81.7844L20.3059 81.3014C12.7091 77.184 7.31183 69.6451 5.72705 61.0191L5.18665 61.1184L4.64624 61.2177C6.28955 70.1623 11.8858 77.9877 19.7823 82.2675L20.0441 81.7844ZM5.18665 61.1184L5.72838 61.0267L5.58385 60.1732L5.04211 60.2649L4.50038 60.3566L4.64491 61.2101L5.18665 61.1184ZM5.04211 60.2649L5.58516 60.1813C5.16112 57.4282 4.94511 54.5896 4.94508 51.759L4.39563 51.759L3.84618 51.759C3.84621 54.6448 4.06638 57.5393 4.49907 60.3485L5.04211 60.2649ZM4.39563 51.759H4.94508C4.94508 44.7089 6.28761 37.7438 8.81679 31.601L8.30872 31.3918L7.80065 31.1827C5.21382 37.4654 3.84618 44.5735 3.84618 51.759H4.39563ZM8.30872 31.3918H8.85817V31.3909H8.30872H7.75927V31.3918H8.30872ZM8.30872 31.3909L8.81504 31.6043L9.0875 30.9578L8.58118 30.7444L8.07486 30.531L7.80239 31.1775L8.30872 31.3909ZM8.58118 30.7444L9.08593 30.9614C14.8284 17.6079 25.6683 9.34852 37.5323 9.34852V8.79907V8.24962C25.1163 8.24962 13.9429 16.8855 8.07642 30.5273L8.58118 30.7444ZM37.5323 8.79907L37.5323 9.34852C41.917 9.34864 46.1708 10.4493 50.1706 12.6106L50.4318 12.1272L50.693 11.6438C46.5395 9.39945 42.1069 8.24974 37.5324 8.24962L37.5323 8.79907ZM50.4318 12.1272V12.6766H50.4327V12.1272V11.5777H50.4318V12.1272ZM50.4327 12.1272L50.1776 12.6138C50.3538 12.7062 50.5319 12.7538 50.7179 12.7538V12.2043V11.6549C50.7185 11.6549 50.7196 11.6549 50.7209 11.6551C50.7222 11.6553 50.7225 11.6554 50.7215 11.6552C50.7199 11.6547 50.7093 11.6518 50.6879 11.6406L50.4327 12.1272ZM50.7179 12.2043L50.7184 12.7538C50.9019 12.7536 51.0869 12.7078 51.2645 12.607L50.9933 12.1292L50.722 11.6513C50.7143 11.6557 50.7117 11.656 50.7137 11.6555C50.7157 11.655 50.7175 11.6549 50.7174 11.6549L50.7179 12.2043ZM50.9933 12.1292L51.276 12.6003L51.2857 12.5944L51.0031 12.1233L50.7204 11.6521L50.7106 11.658L50.9933 12.1292ZM51.0031 12.1233L51.2581 12.6099L52.0257 12.2076L51.7706 11.7209L51.5155 11.2343L50.748 11.6366L51.0031 12.1233ZM51.7706 11.7209L52.0184 12.2114C55.7982 10.3022 59.7898 9.34071 63.9034 9.34071V8.79126V8.24181C59.6132 8.24181 55.4524 9.24572 51.5229 11.2305L51.7706 11.7209Z" fill="#5C5C5C"/>
<g filter="url(#filter1_g_40000294_5874)">
<path d="M89.6421 51.7505C89.6421 53.9222 89.5033 56.0474 89.2334 58.1104C88.362 64.8426 84.5528 70.8225 78.8236 74.4135C71.4288 79.0594 61.7516 81.9756 51.095 82.2393C50.5553 82.2548 50.0155 82.2626 49.468 82.2626H48.9977C39.0351 82.185 29.8591 79.8039 22.5491 75.8329C16.3033 72.4435 12.0777 66.2775 10.9981 59.2273C10.628 56.8152 10.4352 54.31 10.4352 51.7505C10.4352 45.2898 11.669 39.2246 13.8358 33.9738C18.3698 22.9758 26.9752 15.5533 36.8452 15.5533C40.2766 15.5533 43.5537 16.4453 46.5687 18.0818C48.7509 19.2607 51.3341 19.2607 53.5086 18.0818C56.5158 16.453 59.793 15.5533 63.2166 15.5533C73.6804 15.5533 82.7253 23.891 86.9972 35.9749C88.6859 40.7448 89.6343 46.0964 89.6343 51.7505H89.6421Z" fill="#EEEDEB"/>
<path d="M89.6421 51.7505C89.6421 53.9222 89.5033 56.0474 89.2334 58.1104C88.362 64.8426 84.5528 70.8225 78.8236 74.4135C71.4288 79.0594 61.7516 81.9756 51.095 82.2393C50.5553 82.2548 50.0155 82.2626 49.468 82.2626H48.9977C39.0351 82.185 29.8591 79.8039 22.5491 75.8329C16.3033 72.4435 12.0777 66.2775 10.9981 59.2273C10.628 56.8152 10.4352 54.31 10.4352 51.7505C10.4352 45.2898 11.669 39.2246 13.8358 33.9738C18.3698 22.9758 26.9752 15.5533 36.8452 15.5533C40.2766 15.5533 43.5537 16.4453 46.5687 18.0818C48.7509 19.2607 51.3341 19.2607 53.5086 18.0818C56.5158 16.453 59.793 15.5533 63.2166 15.5533C73.6804 15.5533 82.7253 23.891 86.9972 35.9749C88.6859 40.7448 89.6343 46.0964 89.6343 51.7505H89.6421Z" stroke="#2C2C2C" stroke-width="1.0989" stroke-miterlimit="10"/>
</g>
<g filter="url(#filter2_g_40000294_5874)">
<path d="M50.6711 47.4925C50.6711 51.3394 49.8152 54.4573 46.1448 54.4573C42.7057 54.4573 41.125 51.3394 41.125 47.4925C41.125 43.6455 42.2894 40.5276 46.1448 40.5276C49.4991 40.5276 50.6711 43.6455 50.6711 47.4925Z" fill="#FBFBFB" stroke="#2C2C2C" stroke-width="1.0989" stroke-miterlimit="10"/>
<path d="M60.2096 47.4925C60.2096 51.3394 59.3537 54.4573 55.6833 54.4573C52.2442 54.4573 50.6635 51.3394 50.6635 47.4925C50.6635 43.6455 51.8278 40.5276 55.6833 40.5276C59.0375 40.5276 60.2096 43.6455 60.2096 47.4925Z" fill="#FBFBFB" stroke="#2C2C2C" stroke-width="1.0989" stroke-miterlimit="10"/>
<path d="M48.1647 44.3735C48.8814 44.3735 49.3324 44.6861 49.6364 45.2251C49.963 45.8042 50.1217 46.659 50.1217 47.686C50.1217 48.7339 50.0022 49.5847 49.6969 50.1587C49.5501 50.4345 49.365 50.6361 49.1354 50.772C48.9049 50.9083 48.5943 50.9995 48.1647 50.9995C47.4093 50.9994 46.8817 50.6699 46.5192 50.1167C46.1397 49.5374 45.9313 48.6885 45.9313 47.686C45.9313 46.6572 46.0909 45.8134 46.441 45.2427C46.7639 44.7165 47.2761 44.3737 48.1647 44.3735Z" fill="#2C2C2C" stroke="#2C2C2C" stroke-width="1.0989"/>
<path d="M57.703 44.3735C58.4198 44.3735 58.8707 44.6861 59.1747 45.2251C59.5013 45.8042 59.66 46.659 59.66 47.686C59.66 48.7339 59.5406 49.5847 59.2352 50.1587C59.0884 50.4345 58.9034 50.6361 58.6737 50.772C58.4432 50.9083 58.1326 50.9995 57.703 50.9995C56.9476 50.9994 56.42 50.6699 56.0575 50.1167C55.6781 49.5374 55.4696 48.6885 55.4696 47.686C55.4696 46.6572 55.6292 45.8134 55.9794 45.2427C56.3022 44.7165 56.8145 44.3737 57.703 44.3735Z" fill="#2C2C2C" stroke="#2C2C2C" stroke-width="1.0989"/>
<path d="M51.3112 54.6901C51.3112 54.6901 47.4172 54.8918 47.9107 57.0712C48.4042 59.2506 53.8404 58.8008 54.6115 57.8701C55.3826 56.9394 54.8428 54.8685 51.3112 54.6824V54.6901Z" fill="#FBD7D5" stroke="#2C2C2C" stroke-width="1.0989" stroke-miterlimit="10"/>
<path d="M39.8759 55.8457C39.8759 55.8457 43.0759 65.1219 53.2929 60.4528" stroke="#2C2C2C" stroke-width="1.0989" stroke-miterlimit="10" stroke-linecap="round"/>
<path d="M33.3083 53.2159C33.3083 53.2465 33.2821 53.2775 33.2439 53.2775C33.206 53.2772 33.1804 53.2464 33.1804 53.2159C33.1806 53.1856 33.2061 53.1556 33.2439 53.1554C33.2819 53.1554 33.3082 53.1855 33.3083 53.2159Z" fill="#2C2C2C" stroke="#2C2C2C" stroke-width="1.0989"/>
<path d="M36.3389 53.2158C36.3389 53.2464 36.3126 53.2773 36.2744 53.2773C36.2365 53.2771 36.2109 53.2463 36.2109 53.2158C36.2111 53.1855 36.2366 53.1555 36.2744 53.1553C36.3124 53.1553 36.3387 53.1854 36.3389 53.2158Z" fill="#2C2C2C" stroke="#2C2C2C" stroke-width="1.0989"/>
<path d="M34.8274 54.7281C34.8274 54.7587 34.8011 54.7897 34.7629 54.7897C34.725 54.7894 34.6995 54.7586 34.6995 54.7281C34.6997 54.6978 34.7252 54.6678 34.7629 54.6676C34.801 54.6676 34.8272 54.6977 34.8274 54.7281Z" fill="#2C2C2C" stroke="#2C2C2C" stroke-width="1.0989"/>
<path d="M61.9622 53.2159C61.9622 53.2465 61.9359 53.2775 61.8977 53.2775C61.8598 53.2772 61.8342 53.2464 61.8342 53.2159C61.8344 53.1856 61.8599 53.1556 61.8977 53.1554C61.9357 53.1554 61.962 53.1855 61.9622 53.2159Z" fill="#2C2C2C" stroke="#2C2C2C" stroke-width="1.0989"/>
<path d="M64.9926 53.2158C64.9926 53.2464 64.9663 53.2773 64.9281 53.2773C64.8902 53.2771 64.8646 53.2463 64.8646 53.2158C64.8648 53.1855 64.8903 53.1555 64.9281 53.1553C64.9661 53.1553 64.9924 53.1854 64.9926 53.2158Z" fill="#2C2C2C" stroke="#2C2C2C" stroke-width="1.0989"/>
<path d="M63.4812 54.7281C63.4812 54.7587 63.4549 54.7897 63.4167 54.7897C63.3788 54.7894 63.3533 54.7586 63.3533 54.7281C63.3535 54.6978 63.379 54.6678 63.4167 54.6676C63.4548 54.6676 63.481 54.6977 63.4812 54.7281Z" fill="#2C2C2C" stroke="#2C2C2C" stroke-width="1.0989"/>
</g>
<path d="M47.0111 88.9065C47.3331 88.9065 47.6271 89.0745 47.6271 89.4385V91.9305H50.1051C50.4271 91.9305 50.5811 92.1825 50.5811 92.4905C50.5811 92.8125 50.4271 93.0645 50.1051 93.0645H47.6271V95.7665C47.6271 96.1305 47.3331 96.2985 47.0111 96.2985C46.6891 96.2985 46.3811 96.1305 46.3811 95.7665V93.0645H43.9031C43.5811 93.0645 43.4271 92.8125 43.4271 92.4905C43.4271 92.1825 43.5811 91.9305 43.9031 91.9305H46.3811V89.4385C46.3811 89.0745 46.6891 88.9065 47.0111 88.9065ZM55.7643 89.9425C57.4303 89.9425 58.4243 90.9365 58.4243 92.6725V96.9565C58.4243 97.3485 58.0883 97.5305 57.7383 97.5305C57.3883 97.5305 57.0523 97.3485 57.0523 96.9565V92.9945C57.0523 91.6505 56.4363 91.1605 55.3723 91.1605C54.3503 91.1605 53.4823 91.8745 53.4823 93.0225V96.9565C53.4823 97.3485 53.1463 97.5305 52.7823 97.5305C52.4323 97.5305 52.0963 97.3485 52.0963 96.9565V90.6005C52.0963 90.2085 52.4183 90.0405 52.7543 90.0405C53.0903 90.0405 53.4123 90.2085 53.4123 90.6005V91.0905H53.4403C53.7903 90.4465 54.7143 89.9425 55.7643 89.9425Z" fill="#2C2C2C"/>
<defs>
<filter id="filter0_f_40000294_5874" x="27.3627" y="104.286" width="45.2747" height="25.4945" filterUnits="userSpaceOnUse" color-interpolation-filters="sRGB">
<feFlood flood-opacity="0" result="BackgroundImageFix"/>
<feBlend mode="normal" in="SourceGraphic" in2="BackgroundImageFix" result="shape"/>
<feGaussianBlur stdDeviation="4.45055" result="effect1_foregroundBlur_40000294_5874"/>
</filter>
<filter id="filter1_g_40000294_5874" x="9.44624" y="14.5643" width="81.1848" height="68.6872" filterUnits="userSpaceOnUse" color-interpolation-filters="sRGB">
<feFlood flood-opacity="0" result="BackgroundImageFix"/>
<feBlend mode="normal" in="SourceGraphic" in2="BackgroundImageFix" result="shape"/>
<feTurbulence type="fractalNoise" baseFrequency="0.6066666841506958 0.6066666841506958" numOctaves="3" seed="7043" />
<feDisplacementMap in="shape" scale="0.87912094593048096" xChannelSelector="R" yChannelSelector="G" result="displacedImage" width="100%" height="100%" />
<feMerge result="effect1_texture_40000294_5874">
<feMergeNode in="displacedImage"/>
</feMerge>
</filter>
<filter id="filter2_g_40000294_5874" x="32.319" y="39.5386" width="33.5349" height="23.217" filterUnits="userSpaceOnUse" color-interpolation-filters="sRGB">
<feFlood flood-opacity="0" result="BackgroundImageFix"/>
<feBlend mode="normal" in="SourceGraphic" in2="BackgroundImageFix" result="shape"/>
<feTurbulence type="fractalNoise" baseFrequency="0.6066666841506958 0.6066666841506958" numOctaves="3" seed="7043" />
<feDisplacementMap in="shape" scale="0.87912094593048096" xChannelSelector="R" yChannelSelector="G" result="displacedImage" width="100%" height="100%" />
<feMerge result="effect1_texture_40000294_5874">
<feMergeNode in="displacedImage"/>
</feMerge>
</filter>
</defs>
</svg>
