<svg width="73" height="74" viewBox="0 0 73 74" fill="none" xmlns="http://www.w3.org/2000/svg">
<g clip-path="url(#clip0_40000282_8092)">
<path d="M36.5 0.5C56.3759 0.5 72.5 16.8352 72.5 37C72.5 57.1648 56.3759 73.5 36.5 73.5C16.6241 73.5 0.5 57.1648 0.5 37C0.5 16.8352 16.6241 0.5 36.5 0.5Z" fill="#FBD7D5" stroke="#5C5C5C"/>
<g filter="url(#filter0_g_40000282_8092)">
<path d="M38.3872 34.15C38.3872 39.5746 37.2312 43.9712 32.2739 43.9712C27.6291 43.9712 25.4941 39.5746 25.4941 34.15C25.4941 28.7253 27.0771 24.3287 32.2739 24.3287C36.8042 24.3287 38.3872 28.7253 38.3872 34.15Z" fill="#FBFBFB" stroke="#2C2C2C" stroke-width="1.0789" stroke-miterlimit="10"/>
<path d="M51.2695 34.15C51.2695 39.5746 50.1135 43.9712 45.1562 43.9712C40.5114 43.9712 38.3765 39.5746 38.3765 34.15C38.3765 28.7253 39.9595 24.3287 45.1562 24.3287C49.6865 24.3287 51.2695 28.7253 51.2695 34.15Z" fill="#FBFBFB" stroke="#2C2C2C" stroke-width="1.0789" stroke-miterlimit="10"/>
<path d="M35.0024 29.516C36.0369 29.516 36.7124 29.9968 37.1616 30.8285C37.6319 31.6991 37.8471 32.9559 37.8472 34.4232C37.8472 35.9105 37.6861 37.1636 37.2446 38.0297C37.0294 38.4517 36.7544 38.7685 36.4077 38.9828C36.0611 39.1969 35.6079 39.3304 35.0024 39.3304C33.9199 39.3304 33.1444 38.8319 32.6147 37.9877C32.0691 37.1177 31.7817 35.8677 31.7817 34.4232C31.7818 32.9542 31.9989 31.7082 32.5054 30.8461C32.9856 30.029 33.7469 29.516 35.0024 29.516Z" fill="#2C2C2C" stroke="#2C2C2C" stroke-width="1.0789"/>
<path d="M47.8853 29.516C48.9197 29.516 49.5952 29.9968 50.0444 30.8285C50.5147 31.6991 50.73 32.9559 50.73 34.4232C50.73 35.9105 50.569 37.1636 50.1274 38.0297C49.9122 38.4517 49.6373 38.7685 49.2905 38.9828C48.9439 39.1969 48.4907 39.3304 47.8853 39.3304C46.8027 39.3304 46.0272 38.8319 45.4976 37.9877C44.9519 37.1177 44.6646 35.8677 44.6646 34.4232C44.6646 32.9542 44.8817 31.7082 45.3882 30.8461C45.8684 30.029 46.6297 29.516 47.8853 29.516Z" fill="#2C2C2C" stroke="#2C2C2C" stroke-width="1.0789"/>
<path d="M39.2517 44.2994C39.2517 44.2994 33.9925 44.5837 34.659 47.657C35.3255 50.7302 42.6677 50.0959 43.7091 48.7835C44.7505 47.4711 44.0215 44.5509 39.2517 44.2885V44.2994Z" fill="#2C2C2C" stroke="#2C2C2C" stroke-width="1.0789" stroke-miterlimit="10"/>
<path d="M14.8506 42.0714C14.8905 42.0715 14.9668 42.1141 14.9668 42.2218C14.9666 42.3291 14.8904 42.3711 14.8506 42.3712C14.8108 42.3712 14.7336 42.3293 14.7334 42.2218C14.7334 42.114 14.8107 42.0714 14.8506 42.0714Z" fill="#2C2C2C" stroke="#2C2C2C" stroke-width="1.0789"/>
<path d="M18.9336 42.0714C18.9735 42.0715 19.0498 42.1141 19.0498 42.2218C19.0496 42.3291 18.9734 42.3711 18.9336 42.3712C18.8938 42.3712 18.8166 42.3293 18.8164 42.2218C18.8164 42.114 18.8937 42.0714 18.9336 42.0714Z" fill="#2C2C2C" stroke="#2C2C2C" stroke-width="1.0789"/>
<path d="M16.8921 44.2041C16.932 44.2042 17.0083 44.2468 17.0083 44.3545C17.0081 44.4618 16.9319 44.5038 16.8921 44.5039C16.8523 44.5039 16.7751 44.462 16.7749 44.3545C16.7749 44.2467 16.8522 44.2041 16.8921 44.2041Z" fill="#2C2C2C" stroke="#2C2C2C" stroke-width="1.0789"/>
<path d="M53.5405 42.0714C53.5804 42.0715 53.6567 42.1141 53.6567 42.2218C53.6565 42.3291 53.5804 42.3711 53.5405 42.3712C53.5007 42.3712 53.4235 42.3293 53.4233 42.2218C53.4233 42.114 53.5007 42.0714 53.5405 42.0714Z" fill="#2C2C2C" stroke="#2C2C2C" stroke-width="1.0789"/>
<path d="M57.6333 42.0714C57.6732 42.0715 57.7495 42.1141 57.7495 42.2218C57.7493 42.3291 57.6731 42.3711 57.6333 42.3712C57.5935 42.3712 57.5163 42.3293 57.5161 42.2218C57.5161 42.114 57.5935 42.0714 57.6333 42.0714Z" fill="#2C2C2C" stroke="#2C2C2C" stroke-width="1.0789"/>
<path d="M55.5913 44.2041C55.6312 44.2042 55.7075 44.2468 55.7075 44.3545C55.7073 44.4618 55.6311 44.5038 55.5913 44.5039C55.5515 44.5039 55.4743 44.462 55.4741 44.3545C55.4741 44.2467 55.5515 44.2041 55.5913 44.2041Z" fill="#2C2C2C" stroke="#2C2C2C" stroke-width="1.0789"/>
</g>
</g>
<defs>
<filter id="filter0_g_40000282_8092" x="13.7943" y="23.3893" width="44.8947" height="27.4202" filterUnits="userSpaceOnUse" color-interpolation-filters="sRGB">
<feFlood flood-opacity="0" result="BackgroundImageFix"/>
<feBlend mode="normal" in="SourceGraphic" in2="BackgroundImageFix" result="shape"/>
<feTurbulence type="fractalNoise" baseFrequency="0.66666668653488159 0.66666668653488159" numOctaves="3" seed="7043" />
<feDisplacementMap in="shape" scale="0.80000001192092896" xChannelSelector="R" yChannelSelector="G" result="displacedImage" width="100%" height="100%" />
<feMerge result="effect1_texture_40000282_8092">
<feMergeNode in="displacedImage"/>
</feMerge>
</filter>
<clipPath id="clip0_40000282_8092">
<rect width="73" height="74" fill="white"/>
</clipPath>
</defs>
</svg>
