<svg width="73" height="74" viewBox="0 0 73 74" fill="none" xmlns="http://www.w3.org/2000/svg">
<g clip-path="url(#clip0_40000282_8032)">
<path d="M36.5 0.5C56.3759 0.5 72.5 16.8352 72.5 37C72.5 57.1648 56.3759 73.5 36.5 73.5C16.6241 73.5 0.5 57.1648 0.5 37C0.5 16.8352 16.6241 0.5 36.5 0.5Z" fill="#FBD7D5" stroke="#5C5C5C"/>
<g filter="url(#filter0_g_40000282_8032)">
<path d="M39.9157 34.1504C39.9157 39.3912 38.7452 43.6387 33.7257 43.6387C29.0226 43.6387 26.8608 39.3912 26.8608 34.1504C26.8608 28.9096 28.4532 24.662 33.7257 24.662C38.3128 24.662 39.9157 28.9096 39.9157 34.1504Z" fill="#FBFBFB" stroke="#2C2C2C" stroke-miterlimit="10"/>
<path d="M39.9161 34.6787C39.9161 37.5844 39.2728 39.9406 36.4889 39.9406C33.8843 39.9406 32.6821 37.5844 32.6821 34.6787C32.6821 31.773 33.5679 29.4167 36.4889 29.4167C39.0303 29.4167 39.9161 31.773 39.9161 34.6787Z" fill="#2C2C2C" stroke="#2C2C2C"/>
<path d="M52.9597 34.1504C52.9597 39.3912 51.7891 43.6387 46.7697 43.6387C42.0665 43.6387 39.9048 39.3912 39.9048 34.1504C39.9048 28.9096 41.4971 24.662 46.7697 24.662C51.3568 24.662 52.9597 28.9096 52.9597 34.1504Z" fill="#FBFBFB" stroke="#2C2C2C" stroke-miterlimit="10"/>
<path d="M40.7901 43.9558C40.7901 43.9558 35.4648 44.2305 36.1397 47.1996C36.8146 50.1686 44.2489 49.5558 45.3034 48.2879C46.3579 47.0199 45.6198 44.1988 40.7901 43.9452V43.9558Z" fill="#2C2C2C" stroke="#2C2C2C"/>
<path d="M25.1523 45.5302C25.1523 45.5302 29.5286 58.1672 43.5009 51.8064" stroke="#2C2C2C" stroke-miterlimit="10" stroke-linecap="round"/>
<path d="M52.9595 34.1504C52.9595 37.056 52.3163 39.4123 49.5324 39.4123C46.9277 39.4123 45.7256 37.056 45.7256 34.1504C45.7256 31.2447 46.6114 28.8884 49.5324 28.8884C52.0738 28.8884 52.9595 31.2447 52.9595 34.1504Z" fill="#2C2C2C" stroke="#2C2C2C"/>
<path d="M16.0843 42.6141C16.4512 42.6141 16.7486 42.316 16.7486 41.9483C16.7486 41.5806 16.4512 41.2825 16.0843 41.2825C15.7174 41.2825 15.4199 41.5806 15.4199 41.9483C15.4199 42.316 15.7174 42.6141 16.0843 42.6141Z" fill="#2C2C2C"/>
<path d="M20.2283 42.6141C20.5952 42.6141 20.8927 42.316 20.8927 41.9483C20.8927 41.5806 20.5952 41.2825 20.2283 41.2825C19.8614 41.2825 19.564 41.5806 19.564 41.9483C19.564 42.316 19.8614 42.6141 20.2283 42.6141Z" fill="#2C2C2C"/>
<path d="M18.1604 44.6745C18.5273 44.6745 18.8248 44.3764 18.8248 44.0087C18.8248 43.641 18.5273 43.3429 18.1604 43.3429C17.7935 43.3429 17.4961 43.641 17.4961 44.0087C17.4961 44.3764 17.7935 44.6745 18.1604 44.6745Z" fill="#2C2C2C"/>
<path d="M55.2698 42.6141C55.6367 42.6141 55.9342 42.316 55.9342 41.9483C55.9342 41.5806 55.6367 41.2825 55.2698 41.2825C54.9029 41.2825 54.6055 41.5806 54.6055 41.9483C54.6055 42.316 54.9029 42.6141 55.2698 42.6141Z" fill="#2C2C2C"/>
<path d="M59.4036 42.6141C59.7705 42.6141 60.0679 42.316 60.0679 41.9483C60.0679 41.5806 59.7705 41.2825 59.4036 41.2825C59.0367 41.2825 58.7393 41.5806 58.7393 41.9483C58.7393 42.316 59.0367 42.6141 59.4036 42.6141Z" fill="#2C2C2C"/>
<path d="M57.3372 44.6745C57.7041 44.6745 58.0015 44.3764 58.0015 44.0087C58.0015 43.641 57.7041 43.3429 57.3372 43.3429C56.9703 43.3429 56.6729 43.641 56.6729 44.0087C56.6729 44.3764 56.9703 44.6745 57.3372 44.6745Z" fill="#2C2C2C"/>
</g>
</g>
<defs>
<filter id="filter0_g_40000282_8032" x="15.0199" y="23.762" width="45.4479" height="30.7343" filterUnits="userSpaceOnUse" color-interpolation-filters="sRGB">
<feFlood flood-opacity="0" result="BackgroundImageFix"/>
<feBlend mode="normal" in="SourceGraphic" in2="BackgroundImageFix" result="shape"/>
<feTurbulence type="fractalNoise" baseFrequency="0.66666668653488159 0.66666668653488159" numOctaves="3" seed="7043" />
<feDisplacementMap in="shape" scale="0.80000001192092896" xChannelSelector="R" yChannelSelector="G" result="displacedImage" width="100%" height="100%" />
<feMerge result="effect1_texture_40000282_8032">
<feMergeNode in="displacedImage"/>
</feMerge>
</filter>
<clipPath id="clip0_40000282_8032">
<rect width="73" height="74" fill="white"/>
</clipPath>
</defs>
</svg>
