<svg width="73" height="74" viewBox="0 0 73 74" fill="none" xmlns="http://www.w3.org/2000/svg">
<g clip-path="url(#clip0_40000282_8231)">
<path d="M36.5 0.5C56.3759 0.5 72.5 16.8352 72.5 37C72.5 57.1648 56.3759 73.5 36.5 73.5C16.6241 73.5 0.5 57.1648 0.5 37C0.5 16.8352 16.6241 0.5 36.5 0.5Z" fill="#FBD7D5" stroke="#5C5C5C"/>
<g filter="url(#filter0_g_40000282_8231)">
<path d="M25.1333 49.9556C27.0695 49.9556 27.0695 52.1429 28.9947 52.1429C30.92 52.1429 30.92 49.9556 32.8561 49.9556C34.7923 49.9556 34.7923 52.1429 36.7176 52.1429C38.6428 52.1429 38.6537 49.9556 40.579 49.9556C42.5042 49.9556 42.5152 52.1429 44.4404 52.1429C46.3656 52.1429 46.3766 49.9556 48.3128 49.9556C50.2489 49.9556 50.2489 52.1429 52.1851 52.1429" stroke="#2C2C2C" stroke-width="1.0789" stroke-miterlimit="10" stroke-linecap="round"/>
<path d="M38.0387 30.7659C38.0387 36.0012 36.8669 40.2443 31.8418 40.2443C27.1334 40.2443 24.9692 36.0012 24.9692 30.7659C24.9692 25.5307 26.5739 21.2876 31.8418 21.2876C36.434 21.2876 38.0387 25.5307 38.0387 30.7659Z" fill="#FBFBFB" stroke="#2C2C2C" stroke-width="1.0789" stroke-miterlimit="10"/>
<path d="M51.0983 30.7659C51.0983 36.0012 49.9264 40.2443 44.9014 40.2443C40.193 40.2443 38.0288 36.0012 38.0288 30.7659C38.0288 27.4517 38.6728 24.528 40.4886 22.8286C41.9454 23.4936 45.6087 24.9185 50.127 24.8974C50.8132 26.5123 51.0983 28.5494 51.0983 30.7659Z" fill="#FBFBFB" stroke="#2C2C2C" stroke-width="1.0789" stroke-miterlimit="10"/>
<path d="M31.8003 26.3125C32.8652 26.3126 33.5502 26.7855 34.0005 27.5791C34.4732 28.4123 34.6909 29.618 34.6909 31.0303C34.6909 32.4632 34.5279 33.6641 34.0845 34.4922C33.8687 34.895 33.5912 35.2004 33.2378 35.4082C32.8835 35.6165 32.4194 35.747 31.8003 35.7471C30.6879 35.7471 29.8994 35.2576 29.3667 34.4492C28.8177 33.6158 28.5279 32.4179 28.5278 31.0303C28.5278 29.6163 28.7472 28.4216 29.2563 27.5967C29.7388 26.8151 30.5125 26.3125 31.8003 26.3125Z" fill="#2C2C2C" stroke="#2C2C2C" stroke-width="1.0789"/>
<path d="M44.8589 26.3125C45.9238 26.3126 46.6088 26.7855 47.0591 27.5791C47.5318 28.4123 47.7495 29.618 47.7495 31.0303C47.7495 32.4632 47.5865 33.6641 47.1431 34.4922C46.9273 34.895 46.6498 35.2004 46.2964 35.4082C45.9421 35.6165 45.478 35.747 44.8589 35.7471C43.7465 35.7471 42.9579 35.2576 42.4253 34.4492C41.8763 33.6158 41.5865 32.4179 41.5864 31.0303C41.5864 29.6163 41.8058 28.4216 42.3149 27.5967C42.7974 26.8151 43.5711 26.3125 44.8589 26.3125Z" fill="#2C2C2C" stroke="#2C2C2C" stroke-width="1.0789"/>
<path d="M50.1263 24.8974C45.6079 24.9185 41.9446 23.4936 40.4878 22.8286C41.5329 21.8576 42.9687 21.2876 44.9006 21.2876C47.5504 21.2876 49.1972 22.6914 50.1263 24.8974Z" stroke="#2C2C2C" stroke-width="1.0789" stroke-miterlimit="10"/>
<path d="M38.915 40.5608C38.915 40.5608 33.5837 40.8353 34.2594 43.8012C34.935 46.7671 42.3777 46.155 43.4333 44.8884C44.489 43.6218 43.7501 40.8036 38.915 40.5503V40.5608Z" fill="#2C2C2C" stroke="#2C2C2C" stroke-width="1.0789" stroke-miterlimit="10"/>
<path d="M52.4802 24.7496C51.6778 24.8552 50.8861 24.8974 50.126 24.8974" stroke="#2C2C2C" stroke-width="1.0789" stroke-miterlimit="10" stroke-linecap="round"/>
<path d="M14.8506 38.4377C14.915 38.4378 14.9668 38.4907 14.9668 38.5549C14.9667 38.619 14.915 38.6711 14.8506 38.6711C14.7862 38.6711 14.7335 38.6191 14.7334 38.5549C14.7334 38.4907 14.7861 38.4377 14.8506 38.4377Z" fill="#2C2C2C" stroke="#2C2C2C" stroke-width="1.0789"/>
<path d="M18.9336 38.4377C18.9981 38.4378 19.0498 38.4907 19.0498 38.5549C19.0497 38.619 18.998 38.6711 18.9336 38.6711C18.8692 38.6711 18.8165 38.6191 18.8164 38.5549C18.8164 38.4907 18.8691 38.4377 18.9336 38.4377Z" fill="#2C2C2C" stroke="#2C2C2C" stroke-width="1.0789"/>
<path d="M16.8921 40.4681C16.9565 40.4682 17.0083 40.5211 17.0083 40.5853C17.0082 40.6494 16.9565 40.7015 16.8921 40.7015C16.8277 40.7015 16.775 40.6495 16.7749 40.5853C16.7749 40.5211 16.8276 40.4681 16.8921 40.4681Z" fill="#2C2C2C" stroke="#2C2C2C" stroke-width="1.0789"/>
<path d="M53.5405 38.4377C53.605 38.4378 53.6567 38.4907 53.6567 38.5549C53.6566 38.619 53.6049 38.6711 53.5405 38.6711C53.4761 38.6711 53.4235 38.6191 53.4233 38.5549C53.4233 38.4907 53.476 38.4377 53.5405 38.4377Z" fill="#2C2C2C" stroke="#2C2C2C" stroke-width="1.0789"/>
<path d="M57.6333 38.4377C57.6978 38.4378 57.7495 38.4907 57.7495 38.5549C57.7494 38.619 57.6977 38.6711 57.6333 38.6711C57.5689 38.6711 57.5163 38.6191 57.5161 38.5549C57.5161 38.4907 57.5688 38.4377 57.6333 38.4377Z" fill="#2C2C2C" stroke="#2C2C2C" stroke-width="1.0789"/>
<path d="M55.5923 40.4681C55.6567 40.4682 55.7085 40.5211 55.7085 40.5853C55.7084 40.6494 55.6567 40.7015 55.5923 40.7015C55.5278 40.7015 55.4752 40.6495 55.4751 40.5853C55.4751 40.5211 55.5278 40.4681 55.5923 40.4681Z" fill="#2C2C2C" stroke="#2C2C2C" stroke-width="1.0789"/>
</g>
</g>
<defs>
<filter id="filter0_g_40000282_8231" x="13.7943" y="20.3482" width="44.8947" height="32.7342" filterUnits="userSpaceOnUse" color-interpolation-filters="sRGB">
<feFlood flood-opacity="0" result="BackgroundImageFix"/>
<feBlend mode="normal" in="SourceGraphic" in2="BackgroundImageFix" result="shape"/>
<feTurbulence type="fractalNoise" baseFrequency="0.66666668653488159 0.66666668653488159" numOctaves="3" seed="7043" />
<feDisplacementMap in="shape" scale="0.80000001192092896" xChannelSelector="R" yChannelSelector="G" result="displacedImage" width="100%" height="100%" />
<feMerge result="effect1_texture_40000282_8231">
<feMergeNode in="displacedImage"/>
</feMerge>
</filter>
<clipPath id="clip0_40000282_8231">
<rect width="73" height="74" fill="white"/>
</clipPath>
</defs>
</svg>
