<svg width="73" height="74" viewBox="0 0 73 74" fill="none" xmlns="http://www.w3.org/2000/svg">
<g clip-path="url(#clip0_40000282_8071)">
<path d="M36.5 0.5C56.3759 0.5 72.5 16.8352 72.5 37C72.5 57.1648 56.3759 73.5 36.5 73.5C16.6241 73.5 0.5 57.1648 0.5 37C0.5 16.8352 16.6241 0.5 36.5 0.5Z" fill="#FBD7D5" stroke="#5C5C5C"/>
<g filter="url(#filter0_g_40000282_8071)">
<path d="M38.9189 32.0849C38.9189 37.3208 37.747 41.5644 32.7214 41.5644C28.0125 41.5644 25.8481 37.3208 25.8481 32.0849C25.8481 26.849 27.453 22.6055 32.7214 22.6055C37.3141 22.6055 38.9189 26.849 38.9189 32.0849Z" fill="#FBFBFB" stroke="#2C2C2C" stroke-width="1.0789" stroke-miterlimit="10"/>
<path d="M51.9794 32.0849C51.9794 37.3208 50.8075 41.5644 45.7819 41.5644C41.0731 41.5644 38.9087 37.3208 38.9087 32.0849C38.9087 26.849 40.5135 22.6055 45.7819 22.6055C50.3746 22.6055 51.9794 26.849 51.9794 32.0849Z" fill="#FBFBFB" stroke="#2C2C2C" stroke-width="1.0789" stroke-miterlimit="10"/>
<path d="M39.7954 41.881C39.7954 41.881 34.4641 42.1555 35.1398 45.1215C35.8154 48.0875 43.2581 47.4753 44.3138 46.2087C45.3695 44.942 44.6305 42.1238 39.7954 41.8705V41.881Z" fill="#2C2C2C" stroke="#2C2C2C" stroke-width="1.0789" stroke-miterlimit="10"/>
<path d="M24.1274 43.4539C24.1274 43.4539 28.509 56.079 42.4983 49.7242" stroke="#2C2C2C" stroke-width="1.0789" stroke-miterlimit="10" stroke-linecap="round"/>
<path d="M15.0586 39.7493C15.1281 39.7493 15.1845 39.806 15.1846 39.8752C15.1846 39.9446 15.1281 40.0012 15.0586 40.0012C14.9891 40.0011 14.9326 39.9445 14.9326 39.8752C14.9327 39.806 14.9892 39.7494 15.0586 39.7493Z" fill="#2C2C2C" stroke="#2C2C2C" stroke-width="1.0789"/>
<path d="M19.1973 39.7491C19.2668 39.7491 19.3232 39.8058 19.3232 39.8751C19.3232 39.9444 19.2668 40.0011 19.1973 40.0011C19.1278 40.001 19.0713 39.9444 19.0713 39.8751C19.0713 39.8059 19.1278 39.7492 19.1973 39.7491Z" fill="#2C2C2C" stroke="#2C2C2C" stroke-width="1.0789"/>
<path d="M17.1274 41.8076C17.197 41.8076 17.2534 41.8643 17.2534 41.9336C17.2534 42.0029 17.197 42.0596 17.1274 42.0596C17.058 42.0595 17.0015 42.0028 17.0015 41.9336C17.0015 41.8644 17.058 41.8077 17.1274 41.8076Z" fill="#2C2C2C" stroke="#2C2C2C" stroke-width="1.0789"/>
<path d="M54.2803 39.7493C54.3498 39.7493 54.4062 39.806 54.4062 39.8752C54.4062 39.9446 54.3498 40.0012 54.2803 40.0012C54.2108 40.0011 54.1543 39.9445 54.1543 39.8752C54.1543 39.806 54.2108 39.7494 54.2803 39.7493Z" fill="#2C2C2C" stroke="#2C2C2C" stroke-width="1.0789"/>
<path d="M58.4302 39.7491C58.4997 39.7491 58.5561 39.8058 58.5562 39.8751C58.5562 39.9444 58.4997 40.0011 58.4302 40.0011C58.3607 40.001 58.3042 39.9444 58.3042 39.8751C58.3042 39.8059 58.3607 39.7492 58.4302 39.7491Z" fill="#2C2C2C" stroke="#2C2C2C" stroke-width="1.0789"/>
<path d="M56.3613 41.8076C56.4309 41.8076 56.4873 41.8643 56.4873 41.9336C56.4873 42.0029 56.4309 42.0596 56.3613 42.0596C56.2919 42.0595 56.2354 42.0028 56.2354 41.9336C56.2354 41.8644 56.2919 41.8077 56.3613 41.8076Z" fill="#2C2C2C" stroke="#2C2C2C" stroke-width="1.0789"/>
<path d="M36.7129 28.317C37.5579 28.317 38.4541 29.2572 38.4541 30.6705V30.8121C38.4373 30.8791 38.4116 30.9644 38.374 31.068C38.2965 31.2815 38.1802 31.549 38.0322 31.86C37.7367 32.4809 37.3285 33.242 36.8828 34.0328C36.0486 35.5131 35.0974 37.0697 34.5518 37.9537C33.9951 37.0755 33.0217 35.5236 32.167 34.0406C31.7109 33.2494 31.2924 32.4857 30.9902 31.859C30.8389 31.5452 30.7208 31.2743 30.6416 31.0563C30.5564 30.8217 30.5372 30.7029 30.5371 30.6705C30.5371 29.2447 31.4244 28.3173 32.2676 28.317C33.007 28.317 33.7769 29.0232 33.9629 30.1754H35.0283C35.2143 29.0231 35.9946 28.317 36.7129 28.317Z" fill="#2C2C2C" stroke="#2C2C2C" stroke-width="1.0789"/>
<path d="M49.6772 28.317C50.5222 28.317 51.4185 29.2572 51.4185 30.6705V30.8121C51.4017 30.8791 51.376 30.9644 51.3384 31.068C51.2609 31.2815 51.1446 31.549 50.9966 31.86C50.7011 32.4809 50.2928 33.242 49.8472 34.0328C49.0129 35.5131 48.0617 37.0697 47.5161 37.9537C46.9595 37.0755 45.9861 35.5236 45.1313 34.0406C44.6753 33.2494 44.2568 32.4857 43.9546 31.859C43.8033 31.5452 43.6851 31.2743 43.606 31.0563C43.5208 30.8217 43.5015 30.7029 43.5015 30.6705C43.5015 29.2447 44.3888 28.3173 45.2319 28.317C45.9714 28.317 46.7413 29.0232 46.9272 30.1754H47.9927C48.1787 29.0231 48.9589 28.317 49.6772 28.317Z" fill="#2C2C2C" stroke="#2C2C2C" stroke-width="1.0789"/>
</g>
</g>
<defs>
<filter id="filter0_g_40000282_8071" x="13.9936" y="21.666" width="45.5021" height="30.7858" filterUnits="userSpaceOnUse" color-interpolation-filters="sRGB">
<feFlood flood-opacity="0" result="BackgroundImageFix"/>
<feBlend mode="normal" in="SourceGraphic" in2="BackgroundImageFix" result="shape"/>
<feTurbulence type="fractalNoise" baseFrequency="0.66666668653488159 0.66666668653488159" numOctaves="3" seed="7043" />
<feDisplacementMap in="shape" scale="0.80000001192092896" xChannelSelector="R" yChannelSelector="G" result="displacedImage" width="100%" height="100%" />
<feMerge result="effect1_texture_40000282_8071">
<feMergeNode in="displacedImage"/>
</feMerge>
</filter>
<clipPath id="clip0_40000282_8071">
<rect width="73" height="74" fill="white"/>
</clipPath>
</defs>
</svg>
