<svg width="73" height="74" viewBox="0 0 73 74" fill="none" xmlns="http://www.w3.org/2000/svg">
<g clip-path="url(#clip0_40000282_8110)">
<path d="M36.5 0.5C56.3759 0.5 72.5 16.8352 72.5 37C72.5 57.1648 56.3759 73.5 36.5 73.5C16.6241 73.5 0.5 57.1648 0.5 37C0.5 16.8352 16.6241 0.5 36.5 0.5Z" fill="#FBD7D5" stroke="#5C5C5C"/>
<g filter="url(#filter0_g_40000282_8110)">
<path d="M38.3872 30.4953C38.3872 35.6598 37.2312 39.8456 32.2739 39.8456C27.6291 39.8456 25.4941 35.6598 25.4941 30.4953C25.4941 25.3307 27.0667 21.1449 32.2739 21.1449C36.8042 21.1449 38.3872 25.3307 38.3872 30.4953Z" fill="#FBFBFB" stroke="#2C2C2C" stroke-width="1.0789" stroke-miterlimit="10"/>
<path d="M51.269 30.4953C51.269 35.6598 50.113 39.8456 45.1557 39.8456C40.5109 39.8456 38.376 35.6598 38.376 30.4953C38.376 25.3307 39.9486 21.1449 45.1557 21.1449C49.686 21.1449 51.269 25.3307 51.269 30.4953Z" fill="#FBFBFB" stroke="#2C2C2C" stroke-width="1.0789" stroke-miterlimit="10"/>
<path d="M35.002 26.3695C36.0499 26.3696 36.723 26.8347 37.166 27.6156C37.6315 28.436 37.8467 29.6233 37.8467 31.016C37.8467 32.4295 37.6865 33.6128 37.25 34.4281C37.0376 34.8247 36.7643 35.1242 36.417 35.3285C36.0687 35.5334 35.612 35.6615 35.002 35.6615C33.9072 35.6615 33.1316 35.1806 32.6074 34.3851C32.0669 33.5645 31.7813 32.3841 31.7812 31.016C31.7812 29.6217 31.9979 28.4453 32.499 27.6332C32.9736 26.8644 33.7339 26.3695 35.002 26.3695Z" fill="#2C2C2C" stroke="#2C2C2C" stroke-width="1.0789"/>
<path d="M47.8848 25.849C48.9327 25.849 49.6058 26.3142 50.0488 27.0951C50.5143 27.9155 50.7295 29.1028 50.7295 30.4955C50.7295 31.909 50.5694 33.0923 50.1328 33.9076C49.9204 34.3042 49.6471 34.6037 49.2998 34.808C48.9515 35.0128 48.4948 35.141 47.8848 35.141C46.79 35.141 46.0144 34.6601 45.4902 33.8646C44.9497 33.044 44.6641 31.8636 44.6641 30.4955C44.6641 29.1012 44.8807 27.9248 45.3818 27.1127C45.8564 26.3439 46.6167 25.849 47.8848 25.849Z" fill="#2C2C2C" stroke="#2C2C2C" stroke-width="1.0789"/>
<path d="M39.2512 40.1476C39.2512 40.1476 33.992 40.4183 34.6585 43.3442C35.325 46.2701 42.6672 45.6662 43.7086 44.4167C44.75 43.1672 44.021 40.3871 39.2512 40.1372V40.1476Z" fill="#2C2C2C" stroke="#2C2C2C" stroke-width="1.0789" stroke-miterlimit="10"/>
<path d="M21.4219 25.945C21.4219 25.945 32.6486 32.8381 39.3659 19.2603" stroke="#2C2C2C" stroke-width="1.0789" stroke-miterlimit="10" stroke-linecap="round"/>
<path d="M14.8506 38.0627C14.915 38.0628 14.9668 38.1157 14.9668 38.1799C14.9667 38.244 14.915 38.2961 14.8506 38.2961C14.7862 38.2961 14.7335 38.2441 14.7334 38.1799C14.7334 38.1157 14.7861 38.0627 14.8506 38.0627Z" fill="#2C2C2C" stroke="#2C2C2C" stroke-width="1.0789"/>
<path d="M18.9336 38.0627C18.9981 38.0628 19.0498 38.1157 19.0498 38.1799C19.0497 38.244 18.998 38.2961 18.9336 38.2961C18.8692 38.2961 18.8165 38.2441 18.8164 38.1799C18.8164 38.1157 18.8691 38.0627 18.9336 38.0627Z" fill="#2C2C2C" stroke="#2C2C2C" stroke-width="1.0789"/>
<path d="M16.8921 40.0931C16.9565 40.0932 17.0083 40.1461 17.0083 40.2103C17.0082 40.2744 16.9565 40.3265 16.8921 40.3265C16.8277 40.3265 16.775 40.2745 16.7749 40.2103C16.7749 40.1461 16.8276 40.0931 16.8921 40.0931Z" fill="#2C2C2C" stroke="#2C2C2C" stroke-width="1.0789"/>
<path d="M53.5405 38.0627C53.605 38.0628 53.6567 38.1157 53.6567 38.1799C53.6566 38.244 53.6049 38.2961 53.5405 38.2961C53.4761 38.2961 53.4235 38.2441 53.4233 38.1799C53.4233 38.1157 53.476 38.0627 53.5405 38.0627Z" fill="#2C2C2C" stroke="#2C2C2C" stroke-width="1.0789"/>
<path d="M57.6333 38.0627C57.6978 38.0628 57.7495 38.1157 57.7495 38.1799C57.7494 38.244 57.6977 38.2961 57.6333 38.2961C57.5689 38.2961 57.5163 38.2441 57.5161 38.1799C57.5161 38.1157 57.5688 38.0627 57.6333 38.0627Z" fill="#2C2C2C" stroke="#2C2C2C" stroke-width="1.0789"/>
<path d="M55.5913 40.0931C55.6558 40.0932 55.7075 40.1461 55.7075 40.2103C55.7074 40.2744 55.6557 40.3265 55.5913 40.3265C55.5269 40.3265 55.4743 40.2745 55.4741 40.2103C55.4741 40.1461 55.5268 40.0931 55.5913 40.0931Z" fill="#2C2C2C" stroke="#2C2C2C" stroke-width="1.0789"/>
<path d="M34.6069 50.1956C34.6069 50.1956 37.5855 46.947 38.8248 48.4255L40.0641 49.8937" stroke="#2C2C2C" stroke-width="1.0789" stroke-miterlimit="10" stroke-linecap="round"/>
<path d="M22.3389 50.2789C22.3389 53.3402 24.1614 54.4856 25.7235 54.4856C27.2857 54.4856 29.1082 53.3402 29.1082 50.2789C29.1082 47.2177 25.7235 42.1572 25.7235 42.1572C25.7235 42.1572 22.3389 47.2177 22.3389 50.2789Z" fill="#93D1E0"/>
<path d="M32.424 39.06C32.6047 38.0817 31.0133 36.9679 28.8696 36.5722C26.726 36.1765 24.8417 36.6488 24.6611 37.6271C24.4804 38.6055 26.0718 39.7193 28.2154 40.115C30.3591 40.5107 32.2434 40.0384 32.424 39.06Z" fill="#93D1E0"/>
</g>
</g>
<defs>
<filter id="filter0_g_40000282_8110" x="13.7943" y="18.3207" width="44.8947" height="36.5649" filterUnits="userSpaceOnUse" color-interpolation-filters="sRGB">
<feFlood flood-opacity="0" result="BackgroundImageFix"/>
<feBlend mode="normal" in="SourceGraphic" in2="BackgroundImageFix" result="shape"/>
<feTurbulence type="fractalNoise" baseFrequency="0.66666668653488159 0.66666668653488159" numOctaves="3" seed="7043" />
<feDisplacementMap in="shape" scale="0.80000001192092896" xChannelSelector="R" yChannelSelector="G" result="displacedImage" width="100%" height="100%" />
<feMerge result="effect1_texture_40000282_8110">
<feMergeNode in="displacedImage"/>
</feMerge>
</filter>
<clipPath id="clip0_40000282_8110">
<rect width="73" height="74" fill="white"/>
</clipPath>
</defs>
</svg>
