<svg width="73" height="74" viewBox="0 0 73 74" fill="none" xmlns="http://www.w3.org/2000/svg">
<g clip-path="url(#clip0_40000282_8208)">
<path d="M36.5 0.5C56.3759 0.5 72.5 16.8352 72.5 37C72.5 57.1648 56.3759 73.5 36.5 73.5C16.6241 73.5 0.5 57.1648 0.5 37C0.5 16.8352 16.6241 0.5 36.5 0.5Z" fill="#FBD7D5" stroke="#5C5C5C"/>
<g filter="url(#filter0_g_40000282_8208)">
<path d="M38.3877 37.4401C38.3877 42.6047 37.2317 46.7905 32.2744 46.7905C27.6296 46.7905 25.4946 42.6047 25.4946 37.4401C25.4946 32.2755 27.0672 28.0897 32.2744 28.0897C36.8047 28.0897 38.3877 32.2755 38.3877 37.4401Z" fill="#FBFBFB" stroke="#2C2C2C" stroke-width="1.0789" stroke-miterlimit="10"/>
<path d="M32.2329 32.7937C33.2808 32.7938 33.9539 33.2589 34.397 34.0398C34.8624 34.8602 35.0776 36.0475 35.0776 37.4402C35.0776 38.8537 34.9175 40.037 34.481 40.8523C34.2686 41.2489 33.9953 41.5484 33.6479 41.7527C33.2996 41.9576 32.843 42.0857 32.2329 42.0857C31.1381 42.0857 30.3626 41.6048 29.8384 40.8093C29.2978 39.9887 29.0122 38.8083 29.0122 37.4402C29.0122 36.0459 29.2288 34.8695 29.73 34.0574C30.2045 33.2886 30.9649 32.7937 32.2329 32.7937Z" fill="#2C2C2C" stroke="#2C2C2C" stroke-width="1.0789"/>
<path d="M51.27 37.4401C51.27 42.6047 50.114 46.7905 45.1567 46.7905C40.5119 46.7905 38.377 42.6047 38.377 37.4401C38.377 32.2755 39.9495 28.0897 45.1567 28.0897C49.687 28.0897 51.27 32.2755 51.27 37.4401Z" fill="#FBFBFB" stroke="#2C2C2C" stroke-width="1.0789" stroke-miterlimit="10"/>
<path d="M39.2517 47.0924C39.2517 47.0924 33.9925 47.3632 34.659 50.2891C35.3255 53.215 42.6677 52.611 43.7091 51.3615C44.7505 50.1121 44.0215 47.3319 39.2517 47.082V47.0924Z" fill="#2C2C2C" stroke="#2C2C2C" stroke-width="1.0789" stroke-miterlimit="10"/>
<path d="M34.9785 55.7818H43.6093" stroke="#2C2C2C" stroke-width="1.0789" stroke-miterlimit="10" stroke-linecap="round"/>
<path d="M45.1152 32.7937C46.1632 32.7938 46.8363 33.2589 47.2793 34.0398C47.7448 34.8602 47.96 36.0475 47.96 37.4402C47.9599 38.8537 47.7998 40.037 47.3633 40.8523C47.1509 41.2489 46.8776 41.5484 46.5303 41.7527C46.1819 41.9576 45.7253 42.0857 45.1152 42.0857C44.0205 42.0857 43.2449 41.6048 42.7207 40.8093C42.1802 39.9887 41.8946 38.8083 41.8945 37.4402C41.8945 36.0459 42.1111 34.8695 42.6123 34.0574C43.0869 33.2886 43.8472 32.7937 45.1152 32.7937Z" fill="#2C2C2C" stroke="#2C2C2C" stroke-width="1.0789"/>
<path d="M14.8506 45.0076C14.915 45.0076 14.9668 45.0605 14.9668 45.1248C14.9667 45.1889 14.915 45.2409 14.8506 45.241C14.7862 45.241 14.7335 45.1889 14.7334 45.1248C14.7334 45.0605 14.7861 45.0076 14.8506 45.0076Z" fill="#2C2C2C" stroke="#2C2C2C" stroke-width="1.0789"/>
<path d="M18.9336 45.0076C18.9981 45.0076 19.0498 45.0605 19.0498 45.1248C19.0497 45.1889 18.998 45.2409 18.9336 45.241C18.8692 45.241 18.8165 45.1889 18.8164 45.1248C18.8164 45.0605 18.8691 45.0076 18.9336 45.0076Z" fill="#2C2C2C" stroke="#2C2C2C" stroke-width="1.0789"/>
<path d="M16.8921 47.038C16.9565 47.038 17.0083 47.0909 17.0083 47.1552C17.0082 47.2192 16.9565 47.2713 16.8921 47.2714C16.8277 47.2714 16.775 47.2193 16.7749 47.1552C16.7749 47.0909 16.8276 47.038 16.8921 47.038Z" fill="#2C2C2C" stroke="#2C2C2C" stroke-width="1.0789"/>
<path d="M53.5405 45.0076C53.605 45.0076 53.6567 45.0605 53.6567 45.1248C53.6566 45.1888 53.6049 45.2409 53.5405 45.241C53.4761 45.241 53.4235 45.1889 53.4233 45.1248C53.4233 45.0605 53.476 45.0076 53.5405 45.0076Z" fill="#2C2C2C" stroke="#2C2C2C" stroke-width="1.0789"/>
<path d="M57.6333 45.0076C57.6978 45.0076 57.7495 45.0605 57.7495 45.1248C57.7494 45.1888 57.6977 45.2409 57.6333 45.241C57.5689 45.241 57.5163 45.1889 57.5161 45.1248C57.5161 45.0605 57.5688 45.0076 57.6333 45.0076Z" fill="#2C2C2C" stroke="#2C2C2C" stroke-width="1.0789"/>
<path d="M55.5923 47.038C55.6567 47.038 55.7085 47.0909 55.7085 47.1552C55.7084 47.2192 55.6567 47.2713 55.5923 47.2714C55.5278 47.2714 55.4752 47.2193 55.4751 47.1552C55.4751 47.0909 55.5278 47.038 55.5923 47.038Z" fill="#2C2C2C" stroke="#2C2C2C" stroke-width="1.0789"/>
<path d="M26.2275 19.5985C26.2275 19.5985 29.9905 17.2143 33.7535 18.7783" stroke="#2C2C2C" stroke-width="1.0789" stroke-miterlimit="10" stroke-linecap="round"/>
<path d="M48.3897 19.5985C48.3897 19.5985 44.6267 17.2143 40.8638 18.7783" stroke="#2C2C2C" stroke-width="1.0789" stroke-miterlimit="10" stroke-linecap="round"/>
</g>
</g>
<defs>
<filter id="filter0_g_40000282_8208" x="13.7943" y="17.3072" width="44.8947" height="39.4141" filterUnits="userSpaceOnUse" color-interpolation-filters="sRGB">
<feFlood flood-opacity="0" result="BackgroundImageFix"/>
<feBlend mode="normal" in="SourceGraphic" in2="BackgroundImageFix" result="shape"/>
<feTurbulence type="fractalNoise" baseFrequency="0.66666668653488159 0.66666668653488159" numOctaves="3" seed="7043" />
<feDisplacementMap in="shape" scale="0.80000001192092896" xChannelSelector="R" yChannelSelector="G" result="displacedImage" width="100%" height="100%" />
<feMerge result="effect1_texture_40000282_8208">
<feMergeNode in="displacedImage"/>
</feMerge>
</filter>
<clipPath id="clip0_40000282_8208">
<rect width="73" height="74" fill="white"/>
</clipPath>
</defs>
</svg>
