<svg width="73" height="74" viewBox="0 0 73 74" fill="none" xmlns="http://www.w3.org/2000/svg">
<path d="M36.5 0.5C56.3759 0.5 72.5 16.8352 72.5 37C72.5 57.1648 56.3759 73.5 36.5 73.5C16.6241 73.5 0.5 57.1648 0.5 37C0.5 16.8352 16.6241 0.5 36.5 0.5Z" fill="#FBD7D5" stroke="#5C5C5C"/>
<g filter="url(#filter0_g_40000282_8053)">
<path d="M51.9822 32.0854C51.9822 37.3207 50.8102 41.5639 45.7841 41.5639C41.0748 41.5639 38.9102 37.3207 38.9102 32.0854C38.9102 26.8501 40.5151 22.6069 45.7841 22.6069C50.3773 22.6069 51.9822 26.8501 51.9822 32.0854Z" fill="#FBFBFB" stroke="#2C2C2C" stroke-width="1.0789" stroke-miterlimit="10"/>
<path d="M38.9207 32.0854C38.9207 37.3207 37.7487 41.5639 32.7226 41.5639C28.0132 41.5639 25.8486 37.3207 25.8486 32.0854C25.8486 26.8501 27.4536 22.6069 32.7226 22.6069C37.3158 22.6069 38.9207 26.8501 38.9207 32.0854Z" fill="#FBFBFB" stroke="#2C2C2C" stroke-width="1.0789" stroke-miterlimit="10"/>
<path d="M48.5498 27.368C49.6152 27.368 50.3005 27.841 50.751 28.6346C51.2238 29.4679 51.4424 30.6735 51.4424 32.0858C51.4424 33.5188 51.2794 34.7197 50.8359 35.5477C50.6201 35.9506 50.3427 36.2558 49.9893 36.4637C49.6347 36.6722 49.1695 36.8026 48.5498 36.8026C47.4374 36.8025 46.6489 36.3139 46.1162 35.5057C45.5669 34.6723 45.2774 33.4737 45.2773 32.0858C45.2773 30.6717 45.4975 29.4772 46.0068 28.6522C46.4894 27.8708 47.2619 27.3681 48.5498 27.368Z" fill="#2C2C2C" stroke="#2C2C2C" stroke-width="1.0789"/>
<path d="M39.7968 41.8806C39.7968 41.8806 34.4645 42.155 35.1403 45.121C35.816 48.0869 43.2602 47.4747 44.3161 46.2081C45.372 44.9415 44.6328 42.1233 39.7968 41.87V41.8806Z" fill="#2C2C2C" stroke="#2C2C2C" stroke-width="1.0789" stroke-miterlimit="10"/>
<path d="M35.2989 51.5066C35.2989 51.5066 31.6244 54.0609 28.4883 53.2165C25.3523 52.3827 26.0914 46.894 26.0914 46.894L24.1274 43.4425C24.1274 43.4425 28.5094 56.0664 42.5002 49.7122" stroke="#2C2C2C" stroke-width="1.0789" stroke-miterlimit="10" stroke-linecap="round"/>
<path d="M15.0571 39.7491C15.1267 39.7491 15.1831 39.8059 15.1831 39.8751C15.1831 39.9444 15.1267 40.0011 15.0571 40.0011C14.9877 40.001 14.9312 39.9444 14.9312 39.8751C14.9312 39.8059 14.9877 39.7492 15.0571 39.7491Z" fill="#2C2C2C" stroke="#2C2C2C" stroke-width="1.0789"/>
<path d="M19.1968 39.7491C19.2663 39.7491 19.3227 39.8059 19.3228 39.8751C19.3228 39.9444 19.2663 40.0011 19.1968 40.0011C19.1273 40.001 19.0708 39.9444 19.0708 39.8751C19.0708 39.8059 19.1273 39.7492 19.1968 39.7491Z" fill="#2C2C2C" stroke="#2C2C2C" stroke-width="1.0789"/>
<path d="M17.127 41.8074C17.1965 41.8074 17.2529 41.8641 17.2529 41.9333C17.2529 42.0026 17.1965 42.0593 17.127 42.0593C17.0575 42.0592 17.001 42.0026 17.001 41.9333C17.001 41.8641 17.0575 41.8075 17.127 41.8074Z" fill="#2C2C2C" stroke="#2C2C2C" stroke-width="1.0789"/>
<path d="M54.2837 39.7491C54.3532 39.7491 54.4096 39.8059 54.4097 39.8751C54.4097 39.9444 54.3532 40.0011 54.2837 40.0011C54.2142 40.001 54.1577 39.9444 54.1577 39.8751C54.1577 39.8059 54.2142 39.7492 54.2837 39.7491Z" fill="#2C2C2C" stroke="#2C2C2C" stroke-width="1.0789"/>
<path d="M58.4336 39.7491C58.5031 39.7491 58.5595 39.8059 58.5596 39.8751C58.5596 39.9444 58.5032 40.0011 58.4336 40.0011C58.3641 40.001 58.3076 39.9444 58.3076 39.8751C58.3076 39.8059 58.3641 39.7492 58.4336 39.7491Z" fill="#2C2C2C" stroke="#2C2C2C" stroke-width="1.0789"/>
<path d="M56.3633 41.8074C56.4328 41.8074 56.4892 41.8641 56.4893 41.9333C56.4893 42.0026 56.4328 42.0593 56.3633 42.0593C56.2938 42.0592 56.2373 42.0026 56.2373 41.9333C56.2373 41.8641 56.2938 41.8075 56.3633 41.8074Z" fill="#2C2C2C" stroke="#2C2C2C" stroke-width="1.0789"/>
<path d="M32.6063 28.8871C34.697 28.8027 37.3262 30.5971 38.1814 33.0036C38.2237 33.1197 38.1286 33.2358 38.0019 33.2358C37.1255 33.2147 35.3938 32.9825 32.5957 35.6529" stroke="#2C2C2C" stroke-width="1.0789" stroke-miterlimit="10" stroke-linecap="round"/>
</g>
<defs>
<filter id="filter0_g_40000282_8053" x="13.9921" y="21.6675" width="45.507" height="32.6596" filterUnits="userSpaceOnUse" color-interpolation-filters="sRGB">
<feFlood flood-opacity="0" result="BackgroundImageFix"/>
<feBlend mode="normal" in="SourceGraphic" in2="BackgroundImageFix" result="shape"/>
<feTurbulence type="fractalNoise" baseFrequency="0.66666668653488159 0.66666668653488159" numOctaves="3" seed="7043" />
<feDisplacementMap in="shape" scale="0.80000001192092896" xChannelSelector="R" yChannelSelector="G" result="displacedImage" width="100%" height="100%" />
<feMerge result="effect1_texture_40000282_8053">
<feMergeNode in="displacedImage"/>
</feMerge>
</filter>
</defs>
</svg>
