<svg width="73" height="74" viewBox="0 0 73 74" fill="none" xmlns="http://www.w3.org/2000/svg">
<g clip-path="url(#clip0_40000282_8187)">
<path d="M36.5 0.5C56.3759 0.5 72.5 16.8352 72.5 37C72.5 57.1648 56.3759 73.5 36.5 73.5C16.6241 73.5 0.5 57.1648 0.5 37C0.5 16.8352 16.6241 0.5 36.5 0.5Z" fill="#FBD7D5" stroke="#5C5C5C"/>
<g filter="url(#filter0_g_40000282_8187)">
<path d="M38.3866 32.0519C38.3866 37.2165 37.2306 41.4023 32.2734 41.4023C27.6286 41.4023 25.4937 37.2165 25.4937 32.0519C25.4937 26.8873 27.0662 22.7014 32.2734 22.7014C36.8036 22.7014 38.3866 26.8873 38.3866 32.0519Z" fill="#FBFBFB" stroke="#2C2C2C" stroke-width="1.0789" stroke-miterlimit="10"/>
<path d="M32.2319 27.4055C33.2798 27.4056 33.953 27.8707 34.396 28.6516C34.8615 29.472 35.0767 30.6593 35.0767 32.052C35.0767 33.4655 34.9165 34.6488 34.48 35.4641C34.2676 35.8607 33.9943 36.1602 33.647 36.3645C33.2987 36.5694 32.842 36.6975 32.2319 36.6975C31.1372 36.6975 30.3616 36.2167 29.8374 35.4211C29.2969 34.6005 29.0112 33.4201 29.0112 32.052C29.0112 30.6577 29.2278 29.4813 29.729 28.6692C30.2036 27.9004 30.9639 27.4055 32.2319 27.4055Z" fill="#2C2C2C" stroke="#2C2C2C" stroke-width="1.0789"/>
<path d="M51.2689 32.0519C51.2689 37.2165 50.1129 41.4023 45.1557 41.4023C40.5109 41.4023 38.376 37.2165 38.376 32.0519C38.376 26.8873 39.9485 22.7014 45.1557 22.7014C49.6859 22.7014 51.2689 26.8873 51.2689 32.0519Z" fill="#FBFBFB" stroke="#2C2C2C" stroke-width="1.0789" stroke-miterlimit="10"/>
<path d="M39.2507 41.7043C39.2507 41.7043 33.9915 41.975 34.658 44.9009C35.3245 47.8268 42.6666 47.2229 43.708 45.9734C44.7495 44.7239 44.0205 41.9437 39.2507 41.6938V41.7043Z" fill="#2C2C2C" stroke="#2C2C2C" stroke-width="1.0789" stroke-miterlimit="10"/>
<path d="M38.897 50.6671C39.3011 50.6672 39.8624 50.9856 40.3589 51.6115C40.8412 52.2194 41.1587 52.9953 41.1587 53.6896C41.1586 54.4247 40.9363 54.8989 40.6392 55.1896C40.3383 55.4839 39.9012 55.6485 39.3657 55.6486C38.832 55.6486 38.394 55.4827 38.0923 55.1866C37.794 54.894 37.5719 54.4187 37.5718 53.6896C37.5718 52.8956 37.7091 52.0863 37.9731 51.4972C38.2429 50.8956 38.5671 50.6671 38.897 50.6671Z" fill="#2C2C2C" stroke="#2C2C2C" stroke-width="1.0789"/>
<path d="M45.1143 27.4055C46.1621 27.4056 46.8353 27.8707 47.2783 28.6516C47.7438 29.472 47.959 30.6593 47.959 32.052C47.959 33.4655 47.7989 34.6488 47.3623 35.4641C47.1499 35.8607 46.8766 36.1602 46.5293 36.3645C46.181 36.5694 45.7243 36.6975 45.1143 36.6975C44.0195 36.6975 43.2439 36.2167 42.7197 35.4211C42.1792 34.6005 41.8936 33.4201 41.8936 32.052C41.8936 30.6577 42.1102 29.4813 42.6113 28.6692C43.0859 27.9004 43.8462 27.4055 45.1143 27.4055Z" fill="#2C2C2C" stroke="#2C2C2C" stroke-width="1.0789"/>
<path d="M14.8501 39.6194C14.9145 39.6195 14.9663 39.6723 14.9663 39.7366C14.9662 39.8007 14.9144 39.8527 14.8501 39.8528C14.7857 39.8528 14.7331 39.8007 14.7329 39.7366C14.7329 39.6723 14.7856 39.6194 14.8501 39.6194Z" fill="#2C2C2C" stroke="#2C2C2C" stroke-width="1.0789"/>
<path d="M18.9321 39.6194C18.9966 39.6195 19.0483 39.6723 19.0483 39.7366C19.0482 39.8007 18.9965 39.8527 18.9321 39.8528C18.8677 39.8528 18.8151 39.8007 18.8149 39.7366C18.8149 39.6723 18.8676 39.6194 18.9321 39.6194Z" fill="#2C2C2C" stroke="#2C2C2C" stroke-width="1.0789"/>
<path d="M16.8906 41.6499C16.9551 41.65 17.0068 41.7029 17.0068 41.7671C17.0067 41.8312 16.955 41.8832 16.8906 41.8833C16.8262 41.8833 16.7736 41.8312 16.7734 41.7671C16.7734 41.7028 16.8261 41.6499 16.8906 41.6499Z" fill="#2C2C2C" stroke="#2C2C2C" stroke-width="1.0789"/>
<path d="M53.5391 39.6195C53.6035 39.6196 53.6553 39.6725 53.6553 39.7367C53.6551 39.8008 53.6034 39.8528 53.5391 39.8529C53.4746 39.8529 53.422 39.8009 53.4219 39.7367C53.4219 39.6724 53.4746 39.6195 53.5391 39.6195Z" fill="#2C2C2C" stroke="#2C2C2C" stroke-width="1.0789"/>
<path d="M57.6318 39.6195C57.6963 39.6196 57.748 39.6725 57.748 39.7367C57.7479 39.8008 57.6962 39.8528 57.6318 39.8529C57.5674 39.8529 57.5148 39.8009 57.5146 39.7367C57.5146 39.6724 57.5673 39.6195 57.6318 39.6195Z" fill="#2C2C2C" stroke="#2C2C2C" stroke-width="1.0789"/>
<path d="M55.5908 41.65C55.6553 41.6501 55.707 41.703 55.707 41.7672C55.7069 41.8313 55.6552 41.8833 55.5908 41.8834C55.5264 41.8834 55.4738 41.8314 55.4736 41.7672C55.4736 41.7029 55.5263 41.65 55.5908 41.65Z" fill="#2C2C2C" stroke="#2C2C2C" stroke-width="1.0789"/>
<path d="M25.1328 20.6178C25.1328 20.6178 27.7909 14.7993 31.1054 18.4195" stroke="#2C2C2C" stroke-width="1.0789" stroke-miterlimit="10" stroke-linecap="round"/>
</g>
</g>
<defs>
<filter id="filter0_g_40000282_8187" x="13.7938" y="16.2935" width="44.8938" height="40.2946" filterUnits="userSpaceOnUse" color-interpolation-filters="sRGB">
<feFlood flood-opacity="0" result="BackgroundImageFix"/>
<feBlend mode="normal" in="SourceGraphic" in2="BackgroundImageFix" result="shape"/>
<feTurbulence type="fractalNoise" baseFrequency="0.66666668653488159 0.66666668653488159" numOctaves="3" seed="7043" />
<feDisplacementMap in="shape" scale="0.80000001192092896" xChannelSelector="R" yChannelSelector="G" result="displacedImage" width="100%" height="100%" />
<feMerge result="effect1_texture_40000282_8187">
<feMergeNode in="displacedImage"/>
</feMerge>
</filter>
<clipPath id="clip0_40000282_8187">
<rect width="73" height="74" fill="white"/>
</clipPath>
</defs>
</svg>
