<svg width="73" height="74" viewBox="0 0 73 74" fill="none" xmlns="http://www.w3.org/2000/svg">
<g clip-path="url(#clip0_40000282_7187)">
<path d="M36.5 0.5C56.3759 0.5 72.5 16.8352 72.5 37C72.5 57.1648 56.3759 73.5 36.5 73.5C16.6241 73.5 0.5 57.1648 0.5 37C0.5 16.8352 16.6241 0.5 36.5 0.5Z" fill="#EEEDEB" stroke="#9C9C9C"/>
<g filter="url(#filter0_g_40000282_7187)">
<path d="M38.3874 34.15C38.3874 39.5746 37.2314 43.9712 32.2742 43.9712C27.6293 43.9712 25.4944 39.5746 25.4944 34.15C25.4944 28.7253 27.0774 24.3287 32.2742 24.3287C36.8044 24.3287 38.3874 28.7253 38.3874 34.15Z" fill="#FBFBFB" stroke="#2C2C2C" stroke-width="1.0789" stroke-miterlimit="10"/>
<path d="M51.2697 34.15C51.2697 39.5746 50.1137 43.9712 45.1565 43.9712C40.5117 43.9712 38.3767 39.5746 38.3767 34.15C38.3767 28.7253 39.9597 24.3287 45.1565 24.3287C49.6867 24.3287 51.2697 28.7253 51.2697 34.15Z" fill="#FBFBFB" stroke="#2C2C2C" stroke-width="1.0789" stroke-miterlimit="10"/>
<path d="M35.0027 29.516C36.0372 29.516 36.7126 29.9968 37.1619 30.8285C37.6321 31.6991 37.8474 32.9559 37.8474 34.4232C37.8474 35.9105 37.6864 37.1636 37.2449 38.0297C37.0297 38.4517 36.7547 38.7685 36.408 38.9828C36.0614 39.1969 35.6081 39.3304 35.0027 39.3304C33.9202 39.3304 33.1446 38.8319 32.615 37.9877C32.0693 37.1177 31.782 35.8677 31.782 34.4232C31.782 32.9542 31.9991 31.7082 32.5056 30.8461C32.9858 30.029 33.7471 29.516 35.0027 29.516Z" fill="#2C2C2C" stroke="#2C2C2C" stroke-width="1.0789"/>
<path d="M47.8855 29.516C48.92 29.516 49.5954 29.9968 50.0447 30.8285C50.5149 31.6991 50.7302 32.9559 50.7302 34.4232C50.7302 35.9105 50.5692 37.1636 50.1277 38.0297C49.9125 38.4517 49.6375 38.7685 49.2908 38.9828C48.9442 39.1969 48.4909 39.3304 47.8855 39.3304C46.803 39.3304 46.0274 38.8319 45.4978 37.9877C44.9521 37.1177 44.6648 35.8677 44.6648 34.4232C44.6648 32.9542 44.8819 31.7082 45.3884 30.8461C45.8686 30.029 46.6299 29.516 47.8855 29.516Z" fill="#2C2C2C" stroke="#2C2C2C" stroke-width="1.0789"/>
<path d="M39.2517 44.2994C39.2517 44.2994 33.9925 44.5837 34.659 47.657C35.3255 50.7302 42.6677 50.0959 43.7091 48.7835C44.7505 47.4711 44.0215 44.5509 39.2517 44.2885V44.2994Z" fill="#FBD7D5" stroke="#2C2C2C" stroke-width="1.0789" stroke-miterlimit="10"/>
<path d="M14.8508 42.0714C14.8907 42.0715 14.967 42.1141 14.967 42.2218C14.9668 42.3291 14.8907 42.3711 14.8508 42.3712C14.811 42.3712 14.7338 42.3293 14.7336 42.2218C14.7336 42.114 14.811 42.0714 14.8508 42.0714Z" fill="#2C2C2C" stroke="#2C2C2C" stroke-width="1.0789"/>
<path d="M18.9338 42.0714C18.9737 42.0715 19.05 42.1141 19.05 42.2218C19.0498 42.3291 18.9737 42.3711 18.9338 42.3712C18.894 42.3712 18.8169 42.3293 18.8167 42.2218C18.8167 42.114 18.894 42.0714 18.9338 42.0714Z" fill="#2C2C2C" stroke="#2C2C2C" stroke-width="1.0789"/>
<path d="M16.8926 44.2041C16.9325 44.2042 17.0088 44.2468 17.0088 44.3545C17.0086 44.4618 16.9324 44.5038 16.8926 44.5039C16.8528 44.5039 16.7756 44.462 16.7754 44.3545C16.7754 44.2467 16.8527 44.2041 16.8926 44.2041Z" fill="#2C2C2C" stroke="#2C2C2C" stroke-width="1.0789"/>
<path d="M53.5405 42.0714C53.5804 42.0715 53.6567 42.1141 53.6567 42.2218C53.6565 42.3291 53.5804 42.3711 53.5405 42.3712C53.5007 42.3712 53.4235 42.3293 53.4233 42.2218C53.4233 42.114 53.5007 42.0714 53.5405 42.0714Z" fill="#2C2C2C" stroke="#2C2C2C" stroke-width="1.0789"/>
<path d="M57.6333 42.0714C57.6732 42.0715 57.7495 42.1141 57.7495 42.2218C57.7493 42.3291 57.6731 42.3711 57.6333 42.3712C57.5935 42.3712 57.5163 42.3293 57.5161 42.2218C57.5161 42.114 57.5935 42.0714 57.6333 42.0714Z" fill="#2C2C2C" stroke="#2C2C2C" stroke-width="1.0789"/>
<path d="M55.5913 44.2041C55.6312 44.2042 55.7075 44.2468 55.7075 44.3545C55.7073 44.4618 55.6311 44.5038 55.5913 44.5039C55.5515 44.5039 55.4743 44.462 55.4741 44.3545C55.4741 44.2467 55.5515 44.2041 55.5913 44.2041Z" fill="#2C2C2C" stroke="#2C2C2C" stroke-width="1.0789"/>
</g>
</g>
<defs>
<filter id="filter0_g_40000282_7187" x="13.7946" y="23.3893" width="44.8947" height="27.4202" filterUnits="userSpaceOnUse" color-interpolation-filters="sRGB">
<feFlood flood-opacity="0" result="BackgroundImageFix"/>
<feBlend mode="normal" in="SourceGraphic" in2="BackgroundImageFix" result="shape"/>
<feTurbulence type="fractalNoise" baseFrequency="0.66666668653488159 0.66666668653488159" numOctaves="3" seed="7043" />
<feDisplacementMap in="shape" scale="0.80000001192092896" xChannelSelector="R" yChannelSelector="G" result="displacedImage" width="100%" height="100%" />
<feMerge result="effect1_texture_40000282_7187">
<feMergeNode in="displacedImage"/>
</feMerge>
</filter>
<clipPath id="clip0_40000282_7187">
<rect width="73" height="74" fill="white"/>
</clipPath>
</defs>
</svg>
