<svg width="73" height="74" viewBox="0 0 73 74" fill="none" xmlns="http://www.w3.org/2000/svg">
<g clip-path="url(#clip0_40000282_7183)">
<path d="M36.5 0.5C56.3759 0.5 72.5 16.8352 72.5 37C72.5 57.1648 56.3759 73.5 36.5 73.5C16.6241 73.5 0.5 57.1648 0.5 37C0.5 16.8352 16.6241 0.5 36.5 0.5Z" fill="#EEEDEB" stroke="#9C9C9C"/>
<g filter="url(#filter0_g_40000282_7183)">
<path d="M25.1335 49.9556C27.0697 49.9556 27.0697 52.1429 28.995 52.1429C30.9202 52.1429 30.9202 49.9556 32.8564 49.9556C34.7926 49.9556 34.7926 52.1429 36.7178 52.1429C38.643 52.1429 38.654 49.9556 40.5792 49.9556C42.5045 49.9556 42.5154 52.1429 44.4406 52.1429C46.3659 52.1429 46.3768 49.9556 48.313 49.9556C50.2492 49.9556 50.2492 52.1429 52.1854 52.1429" stroke="#2C2C2C" stroke-width="1.0789" stroke-miterlimit="10" stroke-linecap="round"/>
<path d="M38.0389 30.7659C38.0389 36.0012 36.8671 40.2443 31.842 40.2443C27.1336 40.2443 24.9695 36.0012 24.9695 30.7659C24.9695 25.5307 26.5741 21.2876 31.842 21.2876C36.4343 21.2876 38.0389 25.5307 38.0389 30.7659Z" fill="#FBFBFB" stroke="#2C2C2C" stroke-width="1.0789" stroke-miterlimit="10"/>
<path d="M51.0985 30.7659C51.0985 36.0012 49.9267 40.2443 44.9016 40.2443C40.1932 40.2443 38.0291 36.0012 38.0291 30.7659C38.0291 27.4517 38.673 24.528 40.4888 22.8286C41.9457 23.4936 45.6089 24.9185 50.1273 24.8974C50.8135 26.5123 51.0985 28.5494 51.0985 30.7659Z" fill="#FBFBFB" stroke="#2C2C2C" stroke-width="1.0789" stroke-miterlimit="10"/>
<path d="M31.8005 26.3125C32.8654 26.3126 33.5504 26.7855 34.0007 27.5791C34.4735 28.4123 34.6912 29.618 34.6912 31.0303C34.6911 32.4632 34.5281 33.6641 34.0847 34.4922C33.8689 34.895 33.5914 35.2004 33.238 35.4082C32.8837 35.6165 32.4196 35.747 31.8005 35.7471C30.6882 35.7471 29.8996 35.2576 29.3669 34.4492C28.818 33.6158 28.5281 32.4179 28.5281 31.0303C28.5281 29.6163 28.7474 28.4216 29.2566 27.5967C29.7391 26.8151 30.5128 26.3125 31.8005 26.3125Z" fill="#2C2C2C" stroke="#2C2C2C" stroke-width="1.0789"/>
<path d="M44.8594 26.3125C45.9243 26.3126 46.6093 26.7855 47.0596 27.5791C47.5323 28.4123 47.75 29.618 47.75 31.0303C47.75 32.4632 47.5869 33.6641 47.1436 34.4922C46.9277 34.895 46.6502 35.2004 46.2969 35.4082C45.9426 35.6165 45.4785 35.747 44.8594 35.7471C43.747 35.7471 42.9584 35.2576 42.4258 34.4492C41.8768 33.6158 41.587 32.4179 41.5869 31.0303C41.5869 29.6163 41.8063 28.4216 42.3154 27.5967C42.7979 26.8151 43.5716 26.3125 44.8594 26.3125Z" fill="#2C2C2C" stroke="#2C2C2C" stroke-width="1.0789"/>
<path d="M50.1265 24.8974C45.6081 24.9185 41.9449 23.4936 40.488 22.8286C41.5332 21.8576 42.9689 21.2876 44.9008 21.2876C47.5506 21.2876 49.1975 22.6914 50.1265 24.8974Z" stroke="#2C2C2C" stroke-width="1.0789" stroke-miterlimit="10"/>
<path d="M38.9152 40.5608C38.9152 40.5608 33.584 40.8353 34.2596 43.8012C34.9353 46.7671 42.3779 46.155 43.4336 44.8884C44.4893 43.6218 43.7503 40.8036 38.9152 40.5503V40.5608Z" fill="#FBD7D5" stroke="#2C2C2C" stroke-width="1.0789" stroke-miterlimit="10"/>
<path d="M52.4807 24.7496C51.6783 24.8552 50.8866 24.8974 50.1265 24.8974" stroke="#2C2C2C" stroke-width="1.0789" stroke-miterlimit="10" stroke-linecap="round"/>
<path d="M14.8508 38.4377C14.9153 38.4378 14.967 38.4907 14.967 38.5549C14.9669 38.619 14.9152 38.6711 14.8508 38.6711C14.7864 38.6711 14.7338 38.6191 14.7336 38.5549C14.7336 38.4907 14.7863 38.4377 14.8508 38.4377Z" fill="#2C2C2C" stroke="#2C2C2C" stroke-width="1.0789"/>
<path d="M18.9338 38.4377C18.9983 38.4378 19.05 38.4907 19.05 38.5549C19.0499 38.619 18.9982 38.6711 18.9338 38.6711C18.8694 38.6711 18.8168 38.6191 18.8167 38.5549C18.8167 38.4907 18.8693 38.4377 18.9338 38.4377Z" fill="#2C2C2C" stroke="#2C2C2C" stroke-width="1.0789"/>
<path d="M16.8926 40.4681C16.957 40.4682 17.0088 40.5211 17.0088 40.5853C17.0086 40.6494 16.9569 40.7015 16.8926 40.7015C16.8281 40.7015 16.7755 40.6495 16.7754 40.5853C16.7754 40.5211 16.8281 40.4681 16.8926 40.4681Z" fill="#2C2C2C" stroke="#2C2C2C" stroke-width="1.0789"/>
<path d="M53.5405 38.4377C53.605 38.4378 53.6567 38.4907 53.6567 38.5549C53.6566 38.619 53.6049 38.6711 53.5405 38.6711C53.4761 38.6711 53.4235 38.6191 53.4233 38.5549C53.4233 38.4907 53.476 38.4377 53.5405 38.4377Z" fill="#2C2C2C" stroke="#2C2C2C" stroke-width="1.0789"/>
<path d="M57.6333 38.4377C57.6978 38.4378 57.7495 38.4907 57.7495 38.5549C57.7494 38.619 57.6977 38.6711 57.6333 38.6711C57.5689 38.6711 57.5163 38.6191 57.5161 38.5549C57.5161 38.4907 57.5688 38.4377 57.6333 38.4377Z" fill="#2C2C2C" stroke="#2C2C2C" stroke-width="1.0789"/>
<path d="M55.5923 40.4681C55.6567 40.4682 55.7085 40.5211 55.7085 40.5853C55.7084 40.6494 55.6567 40.7015 55.5923 40.7015C55.5278 40.7015 55.4752 40.6495 55.4751 40.5853C55.4751 40.5211 55.5278 40.4681 55.5923 40.4681Z" fill="#2C2C2C" stroke="#2C2C2C" stroke-width="1.0789"/>
</g>
</g>
<defs>
<filter id="filter0_g_40000282_7183" x="13.7946" y="20.3482" width="44.8947" height="32.7342" filterUnits="userSpaceOnUse" color-interpolation-filters="sRGB">
<feFlood flood-opacity="0" result="BackgroundImageFix"/>
<feBlend mode="normal" in="SourceGraphic" in2="BackgroundImageFix" result="shape"/>
<feTurbulence type="fractalNoise" baseFrequency="0.66666668653488159 0.66666668653488159" numOctaves="3" seed="7043" />
<feDisplacementMap in="shape" scale="0.80000001192092896" xChannelSelector="R" yChannelSelector="G" result="displacedImage" width="100%" height="100%" />
<feMerge result="effect1_texture_40000282_7183">
<feMergeNode in="displacedImage"/>
</feMerge>
</filter>
<clipPath id="clip0_40000282_7183">
<rect width="73" height="74" fill="white"/>
</clipPath>
</defs>
</svg>
