<svg width="73" height="74" viewBox="0 0 73 74" fill="none" xmlns="http://www.w3.org/2000/svg">
<g clip-path="url(#clip0_40000282_7185)">
<path d="M36.5 0.5C56.3759 0.5 72.5 16.8352 72.5 37C72.5 57.1648 56.3759 73.5 36.5 73.5C16.6241 73.5 0.5 57.1648 0.5 37C0.5 16.8352 16.6241 0.5 36.5 0.5Z" fill="#EEEDEB" stroke="#9C9C9C"/>
<g filter="url(#filter0_g_40000282_7185)">
<path d="M38.3775 31.1826V31.5158C38.3775 31.724 38.3671 31.9323 38.3671 32.1405V32.2342C38.3463 32.5154 38.3359 32.7965 38.315 33.0672C38.315 33.1609 38.3046 33.2442 38.2942 33.3275C37.9713 37.4613 36.5237 40.533 32.2747 40.533C27.6298 40.533 25.4949 36.3472 25.4949 31.1826C25.4949 28.7773 25.8385 26.5803 26.7342 24.9247C28.2026 26.0909 29.9627 27.2258 32.0039 28.1005C33.8472 28.8814 35.9093 29.4645 38.1901 29.6519C38.2317 29.6519 38.2838 29.6624 38.3254 29.6624C38.3567 30.1517 38.3775 30.662 38.3775 31.1826Z" fill="#FBFBFB" stroke="#2C2C2C" stroke-width="1.0789" stroke-miterlimit="10"/>
<path d="M50.8117 26.9343C50.6347 27.0384 50.4784 27.1217 50.3118 27.1946H50.3014C48.1873 28.2046 46.1877 28.871 44.2819 29.2667C42.2094 29.704 40.2515 29.8185 38.429 29.6727C38.731 25.2266 40.4806 21.8322 45.1567 21.8322C48.3435 21.8322 50.0723 23.9042 50.8117 26.9343Z" stroke="#2C2C2C" stroke-width="1.0789" stroke-miterlimit="10"/>
<path d="M51.27 31.1825C51.27 31.3595 51.27 31.5365 51.2596 31.7135C51.1867 36.6282 49.9474 40.5329 45.1567 40.5329C40.3661 40.5329 38.377 36.3471 38.377 31.1825C38.377 30.6723 38.3978 30.1621 38.429 29.6727C40.2515 29.8185 42.2095 29.7039 44.2819 29.2666C46.1878 28.8709 48.1873 28.2045 50.3015 27.1945H50.3119C50.4785 27.1216 50.6347 27.0383 50.8118 26.9342C51.093 28.0483 51.2283 29.2978 51.2596 30.6202C51.27 30.8076 51.27 30.9951 51.27 31.1825Z" fill="#FBFBFB" stroke="#2C2C2C" stroke-width="1.0789" stroke-miterlimit="10"/>
<path d="M38.3251 29.6623C38.3251 29.6623 38.2314 29.6519 38.1898 29.6519C35.909 29.4645 33.8469 28.8814 32.0036 28.1005C29.9624 27.2258 28.2023 26.0909 26.7339 24.9247C27.7545 23.0296 29.4937 21.8322 32.2744 21.8322C36.3464 21.8322 38.0335 25.2162 38.3251 29.6623Z" stroke="#2C2C2C" stroke-width="1.0789" stroke-miterlimit="10" stroke-linecap="round"/>
<path d="M32.2566 28.7841C33.9124 29.443 35.7373 29.9437 37.7322 30.1503C37.7761 30.4346 37.8067 30.7346 37.823 31.0507L37.8376 31.5243V31.703C37.8376 31.852 37.8377 31.979 37.8289 32.1024L37.8279 32.121V32.2069C37.8175 32.349 37.81 32.4906 37.8025 32.6249C37.7946 32.7647 37.787 32.8975 37.7771 33.0262L37.7751 33.0468V33.0673C37.7751 33.1227 37.7693 33.1745 37.7585 33.2606V33.2626C37.6387 34.2562 37.3839 35.0272 36.9607 35.5428C36.5596 36.0315 35.9596 36.3495 34.9929 36.3495C33.8982 36.3495 33.1226 35.8686 32.5984 35.0731C32.0576 34.2525 31.7722 33.0714 31.7722 31.703C31.7722 30.5486 31.9196 29.5493 32.2566 28.7841Z" fill="#2C2C2C" stroke="#2C2C2C" stroke-width="1.0789"/>
<path d="M50.1016 27.8792C50.4683 28.5733 50.6697 29.523 50.7207 30.6448V30.6506C50.7301 30.8205 50.7305 30.9931 50.7305 31.1829C50.7305 31.3624 50.73 31.5234 50.7207 31.6819V31.6965C50.6799 32.9773 50.4798 34.0244 50.041 34.7385C49.6318 35.4045 48.9871 35.8283 47.875 35.8284C46.7802 35.8284 46.0047 35.3475 45.4805 34.552C44.9399 33.7314 44.6543 32.551 44.6543 31.1829C44.6543 30.6647 44.688 30.1718 44.7549 29.7131C46.464 29.3303 48.241 28.734 50.1016 27.8792Z" fill="#2C2C2C" stroke="#2C2C2C" stroke-width="1.0789"/>
<path d="M39.252 40.8349C39.252 40.8349 33.9927 41.1056 34.6592 44.0315C35.3257 46.9574 42.6679 46.3535 43.7094 45.104C44.7508 43.8545 44.0218 41.0744 39.252 40.8245V40.8349Z" fill="#FBD7D5" stroke="#2C2C2C" stroke-width="1.0789" stroke-miterlimit="10"/>
<path d="M43.6682 55.5893C43.6682 55.5893 39.3462 43.136 25.5471 49.4043" stroke="#2C2C2C" stroke-width="1.0789" stroke-miterlimit="10" stroke-linecap="round"/>
<path d="M38.3247 29.6624C38.3247 29.6624 38.3976 29.6829 38.4289 29.6726" stroke="#2C2C2C" stroke-width="1.0789" stroke-miterlimit="10" stroke-linecap="round"/>
<path d="M57.3314 22.8005C55.0611 24.5498 52.8845 25.9139 50.812 26.9343" stroke="#2C2C2C" stroke-width="1.0789" stroke-miterlimit="10" stroke-linecap="round"/>
<path d="M26.7337 24.9246C23.2449 22.1757 21.3911 19.2603 21.3911 19.2603" stroke="#2C2C2C" stroke-width="1.0789" stroke-miterlimit="10" stroke-linecap="round"/>
<path d="M14.8508 38.75C14.9153 38.7501 14.967 38.803 14.967 38.8672C14.9669 38.9313 14.9152 38.9833 14.8508 38.9834C14.7864 38.9834 14.7338 38.9313 14.7336 38.8672C14.7336 38.8029 14.7863 38.75 14.8508 38.75Z" fill="#2C2C2C" stroke="#2C2C2C" stroke-width="1.0789"/>
<path d="M18.9338 38.75C18.9983 38.7501 19.05 38.803 19.05 38.8672C19.0499 38.9313 18.9982 38.9833 18.9338 38.9834C18.8694 38.9834 18.8168 38.9313 18.8167 38.8672C18.8167 38.8029 18.8693 38.75 18.9338 38.75Z" fill="#2C2C2C" stroke="#2C2C2C" stroke-width="1.0789"/>
<path d="M16.8926 40.7804C16.957 40.7805 17.0088 40.8334 17.0088 40.8976C17.0086 40.9617 16.9569 41.0137 16.8926 41.0138C16.8281 41.0138 16.7755 40.9617 16.7754 40.8976C16.7754 40.8333 16.8281 40.7804 16.8926 40.7804Z" fill="#2C2C2C" stroke="#2C2C2C" stroke-width="1.0789"/>
<path d="M53.5405 38.75C53.605 38.7501 53.6567 38.803 53.6567 38.8672C53.6566 38.9313 53.6049 38.9833 53.5405 38.9834C53.4761 38.9834 53.4235 38.9313 53.4233 38.8672C53.4233 38.8029 53.476 38.75 53.5405 38.75Z" fill="#2C2C2C" stroke="#2C2C2C" stroke-width="1.0789"/>
<path d="M57.6333 38.75C57.6978 38.7501 57.7495 38.803 57.7495 38.8672C57.7494 38.9313 57.6977 38.9833 57.6333 38.9834C57.5689 38.9834 57.5163 38.9313 57.5161 38.8672C57.5161 38.8029 57.5688 38.75 57.6333 38.75Z" fill="#2C2C2C" stroke="#2C2C2C" stroke-width="1.0789"/>
<path d="M55.5923 40.7804C55.6567 40.7805 55.7085 40.8334 55.7085 40.8976C55.7084 40.9617 55.6567 41.0137 55.5923 41.0138C55.5278 41.0138 55.4752 40.9617 55.4751 40.8976C55.4751 40.8333 55.5278 40.7804 55.5923 40.7804Z" fill="#2C2C2C" stroke="#2C2C2C" stroke-width="1.0789"/>
</g>
</g>
<defs>
<filter id="filter0_g_40000282_7185" x="13.7946" y="18.3207" width="44.8947" height="38.2082" filterUnits="userSpaceOnUse" color-interpolation-filters="sRGB">
<feFlood flood-opacity="0" result="BackgroundImageFix"/>
<feBlend mode="normal" in="SourceGraphic" in2="BackgroundImageFix" result="shape"/>
<feTurbulence type="fractalNoise" baseFrequency="0.66666668653488159 0.66666668653488159" numOctaves="3" seed="7043" />
<feDisplacementMap in="shape" scale="0.80000001192092896" xChannelSelector="R" yChannelSelector="G" result="displacedImage" width="100%" height="100%" />
<feMerge result="effect1_texture_40000282_7185">
<feMergeNode in="displacedImage"/>
</feMerge>
</filter>
<clipPath id="clip0_40000282_7185">
<rect width="73" height="74" fill="white"/>
</clipPath>
</defs>
</svg>
