<svg width="73" height="74" viewBox="0 0 73 74" fill="none" xmlns="http://www.w3.org/2000/svg">
<path d="M36.5 0.5C56.3759 0.5 72.5 16.8352 72.5 37C72.5 57.1648 56.3759 73.5 36.5 73.5C16.6241 73.5 0.5 57.1648 0.5 37C0.5 16.8352 16.6241 0.5 36.5 0.5Z" fill="#EEEDEB" stroke="#9C9C9C"/>
<g filter="url(#filter0_g_40000282_7176)">
<path d="M39.9155 34.1504C39.9155 39.3912 38.745 43.6387 33.7255 43.6387C29.0223 43.6387 26.8606 39.3912 26.8606 34.1504C26.8606 28.9096 28.4529 24.662 33.7255 24.662C38.3126 24.662 39.9155 28.9096 39.9155 34.1504Z" fill="#FBFBFB" stroke="#2C2C2C" stroke-miterlimit="10"/>
<path d="M39.9154 34.6787C39.9154 37.5844 39.2721 39.9406 36.4882 39.9406C33.8835 39.9406 32.6814 37.5844 32.6814 34.6787C32.6814 31.773 33.5672 29.4167 36.4882 29.4167C39.0296 29.4167 39.9154 31.773 39.9154 34.6787Z" fill="#2C2C2C" stroke="#2C2C2C"/>
<path d="M52.9594 34.1504C52.9594 39.3912 51.7889 43.6387 46.7694 43.6387C42.0663 43.6387 39.9045 39.3912 39.9045 34.1504C39.9045 28.9096 41.4969 24.662 46.7694 24.662C51.3566 24.662 52.9594 28.9096 52.9594 34.1504Z" fill="#FBFBFB" stroke="#2C2C2C" stroke-miterlimit="10"/>
<path d="M40.7896 43.9558C40.7896 43.9558 35.4643 44.2305 36.1392 47.1996C36.8141 50.1686 44.2484 49.5558 45.3029 48.2879C46.3574 47.0199 45.6193 44.1988 40.7896 43.9452V43.9558Z" fill="#FBD7D5" stroke="#2C2C2C"/>
<path d="M25.1516 45.5302C25.1516 45.5302 29.5278 58.1672 43.5001 51.8064" stroke="#2C2C2C" stroke-miterlimit="10" stroke-linecap="round"/>
<path d="M52.9588 34.1504C52.9588 37.056 52.3156 39.4123 49.5316 39.4123C46.927 39.4123 45.7249 37.056 45.7249 34.1504C45.7249 31.2447 46.6106 28.8884 49.5316 28.8884C52.073 28.8884 52.9588 31.2447 52.9588 34.1504Z" fill="#2C2C2C" stroke="#2C2C2C"/>
<path d="M16.084 42.6141C16.4509 42.6141 16.7484 42.316 16.7484 41.9483C16.7484 41.5806 16.4509 41.2825 16.084 41.2825C15.7171 41.2825 15.4197 41.5806 15.4197 41.9483C15.4197 42.316 15.7171 42.6141 16.084 42.6141Z" fill="#2C2C2C"/>
<path d="M20.2278 42.6141C20.5947 42.6141 20.8922 42.316 20.8922 41.9483C20.8922 41.5806 20.5947 41.2825 20.2278 41.2825C19.8609 41.2825 19.5635 41.5806 19.5635 41.9483C19.5635 42.316 19.8609 42.6141 20.2278 42.6141Z" fill="#2C2C2C"/>
<path d="M18.1604 44.6745C18.5273 44.6745 18.8248 44.3764 18.8248 44.0087C18.8248 43.641 18.5273 43.3429 18.1604 43.3429C17.7935 43.3429 17.4961 43.641 17.4961 44.0087C17.4961 44.3764 17.7935 44.6745 18.1604 44.6745Z" fill="#2C2C2C"/>
<path d="M55.2696 42.6141C55.6365 42.6141 55.9339 42.316 55.9339 41.9483C55.9339 41.5806 55.6365 41.2825 55.2696 41.2825C54.9027 41.2825 54.6052 41.5806 54.6052 41.9483C54.6052 42.316 54.9027 42.6141 55.2696 42.6141Z" fill="#2C2C2C"/>
<path d="M59.4031 42.6141C59.77 42.6141 60.0675 42.316 60.0675 41.9483C60.0675 41.5806 59.77 41.2825 59.4031 41.2825C59.0362 41.2825 58.7388 41.5806 58.7388 41.9483C58.7388 42.316 59.0362 42.6141 59.4031 42.6141Z" fill="#2C2C2C"/>
<path d="M57.337 44.6745C57.7039 44.6745 58.0013 44.3764 58.0013 44.0087C58.0013 43.641 57.7039 43.3429 57.337 43.3429C56.97 43.3429 56.6726 43.641 56.6726 44.0087C56.6726 44.3764 56.97 44.6745 57.337 44.6745Z" fill="#2C2C2C"/>
</g>
<defs>
<filter id="filter0_g_40000282_7176" x="15.0197" y="23.762" width="45.4477" height="30.7343" filterUnits="userSpaceOnUse" color-interpolation-filters="sRGB">
<feFlood flood-opacity="0" result="BackgroundImageFix"/>
<feBlend mode="normal" in="SourceGraphic" in2="BackgroundImageFix" result="shape"/>
<feTurbulence type="fractalNoise" baseFrequency="0.66666668653488159 0.66666668653488159" numOctaves="3" seed="7043" />
<feDisplacementMap in="shape" scale="0.80000001192092896" xChannelSelector="R" yChannelSelector="G" result="displacedImage" width="100%" height="100%" />
<feMerge result="effect1_texture_40000282_7176">
<feMergeNode in="displacedImage"/>
</feMerge>
</filter>
</defs>
</svg>
