<svg width="73" height="74" viewBox="0 0 73 74" fill="none" xmlns="http://www.w3.org/2000/svg">
<g clip-path="url(#clip0_40000282_7181)">
<path d="M36.5 0.5C56.3759 0.5 72.5 16.8352 72.5 37C72.5 57.1648 56.3759 73.5 36.5 73.5C16.6241 73.5 0.5 57.1648 0.5 37C0.5 16.8352 16.6241 0.5 36.5 0.5Z" fill="#EEEDEB" stroke="#9C9C9C"/>
<g filter="url(#filter0_g_40000282_7181)">
<path d="M38.3881 37.4401C38.3881 42.6047 37.2321 46.7905 32.2749 46.7905C27.6301 46.7905 25.4951 42.6047 25.4951 37.4401C25.4951 32.2755 27.0677 28.0897 32.2749 28.0897C36.8052 28.0897 38.3881 32.2755 38.3881 37.4401Z" fill="#FBFBFB" stroke="#2C2C2C" stroke-width="1.0789" stroke-miterlimit="10"/>
<path d="M32.2334 32.7937C33.2813 32.7938 33.9544 33.2589 34.3975 34.0398C34.8629 34.8602 35.0781 36.0475 35.0781 37.4402C35.0781 38.8537 34.918 40.037 34.4814 40.8523C34.2691 41.2489 33.9958 41.5484 33.6484 41.7527C33.3001 41.9576 32.8435 42.0857 32.2334 42.0857C31.1386 42.0857 30.3631 41.6048 29.8389 40.8093C29.2983 39.9887 29.0127 38.8083 29.0127 37.4402C29.0127 36.0459 29.2293 34.8695 29.7305 34.0574C30.205 33.2886 30.9654 32.7937 32.2334 32.7937Z" fill="#2C2C2C" stroke="#2C2C2C" stroke-width="1.0789"/>
<path d="M51.2705 37.4401C51.2705 42.6047 50.1145 46.7905 45.1572 46.7905C40.5124 46.7905 38.3774 42.6047 38.3774 37.4401C38.3774 32.2755 39.95 28.0897 45.1572 28.0897C49.6875 28.0897 51.2705 32.2755 51.2705 37.4401Z" fill="#FBFBFB" stroke="#2C2C2C" stroke-width="1.0789" stroke-miterlimit="10"/>
<path d="M39.2525 47.0924C39.2525 47.0924 33.9932 47.3632 34.6597 50.2891C35.3262 53.215 42.6684 52.611 43.7098 51.3615C44.7513 50.1121 44.0223 47.3319 39.2525 47.082V47.0924Z" fill="#FBD7D5" stroke="#2C2C2C" stroke-width="1.0789" stroke-miterlimit="10"/>
<path d="M34.9788 55.7818H43.6095" stroke="#2C2C2C" stroke-width="1.0789" stroke-miterlimit="10" stroke-linecap="round"/>
<path d="M45.116 32.7937C46.1639 32.7938 46.837 33.2589 47.28 34.0398C47.7455 34.8602 47.9607 36.0475 47.9607 37.4402C47.9607 38.8537 47.8006 40.037 47.364 40.8523C47.1516 41.2489 46.8783 41.5484 46.531 41.7527C46.1827 41.9576 45.726 42.0857 45.116 42.0857C44.0212 42.0857 43.2456 41.6048 42.7214 40.8093C42.1809 39.9887 41.8953 38.8083 41.8953 37.4402C41.8953 36.0459 42.1119 34.8695 42.613 34.0574C43.0876 33.2886 43.8479 32.7937 45.116 32.7937Z" fill="#2C2C2C" stroke="#2C2C2C" stroke-width="1.0789"/>
<path d="M14.8511 45.0076C14.9155 45.0076 14.9673 45.0605 14.9673 45.1248C14.9671 45.1889 14.9154 45.2409 14.8511 45.241C14.7866 45.241 14.734 45.1889 14.7339 45.1248C14.7339 45.0605 14.7866 45.0076 14.8511 45.0076Z" fill="#2C2C2C" stroke="#2C2C2C" stroke-width="1.0789"/>
<path d="M18.9341 45.0076C18.9985 45.0076 19.0503 45.0605 19.0503 45.1248C19.0501 45.1889 18.9984 45.2409 18.9341 45.241C18.8696 45.241 18.817 45.1889 18.8169 45.1248C18.8169 45.0605 18.8696 45.0076 18.9341 45.0076Z" fill="#2C2C2C" stroke="#2C2C2C" stroke-width="1.0789"/>
<path d="M16.8928 47.038C16.9573 47.038 17.009 47.0909 17.009 47.1552C17.0089 47.2192 16.9572 47.2713 16.8928 47.2714C16.8284 47.2714 16.7758 47.2193 16.7756 47.1552C16.7756 47.0909 16.8283 47.038 16.8928 47.038Z" fill="#2C2C2C" stroke="#2C2C2C" stroke-width="1.0789"/>
<path d="M53.5408 45.0076C53.6052 45.0076 53.657 45.0605 53.657 45.1248C53.6568 45.1888 53.6051 45.2409 53.5408 45.241C53.4763 45.241 53.4237 45.1889 53.4236 45.1248C53.4236 45.0605 53.4763 45.0076 53.5408 45.0076Z" fill="#2C2C2C" stroke="#2C2C2C" stroke-width="1.0789"/>
<path d="M57.6335 45.0076C57.698 45.0076 57.7498 45.0605 57.7498 45.1248C57.7496 45.1888 57.6979 45.2409 57.6335 45.241C57.5691 45.241 57.5165 45.1889 57.5164 45.1248C57.5164 45.0605 57.569 45.0076 57.6335 45.0076Z" fill="#2C2C2C" stroke="#2C2C2C" stroke-width="1.0789"/>
<path d="M55.5925 47.038C55.657 47.038 55.7087 47.0909 55.7087 47.1552C55.7086 47.2192 55.6569 47.2713 55.5925 47.2714C55.5281 47.2714 55.4755 47.2193 55.4753 47.1552C55.4753 47.0909 55.528 47.038 55.5925 47.038Z" fill="#2C2C2C" stroke="#2C2C2C" stroke-width="1.0789"/>
<path d="M26.2275 19.5985C26.2275 19.5985 29.9905 17.2143 33.7535 18.7783" stroke="#2C2C2C" stroke-width="1.0789" stroke-miterlimit="10" stroke-linecap="round"/>
<path d="M48.3897 19.5985C48.3897 19.5985 44.6267 17.2143 40.8638 18.7783" stroke="#2C2C2C" stroke-width="1.0789" stroke-miterlimit="10" stroke-linecap="round"/>
</g>
</g>
<defs>
<filter id="filter0_g_40000282_7181" x="13.7948" y="17.3072" width="44.8947" height="39.4141" filterUnits="userSpaceOnUse" color-interpolation-filters="sRGB">
<feFlood flood-opacity="0" result="BackgroundImageFix"/>
<feBlend mode="normal" in="SourceGraphic" in2="BackgroundImageFix" result="shape"/>
<feTurbulence type="fractalNoise" baseFrequency="0.66666668653488159 0.66666668653488159" numOctaves="3" seed="7043" />
<feDisplacementMap in="shape" scale="0.80000001192092896" xChannelSelector="R" yChannelSelector="G" result="displacedImage" width="100%" height="100%" />
<feMerge result="effect1_texture_40000282_7181">
<feMergeNode in="displacedImage"/>
</feMerge>
</filter>
<clipPath id="clip0_40000282_7181">
<rect width="73" height="74" fill="white"/>
</clipPath>
</defs>
</svg>