<svg width="73" height="74" viewBox="0 0 73 74" fill="none" xmlns="http://www.w3.org/2000/svg">
<g clip-path="url(#clip0_40000282_7190)">
<path d="M36.5 0.5C56.3759 0.5 72.5 16.8352 72.5 37C72.5 57.1648 56.3759 73.5 36.5 73.5C16.6241 73.5 0.5 57.1648 0.5 37C0.5 16.8352 16.6241 0.5 36.5 0.5Z" fill="#EEEDEB" stroke="#9C9C9C"/>
<g filter="url(#filter0_g_40000282_7190)">
<path d="M51.982 32.0854C51.982 37.3207 50.81 41.5639 45.7838 41.5639C41.0745 41.5639 38.9099 37.3207 38.9099 32.0854C38.9099 26.8501 40.5149 22.6069 45.7838 22.6069C50.377 22.6069 51.982 26.8501 51.982 32.0854Z" fill="#FBFBFB" stroke="#2C2C2C" stroke-width="1.0789" stroke-miterlimit="10"/>
<path d="M38.9205 32.0854C38.9205 37.3207 37.7484 41.5639 32.7223 41.5639C28.013 41.5639 25.8484 37.3207 25.8484 32.0854C25.8484 26.8501 27.4534 22.6069 32.7223 22.6069C37.3155 22.6069 38.9205 26.8501 38.9205 32.0854Z" fill="#FBFBFB" stroke="#2C2C2C" stroke-width="1.0789" stroke-miterlimit="10"/>
<path d="M48.5496 27.368C49.6149 27.368 50.3003 27.841 50.7507 28.6346C51.2236 29.4679 51.4421 30.6735 51.4421 32.0858C51.4421 33.5188 51.2792 34.7197 50.8357 35.5477C50.6199 35.9506 50.3424 36.2558 49.989 36.4637C49.6345 36.6722 49.1693 36.8026 48.5496 36.8026C47.4371 36.8025 46.6487 36.3139 46.116 35.5057C45.5667 34.6723 45.2772 33.4737 45.2771 32.0858C45.2771 30.6717 45.4972 29.4772 46.0066 28.6522C46.4891 27.8708 47.2617 27.3681 48.5496 27.368Z" fill="#2C2C2C" stroke="#2C2C2C" stroke-width="1.0789"/>
<path d="M39.7968 41.8806C39.7968 41.8806 34.4645 42.155 35.1403 45.121C35.816 48.0869 43.2602 47.4747 44.3161 46.2081C45.372 44.9415 44.6328 42.1233 39.7968 41.87V41.8806Z" fill="#FBD7D5" stroke="#2C2C2C" stroke-width="1.0789" stroke-miterlimit="10"/>
<path d="M35.2989 51.5066C35.2989 51.5066 31.6244 54.0609 28.4883 53.2165C25.3523 52.3827 26.0914 46.894 26.0914 46.894L24.1274 43.4425C24.1274 43.4425 28.5094 56.0664 42.5002 49.7122" stroke="#2C2C2C" stroke-width="1.0789" stroke-miterlimit="10" stroke-linecap="round"/>
<path d="M15.0566 39.7491C15.1262 39.7491 15.1826 39.8059 15.1826 39.8751C15.1826 39.9444 15.1262 40.0011 15.0566 40.0011C14.9872 40.001 14.9307 39.9444 14.9307 39.8751C14.9307 39.8059 14.9872 39.7492 15.0566 39.7491Z" fill="#2C2C2C" stroke="#2C2C2C" stroke-width="1.0789"/>
<path d="M19.1963 39.7491C19.2658 39.7491 19.3222 39.8059 19.3223 39.8751C19.3223 39.9444 19.2658 40.0011 19.1963 40.0011C19.1268 40.001 19.0703 39.9444 19.0703 39.8751C19.0703 39.8059 19.1268 39.7492 19.1963 39.7491Z" fill="#2C2C2C" stroke="#2C2C2C" stroke-width="1.0789"/>
<path d="M17.1267 41.8074C17.1962 41.8074 17.2527 41.8641 17.2527 41.9333C17.2527 42.0026 17.1963 42.0593 17.1267 42.0593C17.0572 42.0592 17.0007 42.0026 17.0007 41.9333C17.0008 41.8641 17.0573 41.8075 17.1267 41.8074Z" fill="#2C2C2C" stroke="#2C2C2C" stroke-width="1.0789"/>
<path d="M54.2832 39.7491C54.3527 39.7491 54.4091 39.8059 54.4092 39.8751C54.4092 39.9444 54.3528 40.0011 54.2832 40.0011C54.2137 40.001 54.1572 39.9444 54.1572 39.8751C54.1573 39.8059 54.2138 39.7492 54.2832 39.7491Z" fill="#2C2C2C" stroke="#2C2C2C" stroke-width="1.0789"/>
<path d="M58.4331 39.7491C58.5026 39.7491 58.5591 39.8059 58.5591 39.8751C58.5591 39.9444 58.5027 40.0011 58.4331 40.0011C58.3636 40.001 58.3071 39.9444 58.3071 39.8751C58.3072 39.8059 58.3637 39.7492 58.4331 39.7491Z" fill="#2C2C2C" stroke="#2C2C2C" stroke-width="1.0789"/>
<path d="M56.363 41.8074C56.4326 41.8074 56.489 41.8641 56.489 41.9333C56.489 42.0026 56.4326 42.0593 56.363 42.0593C56.2936 42.0592 56.2371 42.0026 56.2371 41.9333C56.2371 41.8641 56.2936 41.8075 56.363 41.8074Z" fill="#2C2C2C" stroke="#2C2C2C" stroke-width="1.0789"/>
<path d="M32.6058 28.8871C34.6965 28.8027 37.3257 30.5971 38.181 33.0036C38.2232 33.1197 38.1282 33.2358 38.0014 33.2358C37.125 33.2147 35.3934 32.9825 32.5952 35.6529" stroke="#2C2C2C" stroke-width="1.0789" stroke-miterlimit="10" stroke-linecap="round"/>
</g>
</g>
<defs>
<filter id="filter0_g_40000282_7190" x="13.9916" y="21.6675" width="45.5068" height="32.6596" filterUnits="userSpaceOnUse" color-interpolation-filters="sRGB">
<feFlood flood-opacity="0" result="BackgroundImageFix"/>
<feBlend mode="normal" in="SourceGraphic" in2="BackgroundImageFix" result="shape"/>
<feTurbulence type="fractalNoise" baseFrequency="0.66666668653488159 0.66666668653488159" numOctaves="3" seed="7043" />
<feDisplacementMap in="shape" scale="0.80000001192092896" xChannelSelector="R" yChannelSelector="G" result="displacedImage" width="100%" height="100%" />
<feMerge result="effect1_texture_40000282_7190">
<feMergeNode in="displacedImage"/>
</feMerge>
</filter>
<clipPath id="clip0_40000282_7190">
<rect width="73" height="74" fill="white"/>
</clipPath>
</defs>
</svg>
