<svg width="329" height="61" viewBox="0 0 329 61" fill="none" xmlns="http://www.w3.org/2000/svg">
<rect width="329" height="61" rx="15" fill="#5C5C5C"/>
<path d="M143.345 23.34C143.485 23.34 143.61 23.375 143.72 23.445C143.83 23.515 143.885 23.63 143.885 23.79V27.78C144.105 27.38 144.44 27.065 144.89 26.835C145.34 26.605 145.825 26.49 146.345 26.49C147.385 26.49 148.165 26.805 148.685 27.435C149.215 28.055 149.48 28.98 149.48 30.21V30.84C149.48 32.09 149.19 33.025 148.61 33.645C148.03 34.255 147.245 34.56 146.255 34.56C145.735 34.56 145.26 34.46 144.83 34.26C144.4 34.05 144.08 33.77 143.87 33.42H143.84V34.065C143.84 34.215 143.785 34.325 143.675 34.395C143.575 34.465 143.46 34.5 143.33 34.5C143.19 34.5 143.065 34.465 142.955 34.395C142.855 34.325 142.805 34.215 142.805 34.065V23.79C142.805 23.63 142.86 23.515 142.97 23.445C143.08 23.375 143.205 23.34 143.345 23.34ZM146.18 27.435C145.88 27.435 145.59 27.49 145.31 27.6C145.04 27.7 144.795 27.85 144.575 28.05C144.365 28.24 144.195 28.475 144.065 28.755C143.935 29.035 143.87 29.35 143.87 29.7V31.77C143.87 32.01 143.925 32.24 144.035 32.46C144.155 32.68 144.315 32.88 144.515 33.06C144.715 33.23 144.955 33.365 145.235 33.465C145.525 33.565 145.845 33.615 146.195 33.615C146.875 33.615 147.415 33.39 147.815 32.94C148.215 32.48 148.415 31.755 148.415 30.765V30.27C148.415 29.3 148.235 28.585 147.875 28.125C147.515 27.665 146.95 27.435 146.18 27.435ZM151.717 26.595C151.857 26.595 151.977 26.63 152.077 26.7C152.187 26.77 152.242 26.885 152.242 27.045V31.515C152.242 32.235 152.402 32.765 152.722 33.105C153.042 33.435 153.522 33.6 154.162 33.6C154.522 33.6 154.847 33.54 155.137 33.42C155.427 33.29 155.672 33.13 155.872 32.94C156.072 32.75 156.222 32.54 156.322 32.31C156.432 32.07 156.487 31.835 156.487 31.605V27.045C156.487 26.885 156.542 26.77 156.652 26.7C156.762 26.63 156.887 26.595 157.027 26.595C157.167 26.595 157.292 26.63 157.402 26.7C157.512 26.77 157.567 26.885 157.567 27.045V34.065C157.567 34.215 157.512 34.325 157.402 34.395C157.302 34.465 157.182 34.5 157.042 34.5C156.902 34.5 156.777 34.465 156.667 34.395C156.567 34.325 156.517 34.215 156.517 34.065V33.27H156.502C156.422 33.42 156.302 33.575 156.142 33.735C155.992 33.885 155.807 34.025 155.587 34.155C155.367 34.275 155.122 34.375 154.852 34.455C154.582 34.525 154.297 34.56 153.997 34.56C153.057 34.56 152.347 34.315 151.867 33.825C151.397 33.335 151.162 32.65 151.162 31.77V27.045C151.162 26.885 151.217 26.77 151.327 26.7C151.447 26.63 151.577 26.595 151.717 26.595ZM160.748 24.51C160.888 24.51 161.013 24.545 161.123 24.615C161.243 24.685 161.303 24.8 161.303 24.96V26.655H163.208C163.328 26.655 163.418 26.7 163.478 26.79C163.538 26.87 163.568 26.97 163.568 27.09C163.568 27.22 163.538 27.33 163.478 27.42C163.418 27.5 163.328 27.54 163.208 27.54H161.303V32.13C161.303 32.71 161.383 33.105 161.543 33.315C161.703 33.525 161.988 33.63 162.398 33.63C162.688 33.63 162.948 33.58 163.178 33.48C163.288 33.44 163.393 33.44 163.493 33.48C163.593 33.52 163.668 33.61 163.718 33.75C163.818 34.02 163.738 34.22 163.478 34.35C163.178 34.49 162.798 34.56 162.338 34.56C161.618 34.56 161.083 34.385 160.733 34.035C160.393 33.685 160.223 33.08 160.223 32.22V27.54H159.173C159.043 27.54 158.948 27.5 158.888 27.42C158.828 27.33 158.798 27.22 158.798 27.09C158.798 26.97 158.828 26.87 158.888 26.79C158.948 26.7 159.043 26.655 159.173 26.655H160.223V24.96C160.223 24.8 160.273 24.685 160.373 24.615C160.483 24.545 160.608 24.51 160.748 24.51ZM166.163 24.51C166.303 24.51 166.428 24.545 166.538 24.615C166.658 24.685 166.718 24.8 166.718 24.96V26.655H168.623C168.743 26.655 168.833 26.7 168.893 26.79C168.953 26.87 168.983 26.97 168.983 27.09C168.983 27.22 168.953 27.33 168.893 27.42C168.833 27.5 168.743 27.54 168.623 27.54H166.718V32.13C166.718 32.71 166.798 33.105 166.958 33.315C167.118 33.525 167.403 33.63 167.813 33.63C168.103 33.63 168.363 33.58 168.593 33.48C168.703 33.44 168.808 33.44 168.908 33.48C169.008 33.52 169.083 33.61 169.133 33.75C169.233 34.02 169.153 34.22 168.893 34.35C168.593 34.49 168.213 34.56 167.753 34.56C167.033 34.56 166.498 34.385 166.148 34.035C165.808 33.685 165.638 33.08 165.638 32.22V27.54H164.588C164.458 27.54 164.363 27.5 164.303 27.42C164.243 27.33 164.213 27.22 164.213 27.09C164.213 26.97 164.243 26.87 164.303 26.79C164.363 26.7 164.458 26.655 164.588 26.655H165.638V24.96C165.638 24.8 165.688 24.685 165.788 24.615C165.898 24.545 166.023 24.51 166.163 24.51ZM173.692 26.49C174.772 26.49 175.627 26.805 176.257 27.435C176.887 28.065 177.202 28.99 177.202 30.21V30.84C177.202 32.06 176.887 32.985 176.257 33.615C175.627 34.245 174.772 34.56 173.692 34.56C172.602 34.56 171.742 34.25 171.112 33.63C170.482 33 170.167 32.07 170.167 30.84V30.21C170.167 28.98 170.482 28.055 171.112 27.435C171.742 26.805 172.602 26.49 173.692 26.49ZM173.692 27.45C172.912 27.45 172.307 27.675 171.877 28.125C171.457 28.575 171.247 29.29 171.247 30.27V30.78C171.247 31.76 171.457 32.475 171.877 32.925C172.307 33.375 172.912 33.6 173.692 33.6C174.462 33.6 175.057 33.375 175.477 32.925C175.907 32.475 176.122 31.76 176.122 30.78V30.27C176.122 29.29 175.907 28.575 175.477 28.125C175.057 27.675 174.462 27.45 173.692 27.45ZM182.59 26.49C183.5 26.49 184.195 26.74 184.675 27.24C185.165 27.74 185.41 28.42 185.41 29.28V34.05C185.41 34.21 185.35 34.325 185.23 34.395C185.12 34.465 184.995 34.5 184.855 34.5C184.715 34.5 184.59 34.465 184.48 34.395C184.38 34.325 184.33 34.21 184.33 34.05V29.535C184.33 28.815 184.165 28.29 183.835 27.96C183.515 27.62 183.01 27.45 182.32 27.45C181.97 27.45 181.655 27.51 181.375 27.63C181.095 27.75 180.855 27.91 180.655 28.11C180.465 28.3 180.315 28.52 180.205 28.77C180.105 29.01 180.055 29.255 180.055 29.505V34.05C180.055 34.21 180 34.325 179.89 34.395C179.78 34.465 179.655 34.5 179.515 34.5C179.375 34.5 179.25 34.465 179.14 34.395C179.03 34.325 178.975 34.21 178.975 34.05V27.03C178.975 26.88 179.025 26.77 179.125 26.7C179.235 26.63 179.36 26.595 179.5 26.595C179.63 26.595 179.745 26.63 179.845 26.7C179.955 26.77 180.01 26.88 180.01 27.03V27.795H180.04C180.11 27.645 180.22 27.495 180.37 27.345C180.52 27.185 180.7 27.045 180.91 26.925C181.13 26.795 181.38 26.69 181.66 26.61C181.95 26.53 182.26 26.49 182.59 26.49Z" fill="white"/>
</svg>
