<svg width="44" height="44" viewBox="0 0 44 44" fill="none" xmlns="http://www.w3.org/2000/svg">
<circle cx="22" cy="22" r="21.5" fill="#EEEDEB" stroke="#CBCBC5"/>
<g filter="url(#filter0_g_40000282_8736)">
<path d="M22 14H15.7778C15.3063 14 14.8541 14.1873 14.5207 14.5207C14.1873 14.8541 14 15.3063 14 15.7778V28.2222C14 28.6937 14.1873 29.1459 14.5207 29.4793C14.8541 29.8127 15.3063 30 15.7778 30H28.2222C28.6937 30 29.1459 29.8127 29.4793 29.4793C29.8127 29.1459 30 28.6937 30 28.2222V22" stroke="#5C5C5C" stroke-width="2" stroke-linecap="round" stroke-linejoin="round"/>
<path d="M28.6662 12.572C29.0325 12.2057 29.5292 12 30.0471 12C30.5651 12 31.0618 12.2057 31.428 12.572C31.7943 12.9382 32 13.4349 32 13.9529C32 14.4708 31.7943 14.9675 31.428 15.3338L22.6824 24.0794L19 25L19.9206 21.3176L28.6662 12.572Z" stroke="#5C5C5C" stroke-width="2" stroke-linecap="round" stroke-linejoin="round"/>
</g>
<defs>
<filter id="filter0_g_40000282_8736" x="10.6" y="8.6" width="24.8" height="24.8" filterUnits="userSpaceOnUse" color-interpolation-filters="sRGB">
<feFlood flood-opacity="0" result="BackgroundImageFix"/>
<feBlend mode="normal" in="SourceGraphic" in2="BackgroundImageFix" result="shape"/>
<feTurbulence type="fractalNoise" baseFrequency="0.66666668653488159 0.66666668653488159" numOctaves="3" seed="7043" />
<feDisplacementMap in="shape" scale="0.80000001192092896" xChannelSelector="R" yChannelSelector="G" result="displacedImage" width="100%" height="100%" />
<feMerge result="effect1_texture_40000282_8736">
<feMergeNode in="displacedImage"/>
</feMerge>
</filter>
</defs>
</svg>
