<svg width="40" height="39" viewBox="0 0 40 39" fill="none" xmlns="http://www.w3.org/2000/svg">
<rect x="0.430147" y="0.430147" width="39.1397" height="38.1397" rx="19.0699" fill="#FBFBFB"/>
<rect x="0.430147" y="0.430147" width="39.1397" height="38.1397" rx="19.0699" stroke="#CBCBC5" stroke-width="0.860294"/>
<g filter="url(#filter0_g_40000313_5983)">
<path d="M12.3051 29.3937C11.7005 29.3937 11.1784 29.183 10.7386 28.7616C10.3173 28.3219 10.1066 27.7998 10.1066 27.1952V11.8055C10.1066 11.2009 10.3173 10.6879 10.7386 10.2665C11.1784 9.82679 11.7005 9.60693 12.3051 9.60693H27.6948C28.2994 9.60693 28.8124 9.82679 29.2338 10.2665C29.6735 10.6879 29.8933 11.2009 29.8933 11.8055V27.1952C29.8933 27.7998 29.6735 28.3219 29.2338 28.7616C28.8124 29.183 28.2994 29.3937 27.6948 29.3937H12.3051ZM12.3051 27.1952H27.6948V11.8055H12.3051V27.1952ZM13.4044 24.9966H26.5955L22.4733 19.5003L19.1755 23.8974L16.7022 20.5996L13.4044 24.9966ZM12.3051 27.1952V11.8055V27.1952Z" fill="#5C5C5C"/>
</g>
<defs>
<filter id="filter0_g_40000313_5983" x="9.91157" y="9.41193" width="20.1767" height="20.1769" filterUnits="userSpaceOnUse" color-interpolation-filters="sRGB">
<feFlood flood-opacity="0" result="BackgroundImageFix"/>
<feBlend mode="normal" in="SourceGraphic" in2="BackgroundImageFix" result="shape"/>
<feTurbulence type="fractalNoise" baseFrequency="1.0897436141967773 1.0897436141967773" numOctaves="3" seed="931" />
<feDisplacementMap in="shape" scale="0.39000001549720764" xChannelSelector="R" yChannelSelector="G" result="displacedImage" width="100%" height="100%" />
<feMerge result="effect1_texture_40000313_5983">
<feMergeNode in="displacedImage"/>
</feMerge>
</filter>
</defs>
</svg>
