<svg width="331" height="159" viewBox="0 0 331 159" fill="none" xmlns="http://www.w3.org/2000/svg">
<g clip-path="url(#clip0_40000111_229)" filter="url(#filter0_g_40000111_229)">
<path d="M165.5 143.843C210.918 143.843 252.031 144.678 281.785 146.026C296.664 146.7 308.692 147.502 316.993 148.391C321.148 148.836 324.347 149.301 326.496 149.777C327.576 150.016 328.353 150.25 328.845 150.469C328.905 150.496 328.959 150.522 329.006 150.547C328.959 150.571 328.905 150.597 328.845 150.624C328.353 150.843 327.577 151.078 326.496 151.317C324.347 151.793 321.148 152.257 316.993 152.702C308.692 153.591 296.664 154.394 281.785 155.068C252.031 156.416 210.918 157.25 165.5 157.25C120.082 157.25 78.969 156.416 49.2148 155.068C34.3355 154.394 22.308 153.591 14.0068 152.702C9.85219 152.257 6.65347 151.793 4.50391 151.317C3.42339 151.078 2.64699 150.843 2.15527 150.624C2.09463 150.597 2.04065 150.571 1.99316 150.547C2.04061 150.522 2.0947 150.496 2.15527 150.469C2.64698 150.25 3.42356 150.016 4.50391 149.777C6.65348 149.301 9.85217 148.836 14.0068 148.391C22.308 147.502 34.3355 146.7 49.2148 146.026C78.969 144.678 120.082 143.843 165.5 143.843Z" fill="#2C2C2C" stroke="#2C2C2C" stroke-width="1.5"/>
<path d="M57.8006 77.3991L65.2408 145.55C66.2244 149.255 70.0021 151.46 73.696 150.473L96.8851 144.301C109.034 141.067 105.236 122.423 92.8772 124.712C92.49 124.785 92.1029 124.869 91.7157 124.974C86.63 126.329 82.4233 128.817 77.8713 132.617L65.1257 75.4465L57.7902 77.3991H57.8006Z" fill="#CBCBC5" stroke="#2C2C2C" stroke-width="1.5" stroke-miterlimit="10"/>
<path d="M72.2415 137.813C73.1623 136.889 75.1924 134.748 79.284 131.483L72.2415 137.813Z" fill="#CBCBC5"/>
<path d="M72.2415 137.813C73.1623 136.889 75.1924 134.748 79.284 131.483" stroke="#2C2C2C" stroke-width="1.5" stroke-miterlimit="10" stroke-linecap="round"/>
<path d="M73.7065 150.011C73.7065 150.011 94.3318 129.572 99.0407 134.317L73.7065 150.011Z" fill="#CBCBC5"/>
<path d="M73.7065 150.011C73.7065 150.011 94.3318 129.572 99.0407 134.317" stroke="#2C2C2C" stroke-width="1.5" stroke-miterlimit="10" stroke-linecap="round"/>
<path d="M60.1237 69.5154L34.0046 131.525C32.2361 134.916 33.5337 139.115 36.9242 140.889L58.1773 152.058C69.3114 157.916 79.0747 141.592 68.422 134.905C68.0871 134.695 67.7418 134.496 67.386 134.307C62.7293 131.861 56.4507 130.748 50.5383 130.465L66.8523 73.0426L60.1342 69.5049L60.1237 69.5154Z" fill="#CBCBC5" stroke="#2C2C2C" stroke-width="1.5" stroke-miterlimit="10"/>
<path d="M44.3748 130.612C45.6829 130.559 48.6129 130.36 53.8346 130.717L44.3748 130.612Z" fill="#CBCBC5"/>
<path d="M44.3748 130.612C45.6829 130.559 48.6129 130.36 53.8346 130.717" stroke="#2C2C2C" stroke-width="1.5" stroke-miterlimit="10" stroke-linecap="round"/>
<path d="M111.49 67.9923C111.49 70.9316 111.302 73.808 110.935 76.6003C109.753 85.7123 104.583 93.806 96.8085 98.6664C86.7732 104.954 73.6403 108.902 59.1786 109.259C58.4461 109.28 57.7136 109.29 56.9706 109.29H56.3323C42.8123 109.185 30.3596 105.962 20.4394 100.587C11.9633 96 6.22882 87.6543 4.76381 78.112C4.26152 74.8472 3.99991 71.4565 3.99991 67.9923C3.99991 59.2478 5.67421 51.0386 8.6147 43.9317C14.7677 29.046 26.446 18.9998 39.8404 18.9998C44.497 18.9998 48.9444 20.207 53.036 22.422C55.9974 24.0176 59.503 24.0176 62.4539 22.422C66.535 20.2175 70.9824 18.9998 75.6286 18.9998C89.8287 18.9998 102.103 30.2848 107.901 46.6401C110.192 53.0961 111.48 60.3395 111.48 67.9923H111.49Z" fill="#FBD7D5"/>
<path d="M115.711 68.182C115.711 71.1213 115.522 73.9977 115.156 76.79C113.973 85.902 108.804 93.9957 101.029 98.8561C90.9937 105.144 77.8609 109.091 63.3991 109.448C62.6666 109.469 61.9341 109.48 61.1911 109.48H60.5528C47.0328 109.375 34.5802 106.152 24.66 100.777C16.1838 96.1897 10.4494 87.844 8.98436 78.3017C8.48207 75.0369 8.22046 71.6462 8.22046 68.182C8.22046 59.4374 9.89476 51.2283 12.8352 44.1214C18.9883 29.2357 30.6665 19.1895 44.0609 19.1895C48.7176 19.1895 53.165 20.3967 57.2565 22.6117C60.2179 24.2073 63.7235 24.2073 66.6745 22.6117C70.7556 20.4072 75.2029 19.1895 79.8491 19.1895C94.0493 19.1895 106.324 30.4744 112.121 46.8297C114.413 53.2858 115.7 60.5292 115.7 68.182H115.711Z" stroke="#2C2C2C" stroke-width="1.5" stroke-miterlimit="10"/>
<path d="M61.9655 62.4294C61.9655 67.6363 60.804 71.8563 55.8229 71.8563C51.1558 71.8563 49.0106 67.6363 49.0106 62.4294C49.0106 57.2226 50.5907 53.0026 55.8229 53.0026C60.3749 53.0026 61.9655 57.2226 61.9655 62.4294Z" fill="#FBFBFB" stroke="#2C2C2C" stroke-width="1.5" stroke-miterlimit="10"/>
<path d="M58.5643 58.4766C59.5362 58.4766 60.1461 58.8997 60.5574 59.627C60.9998 60.4092 61.2156 61.5648 61.2156 62.9541C61.2156 64.3725 61.0532 65.5226 60.6395 66.2979C60.4408 66.67 60.1914 66.9415 59.8807 67.125C59.5685 67.3092 59.1471 67.4326 58.5643 67.4326C57.5395 67.4325 56.8247 66.9865 56.3338 66.2393C55.8199 65.4567 55.5369 64.3099 55.5369 62.9541C55.537 61.5625 55.7533 60.4221 56.2274 59.6514C56.6643 58.9412 57.3587 58.4766 58.5643 58.4766Z" fill="#2C2C2C" stroke="#2C2C2C" stroke-width="1.5"/>
<path d="M74.9204 62.4294C74.9204 67.6363 73.7589 71.8563 68.7778 71.8563C64.1107 71.8563 61.9655 67.6363 61.9655 62.4294C61.9655 57.2226 63.5456 53.0026 68.7778 53.0026C73.3298 53.0026 74.9204 57.2226 74.9204 62.4294Z" fill="#FBFBFB" stroke="#2C2C2C" stroke-width="1.5" stroke-miterlimit="10"/>
<path d="M71.5192 57.9517C72.4911 57.9517 73.101 58.3748 73.5123 59.1021C73.9546 59.8843 74.1705 61.0399 74.1705 62.4292C74.1705 63.8476 74.0081 64.9977 73.5944 65.7729C73.3957 66.1451 73.1463 66.4166 72.8356 66.6001C72.5234 66.7843 72.102 66.9077 71.5192 66.9077C70.4944 66.9076 69.7796 66.4616 69.2887 65.7144C68.7748 64.9318 68.4918 63.785 68.4918 62.4292C68.4919 61.0376 68.7082 59.8972 69.1823 59.1265C69.6192 58.4163 70.3136 57.9517 71.5192 57.9517Z" fill="#2C2C2C" stroke="#2C2C2C" stroke-width="1.5"/>
<path d="M62.9249 72.9071C65.1159 73.0449 66.2076 73.744 66.6681 74.3729C67.1333 75.0083 67.0316 75.6416 66.7462 75.9852C66.7274 76.0079 66.6259 76.0981 66.3615 76.2128C66.1144 76.3199 65.7859 76.4225 65.3927 76.5096C64.607 76.6837 63.6275 76.7807 62.6564 76.7528C61.6782 76.7247 60.7624 76.5718 60.0773 76.2831C59.3887 75.9929 59.0533 75.6236 58.9611 75.2177C58.8511 74.7333 58.9769 74.4104 59.2228 74.1405C59.5031 73.8329 59.9661 73.5739 60.5353 73.3729C61.0922 73.1763 61.6806 73.0588 62.1388 72.9911C62.3657 72.9576 62.5558 72.9369 62.6876 72.9247C62.7534 72.9186 62.8045 72.9153 62.838 72.913C62.8548 72.9118 62.8675 72.9105 62.8751 72.91H62.8839L62.8829 72.9091L62.9249 72.9071Z" fill="#2C2C2C" stroke="#2C2C2C" stroke-width="1.5"/>
<path d="M47.3154 73.7249C47.3154 73.7249 51.6581 86.28 65.5234 79.9604" stroke="#2C2C2C" stroke-width="1.5" stroke-miterlimit="10" stroke-linecap="round"/>
<path d="M38.4067 70.1765C38.4067 70.2232 38.3683 70.2654 38.3159 70.2654C38.2636 70.2653 38.2251 70.2232 38.2251 70.1765C38.2252 70.1299 38.2637 70.0877 38.3159 70.0876C38.3682 70.0876 38.4066 70.1299 38.4067 70.1765Z" fill="#2C2C2C" stroke="#2C2C2C" stroke-width="1.5"/>
<path d="M42.5192 70.1765C42.5192 70.2232 42.4808 70.2654 42.4284 70.2654C42.3761 70.2653 42.3376 70.2232 42.3376 70.1765C42.3377 70.1299 42.3762 70.0877 42.4284 70.0876C42.4807 70.0876 42.5191 70.1299 42.5192 70.1765Z" fill="#2C2C2C" stroke="#2C2C2C" stroke-width="1.5"/>
<path d="M40.4682 72.2235C40.4682 72.2702 40.4297 72.3124 40.3774 72.3124C40.325 72.3123 40.2866 72.2702 40.2866 72.2235C40.2867 72.1769 40.3251 72.1347 40.3774 72.1346C40.4296 72.1346 40.4681 72.1769 40.4682 72.2235Z" fill="#2C2C2C" stroke="#2C2C2C" stroke-width="1.5"/>
<path d="M77.2924 70.1765C77.2924 70.2232 77.2539 70.2654 77.2015 70.2654C77.1492 70.2653 77.1107 70.2232 77.1107 70.1765C77.1108 70.1299 77.1493 70.0877 77.2015 70.0876C77.2538 70.0876 77.2922 70.1299 77.2924 70.1765Z" fill="#2C2C2C" stroke="#2C2C2C" stroke-width="1.5"/>
<path d="M81.4048 70.1765C81.4048 70.2232 81.3664 70.2654 81.314 70.2654C81.2617 70.2653 81.2232 70.2232 81.2232 70.1765C81.2233 70.1299 81.2618 70.0877 81.314 70.0876C81.3663 70.0876 81.4047 70.1299 81.4048 70.1765Z" fill="#2C2C2C" stroke="#2C2C2C" stroke-width="1.5"/>
<path d="M79.3538 72.2235C79.3538 72.2702 79.3154 72.3124 79.263 72.3124C79.2107 72.3123 79.1722 72.2702 79.1722 72.2235C79.1723 72.1769 79.2108 72.1347 79.263 72.1346C79.3153 72.1346 79.3537 72.1769 79.3538 72.2235Z" fill="#2C2C2C" stroke="#2C2C2C" stroke-width="1.5"/>
<path d="M272.708 75.625L296.388 131.85C298 134.926 296.818 138.726 293.741 140.343L274.476 150.473C264.378 155.785 255.525 140.983 265.194 134.916C265.498 134.727 265.812 134.548 266.136 134.38C270.364 132.155 276.056 131.158 281.414 130.895L266.617 78.8268L272.708 75.625Z" fill="#CBCBC5" stroke="#2C2C2C" stroke-width="1.5" stroke-miterlimit="10"/>
<path d="M286.981 131.021C285.799 130.969 283.141 130.79 278.411 131.116L286.981 131.021Z" fill="#CBCBC5"/>
<path d="M286.981 131.021C285.799 130.969 283.141 130.79 278.411 131.116" stroke="#2C2C2C" stroke-width="1.5" stroke-miterlimit="10" stroke-linecap="round"/>
<path d="M270.73 77.9345L263.29 146.085C262.306 149.791 258.528 151.995 254.834 151.009L231.645 144.836C219.496 141.603 223.295 122.959 235.653 125.247C236.04 125.321 236.428 125.405 236.815 125.51C241.9 126.864 246.107 129.352 250.659 133.152L263.405 75.9819L270.74 77.9345H270.73Z" fill="#CBCBC5" stroke="#2C2C2C" stroke-width="1.5" stroke-miterlimit="10"/>
<path d="M256.289 138.338C255.368 137.414 253.338 135.273 249.246 132.008L256.289 138.338Z" fill="#CBCBC5"/>
<path d="M256.289 138.338C255.368 137.414 253.338 135.273 249.246 132.008" stroke="#2C2C2C" stroke-width="1.5" stroke-miterlimit="10" stroke-linecap="round"/>
<path d="M254.824 150.547C254.824 150.547 234.199 130.108 229.49 134.853L254.824 150.547Z" fill="#CBCBC5"/>
<path d="M254.824 150.547C254.824 150.547 234.199 130.108 229.49 134.853" stroke="#2C2C2C" stroke-width="1.5" stroke-miterlimit="10" stroke-linecap="round"/>
<path d="M198.63 105.606V147.46C198.63 149.749 196.778 151.607 194.497 151.607H180.15C172.637 151.607 171.977 140.249 179.47 139.671C179.7 139.65 179.941 139.64 180.182 139.64C183.321 139.64 186.952 140.805 190.165 142.296L194.089 105.606H198.62H198.63Z" fill="#CBCBC5" stroke="#2C2C2C" stroke-width="1.5" stroke-miterlimit="10"/>
<path d="M193.388 144.091C192.707 143.702 191.211 142.779 188.354 141.519L193.388 144.091Z" fill="#CBCBC5"/>
<path d="M193.388 144.091C192.707 143.702 191.211 142.779 188.354 141.519" stroke="#2C2C2C" stroke-width="1.5" stroke-miterlimit="10" stroke-linecap="round"/>
<path d="M201.696 105.606V147.46C201.696 149.749 203.548 151.607 205.83 151.607H220.176C227.69 151.607 228.349 140.249 220.857 139.671C220.626 139.65 220.386 139.64 220.145 139.64C217.006 139.64 213.375 140.805 210.162 142.296L206.238 105.606H201.707H201.696Z" fill="#CBCBC5" stroke="#2C2C2C" stroke-width="1.5" stroke-miterlimit="10"/>
<path d="M206.939 144.091C207.619 143.702 209.116 142.779 211.972 141.519L206.939 144.091Z" fill="#CBCBC5"/>
<path d="M206.939 144.091C207.619 143.702 209.116 142.779 211.972 141.519" stroke="#2C2C2C" stroke-width="1.5" stroke-miterlimit="10" stroke-linecap="round"/>
<path d="M137.194 99.0768V145.917C137.194 148.479 135.122 150.557 132.569 150.557H116.516C108.103 150.557 107.37 137.845 115.763 137.204C116.024 137.183 116.286 137.173 116.558 137.173C120.074 137.173 124.145 138.474 127.734 140.144L132.119 99.0663H137.194V99.0768Z" fill="#CBCBC5" stroke="#2C2C2C" stroke-width="1.5" stroke-miterlimit="10"/>
<path d="M131.323 142.149C130.57 141.708 128.896 140.679 125.683 139.272L131.323 142.149Z" fill="#CBCBC5"/>
<path d="M131.323 142.149C130.57 141.708 128.896 140.679 125.683 139.272" stroke="#2C2C2C" stroke-width="1.5" stroke-miterlimit="10" stroke-linecap="round"/>
<path d="M140.637 99.0768V145.917C140.637 148.479 142.709 150.557 145.262 150.557H161.314C169.728 150.557 170.46 137.845 162.068 137.204C161.806 137.183 161.544 137.173 161.272 137.173C157.756 137.173 153.686 138.474 150.096 140.144L145.712 99.0663H140.637V99.0768Z" fill="#CBCBC5" stroke="#2C2C2C" stroke-width="1.5" stroke-miterlimit="10"/>
<path d="M146.497 142.149C147.25 141.708 148.924 140.679 152.137 139.272L146.497 142.149Z" fill="#CBCBC5"/>
<path d="M146.497 142.149C147.25 141.708 148.924 140.679 152.137 139.272" stroke="#2C2C2C" stroke-width="1.5" stroke-miterlimit="10" stroke-linecap="round"/>
<path d="M144.977 66.2822C148.984 53.9055 123.891 53.9055 127.899 66.2822C123.891 53.9055 103.59 68.7071 114.075 76.3599C103.579 68.7176 95.8254 92.6627 108.801 92.6627C95.8358 92.6627 103.59 116.608 114.075 108.966C103.579 116.608 123.891 131.41 127.899 119.043C123.891 131.42 148.984 131.42 144.977 119.043C148.984 131.42 169.285 116.618 158.8 108.966C169.296 116.608 177.05 92.6627 164.074 92.6627C177.039 92.6627 169.285 68.7176 158.8 76.3599C169.296 68.7176 148.984 53.916 144.977 66.2822Z" fill="#FEE888"/>
<path d="M147.909 65.3583C151.917 52.9816 126.824 52.9816 130.832 65.3583C126.824 52.9816 106.523 67.7833 117.008 75.4361C106.512 67.7938 98.7582 91.7389 111.734 91.7389C98.7687 91.7389 106.523 115.684 117.008 108.042C106.512 115.684 126.824 130.486 130.832 118.119C126.824 130.496 151.917 130.496 147.909 118.119C151.917 130.496 172.218 115.695 161.733 108.042C172.229 115.684 179.983 91.7389 167.007 91.7389C179.972 91.7389 172.218 67.7938 161.733 75.4361C172.229 67.7938 151.917 52.9921 147.909 65.3583Z" stroke="#2C2C2C" stroke-width="1.5" stroke-miterlimit="10"/>
<path d="M140.637 87.8758V88.1067C140.637 88.2432 140.637 88.3796 140.637 88.5161C140.637 88.7261 140.616 88.936 140.605 89.146C140.605 89.209 140.605 89.2719 140.595 89.3349C140.375 92.1168 139.402 94.1848 136.545 94.1848C133.427 94.1848 131.983 91.3505 131.983 87.8653C131.983 87.0569 132.035 86.2801 132.181 85.5663C133.5 85.7342 134.871 85.8497 136.273 85.9337C137.581 86.0177 138.92 86.0597 140.291 86.0597C140.365 86.0597 140.448 86.0597 140.532 86.0597C140.605 86.6265 140.647 87.2249 140.647 87.8548L140.637 87.8758Z" fill="#FBFBFB" stroke="#2C2C2C" stroke-width="1.5" stroke-miterlimit="10"/>
<path d="M132.815 86.733C133.789 86.7867 134.779 86.8176 135.786 86.8258C135.859 87.1275 135.906 87.4715 135.924 87.8551L135.931 88.1168V88.5162C135.931 88.7043 135.914 88.8463 135.901 89.109L135.9 89.1276V89.1461C135.9 89.1801 135.9 89.1963 135.899 89.2096V89.2115L135.896 89.2281L135.894 89.2448C135.818 89.8759 135.659 90.3092 135.441 90.5748C135.253 90.804 134.965 90.9781 134.421 90.9781C133.824 90.9781 133.42 90.7263 133.134 90.2916C132.824 89.8226 132.638 89.1098 132.638 88.233C132.638 87.6425 132.697 87.138 132.815 86.733Z" fill="#2C2C2C" stroke="#2C2C2C" stroke-width="1.5"/>
<path d="M149.301 87.8758C149.301 87.9912 149.301 88.1172 149.301 88.2327C149.249 91.5499 148.422 94.1848 145.199 94.1848C141.976 94.1848 140.637 91.3505 140.637 87.8653C140.637 87.2354 140.668 86.6475 140.752 86.0702C142.123 86.0702 143.462 86.0282 144.77 85.9547C146.204 85.8812 147.575 85.7552 148.904 85.5873C148.977 85.5873 149.04 85.5873 149.113 85.5663C149.228 86.1646 149.28 86.805 149.291 87.4873C149.291 87.6133 149.291 87.7393 149.291 87.8653L149.301 87.8758Z" fill="#FBFBFB" stroke="#2C2C2C" stroke-width="1.5" stroke-miterlimit="10"/>
<path d="M144.438 86.4122C144.502 86.6677 144.546 86.9584 144.571 87.2833L144.585 87.5304V88.4347C144.545 89.1666 144.418 89.7146 144.199 90.0724C143.999 90.3988 143.695 90.6212 143.075 90.6212C142.478 90.6212 142.074 90.3694 141.788 89.9347C141.478 89.4657 141.293 88.7529 141.292 87.8761C141.292 87.423 141.324 87.024 141.393 86.6808C142.438 86.6171 143.45 86.5265 144.438 86.4122Z" fill="#2C2C2C" stroke="#2C2C2C" stroke-width="1.5"/>
<path d="M141.913 94.6246C141.907 94.7422 141.89 94.8899 141.855 95.0524C141.814 95.2449 141.756 95.4327 141.695 95.5836C141.626 95.7565 141.581 95.8077 141.596 95.7916C141.321 96.0853 141.059 96.2451 140.767 96.274C140.473 96.3032 139.984 96.2148 139.228 95.6588C139.216 95.6499 139.206 95.6404 139.196 95.6324C139.216 95.6133 139.24 95.5894 139.27 95.5651C139.379 95.4781 139.526 95.3849 139.703 95.2906C140.058 95.1018 140.474 94.9398 140.813 94.8229C140.98 94.7653 141.124 94.7203 141.224 94.6901C141.275 94.675 141.314 94.6643 141.341 94.6569C141.342 94.6565 141.342 94.6552 141.344 94.6549C141.366 94.6513 141.402 94.6474 141.445 94.6422C141.534 94.6316 141.65 94.6208 141.768 94.6198C141.822 94.6193 141.87 94.6216 141.913 94.6246Z" fill="#2C2C2C" stroke="#2C2C2C" stroke-width="1.5"/>
<path d="M135.049 100.378C138.272 102.048 142.102 102.069 145.346 100.431L145.44 100.378" stroke="#2C2C2C" stroke-width="1.5" stroke-miterlimit="10" stroke-linecap="round"/>
<path d="M140.522 86.0806C140.448 86.0806 140.365 86.0806 140.281 86.0806C138.91 86.0806 137.571 86.0386 136.263 85.9547C134.86 85.8707 133.479 85.7552 132.171 85.5872C132.6 83.2463 133.845 81.5771 136.535 81.5771C139.036 81.5771 140.197 83.4772 140.522 86.0911V86.0806Z" stroke="#2C2C2C" stroke-width="1.5" stroke-miterlimit="10"/>
<path d="M149.113 85.5767C149.04 85.5872 148.977 85.5977 148.904 85.5977C147.575 85.7657 146.204 85.8812 144.77 85.9652C143.462 86.0386 142.123 86.0806 140.752 86.0806C141.097 83.4667 142.332 81.5667 145.199 81.5667C147.533 81.5667 148.705 83.2358 149.123 85.5767H149.113Z" stroke="#2C2C2C" stroke-width="1.5" stroke-miterlimit="10"/>
<path d="M225.641 131.311H170.651C168.474 131.311 166.748 129.107 167.03 126.598C169.029 108.773 182.204 95 198.151 95C214.099 95 227.274 108.773 229.262 126.598C229.545 129.096 227.828 131.311 225.641 131.311Z" fill="#A7E1B6"/>
<path d="M228.213 131.756H173.223C171.046 131.756 169.32 129.551 169.602 127.042C171.601 109.217 184.775 95.4443 200.723 95.4443C216.671 95.4443 229.846 109.217 231.834 127.042C232.116 129.541 230.4 131.756 228.213 131.756Z" stroke="#2C2C2C" stroke-width="1.5" stroke-miterlimit="10"/>
<path d="M200.713 112.493C200.713 115.611 200.022 118.13 197.04 118.13C194.256 118.13 192.969 115.611 192.969 112.493C192.969 109.375 193.911 106.856 197.04 106.856C199.76 106.856 200.713 109.375 200.713 112.493Z" fill="#FBFBFB" stroke="#2C2C2C" stroke-width="1.5" stroke-miterlimit="10"/>
<path d="M195.648 112.225C196.113 112.225 196.38 112.412 196.575 112.758C196.802 113.159 196.928 113.79 196.928 114.603C196.928 115.437 196.829 116.063 196.617 116.46C196.519 116.643 196.406 116.762 196.275 116.84C196.144 116.918 195.95 116.981 195.648 116.981C195.14 116.981 194.804 116.771 194.563 116.405C194.3 116.004 194.138 115.382 194.138 114.603C194.138 113.787 194.265 113.172 194.505 112.782C194.707 112.454 195.022 112.225 195.648 112.225Z" fill="#2C2C2C" stroke="#2C2C2C" stroke-width="1.5"/>
<path d="M208.456 112.493C208.456 115.611 207.766 118.13 204.783 118.13C202 118.13 200.713 115.611 200.713 112.493C200.713 109.375 201.654 106.856 204.783 106.856C207.504 106.856 208.456 109.375 208.456 112.493Z" fill="#FBFBFB" stroke="#2C2C2C" stroke-width="1.5" stroke-miterlimit="10"/>
<path d="M203.392 111.91C203.857 111.91 204.123 112.097 204.319 112.443C204.545 112.844 204.671 113.475 204.671 114.288C204.671 115.122 204.572 115.748 204.361 116.145C204.263 116.329 204.149 116.447 204.019 116.525C203.888 116.603 203.693 116.666 203.392 116.667C202.884 116.667 202.547 116.456 202.307 116.09C202.043 115.689 201.881 115.067 201.881 114.288C201.881 113.472 202.009 112.857 202.248 112.467C202.451 112.139 202.766 111.91 203.392 111.91Z" fill="#2C2C2C" stroke="#2C2C2C" stroke-width="1.5"/>
<mask id="path-60-inside-1_40000111_229" fill="white">
<path d="M200.734 117.889C200.734 117.889 199.98 117.962 199.98 118.644C199.98 119.327 200.514 119.432 200.765 119.432C201.016 119.432 201.456 118.98 201.456 118.56C201.456 118.14 201.027 117.889 200.734 117.889Z"/>
</mask>
<path d="M200.734 117.889C200.734 117.889 199.98 117.962 199.98 118.644C199.98 119.327 200.514 119.432 200.765 119.432C201.016 119.432 201.456 118.98 201.456 118.56C201.456 118.14 201.027 117.889 200.734 117.889Z" fill="#2C2C2C"/>
<path d="M200.734 117.889V116.389H200.661L200.588 116.396L200.734 117.889ZM200.734 117.889C200.588 116.396 200.587 116.396 200.587 116.396C200.586 116.396 200.586 116.396 200.585 116.396C200.584 116.396 200.583 116.396 200.583 116.396C200.581 116.396 200.579 116.397 200.577 116.397C200.573 116.397 200.569 116.398 200.564 116.398C200.555 116.399 200.546 116.4 200.535 116.402C200.514 116.404 200.489 116.408 200.461 116.412C200.405 116.421 200.335 116.435 200.254 116.455C200.099 116.494 199.874 116.564 199.634 116.696C199.112 116.983 198.48 117.608 198.48 118.644H199.98H201.48C201.48 118.769 201.44 118.934 201.334 119.088C201.239 119.226 201.133 119.296 201.08 119.325C201.028 119.353 200.992 119.363 200.978 119.366C200.967 119.369 200.956 119.371 200.941 119.374C200.934 119.375 200.925 119.376 200.915 119.377C200.91 119.378 200.904 119.379 200.899 119.379C200.896 119.38 200.892 119.38 200.889 119.38C200.888 119.381 200.886 119.381 200.884 119.381C200.883 119.381 200.883 119.381 200.882 119.381C200.881 119.381 200.881 119.381 200.88 119.381C200.88 119.381 200.879 119.381 200.734 117.889ZM199.98 118.644H198.48C198.48 119.446 198.83 120.125 199.438 120.536C199.947 120.881 200.482 120.932 200.765 120.932V119.432V117.932C200.8 117.932 200.839 117.935 200.887 117.946C200.934 117.957 201.02 117.985 201.119 118.052C201.227 118.124 201.332 118.233 201.404 118.374C201.474 118.511 201.48 118.617 201.48 118.644H199.98ZM200.765 119.432V120.932C201.235 120.932 201.597 120.74 201.786 120.619C202.006 120.479 202.193 120.305 202.345 120.128C202.62 119.806 202.956 119.254 202.956 118.56H201.456H199.956C199.956 118.408 199.994 118.306 200.013 118.264C200.033 118.219 200.052 118.193 200.064 118.179C200.074 118.167 200.105 118.133 200.171 118.09C200.206 118.068 200.266 118.034 200.352 118.002C200.435 117.972 200.578 117.932 200.765 117.932V119.432ZM201.456 118.56H202.956C202.956 117.792 202.552 117.225 202.143 116.897C201.762 116.591 201.256 116.389 200.734 116.389V117.889V119.389C200.602 119.389 200.506 119.362 200.449 119.341C200.387 119.318 200.326 119.285 200.266 119.237C200.144 119.14 199.956 118.909 199.956 118.56H201.456Z" fill="#2C2C2C" mask="url(#path-60-inside-1_40000111_229)"/>
<path d="M191.713 105.974C191.713 105.974 192.781 102.929 195.993 103.916" stroke="#2C2C2C" stroke-width="1.5" stroke-miterlimit="10" stroke-linecap="round"/>
<path d="M297 80.8668C297 91.9853 286.25 101 273 101C259.75 101 249 91.9853 249 80.8668C249 77.4584 250.009 74.2497 251.781 71.4407C254.352 67.3859 254.528 62.3673 252.544 57.9833C251.629 55.9618 251.124 53.764 251.124 51.4603C251.124 48.6866 251.852 46.0656 253.166 43.7032C255.713 39.1312 256.218 33.6543 253.906 28.9647C252.896 26.9197 252.345 24.6866 252.345 22.3477C252.345 12.7689 261.593 5 273 5C284.407 5 293.667 12.7689 293.667 22.3477C293.667 24.6983 293.115 26.9314 292.106 28.9765C289.794 33.666 290.299 39.1547 292.834 43.7267C294.136 46.0774 294.864 48.6983 294.864 51.4603C294.864 53.7522 294.359 55.95 293.444 57.9833C291.461 62.3555 291.637 67.3741 294.207 71.4407C295.979 74.2497 296.988 77.4584 296.988 80.8668H297Z" fill="#93D1E0"/>
<path d="M293 80.0765C293 91.0792 282.026 100 268.5 100C254.974 100 244 91.0792 244 80.0765C244 76.7036 245.03 73.5284 246.839 70.7487C249.463 66.736 249.643 61.7697 247.618 57.4314C246.684 55.4309 246.168 53.256 246.168 50.9764C246.168 48.2315 246.911 45.6378 248.253 43.3001C250.853 38.7757 251.368 33.3558 249.008 28.7151C247.978 26.6914 247.414 24.4815 247.414 22.167C247.414 12.6879 256.855 5 268.5 5C280.145 5 289.598 12.6879 289.598 22.167C289.598 24.4931 289.034 26.703 288.004 28.7267C285.644 33.3674 286.159 38.799 288.747 43.3233C290.077 45.6495 290.82 48.2431 290.82 50.9764C290.82 53.2444 290.304 55.4193 289.37 57.4314C287.345 61.7581 287.525 66.7244 290.149 70.7487C291.958 73.5284 292.988 76.7036 292.988 80.0765H293Z" stroke="#2C2C2C" stroke-width="1.5" stroke-miterlimit="10"/>
<path d="M268.138 21.001C268.138 24.2116 267.42 26.8084 264.349 26.8084C261.478 26.8084 260.149 24.2116 260.149 21.001C260.149 17.7903 261.125 15.1935 264.349 15.1935C267.161 15.1935 268.138 17.7903 268.138 21.001Z" fill="#FBFBFB" stroke="#2C2C2C" stroke-width="1.5" stroke-miterlimit="10"/>
<path d="M266.044 18.8472C266.531 18.8473 266.815 19.0452 267.02 19.4087C267.257 19.8276 267.387 20.4823 267.387 21.3198C267.387 22.1847 267.285 22.8335 267.064 23.2456C266.962 23.4365 266.842 23.5612 266.704 23.6431C266.564 23.7256 266.359 23.7924 266.044 23.7925C265.517 23.7925 265.162 23.5719 264.909 23.187C264.633 22.7676 264.464 22.1225 264.464 21.3198C264.464 20.4797 264.596 19.8403 264.846 19.4331C265.06 19.0867 265.392 18.8472 266.044 18.8472Z" fill="#2C2C2C" stroke="#2C2C2C" stroke-width="1.5"/>
<path d="M276.127 21.001C276.127 21.1072 276.127 21.2252 276.127 21.3315C276.104 22.8306 275.904 24.1762 275.362 25.1559C274.28 25.2739 273.362 25.8996 272.821 26.7848C272.668 26.8084 272.515 26.8084 272.338 26.8084C269.456 26.8084 268.138 24.2116 268.138 21.001C268.138 17.7903 269.114 15.1935 272.338 15.1935C275.045 15.1935 276.045 17.6015 276.115 20.6587C276.115 20.7767 276.115 20.8947 276.115 21.0128L276.127 21.001Z" fill="#FBFBFB" stroke="#2C2C2C" stroke-width="1.5" stroke-miterlimit="10"/>
<path d="M274.033 18.5286C274.521 18.5287 274.804 18.7266 275.01 19.0901C275.247 19.509 275.377 20.1637 275.377 21.0012C275.377 21.8661 275.274 22.5149 275.054 22.927C274.952 23.1179 274.832 23.2426 274.693 23.3245C274.554 23.407 274.348 23.4738 274.033 23.4739C273.506 23.4739 273.152 23.2533 272.898 22.8684C272.622 22.449 272.453 21.8039 272.453 21.0012C272.453 20.1611 272.585 19.5217 272.836 19.1145C273.049 18.7681 273.382 18.5286 274.033 18.5286Z" fill="#2C2C2C" stroke="#2C2C2C" stroke-width="1.5"/>
<path d="M268.331 27.0095C268.729 27.0814 268.919 27.2859 269.014 27.4861C269.107 27.68 269.109 27.8604 269.094 27.9617C269.076 27.9691 269.054 27.9788 269.027 27.9871C268.881 28.0314 268.676 28.0554 268.465 28.0339C268.018 27.9883 267.834 27.8025 267.794 27.5759C267.757 27.3645 267.797 27.2758 267.813 27.2468C267.834 27.2091 267.876 27.1632 267.964 27.1169C268.055 27.0695 268.163 27.0383 268.26 27.0203C268.287 27.0153 268.311 27.0121 268.331 27.0095ZM268.386 27.0037H268.385L268.384 27.0027C268.385 27.0026 268.386 27.0027 268.387 27.0027L268.386 27.0037Z" fill="#2C2C2C" stroke="#2C2C2C" stroke-width="1.5"/>
<path d="M273.621 28.3429C273.621 28.3429 271.691 32.8638 266.079 30.3023" stroke="#2C2C2C" stroke-width="1.5" stroke-miterlimit="10" stroke-linecap="round"/>
<path d="M275.362 25.1559C275.48 25.1323 275.61 25.1323 275.739 25.1323C276.998 25.1323 278.116 25.8287 278.704 26.8439" stroke="#2C2C2C" stroke-width="1.5" stroke-miterlimit="10" stroke-linecap="round"/>
<path d="M272.82 26.7848L272.786 26.8423" stroke="#2C2C2C" stroke-width="1.5" stroke-miterlimit="10" stroke-linecap="round"/>
</g>
<defs>
<filter id="filter0_g_40000111_229" x="0.2" y="-0.8" width="330.6" height="159.6" filterUnits="userSpaceOnUse" color-interpolation-filters="sRGB">
<feFlood flood-opacity="0" result="BackgroundImageFix"/>
<feBlend mode="normal" in="SourceGraphic" in2="BackgroundImageFix" result="shape"/>
<feTurbulence type="fractalNoise" baseFrequency="0.66666668653488159 0.66666668653488159" numOctaves="3" seed="3423" />
<feDisplacementMap in="shape" scale="1.6000000238418579" xChannelSelector="R" yChannelSelector="G" result="displacedImage" width="100%" height="100%" />
<feMerge result="effect1_texture_40000111_229">
<feMergeNode in="displacedImage"/>
</feMerge>
</filter>
<clipPath id="clip0_40000111_229">
<rect width="329" height="158" fill="white" transform="translate(1)"/>
</clipPath>
</defs>
</svg>
