<svg width="46" height="98" viewBox="0 0 46 98" fill="none" xmlns="http://www.w3.org/2000/svg">
<rect x="10.8652" y="27.083" width="24.7539" height="70.4085" fill="#EEEDEB" stroke="#9C9C9C"/>
<path d="M44.6786 38.7504C44.6786 39.9354 44.6021 41.0949 44.4533 42.2206C43.9728 45.8939 41.8722 49.1567 38.7128 51.1161C34.6349 53.6511 29.2984 55.2423 23.4219 55.3862C23.1242 55.3946 22.8266 55.3988 22.5246 55.3988H22.2653C16.7714 55.3565 11.7113 54.0573 7.68021 51.8906C4.23593 50.0412 1.90572 46.6768 1.31041 42.83C1.10631 41.5139 1 40.147 1 38.7504C1 35.2252 1.68035 31.9159 2.87522 29.0508C5.37552 23.05 10.121 19 15.5638 19C17.456 19 19.2632 19.4867 20.9258 20.3796C22.1292 21.0229 23.5537 21.0229 24.7528 20.3796C26.4112 19.4909 28.2183 19 30.1063 19C35.8766 19 40.8644 23.5493 43.2201 30.1427C44.1513 32.7453 44.6744 35.6653 44.6744 38.7504H44.6786Z" fill="#EEEDEB" stroke="#9C9C9C" stroke-miterlimit="10"/>
<path d="M22.5393 37.0405C22.5393 39.2458 22.0694 41.0331 20.0545 41.0331C18.1666 41.0331 17.2988 39.2458 17.2988 37.0405C17.2988 34.8352 17.9422 33.0479 20.0545 33.0479C21.8958 33.0479 22.5393 34.8352 22.5393 37.0405Z" fill="#FBFBFB" stroke="#2C2C2C" stroke-miterlimit="10"/>
<path d="M27.7756 37.0405C27.7756 39.2458 27.3057 41.0331 25.2908 41.0331C23.4029 41.0331 22.5352 39.2458 22.5352 37.0405C22.5352 34.8352 23.1786 33.0479 25.2908 33.0479C27.1322 33.0479 27.7756 34.8352 27.7756 37.0405Z" fill="#FBFBFB" stroke="#2C2C2C" stroke-miterlimit="10"/>
<path d="M22.5396 37.1517C22.5396 38.3744 22.2814 39.3659 21.1638 39.3659C20.1183 39.3659 19.6357 38.3744 19.6357 37.1517C19.6357 35.929 19.9913 34.9375 21.1638 34.9375C22.184 34.9375 22.5396 35.929 22.5396 37.1517Z" fill="#2C2C2C"/>
<path d="M27.7759 37.1517C27.7759 38.3744 27.5177 39.3659 26.4002 39.3659C25.3546 39.3659 24.8721 38.3744 24.8721 37.1517C24.8721 35.929 25.2276 34.9375 26.4002 34.9375C27.4203 34.9375 27.7759 35.929 27.7759 37.1517Z" fill="#2C2C2C"/>
<path d="M22.8905 41.1666C22.8905 41.1666 20.7528 41.2822 21.0237 42.5315C21.2946 43.7809 24.2789 43.523 24.7022 42.9895C25.1255 42.4559 24.8292 41.2688 22.8905 41.1621V41.1666Z" fill="#2C2C2C"/>
<path d="M12.9727 40.6022C13.12 40.6022 13.2394 40.4768 13.2394 40.3221C13.2394 40.1674 13.12 40.042 12.9727 40.042C12.8255 40.042 12.7061 40.1674 12.7061 40.3221C12.7061 40.4768 12.8255 40.6022 12.9727 40.6022Z" fill="#2C2C2C"/>
<path d="M14.6319 40.6022C14.7792 40.6022 14.8986 40.4768 14.8986 40.3221C14.8986 40.1674 14.7792 40.042 14.6319 40.042C14.4846 40.042 14.3652 40.1674 14.3652 40.3221C14.3652 40.4768 14.4846 40.6022 14.6319 40.6022Z" fill="#2C2C2C"/>
<path d="M13.8028 41.4694C13.9501 41.4694 14.0695 41.344 14.0695 41.1893C14.0695 41.0346 13.9501 40.9092 13.8028 40.9092C13.6555 40.9092 13.5361 41.0346 13.5361 41.1893C13.5361 41.344 13.6555 41.4694 13.8028 41.4694Z" fill="#2C2C2C"/>
<path d="M28.6983 40.6022C28.8456 40.6022 28.965 40.4768 28.965 40.3221C28.965 40.1674 28.8456 40.042 28.6983 40.042C28.551 40.042 28.4316 40.1674 28.4316 40.3221C28.4316 40.4768 28.551 40.6022 28.6983 40.6022Z" fill="#2C2C2C"/>
<path d="M30.3614 40.6022C30.5087 40.6022 30.6281 40.4768 30.6281 40.3221C30.6281 40.1674 30.5087 40.042 30.3614 40.042C30.2141 40.042 30.0947 40.1674 30.0947 40.3221C30.0947 40.4768 30.2141 40.6022 30.3614 40.6022Z" fill="#2C2C2C"/>
<path d="M29.5323 41.4694C29.6796 41.4694 29.799 41.344 29.799 41.1893C29.799 41.0346 29.6796 40.9092 29.5323 40.9092C29.385 40.9092 29.2656 41.0346 29.2656 41.1893C29.2656 41.344 29.385 41.4694 29.5323 41.4694Z" fill="#2C2C2C"/>
</svg>
