<svg width="46" height="98" viewBox="0 0 46 98" fill="none" xmlns="http://www.w3.org/2000/svg">
<rect x="10.5" y="46.5" width="25" height="51" fill="#EEEDEB" stroke="#9C9C9C"/>
<path d="M44.6786 57.7504C44.6786 58.9354 44.6021 60.0949 44.4533 61.2206C43.9728 64.8939 41.8722 68.1567 38.7128 70.1161C34.6349 72.6511 29.2984 74.2423 23.4219 74.3862C23.1242 74.3946 22.8266 74.3988 22.5246 74.3988H22.2653C16.7714 74.3565 11.7113 73.0573 7.68021 70.8906C4.23593 69.0412 1.90572 65.6768 1.31041 61.83C1.10631 60.5139 1 59.147 1 57.7504C1 54.2252 1.68035 50.9159 2.87522 48.0508C5.37552 42.05 10.121 38 15.5638 38C17.456 38 19.2632 38.4867 20.9258 39.3796C22.1292 40.0229 23.5537 40.0229 24.7528 39.3796C26.4112 38.4909 28.2183 38 30.1063 38C35.8766 38 40.8644 42.5493 43.2201 49.1427C44.1513 51.7453 44.6744 54.6653 44.6744 57.7504H44.6786Z" fill="#EEEDEB" stroke="#9C9C9C" stroke-miterlimit="10"/>
<path d="M22.5393 56.0405C22.5393 58.2458 22.0694 60.0331 20.0545 60.0331C18.1666 60.0331 17.2988 58.2458 17.2988 56.0405C17.2988 53.8352 17.9422 52.0479 20.0545 52.0479C21.8958 52.0479 22.5393 53.8352 22.5393 56.0405Z" fill="#FBFBFB" stroke="#2C2C2C" stroke-miterlimit="10"/>
<path d="M27.7756 56.0405C27.7756 58.2458 27.3057 60.0331 25.2908 60.0331C23.4029 60.0331 22.5352 58.2458 22.5352 56.0405C22.5352 53.8352 23.1786 52.0479 25.2908 52.0479C27.1322 52.0479 27.7756 53.8352 27.7756 56.0405Z" fill="#FBFBFB" stroke="#2C2C2C" stroke-miterlimit="10"/>
<path d="M22.5396 56.1517C22.5396 57.3744 22.2814 58.3659 21.1638 58.3659C20.1183 58.3659 19.6357 57.3744 19.6357 56.1517C19.6357 54.929 19.9913 53.9375 21.1638 53.9375C22.184 53.9375 22.5396 54.929 22.5396 56.1517Z" fill="#2C2C2C"/>
<path d="M27.7759 56.1517C27.7759 57.3744 27.5177 58.3659 26.4002 58.3659C25.3546 58.3659 24.8721 57.3744 24.8721 56.1517C24.8721 54.929 25.2276 53.9375 26.4002 53.9375C27.4203 53.9375 27.7759 54.929 27.7759 56.1517Z" fill="#2C2C2C"/>
<path d="M22.8905 60.1666C22.8905 60.1666 20.7528 60.2822 21.0237 61.5315C21.2946 62.7809 24.2789 62.523 24.7022 61.9895C25.1255 61.4559 24.8292 60.2688 22.8905 60.1621V60.1666Z" fill="#2C2C2C"/>
<path d="M12.9727 59.6022C13.12 59.6022 13.2394 59.4768 13.2394 59.3221C13.2394 59.1674 13.12 59.042 12.9727 59.042C12.8255 59.042 12.7061 59.1674 12.7061 59.3221C12.7061 59.4768 12.8255 59.6022 12.9727 59.6022Z" fill="#2C2C2C"/>
<path d="M14.6319 59.6022C14.7792 59.6022 14.8986 59.4768 14.8986 59.3221C14.8986 59.1674 14.7792 59.042 14.6319 59.042C14.4846 59.042 14.3652 59.1674 14.3652 59.3221C14.3652 59.4768 14.4846 59.6022 14.6319 59.6022Z" fill="#2C2C2C"/>
<path d="M13.8028 60.4694C13.9501 60.4694 14.0695 60.344 14.0695 60.1893C14.0695 60.0346 13.9501 59.9092 13.8028 59.9092C13.6555 59.9092 13.5361 60.0346 13.5361 60.1893C13.5361 60.344 13.6555 60.4694 13.8028 60.4694Z" fill="#2C2C2C"/>
<path d="M28.6983 59.6022C28.8456 59.6022 28.965 59.4768 28.965 59.3221C28.965 59.1674 28.8456 59.042 28.6983 59.042C28.551 59.042 28.4316 59.1674 28.4316 59.3221C28.4316 59.4768 28.551 59.6022 28.6983 59.6022Z" fill="#2C2C2C"/>
<path d="M30.3614 59.6022C30.5087 59.6022 30.6281 59.4768 30.6281 59.3221C30.6281 59.1674 30.5087 59.042 30.3614 59.042C30.2141 59.042 30.0947 59.1674 30.0947 59.3221C30.0947 59.4768 30.2141 59.6022 30.3614 59.6022Z" fill="#2C2C2C"/>
<path d="M29.5323 60.4694C29.6796 60.4694 29.799 60.344 29.799 60.1893C29.799 60.0346 29.6796 59.9092 29.5323 59.9092C29.385 59.9092 29.2656 60.0346 29.2656 60.1893C29.2656 60.344 29.385 60.4694 29.5323 60.4694Z" fill="#2C2C2C"/>
</svg>
