<svg width="46" height="98" viewBox="0 0 46 98" fill="none" xmlns="http://www.w3.org/2000/svg">
<path d="M44.6786 80.7504C44.6786 81.9354 44.6021 83.0949 44.4533 84.2206C43.9728 87.8939 41.8722 91.1567 38.7128 93.1161C34.6349 95.6511 29.2984 97.2423 23.4219 97.3862C23.1242 97.3946 22.8266 97.3988 22.5246 97.3988H22.2653C16.7714 97.3565 11.7113 96.0573 7.68021 93.8906C4.23593 92.0412 1.90572 88.6768 1.31041 84.83C1.10631 83.5139 1 82.147 1 80.7504C1 77.2252 1.68035 73.9159 2.87522 71.0508C5.37552 65.05 10.121 61 15.5638 61C17.456 61 19.2632 61.4867 20.9258 62.3796C22.1292 63.0229 23.5537 63.0229 24.7528 62.3796C26.4112 61.4909 28.2183 61 30.1063 61C35.8766 61 40.8644 65.5493 43.2201 72.1427C44.1513 74.7453 44.6744 77.6653 44.6744 80.7504H44.6786Z" fill="#EEEDEB" stroke="#9C9C9C" stroke-miterlimit="10"/>
<path d="M22.5393 79.0405C22.5393 81.2458 22.0694 83.0331 20.0545 83.0331C18.1666 83.0331 17.2988 81.2458 17.2988 79.0405C17.2988 76.8352 17.9422 75.0479 20.0545 75.0479C21.8958 75.0479 22.5393 76.8352 22.5393 79.0405Z" fill="#FBFBFB" stroke="#2C2C2C" stroke-miterlimit="10"/>
<path d="M27.7756 79.0405C27.7756 81.2458 27.3057 83.0331 25.2908 83.0331C23.4029 83.0331 22.5352 81.2458 22.5352 79.0405C22.5352 76.8352 23.1786 75.0479 25.2908 75.0479C27.1322 75.0479 27.7756 76.8352 27.7756 79.0405Z" fill="#FBFBFB" stroke="#2C2C2C" stroke-miterlimit="10"/>
<path d="M22.5396 79.1517C22.5396 80.3744 22.2814 81.3659 21.1638 81.3659C20.1183 81.3659 19.6357 80.3744 19.6357 79.1517C19.6357 77.929 19.9913 76.9375 21.1638 76.9375C22.184 76.9375 22.5396 77.929 22.5396 79.1517Z" fill="#2C2C2C"/>
<path d="M27.7759 79.1517C27.7759 80.3744 27.5177 81.3659 26.4002 81.3659C25.3546 81.3659 24.8721 80.3744 24.8721 79.1517C24.8721 77.929 25.2276 76.9375 26.4002 76.9375C27.4203 76.9375 27.7759 77.929 27.7759 79.1517Z" fill="#2C2C2C"/>
<path d="M22.8905 83.1666C22.8905 83.1666 20.7528 83.2822 21.0237 84.5315C21.2946 85.7809 24.2789 85.523 24.7022 84.9895C25.1255 84.4559 24.8292 83.2688 22.8905 83.1621V83.1666Z" fill="#2C2C2C"/>
<path d="M12.9727 82.6022C13.12 82.6022 13.2394 82.4768 13.2394 82.3221C13.2394 82.1674 13.12 82.042 12.9727 82.042C12.8255 82.042 12.7061 82.1674 12.7061 82.3221C12.7061 82.4768 12.8255 82.6022 12.9727 82.6022Z" fill="#2C2C2C"/>
<path d="M14.6319 82.6022C14.7792 82.6022 14.8986 82.4768 14.8986 82.3221C14.8986 82.1674 14.7792 82.042 14.6319 82.042C14.4846 82.042 14.3652 82.1674 14.3652 82.3221C14.3652 82.4768 14.4846 82.6022 14.6319 82.6022Z" fill="#2C2C2C"/>
<path d="M13.8028 83.4694C13.9501 83.4694 14.0695 83.344 14.0695 83.1893C14.0695 83.0346 13.9501 82.9092 13.8028 82.9092C13.6555 82.9092 13.5361 83.0346 13.5361 83.1893C13.5361 83.344 13.6555 83.4694 13.8028 83.4694Z" fill="#2C2C2C"/>
<path d="M28.6983 82.6022C28.8456 82.6022 28.965 82.4768 28.965 82.3221C28.965 82.1674 28.8456 82.042 28.6983 82.042C28.551 82.042 28.4316 82.1674 28.4316 82.3221C28.4316 82.4768 28.551 82.6022 28.6983 82.6022Z" fill="#2C2C2C"/>
<path d="M30.3614 82.6022C30.5087 82.6022 30.6281 82.4768 30.6281 82.3221C30.6281 82.1674 30.5087 82.042 30.3614 82.042C30.2141 82.042 30.0947 82.1674 30.0947 82.3221C30.0947 82.4768 30.2141 82.6022 30.3614 82.6022Z" fill="#2C2C2C"/>
<path d="M29.5323 83.4694C29.6796 83.4694 29.799 83.344 29.799 83.1893C29.799 83.0346 29.6796 82.9092 29.5323 82.9092C29.385 82.9092 29.2656 83.0346 29.2656 83.1893C29.2656 83.344 29.385 83.4694 29.5323 83.4694Z" fill="#2C2C2C"/>
</svg>
