<svg width="46" height="38" viewBox="0 0 46 38" fill="none" xmlns="http://www.w3.org/2000/svg">
<path d="M44.6786 20.7504C44.6786 21.9354 44.6021 23.0949 44.4533 24.2206C43.9728 27.8939 41.8722 31.1567 38.7128 33.1161C34.6349 35.6511 29.2984 37.2423 23.4219 37.3862C23.1242 37.3946 22.8266 37.3988 22.5246 37.3988H22.2653C16.7714 37.3565 11.7113 36.0573 7.68021 33.8906C4.23593 32.0412 1.90572 28.6768 1.31041 24.83C1.10631 23.5139 1 22.147 1 20.7504C1 17.2252 1.68035 13.9159 2.87522 11.0508C5.37552 5.04996 10.121 1 15.5638 1C17.456 1 19.2632 1.48667 20.9258 2.37961C22.1292 3.02286 23.5537 3.02286 24.7528 2.37961C26.4112 1.4909 28.2183 1 30.1063 1C35.8766 1 40.8644 5.54933 43.2201 12.1427C44.1513 14.7453 44.6744 17.6653 44.6744 20.7504H44.6786Z" fill="#EEEDEB" stroke="#9C9C9C" stroke-miterlimit="10"/>
<path d="M22.5393 19.0405C22.5393 21.2458 22.0694 23.0331 20.0545 23.0331C18.1666 23.0331 17.2988 21.2458 17.2988 19.0405C17.2988 16.8352 17.9422 15.0479 20.0545 15.0479C21.8958 15.0479 22.5393 16.8352 22.5393 19.0405Z" fill="#FBFBFB" stroke="#2C2C2C" stroke-miterlimit="10"/>
<path d="M27.7756 19.0405C27.7756 21.2458 27.3057 23.0331 25.2908 23.0331C23.4029 23.0331 22.5352 21.2458 22.5352 19.0405C22.5352 16.8352 23.1786 15.0479 25.2908 15.0479C27.1322 15.0479 27.7756 16.8352 27.7756 19.0405Z" fill="#FBFBFB" stroke="#2C2C2C" stroke-miterlimit="10"/>
<path d="M22.5396 19.1517C22.5396 20.3744 22.2814 21.3659 21.1638 21.3659C20.1183 21.3659 19.6357 20.3744 19.6357 19.1517C19.6357 17.929 19.9913 16.9375 21.1638 16.9375C22.184 16.9375 22.5396 17.929 22.5396 19.1517Z" fill="#2C2C2C"/>
<path d="M27.7759 19.1517C27.7759 20.3744 27.5177 21.3659 26.4002 21.3659C25.3546 21.3659 24.8721 20.3744 24.8721 19.1517C24.8721 17.929 25.2276 16.9375 26.4002 16.9375C27.4203 16.9375 27.7759 17.929 27.7759 19.1517Z" fill="#2C2C2C"/>
<path d="M22.8905 23.1666C22.8905 23.1666 20.7528 23.2822 21.0237 24.5315C21.2946 25.7809 24.2789 25.523 24.7022 24.9895C25.1255 24.4559 24.8292 23.2688 22.8905 23.1621V23.1666Z" fill="#2C2C2C"/>
<path d="M12.9727 22.6022C13.12 22.6022 13.2394 22.4768 13.2394 22.3221C13.2394 22.1674 13.12 22.042 12.9727 22.042C12.8255 22.042 12.7061 22.1674 12.7061 22.3221C12.7061 22.4768 12.8255 22.6022 12.9727 22.6022Z" fill="#2C2C2C"/>
<path d="M14.6319 22.6022C14.7792 22.6022 14.8986 22.4768 14.8986 22.3221C14.8986 22.1674 14.7792 22.042 14.6319 22.042C14.4846 22.042 14.3652 22.1674 14.3652 22.3221C14.3652 22.4768 14.4846 22.6022 14.6319 22.6022Z" fill="#2C2C2C"/>
<path d="M13.8028 23.4694C13.9501 23.4694 14.0695 23.344 14.0695 23.1893C14.0695 23.0346 13.9501 22.9092 13.8028 22.9092C13.6555 22.9092 13.5361 23.0346 13.5361 23.1893C13.5361 23.344 13.6555 23.4694 13.8028 23.4694Z" fill="#2C2C2C"/>
<path d="M28.6983 22.6022C28.8456 22.6022 28.965 22.4768 28.965 22.3221C28.965 22.1674 28.8456 22.042 28.6983 22.042C28.551 22.042 28.4316 22.1674 28.4316 22.3221C28.4316 22.4768 28.551 22.6022 28.6983 22.6022Z" fill="#2C2C2C"/>
<path d="M30.3614 22.6022C30.5087 22.6022 30.6281 22.4768 30.6281 22.3221C30.6281 22.1674 30.5087 22.042 30.3614 22.042C30.2141 22.042 30.0947 22.1674 30.0947 22.3221C30.0947 22.4768 30.2141 22.6022 30.3614 22.6022Z" fill="#2C2C2C"/>
<path d="M29.5323 23.4694C29.6796 23.4694 29.799 23.344 29.799 23.1893C29.799 23.0346 29.6796 22.9092 29.5323 22.9092C29.385 22.9092 29.2656 23.0346 29.2656 23.1893C29.2656 23.344 29.385 23.4694 29.5323 23.4694Z" fill="#2C2C2C"/>
</svg>
