<svg width="143" height="85" viewBox="0 0 143 85" fill="none" xmlns="http://www.w3.org/2000/svg">
<path d="M133.747 83.523H9.2646C4.32269 83.523 0.442794 78.5026 1.06584 72.8119C5.58295 32.292 35.4043 1 71.4987 1C107.593 1 137.414 32.292 141.932 72.8119C142.569 78.5026 138.675 83.523 133.733 83.523H133.747Z" fill="#EEEDEB" stroke="#2C2C2C" stroke-miterlimit="10"/>
<path d="M89.0147 39.7514C89.0147 46.8256 87.4429 52.5591 80.7027 52.5591C74.3872 52.5591 71.4844 46.8256 71.4844 39.7514C71.4844 32.6771 73.6226 26.9436 80.7027 26.9436C86.8624 26.9436 89.0147 32.6771 89.0147 39.7514Z" fill="#FBFBFB" stroke="#2C2C2C" stroke-miterlimit="10"/>
<path d="M71.4986 39.7514C71.4986 46.8256 69.9268 52.5591 63.1866 52.5591C56.8711 52.5591 53.9683 46.8256 53.9683 39.7514C53.9683 32.6771 56.1064 26.9436 63.1866 26.9436C69.3462 26.9436 71.4986 32.6771 71.4986 39.7514Z" fill="#FBFBFB" stroke="#2C2C2C" stroke-miterlimit="10"/>
<path d="M71.4986 44.2583C71.4986 48.1805 70.6348 51.361 66.8965 51.361C63.3989 51.361 61.7847 48.1805 61.7847 44.2583C61.7847 40.3361 62.9741 37.1555 66.8965 37.1555C70.3091 37.1555 71.4986 40.3361 71.4986 44.2583Z" fill="#2C2C2C"/>
<path d="M89.0147 44.2583C89.0147 48.1805 88.1509 51.361 84.4126 51.361C80.9151 51.361 79.3008 48.1805 79.3008 44.2583C79.3008 40.3361 80.4902 37.1555 84.4126 37.1555C87.8252 37.1555 89.0147 40.3361 89.0147 44.2583Z" fill="#2C2C2C"/>
<path d="M71.542 52.5173C71.7378 52.5175 72.0361 52.6135 72.2852 52.8152C72.5257 53.0101 72.6698 53.26 72.6699 53.5427C72.6699 53.8526 72.4973 54.2381 72.2217 54.5652C72.0887 54.7229 71.9474 54.848 71.8223 54.9294C71.7601 54.9699 71.7071 54.9955 71.667 55.0105C71.6332 55.0231 71.6155 55.0248 71.6123 55.0251C71.3793 55.0251 71.0466 54.9756 70.7871 54.8005C70.5611 54.6479 70.3281 54.3603 70.3281 53.7283C70.3282 53.1737 70.611 52.8885 70.9258 52.7156C71.0906 52.625 71.2607 52.5701 71.3926 52.5378C71.4305 52.5286 71.4646 52.5228 71.4932 52.5173H71.542Z" fill="#A7E1B6" stroke="#2C2C2C"/>
<path d="M51.1084 24.9182C51.1084 24.9182 53.5298 18.0152 60.794 20.2401" stroke="#2C2C2C" stroke-miterlimit="10" stroke-linecap="round"/>
<path d="M66.1387 61.5023C66.1387 61.5023 70.1885 57.0524 71.8736 59.0777L73.5586 61.0887" stroke="black" stroke-miterlimit="10" stroke-linecap="round"/>
<path d="M91.627 65.0929C91.627 68.6345 89.7208 69.9596 88.0869 69.9596C86.4531 69.9596 84.5469 68.6345 84.5469 65.0929C84.5469 61.5514 88.0869 55.697 88.0869 55.697C88.0869 55.697 91.627 61.5514 91.627 65.0929Z" fill="#93D1E0"/>
<path d="M85.4695 53.4572C87.9134 53.0028 89.7275 51.7235 89.5216 50.6C89.3156 49.4764 87.1676 48.9339 84.7238 49.3884C82.2799 49.8428 80.4658 51.122 80.6717 52.2456C80.8777 53.3692 83.0257 53.9116 85.4695 53.4572Z" fill="#93D1E0"/>
</svg>
