<svg width="143" height="147" viewBox="0 0 143 147" fill="none" xmlns="http://www.w3.org/2000/svg">
<path d="M88.9737 19.9115C97.1729 -5.30383 45.7992 -5.30383 53.9984 19.9115C45.7992 -5.30383 4.23014 24.8515 25.7027 40.4446C4.24447 24.8515 -11.6378 73.6641 14.9091 73.6641C-11.6378 73.6641 4.24448 122.477 25.7171 106.884C4.24448 122.477 45.7992 152.632 54.0127 127.417C45.8135 152.632 97.1872 152.632 88.988 127.417C97.1872 152.632 138.756 122.477 117.284 106.884C138.756 122.477 154.639 73.6641 128.092 73.6641C154.639 73.6641 138.756 24.8515 117.284 40.4446C138.756 24.8515 97.2015 -5.30383 88.988 19.9115H88.9737Z" fill="#EEEDEB"/>
<path d="M88.9737 19.9115C97.1729 -5.30383 45.7992 -5.30383 53.9984 19.9115C45.7992 -5.30383 4.23014 24.8515 25.7027 40.4446C4.24447 24.8515 -11.6378 73.6641 14.9091 73.6641C-11.6378 73.6641 4.24448 122.477 25.7171 106.884C4.24448 122.477 45.7992 152.632 54.0127 127.417C45.8135 152.632 97.1872 152.632 88.988 127.417C97.1872 152.632 138.756 122.477 117.284 106.884C138.756 122.477 154.639 73.6641 128.092 73.6641C154.639 73.6641 138.756 24.8515 117.284 40.4446C138.756 24.8515 97.2015 -5.30383 88.988 19.9115H88.9737Z" fill="#EEEDEB" stroke="#2C2C2C" stroke-miterlimit="10"/>
<path d="M75.4751 78.4476C75.4751 78.4476 81.4852 80.1069 79.011 81.9777C76.5369 83.8379 75.0627 83.1297 74.0627 82.0411C73.5679 81.4915 73.0112 79.3037 73.4442 78.7224C73.8772 78.1411 75.4751 78.4581 75.4751 78.4581V78.4476Z" fill="#FEE888" stroke="#2C2C2C" stroke-miterlimit="10"/>
<path d="M74.4656 65.1548C74.4656 72.3178 72.8713 78.1115 66.0346 78.1115C59.6431 78.1115 56.6987 72.3178 56.6987 65.1548C56.6987 63.8145 56.7705 62.5174 56.9429 61.3067C60.6772 62.4165 65.6181 62.503 70.7169 58.7125C71.4637 58.1648 72.225 57.5163 72.9862 56.7668C73.4602 57.8045 73.8193 58.9719 74.0634 60.2546C74.3363 61.7823 74.4656 63.4253 74.4656 65.1548Z" fill="#FBFBFB" stroke="#2C2C2C" stroke-miterlimit="10"/>
<path d="M92.2332 65.1548C92.2332 72.3177 90.6532 78.1115 83.8165 78.1115C77.4107 78.1115 74.4663 72.3177 74.4663 65.1548C74.4663 63.5118 74.5812 61.9553 74.8541 60.514C79.0624 61.7679 84.7788 61.7535 90.5527 56.3777C91.7448 58.6837 92.2332 61.7679 92.2332 65.1548Z" fill="#FBFBFB" stroke="#2C2C2C" stroke-miterlimit="10"/>
<path d="M72.9867 56.7669C72.2254 57.5164 71.4642 58.1649 70.7173 58.7126C65.6185 62.5031 60.6777 62.4166 56.9434 61.3068C57.6902 56.0319 60.2181 52.2126 66.035 52.2126C69.4965 52.2126 71.7084 53.9854 72.9867 56.7669Z" stroke="#2C2C2C" stroke-miterlimit="10"/>
<path d="M74.4657 69.1471C74.4657 73.1105 73.5896 76.3244 69.7978 76.3244C66.2502 76.3244 64.6128 73.1105 64.6128 69.1471C64.6128 65.1837 65.8193 61.9697 69.7978 61.9697C73.2592 61.9697 74.4657 65.1837 74.4657 69.1471Z" fill="#2C2C2C"/>
<path d="M92.2323 69.1471C92.2323 73.1105 91.3562 76.3244 87.5644 76.3244C84.0168 76.3244 82.3794 73.1105 82.3794 69.1471C82.3794 65.1837 83.5859 61.9697 87.5644 61.9697C91.0258 61.9697 92.2323 65.1837 92.2323 69.1471Z" fill="#2C2C2C"/>
<path d="M90.5526 56.3778C84.7787 61.7536 79.0623 61.768 74.854 60.5142C75.7158 55.6572 78.2724 52.2126 83.8164 52.2126C87.1055 52.2126 89.2599 53.8124 90.5526 56.3778Z" stroke="#2C2C2C" stroke-miterlimit="10" stroke-linecap="round"/>
<path d="M74.8534 60.5141C74.5805 60.4276 74.322 60.3411 74.0635 60.269" stroke="#2C2C2C" stroke-miterlimit="10" stroke-linecap="round"/>
<path d="M99.7273 95.5825C99.7273 100.245 96.9629 101.989 94.5934 101.989C92.2239 101.989 89.4595 100.245 89.4595 95.5825C89.4595 90.9205 94.5934 83.2139 94.5934 83.2139C94.5934 83.2139 99.7273 90.9205 99.7273 95.5825Z" fill="#93D1E0"/>
<path d="M71.7061 95.8359C71.7061 95.8359 76.2239 90.8884 78.1037 93.1402L79.9835 95.3761" stroke="#2C2C2C" stroke-miterlimit="10" stroke-linecap="round"/>
<path d="M90.829 80.1063C94.0805 79.5038 96.4943 77.8074 96.2203 76.3175C95.9463 74.8276 93.0882 74.1083 89.8367 74.7109C86.5851 75.3135 84.1713 77.0098 84.4454 78.4997C84.7194 79.9896 87.5774 80.7089 90.829 80.1063Z" fill="#93D1E0"/>
</svg>
