<svg width="89" height="175" viewBox="0 0 89 175" fill="none" xmlns="http://www.w3.org/2000/svg">
<path d="M87.5217 138.027C87.5217 158.111 68.1433 174.391 44.2608 174.391C20.3783 174.391 1 158.111 1 138.027C1 131.876 2.81563 126.075 6.01044 121.011C10.6368 113.668 10.9685 104.607 7.38961 96.7035C5.73111 93.0408 4.82329 89.0802 4.82329 84.9268C4.82329 79.9146 6.1501 75.1829 8.50692 70.9244C13.0984 62.6701 14.0062 52.7686 9.83373 44.2865C8.0181 40.6063 7.023 36.558 7.023 32.3345C7.023 15.0374 23.6954 1 44.2608 1C64.8263 1 81.5161 15.0374 81.5161 32.3345C81.5161 36.5756 80.521 40.6238 78.7054 44.304C74.533 52.7861 75.4408 62.6877 80.0322 70.9594C82.389 75.2004 83.6984 79.9322 83.6984 84.9268C83.6984 89.0802 82.7906 93.0408 81.1321 96.7035C77.5532 104.607 77.8849 113.668 82.5112 121.011C85.7061 126.093 87.5217 131.876 87.5217 138.027Z" fill="#EEEDEB" stroke="#2C2C2C" stroke-miterlimit="10"/>
<path d="M43.0297 33.1893C43.0297 39.3808 41.6429 44.4182 35.7305 44.4182C30.1831 44.4182 27.6284 39.3991 27.6284 33.1893C27.6284 26.9796 29.508 21.9604 35.7305 21.9604C41.1502 21.9604 43.0297 26.9796 43.0297 33.1893Z" fill="#FBFBFB" stroke="#2C2C2C" stroke-miterlimit="10"/>
<path d="M58.4309 33.1893C58.4309 33.4092 58.4309 33.6107 58.4309 33.8305C58.3944 36.7247 58.0112 39.3075 56.9711 41.2126C54.8908 41.4324 53.1025 42.6414 52.0624 44.3633C51.7704 44.3999 51.4602 44.4182 51.15 44.4182C45.6026 44.4182 43.0479 39.3991 43.0479 33.1893C43.0479 26.9796 44.9456 21.9604 51.15 21.9604C56.3689 21.9604 58.3032 26.6132 58.4491 32.5116C58.4491 32.7314 58.4491 32.9695 58.4491 33.1893H58.4309Z" fill="#FBFBFB" stroke="#2C2C2C" stroke-miterlimit="10"/>
<path d="M43.4238 43.8396C44.5939 44.0172 45.2478 44.6429 45.5703 45.3201C45.9132 46.0401 45.8782 46.8037 45.6826 47.2029C45.6403 47.2888 45.45 47.4633 45.0098 47.5964C44.6008 47.72 44.0795 47.7737 43.5557 47.7195C42.49 47.6092 41.6058 47.0928 41.4238 46.0544C41.3215 45.47 41.4119 45.0742 41.5625 44.7996C41.7163 44.5191 41.96 44.314 42.2441 44.1648C42.5299 44.0147 42.8378 43.9309 43.0811 43.8855C43.2006 43.8632 43.3006 43.8511 43.3691 43.8445C43.3906 43.8424 43.4091 43.8407 43.4238 43.8396Z" fill="#93D1E0" stroke="#2C2C2C"/>
<path d="M56.9521 41.2124C57.1894 41.1758 57.4448 41.1575 57.6821 41.1575C60.1273 41.1575 62.2623 42.4947 63.3937 44.473" stroke="#2C2C2C" stroke-miterlimit="10" stroke-linecap="round"/>
<path d="M52.0446 44.3633L51.9707 44.4746" stroke="#2C2C2C" stroke-miterlimit="10" stroke-linecap="round"/>
<path d="M23.9604 64.8708C23.9604 68.4977 26.1063 69.8601 27.9587 69.8601C29.8111 69.8601 31.9569 68.4977 31.9569 64.8708C31.9569 61.2439 27.9587 55.2419 27.9587 55.2419C27.9587 55.2419 23.9604 61.2439 23.9604 64.8708Z" fill="#93D1E0"/>
<path d="M35.8521 44.1693C36.0654 43.0095 34.1873 41.6891 31.6573 41.2202C29.1272 40.7513 26.9033 41.3115 26.69 42.4714C26.4766 43.6313 28.3547 44.9516 30.8848 45.4205C33.4148 45.8894 35.6388 45.3292 35.8521 44.1693Z" fill="#93D1E0"/>
<path d="M28.3443 52.0385C29.4484 52.0385 30.3434 51.14 30.3434 50.0317C30.3434 48.9234 29.4484 48.0249 28.3443 48.0249C27.2402 48.0249 26.3452 48.9234 26.3452 50.0317C26.3452 51.14 27.2402 52.0385 28.3443 52.0385Z" fill="#93D1E0"/>
<path d="M40.4668 58.0051C40.4668 58.0051 46.996 50.8617 49.7104 54.102L52.4248 57.3423" stroke="#2C2C2C" stroke-miterlimit="10" stroke-linecap="round"/>
<path d="M44.814 33.0068L52.8471 36.8731" stroke="#2C2C2C" stroke-miterlimit="10" stroke-linecap="round"/>
<path d="M41.1456 33.0068L33.1309 36.8731" stroke="#2C2C2C" stroke-miterlimit="10" stroke-linecap="round"/>
</svg>
