<svg width="143" height="121" viewBox="0 0 143 121" fill="none" xmlns="http://www.w3.org/2000/svg">
<g filter="url(#filter0_g_40001191_16930)">
<path d="M142 65.5708C142 69.4447 141.753 73.2357 141.272 76.9159C139.721 88.9252 132.94 99.5925 122.742 105.998C109.578 114.286 92.3508 119.488 73.3806 119.958C72.4197 119.986 71.4588 120 70.4842 120H69.6469C51.9121 119.862 35.5774 115.614 22.5645 108.53C11.446 102.484 3.92377 91.4848 2.00205 78.9083C1.34317 74.6054 1 70.1365 1 65.5708C1 54.0457 3.19626 43.2263 7.05345 33.8596C15.1247 14.2407 30.4436 1 48.0137 1C54.1221 1 59.9559 2.5911 65.323 5.51041C69.2076 7.61342 73.8061 7.61342 77.677 5.51041C83.0304 2.60493 88.8642 1 94.9588 1C113.586 1 129.687 15.8733 137.292 37.4291C140.298 45.938 141.986 55.4846 141.986 65.5708H142Z" fill="#EEEDEB" stroke="#2C2C2C" stroke-miterlimit="10"/>
<path d="M72.623 60.444C72.623 67.2851 71.0985 72.8298 64.5608 72.8298C58.4352 72.8298 55.6196 67.2851 55.6196 60.444C55.6196 53.6028 57.6935 48.0581 64.5608 48.0581C70.5353 48.0581 72.623 53.6028 72.623 60.444Z" fill="#FBFBFB" stroke="#2C2C2C" stroke-miterlimit="10"/>
<path d="M89.6113 60.444C89.6113 67.2851 88.0867 72.8298 81.5491 72.8298C75.4235 72.8298 72.6079 67.2851 72.6079 60.444C72.6079 53.6028 74.6818 48.0581 81.5491 48.0581C87.5236 48.0581 89.6113 53.6028 89.6113 60.444Z" fill="#FBFBFB" stroke="#2C2C2C" stroke-miterlimit="10"/>
<path d="M72.6221 61.1344C72.6221 64.9274 71.7843 68.0032 68.1584 68.0032C64.7659 68.0032 63.2002 64.9274 63.2002 61.1344C63.2002 57.3414 64.3539 54.2656 68.1584 54.2656C71.4684 54.2656 72.6221 57.3414 72.6221 61.1344Z" fill="#2C2C2C"/>
<path d="M89.6113 60.4445C89.6113 64.2374 88.7735 67.3132 85.1476 67.3132C81.7552 67.3132 80.1895 64.2374 80.1895 60.4445C80.1895 56.6515 81.3432 53.5757 85.1476 53.5757C88.4576 53.5757 89.6113 56.6515 89.6113 60.4445Z" fill="#2C2C2C"/>
<path d="M73.7619 73.2301C73.7619 73.2301 66.8259 73.5887 67.7049 77.4645C68.584 81.3402 78.2668 80.5402 79.6403 78.8851C81.0137 77.23 80.0523 73.5473 73.7619 73.2163V73.2301Z" fill="#FBD7D5" stroke="#2C2C2C" stroke-miterlimit="10"/>
<path d="M50.2485 54.4169C50.2485 54.4169 65.0544 63.5477 73.9131 45.562" stroke="#2C2C2C" stroke-miterlimit="10" stroke-linecap="round"/>
<path d="M41.5826 71.4925C42.0604 71.4925 42.4478 71.1035 42.4478 70.6236C42.4478 70.1437 42.0604 69.7546 41.5826 69.7546C41.1047 69.7546 40.7173 70.1437 40.7173 70.6236C40.7173 71.1035 41.1047 71.4925 41.5826 71.4925Z" fill="#2C2C2C"/>
<path d="M46.9663 71.4925C47.4442 71.4925 47.8316 71.1035 47.8316 70.6236C47.8316 70.1437 47.4442 69.7546 46.9663 69.7546C46.4885 69.7546 46.1011 70.1437 46.1011 70.6236C46.1011 71.1035 46.4885 71.4925 46.9663 71.4925Z" fill="#2C2C2C"/>
<path d="M44.2745 74.1822C44.7523 74.1822 45.1397 73.7932 45.1397 73.3133C45.1397 72.8334 44.7523 72.4443 44.2745 72.4443C43.7966 72.4443 43.4092 72.8334 43.4092 73.3133C43.4092 73.7932 43.7966 74.1822 44.2745 74.1822Z" fill="#2C2C2C"/>
<path d="M92.606 71.4925C93.0839 71.4925 93.4713 71.1035 93.4713 70.6236C93.4713 70.1437 93.0839 69.7546 92.606 69.7546C92.1281 69.7546 91.7407 70.1437 91.7407 70.6236C91.7407 71.1035 92.1281 71.4925 92.606 71.4925Z" fill="#2C2C2C"/>
<path d="M98.0035 71.4925C98.4813 71.4925 98.8687 71.1035 98.8687 70.6236C98.8687 70.1437 98.4813 69.7546 98.0035 69.7546C97.5256 69.7546 97.1382 70.1437 97.1382 70.6236C97.1382 71.1035 97.5256 71.4925 98.0035 71.4925Z" fill="#2C2C2C"/>
<path d="M95.3116 74.1822C95.7894 74.1822 96.1768 73.7932 96.1768 73.3133C96.1768 72.8334 95.7894 72.4443 95.3116 72.4443C94.8337 72.4443 94.4463 72.8334 94.4463 73.3133C94.4463 73.7932 94.8337 74.1822 95.3116 74.1822Z" fill="#2C2C2C"/>
<path d="M67.6372 86.5403C67.6372 86.5403 71.5653 82.237 73.1997 84.1955L74.8341 86.1403" stroke="#2C2C2C" stroke-miterlimit="10" stroke-linecap="round"/>
<path d="M51.458 86.6504C51.458 90.7055 53.8616 92.2227 55.9217 92.2227C57.9819 92.2227 60.3855 90.7055 60.3855 86.6504C60.3855 82.5953 55.9217 75.8921 55.9217 75.8921C55.9217 75.8921 51.458 82.5953 51.458 86.6504Z" fill="#93D1E0"/>
<path d="M64.7585 71.7896C64.9967 70.4937 62.8981 69.0182 60.071 68.4941C57.2439 67.97 54.759 68.5956 54.5207 69.8916C54.2825 71.1875 56.3812 72.6629 59.2082 73.1871C62.0353 73.7112 64.5203 73.0856 64.7585 71.7896Z" fill="#93D1E0"/>
</g>
<defs>
<filter id="filter0_g_40001191_16930" x="0.1" y="0.1" width="142.8" height="120.8" filterUnits="userSpaceOnUse" color-interpolation-filters="sRGB">
<feFlood flood-opacity="0" result="BackgroundImageFix"/>
<feBlend mode="normal" in="SourceGraphic" in2="BackgroundImageFix" result="shape"/>
<feTurbulence type="fractalNoise" baseFrequency="0.66666668653488159 0.66666668653488159" numOctaves="3" seed="7043" />
<feDisplacementMap in="shape" scale="0.80000001192092896" xChannelSelector="R" yChannelSelector="G" result="displacedImage" width="100%" height="100%" />
<feMerge result="effect1_texture_40001191_16930">
<feMergeNode in="displacedImage"/>
</feMerge>
</filter>
</defs>
</svg>
