<svg width="73" height="74" viewBox="0 0 73 74" fill="none" xmlns="http://www.w3.org/2000/svg">
<g clip-path="url(#clip0_40000418_4871)">
<path d="M36.5 0.5C56.3759 0.5 72.5 16.8352 72.5 37C72.5 57.1648 56.3759 73.5 36.5 73.5C16.6241 73.5 0.5 57.1648 0.5 37C0.5 16.8352 16.6241 0.5 36.5 0.5Z" fill="#93D1E0" stroke="#5C5C5C"/>
<g filter="url(#filter0_g_40000418_4871)">
<path d="M36.6409 33.6337C36.6409 39.497 35.3225 44.2675 29.7021 44.2675C24.4286 44.2675 22 39.5144 22 33.6337C22 27.7531 23.7867 23 29.7021 23C34.8542 23 36.6409 27.7531 36.6409 33.6337Z" fill="#FBFBFB" stroke="#2C2C2C" stroke-miterlimit="10"/>
<path d="M51.2818 33.6337C51.2818 33.8419 51.2818 34.0327 51.2818 34.2409C51.2471 36.9817 50.8828 39.4277 49.894 41.2318C47.9164 41.4399 46.2164 42.5848 45.2276 44.2154C44.9501 44.2501 44.6552 44.2675 44.3603 44.2675C39.0868 44.2675 36.6582 39.5144 36.6582 33.6337C36.6582 27.7531 38.4623 23 44.3603 23C49.3216 23 51.1603 27.4062 51.2991 32.9919C51.2991 33.2001 51.2991 33.4256 51.2991 33.6337H51.2818Z" fill="#FBFBFB" stroke="#2C2C2C" stroke-miterlimit="10"/>
<path d="M32.7896 28.8254C34.0295 28.8255 34.8313 29.3781 35.353 30.2981C35.8958 31.2553 36.1401 32.6289 36.1401 34.2239C36.1401 35.8372 35.956 37.2068 35.4448 38.1594C35.1947 38.6254 34.8704 38.9835 34.4546 39.2278C34.0379 39.4725 33.4982 39.6213 32.7896 39.6213C31.5009 39.6213 30.5869 39.0547 29.9741 38.1213C29.3457 37.164 29.022 35.7967 29.022 34.2239C29.022 32.6272 29.2672 31.2634 29.8521 30.3137C30.4119 29.4046 31.3118 28.8254 32.7896 28.8254Z" fill="#2C2C2C" stroke="#2C2C2C"/>
<path d="M47.4302 28.2357C48.6701 28.2358 49.4719 28.7884 49.9937 29.7084C50.5365 30.6656 50.7808 32.0391 50.7808 33.6342C50.7807 35.2474 50.5966 36.6171 50.0854 37.5697C49.8353 38.0357 49.511 38.3937 49.0952 38.6381C48.6785 38.8828 48.1388 39.0316 47.4302 39.0316C46.1415 39.0316 45.2275 38.4649 44.6147 37.5316C43.9863 36.5743 43.6627 35.207 43.6626 33.6342C43.6626 32.0375 43.9078 30.6737 44.4927 29.724C45.0526 28.8149 45.9525 28.2357 47.4302 28.2357Z" fill="#2C2C2C" stroke="#2C2C2C"/>
<path d="M37.0156 43.7461C38.1187 43.9138 38.7327 44.5011 39.0352 45.1338C39.3579 45.8091 39.323 46.5224 39.1416 46.8916C39.1067 46.9627 38.935 47.1262 38.5176 47.252C38.1319 47.3681 37.6389 47.4182 37.1436 47.3672C36.1344 47.2631 35.3084 46.7776 35.1387 45.8115C35.0424 45.2633 35.1279 44.8954 35.2676 44.6416C35.4105 44.382 35.6381 44.1916 35.9053 44.0518C36.1741 43.9111 36.4645 43.8318 36.6943 43.7891C36.8074 43.7681 36.9022 43.7572 36.9668 43.751C36.9859 43.7491 37.0023 43.7471 37.0156 43.7461Z" fill="#2C2C2C" stroke="#2C2C2C"/>
<path d="M46.7021 47.0604C46.7021 47.0604 43.1633 55.335 32.8765 50.6339" stroke="#2C2C2C" stroke-miterlimit="10" stroke-linecap="round"/>
<path d="M49.8765 41.2317C50.102 41.197 50.3448 41.1797 50.5703 41.1797C52.8948 41.1797 54.9245 42.446 56 44.3195" stroke="#2C2C2C" stroke-miterlimit="10" stroke-linecap="round"/>
<path d="M45.2104 44.2153L45.1406 44.32" stroke="#2C2C2C" stroke-miterlimit="10" stroke-linecap="round"/>
</g>
</g>
<defs>
<filter id="filter0_g_40000418_4871" x="21.1" y="22.1" width="35.8" height="30.8787" filterUnits="userSpaceOnUse" color-interpolation-filters="sRGB">
<feFlood flood-opacity="0" result="BackgroundImageFix"/>
<feBlend mode="normal" in="SourceGraphic" in2="BackgroundImageFix" result="shape"/>
<feTurbulence type="fractalNoise" baseFrequency="0.66666668653488159 0.66666668653488159" numOctaves="3" seed="7043" />
<feDisplacementMap in="shape" scale="0.80000001192092896" xChannelSelector="R" yChannelSelector="G" result="displacedImage" width="100%" height="100%" />
<feMerge result="effect1_texture_40000418_4871">
<feMergeNode in="displacedImage"/>
</feMerge>
</filter>
<clipPath id="clip0_40000418_4871">
<rect width="73" height="74" fill="white"/>
</clipPath>
</defs>
</svg>
