<svg width="73" height="74" viewBox="0 0 73 74" fill="none" xmlns="http://www.w3.org/2000/svg">
<g clip-path="url(#clip0_40000418_5068)">
<path d="M36.5 0.5C56.3759 0.5 72.5 16.8352 72.5 37C72.5 57.1648 56.3759 73.5 36.5 73.5C16.6241 73.5 0.5 57.1648 0.5 37C0.5 16.8352 16.6241 0.5 36.5 0.5Z" fill="#93D1E0" stroke="#5C5C5C"/>
<g filter="url(#filter0_g_40000418_5068)">
<path d="M35.8724 34.7263C35.8724 40.4723 34.5804 45.1472 29.0724 45.1472C23.9044 45.1472 21.5244 40.4893 21.5244 34.7263C21.5244 28.9633 23.2754 24.3053 29.0724 24.3053C34.1214 24.3053 35.8724 28.9633 35.8724 34.7263Z" fill="#FBFBFB" stroke="#2C2C2C" stroke-miterlimit="10"/>
<path d="M50.2201 34.7263C50.2201 34.9303 50.2201 35.1173 50.2201 35.3213C50.1861 38.0073 49.8291 40.4043 48.8601 42.1723C46.9221 42.3763 45.2561 43.4983 44.2871 45.0962C44.0151 45.1302 43.7261 45.1472 43.4371 45.1472C38.2692 45.1472 35.8892 40.4893 35.8892 34.7263C35.8892 28.9633 37.6572 24.3053 43.4371 24.3053C48.2991 24.3053 50.1011 28.6233 50.2371 34.0973C50.2371 34.3013 50.2371 34.5223 50.2371 34.7263H50.2201Z" fill="#FBFBFB" stroke="#2C2C2C" stroke-miterlimit="10"/>
<path d="M29.1235 30.024C30.335 30.024 31.1178 30.5638 31.6274 31.4625C32.1581 32.3984 32.3979 33.742 32.3979 35.3043C32.3979 36.8848 32.2178 38.2246 31.7183 39.1559C31.4739 39.6113 31.1571 39.9604 30.7515 40.1989C30.3448 40.4378 29.817 40.5836 29.1235 40.5836C27.8643 40.5835 26.9723 40.0298 26.3735 39.1178C25.7592 38.1818 25.4419 36.8445 25.4419 35.3043C25.4419 33.7405 25.6819 32.4065 26.2534 31.4781C26.8001 30.5904 27.6788 30.0241 29.1235 30.024Z" fill="#2C2C2C" stroke="#2C2C2C"/>
<path d="M43.4712 29.4462C44.6826 29.4462 45.4654 29.9859 45.9751 30.8846C46.5058 31.8205 46.7456 33.1641 46.7456 34.7264C46.7456 36.307 46.5655 37.6467 46.0659 38.578C45.8215 39.0334 45.5047 39.3825 45.0991 39.621C44.6925 39.8599 44.1646 40.0057 43.4712 40.0057C42.2119 40.0056 41.3199 39.4519 40.7212 38.5399C40.1068 37.604 39.7896 36.2666 39.7896 34.7264C39.7896 33.1626 40.0295 31.8286 40.6011 30.9003C41.1478 30.0126 42.0265 29.4463 43.4712 29.4462Z" fill="#2C2C2C" stroke="#2C2C2C"/>
<path d="M36.2383 44.6462C37.3158 44.8101 37.915 45.3836 38.21 46.0007C38.5251 46.6604 38.4898 47.3561 38.3135 47.7146C38.2809 47.7805 38.1162 47.9393 37.708 48.0623C37.3315 48.1756 36.8501 48.2254 36.3662 48.1755C35.3794 48.0738 34.5754 47.5992 34.4102 46.6589C34.3161 46.1234 34.4004 45.7647 34.5361 45.5183C34.6751 45.2662 34.8957 45.0805 35.1562 44.9441C35.4184 44.807 35.7012 44.73 35.9258 44.6882C36.0364 44.6677 36.1292 44.6562 36.1924 44.6501C36.2102 44.6484 36.2256 44.6472 36.2383 44.6462Z" fill="#2C2C2C" stroke="#2C2C2C"/>
<path d="M48.8433 42.1721C49.0643 42.1381 49.3023 42.1211 49.5233 42.1211C51.8012 42.1211 53.7902 43.3621 54.8442 45.1981" stroke="#2C2C2C" stroke-miterlimit="10" stroke-linecap="round"/>
<path d="M44.271 45.0959L44.2021 45.1992" stroke="#2C2C2C" stroke-miterlimit="10" stroke-linecap="round"/>
</g>
<g filter="url(#filter1_g_40000418_5068)">
<path d="M39.5987 52.0474C39.5987 52.0474 34.9292 54.0855 37.0131 55.7865C39.097 57.4875 43.0912 59.2046 44.1139 56.958C45.1365 54.7113 44.1139 52.0314 39.618 52.0314L39.5987 52.0474Z" stroke="#2C2C2C" stroke-miterlimit="10" stroke-linecap="round"/>
</g>
<g filter="url(#filter2_g_40000418_5068)">
<path d="M20.057 20.9845C20.057 20.9845 22.5111 10.1884 32.66 20.6506" stroke="#2C2C2C" stroke-miterlimit="10" stroke-linecap="round"/>
</g>
</g>
<defs>
<filter id="filter0_g_40000418_5068" x="20.6244" y="23.4053" width="35.1198" height="25.6893" filterUnits="userSpaceOnUse" color-interpolation-filters="sRGB">
<feFlood flood-opacity="0" result="BackgroundImageFix"/>
<feBlend mode="normal" in="SourceGraphic" in2="BackgroundImageFix" result="shape"/>
<feTurbulence type="fractalNoise" baseFrequency="0.66666668653488159 0.66666668653488159" numOctaves="3" seed="7043" />
<feDisplacementMap in="shape" scale="0.80000001192092896" xChannelSelector="R" yChannelSelector="G" result="displacedImage" width="100%" height="100%" />
<feMerge result="effect1_texture_40000418_5068">
<feMergeNode in="displacedImage"/>
</feMerge>
</filter>
<filter id="filter1_g_40000418_5068" x="35.5775" y="51.1314" width="9.8" height="7.8" filterUnits="userSpaceOnUse" color-interpolation-filters="sRGB">
<feFlood flood-opacity="0" result="BackgroundImageFix"/>
<feBlend mode="normal" in="SourceGraphic" in2="BackgroundImageFix" result="shape"/>
<feTurbulence type="fractalNoise" baseFrequency="0.66666668653488159 0.66666668653488159" numOctaves="3" seed="7043" />
<feDisplacementMap in="shape" scale="0.80000001192092896" xChannelSelector="R" yChannelSelector="G" result="displacedImage" width="100%" height="100%" />
<feMerge result="effect1_texture_40000418_5068">
<feMergeNode in="displacedImage"/>
</feMerge>
</filter>
<filter id="filter2_g_40000418_5068" x="19.1566" y="15.1858" width="14.4035" height="6.6988" filterUnits="userSpaceOnUse" color-interpolation-filters="sRGB">
<feFlood flood-opacity="0" result="BackgroundImageFix"/>
<feBlend mode="normal" in="SourceGraphic" in2="BackgroundImageFix" result="shape"/>
<feTurbulence type="fractalNoise" baseFrequency="0.66666668653488159 0.66666668653488159" numOctaves="3" seed="7043" />
<feDisplacementMap in="shape" scale="0.80000001192092896" xChannelSelector="R" yChannelSelector="G" result="displacedImage" width="100%" height="100%" />
<feMerge result="effect1_texture_40000418_5068">
<feMergeNode in="displacedImage"/>
</feMerge>
</filter>
<clipPath id="clip0_40000418_5068">
<rect width="73" height="74" fill="white"/>
</clipPath>
</defs>
</svg>
