<svg width="73" height="74" viewBox="0 0 73 74" fill="none" xmlns="http://www.w3.org/2000/svg">
<g clip-path="url(#clip0_40000418_5103)">
<path d="M36.5 0.5C56.3759 0.5 72.5 16.8352 72.5 37C72.5 57.1648 56.3759 73.5 36.5 73.5C16.6241 73.5 0.5 57.1648 0.5 37C0.5 16.8352 16.6241 0.5 36.5 0.5Z" fill="#EEEDEB" stroke="#9C9C9C"/>
<g filter="url(#filter0_g_40000418_5103)">
<path d="M36.8496 33.424C36.8496 38.9704 35.6025 43.483 30.2858 43.483C25.2973 43.483 23 38.9868 23 33.424C23 27.8612 24.6902 23.365 30.2858 23.365C35.1594 23.365 36.8496 27.8612 36.8496 33.424Z" fill="#FBFBFB" stroke="#2C2C2C" stroke-miterlimit="10"/>
<path d="M50.6995 33.4239C50.6995 33.6044 50.6995 33.8014 50.6831 33.9983C50.6503 36.5745 50.3057 38.9047 49.3703 40.6113C47.4996 40.8082 45.8915 41.8912 44.9562 43.4337C44.6936 43.4665 44.4147 43.4665 44.1193 43.4665C39.2293 43.4665 36.932 39.1508 36.8499 33.7685C36.8335 33.6537 36.8335 33.5388 36.8335 33.4239C36.8335 33.2598 36.8335 33.0793 36.8499 32.9152C36.9155 28.9606 37.9165 25.613 40.6241 24.1526C42.5604 26.532 45.6782 29.1247 50.4698 30.2897C50.601 31.0938 50.6667 31.9471 50.6831 32.8168C50.6995 33.0137 50.6995 33.227 50.6995 33.4239Z" fill="#FBFBFB" stroke="#2C2C2C" stroke-miterlimit="10"/>
<path d="M27.8574 31.3969C29.0198 31.397 29.7698 31.9137 30.2588 32.7758C30.7689 33.6753 31 34.9691 31 36.476C31 38.0012 30.8259 39.2909 30.3457 40.1859C30.111 40.6233 29.8074 40.9576 29.4189 41.1859C29.0296 41.4147 28.5241 41.555 27.8574 41.5551C26.6479 41.5551 25.7917 41.0236 25.2168 40.1478C24.6262 39.2481 24.3203 37.9607 24.3203 36.476C24.3203 34.9674 24.5522 33.6834 25.1016 32.7914C25.626 31.9401 26.4685 31.3969 27.8574 31.3969Z" fill="#2C2C2C" stroke="#2C2C2C"/>
<path d="M41.707 30.8225C42.8694 30.8226 43.6194 31.3393 44.1084 32.2014C44.6185 33.1009 44.8496 34.3948 44.8496 35.9016C44.8496 37.4268 44.6755 38.7165 44.1953 39.6116C43.9606 40.0489 43.657 40.3833 43.2686 40.6116C42.8792 40.8403 42.3737 40.9807 41.707 40.9807C40.4975 40.9807 39.6413 40.4492 39.0664 39.5735C38.4758 38.6738 38.1699 37.3864 38.1699 35.9016C38.1699 34.3931 38.4018 33.1091 38.9512 32.217C39.4756 31.3658 40.3181 30.8225 41.707 30.8225Z" fill="#2C2C2C" stroke="#2C2C2C"/>
<path d="M50.4702 30.2898C45.6786 29.1247 42.5608 26.532 40.6245 24.1526C41.5763 23.644 42.7249 23.365 44.1197 23.365C48.0252 23.365 49.8959 26.2695 50.4702 30.2898Z" stroke="#2C2C2C" stroke-miterlimit="10" stroke-linecap="round"/>
<path d="M52.1107 30.6179C51.5363 30.5194 50.9948 30.4209 50.4697 30.2897" stroke="#2C2C2C" stroke-miterlimit="10" stroke-linecap="round"/>
<path d="M37.7192 19C37.7192 19 38.4413 21.4614 40.6237 24.1526" stroke="#2C2C2C" stroke-miterlimit="10" stroke-linecap="round"/>
<path d="M37.1313 42.6577C38.1576 42.8146 38.726 43.3605 39.0063 43.9468C39.307 44.5758 39.2731 45.2376 39.1069 45.5757C39.0796 45.6312 38.9284 45.7812 38.5376 45.8989C38.1786 46.0071 37.7188 46.055 37.2563 46.0073C36.3127 45.91 35.5515 45.4574 35.395 44.5669C35.3054 44.0564 35.3854 43.7169 35.5132 43.4849C35.6443 43.2469 35.854 43.0717 36.1021 42.9419C36.3516 42.8114 36.6209 42.7376 36.8354 42.6978C36.941 42.6782 37.0292 42.6674 37.0894 42.6616C37.1055 42.6601 37.1196 42.6586 37.1313 42.6577Z" fill="#93D1E0" stroke="#2C2C2C"/>
<path d="M49.2368 40.2617C49.4491 40.2291 49.6776 40.2128 49.8899 40.2128C52.0777 40.2128 53.9879 41.4046 55.0001 43.1679" stroke="#2C2C2C" stroke-miterlimit="10" stroke-linecap="round"/>
<path d="M44.8454 43.0697L44.7793 43.1689" stroke="#2C2C2C" stroke-miterlimit="10" stroke-linecap="round"/>
</g>
<g filter="url(#filter1_g_40000418_5103)">
<path d="M25 48.5698C26.9148 48.5698 26.9148 52.5698 28.8456 52.5698C30.7765 52.5698 30.7765 48.5698 32.6913 48.5698C34.6061 48.5698 34.6222 52.5698 36.553 52.5698C38.4839 52.5698 38.4839 48.5698 40.4148 48.5698C42.3456 48.5698 42.3456 52.5698 44.2765 52.5698C46.2074 52.5698 46.2074 48.5698 48.1383 48.5698C50.0691 48.5698 50.0691 52.5698 52 52.5698" stroke="#2C2C2C" stroke-miterlimit="10" stroke-linecap="round"/>
</g>
</g>
<defs>
<filter id="filter0_g_40000418_5103" x="22.1" y="18.0999" width="33.8" height="28.826" filterUnits="userSpaceOnUse" color-interpolation-filters="sRGB">
<feFlood flood-opacity="0" result="BackgroundImageFix"/>
<feBlend mode="normal" in="SourceGraphic" in2="BackgroundImageFix" result="shape"/>
<feTurbulence type="fractalNoise" baseFrequency="0.66666668653488159 0.66666668653488159" numOctaves="3" seed="7043" />
<feDisplacementMap in="shape" scale="0.80000001192092896" xChannelSelector="R" yChannelSelector="G" result="displacedImage" width="100%" height="100%" />
<feMerge result="effect1_texture_40000418_5103">
<feMergeNode in="displacedImage"/>
</feMerge>
</filter>
<filter id="filter1_g_40000418_5103" x="24.1" y="47.6698" width="28.8" height="5.8" filterUnits="userSpaceOnUse" color-interpolation-filters="sRGB">
<feFlood flood-opacity="0" result="BackgroundImageFix"/>
<feBlend mode="normal" in="SourceGraphic" in2="BackgroundImageFix" result="shape"/>
<feTurbulence type="fractalNoise" baseFrequency="0.66666668653488159 0.66666668653488159" numOctaves="3" seed="7043" />
<feDisplacementMap in="shape" scale="0.80000001192092896" xChannelSelector="R" yChannelSelector="G" result="displacedImage" width="100%" height="100%" />
<feMerge result="effect1_texture_40000418_5103">
<feMergeNode in="displacedImage"/>
</feMerge>
</filter>
<clipPath id="clip0_40000418_5103">
<rect width="73" height="74" fill="white"/>
</clipPath>
</defs>
</svg>
