<svg width="73" height="74" viewBox="0 0 73 74" fill="none" xmlns="http://www.w3.org/2000/svg">
<g clip-path="url(#clip0_40000418_4985)">
<path d="M36.5 0.5C56.3759 0.5 72.5 16.8352 72.5 37C72.5 57.1648 56.3759 73.5 36.5 73.5C16.6241 73.5 0.5 57.1648 0.5 37C0.5 16.8352 16.6241 0.5 36.5 0.5Z" fill="#EEEDEB" stroke="#9C9C9C"/>
<g filter="url(#filter0_g_40000418_4985)">
<path d="M36.3375 30.8663V31.9031C36.3375 32.087 36.3375 32.2543 36.3208 32.4215C36.3208 32.689 36.3208 32.9399 36.3041 33.174C36.0198 37.9566 34.4981 41.6189 29.6485 41.6189C24.799 41.6189 22.207 37.0369 22.207 31.4014C22.207 28.0569 22.809 25.0803 24.498 23.2074L31.2205 26.5017L35.8526 28.7425L36.2038 28.9098C36.2706 29.5619 36.3041 30.1974 36.3208 30.883L36.3375 30.8663Z" fill="#FBFBFB" stroke="#2C2C2C" stroke-miterlimit="10"/>
<path d="M50.4515 31.3848C50.4515 31.5855 50.4515 31.7694 50.4515 31.9701C50.4181 34.6122 50.0669 36.9701 49.1137 38.7092C47.2074 38.9099 45.5686 40.0136 44.6154 41.5855C44.3478 41.619 44.0636 41.6357 43.7793 41.6357C38.6956 41.6357 36.3545 37.0537 36.3545 31.4015C36.3545 25.7493 38.0602 21.1339 43.7458 21.1339C48.5285 21.1339 50.301 25.3814 50.4348 30.7661C50.4348 30.9667 50.4348 31.1841 50.4348 31.3848H50.4515Z" fill="#FBFBFB" stroke="#2C2C2C" stroke-miterlimit="10"/>
<path d="M36.3372 31.7527V31.9199C36.3372 31.9199 36.3372 32.0704 36.3372 32.1206C36.3372 32.2209 36.3372 32.3213 36.3205 32.4383C36.3205 32.7059 36.3205 32.9567 36.3038 33.1908C36.1198 35.7494 35.2168 37.639 32.6248 37.639C29.8155 37.639 28.5278 35.0972 28.5278 31.9534C28.5278 29.3279 29.1967 27.1206 31.2369 26.4851L35.869 28.7259C36.1533 29.4952 36.3038 30.4149 36.3205 31.3848C36.3372 31.4851 36.3372 31.6189 36.3372 31.736V31.7527Z" fill="#2C2C2C"/>
<path d="M50.4516 31.3847C50.4516 34.5286 49.7493 37.0704 46.7392 37.0704C43.9131 37.0704 42.6255 34.5286 42.6255 31.3847C42.6255 28.2409 43.5787 25.6991 46.7392 25.6991C49.4984 25.6991 50.4516 28.2409 50.4516 31.3847Z" fill="#2C2C2C"/>
<path d="M49.0967 38.7091C49.3141 38.6757 49.5482 38.6589 49.7656 38.6589C52.0064 38.6589 53.9629 39.8797 54.9997 41.6857" stroke="#2C2C2C" stroke-miterlimit="10" stroke-linecap="round"/>
<path d="M44.5986 41.5854L44.5317 41.6858" stroke="#2C2C2C" stroke-miterlimit="10" stroke-linecap="round"/>
<path d="M36.0697 28.8261L35.7186 28.6589L31.0363 26.3846L24.2637 23.0736C25.4342 21.7692 27.0898 21 29.4476 21C33.7119 21 35.6015 24.3445 36.0865 28.8261H36.0697Z" stroke="#2C2C2C" stroke-miterlimit="10" stroke-linecap="round"/>
<path d="M24.2642 23.0736L20 21" stroke="#2C2C2C" stroke-miterlimit="10" stroke-linecap="round"/>
<path d="M36.0737 41.7549C37.1234 41.9151 37.7056 42.4738 37.9927 43.0742C38.3001 43.7173 38.266 44.3946 38.0952 44.7422C38.0656 44.8024 37.9081 44.957 37.5093 45.0771C37.142 45.1878 36.6713 45.2362 36.1987 45.1875C35.2353 45.088 34.4549 44.6254 34.2944 43.7119C34.2028 43.1899 34.2851 42.8422 34.4165 42.6035C34.5512 42.3589 34.7651 42.1778 35.019 42.0449C35.2745 41.9113 35.5508 41.8366 35.77 41.7959C35.8778 41.7759 35.9683 41.7647 36.0298 41.7588C36.0468 41.7572 36.0615 41.7558 36.0737 41.7549Z" fill="#93D1E0" stroke="#2C2C2C"/>
</g>
<g filter="url(#filter1_g_40000418_4985)">
<path d="M37 49.533C37 49.533 45.141 46.0783 49 57.0151" stroke="black" stroke-miterlimit="10" stroke-linecap="round"/>
</g>
</g>
<defs>
<filter id="filter0_g_40000418_4985" x="19.1" y="20.0999" width="36.8" height="26.0065" filterUnits="userSpaceOnUse" color-interpolation-filters="sRGB">
<feFlood flood-opacity="0" result="BackgroundImageFix"/>
<feBlend mode="normal" in="SourceGraphic" in2="BackgroundImageFix" result="shape"/>
<feTurbulence type="fractalNoise" baseFrequency="0.66666668653488159 0.66666668653488159" numOctaves="3" seed="7043" />
<feDisplacementMap in="shape" scale="0.80000001192092896" xChannelSelector="R" yChannelSelector="G" result="displacedImage" width="100%" height="100%" />
<feMerge result="effect1_texture_40000418_4985">
<feMergeNode in="displacedImage"/>
</feMerge>
</filter>
<filter id="filter1_g_40000418_4985" x="36.1" y="48.1151" width="13.8" height="9.80012" filterUnits="userSpaceOnUse" color-interpolation-filters="sRGB">
<feFlood flood-opacity="0" result="BackgroundImageFix"/>
<feBlend mode="normal" in="SourceGraphic" in2="BackgroundImageFix" result="shape"/>
<feTurbulence type="fractalNoise" baseFrequency="0.66666668653488159 0.66666668653488159" numOctaves="3" seed="7043" />
<feDisplacementMap in="shape" scale="0.80000001192092896" xChannelSelector="R" yChannelSelector="G" result="displacedImage" width="100%" height="100%" />
<feMerge result="effect1_texture_40000418_4985">
<feMergeNode in="displacedImage"/>
</feMerge>
</filter>
<clipPath id="clip0_40000418_4985">
<rect width="73" height="74" fill="white"/>
</clipPath>
</defs>
</svg>
