<svg width="73" height="74" viewBox="0 0 73 74" fill="none" xmlns="http://www.w3.org/2000/svg">
<g clip-path="url(#clip0_40000418_4909)">
<path d="M36.5 0.5C56.3759 0.5 72.5 16.8352 72.5 37C72.5 57.1648 56.3759 73.5 36.5 73.5C16.6241 73.5 0.5 57.1648 0.5 37C0.5 16.8352 16.6241 0.5 36.5 0.5Z" fill="#EEEDEB" stroke="#9C9C9C"/>
<g filter="url(#filter0_g_40000418_4909)">
<path d="M37.0984 32.9706C37.0984 39.0197 35.7382 43.9412 29.9397 43.9412C24.4992 43.9412 21.9937 39.0376 21.9937 32.9706C21.9937 26.9037 23.837 22 29.9397 22C35.255 22 37.0984 26.9037 37.0984 32.9706Z" fill="#FBFBFB" stroke="#2C2C2C" stroke-miterlimit="10"/>
<path d="M52.203 32.9706C52.203 33.1854 52.203 33.3822 52.203 33.597C52.1673 36.4247 51.7914 38.9481 50.7713 40.8093C48.7311 41.0241 46.9772 42.2053 45.9571 43.8875C45.6708 43.9233 45.3665 43.9412 45.0623 43.9412C39.6217 43.9412 37.1162 39.0376 37.1162 32.9706C37.1162 26.9037 38.9775 22 45.0623 22C50.1807 22 52.0778 26.5457 52.2209 32.3084C52.2209 32.5232 52.2209 32.7559 52.2209 32.9706H52.203Z" fill="#FBFBFB" stroke="#2C2C2C" stroke-miterlimit="10"/>
<path d="M37.4858 43.3875C38.6301 43.5609 39.268 44.1703 39.5825 44.8279C39.9174 45.5284 39.8827 46.2701 39.6929 46.656C39.6537 46.7355 39.4704 46.9049 39.0386 47.0349C38.6386 47.1553 38.1285 47.2079 37.6157 47.155C36.5712 47.0473 35.7096 46.5436 35.5327 45.5369C35.4329 44.9686 35.5224 44.5855 35.6685 44.3201C35.8179 44.0488 36.055 43.8501 36.3325 43.7048C36.6117 43.5588 36.9128 43.4766 37.1509 43.4324C37.2681 43.4106 37.3661 43.3988 37.4331 43.3923C37.4539 43.3903 37.4716 43.3885 37.4858 43.3875Z" fill="#93D1E0" stroke="#2C2C2C"/>
<path d="M47.4784 46.8226C47.4784 46.8226 43.8275 55.3593 33.2148 50.5093" stroke="#2C2C2C" stroke-miterlimit="10" stroke-linecap="round"/>
<path d="M50.7529 40.8093C50.9856 40.7735 51.2361 40.7556 51.4688 40.7556C53.8669 40.7556 55.9608 42.0621 57.0704 43.9949" stroke="#2C2C2C" stroke-miterlimit="10" stroke-linecap="round"/>
<path d="M45.9397 43.8873L45.8672 43.9961" stroke="#2C2C2C" stroke-miterlimit="10" stroke-linecap="round"/>
</g>
<g filter="url(#filter1_g_40000418_4909)">
<path d="M37 31.0112V31.0485C37 32.4291 32.9222 39.3694 31.521 41.7201C31.3054 42.0933 30.8024 42.0933 30.5868 41.7201C29.1677 39.3881 25 32.4851 25 31.0112C25 28.8097 26.3473 27 28.018 27C29.4731 27 30.7126 28.3806 31 30.1903C31.2874 28.3806 32.509 27 33.9641 27C35.6347 27 37 28.8097 37 31.0112Z" fill="#2C2C2C"/>
<path d="M33.9639 27.5C34.6068 27.5 35.2305 27.8473 35.71 28.4814C36.1891 29.1152 36.4999 30.01 36.5 31.0107V31.0488C36.4999 31.1299 36.4632 31.3196 36.3506 31.6416C36.2435 31.9475 36.0856 32.326 35.8867 32.7598C35.4894 33.6263 34.9419 34.6853 34.3467 35.7822C33.1571 37.9744 31.7916 40.2898 31.0918 41.4639L31.0879 41.4697C31.0769 41.4887 31.0676 41.4953 31.0645 41.4971C31.0605 41.4994 31.0568 41.5 31.0537 41.5C31.0507 41.5 31.0469 41.4993 31.043 41.4971C31.0396 41.4951 31.0303 41.4883 31.0195 41.4697L31.0137 41.46C30.3043 40.2943 28.9121 37.9934 27.6982 35.8018C27.0908 34.705 26.5324 33.6425 26.127 32.7676C25.9241 32.3299 25.7635 31.9465 25.6543 31.6338C25.5399 31.306 25.5 31.1048 25.5 31.0107C25.5001 30.0087 25.8074 29.1138 26.2822 28.4805C26.7571 27.8473 27.3755 27.5001 28.0176 27.5C29.1304 27.5 30.2396 28.5924 30.5059 30.2686H31.4941C31.7611 28.5883 32.8543 27.5001 33.9639 27.5Z" stroke="#2C2C2C"/>
</g>
<g filter="url(#filter2_g_40000418_4909)">
<path d="M52 31.0112V31.0485C52 32.4291 47.9222 39.3694 46.521 41.7201C46.3054 42.0933 45.8024 42.0933 45.5868 41.7201C44.1677 39.3881 40 32.4851 40 31.0112C40 28.8097 41.3473 27 43.018 27C44.4731 27 45.7126 28.3806 46 30.1903C46.2874 28.3806 47.509 27 48.9641 27C50.6347 27 52 28.8097 52 31.0112Z" fill="#2C2C2C"/>
<path d="M48.9639 27.5C49.6068 27.5 50.2305 27.8473 50.71 28.4814C51.1891 29.1152 51.4999 30.01 51.5 31.0107V31.0488C51.4999 31.1299 51.4632 31.3196 51.3506 31.6416C51.2435 31.9475 51.0856 32.326 50.8867 32.7598C50.4894 33.6263 49.9419 34.6853 49.3467 35.7822C48.1571 37.9744 46.7916 40.2898 46.0918 41.4639L46.0879 41.4697C46.0769 41.4887 46.0676 41.4953 46.0645 41.4971C46.0605 41.4994 46.0568 41.5 46.0537 41.5C46.0507 41.5 46.0469 41.4993 46.043 41.4971C46.0396 41.4951 46.0303 41.4883 46.0195 41.4697L46.0137 41.46C45.3043 40.2943 43.9121 37.9934 42.6982 35.8018C42.0908 34.705 41.5324 33.6425 41.127 32.7676C40.9241 32.3299 40.7635 31.9465 40.6543 31.6338C40.5399 31.306 40.5 31.1048 40.5 31.0107C40.5001 30.0087 40.8074 29.1138 41.2822 28.4805C41.7571 27.8473 42.3755 27.5001 43.0176 27.5C44.1304 27.5 45.2396 28.5924 45.5059 30.2686H46.4941C46.7611 28.5883 47.8543 27.5001 48.9639 27.5Z" stroke="#2C2C2C"/>
</g>
<g filter="url(#filter3_g_40000418_4909)">
<path d="M19.6373 43.5847L13 48.2075" stroke="#2C2C2C" stroke-miterlimit="10" stroke-linecap="round"/>
<path d="M23.5225 43.5847L16.8672 48.2075" stroke="#2C2C2C" stroke-miterlimit="10" stroke-linecap="round"/>
<path d="M28.1275 43.5847L21.4722 48.2075" stroke="#2C2C2C" stroke-miterlimit="10" stroke-linecap="round"/>
</g>
</g>
<defs>
<filter id="filter0_g_40000418_4909" x="21.0937" y="21.1" width="36.8767" height="31.8" filterUnits="userSpaceOnUse" color-interpolation-filters="sRGB">
<feFlood flood-opacity="0" result="BackgroundImageFix"/>
<feBlend mode="normal" in="SourceGraphic" in2="BackgroundImageFix" result="shape"/>
<feTurbulence type="fractalNoise" baseFrequency="0.66666668653488159 0.66666668653488159" numOctaves="3" seed="7043" />
<feDisplacementMap in="shape" scale="0.80000001192092896" xChannelSelector="R" yChannelSelector="G" result="displacedImage" width="100%" height="100%" />
<feMerge result="effect1_texture_40000418_4909">
<feMergeNode in="displacedImage"/>
</feMerge>
</filter>
<filter id="filter1_g_40000418_4909" x="24.6" y="26.6" width="12.8" height="15.8" filterUnits="userSpaceOnUse" color-interpolation-filters="sRGB">
<feFlood flood-opacity="0" result="BackgroundImageFix"/>
<feBlend mode="normal" in="SourceGraphic" in2="BackgroundImageFix" result="shape"/>
<feTurbulence type="fractalNoise" baseFrequency="0.66666668653488159 0.66666668653488159" numOctaves="3" seed="7043" />
<feDisplacementMap in="shape" scale="0.80000001192092896" xChannelSelector="R" yChannelSelector="G" result="displacedImage" width="100%" height="100%" />
<feMerge result="effect1_texture_40000418_4909">
<feMergeNode in="displacedImage"/>
</feMerge>
</filter>
<filter id="filter2_g_40000418_4909" x="39.6" y="26.6" width="12.8" height="15.8" filterUnits="userSpaceOnUse" color-interpolation-filters="sRGB">
<feFlood flood-opacity="0" result="BackgroundImageFix"/>
<feBlend mode="normal" in="SourceGraphic" in2="BackgroundImageFix" result="shape"/>
<feTurbulence type="fractalNoise" baseFrequency="0.66666668653488159 0.66666668653488159" numOctaves="3" seed="7043" />
<feDisplacementMap in="shape" scale="0.80000001192092896" xChannelSelector="R" yChannelSelector="G" result="displacedImage" width="100%" height="100%" />
<feMerge result="effect1_texture_40000418_4909">
<feMergeNode in="displacedImage"/>
</feMerge>
</filter>
<filter id="filter3_g_40000418_4909" x="12.1" y="42.6847" width="16.9274" height="6.4228" filterUnits="userSpaceOnUse" color-interpolation-filters="sRGB">
<feFlood flood-opacity="0" result="BackgroundImageFix"/>
<feBlend mode="normal" in="SourceGraphic" in2="BackgroundImageFix" result="shape"/>
<feTurbulence type="fractalNoise" baseFrequency="0.66666668653488159 0.66666668653488159" numOctaves="3" seed="7043" />
<feDisplacementMap in="shape" scale="0.80000001192092896" xChannelSelector="R" yChannelSelector="G" result="displacedImage" width="100%" height="100%" />
<feMerge result="effect1_texture_40000418_4909">
<feMergeNode in="displacedImage"/>
</feMerge>
</filter>
<clipPath id="clip0_40000418_4909">
<rect width="73" height="74" fill="white"/>
</clipPath>
</defs>
</svg>
