<svg width="73" height="74" viewBox="0 0 73 74" fill="none" xmlns="http://www.w3.org/2000/svg">
<g clip-path="url(#clip0_40000418_4883)">
<path d="M36.5 0.5C56.3759 0.5 72.5 16.8352 72.5 37C72.5 57.1648 56.3759 73.5 36.5 73.5C16.6241 73.5 0.5 57.1648 0.5 37C0.5 16.8352 16.6241 0.5 36.5 0.5Z" fill="#EEEDEB" stroke="#9C9C9C"/>
<g filter="url(#filter0_g_40000418_4883)">
<path d="M35.1353 33.2665C35.1353 38.9274 33.8625 43.5331 28.4361 43.5331C23.3447 43.5163 21 38.9274 21 33.2665C21 27.6057 22.725 23 28.4361 23C33.4103 23 35.1353 27.589 35.1353 33.2665Z" fill="#FBFBFB" stroke="#2C2C2C" stroke-miterlimit="10"/>
<path d="M49.2714 33.2665C49.2714 33.4675 49.2714 33.6517 49.2714 33.8527C49.2379 36.4989 48.8862 38.8604 47.9316 40.6022C46.0223 40.8031 44.381 41.9085 43.4264 43.4828C43.1584 43.5163 42.8737 43.5331 42.589 43.5331C37.4976 43.5331 35.1528 38.9441 35.1528 33.2665C35.1528 27.589 36.8611 23 42.5722 23C47.3621 23 49.1374 27.254 49.2714 32.6469C49.2714 32.8478 49.2714 33.0656 49.2714 33.2665Z" fill="#FBFBFB" stroke="#2C2C2C" stroke-miterlimit="10"/>
<path d="M45.5527 28.0721C46.7433 28.0722 47.5118 28.6021 48.0127 29.4852C48.5346 30.4056 48.7705 31.7278 48.7705 33.2665C48.7705 34.8234 48.5929 36.1417 48.1016 37.0575C47.8613 37.5053 47.5507 37.8488 47.1523 38.0829C46.7531 38.3175 46.2348 38.4608 45.5527 38.4608C44.3148 38.4608 43.4382 37.9167 42.8496 37.0204C42.2453 36.0998 41.9326 34.7832 41.9326 33.2665C41.9326 31.7261 42.1693 30.4137 42.7314 29.5009C43.2686 28.6286 44.1316 28.0721 45.5527 28.0721Z" fill="#2C2C2C" stroke="#2C2C2C"/>
<path d="M35.4956 43.047C36.5541 43.2082 37.1417 43.7715 37.4312 44.3771C37.7408 45.0251 37.7061 45.7078 37.5337 46.0587C37.5032 46.1207 37.3438 46.2765 36.9419 46.3976C36.5719 46.509 36.0986 46.5579 35.6226 46.5089C34.6519 46.4088 33.8636 45.9423 33.7017 45.0206C33.6093 44.4946 33.692 44.1435 33.8247 43.9025C33.9607 43.6556 34.1772 43.4739 34.4331 43.34C34.6906 43.2052 34.9691 43.1291 35.1899 43.088C35.2985 43.0679 35.3897 43.0569 35.4517 43.0509C35.4686 43.0493 35.4834 43.0479 35.4956 43.047Z" fill="#93D1E0" stroke="#2C2C2C"/>
<path d="M44.8492 46.2295C44.8492 46.2295 41.4326 54.2183 31.501 49.6796" stroke="#2C2C2C" stroke-miterlimit="10" stroke-linecap="round"/>
<path d="M47.9136 40.6021C48.1313 40.5686 48.3658 40.5519 48.5835 40.5519C50.8277 40.5519 52.7873 41.7745 53.8256 43.5833" stroke="#2C2C2C" stroke-miterlimit="10" stroke-linecap="round"/>
<path d="M43.4088 43.4828L43.3418 43.5833" stroke="#2C2C2C" stroke-miterlimit="10" stroke-linecap="round"/>
<path d="M25.7389 29.113C28.6698 28.9957 32.3544 30.3188 33.5602 33.6852C33.6105 33.8526 33.4933 34.0201 33.309 34.0034C32.0697 33.9699 29.6412 33.6349 25.7222 37.3865" stroke="#2C2C2C" stroke-miterlimit="10" stroke-linecap="round"/>
<path d="M35.1353 51.0696C35.1353 51.0696 37.614 55.5748 41.0976 54.9384C44.5811 54.3019 44.1122 47.4688 44.1122 47.4688" stroke="#2C2C2C" stroke-miterlimit="10" stroke-linecap="round"/>
</g>
</g>
<defs>
<filter id="filter0_g_40000418_4883" x="20.1" y="22.1" width="34.6257" height="33.8004" filterUnits="userSpaceOnUse" color-interpolation-filters="sRGB">
<feFlood flood-opacity="0" result="BackgroundImageFix"/>
<feBlend mode="normal" in="SourceGraphic" in2="BackgroundImageFix" result="shape"/>
<feTurbulence type="fractalNoise" baseFrequency="0.66666668653488159 0.66666668653488159" numOctaves="3" seed="7043" />
<feDisplacementMap in="shape" scale="0.80000001192092896" xChannelSelector="R" yChannelSelector="G" result="displacedImage" width="100%" height="100%" />
<feMerge result="effect1_texture_40000418_4883">
<feMergeNode in="displacedImage"/>
</feMerge>
</filter>
<clipPath id="clip0_40000418_4883">
<rect width="73" height="74" fill="white"/>
</clipPath>
</defs>
</svg>
