<svg width="46" height="98" viewBox="0 0 46 98" fill="none" xmlns="http://www.w3.org/2000/svg">
<path d="M23.2148 38C31.8273 38.0002 38.9697 43.8947 38.9697 51.3311C38.9697 53.1468 38.5425 54.8792 37.7666 56.4521C36.142 59.7547 36.4846 63.6358 38.2988 66.9043C39.3029 68.7112 39.8633 70.7317 39.8633 72.8662C39.8633 74.6412 39.4747 76.3329 38.7676 77.8945C37.366 80.9899 37.502 84.5213 39.2998 87.375L39.3008 87.376C40.655 89.5304 41.4287 91.9897 41.4287 94.6094C41.4287 95.5991 41.3179 96.565 41.1084 97.5H5.32031C5.11082 96.565 5 95.5991 5 94.6094C5.00006 91.9899 5.77388 89.5231 7.12891 87.375L7.29199 87.1055C8.93326 84.3009 9.01899 80.8933 7.66113 77.8945C6.95403 76.3329 6.56543 74.6412 6.56543 72.8662C6.56543 70.7234 7.13357 68.7032 8.13672 66.8906V66.8896C9.95053 63.6289 10.2932 59.7488 8.66895 56.4463L8.52734 56.1494C7.84104 54.6563 7.46586 53.027 7.46582 51.3311C7.46582 43.8948 14.6018 38 23.2148 38Z" fill="#EEEDEB"/>
<path d="M23.2148 38L23.2149 37.5H23.2148V38ZM38.9697 51.3311L39.4697 51.3311V51.3311H38.9697ZM37.7666 56.4521L37.3182 56.231L37.3179 56.2314L37.7666 56.4521ZM38.2988 66.9043L37.8617 67.147L37.8618 67.1472L38.2988 66.9043ZM39.8633 72.8662H40.3633H39.8633ZM38.7676 77.8945L39.2231 78.1008L39.2231 78.1008L38.7676 77.8945ZM39.2998 87.375L38.8768 87.6415L38.9066 87.6889L38.9463 87.7286L39.2998 87.375ZM39.3008 87.376L39.7241 87.1099L39.6941 87.0622L39.6543 87.0224L39.3008 87.376ZM41.4287 94.6094H41.9287V94.6094L41.4287 94.6094ZM41.1084 97.5V98H41.5088L41.5963 97.6093L41.1084 97.5ZM5.32031 97.5L4.83241 97.6093L4.91995 98H5.32031V97.5ZM5 94.6094L4.5 94.6094V94.6094H5ZM7.12891 87.375L7.55187 87.6418L7.55669 87.6338L7.12891 87.375ZM7.29199 87.1055L7.71982 87.3643L7.72353 87.358L7.29199 87.1055ZM7.66113 77.8945L7.20565 78.1008L7.20565 78.1008L7.66113 77.8945ZM6.56543 72.8662H6.06543H6.56543ZM8.13672 66.8906L8.57419 67.1327L8.63672 67.0198V66.8906H8.13672ZM8.13672 66.8896L7.69977 66.6466L7.63672 66.7599V66.8896H8.13672ZM8.66895 56.4463L8.21762 56.6616L8.22027 56.667L8.66895 56.4463ZM8.52734 56.1494L8.07299 56.3583L8.07605 56.3647L8.52734 56.1494ZM7.46582 51.3311H6.96582V51.3311L7.46582 51.3311ZM23.2148 38L23.2148 38.5C31.6366 38.5002 38.4697 44.2491 38.4697 51.3311H38.9697H39.4697C39.4697 43.5402 32.018 37.5002 23.2149 37.5L23.2148 38ZM38.9697 51.3311L38.4697 51.331C38.4697 53.0671 38.0615 54.7241 37.3182 56.231L37.7666 56.4521L38.215 56.6733C39.0235 55.0343 39.4697 53.2265 39.4697 51.3311L38.9697 51.3311ZM37.7666 56.4521L37.3179 56.2314C35.6095 59.7046 35.9816 63.7598 37.8617 67.147L38.2988 66.9043L38.736 66.6616C36.9876 63.5117 36.6746 59.8048 38.2153 56.6728L37.7666 56.4521ZM38.2988 66.9043L37.8618 67.1472C38.8268 68.8838 39.3633 70.8212 39.3633 72.8662H39.8633H40.3633C40.3633 70.6423 39.7791 68.5387 38.7359 66.6614L38.2988 66.9043ZM39.8633 72.8662H39.3633C39.3633 74.5668 38.9912 76.1884 38.3121 77.6883L38.7676 77.8945L39.2231 78.1008C39.9581 76.4774 40.3633 74.7155 40.3633 72.8662H39.8633ZM38.7676 77.8945L38.3121 77.6883C36.8466 80.9247 36.9826 84.6349 38.8768 87.6415L39.2998 87.375L39.7229 87.1085C38.0214 84.4077 37.8853 81.0552 39.2231 78.1008L38.7676 77.8945ZM39.2998 87.375L38.9463 87.7286L38.9472 87.7295L39.3008 87.376L39.6543 87.0224L39.6534 87.0214L39.2998 87.375ZM39.3008 87.376L38.8775 87.6421C40.1854 89.7229 40.9287 92.0908 40.9287 94.6094L41.4287 94.6094L41.9287 94.6094C41.9287 91.8885 41.1246 89.3379 39.7241 87.1099L39.3008 87.376ZM41.4287 94.6094H40.9287C40.9287 95.5616 40.8221 96.4909 40.6205 97.3907L41.1084 97.5L41.5963 97.6093C41.8137 96.6392 41.9287 95.6366 41.9287 94.6094H41.4287ZM41.1084 97.5V97H5.32031V97.5V98H41.1084V97.5ZM5.32031 97.5L5.80821 97.3907C5.6066 96.4909 5.5 95.5616 5.5 94.6094H5H4.5C4.5 95.6366 4.61504 96.6392 4.83241 97.6093L5.32031 97.5ZM5 94.6094L5.5 94.6094C5.50005 92.0907 6.24363 89.7156 7.5518 87.6418L7.12891 87.375L6.70601 87.1082C5.30413 89.3306 4.50006 91.8891 4.5 94.6094L5 94.6094ZM7.12891 87.375L7.55669 87.6338L7.71978 87.3643L7.29199 87.1055L6.86421 86.8466L6.70112 87.1162L7.12891 87.375ZM7.29199 87.1055L7.72353 87.358C9.45274 84.4032 9.53631 80.8236 8.11661 77.6883L7.66113 77.8945L7.20565 78.1008C8.50167 80.9629 8.41379 84.1987 6.86046 86.8529L7.29199 87.1055ZM7.66113 77.8945L8.11662 77.6883C7.43749 76.1884 7.06543 74.5668 7.06543 72.8662H6.56543H6.06543C6.06543 74.7155 6.47057 76.4774 7.20565 78.1008L7.66113 77.8945ZM6.56543 72.8662H7.06543C7.06543 70.814 7.6091 68.8766 8.57419 67.1327L8.13672 66.8906L7.69925 66.6485C6.65804 68.5299 6.06543 70.6328 6.06543 72.8662H6.56543ZM8.13672 66.8906H8.63672V66.8896H8.13672H7.63672V66.8906H8.13672ZM8.13672 66.8896L8.57367 67.1327C10.4537 63.7529 10.8257 59.6986 9.11762 56.2256L8.66895 56.4463L8.22027 56.667C9.76069 59.799 9.44738 63.5048 7.69977 66.6466L8.13672 66.8896ZM8.66895 56.4463L9.12024 56.231L8.97864 55.9342L8.52734 56.1494L8.07605 56.3647L8.21765 56.6615L8.66895 56.4463ZM8.52734 56.1494L8.98165 55.9406C8.32436 54.5106 7.96586 52.9524 7.96582 51.331L7.46582 51.3311L6.96582 51.3311C6.96586 53.1017 7.35773 54.802 8.07304 56.3582L8.52734 56.1494ZM7.46582 51.3311H7.96582C7.96582 44.249 14.7928 38.5 23.2148 38.5V38V37.5C14.4108 37.5 6.96582 43.5406 6.96582 51.3311H7.46582Z" fill="#9C9C9C"/>
<path d="M23.2098 51.598C23.2098 54.1333 22.6419 56.196 20.221 56.196C17.9494 56.196 16.9033 54.1408 16.9033 51.598C16.9033 49.0552 17.673 47 20.221 47C22.4402 47 23.2098 49.0552 23.2098 51.598Z" fill="#FBFBFB" stroke="#2C2C2C" stroke-miterlimit="10"/>
<path d="M29.5168 51.598C29.5168 51.688 29.5168 51.7705 29.5168 51.8605C29.5018 53.0456 29.3449 54.1033 28.919 54.8833C28.0672 54.9733 27.3349 55.4684 26.909 56.1735C26.7895 56.1885 26.6624 56.196 26.5354 56.196C24.2639 56.196 23.2178 54.1408 23.2178 51.598C23.2178 49.0552 23.9949 47 26.5354 47C28.6724 47 29.4645 48.9052 29.5243 51.3205C29.5243 51.4105 29.5243 51.508 29.5243 51.598H29.5168Z" fill="#FBFBFB" stroke="#2C2C2C" stroke-miterlimit="10"/>
<path d="M23.2099 51.852C23.2099 53.2622 22.896 54.4023 21.551 54.4023C20.2882 54.4023 19.7129 53.2622 19.7129 51.852C19.7129 50.4419 20.1388 49.3018 21.551 49.3018C22.7839 49.3018 23.2099 50.4419 23.2099 51.852Z" fill="#2C2C2C"/>
<path d="M29.5165 51.5971C29.5165 53.0073 29.2027 54.1474 27.8577 54.1474C26.5949 54.1474 26.0195 53.0073 26.0195 51.5971C26.0195 50.187 26.4454 49.0469 27.8577 49.0469C29.0906 49.0469 29.5165 50.187 29.5165 51.5971Z" fill="#2C2C2C"/>
<path d="M23.3594 56.2568C23.7176 56.3202 23.896 56.5059 23.9844 56.6914C24.0789 56.8899 24.0672 57.0794 24.041 57.1709C24.0228 57.1809 23.9902 57.1973 23.9355 57.2139C23.8077 57.2525 23.6339 57.2723 23.4561 57.2539C23.0827 57.2153 22.8855 57.0526 22.8438 56.8145C22.8115 56.63 22.8438 56.5377 22.8682 56.4932C22.8958 56.4429 22.9456 56.3959 23.0264 56.3535C23.1086 56.3103 23.2033 56.2829 23.2852 56.2676C23.3142 56.2622 23.3397 56.2591 23.3594 56.2568Z" fill="#EEEDEB" stroke="#2C2C2C"/>
<path d="M28.9102 54.8829C29.0073 54.8679 29.1119 54.8604 29.209 54.8604C30.2103 54.8604 31.0845 55.4079 31.5478 56.218" stroke="#2C2C2C" stroke-miterlimit="10" stroke-linecap="round"/>
<path d="M26.9018 56.1729L26.8711 56.2191" stroke="#2C2C2C" stroke-miterlimit="10" stroke-linecap="round"/>
</svg>
