<svg width="46" height="98" viewBox="0 0 46 98" fill="none" xmlns="http://www.w3.org/2000/svg">
<rect x="10.8652" y="24.5" width="24.7539" height="72.9916" fill="#93D1E0" stroke="#2C2C2C"/>
<path d="M40.4287 57.1097C40.4287 65.3334 32.4937 72 22.7144 72C12.935 72 5 65.3334 5 57.1097C5 54.5909 5.74346 52.2156 7.05167 50.1417C8.94606 47.1349 9.08188 43.4249 7.61641 40.1885C6.93728 38.6887 6.56555 37.0669 6.56555 35.3662C6.56555 33.3138 7.10885 31.3763 8.07392 29.6325C9.95402 26.2526 10.3257 22.1981 8.61722 18.7249C7.87376 17.2179 7.46629 15.5602 7.46629 13.8308C7.46629 6.74803 14.2933 1 22.7144 1C31.1355 1 37.9696 6.74803 37.9696 13.8308C37.9696 15.5674 37.5621 17.2251 36.8187 18.7321C35.1101 22.2053 35.4819 26.2598 37.362 29.6469C38.327 31.3835 38.8632 33.321 38.8632 35.3662C38.8632 37.0669 38.4915 38.6887 37.8123 40.1885C36.3469 43.4249 36.4827 47.1349 38.3771 50.1417C39.6853 52.2228 40.4287 54.5909 40.4287 57.1097Z" fill="#93D1E0" stroke="#2C2C2C" stroke-miterlimit="10"/>
<path d="M22.2098 14.181C22.2098 16.7163 21.6419 18.779 19.221 18.779C16.9494 18.779 15.9033 16.7238 15.9033 14.181C15.9033 11.6382 16.673 9.58301 19.221 9.58301C21.4402 9.58301 22.2098 11.6382 22.2098 14.181Z" fill="#FBFBFB" stroke="#2C2C2C" stroke-miterlimit="10"/>
<path d="M28.5168 14.181C28.5168 14.271 28.5168 14.3535 28.5168 14.4435C28.5018 15.6286 28.3449 16.6863 27.919 17.4663C27.0672 17.5564 26.3349 18.0514 25.909 18.7565C25.7895 18.7715 25.6624 18.779 25.5354 18.779C23.2639 18.779 22.2178 16.7238 22.2178 14.181C22.2178 11.6382 22.9949 9.58301 25.5354 9.58301C27.6724 9.58301 28.4645 11.4882 28.5243 13.9035C28.5243 13.9935 28.5243 14.091 28.5243 14.181H28.5168Z" fill="#FBFBFB" stroke="#2C2C2C" stroke-miterlimit="10"/>
<path d="M22.2099 14.435C22.2099 15.8452 21.896 16.9853 20.551 16.9853C19.2882 16.9853 18.7129 15.8452 18.7129 14.435C18.7129 13.0249 19.1388 11.8848 20.551 11.8848C21.7839 11.8848 22.2099 13.0249 22.2099 14.435Z" fill="#2C2C2C"/>
<path d="M28.5165 14.1802C28.5165 15.5903 28.2027 16.7304 26.8577 16.7304C25.5949 16.7304 25.0195 15.5903 25.0195 14.1802C25.0195 12.77 25.4454 11.6299 26.8577 11.6299C28.0906 11.6299 28.5165 12.77 28.5165 14.1802Z" fill="#2C2C2C"/>
<path d="M22.3594 18.8398C22.7176 18.9032 22.896 19.0889 22.9844 19.2744C23.0789 19.4729 23.0672 19.6624 23.041 19.7539C23.0228 19.7639 22.9902 19.7803 22.9355 19.7969C22.8077 19.8355 22.6339 19.8553 22.4561 19.8369C22.0827 19.7983 21.8855 19.6356 21.8438 19.3975C21.8115 19.213 21.8438 19.1207 21.8682 19.0762C21.8958 19.0259 21.9456 18.979 22.0264 18.9365C22.1086 18.8933 22.2033 18.8659 22.2852 18.8506C22.3142 18.8452 22.3397 18.8421 22.3594 18.8398Z" fill="#93D1E0" stroke="#2C2C2C"/>
<path d="M27.9102 17.4659C28.0073 17.4509 28.1119 17.4434 28.209 17.4434C29.2103 17.4434 30.0845 17.9909 30.5478 18.801" stroke="#2C2C2C" stroke-miterlimit="10" stroke-linecap="round"/>
<path d="M25.9018 18.7559L25.8711 18.8021" stroke="#2C2C2C" stroke-miterlimit="10" stroke-linecap="round"/>
</svg>
