<svg width="46" height="98" viewBox="0 0 46 98" fill="none" xmlns="http://www.w3.org/2000/svg">
<path d="M23.2148 72C31.8273 72.0002 38.9697 77.8947 38.9697 85.3311C38.9697 87.1468 38.5425 88.8792 37.7666 90.4521C36.6798 92.6615 36.4744 95.1295 37 97.5H9.43359C9.96157 95.1294 9.75688 92.6584 8.66895 90.4463L8.52734 90.1494C7.84104 88.6563 7.46586 87.027 7.46582 85.3311C7.46582 77.8948 14.6018 72 23.2148 72Z" fill="#EEEDEB"/>
<path d="M23.2148 72L23.2149 71.5H23.2148V72ZM38.9697 85.3311L39.4697 85.3311V85.3311H38.9697ZM37.7666 90.4521L37.3182 90.231L37.3179 90.2314L37.7666 90.4521ZM37 97.5V98H37.623L37.4881 97.3918L37 97.5ZM9.43359 97.5L8.94555 97.3913L8.80999 98H9.43359V97.5ZM8.66895 90.4463L8.21762 90.6616L8.22027 90.667L8.66895 90.4463ZM8.52734 90.1494L8.07299 90.3583L8.07605 90.3647L8.52734 90.1494ZM7.46582 85.3311H6.96582V85.3311L7.46582 85.3311ZM23.2148 72L23.2148 72.5C31.6366 72.5002 38.4697 78.2491 38.4697 85.3311H38.9697H39.4697C39.4697 77.5402 32.018 71.5002 23.2149 71.5L23.2148 72ZM38.9697 85.3311L38.4697 85.331C38.4697 87.0671 38.0615 88.7241 37.3182 90.231L37.7666 90.4521L38.215 90.6733C39.0235 89.0343 39.4697 87.2265 39.4697 85.3311L38.9697 85.3311ZM37.7666 90.4521L37.3179 90.2314C36.1756 92.5537 35.9645 95.1393 36.5119 97.6082L37 97.5L37.4881 97.3918C36.9844 95.1197 37.184 92.7693 38.2153 90.6728L37.7666 90.4521ZM37 97.5V97H9.43359V97.5V98H37V97.5ZM9.43359 97.5L9.92164 97.6087C10.4716 95.1394 10.2611 92.5507 9.11762 90.2256L8.66895 90.4463L8.22027 90.667C9.25265 92.7661 9.45155 95.1193 8.94555 97.3913L9.43359 97.5ZM8.66895 90.4463L9.12024 90.231L8.97864 89.9342L8.52734 90.1494L8.07605 90.3647L8.21765 90.6615L8.66895 90.4463ZM8.52734 90.1494L8.98165 89.9406C8.32436 88.5106 7.96586 86.9524 7.96582 85.331L7.46582 85.3311L6.96582 85.3311C6.96586 87.1017 7.35773 88.802 8.07304 90.3582L8.52734 90.1494ZM7.46582 85.3311H7.96582C7.96582 78.249 14.7928 72.5 23.2148 72.5V72V71.5C14.4108 71.5 6.96582 77.5406 6.96582 85.3311H7.46582Z" fill="#9C9C9C"/>
<path d="M23.2098 85.598C23.2098 88.1333 22.6419 90.196 20.221 90.196C17.9494 90.196 16.9033 88.1408 16.9033 85.598C16.9033 83.0552 17.673 81 20.221 81C22.4402 81 23.2098 83.0552 23.2098 85.598Z" fill="#FBFBFB" stroke="#2C2C2C" stroke-miterlimit="10"/>
<path d="M29.5168 85.598C29.5168 85.688 29.5168 85.7705 29.5168 85.8605C29.5018 87.0456 29.3449 88.1033 28.919 88.8833C28.0672 88.9733 27.3349 89.4684 26.909 90.1735C26.7895 90.1885 26.6624 90.196 26.5354 90.196C24.2639 90.196 23.2178 88.1408 23.2178 85.598C23.2178 83.0552 23.9949 81 26.5354 81C28.6724 81 29.4645 82.9052 29.5243 85.3205C29.5243 85.4105 29.5243 85.508 29.5243 85.598H29.5168Z" fill="#FBFBFB" stroke="#2C2C2C" stroke-miterlimit="10"/>
<path d="M23.2099 85.852C23.2099 87.2622 22.896 88.4023 21.551 88.4023C20.2882 88.4023 19.7129 87.2622 19.7129 85.852C19.7129 84.4419 20.1388 83.3018 21.551 83.3018C22.7839 83.3018 23.2099 84.4419 23.2099 85.852Z" fill="#2C2C2C"/>
<path d="M29.5165 85.5971C29.5165 87.0073 29.2027 88.1474 27.8577 88.1474C26.5949 88.1474 26.0195 87.0073 26.0195 85.5971C26.0195 84.187 26.4454 83.0469 27.8577 83.0469C29.0906 83.0469 29.5165 84.187 29.5165 85.5971Z" fill="#2C2C2C"/>
<path d="M23.3594 90.2568C23.7176 90.3202 23.896 90.5059 23.9844 90.6914C24.0789 90.8899 24.0672 91.0794 24.041 91.1709C24.0228 91.1809 23.9902 91.1973 23.9355 91.2139C23.8077 91.2525 23.6339 91.2723 23.4561 91.2539C23.0827 91.2153 22.8855 91.0526 22.8438 90.8145C22.8115 90.63 22.8438 90.5377 22.8682 90.4932C22.8958 90.4429 22.9456 90.3959 23.0264 90.3535C23.1086 90.3103 23.2033 90.2829 23.2852 90.2676C23.3142 90.2622 23.3397 90.2591 23.3594 90.2568Z" fill="#EEEDEB" stroke="#2C2C2C"/>
<path d="M28.9102 88.8829C29.0073 88.8679 29.1119 88.8604 29.209 88.8604C30.2103 88.8604 31.0845 89.4079 31.5478 90.218" stroke="#2C2C2C" stroke-miterlimit="10" stroke-linecap="round"/>
<path d="M26.9018 90.1729L26.8711 90.2191" stroke="#2C2C2C" stroke-miterlimit="10" stroke-linecap="round"/>
</svg>
