<svg width="46" height="98" viewBox="0 0 46 98" fill="none" xmlns="http://www.w3.org/2000/svg">
<rect x="10.8652" y="24.5" width="24.7539" height="72.9916" fill="#EEEDEB" stroke="#9C9C9C"/>
<path d="M40.4287 75.1097C40.4287 83.3334 32.4937 90 22.7144 90C12.935 90 5 83.3334 5 75.1097C5 72.5909 5.74346 70.2156 7.05167 68.1417C8.94606 65.1349 9.08188 61.4249 7.61641 58.1885C6.93728 56.6887 6.56555 55.0669 6.56555 53.3662C6.56555 51.3138 7.10885 49.3763 8.07392 47.6325C9.95402 44.2526 10.3257 40.1981 8.61722 36.7249C7.87376 35.2179 7.46629 33.5602 7.46629 31.8308C7.46629 24.748 14.2933 19 22.7144 19C31.1355 19 37.9696 24.748 37.9696 31.8308C37.9696 33.5674 37.5621 35.2251 36.8187 36.7321C35.1101 40.2053 35.4819 44.2598 37.362 47.6469C38.327 49.3835 38.8632 51.321 38.8632 53.3662C38.8632 55.0669 38.4915 56.6887 37.8123 58.1885C36.3469 61.4249 36.4827 65.1349 38.3771 68.1417C39.6853 70.2228 40.4287 72.5909 40.4287 75.1097Z" fill="#EEEDEB" stroke="#9C9C9C" stroke-miterlimit="10"/>
<path d="M22.2098 32.181C22.2098 34.7163 21.6419 36.779 19.221 36.779C16.9494 36.779 15.9033 34.7238 15.9033 32.181C15.9033 29.6382 16.673 27.583 19.221 27.583C21.4402 27.583 22.2098 29.6382 22.2098 32.181Z" fill="#FBFBFB" stroke="#2C2C2C" stroke-miterlimit="10"/>
<path d="M28.5168 32.181C28.5168 32.271 28.5168 32.3535 28.5168 32.4435C28.5018 33.6286 28.3449 34.6863 27.919 35.4663C27.0672 35.5564 26.3349 36.0514 25.909 36.7565C25.7895 36.7715 25.6624 36.779 25.5354 36.779C23.2639 36.779 22.2178 34.7238 22.2178 32.181C22.2178 29.6382 22.9949 27.583 25.5354 27.583C27.6724 27.583 28.4645 29.4882 28.5243 31.9035C28.5243 31.9935 28.5243 32.091 28.5243 32.181H28.5168Z" fill="#FBFBFB" stroke="#2C2C2C" stroke-miterlimit="10"/>
<path d="M22.2099 32.435C22.2099 33.8452 21.896 34.9853 20.551 34.9853C19.2882 34.9853 18.7129 33.8452 18.7129 32.435C18.7129 31.0249 19.1388 29.8848 20.551 29.8848C21.7839 29.8848 22.2099 31.0249 22.2099 32.435Z" fill="#2C2C2C"/>
<path d="M28.5165 32.1802C28.5165 33.5903 28.2027 34.7304 26.8577 34.7304C25.5949 34.7304 25.0195 33.5903 25.0195 32.1802C25.0195 30.77 25.4454 29.6299 26.8577 29.6299C28.0906 29.6299 28.5165 30.77 28.5165 32.1802Z" fill="#2C2C2C"/>
<path d="M22.3594 36.8398C22.7176 36.9032 22.896 37.0889 22.9844 37.2744C23.0789 37.4729 23.0672 37.6624 23.041 37.7539C23.0228 37.7639 22.9902 37.7803 22.9355 37.7969C22.8077 37.8355 22.6339 37.8553 22.4561 37.8369C22.0827 37.7983 21.8855 37.6356 21.8438 37.3975C21.8115 37.213 21.8438 37.1207 21.8682 37.0762C21.8958 37.0259 21.9456 36.979 22.0264 36.9365C22.1086 36.8933 22.2033 36.8659 22.2852 36.8506C22.3142 36.8452 22.3397 36.8421 22.3594 36.8398Z" fill="#EEEDEB" stroke="#2C2C2C"/>
<path d="M27.9102 35.4659C28.0073 35.4509 28.1119 35.4434 28.209 35.4434C29.2103 35.4434 30.0845 35.9909 30.5478 36.801" stroke="#2C2C2C" stroke-miterlimit="10" stroke-linecap="round"/>
<path d="M25.9018 36.7559L25.8711 36.8021" stroke="#2C2C2C" stroke-miterlimit="10" stroke-linecap="round"/>
</svg>
