<svg width="37" height="73" viewBox="0 0 37 73" fill="none" xmlns="http://www.w3.org/2000/svg">
<path d="M36.4287 57.1097C36.4287 65.3334 28.4937 72 18.7144 72C8.93501 72 1 65.3334 1 57.1097C1 54.5909 1.74346 52.2156 3.05167 50.1417C4.94606 47.1349 5.08188 43.4249 3.61641 40.1885C2.93728 38.6887 2.56555 37.0669 2.56555 35.3662C2.56555 33.3138 3.10885 31.3763 4.07392 29.6325C5.95402 26.2526 6.32575 22.1981 4.61722 18.7249C3.87376 17.2179 3.46629 15.5602 3.46629 13.8308C3.46629 6.74803 10.2933 1 18.7144 1C27.1355 1 33.9696 6.74803 33.9696 13.8308C33.9696 15.5674 33.5621 17.2251 32.8187 18.7321C31.1101 22.2053 31.4819 26.2598 33.362 29.6469C34.327 31.3835 34.8632 33.321 34.8632 35.3662C34.8632 37.0669 34.4915 38.6887 33.8123 40.1885C32.3469 43.4249 32.4827 47.1349 34.3771 50.1417C35.6853 52.2228 36.4287 54.5909 36.4287 57.1097Z" fill="#EEEDEB" stroke="#9C9C9C" stroke-miterlimit="10"/>
<path d="M18.2098 14.181C18.2098 16.7163 17.6419 18.779 15.221 18.779C12.9494 18.779 11.9033 16.7238 11.9033 14.181C11.9033 11.6382 12.673 9.58301 15.221 9.58301C17.4402 9.58301 18.2098 11.6382 18.2098 14.181Z" fill="#FBFBFB" stroke="#2C2C2C" stroke-miterlimit="10"/>
<path d="M24.5168 14.181C24.5168 14.271 24.5168 14.3535 24.5168 14.4435C24.5018 15.6286 24.3449 16.6863 23.919 17.4663C23.0672 17.5564 22.3349 18.0514 21.909 18.7565C21.7895 18.7715 21.6624 18.779 21.5354 18.779C19.2639 18.779 18.2178 16.7238 18.2178 14.181C18.2178 11.6382 18.9949 9.58301 21.5354 9.58301C23.6724 9.58301 24.4645 11.4882 24.5243 13.9035C24.5243 13.9935 24.5243 14.091 24.5243 14.181H24.5168Z" fill="#FBFBFB" stroke="#2C2C2C" stroke-miterlimit="10"/>
<path d="M18.2099 14.435C18.2099 15.8452 17.896 16.9853 16.551 16.9853C15.2882 16.9853 14.7129 15.8452 14.7129 14.435C14.7129 13.0249 15.1388 11.8848 16.551 11.8848C17.7839 11.8848 18.2099 13.0249 18.2099 14.435Z" fill="#2C2C2C"/>
<path d="M24.5165 14.1802C24.5165 15.5903 24.2027 16.7304 22.8577 16.7304C21.5949 16.7304 21.0195 15.5903 21.0195 14.1802C21.0195 12.77 21.4454 11.6299 22.8577 11.6299C24.0906 11.6299 24.5165 12.77 24.5165 14.1802Z" fill="#2C2C2C"/>
<path d="M18.3594 18.8398C18.7176 18.9032 18.896 19.0889 18.9844 19.2744C19.0789 19.4729 19.0672 19.6624 19.041 19.7539C19.0228 19.7639 18.9902 19.7803 18.9355 19.7969C18.8077 19.8355 18.6339 19.8553 18.4561 19.8369C18.0827 19.7983 17.8855 19.6356 17.8438 19.3975C17.8115 19.213 17.8438 19.1207 17.8682 19.0762C17.8958 19.0259 17.9456 18.979 18.0264 18.9365C18.1086 18.8933 18.2033 18.8659 18.2852 18.8506C18.3142 18.8452 18.3397 18.8421 18.3594 18.8398Z" fill="#EEEDEB" stroke="#2C2C2C"/>
<path d="M23.9102 17.4659C24.0073 17.4509 24.1119 17.4434 24.209 17.4434C25.2103 17.4434 26.0845 17.9909 26.5478 18.801" stroke="#2C2C2C" stroke-miterlimit="10" stroke-linecap="round"/>
<path d="M21.9018 18.7559L21.8711 18.8021" stroke="#2C2C2C" stroke-miterlimit="10" stroke-linecap="round"/>
</svg>
