<svg width="62" height="62" viewBox="0 0 62 62" fill="none" xmlns="http://www.w3.org/2000/svg">
<g clip-path="url(#clip0_40000418_5114)">
<circle cx="31" cy="31" r="30.5753" fill="#93D1E0" stroke="#5C5C5C" stroke-width="0.849315"/>
<path d="M31.2968 28.004C31.2968 32.651 30.2376 36.4318 25.7221 36.4318C21.4853 36.4318 19.5342 32.6647 19.5342 28.004C19.5342 23.3433 20.9697 19.5762 25.7221 19.5762C29.8614 19.5762 31.2968 23.3433 31.2968 28.004Z" fill="#FBFBFB" stroke="#2C2C2C" stroke-width="0.849315" stroke-miterlimit="10"/>
<path d="M43.0598 28.004C43.0598 28.1552 43.0598 28.3202 43.0459 28.4852C43.018 30.6437 42.7253 32.596 41.9309 34.0258C40.3421 34.1908 38.9763 35.0982 38.1819 36.3905C37.9589 36.418 37.722 36.418 37.4711 36.418C33.318 36.418 31.3668 32.8022 31.2971 28.2927C31.2832 28.1964 31.2832 28.1002 31.2832 28.004C31.2832 27.8665 31.2832 27.7152 31.2971 27.5778C31.3529 24.2644 32.203 21.4597 34.5026 20.2361C36.1471 22.2296 38.7951 24.4019 42.8647 25.378C42.9762 26.0517 43.0319 26.7666 43.0459 27.4953C43.0598 27.6603 43.0598 27.839 43.0598 28.004Z" fill="#FBFBFB" stroke="#2C2C2C" stroke-width="0.849315" stroke-miterlimit="10"/>
<path d="M23.6597 26.3115C24.6499 26.3116 25.2867 26.7466 25.7007 27.4668C26.1327 28.2186 26.3286 29.3002 26.3286 30.5615C26.3286 31.8388 26.1807 32.9173 25.7739 33.665C25.5752 34.0302 25.3178 34.3097 24.9878 34.501C24.6567 34.6928 24.2268 34.8105 23.6597 34.8105C22.6299 34.8105 21.9027 34.3647 21.4155 33.6328C20.915 32.8807 20.6558 31.8039 20.6558 30.5615C20.6558 29.2986 20.8525 28.225 21.3179 27.4795C21.7621 26.7681 22.4773 26.3115 23.6597 26.3115Z" fill="#2C2C2C" stroke="#2C2C2C" stroke-width="0.849315"/>
<path d="M35.4224 25.8303C36.4126 25.8304 37.0494 26.2654 37.4634 26.9856C37.8954 27.7374 38.0913 28.819 38.0913 30.0803C38.0913 31.3576 37.9434 32.4361 37.5366 33.1838C37.3379 33.549 37.0805 33.8285 36.7505 34.0198C36.4194 34.2116 35.9895 34.3293 35.4224 34.3293C34.3926 34.3293 33.6654 33.8835 33.1782 33.1516C32.6777 32.3995 32.4185 31.3227 32.4185 30.0803C32.4185 28.8174 32.6152 27.7438 33.0806 26.9983C33.5247 26.2869 34.24 25.8303 35.4224 25.8303Z" fill="#2C2C2C" stroke="#2C2C2C" stroke-width="0.849315"/>
<path d="M42.865 25.378C38.7955 24.4019 36.1475 22.2296 34.5029 20.2361C35.3113 19.8099 36.2868 19.5762 37.4715 19.5762C40.7884 19.5762 42.3772 22.0097 42.865 25.378Z" stroke="#2C2C2C" stroke-width="0.849315" stroke-miterlimit="10" stroke-linecap="round"/>
<path d="M44.2584 25.6529C43.7706 25.5704 43.3107 25.4879 42.8647 25.3779" stroke="#2C2C2C" stroke-width="0.849315" stroke-miterlimit="10" stroke-linecap="round"/>
<path d="M32.0356 15.9189C32.0356 15.9189 32.6489 17.9812 34.5025 20.236" stroke="#2C2C2C" stroke-width="0.849315" stroke-miterlimit="10" stroke-linecap="round"/>
<path d="M31.5332 35.7466C32.4093 35.8777 32.8927 36.3354 33.1299 36.8247C33.3842 37.3496 33.3544 37.9012 33.2148 38.1812C33.1922 38.2258 33.0647 38.3519 32.7324 38.4507C32.4269 38.5415 32.0352 38.5815 31.6416 38.5415C30.8363 38.4596 30.1934 38.0785 30.0615 37.3384C29.9858 36.913 30.0538 36.6314 30.1611 36.439C30.2716 36.2411 30.4481 36.0939 30.6592 35.9849C30.8713 35.8754 31.1007 35.8133 31.2832 35.7798C31.3731 35.7633 31.4488 35.7544 31.5 35.7495C31.5126 35.7483 31.5237 35.7473 31.5332 35.7466Z" fill="#2C2C2C" stroke="#2C2C2C" stroke-width="0.849315"/>
<path d="M41.8174 33.7329C41.9976 33.7056 42.1918 33.6919 42.372 33.6919C44.2302 33.6919 45.8525 34.6905 46.7123 36.1678" stroke="#2C2C2C" stroke-width="0.849315" stroke-miterlimit="10" stroke-linecap="round"/>
<path d="M38.0879 36.0854L38.0317 36.1686" stroke="#2C2C2C" stroke-width="0.849315" stroke-miterlimit="10" stroke-linecap="round"/>
<path d="M21.2329 40.6936C22.8592 40.6936 22.8592 44.045 24.4991 44.045C26.139 44.045 26.139 40.6936 27.7652 40.6936C29.3915 40.6936 29.4052 44.045 31.0451 44.045C32.685 44.045 32.685 40.6936 34.3249 40.6936C35.9648 40.6936 35.9648 44.045 37.6047 44.045C39.2447 44.045 39.2447 40.6936 40.8846 40.6936C42.5245 40.6936 42.5245 44.045 44.1644 44.045" stroke="#2C2C2C" stroke-width="0.849315" stroke-miterlimit="10" stroke-linecap="round"/>
</g>
<defs>
<clipPath id="clip0_40000418_5114">
<rect width="62" height="62" fill="white"/>
</clipPath>
</defs>
</svg>
