<svg width="62" height="62" viewBox="0 0 62 62" fill="none" xmlns="http://www.w3.org/2000/svg">
<g clip-path="url(#clip0_40000418_4871)">
<circle cx="31" cy="31" r="30.5753" fill="#93D1E0" stroke="#5C5C5C" stroke-width="0.849315"/>
<path d="M31.1198 28.1796C31.1198 33.0921 30.0001 37.089 25.2266 37.089C20.7477 37.089 18.6851 33.1066 18.6851 28.1796C18.6851 23.2526 20.2026 19.2703 25.2266 19.2703C29.6023 19.2703 31.1198 23.2526 31.1198 28.1796Z" fill="#FBFBFB" stroke="#2C2C2C" stroke-width="0.849315" stroke-miterlimit="10"/>
<path d="M43.5543 28.1796C43.5543 28.354 43.5543 28.5139 43.5543 28.6883C43.5248 30.9847 43.2154 33.034 42.3756 34.5455C40.6961 34.7199 39.2522 35.6792 38.4124 37.0454C38.1767 37.0744 37.9262 37.089 37.6758 37.089C33.1969 37.089 31.1343 33.1066 31.1343 28.1796C31.1343 23.2526 32.6665 19.2703 37.6758 19.2703C41.8895 19.2703 43.4512 22.9619 43.569 27.6419C43.569 27.8163 43.569 28.0052 43.569 28.1796H43.5543Z" fill="#FBFBFB" stroke="#2C2C2C" stroke-width="0.849315" stroke-miterlimit="10"/>
<path d="M27.8481 24.1569C28.9042 24.1569 29.585 24.6217 30.0269 25.3903C30.4867 26.1903 30.6948 27.3383 30.6948 28.6735C30.6948 30.0247 30.538 31.1703 30.105 31.9664C29.8932 32.3557 29.6184 32.6552 29.2651 32.86C28.9108 33.0654 28.4512 33.1901 27.8481 33.1901C26.7514 33.19 25.9758 32.7142 25.4565 31.9342C24.9238 31.1337 24.6489 29.9898 24.6489 28.6735C24.6489 27.3368 24.8565 26.1967 25.3521 25.403C25.8263 24.6432 26.5906 24.1569 27.8481 24.1569Z" fill="#2C2C2C" stroke="#2C2C2C" stroke-width="0.849315"/>
<path d="M40.2827 23.6628C41.3388 23.6628 42.0196 24.1276 42.4614 24.8962C42.9213 25.6963 43.1294 26.8442 43.1294 28.1794C43.1294 29.5307 42.9726 30.6763 42.5396 31.4724C42.3277 31.8617 42.053 32.1612 41.6997 32.366C41.3453 32.5713 40.8858 32.696 40.2827 32.696C39.1859 32.696 38.4104 32.2202 37.8911 31.4402C37.3584 30.6397 37.0835 29.4958 37.0835 28.1794C37.0835 26.8428 37.2911 25.7027 37.7866 24.9089C38.2609 24.1492 39.0252 23.6629 40.2827 23.6628Z" fill="#2C2C2C" stroke="#2C2C2C" stroke-width="0.849315"/>
<path d="M31.4341 36.6573C32.3761 36.7972 32.8978 37.291 33.1538 37.8195C33.427 38.3832 33.3972 38.9773 33.2446 39.2833C33.216 39.3407 33.0704 39.4773 32.7144 39.5831C32.3862 39.6806 31.9667 39.7236 31.5454 39.6808C30.6846 39.5931 29.9864 39.1842 29.8433 38.381C29.7618 37.9238 29.835 37.618 29.9526 37.4073C30.0733 37.1913 30.2653 37.0316 30.4927 36.9142C30.7213 36.7962 30.968 36.7303 31.1636 36.6945C31.2599 36.6768 31.3409 36.6665 31.396 36.6613C31.4107 36.6599 31.4234 36.6582 31.4341 36.6573Z" fill="#2C2C2C" stroke="#2C2C2C" stroke-width="0.849315"/>
<path d="M39.6647 39.429C39.6647 39.429 36.6591 46.3617 27.9224 42.423" stroke="#2C2C2C" stroke-width="0.849315" stroke-miterlimit="10" stroke-linecap="round"/>
<path d="M42.3608 34.5454C42.5524 34.5164 42.7586 34.5018 42.9502 34.5018C44.9244 34.5018 46.6482 35.5628 47.5616 37.1325" stroke="#2C2C2C" stroke-width="0.849315" stroke-miterlimit="10" stroke-linecap="round"/>
<path d="M38.3977 37.0453L38.3384 37.133" stroke="#2C2C2C" stroke-width="0.849315" stroke-miterlimit="10" stroke-linecap="round"/>
</g>
<defs>
<clipPath id="clip0_40000418_4871">
<rect width="62" height="62" fill="white"/>
</clipPath>
</defs>
</svg>
