<svg width="62" height="62" viewBox="0 0 62 62" fill="none" xmlns="http://www.w3.org/2000/svg">
<g clip-path="url(#clip0_40000418_4924)">
<circle cx="31" cy="31" r="30.5753" fill="#93D1E0" stroke="#5C5C5C" stroke-width="0.849315"/>
<path d="M31.5084 27.6241C31.5084 32.6922 30.3532 36.8157 25.4284 36.8157C20.8077 36.8157 18.6797 32.7072 18.6797 27.6241C18.6797 22.541 20.2453 18.4325 25.4284 18.4325C29.9428 18.4325 31.5084 22.541 31.5084 27.6241Z" fill="#FBFBFB" stroke="#2C2C2C" stroke-width="0.849315" stroke-miterlimit="10"/>
<path d="M44.3369 27.6241C44.3369 27.804 44.3369 27.969 44.3369 28.1489C44.3065 30.518 43.9873 32.6322 43.1209 34.1917C41.3881 34.3716 39.8986 35.3612 39.0322 36.7707C38.789 36.8007 38.5306 36.8157 38.2722 36.8157C33.6514 36.8157 31.5234 32.7072 31.5234 27.6241C31.5234 22.541 33.1042 18.4325 38.2722 18.4325C42.6193 18.4325 44.2305 22.2411 44.3521 27.0693C44.3521 27.2492 44.3521 27.4442 44.3521 27.6241H44.3369Z" fill="#FBFBFB" stroke="#2C2C2C" stroke-width="0.849315" stroke-miterlimit="10"/>
<path d="M31.8345 36.3569C32.811 36.5018 33.3535 37.0138 33.6196 37.563C33.903 38.1478 33.872 38.7653 33.7124 39.0854C33.6802 39.1499 33.5258 39.2925 33.1577 39.4019C32.8173 39.5029 32.3831 39.5468 31.9468 39.5024C31.0559 39.4118 30.3284 38.9883 30.1792 38.1509C30.0948 37.6767 30.1694 37.3577 30.2925 37.1372C30.4186 36.9114 30.6197 36.7455 30.856 36.6235C31.0933 36.501 31.3487 36.4322 31.5513 36.395C31.6511 36.3767 31.7353 36.3672 31.7925 36.3618C31.8088 36.3603 31.8229 36.3578 31.8345 36.3569Z" fill="#2C2C2C" stroke="#2C2C2C" stroke-width="0.849315"/>
<path d="M40.3242 39.2299C40.3242 39.2299 37.2235 46.3822 28.21 42.3187" stroke="#2C2C2C" stroke-width="0.849315" stroke-miterlimit="10" stroke-linecap="round"/>
<path d="M43.1055 34.1917C43.3031 34.1617 43.5159 34.1467 43.7135 34.1467C45.7502 34.1467 47.5286 35.2413 48.471 36.8607" stroke="#2C2C2C" stroke-width="0.849315" stroke-miterlimit="10" stroke-linecap="round"/>
<path d="M39.0171 36.7705L38.9556 36.8616" stroke="#2C2C2C" stroke-width="0.849315" stroke-miterlimit="10" stroke-linecap="round"/>
<g filter="url(#filter0_g_40000418_4924)">
<path d="M31.4247 25.9824V26.0137C31.4247 27.1704 27.9613 32.9853 26.7713 34.9548C26.5882 35.2674 26.161 35.2674 25.9779 34.9548C24.7726 33.0009 21.2329 27.2173 21.2329 25.9824C21.2329 24.1379 22.3772 22.6217 23.7961 22.6217C25.0319 22.6217 26.0847 23.7784 26.3288 25.2947C26.5729 23.7784 27.6104 22.6217 28.8462 22.6217C30.2651 22.6217 31.4247 24.1379 31.4247 25.9824Z" fill="#2C2C2C"/>
<path d="M28.8462 23.0465C29.3947 23.0465 29.9244 23.3388 30.3306 23.8688C30.7367 24.3986 31.0004 25.1462 31.0005 25.9821V26.0133C31.0005 26.079 30.9694 26.2371 30.8735 26.5074C30.7828 26.7633 30.6488 27.0797 30.48 27.443C30.1427 28.1687 29.6779 29.0562 29.1724 29.9752C28.1621 31.8118 27.002 33.7514 26.4077 34.735L26.4048 34.7399C26.3961 34.7547 26.3882 34.7597 26.3853 34.7614C26.3816 34.7634 26.3781 34.7643 26.3745 34.7643C26.3709 34.7643 26.3674 34.7634 26.3638 34.7614C26.3609 34.7597 26.3529 34.7547 26.3442 34.7399L26.3394 34.7321L25.7905 33.8375C25.1555 32.7972 24.2972 31.3682 23.5239 29.9908C23.0081 29.072 22.5332 28.1826 22.189 27.4498C22.0167 27.0831 21.8802 26.7623 21.7876 26.5006C21.6904 26.226 21.6577 26.0588 21.6577 25.9821C21.6578 25.1448 21.9183 24.3973 22.3208 23.8678C22.7232 23.3385 23.2485 23.0465 23.7964 23.0465C24.7455 23.0467 25.6845 23.9637 25.9097 25.3619H26.7485C26.9743 23.9601 27.8998 23.0465 28.8462 23.0465Z" stroke="#2C2C2C" stroke-width="0.849315"/>
</g>
<g filter="url(#filter1_g_40000418_4924)">
<path d="M44.1644 25.9824V26.0137C44.1644 27.1704 40.7011 32.9853 39.511 34.9548C39.3279 35.2674 38.9007 35.2674 38.7176 34.9548C37.5123 33.0009 33.9727 27.2173 33.9727 25.9824C33.9727 24.1379 35.1169 22.6217 36.5359 22.6217C37.7717 22.6217 38.8244 23.7784 39.0685 25.2947C39.3127 23.7784 40.3501 22.6217 41.586 22.6217C43.0049 22.6217 44.1644 24.1379 44.1644 25.9824Z" fill="#2C2C2C"/>
<path d="M41.5859 23.0465C42.1345 23.0465 42.6641 23.3388 43.0703 23.8688C43.4764 24.3986 43.7402 25.1462 43.7402 25.9821V26.0133C43.7402 26.079 43.7092 26.2371 43.6133 26.5074C43.5225 26.7633 43.3886 27.0797 43.2197 27.443C42.8824 28.1687 42.4176 29.0562 41.9121 29.9752C40.9019 31.8118 39.7417 33.7514 39.1475 34.735L39.1445 34.7399C39.1359 34.7547 39.1279 34.7597 39.125 34.7614C39.1214 34.7634 39.1179 34.7643 39.1143 34.7643C39.1106 34.7643 39.1072 34.7634 39.1035 34.7614C39.1006 34.7597 39.0927 34.7547 39.084 34.7399L39.0791 34.7321L38.5303 33.8375C37.8953 32.7972 37.037 31.3682 36.2637 29.9908C35.7478 29.072 35.273 28.1826 34.9287 27.4498C34.7564 27.0831 34.6199 26.7623 34.5273 26.5006C34.4302 26.226 34.3975 26.0588 34.3975 25.9821C34.3975 25.1448 34.6581 24.3973 35.0605 23.8678C35.4629 23.3385 35.9882 23.0465 36.5361 23.0465C37.4852 23.0467 38.4242 23.9637 38.6494 25.3619H39.4883C39.7141 23.9601 40.6395 23.0465 41.5859 23.0465Z" stroke="#2C2C2C" stroke-width="0.849315"/>
</g>
<path d="M16.6782 36.517L11.041 40.3901" stroke="#2C2C2C" stroke-width="0.849315" stroke-miterlimit="10" stroke-linecap="round"/>
<path d="M19.9781 36.517L14.3257 40.3901" stroke="#2C2C2C" stroke-width="0.849315" stroke-miterlimit="10" stroke-linecap="round"/>
<path d="M23.8893 36.517L18.2368 40.3901" stroke="#2C2C2C" stroke-width="0.849315" stroke-miterlimit="10" stroke-linecap="round"/>
</g>
<defs>
<filter id="filter0_g_40000418_4924" x="20.8932" y="22.282" width="10.8713" height="13.2471" filterUnits="userSpaceOnUse" color-interpolation-filters="sRGB">
<feFlood flood-opacity="0" result="BackgroundImageFix"/>
<feBlend mode="normal" in="SourceGraphic" in2="BackgroundImageFix" result="shape"/>
<feTurbulence type="fractalNoise" baseFrequency="0.78494632244110107 0.78494632244110107" numOctaves="3" seed="7043" />
<feDisplacementMap in="shape" scale="0.67945206165313721" xChannelSelector="R" yChannelSelector="G" result="displacedImage" width="100%" height="100%" />
<feMerge result="effect1_texture_40000418_4924">
<feMergeNode in="displacedImage"/>
</feMerge>
</filter>
<filter id="filter1_g_40000418_4924" x="33.6329" y="22.282" width="10.8713" height="13.2471" filterUnits="userSpaceOnUse" color-interpolation-filters="sRGB">
<feFlood flood-opacity="0" result="BackgroundImageFix"/>
<feBlend mode="normal" in="SourceGraphic" in2="BackgroundImageFix" result="shape"/>
<feTurbulence type="fractalNoise" baseFrequency="0.78494632244110107 0.78494632244110107" numOctaves="3" seed="7043" />
<feDisplacementMap in="shape" scale="0.67945206165313721" xChannelSelector="R" yChannelSelector="G" result="displacedImage" width="100%" height="100%" />
<feMerge result="effect1_texture_40000418_4924">
<feMergeNode in="displacedImage"/>
</feMerge>
</filter>
<clipPath id="clip0_40000418_4924">
<rect width="62" height="62" fill="white"/>
</clipPath>
</defs>
</svg>
