<svg width="62" height="62" viewBox="0 0 62 62" fill="none" xmlns="http://www.w3.org/2000/svg">
<g clip-path="url(#clip0_40000418_5091)">
<circle cx="31" cy="31" r="30.5753" fill="#93D1E0" stroke="#5C5C5C" stroke-width="0.849315"/>
<path d="M31.1198 29.5345C31.1198 34.447 30.0001 38.4438 25.2266 38.4438C20.7477 38.4438 18.6851 34.4615 18.6851 29.5345C18.6851 24.6074 20.2026 20.6251 25.2266 20.6251C29.6023 20.6251 31.1198 24.6074 31.1198 29.5345Z" fill="#FBFBFB" stroke="#2C2C2C" stroke-width="0.849315" stroke-miterlimit="10"/>
<path d="M43.5543 29.5345C43.5543 29.7089 43.5543 29.8687 43.5543 30.0432C43.5248 32.3395 43.2154 34.3888 42.3756 35.9004C40.6961 36.0748 39.2522 37.034 38.4124 38.4002C38.1767 38.4293 37.9262 38.4438 37.6758 38.4438C33.1969 38.4438 31.1343 34.4615 31.1343 29.5345C31.1343 24.6074 32.6665 20.6251 37.6758 20.6251C41.8894 20.6251 43.4511 24.3168 43.569 28.9967C43.569 29.1711 43.569 29.3601 43.569 29.5345H43.5543Z" fill="#FBFBFB" stroke="#2C2C2C" stroke-width="0.849315" stroke-miterlimit="10"/>
<path d="M23.7896 28.8479C24.8456 28.8479 25.5264 29.3127 25.9683 30.0813C26.4281 30.8813 26.6362 32.0293 26.6362 33.3645C26.6362 34.7158 26.4794 35.8613 26.0464 36.6575C25.8346 37.0468 25.5599 37.3462 25.2065 37.551C24.8522 37.7564 24.3926 37.8811 23.7896 37.8811C22.6928 37.881 21.9172 37.4052 21.3979 36.6252C20.8652 35.8248 20.5903 34.6809 20.5903 33.3645C20.5903 32.0278 20.7979 30.8877 21.2935 30.094C21.7678 29.3343 22.532 28.848 23.7896 28.8479Z" fill="#2C2C2C" stroke="#2C2C2C" stroke-width="0.849315"/>
<path d="M36.2246 28.3538C37.2807 28.3538 37.9615 28.8186 38.4033 29.5872C38.8632 30.3872 39.0713 31.5352 39.0713 32.8704C39.0713 34.2216 38.9145 35.3672 38.4814 36.1633C38.2696 36.5526 37.9949 36.8521 37.6416 37.0569C37.2872 37.2623 36.8277 37.387 36.2246 37.387C35.1278 37.3869 34.3523 36.9111 33.833 36.1311C33.3003 35.3306 33.0254 34.1867 33.0254 32.8704C33.0254 31.5337 33.233 30.3936 33.7285 29.5999C34.2028 28.8401 34.9671 28.3538 36.2246 28.3538Z" fill="#2C2C2C" stroke="#2C2C2C" stroke-width="0.849315"/>
<path d="M31.4341 38.0122C32.3761 38.1521 32.8978 38.6459 33.1538 39.1743C33.427 39.7381 33.3972 40.3321 33.2446 40.6382C33.216 40.6956 33.0704 40.8322 32.7144 40.938C32.3862 41.0354 31.9667 41.0785 31.5454 41.0356C30.6846 40.948 29.9864 40.5391 29.8433 39.7358C29.7618 39.2787 29.835 38.9729 29.9526 38.7622C30.0733 38.5462 30.2653 38.3865 30.4927 38.269C30.7213 38.1511 30.968 38.0852 31.1636 38.0493C31.2599 38.0317 31.3409 38.0213 31.396 38.0161C31.4107 38.0147 31.4234 38.013 31.4341 38.0122Z" fill="#2C2C2C" stroke="#2C2C2C" stroke-width="0.849315"/>
<path d="M42.3608 35.9003C42.5524 35.8712 42.7586 35.8567 42.9502 35.8567C44.9244 35.8567 46.6482 36.9177 47.5616 38.4873" stroke="#2C2C2C" stroke-width="0.849315" stroke-miterlimit="10" stroke-linecap="round"/>
<path d="M38.3981 38.4L38.3384 38.4883" stroke="#2C2C2C" stroke-width="0.849315" stroke-miterlimit="10" stroke-linecap="round"/>
<path d="M28.877 46.9189H34.8222" stroke="#2C2C2C" stroke-width="0.849315" stroke-miterlimit="10" stroke-linecap="round"/>
<path d="M18.6851 16.7567C18.6851 16.7567 21.6577 13.8016 24.6303 15.7401" stroke="#2C2C2C" stroke-width="0.849315" stroke-miterlimit="10" stroke-linecap="round"/>
</g>
<defs>
<clipPath id="clip0_40000418_5091">
<rect width="62" height="62" fill="white"/>
</clipPath>
</defs>
</svg>
