<svg width="62" height="62" viewBox="0 0 62 62" fill="none" xmlns="http://www.w3.org/2000/svg">
<g clip-path="url(#clip0_40000418_4972)">
<circle cx="31" cy="31" r="30.5753" fill="#93D1E0" stroke="#5C5C5C" stroke-width="0.849315"/>
<path d="M30.9225 24.4749C30.9225 29.1926 29.8472 33.0309 25.263 33.0309C20.9618 33.0309 18.981 29.2066 18.981 24.4749C18.981 19.7433 20.4383 15.9189 25.263 15.9189C29.4652 15.9189 30.9225 19.7433 30.9225 24.4749Z" fill="#FBFBFB" stroke="#2C2C2C" stroke-width="0.849315" stroke-miterlimit="10"/>
<path d="M42.8639 24.4749C42.8639 24.6424 42.8639 24.796 42.8639 24.9635C42.8356 27.1688 42.5385 29.1368 41.732 30.5884C40.1191 30.7559 38.7325 31.6771 37.926 32.9891C37.6996 33.017 37.4591 33.0309 37.2186 33.0309C32.9174 33.0309 30.9365 29.2066 30.9365 24.4749C30.9365 19.7433 32.408 15.9189 37.2186 15.9189C41.2651 15.9189 42.7649 19.4642 42.8781 23.9585C42.8781 24.126 42.8781 24.3075 42.8781 24.4749H42.8639Z" fill="#FBFBFB" stroke="#2C2C2C" stroke-width="0.849315" stroke-miterlimit="10"/>
<path d="M31.2251 32.6334C32.1224 32.7675 32.6176 33.2379 32.8608 33.7399C33.1213 34.2775 33.0916 34.842 32.9478 35.1305C32.9235 35.1791 32.7905 35.3085 32.4497 35.4098C32.1367 35.5028 31.7361 35.5445 31.3335 35.5035C30.5104 35.4197 29.85 35.0295 29.7144 34.2692C29.6368 33.8334 29.7062 33.5437 29.8169 33.3453C29.9307 33.1415 30.1122 32.9903 30.3286 32.8785C30.5462 32.7662 30.7814 32.7028 30.9683 32.6686C31.0602 32.6517 31.1375 32.6423 31.1899 32.6373C31.2034 32.6361 31.2151 32.6342 31.2251 32.6334Z" fill="#2C2C2C" stroke="#2C2C2C" stroke-width="0.849315"/>
<path d="M41.7178 30.5885C41.9017 30.5606 42.0998 30.5466 42.2837 30.5466C44.1797 30.5466 45.8351 31.5655 46.7123 33.073" stroke="#2C2C2C" stroke-width="0.849315" stroke-miterlimit="10" stroke-linecap="round"/>
<path d="M37.9128 32.9889L37.8555 33.0737" stroke="#2C2C2C" stroke-width="0.849315" stroke-miterlimit="10" stroke-linecap="round"/>
<path d="M19.3599 42.2585C19.6467 42.7244 20.0291 43.3732 20.4106 44.1062C20.7928 44.8402 21.1708 45.6523 21.4526 46.4451C21.7364 47.2432 21.9126 47.9944 21.9126 48.615C21.9126 49.9088 21.5251 50.7445 21.0229 51.2546C20.5168 51.7686 19.8553 51.9919 19.2368 51.9919C18.6185 51.9918 17.9577 51.7685 17.4517 51.2546C16.9495 50.7445 16.562 49.9088 16.562 48.615C16.562 47.9944 16.7382 47.2432 17.022 46.4451C17.3038 45.6523 17.6819 44.8402 18.064 44.1062C18.4455 43.3732 18.8279 42.7243 19.1147 42.2585C19.1573 42.1894 19.1988 42.1249 19.2368 42.0642C19.2749 42.125 19.3172 42.1892 19.3599 42.2585Z" fill="#93D1E0" stroke="#2C2C2C" stroke-width="0.849315"/>
<path d="M18.671 31.6238C18.7039 31.448 18.938 31.1823 19.6062 31.0169C20.2322 30.8621 21.0909 30.8416 22.0263 31.012C22.962 31.1824 23.7574 31.504 24.2861 31.8692C24.8502 32.259 24.9719 32.5896 24.939 32.7653C24.906 32.9411 24.6726 33.2061 24.0049 33.3714C23.3789 33.5264 22.5193 33.5476 21.5837 33.3772C20.6482 33.2068 19.8537 32.8843 19.3251 32.5191C18.7609 32.1293 18.6382 31.7996 18.671 31.6238Z" fill="#93D1E0" stroke="#2C2C2C" stroke-width="0.849315"/>
<path d="M19.5352 36.2039C20.1621 36.2039 20.6611 36.7038 20.6611 37.3083C20.661 37.9128 20.1621 38.4128 19.5352 38.4128C18.9083 38.4127 18.4103 37.9127 18.4102 37.3083C18.4102 36.7039 18.9083 36.204 19.5352 36.2039Z" fill="#93D1E0" stroke="#2C2C2C" stroke-width="0.849315"/>
<g filter="url(#filter0_g_40000418_4972)">
<path d="M28.877 43.2005C28.877 43.2005 33.5143 38.1565 35.4422 40.4445L37.3701 42.7325" stroke="black" stroke-width="0.849315" stroke-miterlimit="10" stroke-linecap="round"/>
</g>
<g filter="url(#filter1_g_40000418_4972)">
<path d="M32.2739 23.9302L39.0684 27.2815" stroke="#2C2C2C" stroke-width="0.849315" stroke-miterlimit="10" stroke-linecap="round"/>
</g>
<g filter="url(#filter2_g_40000418_4972)">
<path d="M29.7262 23.9302L22.9316 27.2815" stroke="#2C2C2C" stroke-width="0.849315" stroke-miterlimit="10" stroke-linecap="round"/>
</g>
</g>
<defs>
<filter id="filter0_g_40000418_4972" x="28.1124" y="39.0852" width="10.0222" height="4.87965" filterUnits="userSpaceOnUse" color-interpolation-filters="sRGB">
<feFlood flood-opacity="0" result="BackgroundImageFix"/>
<feBlend mode="normal" in="SourceGraphic" in2="BackgroundImageFix" result="shape"/>
<feTurbulence type="fractalNoise" baseFrequency="0.78494632244110107 0.78494632244110107" numOctaves="3" seed="7043" />
<feDisplacementMap in="shape" scale="0.67945206165313721" xChannelSelector="R" yChannelSelector="G" result="displacedImage" width="100%" height="100%" />
<feMerge result="effect1_texture_40000418_4972">
<feMergeNode in="displacedImage"/>
</feMerge>
</filter>
<filter id="filter1_g_40000418_4972" x="31.5094" y="23.1656" width="8.3235" height="4.88038" filterUnits="userSpaceOnUse" color-interpolation-filters="sRGB">
<feFlood flood-opacity="0" result="BackgroundImageFix"/>
<feBlend mode="normal" in="SourceGraphic" in2="BackgroundImageFix" result="shape"/>
<feTurbulence type="fractalNoise" baseFrequency="0.78494632244110107 0.78494632244110107" numOctaves="3" seed="7043" />
<feDisplacementMap in="shape" scale="0.67945206165313721" xChannelSelector="R" yChannelSelector="G" result="displacedImage" width="100%" height="100%" />
<feMerge result="effect1_texture_40000418_4972">
<feMergeNode in="displacedImage"/>
</feMerge>
</filter>
<filter id="filter2_g_40000418_4972" x="22.1671" y="23.1656" width="8.3235" height="4.88038" filterUnits="userSpaceOnUse" color-interpolation-filters="sRGB">
<feFlood flood-opacity="0" result="BackgroundImageFix"/>
<feBlend mode="normal" in="SourceGraphic" in2="BackgroundImageFix" result="shape"/>
<feTurbulence type="fractalNoise" baseFrequency="0.78494632244110107 0.78494632244110107" numOctaves="3" seed="7043" />
<feDisplacementMap in="shape" scale="0.67945206165313721" xChannelSelector="R" yChannelSelector="G" result="displacedImage" width="100%" height="100%" />
<feMerge result="effect1_texture_40000418_4972">
<feMergeNode in="displacedImage"/>
</feMerge>
</filter>
<clipPath id="clip0_40000418_4972">
<rect width="62" height="62" fill="white"/>
</clipPath>
</defs>
</svg>
