<svg width="62" height="62" viewBox="0 0 62 62" fill="none" xmlns="http://www.w3.org/2000/svg">
<g clip-path="url(#clip0_40000418_5068)">
<circle cx="31" cy="31" r="30.5753" fill="#93D1E0" stroke="#5C5C5C" stroke-width="0.849315"/>
<path d="M30.4672 29.095C30.4672 33.9092 29.3699 37.8261 24.6919 37.8261C20.3026 37.8261 18.2812 33.9234 18.2812 29.095C18.2812 24.2665 19.7684 20.3639 24.6919 20.3639C28.98 20.3639 30.4672 24.2665 30.4672 29.095Z" fill="#FBFBFB" stroke="#2C2C2C" stroke-width="0.849315" stroke-miterlimit="10"/>
<path d="M42.6529 29.095C42.6529 29.2659 42.6529 29.4226 42.6529 29.5935C42.6241 31.8439 42.3209 33.8522 41.4979 35.3335C39.8519 35.5044 38.437 36.4445 37.614 37.7833C37.383 37.8118 37.1375 37.8261 36.8921 37.8261C32.5028 37.8261 30.4814 33.9234 30.4814 29.095C30.4814 24.2665 31.983 20.3639 36.8921 20.3639C41.0214 20.3639 42.5519 23.9817 42.6674 28.568C42.6674 28.7389 42.6674 28.9241 42.6674 29.095H42.6529Z" fill="#FBFBFB" stroke="#2C2C2C" stroke-width="0.849315" stroke-miterlimit="10"/>
<path d="M24.7354 25.1613C25.7671 25.1613 26.4317 25.6146 26.8633 26.3654C27.3129 27.1476 27.5156 28.2712 27.5156 29.5792C27.5156 30.9031 27.3628 32.0236 26.9395 32.8019C26.7326 33.1821 26.4646 33.4741 26.1201 33.674C25.7743 33.8744 25.3253 33.9972 24.7354 33.9972C23.6633 33.9972 22.9058 33.5319 22.3984 32.7697C21.8777 31.9871 21.6084 30.8682 21.6084 29.5792C21.6084 28.2698 21.8125 27.1539 22.2969 26.3781C22.7601 25.6365 23.5059 25.1613 24.7354 25.1613Z" fill="#2C2C2C" stroke="#2C2C2C" stroke-width="0.849315"/>
<path d="M36.9209 24.677C37.9527 24.677 38.6173 25.1304 39.0488 25.8811C39.4984 26.6633 39.7012 27.787 39.7012 29.095C39.7012 30.4188 39.5483 31.5394 39.125 32.3176C38.9181 32.6979 38.6502 32.9899 38.3057 33.1897C37.9599 33.3901 37.5108 33.5129 36.9209 33.5129C35.8489 33.5129 35.0914 33.0476 34.584 32.2854C34.0632 31.5028 33.794 30.384 33.7939 29.095C33.7939 27.7856 33.998 26.6697 34.4824 25.8938C34.9456 25.1522 35.6914 24.677 36.9209 24.677Z" fill="#2C2C2C" stroke="#2C2C2C" stroke-width="0.849315"/>
<path d="M30.7754 37.4116C31.6949 37.5485 32.2035 38.0303 32.4531 38.5454C32.7198 39.0957 32.69 39.6748 32.542 39.9722C32.5156 40.0251 32.3765 40.1587 32.0283 40.2622C31.7078 40.3575 31.2977 40.3988 30.8857 40.3569C30.0437 40.2713 29.3639 39.8722 29.2246 39.0903C29.1452 38.6441 29.2169 38.3465 29.3311 38.1421C29.4483 37.9322 29.6355 37.7772 29.8574 37.6626C30.0804 37.5475 30.3206 37.4828 30.5117 37.4478C30.6058 37.4305 30.6845 37.4206 30.7383 37.4155C30.7525 37.4142 30.765 37.4124 30.7754 37.4116Z" fill="#2C2C2C" stroke="#2C2C2C" stroke-width="0.849315"/>
<path d="M41.4834 35.3334C41.6711 35.3049 41.8732 35.2906 42.0609 35.2906C43.9957 35.2906 45.6849 36.3304 46.5801 37.8687" stroke="#2C2C2C" stroke-width="0.849315" stroke-miterlimit="10" stroke-linecap="round"/>
<path d="M37.6 37.7832L37.5415 37.8697" stroke="#2C2C2C" stroke-width="0.849315" stroke-miterlimit="10" stroke-linecap="round"/>
<path d="M33.6318 43.6073C33.6318 43.6073 29.6659 45.3149 31.4358 46.74C33.2057 48.1652 36.598 49.6039 37.4666 47.7215C38.3352 45.8392 37.4666 43.5939 33.6482 43.5939L33.6318 43.6073Z" stroke="#2C2C2C" stroke-width="0.849315" stroke-miterlimit="10" stroke-linecap="round"/>
<path d="M17.0349 17.5817C17.0349 17.5817 19.1192 8.53627 27.7388 17.3019" stroke="#2C2C2C" stroke-width="0.849315" stroke-miterlimit="10" stroke-linecap="round"/>
</g>
<defs>
<clipPath id="clip0_40000418_5068">
<rect width="62" height="62" fill="white"/>
</clipPath>
</defs>
</svg>
