<svg width="62" height="62" viewBox="0 0 62 62" fill="none" xmlns="http://www.w3.org/2000/svg">
<g clip-path="url(#clip0_40000418_4949)">
<circle cx="31" cy="31" r="30.5753" fill="#93D1E0" stroke="#5C5C5C" stroke-width="0.849315"/>
<path d="M30.7541 29.3687C30.7541 34.1367 29.6673 38.016 25.0342 38.016C20.687 38.016 18.6851 34.1508 18.6851 29.3687C18.6851 24.5865 20.1579 20.7213 25.0342 20.7213C29.2812 20.7213 30.7541 24.5865 30.7541 29.3687Z" fill="#FBFBFB" stroke="#2C2C2C" stroke-width="0.849315" stroke-miterlimit="10"/>
<path d="M42.8223 29.3687C42.8223 29.5379 42.8223 29.6931 42.8223 29.8624C42.7937 32.0912 42.4934 34.0803 41.6784 35.5473C40.0482 35.7166 38.6468 36.6477 37.8317 37.9737C37.6029 38.0019 37.3598 38.016 37.1167 38.016C32.7696 38.016 30.7676 34.1508 30.7676 29.3687C30.7676 24.5865 32.2548 20.7213 37.1167 20.7213C41.2065 20.7213 42.7222 24.3044 42.8366 28.8467C42.8366 29.016 42.8366 29.1994 42.8366 29.3687H42.8223Z" fill="#FBFBFB" stroke="#2C2C2C" stroke-width="0.849315" stroke-miterlimit="10"/>
<path d="M27.5786 25.4767C28.599 25.4767 29.2564 25.9248 29.6831 26.6671C30.1278 27.4408 30.3286 28.5528 30.3286 29.8478C30.3286 31.1589 30.1771 32.2683 29.7583 33.0382C29.5536 33.4144 29.2884 33.703 28.9478 33.9005C28.606 34.0986 28.1623 34.2198 27.5786 34.2198C26.5182 34.2198 25.7689 33.759 25.2671 33.005C24.752 32.2309 24.4858 31.1238 24.4858 29.8478C24.4859 28.5516 24.6876 27.4482 25.1665 26.6808C25.6244 25.9473 26.362 25.4767 27.5786 25.4767Z" fill="#2C2C2C" stroke="#2C2C2C" stroke-width="0.849315"/>
<path d="M39.6479 24.9972C40.6683 24.9972 41.3257 25.4453 41.7524 26.1876C42.1972 26.9613 42.3979 28.0733 42.3979 29.3683C42.3979 30.6794 42.2464 31.7889 41.8276 32.5587C41.623 32.9349 41.3578 33.2236 41.0171 33.421C40.6754 33.6191 40.2316 33.7404 39.6479 33.7404C38.5875 33.7403 37.8382 33.2795 37.3364 32.5255C36.8214 31.7514 36.5552 30.6443 36.5552 29.3683C36.5552 28.0721 36.7569 26.9687 37.2358 26.2013C37.6937 25.4678 38.4313 24.9972 39.6479 24.9972Z" fill="#2C2C2C" stroke="#2C2C2C" stroke-width="0.849315"/>
<path d="M31.0586 37.6096C31.9678 37.7451 32.4702 38.2218 32.7168 38.7307C32.9804 39.2749 32.9507 39.8469 32.8047 40.1399C32.7793 40.1908 32.6426 40.3226 32.2979 40.425C31.9811 40.5191 31.5762 40.5602 31.1689 40.5188C30.3358 40.4341 29.6648 40.0395 29.5273 39.2678C29.4487 38.8265 29.5193 38.5329 29.6318 38.3313C29.7475 38.1242 29.932 37.9709 30.1514 37.8577C30.3718 37.7439 30.6097 37.6794 30.7988 37.6448C30.8917 37.6278 30.9694 37.6186 31.0225 37.6135C31.0362 37.6122 31.0484 37.6104 31.0586 37.6096Z" fill="#2C2C2C" stroke="#2C2C2C" stroke-width="0.849315"/>
<path d="M41.6646 35.5473C41.8504 35.5191 42.0506 35.505 42.2365 35.505C44.1527 35.505 45.8258 36.5348 46.7124 38.0583" stroke="#2C2C2C" stroke-width="0.849315" stroke-miterlimit="10" stroke-linecap="round"/>
<path d="M37.8187 37.9736L37.7607 38.0593" stroke="#2C2C2C" stroke-width="0.849315" stroke-miterlimit="10" stroke-linecap="round"/>
</g>
<defs>
<clipPath id="clip0_40000418_4949">
<rect width="62" height="62" fill="white"/>
</clipPath>
</defs>
</svg>
