<svg width="73" height="74" viewBox="0 0 73 74" fill="none" xmlns="http://www.w3.org/2000/svg">
<g clip-path="url(#clip0_40000418_4972)">
<path d="M36.5 0.5C56.3759 0.5 72.5 16.8352 72.5 37C72.5 57.1648 56.3759 73.5 36.5 73.5C16.6241 73.5 0.5 57.1648 0.5 37C0.5 16.8352 16.6241 0.5 36.5 0.5Z" fill="#93D1E0" stroke="#5C5C5C"/>
<g filter="url(#filter0_g_40000418_4972)">
<path d="M36.4089 29.212C36.4089 34.8428 35.1428 39.424 29.7453 39.424C24.6809 39.424 22.3486 34.8594 22.3486 29.212C22.3486 23.5646 24.0645 19 29.7453 19C34.693 19 36.4089 23.5646 36.4089 29.212Z" fill="#FBFBFB" stroke="#2C2C2C" stroke-miterlimit="10"/>
<path d="M50.4689 29.212C50.4689 29.4119 50.4689 29.5952 50.4689 29.7951C50.4356 32.4272 50.0857 34.7761 49.1361 36.5087C47.237 36.7086 45.6044 37.8081 44.6549 39.374C44.3883 39.4073 44.1051 39.424 43.8219 39.424C38.7576 39.424 36.4253 34.8594 36.4253 29.212C36.4253 23.5646 38.1578 19 43.8219 19C48.5864 19 50.3523 23.2314 50.4855 28.5956C50.4855 28.7955 50.4855 29.0121 50.4855 29.212H50.4689Z" fill="#FBFBFB" stroke="#2C2C2C" stroke-miterlimit="10"/>
<path d="M36.7671 38.9432C37.8189 39.1035 38.4024 39.663 38.6899 40.2645C38.9979 40.9087 38.9636 41.5872 38.7925 41.9354C38.7627 41.996 38.6049 42.15 38.2056 42.2704C37.8378 42.3812 37.3664 42.4305 36.8931 42.3817C35.9283 42.2821 35.1466 41.8182 34.9858 40.9032C34.8941 40.3805 34.9762 40.032 35.1079 39.7928C35.2429 39.5478 35.4581 39.3673 35.7124 39.2343C35.9682 39.1005 36.2439 39.025 36.4634 38.9843C36.5713 38.9642 36.6615 38.9531 36.7231 38.9471C36.74 38.9455 36.7549 38.9442 36.7671 38.9432Z" fill="#2C2C2C" stroke="#2C2C2C"/>
<path d="M49.1191 36.5087C49.3357 36.4754 49.5689 36.4587 49.7855 36.4587C52.0178 36.4587 53.9669 37.6748 54.9998 39.474" stroke="#2C2C2C" stroke-miterlimit="10" stroke-linecap="round"/>
<path d="M44.6393 39.3738L44.5718 39.475" stroke="#2C2C2C" stroke-miterlimit="10" stroke-linecap="round"/>
</g>
<g filter="url(#filter1_g_40000418_4972)">
<path d="M22.793 50.4314C23.1308 50.9875 23.5809 51.7623 24.0303 52.6375C24.4802 53.5136 24.9257 54.4828 25.2578 55.4294C25.5921 56.3826 25.7998 57.2812 25.7998 58.0242C25.7998 59.5716 25.3433 60.5712 24.751 61.1814C24.1546 61.7956 23.3765 62.0612 22.6504 62.0613C21.9242 62.0613 21.1463 61.7957 20.5498 61.1814C19.9574 60.5713 19.5 59.5718 19.5 58.0242C19.5 57.2812 19.7077 56.3826 20.042 55.4294C20.374 54.4829 20.8196 53.5136 21.2695 52.6375C21.7189 51.7624 22.169 50.9875 22.5068 50.4314C22.5566 50.3495 22.605 50.2729 22.6494 50.2009C22.694 50.273 22.7431 50.3493 22.793 50.4314Z" fill="#93D1E0" stroke="#2C2C2C"/>
<path d="M21.9835 37.7443C22.0237 37.527 22.3042 37.2112 23.0874 37.0146C23.8239 36.8298 24.835 36.8039 25.9359 37.0072C27.0368 37.2105 27.9721 37.5956 28.594 38.0312C29.2553 38.4945 29.4046 38.8897 29.3646 39.107C29.3245 39.3242 29.044 39.6409 28.2605 39.8376C27.524 40.0224 26.5131 40.0473 25.4122 39.844C24.3113 39.6408 23.3759 39.2566 22.7539 38.821C22.0922 38.3575 21.9434 37.9615 21.9835 37.7443Z" fill="#93D1E0" stroke="#2C2C2C"/>
<path d="M23.0015 43.204C23.7332 43.2041 24.3267 43.7974 24.3267 44.5292C24.3266 45.2609 23.7331 45.8543 23.0015 45.8544C22.2697 45.8544 21.6764 45.2609 21.6763 44.5292C21.6763 43.7974 22.2697 43.204 23.0015 43.204Z" fill="#93D1E0" stroke="#2C2C2C"/>
</g>
<g filter="url(#filter2_g_40000418_4972)">
<path d="M34 51.5618C34 51.5618 39.4601 45.5416 41.7301 48.2724L44 51.0032" stroke="black" stroke-miterlimit="10" stroke-linecap="round"/>
</g>
<g filter="url(#filter3_g_40000418_4972)">
<path d="M38 28.5618L46 32.5618" stroke="#2C2C2C" stroke-miterlimit="10" stroke-linecap="round"/>
</g>
<g filter="url(#filter4_g_40000418_4972)">
<path d="M35 28.5618L27 32.5618" stroke="#2C2C2C" stroke-miterlimit="10" stroke-linecap="round"/>
</g>
</g>
<defs>
<filter id="filter0_g_40000418_4972" x="21.4486" y="18.1" width="34.4514" height="25.2004" filterUnits="userSpaceOnUse" color-interpolation-filters="sRGB">
<feFlood flood-opacity="0" result="BackgroundImageFix"/>
<feBlend mode="normal" in="SourceGraphic" in2="BackgroundImageFix" result="shape"/>
<feTurbulence type="fractalNoise" baseFrequency="0.66666668653488159 0.66666668653488159" numOctaves="3" seed="7043" />
<feDisplacementMap in="shape" scale="0.80000001192092896" xChannelSelector="R" yChannelSelector="G" result="displacedImage" width="100%" height="100%" />
<feMerge result="effect1_texture_40000418_4972">
<feMergeNode in="displacedImage"/>
</feMerge>
</filter>
<filter id="filter1_g_40000418_4972" x="18.6" y="35.9651" width="11.6711" height="26.9965" filterUnits="userSpaceOnUse" color-interpolation-filters="sRGB">
<feFlood flood-opacity="0" result="BackgroundImageFix"/>
<feBlend mode="normal" in="SourceGraphic" in2="BackgroundImageFix" result="shape"/>
<feTurbulence type="fractalNoise" baseFrequency="0.66666668653488159 0.66666668653488159" numOctaves="3" seed="7043" />
<feDisplacementMap in="shape" scale="0.80000001192092896" xChannelSelector="R" yChannelSelector="G" result="displacedImage" width="100%" height="100%" />
<feMerge result="effect1_texture_40000418_4972">
<feMergeNode in="displacedImage"/>
</feMerge>
</filter>
<filter id="filter2_g_40000418_4972" x="33.1" y="46.6624" width="11.8" height="5.79939" filterUnits="userSpaceOnUse" color-interpolation-filters="sRGB">
<feFlood flood-opacity="0" result="BackgroundImageFix"/>
<feBlend mode="normal" in="SourceGraphic" in2="BackgroundImageFix" result="shape"/>
<feTurbulence type="fractalNoise" baseFrequency="0.66666668653488159 0.66666668653488159" numOctaves="3" seed="7043" />
<feDisplacementMap in="shape" scale="0.80000001192092896" xChannelSelector="R" yChannelSelector="G" result="displacedImage" width="100%" height="100%" />
<feMerge result="effect1_texture_40000418_4972">
<feMergeNode in="displacedImage"/>
</feMerge>
</filter>
<filter id="filter3_g_40000418_4972" x="37.1" y="27.6616" width="9.8" height="5.80024" filterUnits="userSpaceOnUse" color-interpolation-filters="sRGB">
<feFlood flood-opacity="0" result="BackgroundImageFix"/>
<feBlend mode="normal" in="SourceGraphic" in2="BackgroundImageFix" result="shape"/>
<feTurbulence type="fractalNoise" baseFrequency="0.66666668653488159 0.66666668653488159" numOctaves="3" seed="7043" />
<feDisplacementMap in="shape" scale="0.80000001192092896" xChannelSelector="R" yChannelSelector="G" result="displacedImage" width="100%" height="100%" />
<feMerge result="effect1_texture_40000418_4972">
<feMergeNode in="displacedImage"/>
</feMerge>
</filter>
<filter id="filter4_g_40000418_4972" x="26.1" y="27.6616" width="9.8" height="5.80024" filterUnits="userSpaceOnUse" color-interpolation-filters="sRGB">
<feFlood flood-opacity="0" result="BackgroundImageFix"/>
<feBlend mode="normal" in="SourceGraphic" in2="BackgroundImageFix" result="shape"/>
<feTurbulence type="fractalNoise" baseFrequency="0.66666668653488159 0.66666668653488159" numOctaves="3" seed="7043" />
<feDisplacementMap in="shape" scale="0.80000001192092896" xChannelSelector="R" yChannelSelector="G" result="displacedImage" width="100%" height="100%" />
<feMerge result="effect1_texture_40000418_4972">
<feMergeNode in="displacedImage"/>
</feMerge>
</filter>
<clipPath id="clip0_40000418_4972">
<rect width="73" height="74" fill="white"/>
</clipPath>
</defs>
</svg>
