<svg width="62" height="62" viewBox="0 0 62 62" fill="none" xmlns="http://www.w3.org/2000/svg">
<g clip-path="url(#clip0_40000418_4896)">
<circle cx="31" cy="31" r="30.5753" fill="#93D1E0" stroke="#5C5C5C" stroke-width="0.849315"/>
<path d="M29.8408 27.872C29.8408 32.6148 28.7597 36.4737 24.1511 36.4737C19.8269 36.4596 17.8354 32.6148 17.8354 27.872C17.8354 23.1291 19.3006 19.2703 24.1511 19.2703C28.3757 19.2703 29.8408 23.1151 29.8408 27.872Z" fill="#FBFBFB" stroke="#2C2C2C" stroke-width="0.849315" stroke-miterlimit="10"/>
<path d="M41.8471 27.872C41.8471 28.0403 41.8471 28.1947 41.8471 28.3631C41.8186 30.5802 41.5199 32.5587 40.7091 34.018C39.0876 34.1864 37.6936 35.1125 36.8828 36.4316C36.6552 36.4596 36.4134 36.4737 36.1716 36.4737C31.8474 36.4737 29.856 32.6288 29.856 27.872C29.856 23.1151 31.3068 19.2703 36.1573 19.2703C40.2255 19.2703 41.7333 22.8344 41.8471 27.3528C41.8471 27.5212 41.8471 27.7036 41.8471 27.872Z" fill="#FBFBFB" stroke="#2C2C2C" stroke-width="0.849315" stroke-miterlimit="10"/>
<path d="M38.6885 23.5258C39.7024 23.5258 40.3552 23.9709 40.7793 24.7084C41.2214 25.4775 41.4218 26.5835 41.4219 27.8715C41.4219 29.1754 41.2707 30.2781 40.8545 31.0433C40.651 31.4174 40.3874 31.7045 40.0488 31.9008C39.7093 32.0975 39.2686 32.2181 38.6885 32.2181C37.6344 32.2181 36.8894 31.7605 36.3906 31.0111C35.8786 30.2415 35.6143 29.1404 35.6143 27.8715C35.6143 26.5821 35.8148 25.4849 36.291 24.722C36.7461 23.9931 37.479 23.5258 38.6885 23.5258Z" fill="#2C2C2C" stroke="#2C2C2C" stroke-width="0.849315"/>
<path d="M30.145 36.0715C31.0478 36.2064 31.5466 36.6795 31.7915 37.1848C32.0536 37.7256 32.0242 38.2944 31.8794 38.5852C31.8546 38.6349 31.7193 38.7656 31.3765 38.8674C31.0615 38.961 30.6584 39.0024 30.2534 38.9612C29.4253 38.8768 28.76 38.4842 28.6235 37.718C28.5455 37.2796 28.6155 36.9883 28.7271 36.7883C28.8418 36.5828 29.0247 36.4301 29.2427 36.3176C29.4617 36.2046 29.6983 36.1411 29.8862 36.1067C29.9787 36.0897 30.0561 36.0804 30.1089 36.0754C30.1228 36.0741 30.1348 36.0723 30.145 36.0715Z" fill="#2C2C2C" stroke="#2C2C2C" stroke-width="0.849315"/>
<path d="M38.0912 38.7328C38.0912 38.7328 35.1894 45.4261 26.7544 41.6234" stroke="#2C2C2C" stroke-width="0.849315" stroke-miterlimit="10" stroke-linecap="round"/>
<path d="M40.6938 34.0179C40.8788 33.9899 41.0779 33.9758 41.2628 33.9758C43.1689 33.9758 44.8331 35.0002 45.715 36.5156" stroke="#2C2C2C" stroke-width="0.849315" stroke-miterlimit="10" stroke-linecap="round"/>
<path d="M36.8679 36.4315L36.811 36.5157" stroke="#2C2C2C" stroke-width="0.849315" stroke-miterlimit="10" stroke-linecap="round"/>
<path d="M21.8604 24.3919C24.3497 24.2937 27.479 25.4023 28.5032 28.2227C28.5459 28.363 28.4463 28.5034 28.2898 28.4893C27.2372 28.4613 25.1747 28.1806 21.8462 31.3238" stroke="#2C2C2C" stroke-width="0.849315" stroke-miterlimit="10" stroke-linecap="round"/>
<path d="M29.8408 42.788C29.8408 42.788 31.946 46.5627 34.9047 46.0294C37.8634 45.4962 37.4651 39.7711 37.4651 39.7711" stroke="#2C2C2C" stroke-width="0.849315" stroke-miterlimit="10" stroke-linecap="round"/>
</g>
<defs>
<clipPath id="clip0_40000418_4896">
<rect width="62" height="62" fill="white"/>
</clipPath>
</defs>
</svg>
