<svg width="62" height="62" viewBox="0 0 62 62" fill="none" xmlns="http://www.w3.org/2000/svg">
<g clip-path="url(#clip0_40000418_4985)">
<circle cx="31" cy="31" r="30.5753" fill="#EEEDEB" stroke="#9C9C9C" stroke-width="0.849315"/>
<path d="M30.8621 25.861V26.7297C30.8621 26.8838 30.8621 27.0239 30.8479 27.164C30.8479 27.3882 30.8479 27.5983 30.8337 27.7945C30.5922 31.8016 29.2998 34.8699 25.181 34.8699C21.0623 34.8699 18.8608 31.031 18.8608 26.3093C18.8608 23.5072 19.3721 21.0133 20.8066 19.4441L26.5161 22.2042L30.4502 24.0816L30.7485 24.2218C30.8053 24.7682 30.8337 25.3006 30.8479 25.875L30.8621 25.861Z" fill="#FBFBFB" stroke="#2C2C2C" stroke-width="0.849315" stroke-miterlimit="10"/>
<path d="M42.8493 26.2954C42.8493 26.4635 42.8493 26.6176 42.8493 26.7857C42.8209 28.9994 42.5226 30.9749 41.7131 32.4321C40.094 32.6002 38.7021 33.5249 37.8926 34.8419C37.6653 34.8699 37.4239 34.8839 37.1824 34.8839C32.8648 34.8839 30.8765 31.045 30.8765 26.3094C30.8765 21.5737 32.3251 17.7068 37.154 17.7068C41.216 17.7068 42.7215 21.2655 42.8351 25.777C42.8351 25.9451 42.8351 26.1272 42.8351 26.2954H42.8493Z" fill="#FBFBFB" stroke="#2C2C2C" stroke-width="0.849315" stroke-miterlimit="10"/>
<path d="M30.8616 26.6037V26.7438C30.8616 26.7438 30.8616 26.8699 30.8616 26.9119C30.8616 26.996 30.8616 27.0801 30.8474 27.1781C30.8474 27.4023 30.8474 27.6125 30.8332 27.8086C30.677 29.9523 29.9101 31.5355 27.7087 31.5355C25.3226 31.5355 24.229 29.4058 24.229 26.7718C24.229 24.5721 24.7971 22.7227 26.5298 22.1903L30.464 24.0677C30.7054 24.7122 30.8332 25.4828 30.8474 26.2955C30.8616 26.3795 30.8616 26.4916 30.8616 26.5897V26.6037Z" fill="#2C2C2C"/>
<path d="M42.8495 26.2954C42.8495 28.9294 42.253 31.059 39.6965 31.059C37.2962 31.059 36.2026 28.9294 36.2026 26.2954C36.2026 23.6614 37.0122 21.5317 39.6965 21.5317C42.0399 21.5317 42.8495 23.6614 42.8495 26.2954Z" fill="#2C2C2C"/>
<path d="M41.6987 32.4319C41.8834 32.4039 42.0822 32.3899 42.2668 32.3899C44.17 32.3899 45.8317 33.4127 46.7123 34.9258" stroke="#2C2C2C" stroke-width="0.849315" stroke-miterlimit="10" stroke-linecap="round"/>
<path d="M37.8781 34.8418L37.8213 34.9259" stroke="#2C2C2C" stroke-width="0.849315" stroke-miterlimit="10" stroke-linecap="round"/>
<path d="M30.6345 24.1516L30.3362 24.0115L26.3595 22.1061L20.6074 19.3319C21.6016 18.2391 23.0077 17.5946 25.0102 17.5946C28.6319 17.5946 30.2368 20.3968 30.6487 24.1516H30.6345Z" stroke="#2C2C2C" stroke-width="0.849315" stroke-miterlimit="10" stroke-linecap="round"/>
<path d="M20.608 19.3319L16.9863 17.5946" stroke="#2C2C2C" stroke-width="0.849315" stroke-miterlimit="10" stroke-linecap="round"/>
<path d="M30.6357 34.989C31.5313 35.123 32.0257 35.5925 32.2686 36.0935C32.5287 36.6303 32.499 37.1942 32.3555 37.4822C32.3314 37.5305 32.1988 37.6603 31.8584 37.7615C31.5459 37.8543 31.1462 37.8951 30.7441 37.8542C29.9219 37.7706 29.2623 37.3811 29.127 36.6218C29.0495 36.1866 29.118 35.897 29.2285 35.699C29.3421 35.4955 29.5241 35.3447 29.7402 35.2332C29.9575 35.121 30.1923 35.0584 30.3789 35.0242C30.4706 35.0074 30.5472 34.9979 30.5996 34.9929C30.6135 34.9916 30.6256 34.9898 30.6357 34.989Z" fill="#93D1E0" stroke="#2C2C2C" stroke-width="0.849315"/>
<path d="M31.4248 41.5006C31.4248 41.5006 38.3391 38.6062 41.6166 47.7695" stroke="black" stroke-width="0.849315" stroke-miterlimit="10" stroke-linecap="round"/>
</g>
<defs>
<clipPath id="clip0_40000418_4985">
<rect width="62" height="62" fill="white"/>
</clipPath>
</defs>
</svg>
