<svg width="62" height="62" viewBox="0 0 62 62" fill="none" xmlns="http://www.w3.org/2000/svg">
<g clip-path="url(#clip0_40000418_5017)">
<circle cx="31" cy="31" r="30.5753" fill="#EEEDEB" stroke="#9C9C9C" stroke-width="0.849315"/>
<path d="M29.7669 30.5592C29.7669 35.4502 28.6521 39.4295 23.8995 39.4295C19.4403 39.4295 17.3867 35.4646 17.3867 30.5592C17.3867 25.6538 18.8976 21.689 23.8995 21.689C28.2561 21.689 29.7669 25.6538 29.7669 30.5592Z" fill="#FBFBFB" stroke="#2C2C2C" stroke-width="0.849315" stroke-miterlimit="10"/>
<path d="M42.1477 30.5592C42.1477 30.7329 42.1477 30.892 42.1477 31.0657C42.1184 33.352 41.8104 35.3923 40.9743 36.8972C39.3021 37.0708 37.8646 38.0259 37.0285 39.3861C36.7938 39.415 36.5444 39.4295 36.295 39.4295C31.8358 39.4295 29.7822 35.4646 29.7822 30.5592C29.7822 25.6538 31.3078 21.689 36.295 21.689C40.4902 21.689 42.0451 25.3644 42.1624 30.0238C42.1624 30.1975 42.1624 30.3856 42.1624 30.5592H42.1477Z" fill="#FBFBFB" stroke="#2C2C2C" stroke-width="0.849315" stroke-miterlimit="10"/>
<path d="M25.7262 34.3725C25.7262 37.0929 25.1101 39.2924 22.4698 39.2924C19.9908 39.2924 18.8613 37.0929 18.8613 34.3725C18.8613 31.6521 19.6974 29.4526 22.4698 29.4526C24.8901 29.4526 25.7262 31.6521 25.7262 34.3725Z" fill="#2C2C2C"/>
<path d="M38.1061 33.8807C38.1061 36.6011 37.49 38.8006 34.8497 38.8006C32.3707 38.8006 31.2412 36.6011 31.2412 33.8807C31.2412 31.1603 32.0773 28.9608 34.8497 28.9608C37.27 28.9608 38.1061 31.1603 38.1061 33.8807Z" fill="#2C2C2C"/>
<path d="M30.0806 39.0015C31.0175 39.1407 31.5359 39.6322 31.7905 40.1577C32.0621 40.7183 32.0328 41.3086 31.8813 41.6128C31.8532 41.6692 31.7093 41.8053 31.355 41.9106C31.0284 42.0077 30.6113 42.05 30.1919 42.0073C29.3351 41.9202 28.6408 41.5139 28.4985 40.7153C28.4176 40.2607 28.4902 39.9569 28.6069 39.7476C28.7268 39.5328 28.9179 39.3741 29.144 39.2573C29.3713 39.14 29.6165 39.0743 29.811 39.0386C29.9069 39.021 29.9877 39.0106 30.0425 39.0054C30.0571 39.004 30.0699 39.0023 30.0806 39.0015Z" fill="#93D1E0" stroke="#2C2C2C" stroke-width="0.849315"/>
<path d="M40.9585 36.8973C41.1492 36.8684 41.3545 36.8539 41.5452 36.8539C43.5108 36.8539 45.227 37.9102 46.1365 39.473" stroke="#2C2C2C" stroke-width="0.849315" stroke-miterlimit="10" stroke-linecap="round"/>
<path d="M37.014 39.386L36.9546 39.4739" stroke="#2C2C2C" stroke-width="0.849315" stroke-miterlimit="10" stroke-linecap="round"/>
<path d="M23.7808 46.8654C23.7808 46.8654 30.0756 44.4046 34.8219 52.3715" stroke="black" stroke-width="0.849315" stroke-miterlimit="10" stroke-linecap="round"/>
<path d="M30.6078 23.5294C27.8316 23.5294 25.0151 23.46 22.2389 23.3111L18.326 23.1028C17.3201 23.0531 16.3746 22.5768 15.7409 21.8128C15.1072 21.0388 14.8256 20.0366 14.9764 19.0542L15.761 13.9538C16.0125 12.3166 17.4107 11.0564 19.0905 10.9571L21.2632 10.8281C24.3613 10.6495 27.5097 10.5503 30.6179 10.5503C33.7261 10.5503 36.8745 10.6396 39.9726 10.8281L42.1453 10.9571C43.8251 11.0564 45.2233 12.3166 45.4748 13.9538L46.2493 19.0542C46.4002 20.0366 46.1186 21.0388 45.4848 21.8128C44.8511 22.5868 43.9056 23.0531 42.8997 23.1028L38.9868 23.3111C36.2106 23.46 33.3941 23.5294 30.6179 23.5294H30.6078Z" fill="#EEEDEB"/>
<path d="M30.6077 11.0563C33.7159 11.0563 36.8241 11.1456 39.9323 11.3242L42.105 11.4532C43.5535 11.5425 44.7505 12.6142 44.9617 14.0332L45.7362 19.1335C46.0078 20.9097 44.67 22.5172 42.8594 22.6165L38.9465 22.8248C36.1703 22.9737 33.384 23.0431 30.6077 23.0431C27.8315 23.0431 25.0452 22.9737 22.269 22.8248L18.3561 22.6165C16.5455 22.5172 15.2077 20.9097 15.4793 19.1335L16.2538 14.0332C16.4751 12.6142 17.662 11.5425 19.1105 11.4532L21.2832 11.3242C24.3914 11.1456 27.4996 11.0563 30.6077 11.0563ZM30.6077 10.064C27.4895 10.064 24.331 10.1533 21.2229 10.3418L19.0502 10.4708C17.139 10.58 15.5396 12.0188 15.258 13.8942L14.4835 18.9847C14.3125 20.106 14.6343 21.2471 15.3586 22.1302C16.0828 23.0035 17.1591 23.5492 18.3058 23.6088L22.2187 23.8171C25.005 23.966 27.8215 24.0354 30.6077 24.0354C33.394 24.0354 36.2206 23.966 38.9968 23.8171L42.9097 23.6088C44.0564 23.5492 45.1327 23.0134 45.8569 22.1302C46.5812 21.2471 46.903 20.106 46.732 18.9847L45.9575 13.8843C45.6759 12.0188 44.0765 10.58 42.1653 10.4609L39.9926 10.3319C36.8845 10.1533 33.726 10.0541 30.6077 10.0541V10.064Z" fill="#2C2C2C"/>
<g filter="url(#filter0_g_40000418_5017)">
<path d="M42.8101 11.3274C44.3518 11.4077 45.6259 12.5019 45.8507 13.9273L46.6751 19.087C46.9642 20.8839 45.5402 22.5201 43.6131 22.6104L39.4484 22.8213C33.5385 23.1224 27.6179 23.1224 21.6973 22.8213L17.5433 22.6104C15.7768 22.5301 14.4385 21.1549 14.4385 19.5588C14.4385 19.7194 14.5134 19.8399 14.5884 19.9101C14.674 20.0105 14.8346 20.121 15.0916 20.131L19.6631 20.3418C22.8429 20.4823 26.0655 20.5526 29.256 20.5526C32.4464 20.5526 35.669 20.4823 38.8488 20.3418L43.4204 20.131C43.6773 20.1109 43.8272 20.0105 43.9236 19.9101C44.0092 19.8198 44.1056 19.6592 44.0628 19.4584L43.1527 11.8193C43.0992 11.5483 42.8315 11.3274 42.5104 11.3174H42.8101V11.3274Z" fill="#2C2C2C"/>
</g>
<path d="M48.3467 25.2921V37.4874" stroke="#2C2C2C" stroke-width="0.849315" stroke-miterlimit="10" stroke-linecap="round"/>
<path d="M50.9214 24.5977V31.3948" stroke="#2C2C2C" stroke-width="0.849315" stroke-miterlimit="10" stroke-linecap="round"/>
<path d="M53.5068 25.8381V28.4082" stroke="#2C2C2C" stroke-width="0.849315" stroke-miterlimit="10" stroke-linecap="round"/>
</g>
<defs>
<filter id="filter0_g_40000418_5017" x="14.0988" y="10.9777" width="32.9534" height="12.4092" filterUnits="userSpaceOnUse" color-interpolation-filters="sRGB">
<feFlood flood-opacity="0" result="BackgroundImageFix"/>
<feBlend mode="normal" in="SourceGraphic" in2="BackgroundImageFix" result="shape"/>
<feTurbulence type="fractalNoise" baseFrequency="0.78494632244110107 0.78494632244110107" numOctaves="3" seed="7043" />
<feDisplacementMap in="shape" scale="0.67945206165313721" xChannelSelector="R" yChannelSelector="G" result="displacedImage" width="100%" height="100%" />
<feMerge result="effect1_texture_40000418_5017">
<feMergeNode in="displacedImage"/>
</feMerge>
</filter>
<clipPath id="clip0_40000418_5017">
<rect width="62" height="62" fill="white"/>
</clipPath>
</defs>
</svg>
