<svg width="62" height="62" viewBox="0 0 62 62" fill="none" xmlns="http://www.w3.org/2000/svg">
<g clip-path="url(#clip0_40000418_4959)">
<circle cx="31" cy="31" r="30.5753" fill="#EEEDEB" stroke="#9C9C9C" stroke-width="0.849315"/>
<path d="M30.9225 24.4749C30.9225 29.1926 29.8472 33.0309 25.263 33.0309C20.9618 33.0309 18.981 29.2066 18.981 24.4749C18.981 19.7433 20.4383 15.9189 25.263 15.9189C29.4652 15.9189 30.9225 19.7433 30.9225 24.4749Z" fill="#FBFBFB" stroke="#2C2C2C" stroke-width="0.849315" stroke-miterlimit="10"/>
<path d="M42.8639 24.4749C42.8639 24.6424 42.8639 24.796 42.8639 24.9635C42.8356 27.1688 42.5385 29.1368 41.732 30.5884C40.1191 30.7559 38.7325 31.6771 37.926 32.9891C37.6996 33.017 37.4591 33.0309 37.2186 33.0309C32.9174 33.0309 30.9365 29.2066 30.9365 24.4749C30.9365 19.7433 32.408 15.9189 37.2186 15.9189C41.2651 15.9189 42.7649 19.4642 42.8781 23.9585C42.8781 24.126 42.8781 24.3075 42.8781 24.4749H42.8639Z" fill="#FBFBFB" stroke="#2C2C2C" stroke-width="0.849315" stroke-miterlimit="10"/>
<path d="M31.2251 32.6334C32.1224 32.7675 32.6176 33.2379 32.8608 33.7399C33.1213 34.2775 33.0916 34.842 32.9478 35.1305C32.9235 35.1791 32.7905 35.3085 32.4497 35.4098C32.1367 35.5028 31.7361 35.5445 31.3335 35.5035C30.5104 35.4197 29.85 35.0295 29.7144 34.2692C29.6368 33.8334 29.7062 33.5437 29.8169 33.3453C29.9307 33.1415 30.1122 32.9903 30.3286 32.8785C30.5462 32.7662 30.7814 32.7028 30.9683 32.6686C31.0602 32.6517 31.1375 32.6423 31.1899 32.6373C31.2034 32.6361 31.2151 32.6342 31.2251 32.6334Z" fill="#93D1E0" stroke="#2C2C2C" stroke-width="0.849315"/>
<path d="M41.7178 30.5885C41.9017 30.5606 42.0998 30.5466 42.2837 30.5466C44.1797 30.5466 45.8351 31.5655 46.7123 33.073" stroke="#2C2C2C" stroke-width="0.849315" stroke-miterlimit="10" stroke-linecap="round"/>
<path d="M37.9128 32.9889L37.8555 33.0737" stroke="#2C2C2C" stroke-width="0.849315" stroke-miterlimit="10" stroke-linecap="round"/>
<path d="M16.1372 48.6149C16.1372 51.3785 17.801 52.4166 19.2373 52.4166C20.6735 52.4166 22.3373 51.3785 22.3373 48.6149C22.3373 45.8513 19.2373 41.2781 19.2373 41.2781C19.2373 41.2781 16.1372 45.8513 16.1372 48.6149Z" fill="#93D1E0"/>
<path d="M25.3571 32.8414C25.5225 31.9576 24.0663 30.9515 22.1046 30.5942C20.1428 30.237 18.4185 30.6638 18.2531 31.5476C18.0877 32.4314 19.5439 33.4375 21.5056 33.7947C23.4673 34.152 25.1917 33.7252 25.3571 32.8414Z" fill="#93D1E0"/>
<path d="M19.5354 38.8372C20.3914 38.8372 21.0854 38.1526 21.0854 37.3081C21.0854 36.4637 20.3914 35.7791 19.5354 35.7791C18.6793 35.7791 17.9854 36.4637 17.9854 37.3081C17.9854 38.1526 18.6793 38.8372 19.5354 38.8372Z" fill="#93D1E0"/>
<g filter="url(#filter0_g_40000418_4959)">
<path d="M28.877 43.2005C28.877 43.2005 33.5143 38.1565 35.4422 40.4445L37.3701 42.7325" stroke="black" stroke-width="0.849315" stroke-miterlimit="10" stroke-linecap="round"/>
</g>
<g filter="url(#filter1_g_40000418_4959)">
<path d="M32.2739 23.9302L39.0684 27.2815" stroke="#2C2C2C" stroke-width="0.849315" stroke-miterlimit="10" stroke-linecap="round"/>
</g>
<g filter="url(#filter2_g_40000418_4959)">
<path d="M29.7262 23.9302L22.9316 27.2815" stroke="#2C2C2C" stroke-width="0.849315" stroke-miterlimit="10" stroke-linecap="round"/>
</g>
</g>
<defs>
<filter id="filter0_g_40000418_4959" x="28.1124" y="39.0852" width="10.0222" height="4.87965" filterUnits="userSpaceOnUse" color-interpolation-filters="sRGB">
<feFlood flood-opacity="0" result="BackgroundImageFix"/>
<feBlend mode="normal" in="SourceGraphic" in2="BackgroundImageFix" result="shape"/>
<feTurbulence type="fractalNoise" baseFrequency="0.78494632244110107 0.78494632244110107" numOctaves="3" seed="7043" />
<feDisplacementMap in="shape" scale="0.67945206165313721" xChannelSelector="R" yChannelSelector="G" result="displacedImage" width="100%" height="100%" />
<feMerge result="effect1_texture_40000418_4959">
<feMergeNode in="displacedImage"/>
</feMerge>
</filter>
<filter id="filter1_g_40000418_4959" x="31.5094" y="23.1656" width="8.3235" height="4.88038" filterUnits="userSpaceOnUse" color-interpolation-filters="sRGB">
<feFlood flood-opacity="0" result="BackgroundImageFix"/>
<feBlend mode="normal" in="SourceGraphic" in2="BackgroundImageFix" result="shape"/>
<feTurbulence type="fractalNoise" baseFrequency="0.78494632244110107 0.78494632244110107" numOctaves="3" seed="7043" />
<feDisplacementMap in="shape" scale="0.67945206165313721" xChannelSelector="R" yChannelSelector="G" result="displacedImage" width="100%" height="100%" />
<feMerge result="effect1_texture_40000418_4959">
<feMergeNode in="displacedImage"/>
</feMerge>
</filter>
<filter id="filter2_g_40000418_4959" x="22.1671" y="23.1656" width="8.3235" height="4.88038" filterUnits="userSpaceOnUse" color-interpolation-filters="sRGB">
<feFlood flood-opacity="0" result="BackgroundImageFix"/>
<feBlend mode="normal" in="SourceGraphic" in2="BackgroundImageFix" result="shape"/>
<feTurbulence type="fractalNoise" baseFrequency="0.78494632244110107 0.78494632244110107" numOctaves="3" seed="7043" />
<feDisplacementMap in="shape" scale="0.67945206165313721" xChannelSelector="R" yChannelSelector="G" result="displacedImage" width="100%" height="100%" />
<feMerge result="effect1_texture_40000418_4959">
<feMergeNode in="displacedImage"/>
</feMerge>
</filter>
<clipPath id="clip0_40000418_4959">
<rect width="62" height="62" fill="white"/>
</clipPath>
</defs>
</svg>
