<svg width="73" height="74" viewBox="0 0 73 74" fill="none" xmlns="http://www.w3.org/2000/svg">
<g clip-path="url(#clip0_40000418_4959)">
<path d="M36.5 0.5C56.3759 0.5 72.5 16.8352 72.5 37C72.5 57.1648 56.3759 73.5 36.5 73.5C16.6241 73.5 0.5 57.1648 0.5 37C0.5 16.8352 16.6241 0.5 36.5 0.5Z" fill="#EEEDEB" stroke="#9C9C9C"/>
<g filter="url(#filter0_g_40000418_4959)">
<path d="M36.4089 29.212C36.4089 34.8428 35.1428 39.424 29.7453 39.424C24.6809 39.424 22.3486 34.8594 22.3486 29.212C22.3486 23.5646 24.0645 19 29.7453 19C34.693 19 36.4089 23.5646 36.4089 29.212Z" fill="#FBFBFB" stroke="#2C2C2C" stroke-miterlimit="10"/>
<path d="M50.4689 29.212C50.4689 29.4119 50.4689 29.5952 50.4689 29.7951C50.4356 32.4272 50.0857 34.7761 49.1361 36.5087C47.237 36.7086 45.6044 37.8081 44.6549 39.374C44.3883 39.4073 44.1051 39.424 43.8219 39.424C38.7576 39.424 36.4253 34.8594 36.4253 29.212C36.4253 23.5646 38.1578 19 43.8219 19C48.5864 19 50.3523 23.2314 50.4855 28.5956C50.4855 28.7955 50.4855 29.0121 50.4855 29.212H50.4689Z" fill="#FBFBFB" stroke="#2C2C2C" stroke-miterlimit="10"/>
<path d="M36.7671 38.9432C37.8189 39.1035 38.4024 39.663 38.6899 40.2645C38.9979 40.9087 38.9636 41.5872 38.7925 41.9354C38.7627 41.996 38.6049 42.15 38.2056 42.2704C37.8378 42.3812 37.3664 42.4305 36.8931 42.3817C35.9283 42.2821 35.1466 41.8182 34.9858 40.9032C34.8941 40.3805 34.9762 40.032 35.1079 39.7928C35.2429 39.5478 35.4581 39.3673 35.7124 39.2343C35.9682 39.1005 36.2439 39.025 36.4634 38.9843C36.5713 38.9642 36.6615 38.9531 36.7231 38.9471C36.74 38.9455 36.7549 38.9442 36.7671 38.9432Z" fill="#93D1E0" stroke="#2C2C2C"/>
<path d="M49.1191 36.5087C49.3357 36.4754 49.5689 36.4587 49.7855 36.4587C52.0178 36.4587 53.9669 37.6748 54.9998 39.474" stroke="#2C2C2C" stroke-miterlimit="10" stroke-linecap="round"/>
<path d="M44.6393 39.3738L44.5718 39.475" stroke="#2C2C2C" stroke-miterlimit="10" stroke-linecap="round"/>
</g>
<g filter="url(#filter1_g_40000418_4959)">
<path d="M19 58.0242C19 61.3226 20.959 62.5617 22.6501 62.5617C24.3412 62.5617 26.3002 61.3226 26.3002 58.0242C26.3002 54.7257 22.6501 49.2673 22.6501 49.2673C22.6501 49.2673 19 54.7257 19 58.0242Z" fill="#93D1E0"/>
<path d="M29.8561 39.1978C30.0509 38.143 28.3363 36.9422 26.0266 36.5158C23.7168 36.0893 21.6865 36.5988 21.4918 37.6536C21.297 38.7085 23.0116 39.9093 25.3213 40.3357C27.6311 40.7621 29.6614 40.2527 29.8561 39.1978Z" fill="#93D1E0"/>
<path d="M23.0013 46.3541C24.0093 46.3541 24.8263 45.537 24.8263 44.529C24.8263 43.5211 24.0093 42.704 23.0013 42.704C21.9934 42.704 21.1763 43.5211 21.1763 44.529C21.1763 45.537 21.9934 46.3541 23.0013 46.3541Z" fill="#93D1E0"/>
</g>
<g filter="url(#filter2_g_40000418_4959)">
<path d="M34 51.5618C34 51.5618 39.4601 45.5416 41.7301 48.2724L44 51.0032" stroke="black" stroke-miterlimit="10" stroke-linecap="round"/>
</g>
<g filter="url(#filter3_g_40000418_4959)">
<path d="M38 28.5618L46 32.5618" stroke="#2C2C2C" stroke-miterlimit="10" stroke-linecap="round"/>
</g>
<g filter="url(#filter4_g_40000418_4959)">
<path d="M35 28.5618L27 32.5618" stroke="#2C2C2C" stroke-miterlimit="10" stroke-linecap="round"/>
</g>
</g>
<defs>
<filter id="filter0_g_40000418_4959" x="21.4486" y="18.1" width="34.4514" height="25.2004" filterUnits="userSpaceOnUse" color-interpolation-filters="sRGB">
<feFlood flood-opacity="0" result="BackgroundImageFix"/>
<feBlend mode="normal" in="SourceGraphic" in2="BackgroundImageFix" result="shape"/>
<feTurbulence type="fractalNoise" baseFrequency="0.66666668653488159 0.66666668653488159" numOctaves="3" seed="7043" />
<feDisplacementMap in="shape" scale="0.80000001192092896" xChannelSelector="R" yChannelSelector="G" result="displacedImage" width="100%" height="100%" />
<feMerge result="effect1_texture_40000418_4959">
<feMergeNode in="displacedImage"/>
</feMerge>
</filter>
<filter id="filter1_g_40000418_4959" x="18.6" y="35.9651" width="11.6711" height="26.9965" filterUnits="userSpaceOnUse" color-interpolation-filters="sRGB">
<feFlood flood-opacity="0" result="BackgroundImageFix"/>
<feBlend mode="normal" in="SourceGraphic" in2="BackgroundImageFix" result="shape"/>
<feTurbulence type="fractalNoise" baseFrequency="0.66666668653488159 0.66666668653488159" numOctaves="3" seed="7043" />
<feDisplacementMap in="shape" scale="0.80000001192092896" xChannelSelector="R" yChannelSelector="G" result="displacedImage" width="100%" height="100%" />
<feMerge result="effect1_texture_40000418_4959">
<feMergeNode in="displacedImage"/>
</feMerge>
</filter>
<filter id="filter2_g_40000418_4959" x="33.1" y="46.6624" width="11.8" height="5.79939" filterUnits="userSpaceOnUse" color-interpolation-filters="sRGB">
<feFlood flood-opacity="0" result="BackgroundImageFix"/>
<feBlend mode="normal" in="SourceGraphic" in2="BackgroundImageFix" result="shape"/>
<feTurbulence type="fractalNoise" baseFrequency="0.66666668653488159 0.66666668653488159" numOctaves="3" seed="7043" />
<feDisplacementMap in="shape" scale="0.80000001192092896" xChannelSelector="R" yChannelSelector="G" result="displacedImage" width="100%" height="100%" />
<feMerge result="effect1_texture_40000418_4959">
<feMergeNode in="displacedImage"/>
</feMerge>
</filter>
<filter id="filter3_g_40000418_4959" x="37.1" y="27.6616" width="9.8" height="5.80024" filterUnits="userSpaceOnUse" color-interpolation-filters="sRGB">
<feFlood flood-opacity="0" result="BackgroundImageFix"/>
<feBlend mode="normal" in="SourceGraphic" in2="BackgroundImageFix" result="shape"/>
<feTurbulence type="fractalNoise" baseFrequency="0.66666668653488159 0.66666668653488159" numOctaves="3" seed="7043" />
<feDisplacementMap in="shape" scale="0.80000001192092896" xChannelSelector="R" yChannelSelector="G" result="displacedImage" width="100%" height="100%" />
<feMerge result="effect1_texture_40000418_4959">
<feMergeNode in="displacedImage"/>
</feMerge>
</filter>
<filter id="filter4_g_40000418_4959" x="26.1" y="27.6616" width="9.8" height="5.80024" filterUnits="userSpaceOnUse" color-interpolation-filters="sRGB">
<feFlood flood-opacity="0" result="BackgroundImageFix"/>
<feBlend mode="normal" in="SourceGraphic" in2="BackgroundImageFix" result="shape"/>
<feTurbulence type="fractalNoise" baseFrequency="0.66666668653488159 0.66666668653488159" numOctaves="3" seed="7043" />
<feDisplacementMap in="shape" scale="0.80000001192092896" xChannelSelector="R" yChannelSelector="G" result="displacedImage" width="100%" height="100%" />
<feMerge result="effect1_texture_40000418_4959">
<feMergeNode in="displacedImage"/>
</feMerge>
</filter>
<clipPath id="clip0_40000418_4959">
<rect width="73" height="74" fill="white"/>
</clipPath>
</defs>
</svg>
