<svg width="73" height="74" viewBox="0 0 73 74" fill="none" xmlns="http://www.w3.org/2000/svg">
<g clip-path="url(#clip0_40000418_4939)">
<path d="M36.5 0.5C56.3759 0.5 72.5 16.8352 72.5 37C72.5 57.1648 56.3759 73.5 36.5 73.5C16.6241 73.5 0.5 57.1648 0.5 37C0.5 16.8352 16.6241 0.5 36.5 0.5Z" fill="#EEEDEB" stroke="#9C9C9C"/>
<g filter="url(#filter0_g_40000418_4939)">
<path d="M36.2104 35.053C36.2104 40.7438 34.9307 45.374 29.4756 45.374C24.3572 45.374 22 40.7607 22 35.053C22 29.3452 23.7342 24.7319 29.4756 24.7319C34.4762 24.7319 36.2104 29.3452 36.2104 35.053Z" fill="#FBFBFB" stroke="#2C2C2C" stroke-miterlimit="10"/>
<path d="M50.4201 35.053C50.4201 35.255 50.4201 35.4402 50.4201 35.6423C50.3864 38.3025 50.0328 40.6765 49.0731 42.4275C47.1537 42.6296 45.5037 43.7408 44.544 45.3235C44.2746 45.3572 43.9884 45.374 43.7022 45.374C38.5837 45.374 36.2266 40.7607 36.2266 35.053C36.2266 29.3452 37.9776 24.7319 43.7022 24.7319C48.5175 24.7319 50.3022 29.0085 50.4369 34.43C50.4369 34.632 50.4369 34.8509 50.4369 35.053H50.4201Z" fill="#FBFBFB" stroke="#2C2C2C" stroke-miterlimit="10"/>
<path d="M32.4717 30.4008C33.6696 30.4008 34.4433 30.934 34.9473 31.8226C35.4723 32.7485 35.71 34.0783 35.71 35.6254C35.71 37.1906 35.5313 38.5166 35.0371 39.4379C34.7954 39.8884 34.4821 40.2335 34.0811 40.4691C33.6792 40.7053 33.1578 40.85 32.4717 40.85C31.2262 40.8499 30.3441 40.3018 29.752 39.3998C29.1442 38.4738 28.8301 37.1503 28.8301 35.6254C28.8301 34.0766 29.0682 32.7566 29.6338 31.8383C30.1743 30.9606 31.0424 30.4008 32.4717 30.4008Z" fill="#2C2C2C" stroke="#2C2C2C"/>
<path d="M46.6821 29.8284C47.88 29.8284 48.6537 30.3617 49.1577 31.2502C49.6827 32.1761 49.9204 33.5059 49.9204 35.053C49.9204 36.6183 49.7418 37.9442 49.2476 38.8655C49.0058 39.316 48.6925 39.6611 48.2915 39.8967C47.8896 40.1329 47.3682 40.2776 46.6821 40.2776C45.4366 40.2775 44.5546 39.7294 43.9624 38.8274C43.3546 37.9014 43.0405 36.5779 43.0405 35.053C43.0405 33.5042 43.2787 32.1842 43.8442 31.2659C44.3848 30.3883 45.2529 29.8284 46.6821 29.8284Z" fill="#2C2C2C" stroke="#2C2C2C"/>
<path d="M36.5723 44.8827C37.6373 45.0449 38.2281 45.6119 38.5195 46.2216C38.8313 46.8739 38.7969 47.5614 38.623 47.9149C38.5915 47.9784 38.4299 48.1342 38.0264 48.2557C37.654 48.3679 37.1781 48.4174 36.6992 48.368C35.7228 48.2674 34.9287 47.7983 34.7656 46.87C34.6727 46.3407 34.7559 45.9869 34.8896 45.744C35.0267 45.4952 35.2453 45.3124 35.5029 45.1776C35.7621 45.042 36.0415 44.966 36.2637 44.9247C36.3731 44.9044 36.4649 44.8926 36.5273 44.8866C36.5447 44.8849 36.5598 44.8836 36.5723 44.8827Z" fill="#93D1E0" stroke="#2C2C2C"/>
<path d="M49.0566 42.4276C49.2755 42.3939 49.5112 42.3771 49.7301 42.3771C51.9863 42.3771 53.9562 43.6062 55.0001 45.4246" stroke="#2C2C2C" stroke-miterlimit="10" stroke-linecap="round"/>
<path d="M44.5282 45.3234L44.46 45.4257" stroke="#2C2C2C" stroke-miterlimit="10" stroke-linecap="round"/>
</g>
</g>
<defs>
<filter id="filter0_g_40000418_4939" x="21.1" y="23.8319" width="34.8" height="25.4555" filterUnits="userSpaceOnUse" color-interpolation-filters="sRGB">
<feFlood flood-opacity="0" result="BackgroundImageFix"/>
<feBlend mode="normal" in="SourceGraphic" in2="BackgroundImageFix" result="shape"/>
<feTurbulence type="fractalNoise" baseFrequency="0.66666668653488159 0.66666668653488159" numOctaves="3" seed="7043" />
<feDisplacementMap in="shape" scale="0.80000001192092896" xChannelSelector="R" yChannelSelector="G" result="displacedImage" width="100%" height="100%" />
<feMerge result="effect1_texture_40000418_4939">
<feMergeNode in="displacedImage"/>
</feMerge>
</filter>
<clipPath id="clip0_40000418_4939">
<rect width="73" height="74" fill="white"/>
</clipPath>
</defs>
</svg>
