<svg width="62" height="62" viewBox="0 0 62 62" fill="none" xmlns="http://www.w3.org/2000/svg">
<g clip-path="url(#clip0_40000417_6755)">
<circle cx="31" cy="31" r="30.5753" fill="#EEEDEB" stroke="#9C9C9C" stroke-width="0.849315"/>
<path d="M13.3534 35.1892L5.0957 40.8582" stroke="#2C2C2C" stroke-width="0.849315" stroke-miterlimit="10" stroke-linecap="round"/>
<path d="M18.161 35.1892L9.90332 40.8582" stroke="#2C2C2C" stroke-width="0.849315" stroke-miterlimit="10" stroke-linecap="round"/>
<path d="M23.8876 35.1892L15.6401 40.8582" stroke="#2C2C2C" stroke-width="0.849315" stroke-miterlimit="10" stroke-linecap="round"/>
<path d="M31.5716 29.3368V29.676C31.5716 29.8815 31.5612 30.0768 31.5612 30.2823C31.5507 30.5906 31.5299 30.8989 31.5091 31.1969C31.5091 31.2894 31.4987 31.3819 31.4882 31.4744C31.1653 35.544 29.7068 38.5757 25.4669 38.5757C20.8207 38.5757 18.6851 34.4341 18.6851 29.3368C18.6851 28.155 18.7684 27.0143 18.9767 25.9763C20.9353 26.223 22.9771 26.3977 25.071 26.521C27.0191 26.6443 29.0089 26.706 31.0507 26.706C31.1653 26.7162 31.2903 26.7162 31.4049 26.7162C31.5195 27.5487 31.5716 28.4222 31.5716 29.3368Z" fill="#FBFBFB" stroke="#2C2C2C" stroke-width="0.849315" stroke-miterlimit="10"/>
<path d="M44.4682 29.3368C44.4682 29.5115 44.4682 29.6862 44.4578 29.8609C44.3849 34.7116 43.1452 38.5757 38.3531 38.5757C33.561 38.5757 31.5713 34.4341 31.5713 29.3368C31.5713 28.4222 31.6234 27.5487 31.738 26.7162C33.7798 26.7162 35.7696 26.6546 37.7177 26.5415C39.8428 26.4285 41.8847 26.2538 43.864 26.0071H43.8744C43.9786 26.0071 44.0828 25.9969 44.187 25.9763C44.3536 26.8498 44.437 27.7953 44.4578 28.7819C44.4682 28.9669 44.4682 29.1518 44.4682 29.3368Z" fill="#FBFBFB" stroke="#2C2C2C" stroke-width="0.849315" stroke-miterlimit="10"/>
<path d="M32.1021 39.3898C32.1021 39.3898 36.463 40.5642 34.6678 41.8882C32.8726 43.2047 31.8029 42.7035 31.0773 41.933C30.7183 41.5441 30.3144 39.9957 30.6285 39.5843C30.9427 39.1729 32.1021 39.3973 32.1021 39.3973V39.3898Z" fill="#FEE888" stroke="#2C2C2C" stroke-width="0.849315" stroke-miterlimit="10"/>
<path d="M31.4047 26.7162C31.2901 26.7162 31.1651 26.7162 31.0505 26.706C29.0087 26.706 27.0189 26.6443 25.0708 26.521C22.9769 26.3977 20.9351 26.223 18.9766 25.9763C19.612 22.5439 21.4664 20.1083 25.4667 20.1083C29.1858 20.1083 30.9151 22.8933 31.4047 26.7162Z" stroke="#2C2C2C" stroke-width="0.849315" stroke-miterlimit="10"/>
<path d="M44.1868 25.9763C44.0826 25.9969 43.9784 26.0071 43.8743 26.0071H43.8638C41.8845 26.2538 39.8427 26.4285 37.7175 26.5415C35.7694 26.6546 33.7796 26.7162 31.7378 26.7162C32.2483 22.8933 34.0817 20.1083 38.3529 20.1083C41.8324 20.1083 43.5721 22.5439 44.1868 25.9763Z" stroke="#2C2C2C" stroke-width="0.849315" stroke-miterlimit="10"/>
<path d="M29.1133 28.179C30.0335 28.1792 30.9383 29.1682 30.9385 30.5696V30.719C30.9226 30.7832 30.8966 30.8724 30.8535 30.9895C30.7756 31.2014 30.6603 31.4648 30.5137 31.7688C30.2206 32.3763 29.8162 33.1201 29.376 33.8909C28.5023 35.4204 27.4996 37.0333 26.9814 37.8596C26.4533 37.0392 25.4274 35.431 24.5322 33.8987C24.0818 33.1277 23.6688 32.382 23.3691 31.7688C23.2191 31.4617 23.1002 31.1943 23.0205 30.9778C22.9359 30.7479 22.9121 30.6186 22.9121 30.5696C22.9123 29.156 23.8085 28.179 24.7275 28.179C25.5327 28.1792 26.3184 28.9269 26.5059 30.0735H27.3447C27.5322 28.9267 28.3288 28.179 29.1133 28.179Z" fill="#2C2C2C" stroke="#2C2C2C" stroke-width="0.849315"/>
<path d="M41.9053 28.179C42.8255 28.1792 43.7303 29.1682 43.7305 30.5696V30.719C43.7146 30.7832 43.6886 30.8724 43.6455 30.9895C43.5676 31.2014 43.4523 31.4648 43.3057 31.7688C43.0126 32.3763 42.6082 33.1201 42.168 33.8909C41.2943 35.4204 40.2916 37.0333 39.7734 37.8596C39.2453 37.0392 38.2194 35.431 37.3242 33.8987C36.8738 33.1277 36.4608 32.382 36.1611 31.7688C36.0111 31.4617 35.8922 31.1943 35.8125 30.9778C35.7279 30.7479 35.7041 30.6186 35.7041 30.5696C35.7043 29.156 36.6005 28.179 37.5195 28.179C38.3247 28.1792 39.1104 28.9269 39.2979 30.0735H40.1367C40.3242 28.9267 41.1208 28.179 41.9053 28.179Z" fill="#2C2C2C" stroke="#2C2C2C" stroke-width="0.849315"/>
</g>
<defs>
<clipPath id="clip0_40000417_6755">
<rect width="62" height="62" fill="white"/>
</clipPath>
</defs>
</svg>
