<svg width="62" height="62" viewBox="0 0 62 62" fill="none" xmlns="http://www.w3.org/2000/svg">
<g clip-path="url(#clip0_40000417_6797)">
<circle cx="31" cy="31" r="30.5753" fill="#EEEDEB" stroke="#9C9C9C" stroke-width="0.849315"/>
<path d="M31.5339 29.2589V29.5953C31.5339 29.7993 31.5235 29.993 31.5235 30.1969C31.5131 30.5028 31.4923 30.8087 31.4716 31.1044C31.4716 31.1962 31.4612 31.288 31.4508 31.3797C31.1288 35.4176 29.6746 38.4256 25.4471 38.4256C20.8144 38.4256 18.6851 34.3164 18.6851 29.2589C18.6851 28.0862 18.7682 26.9544 18.9759 25.9246C20.9287 26.1693 22.9645 26.3426 25.0523 26.465C26.9947 26.5873 28.9787 26.6485 31.0145 26.6485C31.1288 26.6587 31.2534 26.6587 31.3677 26.6587C31.482 27.4846 31.5339 28.3514 31.5339 29.2589Z" fill="#FBFBFB" stroke="#2C2C2C" stroke-width="0.849315" stroke-miterlimit="10"/>
<path d="M25.3569 26.9037C27.1235 27.0093 28.9239 27.0644 30.7661 27.0697C30.9787 27.6758 31.1001 28.3999 31.1411 29.2025L31.1548 29.6029V29.7777C31.1548 29.9224 31.1541 30.0404 31.145 30.1654V30.1732L31.144 30.182C31.1339 30.4791 31.114 30.7778 31.0933 31.0736L31.0923 31.0892V31.1039C31.0923 31.1676 31.0846 31.2356 31.0737 31.3314C30.9532 32.3031 30.6937 33.0765 30.2524 33.6019C29.827 34.1082 29.1933 34.431 28.2036 34.431C27.0681 34.431 26.2603 33.9383 25.7192 33.1322C25.1651 32.3065 24.8784 31.1287 24.8784 29.7777C24.8785 28.6629 25.0201 27.673 25.3569 26.9037Z" fill="#2C2C2C" stroke="#2C2C2C" stroke-width="0.849315"/>
<path d="M44.3812 29.2589C44.3812 29.4322 44.3812 29.6055 44.3708 29.7789C44.2981 34.5917 43.062 38.4256 38.284 38.4256C33.5059 38.4256 31.522 34.3164 31.522 29.2589C31.522 28.3514 31.5739 27.4846 31.6882 26.6587C33.724 26.6587 35.708 26.5975 37.6504 26.4854C39.7693 26.3732 41.8052 26.1999 43.7787 25.9551H43.7891C43.893 25.9551 43.9969 25.945 44.1007 25.9246C44.2669 26.7913 44.35 27.7294 44.3708 28.7082C44.3812 28.8918 44.3812 29.0753 44.3812 29.2589Z" fill="#FBFBFB" stroke="#2C2C2C" stroke-width="0.849315" stroke-miterlimit="10"/>
<path d="M30.7432 38.6377C30.8793 38.6403 31.0114 38.6575 31.1113 38.6748C31.1602 38.6833 31.1999 38.6914 31.2266 38.6973C31.2395 38.7001 31.2497 38.7026 31.2559 38.7041L31.2627 38.7061L31.3193 38.7207C31.341 38.7292 31.3665 38.7387 31.3945 38.75C31.5048 38.7944 31.6613 38.8601 31.8438 38.9443C32.212 39.1143 32.6741 39.3541 33.0762 39.6406C33.4907 39.936 33.7819 40.2403 33.8916 40.5195C33.942 40.6479 33.9515 40.7653 33.9229 40.8818C33.8933 41.0016 33.8149 41.1543 33.6328 41.335C32.7739 42.1813 32.1829 42.3482 31.793 42.2969C31.3941 42.2442 31.0373 41.9442 30.6953 41.457H30.6963C30.646 41.3838 30.5684 41.2098 30.4873 40.9404C30.4099 40.6833 30.3396 40.3751 30.2891 40.0645C30.2384 39.753 30.2094 39.4497 30.21 39.1992C30.2106 38.9256 30.2479 38.7904 30.2676 38.7559C30.2776 38.7382 30.3035 38.706 30.3906 38.6777C30.4811 38.6484 30.6035 38.635 30.7432 38.6377Z" fill="#FEE888" stroke="#2C2C2C" stroke-width="0.849315"/>
<path d="M31.4016 26.6646C31.2873 26.6646 31.1627 26.6646 31.0484 26.6544C29.0125 26.6544 27.0286 26.5932 25.0862 26.4708C22.9984 26.3485 20.9625 26.1751 19.0098 25.9304C19.6434 22.5248 21.4923 20.1082 25.4809 20.1082C29.1891 20.1082 30.9134 22.8714 31.4016 26.6646Z" stroke="#2C2C2C" stroke-width="0.849315" stroke-miterlimit="10"/>
<path d="M44.0971 25.9304C43.9933 25.9508 43.8894 25.961 43.7855 25.961H43.7751C41.8016 26.2057 39.7657 26.3791 37.6468 26.4912C35.7044 26.6034 33.7204 26.6646 31.6846 26.6646C32.1935 22.8714 34.0217 20.1082 38.2804 20.1082C41.7497 20.1082 43.4843 22.5248 44.0971 25.9304Z" stroke="#2C2C2C" stroke-width="0.849315" stroke-miterlimit="10"/>
<path d="M43.5659 26.4216C43.8117 27.0626 43.9477 27.8499 43.9917 28.739V28.7419C44.0013 28.9114 44.0015 29.0829 44.0015 29.2683C44.0015 29.4436 44.0012 29.6041 43.9917 29.7625V29.7742C43.9508 31.0326 43.7511 32.0794 43.2993 32.8015C42.8708 33.4864 42.1898 33.9216 41.0405 33.9216C39.9049 33.9216 39.0972 33.4281 38.5562 32.6218C38.002 31.7961 37.7153 30.6192 37.7153 29.2683C37.7153 28.3807 37.8031 27.5792 38.0083 26.9001C39.9217 26.7934 41.7691 26.637 43.5659 26.4216Z" fill="#2C2C2C" stroke="#2C2C2C" stroke-width="0.849315"/>
</g>
<defs>
<clipPath id="clip0_40000417_6797">
<rect width="62" height="62" fill="white"/>
</clipPath>
</defs>
</svg>
