<svg width="62" height="62" viewBox="0 0 62 62" fill="none" xmlns="http://www.w3.org/2000/svg">
<g clip-path="url(#clip0_40000417_6717)">
<circle cx="31" cy="31" r="30.5753" fill="#EEEDEB" stroke="#9C9C9C" stroke-width="0.849315"/>
<path d="M24.0342 40.741C23.9118 40.6853 23.7894 40.6296 23.667 40.5646" stroke="#2C2C2C" stroke-width="0.849315" stroke-miterlimit="10" stroke-linecap="round"/>
<path d="M37.271 40.741C37.3557 40.7039 37.431 40.6667 37.5064 40.6296L37.6382 40.5646" stroke="#2C2C2C" stroke-width="0.849315" stroke-miterlimit="10" stroke-linecap="round"/>
<path d="M37.2995 41.0847C37.2995 43.843 34.3245 46.0812 30.6529 46.0812C26.9813 46.0812 24.0063 43.843 24.0063 41.0847C24.0063 40.9733 24.0158 40.8525 24.0346 40.7411C28.2146 42.7471 33.1007 42.7471 37.2712 40.7411C37.2901 40.8525 37.2995 40.9733 37.2995 41.0847Z" stroke="#2C2C2C" stroke-width="0.849315" stroke-miterlimit="10" stroke-linecap="round"/>
<path d="M42.8352 25.0967C42.8352 25.2546 42.8352 25.4125 42.8258 25.5704C42.7599 29.9539 41.6396 33.4459 37.309 33.4459C32.9783 33.4459 31.1802 29.7032 31.1802 25.0967C31.1802 24.2702 31.2272 23.4808 31.3308 22.7285C33.176 22.7285 34.9742 22.6728 36.7347 22.5706C38.6552 22.4685 40.5004 22.3106 42.2892 22.0877H42.2986C42.3927 22.0877 42.4869 22.0784 42.581 22.0598C42.7316 22.8492 42.807 23.7036 42.8258 24.5952C42.8352 24.7624 42.8352 24.9296 42.8352 25.0967Z" fill="#FBFBFB" stroke="#2C2C2C" stroke-width="0.849315" stroke-miterlimit="10"/>
<path d="M31.1798 25.0967V25.4032C31.1798 25.5889 31.1704 25.7654 31.1704 25.9511C31.161 26.2298 31.1421 26.5084 31.1233 26.7777C31.1233 26.8613 31.1139 26.9449 31.1045 27.0285C30.8126 30.7062 29.4946 33.4459 25.663 33.4459C21.4641 33.4459 19.5342 29.7032 19.5342 25.0967C19.5342 24.0287 19.6095 22.9978 19.7978 22.0598C21.5677 22.2827 23.4129 22.4406 25.3052 22.552C27.0657 22.6635 28.8639 22.7192 30.7091 22.7192C30.8126 22.7285 30.9256 22.7285 31.0292 22.7285C31.1327 23.4808 31.1798 24.2702 31.1798 25.0967Z" fill="#FBFBFB" stroke="#2C2C2C" stroke-width="0.849315" stroke-miterlimit="10"/>
<path d="M42.0278 22.5446C42.2421 23.1184 42.3627 23.8208 42.4019 24.6158V24.6188C42.4105 24.772 42.4106 24.9273 42.4106 25.0963C42.4106 25.2562 42.4104 25.4015 42.4019 25.5446V25.5563C42.3649 26.7008 42.184 27.6463 41.7798 28.2955C41.3988 28.9073 40.7945 29.2965 39.7661 29.2965C38.7516 29.2965 38.032 28.8548 37.5483 28.1305C37.0516 27.3866 36.7925 26.3225 36.7925 25.0963C36.7925 24.3014 36.8693 23.5844 37.0483 22.9762C38.7619 22.8796 40.4172 22.7378 42.0278 22.5446Z" fill="#2C2C2C" stroke="#2C2C2C" stroke-width="0.849315"/>
<path d="M31.3345 33.3567C31.3345 33.3567 35.4347 34.4696 33.7468 35.7244C32.0589 36.972 31.0531 36.497 30.3709 35.7669C30.0333 35.3983 29.6536 33.9309 29.9489 33.541C30.2443 33.1511 31.3345 33.3638 31.3345 33.3638V33.3567Z" fill="#FEE888" stroke="#2C2C2C" stroke-width="0.849315" stroke-miterlimit="10"/>
<path d="M31.0292 22.7285C30.9257 22.7285 30.8127 22.7285 30.7091 22.7192C28.8639 22.7192 27.0658 22.6635 25.3053 22.552C23.413 22.4406 21.5678 22.2827 19.7979 22.0598C20.3721 18.9579 22.0479 16.7568 25.663 16.7568C29.024 16.7568 30.5868 19.2737 31.0292 22.7285Z" stroke="#2C2C2C" stroke-width="0.849315" stroke-miterlimit="10"/>
<path d="M42.5808 22.0598C42.4866 22.0784 42.3925 22.0877 42.2983 22.0877H42.2889C40.5002 22.3106 38.655 22.4685 36.7344 22.5706C34.9739 22.6728 33.1758 22.7285 31.3306 22.7285C31.7919 19.2737 33.4488 16.7568 37.3087 16.7568C40.4531 16.7568 42.0253 18.9579 42.5808 22.0598Z" stroke="#2C2C2C" stroke-width="0.849315" stroke-miterlimit="10"/>
<path d="M25.5973 23.4809C27.4614 23.4066 29.8055 24.2331 30.5681 26.3506C30.6058 26.4528 30.521 26.5549 30.4081 26.5549C29.6267 26.5364 28.0827 26.3321 25.5879 28.6817" stroke="#2C2C2C" stroke-width="0.849315" stroke-miterlimit="10" stroke-linecap="round"/>
</g>
<defs>
<clipPath id="clip0_40000417_6717">
<rect width="62" height="62" fill="white"/>
</clipPath>
</defs>
</svg>
