<svg width="73" height="74" viewBox="0 0 73 74" fill="none" xmlns="http://www.w3.org/2000/svg">
<g clip-path="url(#clip0_40000417_6677)">
<path d="M36.5 0.5C56.3759 0.5 72.5 16.8352 72.5 37C72.5 57.1648 56.3759 73.5 36.5 73.5C16.6241 73.5 0.5 57.1648 0.5 37C0.5 16.8352 16.6241 0.5 36.5 0.5Z" fill="#EEEDEB" stroke="#9C9C9C"/>
<g filter="url(#filter0_g_40000417_6677)">
<path d="M36.8266 31.26V31.6005C36.8266 31.8069 36.8162 32.0029 36.8162 32.2093C36.8059 32.5188 36.7851 32.8284 36.7644 33.1276C36.7644 33.2205 36.754 33.3133 36.7437 33.4062C36.4222 37.4923 34.9705 40.5362 30.7503 40.5362C26.1257 40.5362 24 36.3779 24 31.26C24 30.0734 24.083 28.928 24.2903 27.8859C26.2397 28.1335 28.2721 28.3089 30.3563 28.4327C32.2953 28.5566 34.2758 28.6185 36.3082 28.6185C36.4222 28.6288 36.5466 28.6288 36.6607 28.6288C36.7748 29.4646 36.8266 30.3416 36.8266 31.26Z" fill="#FBFBFB" stroke="#2C2C2C" stroke-miterlimit="10"/>
<path d="M30.7109 28.9495C32.4403 29.0532 34.2022 29.1082 36.0039 29.1145C36.2367 29.8103 36.3546 30.6606 36.3721 31.6086V31.7854C36.3721 31.9321 36.3722 32.0493 36.3633 32.1731L36.3623 32.1819V32.1917C36.3523 32.4912 36.3313 32.7926 36.3105 33.092L36.3096 33.1096V33.1272C36.3095 33.1874 36.3029 33.2524 36.292 33.3499C36.1723 34.328 35.9153 35.0949 35.4873 35.6116C35.0784 36.1052 34.4691 36.4241 33.502 36.4241C32.3978 36.424 31.6148 35.9402 31.0869 35.1428C30.5436 34.3222 30.2588 33.1451 30.2588 31.7854C30.2588 30.6836 30.3941 29.7092 30.7109 28.9495Z" fill="#2C2C2C" stroke="#2C2C2C"/>
<path d="M49.6519 31.26C49.6519 31.4354 49.6519 31.6108 49.6415 31.7862C49.569 36.6565 48.335 40.5362 43.5652 40.5362C38.7954 40.5362 36.8149 36.3779 36.8149 31.26C36.8149 30.3416 36.8668 29.4646 36.9808 28.6288C39.0132 28.6288 40.9937 28.5669 42.9327 28.4534C45.048 28.3399 47.0804 28.1645 49.0505 27.9168H49.0609C49.1646 27.9168 49.2683 27.9065 49.3719 27.8859C49.5379 28.7629 49.6208 29.7122 49.6415 30.7028C49.6519 30.8885 49.6519 31.0743 49.6519 31.26Z" fill="#FBFBFB" stroke="#2C2C2C" stroke-miterlimit="10"/>
<path d="M36.77 40.7643C36.9736 40.7672 37.1685 40.7867 37.314 40.8053C37.3857 40.8145 37.4441 40.8232 37.4839 40.8297C37.5037 40.833 37.5192 40.8358 37.5288 40.8375C37.5336 40.8384 37.5376 40.8391 37.5396 40.8395H37.5405L37.6304 40.8561C37.6635 40.8656 37.703 40.877 37.7476 40.8903C37.9029 40.9366 38.1229 41.0057 38.3794 41.0934C38.8961 41.27 39.5467 41.5197 40.1138 41.819C40.3971 41.9685 40.6493 42.125 40.8501 42.2838C41.0547 42.4457 41.1814 42.5904 41.2446 42.7096C41.3007 42.8154 41.3012 42.8873 41.2788 42.9547C41.2504 43.0396 41.1601 43.1872 40.897 43.3805C39.7109 44.246 38.8389 44.4597 38.1958 44.3971C37.5561 44.3348 37.0393 43.9892 36.5815 43.5065C36.5202 43.4404 36.4186 43.2749 36.3091 43.0055C36.205 42.7495 36.1108 42.4414 36.0425 42.1305C35.9737 41.8177 35.9352 41.5187 35.936 41.278C35.9365 41.1582 35.9462 41.0641 35.9614 40.9957C35.9774 40.9241 35.9937 40.9044 35.9888 40.9108C35.996 40.9014 36.0473 40.8527 36.2124 40.8131C36.3676 40.776 36.563 40.7614 36.77 40.7643Z" fill="#FEE888" stroke="#2C2C2C"/>
<path d="M28.542 49.6493C33.3118 52.1051 38.9837 52.136 43.7846 49.7215L43.9298 49.6493" stroke="#2C2C2C" stroke-miterlimit="10" stroke-linecap="round"/>
<path d="M36.6946 28.6347C36.5805 28.6347 36.4561 28.6347 36.342 28.6244C34.3097 28.6244 32.3292 28.5625 30.3902 28.4387C28.306 28.3149 26.2736 28.1395 24.3242 27.8918C24.9567 24.4455 26.8024 22 30.7842 22C34.486 22 36.2072 24.7963 36.6946 28.6347Z" stroke="#2C2C2C" stroke-miterlimit="10"/>
<path d="M49.3682 27.8918C49.2645 27.9125 49.1608 27.9228 49.0571 27.9228H49.0467C47.0766 28.1704 45.0442 28.3458 42.9289 28.4593C40.9899 28.5728 39.0094 28.6347 36.9771 28.6347C37.4851 24.7963 39.3101 22 43.5614 22C47.0247 22 48.7564 24.4455 49.3682 27.8918Z" stroke="#2C2C2C" stroke-miterlimit="10"/>
<path d="M48.7856 28.4653C49.0151 29.0953 49.1455 29.8653 49.188 30.7368V30.7397C49.1974 30.9091 49.1978 31.0812 49.1978 31.269C49.1978 31.4469 49.1973 31.6079 49.188 31.7661L49.187 31.7798C49.1463 33.0504 48.9469 34.0948 48.5054 34.8101C48.0912 35.4809 47.4374 35.9077 46.3169 35.9077C45.2127 35.9077 44.4298 35.4239 43.9019 34.6265C43.3587 33.8058 43.0737 32.6287 43.0737 31.269C43.0738 30.396 43.1571 29.6092 43.3491 28.9409C45.2193 28.8342 47.0267 28.6776 48.7856 28.4653Z" fill="#2C2C2C" stroke="#2C2C2C"/>
</g>
</g>
<defs>
<filter id="filter0_g_40000417_6677" x="23.1" y="21.1" width="27.4519" height="31.312" filterUnits="userSpaceOnUse" color-interpolation-filters="sRGB">
<feFlood flood-opacity="0" result="BackgroundImageFix"/>
<feBlend mode="normal" in="SourceGraphic" in2="BackgroundImageFix" result="shape"/>
<feTurbulence type="fractalNoise" baseFrequency="0.66666668653488159 0.66666668653488159" numOctaves="3" seed="7043" />
<feDisplacementMap in="shape" scale="0.80000001192092896" xChannelSelector="R" yChannelSelector="G" result="displacedImage" width="100%" height="100%" />
<feMerge result="effect1_texture_40000417_6677">
<feMergeNode in="displacedImage"/>
</feMerge>
</filter>
<clipPath id="clip0_40000417_6677">
<rect width="73" height="74" fill="white"/>
</clipPath>
</defs>
</svg>
