<svg width="73" height="74" viewBox="0 0 73 74" fill="none" xmlns="http://www.w3.org/2000/svg">
<g clip-path="url(#clip0_40000417_7075)">
<path d="M36.5 0.5C56.3759 0.5 72.5 16.8352 72.5 37C72.5 57.1648 56.3759 73.5 36.5 73.5C16.6241 73.5 0.5 57.1648 0.5 37C0.5 16.8352 16.6241 0.5 36.5 0.5Z" fill="#EEEDEB" stroke="#9C9C9C"/>
<g filter="url(#filter0_g_40000417_7075)">
<path d="M37.0246 42.4124C37.0246 42.4124 41.9468 43.7667 39.9205 45.2936C37.8942 46.8118 36.6869 46.2339 35.8679 45.3454C35.4626 44.8968 35.0067 43.1111 35.3613 42.6367C35.7159 42.1622 37.0246 42.421 37.0246 42.421V42.4124Z" fill="#FEE888" stroke="#2C2C2C" stroke-miterlimit="10"/>
<path d="M36.1977 31.5632C36.1977 37.4094 34.892 42.1381 29.2929 42.1381C24.0584 42.1381 21.647 37.4094 21.647 31.5632C21.647 30.4692 21.7058 29.4106 21.8469 28.4225C24.9053 29.3282 28.9518 29.3988 33.1276 26.3052C33.7393 25.8582 34.3627 25.3288 34.9861 24.7172C35.3743 25.5641 35.6684 26.5169 35.8684 27.5638C36.0919 28.8107 36.1977 30.1516 36.1977 31.5632Z" fill="#FBFBFB" stroke="#2C2C2C" stroke-miterlimit="10"/>
<path d="M50.7485 31.5632C50.7485 37.4093 49.4546 42.138 43.8554 42.138C38.6092 42.138 36.1978 37.4093 36.1978 31.5632C36.1978 30.2222 36.2919 28.9518 36.5154 27.7755C39.9619 28.7989 44.6435 28.7871 49.3722 24.3995C50.3486 26.2816 50.7485 28.7989 50.7485 31.5632Z" fill="#FBFBFB" stroke="#2C2C2C" stroke-miterlimit="10"/>
<path d="M34.9859 24.7171C34.3624 25.3288 33.739 25.8581 33.1273 26.3051C28.9515 29.3987 24.905 29.3282 21.8467 28.4224C22.4584 24.1172 24.5286 21 29.2926 21C32.1275 21 33.939 22.4468 34.9859 24.7171Z" stroke="#2C2C2C" stroke-miterlimit="10"/>
<path d="M29.1279 31.2048C30.3535 31.2048 31.1494 31.7536 31.668 32.6677C32.2072 33.6185 32.4512 34.9821 32.4512 36.5632C32.4511 38.1634 32.27 39.5226 31.7637 40.4685C31.5159 40.9313 31.1945 41.2865 30.7822 41.5291C30.3689 41.7722 29.8327 41.9207 29.1279 41.9207C27.8528 41.9206 26.9441 41.357 26.333 40.4294C25.7066 39.4786 25.3819 38.1217 25.3818 36.5632C25.3818 34.9803 25.6269 33.6264 26.209 32.6833C26.7662 31.7806 27.6607 31.2049 29.1279 31.2048Z" fill="#2C2C2C" stroke="#2C2C2C"/>
<path d="M43.6675 31.2048C44.8931 31.2048 45.689 31.7536 46.2075 32.6677C46.7468 33.6185 46.9907 34.9821 46.9907 36.5632C46.9907 38.1634 46.8095 39.5226 46.3032 40.4685C46.0555 40.9313 45.7341 41.2865 45.3218 41.5291C44.9085 41.7722 44.3723 41.9207 43.6675 41.9207C42.3924 41.9206 41.4837 41.357 40.8726 40.4294C40.2462 39.4786 39.9215 38.1217 39.9214 36.5632C39.9214 34.9803 40.1665 33.6264 40.7485 32.6833C41.3057 31.7806 42.2002 31.2049 43.6675 31.2048Z" fill="#2C2C2C" stroke="#2C2C2C"/>
<path d="M49.3725 24.3995C44.6438 28.7871 39.9622 28.7988 36.5156 27.7755C37.2214 23.8113 39.3152 21 43.8557 21C46.5494 21 48.3138 22.3057 49.3725 24.3995Z" stroke="#2C2C2C" stroke-miterlimit="10" stroke-linecap="round"/>
<path d="M36.5151 27.7754C36.2916 27.7048 36.0799 27.6343 35.8682 27.5754" stroke="#2C2C2C" stroke-miterlimit="10" stroke-linecap="round"/>
</g>
<g filter="url(#filter1_g_40000417_7075)">
<path d="M21 50C23.2903 50 23.2903 53 25.5677 53C27.8451 53 27.8451 50 30.1355 50C32.4258 50 32.4258 53 34.7032 53C36.9806 53 36.9935 50 39.2709 50C41.5483 50 41.5613 53 43.8387 53C46.1161 53 46.129 50 48.4193 50C50.7097 50 50.7097 53 53 53" stroke="#2C2C2C" stroke-miterlimit="10" stroke-linecap="round"/>
</g>
</g>
<defs>
<filter id="filter0_g_40000417_7075" x="20.747" y="20.1" width="30.9016" height="27.0325" filterUnits="userSpaceOnUse" color-interpolation-filters="sRGB">
<feFlood flood-opacity="0" result="BackgroundImageFix"/>
<feBlend mode="normal" in="SourceGraphic" in2="BackgroundImageFix" result="shape"/>
<feTurbulence type="fractalNoise" baseFrequency="0.66666668653488159 0.66666668653488159" numOctaves="3" seed="7043" />
<feDisplacementMap in="shape" scale="0.80000001192092896" xChannelSelector="R" yChannelSelector="G" result="displacedImage" width="100%" height="100%" />
<feMerge result="effect1_texture_40000417_7075">
<feMergeNode in="displacedImage"/>
</feMerge>
</filter>
<filter id="filter1_g_40000417_7075" x="20.1" y="49.1" width="33.8" height="4.8" filterUnits="userSpaceOnUse" color-interpolation-filters="sRGB">
<feFlood flood-opacity="0" result="BackgroundImageFix"/>
<feBlend mode="normal" in="SourceGraphic" in2="BackgroundImageFix" result="shape"/>
<feTurbulence type="fractalNoise" baseFrequency="0.66666668653488159 0.66666668653488159" numOctaves="3" seed="7043" />
<feDisplacementMap in="shape" scale="0.80000001192092896" xChannelSelector="R" yChannelSelector="G" result="displacedImage" width="100%" height="100%" />
<feMerge result="effect1_texture_40000417_7075">
<feMergeNode in="displacedImage"/>
</feMerge>
</filter>
<clipPath id="clip0_40000417_7075">
<rect width="73" height="74" fill="white"/>
</clipPath>
</defs>
</svg>
