<svg width="73" height="74" viewBox="0 0 73 74" fill="none" xmlns="http://www.w3.org/2000/svg">
<g clip-path="url(#clip0_40000417_6717)">
<path d="M36.5 0.5C56.3759 0.5 72.5 16.8352 72.5 37C72.5 57.1648 56.3759 73.5 36.5 73.5C16.6241 73.5 0.5 57.1648 0.5 37C0.5 16.8352 16.6241 0.5 36.5 0.5Z" fill="#EEEDEB" stroke="#9C9C9C"/>
<g filter="url(#filter0_g_40000417_6717)">
<path d="M28.2985 48.6263C28.1544 48.5597 28.0103 48.4932 27.8662 48.4156" stroke="#2C2C2C" stroke-miterlimit="10" stroke-linecap="round"/>
<path d="M43.8838 48.6263C43.9836 48.5819 44.0722 48.5376 44.1609 48.4932L44.3161 48.4156" stroke="#2C2C2C" stroke-miterlimit="10" stroke-linecap="round"/>
<path d="M43.9172 49.0365C43.9172 52.3286 40.4145 55 36.0914 55C31.7684 55 28.2656 52.3286 28.2656 49.0365C28.2656 48.9035 28.2767 48.7594 28.2989 48.6263C33.2205 51.0206 38.9734 51.0206 43.884 48.6263C43.9061 48.7594 43.9172 48.9035 43.9172 49.0365Z" stroke="#2C2C2C" stroke-miterlimit="10" stroke-linecap="round"/>
<path d="M50.4348 29.9542C50.4348 30.1426 50.4348 30.331 50.4237 30.5195C50.3461 35.7515 49.027 39.9193 43.9281 39.9193C38.8291 39.9193 36.7119 35.4522 36.7119 29.9542C36.7119 28.9676 36.7673 28.0254 36.8893 27.1276C39.0619 27.1276 41.179 27.0611 43.2519 26.9391C45.5132 26.8172 47.6858 26.6288 49.7919 26.3627H49.8029C49.9138 26.3627 50.0246 26.3516 50.1355 26.3295C50.3128 27.2717 50.4015 28.2915 50.4237 29.3556C50.4348 29.5551 50.4348 29.7546 50.4348 29.9542Z" fill="#FBFBFB" stroke="#2C2C2C" stroke-miterlimit="10"/>
<path d="M36.7118 29.9542V30.32C36.7118 30.5417 36.7007 30.7523 36.7007 30.974C36.6896 31.3065 36.6674 31.639 36.6453 31.9605C36.6453 32.0603 36.6342 32.16 36.6231 32.2598C36.2795 36.6493 34.7276 39.9193 30.2161 39.9193C25.2724 39.9193 23 35.4522 23 29.9542C23 28.6794 23.0887 27.449 23.3104 26.3295C25.3943 26.5955 27.5669 26.7839 29.7949 26.917C31.8678 27.05 33.9849 27.1165 36.1575 27.1165C36.2795 27.1276 36.4125 27.1276 36.5344 27.1276C36.6564 28.0254 36.7118 28.9676 36.7118 29.9542Z" fill="#FBFBFB" stroke="#2C2C2C" stroke-miterlimit="10"/>
<path d="M49.4839 26.9026C49.7369 27.5891 49.8782 28.43 49.9243 29.3801V29.3831C49.9345 29.5664 49.9351 29.7525 49.9351 29.9543C49.9351 30.1449 49.9344 30.3184 49.9243 30.4895V30.5032C49.8807 31.8703 49.6673 33.0014 49.1899 33.7786C48.74 34.5109 48.0291 34.9738 46.8218 34.9739C45.6303 34.9739 44.7823 34.4488 44.2114 33.5823C43.6252 32.6925 43.3199 31.4197 43.3198 29.9543C43.3198 29.0034 43.4097 28.1445 43.6216 27.4163C45.6389 27.301 47.5878 27.1331 49.4839 26.9026Z" fill="#2C2C2C" stroke="#2C2C2C"/>
<path d="M36.8935 39.8128C36.8935 39.8128 41.7213 41.1412 39.7339 42.6387C37.7465 44.1278 36.5623 43.561 35.7591 42.6895C35.3616 42.2495 34.9144 40.4982 35.2622 40.0328C35.61 39.5675 36.8935 39.8213 36.8935 39.8213V39.8128Z" fill="#FEE888" stroke="#2C2C2C" stroke-miterlimit="10"/>
<path d="M36.5346 27.1275C36.4127 27.1275 36.2796 27.1275 36.1577 27.1164C33.9851 27.1164 31.8679 27.0499 29.7951 26.9169C27.5671 26.7838 25.3945 26.5954 23.3105 26.3294C23.9867 22.6271 25.9598 20 30.2163 20C34.1736 20 36.0136 23.004 36.5346 27.1275Z" stroke="#2C2C2C" stroke-miterlimit="10"/>
<path d="M50.1354 26.3294C50.0245 26.3515 49.9137 26.3626 49.8028 26.3626H49.7918C47.6857 26.6287 45.5131 26.8171 43.2518 26.939C41.1789 27.061 39.0618 27.1275 36.8892 27.1275C37.4323 23.004 39.3832 20 43.9279 20C47.6302 20 49.4814 22.6271 50.1354 26.3294Z" stroke="#2C2C2C" stroke-miterlimit="10"/>
<path d="M30.139 28.0255C32.3338 27.9368 35.0939 28.9233 35.9917 31.4506C36.0361 31.5726 35.9363 31.6945 35.8033 31.6945C34.8833 31.6723 33.0654 31.4285 30.1279 34.2329" stroke="#2C2C2C" stroke-miterlimit="10" stroke-linecap="round"/>
</g>
</g>
<defs>
<filter id="filter0_g_40000417_6717" x="22.1" y="19.1" width="29.2346" height="36.8" filterUnits="userSpaceOnUse" color-interpolation-filters="sRGB">
<feFlood flood-opacity="0" result="BackgroundImageFix"/>
<feBlend mode="normal" in="SourceGraphic" in2="BackgroundImageFix" result="shape"/>
<feTurbulence type="fractalNoise" baseFrequency="0.66666668653488159 0.66666668653488159" numOctaves="3" seed="7043" />
<feDisplacementMap in="shape" scale="0.80000001192092896" xChannelSelector="R" yChannelSelector="G" result="displacedImage" width="100%" height="100%" />
<feMerge result="effect1_texture_40000417_6717">
<feMergeNode in="displacedImage"/>
</feMerge>
</filter>
<clipPath id="clip0_40000417_6717">
<rect width="73" height="74" fill="white"/>
</clipPath>
</defs>
</svg>
