<svg width="62" height="62" viewBox="0 0 62 62" fill="none" xmlns="http://www.w3.org/2000/svg">
<g clip-path="url(#clip0_40000417_6833)">
<circle cx="31" cy="31" r="30.5753" fill="#EEEDEB" stroke="#9C9C9C" stroke-width="0.849315"/>
<path d="M30.9749 34.8056C30.9749 34.8056 35.1808 35.9472 33.4494 37.2342C31.718 38.514 30.6864 38.0268 29.9866 37.2779C29.6403 36.8998 29.2507 35.3946 29.5537 34.9947C29.8567 34.5948 30.9749 34.8129 30.9749 34.8129V34.8056Z" fill="#FEE888" stroke="#2C2C2C" stroke-width="0.849315" stroke-miterlimit="10"/>
<path d="M30.2687 25.6607C30.2687 30.5886 29.153 34.5744 24.3687 34.5744C19.8959 34.5744 17.8354 30.5886 17.8354 25.6607C17.8354 24.7386 17.8857 23.8463 18.0063 23.0134C20.6196 23.7769 24.0772 23.8364 27.6454 21.2287C28.168 20.8519 28.7007 20.4057 29.2334 19.8901C29.5651 20.604 29.8164 21.4071 29.9873 22.2896C30.1782 23.3406 30.2687 24.4709 30.2687 25.6607Z" fill="#FBFBFB" stroke="#2C2C2C" stroke-width="0.849315" stroke-miterlimit="10"/>
<path d="M42.7023 25.6606C42.7023 30.5884 41.5967 34.5743 36.8123 34.5743C32.3295 34.5743 30.269 30.5884 30.269 25.6606C30.269 24.5303 30.3495 23.4595 30.5404 22.468C33.4854 23.3306 37.4858 23.3207 41.5263 19.6223C42.3606 21.2087 42.7023 23.3306 42.7023 25.6606Z" fill="#FBFBFB" stroke="#2C2C2C" stroke-width="0.849315" stroke-miterlimit="10"/>
<path d="M29.233 19.89C28.7003 20.4056 28.1676 20.8518 27.6449 21.2286C24.0767 23.8362 20.6192 23.7767 18.0059 23.0133C18.5285 19.3843 20.2975 16.7568 24.3682 16.7568C26.7906 16.7568 28.3384 17.9764 29.233 19.89Z" stroke="#2C2C2C" stroke-width="0.849315" stroke-miterlimit="10"/>
<path d="M27.0024 23.8942C28.0533 23.8943 28.7331 24.3587 29.1753 25.1276C29.6353 25.9276 29.8442 27.0749 29.8442 28.4069C29.8442 29.7555 29.6893 30.9 29.2573 31.6959C29.046 32.0852 28.7715 32.3846 28.4185 32.5895C28.0646 32.7948 27.6056 32.9205 27.0024 32.9205C25.9093 32.9205 25.1314 32.4436 24.6099 31.6627C24.0753 30.8622 23.7983 29.7195 23.7983 28.4069C23.7984 27.0737 24.0071 25.9348 24.5034 25.1412C24.9789 24.3813 25.745 23.8942 27.0024 23.8942Z" fill="#2C2C2C" stroke="#2C2C2C" stroke-width="0.849315"/>
<path d="M39.436 23.8942C40.4869 23.8943 41.1667 24.3587 41.6089 25.1276C42.0689 25.9276 42.2778 27.0749 42.2778 28.4069C42.2778 29.7555 42.1229 30.9 41.6909 31.6959C41.4796 32.0852 41.2051 32.3846 40.8521 32.5895C40.4982 32.7948 40.0392 32.9205 39.436 32.9205C38.3429 32.9205 37.565 32.4436 37.0435 31.6627C36.5089 30.8622 36.2319 29.7195 36.2319 28.4069C36.232 27.0737 36.4406 25.9348 36.937 25.1412C37.4125 24.3813 38.1786 23.8942 39.436 23.8942Z" fill="#2C2C2C" stroke="#2C2C2C" stroke-width="0.849315"/>
<path d="M41.5264 19.6223C37.4859 23.3206 33.4855 23.3306 30.5405 22.4679C31.1436 19.1265 32.9327 16.7568 36.8124 16.7568C39.1141 16.7568 40.6218 17.8574 41.5264 19.6223Z" stroke="#2C2C2C" stroke-width="0.849315" stroke-miterlimit="10" stroke-linecap="round"/>
<path d="M30.5401 22.4679C30.3491 22.4084 30.1682 22.3489 29.9873 22.2993" stroke="#2C2C2C" stroke-width="0.849315" stroke-miterlimit="10" stroke-linecap="round"/>
<path d="M47.5616 46.534C47.5616 49.8627 45.7323 51.1082 44.1644 51.1082C42.5964 51.1082 40.7671 49.8627 40.7671 46.534C40.7671 43.2053 44.1644 37.7028 44.1644 37.7028C44.1644 37.7028 47.5616 43.2053 47.5616 46.534Z" fill="#93D1E0"/>
<path d="M28.0273 46.0811C28.0273 46.0811 31.2722 43.556 32.6224 44.7052L33.9725 45.8464" stroke="#2C2C2C" stroke-width="0.849315" stroke-miterlimit="10" stroke-linecap="round"/>
<path d="M41.7235 35.9431C43.9994 35.5286 45.6889 34.3618 45.4971 33.337C45.3053 32.3122 43.3049 31.8174 41.029 32.2319C38.7532 32.6464 37.0637 33.8132 37.2555 34.838C37.4473 35.8628 39.4477 36.3576 41.7235 35.9431Z" fill="#93D1E0"/>
</g>
<defs>
<clipPath id="clip0_40000417_6833">
<rect width="62" height="62" fill="white"/>
</clipPath>
</defs>
</svg>
