<svg width="62" height="62" viewBox="0 0 62 62" fill="none" xmlns="http://www.w3.org/2000/svg">
<g clip-path="url(#clip0_40000417_6677)">
<circle cx="31" cy="31" r="30.5753" fill="#EEEDEB" stroke="#9C9C9C" stroke-width="0.849315"/>
<path d="M31.2776 25.837V26.1184C31.2776 26.289 31.2688 26.451 31.2688 26.6216C31.26 26.8774 31.2424 27.1333 31.2248 27.3806C31.2248 27.4574 31.216 27.5341 31.2072 27.6109C30.9342 30.9881 29.7012 33.504 26.1169 33.504C22.1892 33.504 20.3838 30.067 20.3838 25.837C20.3838 24.8562 20.4542 23.9096 20.6304 23.0482C22.286 23.2529 24.0121 23.3979 25.7823 23.5002C27.4291 23.6026 29.1112 23.6537 30.8373 23.6537C30.9342 23.6623 31.0398 23.6623 31.1367 23.6623C31.2336 24.3531 31.2776 25.078 31.2776 25.837Z" fill="#FBFBFB" stroke="#2C2C2C" stroke-width="0.849315" stroke-miterlimit="10"/>
<path d="M26.0811 23.938C27.5513 24.0239 29.0492 24.0695 30.5811 24.0747C30.7487 24.564 30.8464 25.1464 30.8799 25.7935L30.8916 26.1255V26.271C30.8916 26.3923 30.8912 26.4881 30.8838 26.5894L30.8828 26.5981V26.606C30.8743 26.8531 30.8565 27.1025 30.8389 27.3501L30.8379 27.3647V27.3804C30.8379 27.4286 30.8325 27.4813 30.8232 27.562C30.7219 28.3676 30.5048 28.998 30.1436 29.4224C29.7976 29.8286 29.2791 30.0932 28.4541 30.0933C27.5112 30.0933 26.8455 29.6913 26.3994 29.0356C25.9402 28.3607 25.6992 27.3916 25.6992 26.271C25.6992 25.3632 25.8141 24.5623 26.0811 23.938Z" fill="#2C2C2C" stroke="#2C2C2C" stroke-width="0.849315"/>
<path d="M42.1702 25.837C42.1702 25.982 42.1702 26.1269 42.1614 26.2719C42.0998 30.2973 41.0518 33.504 37.0007 33.504C32.9496 33.504 31.2676 30.067 31.2676 25.837C31.2676 25.078 31.3116 24.3531 31.4085 23.6623C33.1346 23.6623 34.8167 23.6111 36.4635 23.5173C38.2601 23.4235 39.9862 23.2785 41.6594 23.0738H41.6682C41.7563 23.0738 41.8444 23.0653 41.9324 23.0482C42.0733 23.7731 42.1438 24.5577 42.1614 25.3765C42.1702 25.53 42.1702 25.6835 42.1702 25.837Z" fill="#FBFBFB" stroke="#2C2C2C" stroke-width="0.849315" stroke-miterlimit="10"/>
<path d="M31.229 33.7039C31.4025 33.7062 31.5691 33.7216 31.6929 33.7371C31.7539 33.7447 31.8036 33.7522 31.8374 33.7576C31.8542 33.7603 31.8673 33.763 31.8755 33.7644C31.8794 33.7651 31.8825 33.7651 31.8843 33.7654L31.8862 33.7664L31.9634 33.78C31.9914 33.7879 32.0244 33.7974 32.062 33.8083C32.194 33.8467 32.381 33.9038 32.5991 33.9763C33.0381 34.1223 33.5908 34.3285 34.0728 34.5759C34.3137 34.6996 34.5282 34.8294 34.6987 34.9607C34.8728 35.0947 34.9793 35.214 35.0317 35.3103C35.0774 35.3943 35.0767 35.447 35.0601 35.4958C35.0376 35.5613 34.9631 35.6822 34.7388 35.8425C33.7319 36.5575 32.9891 36.7355 32.439 36.6833C31.8918 36.6315 31.4517 36.3442 31.064 35.946C31.013 35.8921 30.9285 35.7573 30.8364 35.5369C30.7485 35.3263 30.6677 35.073 30.6099 34.8171C30.5517 34.5596 30.5203 34.3137 30.521 34.1169C30.5218 33.8991 30.5629 33.8254 30.563 33.825C30.5684 33.8183 30.6113 33.7768 30.7524 33.7439C30.8854 33.7129 31.0526 33.7015 31.229 33.7039Z" fill="#FEE888" stroke="#2C2C2C" stroke-width="0.849315"/>
<path d="M24.2412 41.036C28.2923 43.0658 33.1095 43.0913 37.187 41.0957L37.3103 41.036" stroke="#2C2C2C" stroke-width="0.849315" stroke-miterlimit="10" stroke-linecap="round"/>
<path d="M31.165 23.6671C31.0682 23.6671 30.9625 23.6671 30.8656 23.6585C29.1395 23.6585 27.4574 23.6074 25.8106 23.505C24.0404 23.4027 22.3143 23.2577 20.6587 23.053C21.1959 20.2046 22.7635 18.1833 26.1452 18.1833C29.2892 18.1833 30.7511 20.4945 31.165 23.6671Z" stroke="#2C2C2C" stroke-width="0.849315" stroke-miterlimit="10"/>
<path d="M41.9292 23.053C41.8412 23.0701 41.7531 23.0786 41.665 23.0786H41.6562C39.983 23.2833 38.2568 23.4283 36.4603 23.5221C34.8134 23.6159 33.1314 23.6671 31.4053 23.6671C31.8368 20.4945 33.3868 18.1833 36.9975 18.1833C39.9389 18.1833 41.4096 20.2046 41.9292 23.053Z" stroke="#2C2C2C" stroke-width="0.849315" stroke-miterlimit="10"/>
<path d="M41.437 23.5377C41.6303 24.0554 41.7399 24.6884 41.7759 25.4059V25.4088C41.7839 25.548 41.7847 25.6891 41.7847 25.8444C41.7847 25.9915 41.7838 26.1245 41.7759 26.2545V26.2662C41.7413 27.3147 41.5723 28.1739 41.1997 28.7614C40.8504 29.312 40.2949 29.6675 39.3384 29.6676C38.3954 29.6676 37.7298 29.2648 37.2837 28.609C36.8245 27.934 36.5835 26.965 36.5835 25.8444C36.5835 25.1263 36.6536 24.48 36.8149 23.9313C38.4051 23.843 39.9416 23.7134 41.437 23.5377Z" fill="#2C2C2C" stroke="#2C2C2C" stroke-width="0.849315"/>
</g>
<defs>
<clipPath id="clip0_40000417_6677">
<rect width="62" height="62" fill="white"/>
</clipPath>
</defs>
</svg>
