<svg width="73" height="74" viewBox="0 0 73 74" fill="none" xmlns="http://www.w3.org/2000/svg">
<g clip-path="url(#clip0_40000417_7052)">
<path d="M36.5 0.5C56.3759 0.5 72.5 16.8352 72.5 37C72.5 57.1648 56.3759 73.5 36.5 73.5C16.6241 73.5 0.5 57.1648 0.5 37C0.5 16.8352 16.6241 0.5 36.5 0.5Z" fill="#FEE888" stroke="#5C5C5C"/>
<g filter="url(#filter0_g_40000417_7052)">
<path d="M37.0007 36.4551V36.8002C37.0007 37.0094 36.9902 37.2081 36.9902 37.4173C36.9797 37.731 36.9587 38.0448 36.9377 38.3481C36.9377 38.4422 36.9272 38.5363 36.9167 38.6305C36.5909 42.772 35.1195 45.8573 30.8419 45.8573C26.1545 45.8573 24 41.6425 24 36.4551C24 35.2524 24.0841 34.0915 24.2943 33.0352C26.2701 33.2862 28.3301 33.464 30.4426 33.5895C32.4079 33.715 34.4153 33.7777 36.4753 33.7777C36.5909 33.7882 36.717 33.7882 36.8326 33.7882C36.9482 34.6353 37.0007 35.5243 37.0007 36.4551Z" fill="#FBFBFB" stroke="#2C2C2C" stroke-miterlimit="10"/>
<path d="M26.9268 34.1062C28.6829 34.2116 30.472 34.2679 32.3018 34.2742C32.5049 34.8796 32.6218 35.6005 32.6621 36.4001L32.6758 36.8083V36.988C32.6758 37.1366 32.675 37.2549 32.666 37.3806V37.3904L32.665 37.4001C32.6549 37.7036 32.6343 38.0089 32.6133 38.3123L32.6123 38.3298V38.3474C32.6123 38.4079 32.6054 38.473 32.5947 38.5691C32.4736 39.5634 32.2131 40.3438 31.7773 40.8699C31.3614 41.372 30.7417 41.696 29.7598 41.696C28.6383 41.696 27.8429 41.2042 27.3066 40.3943C26.755 39.5611 26.4659 38.3669 26.4658 36.988C26.4658 35.8687 26.6038 34.8781 26.9268 34.1062Z" fill="#2C2C2C" stroke="#2C2C2C"/>
<path d="M50 36.4551C50 36.6329 50 36.8107 49.9895 36.9885C49.9159 41.9249 48.6653 45.8573 43.8307 45.8573C38.9962 45.8573 36.9888 41.6425 36.9888 36.4551C36.9888 35.5243 37.0413 34.6353 37.1569 33.7882C39.2169 33.7882 41.2243 33.7254 43.1896 33.6104C45.3336 33.4953 47.3936 33.3175 49.3904 33.0665H49.401C49.5061 33.0665 49.6112 33.0561 49.7163 33.0352C49.8844 33.9241 49.9685 34.8863 49.9895 35.8903C50 36.0786 50 36.2668 50 36.4551Z" fill="#FBFBFB" stroke="#2C2C2C" stroke-miterlimit="10"/>
<path d="M36.1987 46.1392C36.3312 46.1417 36.4605 46.159 36.5591 46.1763C36.6076 46.1848 36.6473 46.1929 36.6733 46.1987C36.6862 46.2016 36.696 46.2042 36.7017 46.2056C36.7039 46.2061 36.7056 46.2063 36.7065 46.2065L36.7612 46.2202C36.7816 46.2283 36.8047 46.238 36.8306 46.2485C36.9411 46.2937 37.0983 46.3609 37.2817 46.4468C37.6521 46.6201 38.1153 46.8636 38.5171 47.1538C38.933 47.4543 39.2155 47.7568 39.3198 48.0259C39.3671 48.1478 39.375 48.2564 39.3491 48.3628C39.3224 48.4726 39.2499 48.619 39.0728 48.7974C38.2088 49.6605 37.6326 49.8121 37.2729 49.7642C36.9018 49.7146 36.5561 49.4291 36.2124 48.9331C36.1673 48.8665 36.0911 48.695 36.0093 48.4194C35.9318 48.1585 35.8609 47.8452 35.8101 47.5288C35.7591 47.2115 35.7304 46.9037 35.731 46.6509C35.7313 46.5244 35.7395 46.42 35.7524 46.3403C35.7655 46.2601 35.7796 46.2277 35.7808 46.2251C35.7824 46.2221 35.7857 46.2176 35.7954 46.2104C35.807 46.202 35.8297 46.1887 35.8677 46.1763C35.9481 46.1499 36.0621 46.1365 36.1987 46.1392Z" fill="#2C2C2C" stroke="#2C2C2C"/>
<path d="M36.8669 33.7943C36.7513 33.7943 36.6252 33.7943 36.5096 33.7838C34.4496 33.7838 32.4423 33.7211 30.4769 33.5956C28.3644 33.4701 26.3045 33.2923 24.3286 33.0413C24.9697 29.5481 26.8405 27.0695 30.8763 27.0695C34.6283 27.0695 36.373 29.9037 36.8669 33.7943Z" stroke="#2C2C2C" stroke-miterlimit="10"/>
<path d="M49.7126 33.0413C49.6075 33.0622 49.5025 33.0726 49.3974 33.0726H49.3868C47.39 33.3236 45.33 33.5014 43.186 33.6165C41.2206 33.7315 39.2133 33.7943 37.1533 33.7943C37.6683 29.9037 39.518 27.0695 43.8271 27.0695C47.3374 27.0695 49.0926 29.5481 49.7126 33.0413Z" stroke="#2C2C2C" stroke-miterlimit="10"/>
<path d="M45.2554 33.6152C45.4894 34.2556 45.6213 35.0388 45.6646 35.9248L45.6655 35.9277C45.6751 36.0997 45.6753 36.2743 45.6753 36.4648C45.6753 36.645 45.675 36.8082 45.6655 36.9688L45.6646 36.9824C45.6233 38.2706 45.4216 39.3311 44.9731 40.0576C44.552 40.7397 43.8863 41.1729 42.7485 41.1729C41.627 41.1728 40.8317 40.6811 40.2954 39.8711C39.7438 39.0379 39.4546 37.8438 39.4546 36.4648C39.4546 35.5773 39.5389 34.777 39.7349 34.0977C41.6341 33.9893 43.4693 33.8309 45.2554 33.6152Z" fill="#2C2C2C" stroke="#2C2C2C"/>
</g>
<g filter="url(#filter1_g_40000417_7052)">
<path d="M33 55H42" stroke="#2C2C2C" stroke-miterlimit="10" stroke-linecap="round"/>
</g>
<g filter="url(#filter2_g_40000417_7052)">
<path d="M25 20C25 20 29 18.2365 33 19.3933" stroke="#2C2C2C" stroke-miterlimit="10" stroke-linecap="round"/>
</g>
<g filter="url(#filter3_g_40000417_7052)">
<path d="M48 20C48 20 44 18.2365 40 19.3933" stroke="#2C2C2C" stroke-miterlimit="10" stroke-linecap="round"/>
</g>
</g>
<defs>
<filter id="filter0_g_40000417_7052" x="23.1" y="26.1695" width="27.8" height="24.5026" filterUnits="userSpaceOnUse" color-interpolation-filters="sRGB">
<feFlood flood-opacity="0" result="BackgroundImageFix"/>
<feBlend mode="normal" in="SourceGraphic" in2="BackgroundImageFix" result="shape"/>
<feTurbulence type="fractalNoise" baseFrequency="0.66666668653488159 0.66666668653488159" numOctaves="3" seed="7043" />
<feDisplacementMap in="shape" scale="0.80000001192092896" xChannelSelector="R" yChannelSelector="G" result="displacedImage" width="100%" height="100%" />
<feMerge result="effect1_texture_40000417_7052">
<feMergeNode in="displacedImage"/>
</feMerge>
</filter>
<filter id="filter1_g_40000417_7052" x="32.1" y="54.1" width="10.8" height="1.8" filterUnits="userSpaceOnUse" color-interpolation-filters="sRGB">
<feFlood flood-opacity="0" result="BackgroundImageFix"/>
<feBlend mode="normal" in="SourceGraphic" in2="BackgroundImageFix" result="shape"/>
<feTurbulence type="fractalNoise" baseFrequency="0.66666668653488159 0.66666668653488159" numOctaves="3" seed="7043" />
<feDisplacementMap in="shape" scale="0.80000001192092896" xChannelSelector="R" yChannelSelector="G" result="displacedImage" width="100%" height="100%" />
<feMerge result="effect1_texture_40000417_7052">
<feMergeNode in="displacedImage"/>
</feMerge>
</filter>
<filter id="filter2_g_40000417_7052" x="24.1" y="18.1" width="9.8" height="2.80012" filterUnits="userSpaceOnUse" color-interpolation-filters="sRGB">
<feFlood flood-opacity="0" result="BackgroundImageFix"/>
<feBlend mode="normal" in="SourceGraphic" in2="BackgroundImageFix" result="shape"/>
<feTurbulence type="fractalNoise" baseFrequency="0.66666668653488159 0.66666668653488159" numOctaves="3" seed="7043" />
<feDisplacementMap in="shape" scale="0.80000001192092896" xChannelSelector="R" yChannelSelector="G" result="displacedImage" width="100%" height="100%" />
<feMerge result="effect1_texture_40000417_7052">
<feMergeNode in="displacedImage"/>
</feMerge>
</filter>
<filter id="filter3_g_40000417_7052" x="39.1" y="18.1" width="9.8" height="2.80012" filterUnits="userSpaceOnUse" color-interpolation-filters="sRGB">
<feFlood flood-opacity="0" result="BackgroundImageFix"/>
<feBlend mode="normal" in="SourceGraphic" in2="BackgroundImageFix" result="shape"/>
<feTurbulence type="fractalNoise" baseFrequency="0.66666668653488159 0.66666668653488159" numOctaves="3" seed="7043" />
<feDisplacementMap in="shape" scale="0.80000001192092896" xChannelSelector="R" yChannelSelector="G" result="displacedImage" width="100%" height="100%" />
<feMerge result="effect1_texture_40000417_7052">
<feMergeNode in="displacedImage"/>
</feMerge>
</filter>
<clipPath id="clip0_40000417_7052">
<rect width="73" height="74" fill="white"/>
</clipPath>
</defs>
</svg>
