<svg width="73" height="74" viewBox="0 0 73 74" fill="none" xmlns="http://www.w3.org/2000/svg">
<g clip-path="url(#clip0_40000417_6815)">
<path d="M36.5 0.5C56.3759 0.5 72.5 16.8352 72.5 37C72.5 57.1648 56.3759 73.5 36.5 73.5C16.6241 73.5 0.5 57.1648 0.5 37C0.5 16.8352 16.6241 0.5 36.5 0.5Z" fill="#FEE888" stroke="#5C5C5C"/>
<g filter="url(#filter0_g_40000417_6815)">
<path d="M37.1285 34.9218V35.3234C37.1285 35.5668 37.1162 35.798 37.1162 36.0414C37.104 36.4065 37.0795 36.7716 37.0551 37.1246C37.0551 37.2341 37.0429 37.3436 37.0306 37.4532C36.6515 42.2725 34.9393 45.8627 29.9617 45.8627C24.5071 45.8627 22 40.9582 22 34.9218C22 33.5222 22.0978 32.1713 22.3424 30.9421C24.6417 31.2342 27.0387 31.4411 29.497 31.5872C31.784 31.7332 34.1199 31.8062 36.517 31.8062C36.6515 31.8184 36.7983 31.8184 36.9328 31.8184C37.0673 32.8042 37.1285 33.8386 37.1285 34.9218Z" fill="#FBFBFB" stroke="#2C2C2C" stroke-miterlimit="10"/>
<path d="M29.8584 32.1039C31.9369 32.2298 34.0552 32.2957 36.2227 32.3021C36.5151 33.1459 36.6604 34.1808 36.6816 35.3314V35.5414C36.6816 35.7141 36.6816 35.8555 36.6709 36.0052L36.6699 36.014V36.0238C36.658 36.3789 36.6339 36.736 36.6094 37.0892L36.6084 37.1068V37.1234C36.6084 37.2004 36.5997 37.2825 36.5869 37.3969C36.4449 38.5582 36.1389 39.483 35.6182 40.1117C35.1164 40.7173 34.3704 41.1019 33.207 41.1019C31.873 41.1019 30.9216 40.5154 30.2832 39.5511C29.6295 38.5636 29.292 37.1557 29.292 35.5414C29.292 34.2086 29.4602 33.0245 29.8584 32.1039Z" fill="#2C2C2C" stroke="#2C2C2C"/>
<path d="M52.2554 34.9218C52.2554 35.1287 52.2554 35.3356 52.2432 35.5425C52.1576 41.2868 50.7022 45.8627 45.0764 45.8627C39.4507 45.8627 37.1147 40.9582 37.1147 34.9218C37.1147 33.8386 37.1759 32.8042 37.3104 31.8184C39.7075 31.8184 42.0434 31.7454 44.3304 31.6115C46.8253 31.4776 49.2224 31.2707 51.5461 30.9786H51.5583C51.6806 30.9786 51.8029 30.9665 51.9252 30.9421C52.1209 31.9766 52.2187 33.0963 52.2432 34.2646C52.2554 34.4837 52.2554 34.7027 52.2554 34.9218Z" fill="#FBFBFB" stroke="#2C2C2C" stroke-miterlimit="10"/>
<path d="M36.1973 46.1089C36.3571 46.112 36.5125 46.1332 36.6299 46.1538C36.6876 46.1639 36.7344 46.1731 36.7656 46.1802C36.7811 46.1836 36.7927 46.1862 36.7998 46.188C36.8029 46.1887 36.8053 46.1896 36.8066 46.1899L36.873 46.2075C36.8986 46.2177 36.9287 46.2291 36.9619 46.2427C37.0916 46.2957 37.2754 46.3746 37.4902 46.4751C37.9236 46.6779 38.468 46.9633 38.9414 47.3052C39.429 47.6574 39.7731 48.0211 39.9033 48.3569C39.9635 48.5122 39.9759 48.6552 39.9414 48.7974C39.906 48.943 39.8122 49.1264 39.5977 49.3423C38.5853 50.3537 37.8905 50.5506 37.4346 50.4897C36.9672 50.4273 36.5473 50.0706 36.1436 49.4878C36.0836 49.3993 35.9921 49.1897 35.8965 48.8677C35.8052 48.5603 35.7227 48.1921 35.6631 47.8208C35.6033 47.4485 35.5686 47.0856 35.5693 46.7856C35.5701 46.4586 35.6141 46.2943 35.6387 46.2505C35.6517 46.2274 35.6835 46.1898 35.7842 46.1567C35.8899 46.122 36.0332 46.1057 36.1973 46.1089Z" fill="#2C2C2C" stroke="#2C2C2C"/>
<path d="M36.9727 31.8254C36.8381 31.8254 36.6914 31.8254 36.5568 31.8132C34.1598 31.8132 31.8239 31.7402 29.5368 31.5942C27.0786 31.4481 24.6816 31.2412 22.3823 30.9492C23.1284 26.8843 25.3053 24 30.0016 24C34.3677 24 36.3979 27.2981 36.9727 31.8254Z" stroke="#2C2C2C" stroke-miterlimit="10"/>
<path d="M51.921 30.9492C51.7987 30.9735 51.6764 30.9857 51.5541 30.9857H51.5418C49.2181 31.2778 46.8211 31.4846 44.3261 31.6185C42.0391 31.7524 39.7032 31.8254 37.3062 31.8254C37.9054 27.2981 40.0579 24 45.0722 24C49.157 24 51.1994 26.8843 51.921 30.9492Z" stroke="#2C2C2C" stroke-miterlimit="10"/>
<path d="M51.2954 31.5299C51.5855 32.2966 51.7455 33.238 51.7974 34.3004V34.3033C51.8087 34.5062 51.8091 34.7119 51.8091 34.9332C51.8091 35.0378 51.8086 35.1381 51.8071 35.236L51.7974 35.524L51.7964 35.5377C51.7482 37.0408 51.5134 38.2927 50.98 39.1569C50.474 39.9765 49.672 40.4938 48.3218 40.4938C46.9877 40.4938 46.0364 39.9063 45.3979 38.942C44.7444 37.9546 44.4068 36.5473 44.4067 34.9332C44.4067 33.8723 44.5109 32.9137 44.7534 32.1012C47.0056 31.9738 49.1804 31.7869 51.2954 31.5299Z" fill="#2C2C2C" stroke="#2C2C2C"/>
</g>
</g>
<defs>
<filter id="filter0_g_40000417_6815" x="21.1" y="23.1" width="32.0554" height="28.3" filterUnits="userSpaceOnUse" color-interpolation-filters="sRGB">
<feFlood flood-opacity="0" result="BackgroundImageFix"/>
<feBlend mode="normal" in="SourceGraphic" in2="BackgroundImageFix" result="shape"/>
<feTurbulence type="fractalNoise" baseFrequency="0.66666668653488159 0.66666668653488159" numOctaves="3" seed="7043" />
<feDisplacementMap in="shape" scale="0.80000001192092896" xChannelSelector="R" yChannelSelector="G" result="displacedImage" width="100%" height="100%" />
<feMerge result="effect1_texture_40000417_6815">
<feMergeNode in="displacedImage"/>
</feMerge>
</filter>
<clipPath id="clip0_40000417_6815">
<rect width="73" height="74" fill="white"/>
</clipPath>
</defs>
</svg>
