<svg width="62" height="62" viewBox="0 0 62 62" fill="none" xmlns="http://www.w3.org/2000/svg">
<g clip-path="url(#clip0_40000417_6903)">
<circle cx="31" cy="31" r="30.5753" fill="#FEE888" stroke="#5C5C5C" stroke-width="0.849315"/>
<path d="M31.8282 28.5513V28.8732C31.8282 29.0684 31.8183 29.2537 31.8183 29.4489C31.8083 29.7415 31.7884 30.0342 31.7686 30.3172C31.7686 30.405 31.7586 30.4928 31.7487 30.5806C31.4406 34.4441 30.0492 37.3222 26.0042 37.3222C21.5716 37.3222 19.5342 33.3904 19.5342 28.5513C19.5342 27.4293 19.6137 26.3464 19.8125 25.361C21.6809 25.5951 23.6289 25.761 25.6265 25.878C27.485 25.9951 29.3833 26.0537 31.3313 26.0537C31.4406 26.0634 31.5599 26.0634 31.6692 26.0634C31.7785 26.8537 31.8282 27.683 31.8282 28.5513Z" fill="#FBFBFB" stroke="#2C2C2C" stroke-width="0.849315" stroke-miterlimit="10"/>
<path d="M25.9321 26.3169C27.614 26.4172 29.328 26.4698 31.0815 26.4751C31.2815 27.0504 31.3952 27.7372 31.4341 28.4985L31.4478 28.8804V29.0483C31.4478 29.1869 31.4476 29.2987 31.439 29.4175L31.438 29.4253V29.4341C31.4283 29.718 31.409 30.0036 31.3892 30.2866L31.3882 30.3013V30.3169C31.3882 30.3766 31.381 30.441 31.3706 30.5327C31.2555 31.4606 31.0081 32.1961 30.5894 32.6948C30.1863 33.1748 29.5849 33.4819 28.6421 33.4819C27.5619 33.4819 26.7942 33.0131 26.2798 32.2466C25.7525 31.4606 25.479 30.3385 25.479 29.0483C25.479 27.9879 25.6147 27.0481 25.9321 26.3169Z" fill="#2C2C2C" stroke="#2C2C2C" stroke-width="0.849315"/>
<path d="M44.1209 28.5513C44.1209 28.7171 44.1209 28.883 44.1109 29.0489C44.0413 33.6538 42.8587 37.3222 38.2869 37.3222C33.7152 37.3222 31.8169 33.3904 31.8169 28.5513C31.8169 27.683 31.8666 26.8537 31.9759 26.0634C33.9239 26.0634 35.8221 26.0049 37.6807 25.8976C39.7081 25.7902 41.6561 25.6244 43.5444 25.3902H43.5544C43.6537 25.3902 43.7531 25.3805 43.8525 25.361C44.0115 26.1902 44.091 27.0878 44.1109 28.0244C44.1209 28.2001 44.1209 28.3757 44.1209 28.5513Z" fill="#FBFBFB" stroke="#2C2C2C" stroke-width="0.849315" stroke-miterlimit="10"/>
<path d="M31.7749 37.49C31.973 37.4928 32.1624 37.5113 32.3032 37.5291C32.3729 37.5378 32.4296 37.5462 32.4683 37.5525C32.4876 37.5556 32.5027 37.5586 32.5122 37.5603C32.5165 37.5611 32.5199 37.5609 32.522 37.5613H32.5239V37.5623L32.6128 37.5789C32.6452 37.5881 32.684 37.5991 32.728 37.6121C32.8774 37.656 33.0889 37.7204 33.3354 37.8035C33.8321 37.9709 34.459 38.209 35.0063 38.4939C35.2799 38.6363 35.5252 38.7853 35.7212 38.9382C35.9205 39.0938 36.0469 39.2364 36.1118 39.3572C36.1704 39.4661 36.1737 39.5453 36.1479 39.6218C36.1168 39.7142 36.022 39.8622 35.7632 40.0496C34.621 40.8716 33.7714 41.0823 33.1353 41.0212C32.5015 40.9603 31.9937 40.6216 31.5503 40.1599C31.4852 40.09 31.3865 39.9277 31.2817 39.6736C31.1809 39.4289 31.089 39.1347 31.0229 38.8386C30.9567 38.5411 30.9196 38.2557 30.9204 38.0242C30.9208 37.9088 30.9303 37.8164 30.9458 37.7478C30.9534 37.7142 30.9621 37.6895 30.9692 37.6726C30.9762 37.6562 30.981 37.6492 30.981 37.6492C30.9986 37.6267 31.0616 37.5765 31.2251 37.5378C31.3806 37.5011 31.5738 37.4872 31.7749 37.49Z" fill="#2C2C2C" stroke="#2C2C2C" stroke-width="0.849315"/>
<path d="M31.7014 26.0691C31.5921 26.0691 31.4729 26.0691 31.3635 26.0593C29.4156 26.0593 27.5173 26.0008 25.6588 25.8837C23.6611 25.7666 21.7132 25.6008 19.8447 25.3666C20.451 22.108 22.22 19.7958 26.0365 19.7958C29.5845 19.7958 31.2343 22.4397 31.7014 26.0691Z" stroke="#2C2C2C" stroke-width="0.849315" stroke-miterlimit="10"/>
<path d="M43.8493 25.3666C43.7499 25.3862 43.6505 25.3959 43.5511 25.3959H43.5412C41.6528 25.6301 39.7049 25.7959 37.6774 25.9032C35.8189 26.0106 33.9206 26.0691 31.9727 26.0691C32.4596 22.4397 34.2088 19.7958 38.2837 19.7958C41.6031 19.7958 43.2629 22.108 43.8493 25.3666Z" stroke="#2C2C2C" stroke-width="0.849315" stroke-miterlimit="10"/>
<path d="M43.3291 25.8563C43.5601 26.4647 43.6888 27.2109 43.7305 28.0546V28.0575C43.7396 28.2191 43.7402 28.3828 43.7402 28.5604C43.7402 28.7282 43.7395 28.8812 43.7305 29.0321V29.0438C43.6914 30.2471 43.5001 31.2448 43.0703 31.9315C42.6639 32.5809 42.0188 32.994 40.9248 32.994C39.8446 32.994 39.0769 32.5252 38.5625 31.7587C38.0352 30.9727 37.7617 29.8505 37.7617 28.5604C37.7617 27.7177 37.8442 26.9571 38.0371 26.3124C39.8587 26.2106 41.6179 26.0611 43.3291 25.8563Z" fill="#2C2C2C" stroke="#2C2C2C" stroke-width="0.849315"/>
<path d="M22.082 15.0811L29.7259 20.9459" stroke="#2C2C2C" stroke-width="0.849315" stroke-miterlimit="10" stroke-linecap="round"/>
<path d="M39.9179 15.0811L33.9727 20.9459" stroke="#2C2C2C" stroke-width="0.849315" stroke-miterlimit="10" stroke-linecap="round"/>
<path d="M36.5208 50.2703C33.691 46.3714 29.3145 44.1915 24.7622 44.422H24.6304" stroke="#2C2C2C" stroke-width="0.849315" stroke-miterlimit="10" stroke-linecap="round"/>
</g>
<defs>
<clipPath id="clip0_40000417_6903">
<rect width="62" height="62" fill="white"/>
</clipPath>
</defs>
</svg>
