<svg width="73" height="74" viewBox="0 0 73 74" fill="none" xmlns="http://www.w3.org/2000/svg">
<g clip-path="url(#clip0_40000417_6856)">
<path d="M36.5 0.5C56.3759 0.5 72.5 16.8352 72.5 37C72.5 57.1648 56.3759 73.5 36.5 73.5C16.6241 73.5 0.5 57.1648 0.5 37C0.5 16.8352 16.6241 0.5 36.5 0.5Z" fill="#FEE888" stroke="#5C5C5C"/>
<g filter="url(#filter0_g_40000417_6856)">
<path d="M36.4705 41.5422C36.4705 41.5422 41.4226 42.9047 39.384 44.4408C37.3454 45.9682 36.1308 45.3868 35.3068 44.4929C34.8991 44.0416 34.4404 42.2451 34.7972 41.7678C35.1539 41.2905 36.4705 41.5509 36.4705 41.5509V41.5422Z" fill="#2C2C2C" stroke="#2C2C2C" stroke-miterlimit="10"/>
<path d="M35.6392 30.6272C35.6392 36.5088 34.3255 41.2662 28.6924 41.2662C23.4261 41.2662 21 36.5088 21 30.6272C21 29.5267 21.0592 28.4616 21.2012 27.4675C24.2781 28.3787 28.3492 28.4497 32.5504 25.3374C33.1658 24.8877 33.793 24.3551 34.4202 23.7397C34.8107 24.5918 35.1066 25.5504 35.3078 26.6036C35.5326 27.858 35.6392 29.2071 35.6392 30.6272Z" fill="#FBFBFB" stroke="#2C2C2C" stroke-miterlimit="10"/>
<path d="M50.2783 30.6271C50.2783 36.5086 48.9765 41.266 43.3434 41.266C38.0652 41.266 35.6392 36.5086 35.6392 30.6271C35.6392 29.278 35.7338 27.9999 35.9587 26.8165C39.4262 27.846 44.1363 27.8342 48.8937 23.42C49.8759 25.3135 50.2783 27.846 50.2783 30.6271Z" fill="#FBFBFB" stroke="#2C2C2C" stroke-miterlimit="10"/>
<path d="M34.4197 23.7396C33.7925 24.355 33.1653 24.8875 32.5499 25.3372C28.3487 28.4496 24.2776 28.3786 21.2007 27.4674C21.8161 23.1361 23.8989 20 28.6919 20C31.544 20 33.3664 21.4556 34.4197 23.7396Z" stroke="#2C2C2C" stroke-miterlimit="10"/>
<path d="M31.793 28.5117C33.027 28.5118 33.8284 29.064 34.3506 29.9844C34.8936 30.9415 35.1387 32.3142 35.1387 33.9053C35.1387 35.5155 34.9561 36.8835 34.4463 37.8359C34.1968 38.302 33.8735 38.6599 33.458 38.9043C33.0417 39.1491 32.5023 39.2988 31.793 39.2988C30.5089 39.2988 29.5929 38.731 28.9775 37.7969C28.347 36.8395 28.0205 35.4736 28.0205 33.9053C28.0205 32.3127 28.2666 30.9505 28.8525 30.001C29.4138 29.0917 30.3156 28.5117 31.793 28.5117Z" fill="#2C2C2C" stroke="#2C2C2C"/>
<path d="M46.4326 28.5117C47.6666 28.5118 48.468 29.064 48.9902 29.9844C49.5332 30.9415 49.7783 32.3142 49.7783 33.9053C49.7783 35.5155 49.5958 36.8835 49.0859 37.8359C48.8364 38.302 48.5131 38.6599 48.0977 38.9043C47.6814 39.1491 47.1419 39.2988 46.4326 39.2988C45.1485 39.2988 44.2326 38.731 43.6172 37.7969C42.9866 36.8395 42.6602 35.4736 42.6602 33.9053C42.6602 32.3127 42.9063 30.9505 43.4922 30.001C44.0534 29.0917 44.9552 28.5117 46.4326 28.5117Z" fill="#2C2C2C" stroke="#2C2C2C"/>
<path d="M48.894 23.4201C44.1366 27.8342 39.4265 27.8461 35.959 26.8165C36.669 22.8284 38.7756 20 43.3437 20C46.0537 20 47.8289 21.3136 48.894 23.4201Z" stroke="#2C2C2C" stroke-miterlimit="10" stroke-linecap="round"/>
<path d="M35.9585 26.8164C35.7337 26.7454 35.5206 26.6744 35.3076 26.6152" stroke="#2C2C2C" stroke-miterlimit="10" stroke-linecap="round"/>
</g>
<g filter="url(#filter1_g_40000417_6856)">
<path d="M56 55.5405C56 59.5135 53.8462 61 52 61C50.1538 61 48 59.5135 48 55.5405C48 51.5676 52 45 52 45C52 45 56 51.5676 56 55.5405Z" fill="#93D1E0"/>
</g>
<g filter="url(#filter2_g_40000417_6856)">
<path d="M33 55C33 55 36.8206 51.9862 38.4103 53.3579L40 54.7199" stroke="#2C2C2C" stroke-miterlimit="10" stroke-linecap="round"/>
</g>
<g filter="url(#filter3_g_40000417_6856)">
<path d="M49.1262 42.8998C51.8059 42.4051 53.7951 41.0125 53.5693 39.7893C53.3434 38.5662 50.9881 37.9756 48.3085 38.4703C45.6288 38.965 43.6396 40.3577 43.8654 41.5808C44.0912 42.804 46.4466 43.3945 49.1262 42.8998Z" fill="#93D1E0"/>
</g>
</g>
<defs>
<filter id="filter0_g_40000417_6856" x="20.1" y="19.1" width="31.0783" height="27.1855" filterUnits="userSpaceOnUse" color-interpolation-filters="sRGB">
<feFlood flood-opacity="0" result="BackgroundImageFix"/>
<feBlend mode="normal" in="SourceGraphic" in2="BackgroundImageFix" result="shape"/>
<feTurbulence type="fractalNoise" baseFrequency="0.66666668653488159 0.66666668653488159" numOctaves="3" seed="7043" />
<feDisplacementMap in="shape" scale="0.80000001192092896" xChannelSelector="R" yChannelSelector="G" result="displacedImage" width="100%" height="100%" />
<feMerge result="effect1_texture_40000417_6856">
<feMergeNode in="displacedImage"/>
</feMerge>
</filter>
<filter id="filter1_g_40000417_6856" x="47.6" y="44.6" width="8.8" height="16.8" filterUnits="userSpaceOnUse" color-interpolation-filters="sRGB">
<feFlood flood-opacity="0" result="BackgroundImageFix"/>
<feBlend mode="normal" in="SourceGraphic" in2="BackgroundImageFix" result="shape"/>
<feTurbulence type="fractalNoise" baseFrequency="0.66666668653488159 0.66666668653488159" numOctaves="3" seed="7043" />
<feDisplacementMap in="shape" scale="0.80000001192092896" xChannelSelector="R" yChannelSelector="G" result="displacedImage" width="100%" height="100%" />
<feMerge result="effect1_texture_40000417_6856">
<feMergeNode in="displacedImage"/>
</feMerge>
</filter>
<filter id="filter2_g_40000417_6856" x="32.1" y="52.1002" width="8.8" height="3.79976" filterUnits="userSpaceOnUse" color-interpolation-filters="sRGB">
<feFlood flood-opacity="0" result="BackgroundImageFix"/>
<feBlend mode="normal" in="SourceGraphic" in2="BackgroundImageFix" result="shape"/>
<feTurbulence type="fractalNoise" baseFrequency="0.66666668653488159 0.66666668653488159" numOctaves="3" seed="7043" />
<feDisplacementMap in="shape" scale="0.80000001192092896" xChannelSelector="R" yChannelSelector="G" result="displacedImage" width="100%" height="100%" />
<feMerge result="effect1_texture_40000417_6856">
<feMergeNode in="displacedImage"/>
</feMerge>
</filter>
<filter id="filter3_g_40000417_6856" x="43.4481" y="37.8954" width="10.5388" height="5.5793" filterUnits="userSpaceOnUse" color-interpolation-filters="sRGB">
<feFlood flood-opacity="0" result="BackgroundImageFix"/>
<feBlend mode="normal" in="SourceGraphic" in2="BackgroundImageFix" result="shape"/>
<feTurbulence type="fractalNoise" baseFrequency="0.66666668653488159 0.66666668653488159" numOctaves="3" seed="7043" />
<feDisplacementMap in="shape" scale="0.80000001192092896" xChannelSelector="R" yChannelSelector="G" result="displacedImage" width="100%" height="100%" />
<feMerge result="effect1_texture_40000417_6856">
<feMergeNode in="displacedImage"/>
</feMerge>
</filter>
<clipPath id="clip0_40000417_6856">
<rect width="73" height="74" fill="white"/>
</clipPath>
</defs>
</svg>
