<svg width="62" height="62" viewBox="0 0 62 62" fill="none" xmlns="http://www.w3.org/2000/svg">
<g clip-path="url(#clip0_40000417_6957)">
<circle cx="31" cy="31" r="30.5753" fill="#FEE888" stroke="#5C5C5C" stroke-width="0.849315"/>
<path d="M32.3896 41.7396C32.566 41.7421 32.7345 41.7589 32.8604 41.7748C32.9228 41.7827 32.9743 41.7897 33.0088 41.7953C33.0257 41.798 33.0385 41.8006 33.0469 41.8021C33.0511 41.8029 33.0549 41.8028 33.0566 41.8031L33.0576 41.8041L33.1357 41.8187C33.1645 41.8269 33.1986 41.8366 33.2373 41.848C33.3717 41.8876 33.5623 41.9451 33.7842 42.0199C34.231 42.1705 34.7934 42.3846 35.2842 42.64C35.5293 42.7676 35.7479 42.9007 35.9219 43.0365C36.0992 43.1749 36.2089 43.299 36.2637 43.4008C36.312 43.4906 36.3129 43.5506 36.2939 43.6068C36.2697 43.6786 36.1914 43.8054 35.9629 43.9711C34.9373 44.7093 34.1803 44.894 33.6201 44.8402C33.0626 44.7866 32.6137 44.4887 32.2178 44.0765C32.1644 44.0192 32.0774 43.8779 31.9834 43.6498C31.8936 43.4317 31.8119 43.1693 31.7529 42.9047C31.6936 42.6382 31.6604 42.3838 31.6611 42.1791C31.6615 42.077 31.6705 41.9969 31.6836 41.9388C31.6941 41.8927 31.7044 41.8723 31.707 41.8676C31.7142 41.8584 31.7598 41.8158 31.9043 41.7816C32.0399 41.7496 32.2101 41.7371 32.3896 41.7396Z" fill="#2C2C2C" stroke="#2C2C2C" stroke-width="0.849315"/>
<path d="M32.3022 34.064C32.3022 38.4671 31.3052 42.0285 27.0302 42.0285C23.0335 42.0285 21.1924 38.4671 21.1924 34.064C21.1924 33.2401 21.2373 32.4427 21.3451 31.6985C22.7282 32.1061 24.3807 32.2832 26.168 31.8757C27.3804 31.6011 28.6648 31.0518 29.9581 30.1038C30.4071 29.7849 30.8562 29.404 31.3142 28.9699L31.3771 28.9078C31.431 29.0141 31.4759 29.1205 31.5118 29.2356C31.7453 29.7849 31.9249 30.3962 32.0507 31.0518C32.1764 31.7517 32.2572 32.487 32.2842 33.2578V33.2755C32.2932 33.5324 32.3022 33.7982 32.3022 34.064Z" fill="#FBFBFB" stroke="#2C2C2C" stroke-width="0.849315" stroke-miterlimit="10"/>
<path d="M43.412 34.064C43.412 38.4671 42.4241 42.0286 38.149 42.0286C34.1434 42.0286 32.3022 38.4671 32.3022 34.064C32.3022 33.0541 32.3741 32.0973 32.5447 31.2113C33.9189 31.6189 35.5534 31.8049 37.3227 31.4151C38.8855 31.0784 40.556 30.2811 42.2355 28.7839C42.2804 28.7484 42.3163 28.7041 42.3612 28.6687C42.46 28.8547 42.5498 29.0497 42.6307 29.2534C43.0977 30.3963 43.3402 31.7695 43.3941 33.2667V33.2933C43.403 33.5502 43.412 33.8071 43.412 34.064Z" fill="#FBFBFB" stroke="#2C2C2C" stroke-width="0.849315" stroke-miterlimit="10"/>
<path d="M31.3763 28.9078L31.3134 28.9698C30.8554 29.404 30.4063 29.7849 29.9572 30.1038C28.6639 31.0518 27.3796 31.6011 26.1672 31.8757C24.3799 32.2832 22.7273 32.1061 21.3442 31.6985C21.8113 28.456 23.392 26.1083 27.0294 26.1083C29.1938 26.1083 30.5769 27.198 31.3763 28.9078Z" stroke="#2C2C2C" stroke-width="0.849315" stroke-miterlimit="10"/>
<path d="M31.2471 29.6085C31.4655 29.9607 31.6249 30.3984 31.7285 30.9161L31.7744 31.172C31.8424 31.6085 31.8769 32.0731 31.877 32.5665C31.877 32.796 31.8684 33.0185 31.8594 33.2404V33.254C31.8067 34.2796 31.6217 35.1113 31.2422 35.6779C30.8848 36.2112 30.3255 36.5538 29.3828 36.5538C28.4661 36.5538 27.7824 36.1393 27.3115 35.4474C26.83 34.7398 26.5654 33.728 26.5654 32.5665C26.5654 32.445 26.5674 32.3262 26.5723 32.2101C27.7485 31.9022 28.9776 31.3473 30.208 30.4454C30.5558 30.1981 30.9013 29.9179 31.2471 29.6085Z" fill="#2C2C2C" stroke="#2C2C2C" stroke-width="0.849315"/>
<path d="M42.2676 29.4742L42.2744 29.485L42.2812 29.4948C42.765 30.1952 42.9873 31.278 42.9873 32.567C42.9873 32.7964 42.9787 33.0184 42.9697 33.2496V33.2692C42.9127 34.2909 42.7254 35.1195 42.3457 35.6832C41.9883 36.2136 41.4313 36.5543 40.4932 36.5543C39.5813 36.5543 38.8972 36.1396 38.4248 35.4469C37.9422 34.7391 37.6758 33.7277 37.6758 32.567C37.6758 32.286 37.684 32.0154 37.708 31.7604C39.1597 31.3984 40.6801 30.6543 42.2012 29.3737C42.2245 29.4062 42.2466 29.4398 42.2676 29.4742Z" fill="#2C2C2C" stroke="#2C2C2C" stroke-width="0.849315"/>
<path d="M42.3614 28.6686C42.3614 28.6686 42.2806 28.7484 42.2357 28.7838C40.5562 30.281 38.8857 31.0784 37.3229 31.415C35.5536 31.8048 33.919 31.6188 32.5449 31.2113C33.0838 28.2257 34.6825 26.1083 38.1492 26.1083C40.2059 26.1083 41.5531 27.0917 42.3614 28.6686Z" stroke="#2C2C2C" stroke-width="0.849315" stroke-miterlimit="10" stroke-linecap="round"/>
<path d="M32.5443 31.2113C32.3736 31.1581 32.212 31.105 32.0503 31.0607" stroke="#2C2C2C" stroke-width="0.849315" stroke-miterlimit="10" stroke-linecap="round"/>
<path d="M30.9165 49.8827C30.9988 49.8555 31.1343 49.8453 31.3208 49.8759C31.5023 49.9056 31.705 49.9698 31.9038 50.0604C32.1025 50.151 32.2869 50.2634 32.4331 50.3817C32.5106 50.4444 32.5714 50.5044 32.6177 50.5585C32.5654 50.5774 32.5029 50.5972 32.4312 50.6141L32.4263 50.6151C31.8049 50.7702 31.122 50.6519 30.5747 50.3534L30.5728 50.3544C30.4585 50.293 30.3491 50.2269 30.2485 50.1581C30.3007 50.1275 30.3667 50.0932 30.4478 50.0575C30.5887 49.9954 30.751 49.9374 30.9165 49.8827Z" fill="#2C2C2C" stroke="#2C2C2C" stroke-width="0.849315"/>
<path d="M32.6978 9.64099C36.0612 9.64099 39.4744 9.7396 42.8276 9.93689L45.1782 10.0756C46.8865 10.1759 48.3307 11.4054 48.7329 13.0424L48.7993 13.3754L49.6421 18.9515C49.8029 20.0315 49.5069 21.1356 48.812 21.9799C48.1129 22.829 47.083 23.3551 45.9956 23.4086H45.9937L41.7593 23.6361C38.7522 23.7939 35.705 23.8724 32.6978 23.8724C30.0665 23.8724 27.4049 23.8126 24.7661 23.6918L23.6372 23.6361L19.4038 23.4086H19.4048C18.3032 23.346 17.2825 22.8277 16.5845 21.9799C15.8974 21.1332 15.594 20.0284 15.7544 18.9515L16.5972 13.3734V13.3724C16.865 11.5753 18.3946 10.1826 20.2183 10.0756L22.5688 9.93689C25.9219 9.73962 29.3345 9.641 32.6978 9.64099ZM32.6978 9.78064C29.328 9.78065 25.9484 9.87926 22.5786 10.0775L20.228 10.2162C18.4605 10.317 17.0081 11.6446 16.7397 13.3939L16.7388 13.3949L15.896 18.972C15.5605 21.1595 17.1942 23.1545 19.4067 23.267V23.2679L23.6411 23.4955H23.6421C26.6639 23.6541 29.6759 23.7328 32.6978 23.7328C35.7198 23.7328 38.7423 23.6541 41.7544 23.4955L45.9888 23.2679L45.9878 23.267C48.2009 23.1555 49.8346 21.1608 49.4995 18.973H49.5005L48.6567 13.3969H48.6577C48.4 11.6428 46.9335 10.3165 45.1675 10.2162H45.1685L42.8179 10.0775C39.4479 9.87925 36.0677 9.78064 32.6978 9.78064Z" fill="#2C2C2C" stroke="#2C2C2C" stroke-width="0.849315"/>
<g filter="url(#filter0_g_40000417_6957)">
<path d="M45.9988 10.9018C47.619 10.9899 48.9521 12.1548 49.1982 13.6918L50.0699 19.223C50.3775 21.1418 48.8701 22.8942 46.8397 22.9921L42.4507 23.2172C36.2363 23.5403 30.0015 23.5403 23.7769 23.2172L19.3982 22.9921C17.5318 22.904 16.1372 21.4355 16.1372 19.7223C16.1372 19.8887 16.2192 20.0258 16.291 20.1041C16.3833 20.2118 16.5474 20.3293 16.8243 20.3391L21.6337 20.5642C24.9767 20.7111 28.371 20.7894 31.7243 20.7894C35.0776 20.7894 38.4719 20.7111 41.8149 20.5642L46.6243 20.3391C46.8909 20.3195 47.055 20.202 47.1576 20.1041C47.2498 20.0062 47.3524 19.8398 47.3011 19.6146L46.3474 11.4304C46.2962 11.1367 46.009 10.9115 45.6706 10.892H45.9885L45.9988 10.9018Z" fill="#2C2C2C"/>
<path d="M46.7798 11.4769C47.7436 11.7919 48.4846 12.5583 48.728 13.514L48.7788 13.7592L49.6509 19.2894V19.2904C49.9147 20.9366 48.6198 22.4809 46.8188 22.5677H46.8179L42.4292 22.7933H42.4282C36.2289 23.1156 30.009 23.1156 23.7993 22.7933H23.7983L19.4204 22.5677H19.4185C18.1719 22.5089 17.1796 21.7581 16.7681 20.7592C16.78 20.7599 16.792 20.7616 16.8042 20.7621V20.7631L21.6138 20.9886H21.6147C24.9636 21.1357 28.3644 21.2142 31.7241 21.2142C35.0839 21.2142 38.4846 21.1358 41.8335 20.9886H41.8345L46.644 20.7631H46.6558C47.0483 20.7342 47.3003 20.555 47.4507 20.4115L47.4663 20.3959C47.606 20.2477 47.7924 19.959 47.7212 19.5658H47.7231L46.7798 11.4769Z" stroke="#2C2C2C" stroke-width="0.849315"/>
</g>
<path d="M10.1919 26.605V41.0323" stroke="#2C2C2C" stroke-width="0.849315" stroke-miterlimit="10" stroke-linecap="round"/>
<path d="M13.2432 25.777V33.8236" stroke="#2C2C2C" stroke-width="0.849315" stroke-miterlimit="10" stroke-linecap="round"/>
<path d="M16.2944 27.2577V30.2873" stroke="#2C2C2C" stroke-width="0.849315" stroke-miterlimit="10" stroke-linecap="round"/>
</g>
<defs>
<filter id="filter0_g_40000417_6957" x="15.7975" y="10.5522" width="34.6521" height="13.2471" filterUnits="userSpaceOnUse" color-interpolation-filters="sRGB">
<feFlood flood-opacity="0" result="BackgroundImageFix"/>
<feBlend mode="normal" in="SourceGraphic" in2="BackgroundImageFix" result="shape"/>
<feTurbulence type="fractalNoise" baseFrequency="0.78494632244110107 0.78494632244110107" numOctaves="3" seed="7043" />
<feDisplacementMap in="shape" scale="0.67945206165313721" xChannelSelector="R" yChannelSelector="G" result="displacedImage" width="100%" height="100%" />
<feMerge result="effect1_texture_40000417_6957">
<feMergeNode in="displacedImage"/>
</feMerge>
</filter>
<clipPath id="clip0_40000417_6957">
<rect width="62" height="62" fill="white"/>
</clipPath>
</defs>
</svg>
