<svg width="73" height="74" viewBox="0 0 73 74" fill="none" xmlns="http://www.w3.org/2000/svg">
<g clip-path="url(#clip0_40000417_6957)">
<path d="M36.5 0.5C56.3759 0.5 72.5 16.8352 72.5 37C72.5 57.1648 56.3759 73.5 36.5 73.5C16.6241 73.5 0.5 57.1648 0.5 37C0.5 16.8352 16.6241 0.5 36.5 0.5Z" fill="#FEE888" stroke="#5C5C5C"/>
<g filter="url(#filter0_g_40000417_6957)">
<path d="M38.1357 49.8113C38.3433 49.8142 38.5422 49.8333 38.6904 49.8523C38.7639 49.8617 38.8237 49.871 38.8643 49.8777C38.8842 49.881 38.8994 49.8837 38.9092 49.8855C38.914 49.8864 38.9179 49.8871 38.9199 49.8875L38.9219 49.8884L39.0205 49.907C39.0527 49.9163 39.0905 49.9276 39.1328 49.9402C39.291 49.9874 39.5153 50.057 39.7764 50.1462C40.3023 50.326 40.9644 50.5808 41.542 50.8855C41.8306 51.0378 42.0881 51.197 42.293 51.3591C42.5016 51.5242 42.6312 51.6729 42.6963 51.7957C42.7542 51.9049 42.7561 51.9803 42.7324 52.0515C42.7102 52.118 42.6519 52.2201 42.5107 52.3503L42.3389 52.49C41.1319 53.3704 40.2429 53.589 39.5859 53.5251C38.9321 53.4614 38.4041 53.108 37.9375 52.616C37.874 52.5475 37.7707 52.3777 37.6592 52.1033C37.5531 51.8424 37.4564 51.5292 37.3867 51.2126C37.3167 50.8941 37.2775 50.5892 37.2783 50.3435C37.2787 50.2209 37.289 50.124 37.3047 50.0535C37.3211 49.9801 37.3378 49.9586 37.334 49.9636C37.3432 49.9517 37.3971 49.9015 37.5654 49.8611C37.7244 49.823 37.9246 49.8083 38.1357 49.8113Z" fill="#2C2C2C" stroke="#2C2C2C"/>
<path d="M38.033 40.657C38.033 45.9123 36.8592 50.1631 31.8257 50.1631C27.12 50.1631 24.9521 45.9123 24.9521 40.657C24.9521 39.6736 25.005 38.722 25.1319 37.8338C26.7604 38.3202 28.7062 38.5316 30.8105 38.0452C32.2381 37.7174 33.7503 37.0619 35.273 35.9304C35.8018 35.5498 36.3305 35.0951 36.8698 34.5769L36.9438 34.5029C37.0073 34.6298 37.0601 34.7567 37.1024 34.8942C37.3774 35.5498 37.5889 36.2794 37.7369 37.0619C37.885 37.8972 37.9801 38.7748 38.0119 39.6948V39.7159C38.0224 40.0226 38.033 40.3398 38.033 40.657Z" fill="#FBFBFB" stroke="#2C2C2C" stroke-miterlimit="10"/>
<path d="M51.1141 40.657C51.1141 45.9123 49.9509 50.1631 44.9173 50.1631C40.201 50.1631 38.0332 45.9123 38.0332 40.657C38.0332 39.4516 38.1178 38.3096 38.3187 37.2522C39.9366 37.7386 41.8612 37.9606 43.9444 37.4954C45.7844 37.0936 47.7513 36.1419 49.7288 34.3549C49.7817 34.3126 49.824 34.2597 49.8768 34.2174C49.9931 34.4395 50.0989 34.6721 50.1941 34.9153C50.7439 36.2793 51.0295 37.9183 51.0929 39.7053V39.7371C51.1035 40.0437 51.1141 40.3504 51.1141 40.657Z" fill="#FBFBFB" stroke="#2C2C2C" stroke-miterlimit="10"/>
<path d="M36.9432 34.5029L36.8692 34.5769C36.3299 35.095 35.8012 35.5497 35.2724 35.9304C33.7497 37.0618 32.2375 37.7174 30.8099 38.0452C28.7056 38.5316 26.7598 38.3201 25.1313 37.8337C25.6812 33.9636 27.5424 31.1615 31.8251 31.1615C34.3736 31.1615 36.0021 32.4621 36.9432 34.5029Z" stroke="#2C2C2C" stroke-miterlimit="10"/>
<path d="M36.79 35.3337C37.0887 35.8222 37.2931 36.4483 37.4111 37.2V37.2009C37.4915 37.7232 37.5322 38.2795 37.5322 38.8699C37.5322 39.144 37.5223 39.4097 37.5117 39.6746V39.6902C37.4497 40.9157 37.2307 41.9112 36.7822 42.5896C36.3601 43.2281 35.7027 43.6355 34.5957 43.6355C33.5193 43.6355 32.714 43.1421 32.1582 42.3142C31.5901 41.4678 31.2783 40.258 31.2783 38.8699C31.2783 38.7233 31.2813 38.5801 31.2871 38.4402C32.6731 38.0727 34.1211 37.4085 35.5703 36.3318L35.5693 36.3308C35.9781 36.0362 36.3838 35.7022 36.79 35.3337Z" fill="#2C2C2C" stroke="#2C2C2C"/>
<path d="M49.7651 35.1722L49.7729 35.1849L49.7808 35.1967C50.3519 36.0349 50.6137 37.3298 50.6138 38.8695C50.6138 39.1438 50.6039 39.4097 50.5933 39.6859V39.7094C50.526 40.9298 50.3053 41.9201 49.8569 42.5951C49.4348 43.2303 48.7792 43.6361 47.6772 43.6361C46.6066 43.6361 45.8011 43.1426 45.2437 42.3138C44.6741 41.4671 44.3599 40.2569 44.3599 38.8695C44.3599 38.532 44.3702 38.2072 44.3989 37.9008C46.1082 37.4688 47.8981 36.5818 49.688 35.0551C49.7149 35.0932 49.741 35.132 49.7651 35.1722Z" fill="#2C2C2C" stroke="#2C2C2C"/>
<path d="M49.877 34.2174C49.877 34.2174 49.7818 34.3126 49.7289 34.3549C47.7514 36.1419 45.7846 37.0935 43.9446 37.4954C41.8614 37.9606 39.9368 37.7386 38.3188 37.2522C38.9533 33.6887 40.8356 31.1615 44.9174 31.1615C47.339 31.1615 48.9252 32.3352 49.877 34.2174Z" stroke="#2C2C2C" stroke-miterlimit="10" stroke-linecap="round"/>
<path d="M38.3184 37.2521C38.1175 37.1887 37.9272 37.1253 37.7368 37.0724" stroke="#2C2C2C" stroke-miterlimit="10" stroke-linecap="round"/>
</g>
<g filter="url(#filter1_g_40000417_6957)">
<path d="M35.7598 60.5439C36.5002 60.9533 37.4321 61.1231 38.3002 60.9034C38.7598 60.7936 39.1172 60.6038 38.964 60.2843C38.6066 59.5354 37.0491 58.7866 36.2449 59.0562C35.4406 59.3258 34.5215 59.7252 35.2874 60.2544C35.4406 60.3642 35.6066 60.4641 35.7725 60.5539L35.7598 60.5439Z" fill="#2C2C2C"/>
<path d="M36.4033 59.5303C36.499 59.4982 36.6579 59.486 36.877 59.5225C37.0901 59.5579 37.3286 59.6341 37.5625 59.7422C37.9508 59.9218 38.2497 60.1519 38.4111 60.3477C38.3481 60.3713 38.2719 60.3959 38.1836 60.417L38.1777 60.4189C37.4481 60.6036 36.6458 60.4624 36.002 60.1064L36 60.1084C35.8613 60.0329 35.7288 59.9512 35.6074 59.8662C35.6703 59.828 35.7515 59.7844 35.8525 59.7393C36.0182 59.6653 36.2087 59.5955 36.4033 59.5303Z" stroke="#2C2C2C"/>
</g>
<g filter="url(#filter2_g_40000417_6957)">
<path d="M38.4995 12.1803C42.4577 12.1803 46.4275 12.2984 50.3856 12.5344L53.1527 12.6997C54.9975 12.8059 56.5271 14.2105 56.7956 16.0636L57.7881 22.7207C58.1383 25.0341 56.4337 27.1469 54.1218 27.2649L49.1363 27.5364C45.5985 27.7252 42.049 27.8197 38.4995 27.8197C34.9501 27.8197 31.4123 27.7252 27.8628 27.5364L22.8772 27.2649C20.5654 27.1469 18.8608 25.0341 19.211 22.7207L20.2035 16.0636C20.4837 14.2105 22.0016 12.8059 23.8463 12.6997L26.6135 12.5344C30.5716 12.2984 34.5414 12.1803 38.4995 12.1803ZM38.4995 11C34.5298 11 30.5016 11.118 26.5435 11.3541L23.7763 11.5193C21.3944 11.661 19.3978 13.5023 19.0476 15.8866L18.0551 22.5436C17.845 23.9718 18.2419 25.4354 19.141 26.5567C20.0517 27.678 21.3827 28.3626 22.8189 28.4452L27.8045 28.7167C31.3539 28.9056 34.9501 29 38.4995 29C42.049 29 45.6452 28.9056 49.1946 28.7167L54.1802 28.4452C55.6047 28.3744 56.9474 27.678 57.8581 26.5567C58.7688 25.4354 59.1541 23.9718 58.944 22.5436L57.9515 15.8866C57.5896 13.5023 55.6047 11.661 53.2228 11.5193L50.4556 11.3541C46.4975 11.118 42.4693 11 38.4995 11Z" fill="#2C2C2C"/>
<path d="M38.5 11.5C42.4599 11.5 46.4779 11.6181 50.4258 11.8535L53.1934 12.0186C55.267 12.142 57.0168 13.7029 57.4219 15.7607L57.457 15.9619L58.4492 22.6172C58.6393 23.9106 58.2894 25.2319 57.4697 26.2412C56.6456 27.256 55.4334 27.8827 54.1553 27.9463H54.1533L49.167 28.2178C45.627 28.4061 42.0402 28.5 38.5 28.5C34.9593 28.5 31.3715 28.4061 27.8311 28.2178H27.832L22.8467 27.9463H22.8477C21.6338 27.8765 20.5021 27.3296 19.6875 26.4268L19.5293 26.2412C18.719 25.2291 18.3602 23.9069 18.5498 22.6172L19.542 15.96V15.959C19.8583 13.8065 21.6633 12.1461 23.8057 12.0186L26.5732 11.8535C30.5213 11.6181 34.54 11.5 38.5 11.5ZM38.5 11.6807C34.532 11.6807 30.5519 11.7985 26.584 12.0352L23.8164 12.2002C21.7303 12.3209 20.0236 13.9086 19.709 15.9893V15.9902L18.7168 22.6455C18.3232 25.2448 20.2377 27.6291 22.8496 27.7637V27.7646L27.8359 28.0361C31.3942 28.2255 34.9416 28.3193 38.5 28.3193C41.6133 28.3193 44.7266 28.2475 47.832 28.1025L49.1631 28.0361L54.1484 27.7637C56.7609 27.6296 58.6758 25.2452 58.2822 22.6455L57.29 15.9902C56.9871 13.9051 55.2652 12.3202 53.1816 12.2002H53.1826L50.415 12.0352C46.4473 11.7985 42.4678 11.6807 38.5 11.6807Z" stroke="#2C2C2C"/>
</g>
<g filter="url(#filter3_g_40000417_6957)">
<path d="M54.1596 13.0117C56.0673 13.1168 57.6369 14.5073 57.9267 16.3418L58.953 22.9435C59.3152 25.2337 57.5403 27.3252 55.1497 27.4421L49.982 27.7108C42.6651 28.0964 35.3241 28.0964 27.9952 27.7108L22.8395 27.4421C20.6421 27.3369 19 25.5842 19 23.5394C19 23.7381 19.0966 23.9017 19.1811 23.9951C19.2898 24.1237 19.483 24.2639 19.809 24.2756L25.4717 24.5443C29.4078 24.7196 33.4043 24.813 37.3525 24.813C41.3007 24.813 45.2973 24.7196 49.2334 24.5443L54.8961 24.2756C55.21 24.2522 55.4032 24.112 55.524 23.9951C55.6326 23.8783 55.7534 23.6796 55.693 23.4109L54.5701 13.6426C54.5097 13.2921 54.1717 13.0234 53.7732 13H54.1475L54.1596 13.0117Z" fill="#2C2C2C"/>
<path d="M55.0781 13.6914C56.2109 14.0671 57.0854 14.9811 57.373 16.126L57.4326 16.4199L58.459 23.0205V23.0215C58.7717 24.9984 57.2385 26.8391 55.125 26.9424H55.124L49.9561 27.2119C42.6568 27.5966 35.3329 27.5966 28.0215 27.2119L22.8652 26.9424H22.8633C21.3954 26.8721 20.2224 25.972 19.7393 24.7705C19.7544 24.7715 19.7697 24.7738 19.7852 24.7744V24.7754L25.4482 25.0439H25.4492C29.3924 25.2195 33.3965 25.3135 37.3525 25.3135C41.3085 25.3135 45.3127 25.2195 49.2559 25.0439H49.2568L54.9199 24.7754L54.9336 24.7744C55.398 24.7398 55.6956 24.5253 55.8721 24.3545L55.8809 24.3457L55.8896 24.3359C56.0543 24.1589 56.271 23.8176 56.1875 23.3535H56.1895L55.0781 13.6914Z" stroke="#2C2C2C"/>
</g>
<g filter="url(#filter4_g_40000417_6957)">
<path d="M12 31.7544V48.9741" stroke="#2C2C2C" stroke-miterlimit="10" stroke-linecap="round"/>
<path d="M15.5928 30.7661V40.3701" stroke="#2C2C2C" stroke-miterlimit="10" stroke-linecap="round"/>
<path d="M19.1855 32.5334V36.1495" stroke="#2C2C2C" stroke-miterlimit="10" stroke-linecap="round"/>
</g>
</g>
<defs>
<filter id="filter0_g_40000417_6957" x="24.0521" y="30.2615" width="27.9621" height="24.1743" filterUnits="userSpaceOnUse" color-interpolation-filters="sRGB">
<feFlood flood-opacity="0" result="BackgroundImageFix"/>
<feBlend mode="normal" in="SourceGraphic" in2="BackgroundImageFix" result="shape"/>
<feTurbulence type="fractalNoise" baseFrequency="0.66666668653488159 0.66666668653488159" numOctaves="3" seed="7043" />
<feDisplacementMap in="shape" scale="0.80000001192092896" xChannelSelector="R" yChannelSelector="G" result="displacedImage" width="100%" height="100%" />
<feMerge result="effect1_texture_40000417_6957">
<feMergeNode in="displacedImage"/>
</feMerge>
</filter>
<filter id="filter1_g_40000417_6957" x="34.6" y="58.6" width="4.8" height="2.8" filterUnits="userSpaceOnUse" color-interpolation-filters="sRGB">
<feFlood flood-opacity="0" result="BackgroundImageFix"/>
<feBlend mode="normal" in="SourceGraphic" in2="BackgroundImageFix" result="shape"/>
<feTurbulence type="fractalNoise" baseFrequency="0.66666668653488159 0.66666668653488159" numOctaves="3" seed="7043" />
<feDisplacementMap in="shape" scale="0.80000001192092896" xChannelSelector="R" yChannelSelector="G" result="displacedImage" width="100%" height="100%" />
<feMerge result="effect1_texture_40000417_6957">
<feMergeNode in="displacedImage"/>
</feMerge>
</filter>
<filter id="filter2_g_40000417_6957" x="17.6" y="10.6" width="41.8" height="18.8" filterUnits="userSpaceOnUse" color-interpolation-filters="sRGB">
<feFlood flood-opacity="0" result="BackgroundImageFix"/>
<feBlend mode="normal" in="SourceGraphic" in2="BackgroundImageFix" result="shape"/>
<feTurbulence type="fractalNoise" baseFrequency="0.66666668653488159 0.66666668653488159" numOctaves="3" seed="7043" />
<feDisplacementMap in="shape" scale="0.80000001192092896" xChannelSelector="R" yChannelSelector="G" result="displacedImage" width="100%" height="100%" />
<feMerge result="effect1_texture_40000417_6957">
<feMergeNode in="displacedImage"/>
</feMerge>
</filter>
<filter id="filter3_g_40000417_6957" x="18.6" y="12.6" width="40.8" height="15.8" filterUnits="userSpaceOnUse" color-interpolation-filters="sRGB">
<feFlood flood-opacity="0" result="BackgroundImageFix"/>
<feBlend mode="normal" in="SourceGraphic" in2="BackgroundImageFix" result="shape"/>
<feTurbulence type="fractalNoise" baseFrequency="0.66666668653488159 0.66666668653488159" numOctaves="3" seed="7043" />
<feDisplacementMap in="shape" scale="0.80000001192092896" xChannelSelector="R" yChannelSelector="G" result="displacedImage" width="100%" height="100%" />
<feMerge result="effect1_texture_40000417_6957">
<feMergeNode in="displacedImage"/>
</feMerge>
</filter>
<filter id="filter4_g_40000417_6957" x="11.1" y="29.8661" width="8.98555" height="20.008" filterUnits="userSpaceOnUse" color-interpolation-filters="sRGB">
<feFlood flood-opacity="0" result="BackgroundImageFix"/>
<feBlend mode="normal" in="SourceGraphic" in2="BackgroundImageFix" result="shape"/>
<feTurbulence type="fractalNoise" baseFrequency="0.66666668653488159 0.66666668653488159" numOctaves="3" seed="7043" />
<feDisplacementMap in="shape" scale="0.80000001192092896" xChannelSelector="R" yChannelSelector="G" result="displacedImage" width="100%" height="100%" />
<feMerge result="effect1_texture_40000417_6957">
<feMergeNode in="displacedImage"/>
</feMerge>
</filter>
<clipPath id="clip0_40000417_6957">
<rect width="73" height="74" fill="white"/>
</clipPath>
</defs>
</svg>
