<svg width="62" height="62" viewBox="0 0 62 62" fill="none" xmlns="http://www.w3.org/2000/svg">
<g clip-path="url(#clip0_40000417_7052)">
<circle cx="31" cy="31" r="30.5753" fill="#FEE888" stroke="#5C5C5C" stroke-width="0.849315"/>
<path d="M31.4255 30.5434V30.8326C31.4255 31.0079 31.4166 31.1743 31.4166 31.3496C31.4077 31.6125 31.3898 31.8753 31.372 32.1295C31.372 32.2083 31.363 32.2872 31.3541 32.3661C31.0774 35.836 29.8277 38.421 26.1948 38.421C22.2137 38.421 20.3838 34.8897 20.3838 30.5434C20.3838 29.5358 20.4552 28.5631 20.6337 27.6781C22.3119 27.8884 24.0614 28.0374 25.8556 28.1425C27.5248 28.2477 29.2297 28.3002 30.9792 28.3002C31.0774 28.309 31.1845 28.309 31.2827 28.309C31.3809 29.0188 31.4255 29.7636 31.4255 30.5434Z" fill="#FBFBFB" stroke="#2C2C2C" stroke-width="0.849315" stroke-miterlimit="10"/>
<path d="M22.8687 28.5813C24.3606 28.6697 25.8806 28.7157 27.4351 28.7209C27.6351 29.3098 27.7369 30.0296 27.7524 30.8323H27.7515V30.9895C27.7515 31.1139 27.7522 31.2129 27.7446 31.3176L27.7437 31.3264V31.3342C27.735 31.5885 27.7176 31.8446 27.6997 32.0989L27.6987 32.1135V32.1292C27.6987 32.1799 27.6925 32.2348 27.6831 32.3176C27.5802 33.1474 27.3591 33.7979 26.9907 34.2366C26.6382 34.6564 26.1117 34.9289 25.2759 34.929C24.3207 34.929 23.6443 34.5151 23.1899 33.8381C22.7227 33.1417 22.478 32.1431 22.478 30.9895C22.478 30.0532 22.5955 29.2262 22.8687 28.5813Z" fill="#2C2C2C" stroke="#2C2C2C" stroke-width="0.849315"/>
<path d="M42.4657 30.5434C42.4657 30.6924 42.4657 30.8414 42.4568 30.9903C42.3943 35.1262 41.3321 38.421 37.226 38.421C33.1199 38.421 31.415 34.8897 31.415 30.5434C31.415 29.7636 31.4597 29.0188 31.5579 28.309C33.3074 28.309 35.0123 28.2564 36.6815 28.16C38.5025 28.0637 40.252 27.9147 41.948 27.7044H41.9569C42.0462 27.7044 42.1354 27.6956 42.2247 27.6781C42.3675 28.4229 42.4389 29.2291 42.4568 30.0703C42.4657 30.228 42.4657 30.3857 42.4657 30.5434Z" fill="#FBFBFB" stroke="#2C2C2C" stroke-width="0.849315" stroke-miterlimit="10"/>
<path d="M30.7446 38.6631C30.8575 38.6653 30.9674 38.6799 31.0513 38.6943C31.0926 38.7015 31.1268 38.708 31.1489 38.7129C31.1597 38.7153 31.1675 38.7176 31.1724 38.7188L31.1772 38.7197L31.2222 38.7314C31.2398 38.7384 31.2602 38.7458 31.2827 38.7549C31.3767 38.7928 31.5105 38.8489 31.6665 38.9209C31.9812 39.0661 32.3741 39.2706 32.7153 39.5137C33.0692 39.7658 33.3083 40.0188 33.396 40.2422C33.4354 40.3427 33.4417 40.431 33.4204 40.5176C33.3982 40.6074 33.3377 40.7294 33.187 40.8789C32.4542 41.601 31.9639 41.729 31.6558 41.6885C31.3776 41.6518 31.1179 41.4623 30.8618 41.1367L30.7524 40.9893C30.7145 40.9323 30.6507 40.7909 30.5825 40.5645C30.5169 40.3464 30.4576 40.0848 30.4146 39.8203C30.3713 39.5547 30.3467 39.2971 30.3472 39.0859C30.3474 38.9806 30.3539 38.894 30.3647 38.8281C30.3752 38.7647 30.3867 38.7377 30.3882 38.7344C30.3891 38.7328 30.3914 38.7288 30.3999 38.7227C30.4098 38.7155 30.429 38.7048 30.4614 38.6943C30.5305 38.672 30.6281 38.6609 30.7446 38.6631Z" fill="#2C2C2C" stroke="#2C2C2C" stroke-width="0.849315"/>
<path d="M31.3116 28.3141C31.2134 28.3141 31.1063 28.3141 31.0081 28.3054C29.2585 28.3054 27.5536 28.2528 25.8844 28.1476C24.0903 28.0425 22.3407 27.8935 20.6626 27.6832C21.2071 24.7565 22.796 22.6798 26.2236 22.6798C29.4103 22.6798 30.892 25.0545 31.3116 28.3141Z" stroke="#2C2C2C" stroke-width="0.849315" stroke-miterlimit="10"/>
<path d="M42.2215 27.6832C42.1322 27.7007 42.043 27.7095 41.9537 27.7095H41.9448C40.2488 27.9198 38.4993 28.0688 36.6783 28.1652C35.0091 28.2615 33.3042 28.3141 31.5547 28.3141C31.9921 25.0545 33.5631 22.6798 37.2228 22.6798C40.2042 22.6798 41.6949 24.7565 42.2215 27.6832Z" stroke="#2C2C2C" stroke-width="0.849315" stroke-miterlimit="10"/>
<path d="M38.4375 28.1696C38.6354 28.7045 38.7475 29.3584 38.7842 30.0992V30.1022C38.7923 30.2459 38.793 30.3918 38.793 30.5514C38.793 30.7025 38.7922 30.8391 38.7842 30.9733V30.985C38.7491 32.0633 38.5779 32.9495 38.1982 33.5563C37.8418 34.1258 37.2765 34.4908 36.3076 34.4908C35.3524 34.4908 34.676 34.077 34.2217 33.4C33.7544 32.7036 33.5098 31.7049 33.5098 30.5514C33.5098 29.8095 33.5815 29.1412 33.7471 28.5739C35.3608 28.4831 36.9201 28.3503 38.4375 28.1696Z" fill="#2C2C2C" stroke="#2C2C2C" stroke-width="0.849315"/>
<path d="M28.0273 46.0811H35.6712" stroke="#2C2C2C" stroke-width="0.849315" stroke-miterlimit="10" stroke-linecap="round"/>
<path d="M21.2329 16.7568C21.2329 16.7568 24.6302 15.2792 28.0274 16.2484" stroke="#2C2C2C" stroke-width="0.849315" stroke-miterlimit="10" stroke-linecap="round"/>
<path d="M40.7672 16.7568C40.7672 16.7568 37.3699 15.2792 33.9727 16.2484" stroke="#2C2C2C" stroke-width="0.849315" stroke-miterlimit="10" stroke-linecap="round"/>
</g>
<defs>
<clipPath id="clip0_40000417_7052">
<rect width="62" height="62" fill="white"/>
</clipPath>
</defs>
</svg>
