<svg width="73" height="74" viewBox="0 0 73 74" fill="none" xmlns="http://www.w3.org/2000/svg">
<g clip-path="url(#clip0_40000417_6776)">
<path d="M36.5 0.5C56.3759 0.5 72.5 16.8352 72.5 37C72.5 57.1648 56.3759 73.5 36.5 73.5C16.6241 73.5 0.5 57.1648 0.5 37C0.5 16.8352 16.6241 0.5 36.5 0.5Z" fill="#FEE888" stroke="#5C5C5C"/>
<g filter="url(#filter0_g_40000417_6776)">
<path d="M15.7228 42L6 48.7663" stroke="#2C2C2C" stroke-miterlimit="10" stroke-linecap="round"/>
<path d="M21.3834 42L11.6606 48.7663" stroke="#2C2C2C" stroke-miterlimit="10" stroke-linecap="round"/>
<path d="M28.1258 42L18.415 48.7663" stroke="#2C2C2C" stroke-miterlimit="10" stroke-linecap="round"/>
<path d="M37.1728 35.0147V35.4195C37.1728 35.6648 37.1606 35.8979 37.1606 36.1432C37.1483 36.5111 37.1238 36.8791 37.0992 37.2348C37.0992 37.3452 37.087 37.4556 37.0747 37.566C36.6945 42.4233 34.9773 46.0417 29.9851 46.0417C24.5145 46.0417 22 41.0986 22 35.0147C22 33.6041 22.0981 32.2426 22.3434 31.0038C24.6494 31.2982 27.0535 31.5067 29.519 31.6539C31.8127 31.8011 34.1554 31.8747 36.5595 31.8747C36.6945 31.8869 36.8417 31.8869 36.9766 31.8869C37.1115 32.8805 37.1728 33.9231 37.1728 35.0147Z" fill="#FBFBFB" stroke="#2C2C2C" stroke-miterlimit="10"/>
<path d="M52.3575 35.0147C52.3575 35.2232 52.3575 35.4318 52.3452 35.6403C52.2593 41.4297 50.7997 46.0417 45.1574 46.0417C39.5151 46.0417 37.1724 41.0986 37.1724 35.0147C37.1724 33.9231 37.2337 32.8805 37.3686 31.8869C39.7727 31.8869 42.1155 31.8133 44.4092 31.6784C46.9114 31.5435 49.3155 31.335 51.6461 31.0406H51.6583C51.781 31.0406 51.9036 31.0283 52.0263 31.0038C52.2225 32.0464 52.3207 33.1748 52.3452 34.3524C52.3575 34.5731 52.3575 34.7939 52.3575 35.0147Z" fill="#FBFBFB" stroke="#2C2C2C" stroke-miterlimit="10"/>
<path d="M37.7977 46.3782C37.7977 46.3782 42.9323 47.7609 40.8186 49.3198C38.7048 50.8699 37.4454 50.2798 36.5911 49.3726C36.1683 48.9147 35.6927 47.0916 36.0626 46.6072C36.4325 46.1228 37.7977 46.387 37.7977 46.387V46.3782Z" fill="#2C2C2C" stroke="#2C2C2C" stroke-miterlimit="10"/>
<path d="M36.9764 31.8869C36.8415 31.8869 36.6943 31.8869 36.5594 31.8747C34.1553 31.8747 31.8125 31.8011 29.5188 31.6539C27.0533 31.5067 24.6492 31.2982 22.3433 31.0038C23.0915 26.907 25.2748 24 29.9849 24C34.3638 24 36.3999 27.324 36.9764 31.8869Z" stroke="#2C2C2C" stroke-miterlimit="10"/>
<path d="M52.0263 31.0038C51.9037 31.0283 51.781 31.0406 51.6584 31.0406H51.6461C49.3156 31.335 46.9115 31.5435 44.4092 31.6784C42.1155 31.8133 39.7728 31.8869 37.3687 31.8869C37.9697 27.324 40.1285 24 45.1575 24C49.2543 24 51.3026 26.907 52.0263 31.0038Z" stroke="#2C2C2C" stroke-miterlimit="10"/>
<path d="M34.2778 33.6257C35.356 33.6257 36.427 34.804 36.4272 36.4861V36.6697C36.4084 36.747 36.3769 36.8534 36.3267 36.9919C36.2347 37.2454 36.099 37.5605 35.9263 37.9236C35.5811 38.6489 35.1047 39.536 34.5864 40.4558C33.5586 42.2799 32.3796 44.2041 31.769 45.1912C31.1468 44.2113 29.9396 42.2934 28.8862 40.4656C28.3558 39.5452 27.8691 38.6549 27.5161 37.9226C27.3394 37.5561 27.2 37.2372 27.106 36.9783C27.0062 36.7036 26.9771 36.5472 26.9771 36.4861C26.9773 34.79 28.0373 33.626 29.1138 33.6257C30.057 33.6257 30.9865 34.5156 31.2085 35.8914H32.1958C32.4178 34.5157 33.3592 33.6259 34.2778 33.6257Z" fill="#2C2C2C" stroke="#2C2C2C"/>
<path d="M49.3394 33.6257C50.4175 33.6257 51.4886 34.804 51.4888 36.4861V36.6697C51.4699 36.747 51.4384 36.8534 51.3882 36.9919C51.2962 37.2454 51.1606 37.5605 50.9878 37.9236C50.6427 38.6489 50.1663 39.536 49.6479 40.4558C48.6201 42.2799 47.4411 44.2041 46.8306 45.1912C46.2083 44.2113 45.0011 42.2934 43.9478 40.4656C43.4173 39.5452 42.9307 38.6549 42.5776 37.9226C42.4009 37.5561 42.2615 37.2372 42.1675 36.9783C42.0678 36.7036 42.0386 36.5472 42.0386 36.4861C42.0388 34.79 43.0989 33.626 44.1753 33.6257C45.1185 33.6257 46.048 34.5156 46.27 35.8914H47.2573C47.4793 34.5157 48.4207 33.6259 49.3394 33.6257Z" fill="#2C2C2C" stroke="#2C2C2C"/>
</g>
</g>
<defs>
<filter id="filter0_g_40000417_6776" x="5.1" y="23.1" width="48.1574" height="28.0784" filterUnits="userSpaceOnUse" color-interpolation-filters="sRGB">
<feFlood flood-opacity="0" result="BackgroundImageFix"/>
<feBlend mode="normal" in="SourceGraphic" in2="BackgroundImageFix" result="shape"/>
<feTurbulence type="fractalNoise" baseFrequency="0.66666668653488159 0.66666668653488159" numOctaves="3" seed="7043" />
<feDisplacementMap in="shape" scale="0.80000001192092896" xChannelSelector="R" yChannelSelector="G" result="displacedImage" width="100%" height="100%" />
<feMerge result="effect1_texture_40000417_6776">
<feMergeNode in="displacedImage"/>
</feMerge>
</filter>
<clipPath id="clip0_40000417_6776">
<rect width="73" height="74" fill="white"/>
</clipPath>
</defs>
</svg>
