<svg width="73" height="74" viewBox="0 0 73 74" fill="none" xmlns="http://www.w3.org/2000/svg">
<g clip-path="url(#clip0_40000417_7008)">
<path d="M36.5 0.5C56.3759 0.5 72.5 16.8352 72.5 37C72.5 57.1648 56.3759 73.5 36.5 73.5C16.6241 73.5 0.5 57.1648 0.5 37C0.5 16.8352 16.6241 0.5 36.5 0.5Z" fill="#FEE888" stroke="#5C5C5C"/>
<g filter="url(#filter0_g_40000417_7008)">
<path d="M38.5518 43.4851C38.7721 43.4882 38.9826 43.509 39.1396 43.5291C39.2175 43.539 39.2811 43.5493 39.3242 43.5564C39.3457 43.5599 39.3625 43.5623 39.373 43.5642C39.3779 43.5651 39.3815 43.5657 39.3838 43.5662C39.3849 43.5664 39.3864 43.5671 39.3867 43.5671V43.5662L39.4785 43.5837C39.5156 43.5944 39.5602 43.6075 39.6113 43.6228C39.7786 43.6727 40.0157 43.7462 40.292 43.8406C40.8481 44.0306 41.5492 44.2999 42.1611 44.6228C42.467 44.7842 42.7407 44.9531 42.959 45.1257C43.181 45.3014 43.3212 45.461 43.3926 45.5955C43.4568 45.7165 43.4595 45.8037 43.4316 45.8875C43.398 45.9886 43.2947 46.1533 43.0078 46.364C41.7289 47.2972 40.7825 47.5322 40.0791 47.4636C39.4653 47.4038 38.9568 47.1053 38.5068 46.6804L38.3174 46.491C38.2467 46.4128 38.1378 46.2311 38.0215 45.9451C37.9088 45.6678 37.8063 45.3347 37.7324 44.9988C37.6581 44.661 37.6163 44.3372 37.6172 44.075C37.6176 43.9441 37.6283 43.8395 37.6455 43.7625C37.6634 43.6826 37.6825 43.6559 37.6816 43.657C37.697 43.637 37.7615 43.5822 37.9424 43.5388C38.1135 43.4978 38.3275 43.4819 38.5518 43.4851Z" fill="#2C2C2C" stroke="#2C2C2C"/>
<path d="M38.179 33.3005V33.6689C38.179 33.8921 38.1678 34.1042 38.1678 34.3275C38.1566 34.6624 38.1343 34.9973 38.112 35.3211C38.112 35.4215 38.1008 35.522 38.0896 35.6225C37.7436 40.0432 36.1806 43.3364 31.6369 43.3364C26.6578 43.3364 24.3691 38.8376 24.3691 33.3005C24.3691 32.0167 24.4585 30.7775 24.6817 29.65C26.7806 29.9179 28.9687 30.1077 31.2126 30.2417C33.3003 30.3757 35.4326 30.4426 37.6208 30.4426C37.7436 30.4538 37.8775 30.4538 38.0003 30.4538C38.1231 31.358 38.179 32.3069 38.179 33.3005Z" fill="#FBFBFB" stroke="#2C2C2C" stroke-miterlimit="10"/>
<path d="M52.0002 33.3005C52.0002 33.4903 52.0002 33.68 51.989 33.8698C51.9109 39.139 50.5824 43.3364 45.4469 43.3364C40.3115 43.3364 38.1792 38.8376 38.1792 33.3005C38.1792 32.3069 38.235 31.358 38.3578 30.4538C40.546 30.4538 42.6783 30.3868 44.7659 30.264C47.0434 30.1412 49.2315 29.9514 51.3527 29.6835H51.3638C51.4755 29.6835 51.5871 29.6724 51.6988 29.65C51.8774 30.5989 51.9667 31.626 51.989 32.6976C52.0002 32.8986 52.0002 33.0995 52.0002 33.3005Z" fill="#FBFBFB" stroke="#2C2C2C" stroke-miterlimit="10"/>
<path d="M31.6587 28.8103C32.8119 28.8103 33.5585 29.3254 34.0464 30.1853C34.5551 31.082 34.7866 32.371 34.7866 33.8699C34.7866 35.3878 34.6146 36.6723 34.1372 37.5642C33.9039 38 33.6021 38.3338 33.2153 38.5613C32.8277 38.7892 32.3238 38.9294 31.6587 38.9294C30.4574 38.9294 29.6025 38.3988 29.0269 37.5251C28.4361 36.6282 28.1284 35.3459 28.1284 33.8699C28.1284 32.3693 28.3609 31.09 28.9097 30.2009C29.4336 29.3524 30.2744 28.8103 31.6587 28.8103Z" fill="#2C2C2C" stroke="#2C2C2C"/>
<path d="M45.4692 28.8103C46.6225 28.8103 47.369 29.3254 47.8569 30.1853C48.3656 31.082 48.5972 32.371 48.5972 33.8699C48.5972 35.3878 48.4252 36.6723 47.9478 37.5642C47.7144 38 47.4126 38.3338 47.0259 38.5613C46.6383 38.7892 46.1344 38.9294 45.4692 38.9294C44.2679 38.9294 43.413 38.3988 42.8374 37.5251C42.2466 36.6282 41.939 35.3459 41.939 33.8699C41.939 32.3693 42.1715 31.09 42.7202 30.2009C43.2442 29.3524 44.0849 28.8103 45.4692 28.8103Z" fill="#2C2C2C" stroke="#2C2C2C"/>
<path d="M38.0002 30.4537C37.8774 30.4537 37.7435 30.4537 37.6207 30.4426C35.4325 30.4426 33.3002 30.3756 31.2126 30.2416C28.9686 30.1077 26.7805 29.9179 24.6816 29.65C25.3626 25.9214 27.3498 23.2756 31.6368 23.2756C35.6223 23.2756 37.4755 26.3009 38.0002 30.4537Z" fill="#FEE888" stroke="#2C2C2C" stroke-miterlimit="10"/>
<path d="M51.6984 29.65C51.5867 29.6723 51.4751 29.6835 51.3634 29.6835H51.3523C49.2311 29.9514 47.043 30.1412 44.7655 30.264C42.6779 30.3868 40.5456 30.4537 38.3574 30.4537C38.9045 26.3009 40.8693 23.2756 45.4465 23.2756C49.1753 23.2756 51.0397 25.9214 51.6984 29.65Z" fill="#FEE888" stroke="#2C2C2C" stroke-miterlimit="10"/>
</g>
<g filter="url(#filter1_g_40000417_7008)">
<path d="M22 21C22 21 25.996 12.4035 31 17.7543" stroke="#2C2C2C" stroke-miterlimit="10" stroke-linecap="round"/>
</g>
<g filter="url(#filter2_g_40000417_7008)">
<path d="M41 56.1134C41 58.0739 39.8839 59 38.5 59C37.1161 59 36 58.0619 36 56.1134C36 54.165 36.6138 52 37.9978 52C39.3817 52 41 54.165 41 56.1134Z" fill="#2C2C2C"/>
<path d="M37.998 52.5C38.4495 52.5002 39.0701 52.8814 39.6152 53.6221C40.1432 54.3395 40.5 55.2667 40.5 56.1133C40.5 56.9991 40.2495 57.5863 39.9062 57.9482C39.564 58.309 39.0787 58.5 38.5 58.5C37.9232 58.5 37.4378 58.307 37.0947 57.9443C36.7506 57.5803 36.5 56.9923 36.5 56.1133C36.5 55.181 36.6481 54.2227 36.9414 53.5176C37.2446 52.7888 37.6195 52.5 37.998 52.5Z" stroke="#2C2C2C"/>
</g>
</g>
<defs>
<filter id="filter0_g_40000417_7008" x="23.4691" y="22.3756" width="29.4309" height="25.9993" filterUnits="userSpaceOnUse" color-interpolation-filters="sRGB">
<feFlood flood-opacity="0" result="BackgroundImageFix"/>
<feBlend mode="normal" in="SourceGraphic" in2="BackgroundImageFix" result="shape"/>
<feTurbulence type="fractalNoise" baseFrequency="0.66666668653488159 0.66666668653488159" numOctaves="3" seed="7043" />
<feDisplacementMap in="shape" scale="0.80000001192092896" xChannelSelector="R" yChannelSelector="G" result="displacedImage" width="100%" height="100%" />
<feMerge result="effect1_texture_40000417_7008">
<feMergeNode in="displacedImage"/>
</feMerge>
</filter>
<filter id="filter1_g_40000417_7008" x="21.1" y="15.1" width="10.8" height="6.80012" filterUnits="userSpaceOnUse" color-interpolation-filters="sRGB">
<feFlood flood-opacity="0" result="BackgroundImageFix"/>
<feBlend mode="normal" in="SourceGraphic" in2="BackgroundImageFix" result="shape"/>
<feTurbulence type="fractalNoise" baseFrequency="0.66666668653488159 0.66666668653488159" numOctaves="3" seed="7043" />
<feDisplacementMap in="shape" scale="0.80000001192092896" xChannelSelector="R" yChannelSelector="G" result="displacedImage" width="100%" height="100%" />
<feMerge result="effect1_texture_40000417_7008">
<feMergeNode in="displacedImage"/>
</feMerge>
</filter>
<filter id="filter2_g_40000417_7008" x="35.6" y="51.6" width="5.8" height="7.8" filterUnits="userSpaceOnUse" color-interpolation-filters="sRGB">
<feFlood flood-opacity="0" result="BackgroundImageFix"/>
<feBlend mode="normal" in="SourceGraphic" in2="BackgroundImageFix" result="shape"/>
<feTurbulence type="fractalNoise" baseFrequency="0.66666668653488159 0.66666668653488159" numOctaves="3" seed="7043" />
<feDisplacementMap in="shape" scale="0.80000001192092896" xChannelSelector="R" yChannelSelector="G" result="displacedImage" width="100%" height="100%" />
<feMerge result="effect1_texture_40000417_7008">
<feMergeNode in="displacedImage"/>
</feMerge>
</filter>
<clipPath id="clip0_40000417_7008">
<rect width="73" height="74" fill="white"/>
</clipPath>
</defs>
</svg>
