<svg width="62" height="62" viewBox="0 0 62 62" fill="none" xmlns="http://www.w3.org/2000/svg">
<g clip-path="url(#clip0_40000417_7008)">
<circle cx="31" cy="31" r="30.5753" fill="#FEE888" stroke="#5C5C5C" stroke-width="0.849315"/>
<path d="M32.7422 36.4393C32.9298 36.4419 33.1095 36.4596 33.2432 36.4764C33.3094 36.4848 33.3637 36.493 33.4004 36.4989C33.4185 36.5018 33.4325 36.5042 33.4414 36.5057C33.4458 36.5065 33.4493 36.5073 33.4512 36.5077H33.4521L33.541 36.5243C33.5706 36.5327 33.6053 36.543 33.6445 36.5546C33.7867 36.5964 33.988 36.6581 34.2227 36.7372C34.6951 36.8965 35.2906 37.1219 35.8105 37.3925C36.0702 37.5276 36.302 37.6698 36.4873 37.8143C36.6761 37.9616 36.7955 38.0954 36.8555 38.2069C36.9089 38.3064 36.9111 38.3766 36.8887 38.4432C36.8678 38.505 36.8133 38.5976 36.6846 38.7147L36.5293 38.8397C35.4438 39.621 34.6393 39.8191 34.04 39.7616C33.4435 39.7043 32.9642 39.3855 32.5439 38.9481C32.4845 38.8846 32.3908 38.7323 32.291 38.4901C32.1955 38.2584 32.1085 37.9799 32.0459 37.6991C31.9829 37.4166 31.9485 37.1462 31.9492 36.9276C31.9496 36.8187 31.9583 36.7323 31.9727 36.6688C31.9861 36.6093 32.0013 36.5864 32.0029 36.5839C32.0153 36.5679 32.0692 36.5208 32.2236 36.4843C32.3694 36.4498 32.5516 36.4367 32.7422 36.4393Z" fill="#2C2C2C" stroke="#2C2C2C" stroke-width="0.849315"/>
<path d="M32.4262 27.9004V28.2091C32.4262 28.3961 32.4167 28.5738 32.4167 28.7609C32.4072 29.0415 32.3882 29.3221 32.3693 29.5933C32.3693 29.6775 32.3598 29.7617 32.3503 29.8459C32.0564 33.5497 30.7289 36.3089 26.8699 36.3089C22.641 36.3089 20.6973 32.5396 20.6973 27.9004C20.6973 26.8248 20.7731 25.7866 20.9628 24.8419C22.7453 25.0664 24.6037 25.2254 26.5096 25.3376C28.2826 25.4499 30.0936 25.506 31.9521 25.506C32.0564 25.5153 32.1701 25.5153 32.2744 25.5153C32.3787 26.273 32.4262 27.068 32.4262 27.9004Z" fill="#FBFBFB" stroke="#2C2C2C" stroke-width="0.849315" stroke-miterlimit="10"/>
<path d="M44.1646 27.9004C44.1646 28.0594 44.1646 28.2184 44.1552 28.3774C44.0888 32.7921 42.9605 36.3089 38.5989 36.3089C34.2373 36.3089 32.4263 32.5396 32.4263 27.9004C32.4263 27.068 32.4737 26.273 32.578 25.5153C34.4364 25.5153 36.2474 25.4592 38.0205 25.3563C39.9548 25.2535 41.8132 25.0945 43.6147 24.87H43.6242C43.719 24.87 43.8138 24.8606 43.9086 24.8419C44.0603 25.6369 44.1362 26.4974 44.1552 27.3953C44.1646 27.5637 44.1646 27.732 44.1646 27.9004Z" fill="#FBFBFB" stroke="#2C2C2C" stroke-width="0.849315" stroke-miterlimit="10"/>
<path d="M26.8882 24.1442C27.8707 24.1442 28.5044 24.5772 28.9175 25.2955C29.3484 26.0449 29.5454 27.1228 29.5454 28.3776C29.5454 29.6488 29.3991 30.7232 28.9946 31.4684C28.7971 31.8323 28.541 32.1107 28.2124 32.3014C27.8828 32.4927 27.4541 32.61 26.8882 32.61C25.8655 32.61 25.1396 32.1653 24.6519 31.4352C24.1511 30.6854 23.8902 29.6128 23.8901 28.3776C23.8901 27.1214 24.0874 26.0522 24.5522 25.3092C24.996 24.5999 25.7097 24.1442 26.8882 24.1442Z" fill="#2C2C2C" stroke="#2C2C2C" stroke-width="0.849315"/>
<path d="M38.6177 24.1442C39.6001 24.1442 40.2339 24.5772 40.647 25.2955C41.0779 26.0449 41.2749 27.1228 41.2749 28.3776C41.2749 29.6488 41.1286 30.7232 40.7241 31.4684C40.5266 31.8323 40.2705 32.1107 39.9419 32.3014C39.6123 32.4927 39.1836 32.61 38.6177 32.61C37.595 32.61 36.8691 32.1653 36.3813 31.4352C35.8806 30.6854 35.6197 29.6128 35.6196 28.3776C35.6196 27.1214 35.8169 26.0522 36.2817 25.3092C36.7255 24.5999 37.4391 24.1442 38.6177 24.1442Z" fill="#2C2C2C" stroke="#2C2C2C" stroke-width="0.849315"/>
<path d="M32.2741 25.5153C32.1698 25.5153 32.056 25.5153 31.9517 25.506C30.0933 25.506 28.2823 25.4498 26.5092 25.3376C24.6034 25.2254 22.745 25.0664 20.9624 24.8419C21.5408 21.7179 23.2285 19.5012 26.8695 19.5012C30.2545 19.5012 31.8285 22.0359 32.2741 25.5153Z" fill="#FEE888" stroke="#2C2C2C" stroke-width="0.849315" stroke-miterlimit="10"/>
<path d="M43.9083 24.8419C43.8135 24.8606 43.7187 24.8699 43.6238 24.8699H43.6144C41.8128 25.0944 39.9544 25.2534 38.0201 25.3563C36.2471 25.4592 34.4361 25.5153 32.5776 25.5153C33.0422 22.0359 34.711 19.5012 38.5985 19.5012C41.7654 19.5012 43.3489 21.7179 43.9083 24.8419Z" fill="#FEE888" stroke="#2C2C2C" stroke-width="0.849315" stroke-miterlimit="10"/>
<path d="M18.6851 17.5946C18.6851 17.5946 22.0789 10.3921 26.3289 14.8752" stroke="#2C2C2C" stroke-width="0.849315" stroke-miterlimit="10" stroke-linecap="round"/>
<path d="M32.2715 43.9924C32.6575 43.9924 33.1855 44.3136 33.6475 44.9329C34.0953 45.5333 34.3974 46.3078 34.3975 47.0139C34.3975 47.7534 34.185 48.2431 33.8945 48.5452C33.6043 48.8469 33.1914 49.0081 32.6982 49.0081C32.2065 49.008 31.7939 48.8448 31.5029 48.5413C31.2117 48.2374 31 47.7477 31 47.0139C31 46.234 31.1257 45.4332 31.374 44.844C31.6301 44.2368 31.9469 43.9927 32.2715 43.9924Z" fill="#2C2C2C" stroke="#2C2C2C" stroke-width="0.849315"/>
</g>
<defs>
<clipPath id="clip0_40000417_7008">
<rect width="62" height="62" fill="white"/>
</clipPath>
</defs>
</svg>
