<svg width="62" height="62" viewBox="0 0 62 62" fill="none" xmlns="http://www.w3.org/2000/svg">
<g clip-path="url(#clip0_40000417_6697)">
<circle cx="31" cy="31" r="30.5753" fill="#FEE888" stroke="#5C5C5C" stroke-width="0.849315"/>
<path d="M31.2776 26.1909V26.4761C31.2776 26.6491 31.2688 26.8133 31.2688 26.9862C31.26 27.2456 31.2424 27.5049 31.2248 27.7556C31.2248 27.8334 31.216 27.9112 31.2072 27.9891C30.9342 31.4125 29.7012 33.9629 26.1169 33.9629C22.1892 33.9629 20.3838 30.4789 20.3838 26.1909C20.3838 25.1967 20.4542 24.2371 20.6304 23.3639C22.286 23.5714 24.0121 23.7183 25.7823 23.8221C27.4291 23.9258 29.1112 23.9777 30.8373 23.9777C30.9342 23.9863 31.0398 23.9863 31.1367 23.9863C31.2336 24.6866 31.2776 25.4214 31.2776 26.1909Z" fill="#FBFBFB" stroke="#2C2C2C" stroke-width="0.849315" stroke-miterlimit="10"/>
<path d="M26.082 24.2609C27.5517 24.3479 29.0489 24.3933 30.5801 24.3986C30.7486 24.896 30.8463 25.4882 30.8799 26.1456L30.8916 26.4835V26.631C30.8916 26.754 30.8913 26.8519 30.8838 26.9552L30.8828 26.963V26.9708C30.8743 27.2214 30.8565 27.4739 30.8389 27.7247L30.8379 27.7404V27.755C30.8379 27.8048 30.8325 27.8587 30.8232 27.9406C30.7217 28.7587 30.504 29.3996 30.1416 29.8312C29.795 30.2438 29.2772 30.5117 28.4541 30.5118C27.5138 30.5118 26.8486 30.1049 26.4014 29.4386C25.9411 28.7527 25.6992 27.7686 25.6992 26.631C25.6992 25.7094 25.8141 24.8955 26.082 24.2609Z" fill="#2C2C2C" stroke="#2C2C2C" stroke-width="0.849315"/>
<path d="M42.1702 26.1909C42.1702 26.3378 42.1702 26.4848 42.1614 26.6318C42.0998 30.7123 41.0518 33.9629 37.0007 33.9629C32.9496 33.9629 31.2676 30.4789 31.2676 26.1909C31.2676 25.4214 31.3116 24.6866 31.4085 23.9863C33.1346 23.9863 34.8167 23.9345 36.4635 23.8394C38.2601 23.7443 39.9862 23.5973 41.6594 23.3898H41.6682C41.7563 23.3898 41.8444 23.3812 41.9324 23.3639C42.0733 24.0987 42.1438 24.8941 42.1614 25.724C42.1702 25.8796 42.1702 26.0352 42.1702 26.1909Z" fill="#FBFBFB" stroke="#2C2C2C" stroke-width="0.849315" stroke-miterlimit="10"/>
<path d="M31.229 34.1598C31.4022 34.1622 31.5683 34.1784 31.6919 34.194C31.753 34.2017 31.8026 34.209 31.8364 34.2145C31.8532 34.2172 31.8663 34.2199 31.8745 34.2213C31.8785 34.222 31.8816 34.222 31.8833 34.2223L31.8853 34.2233L31.9712 34.2389C31.9972 34.2463 32.0274 34.2554 32.061 34.2653C32.1929 34.3041 32.3795 34.3618 32.5972 34.4352C33.0361 34.5832 33.5889 34.7928 34.0708 35.0436C34.3116 35.1689 34.5262 35.3001 34.6968 35.4332C34.8707 35.569 34.9777 35.69 35.0308 35.7887C35.0774 35.8755 35.0769 35.932 35.0591 35.985C35.0359 36.0536 34.9608 36.1771 34.7368 36.3395C33.73 37.0643 32.9881 37.2446 32.4399 37.192C31.8943 37.1396 31.4544 36.8484 31.0659 36.444C31.0143 36.3884 30.9295 36.2513 30.8374 36.028C30.7492 35.814 30.6688 35.5564 30.6108 35.2965C30.5525 35.0349 30.5203 34.7852 30.521 34.5846C30.5213 34.4846 30.5297 34.4066 30.5425 34.3502C30.5519 34.3087 30.5609 34.2887 30.564 34.2828C30.5695 34.2758 30.6131 34.2342 30.7544 34.2008C30.8867 34.1696 31.053 34.1574 31.229 34.1598Z" fill="#2C2C2C" stroke="#2C2C2C" stroke-width="0.849315"/>
<path d="M24.2412 41.5981C28.2923 43.6557 33.1095 43.6816 37.187 41.6587L37.3103 41.5981" stroke="#2C2C2C" stroke-width="0.849315" stroke-miterlimit="10" stroke-linecap="round"/>
<path d="M31.165 23.9913C31.0682 23.9913 30.9625 23.9913 30.8656 23.9827C29.1395 23.9827 27.4574 23.9308 25.8106 23.8271C24.0404 23.7233 22.3143 23.5764 20.6587 23.3689C21.1959 20.4814 22.7635 18.4325 26.1452 18.4325C29.2892 18.4325 30.7511 20.7753 31.165 23.9913Z" stroke="#2C2C2C" stroke-width="0.849315" stroke-miterlimit="10"/>
<path d="M41.9292 23.3689C41.8412 23.3862 41.7531 23.3948 41.665 23.3948H41.6562C39.983 23.6023 38.2568 23.7493 36.4603 23.8444C34.8134 23.9395 33.1314 23.9913 31.4053 23.9913C31.8368 20.7753 33.3868 18.4325 36.9975 18.4325C39.9389 18.4325 41.4096 20.4814 41.9292 23.3689Z" stroke="#2C2C2C" stroke-width="0.849315" stroke-miterlimit="10"/>
<path d="M41.4351 23.8549C41.6292 24.3812 41.7398 25.0245 41.7759 25.7533V25.7562C41.7839 25.8977 41.7847 26.0412 41.7847 26.1986C41.7847 26.3477 41.7838 26.4825 41.7759 26.6146V26.6263C41.7413 27.69 41.5725 28.5632 41.1987 29.1605C40.8482 29.7206 40.2923 30.0793 39.3384 30.0795C38.398 30.0795 37.7329 29.6726 37.2856 29.0062C36.8253 28.3203 36.5835 27.3363 36.5835 26.1986C36.5835 25.4688 36.6536 24.8114 36.8159 24.2533C38.405 24.1638 39.9406 24.0328 41.4351 23.8549Z" fill="#2C2C2C" stroke="#2C2C2C" stroke-width="0.849315"/>
</g>
<defs>
<clipPath id="clip0_40000417_6697">
<rect width="62" height="62" fill="white"/>
</clipPath>
</defs>
</svg>
