<svg width="62" height="62" viewBox="0 0 62 62" fill="none" xmlns="http://www.w3.org/2000/svg">
<g clip-path="url(#clip0_40000417_7100)">
<circle cx="31" cy="31" r="30.5753" fill="#FEE888" stroke="#5C5C5C" stroke-width="0.849315"/>
<path d="M31.4457 35.5347C31.4457 35.5347 35.6262 36.6694 33.9052 37.9487C32.1842 39.2207 31.1588 38.7365 30.4633 37.992C30.1191 37.6162 29.7319 36.1201 30.033 35.7226C30.3342 35.3251 31.4457 35.5419 31.4457 35.5419V35.5347Z" fill="#2C2C2C" stroke="#2C2C2C" stroke-width="0.849315" stroke-miterlimit="10"/>
<path d="M30.7434 26.445C30.7434 31.3431 29.6345 35.305 24.879 35.305C20.4333 35.305 18.3853 31.3431 18.3853 26.445C18.3853 25.5284 18.4352 24.6414 18.5551 23.8136C21.1526 24.5724 24.5893 24.6316 28.1359 22.0396C28.6554 21.6651 29.1849 21.2216 29.7144 20.7091C30.0441 21.4187 30.2939 22.217 30.4637 23.0941C30.6535 24.1388 30.7434 25.2623 30.7434 26.445Z" fill="#FBFBFB" stroke="#2C2C2C" stroke-width="0.849315" stroke-miterlimit="10"/>
<path d="M43.1013 26.4449C43.1013 31.3431 42.0024 35.305 37.2469 35.305C32.7912 35.305 30.7432 31.3431 30.7432 26.4449C30.7432 25.3214 30.8231 24.257 31.0129 23.2715C33.9401 24.1289 37.9163 24.1191 41.9325 20.443C42.7617 22.0199 43.1013 24.1289 43.1013 26.4449Z" fill="#FBFBFB" stroke="#2C2C2C" stroke-width="0.849315" stroke-miterlimit="10"/>
<path d="M29.714 20.709C29.1845 21.2215 28.655 21.665 28.1355 22.0395C24.5889 24.6315 21.1522 24.5724 18.5547 23.8135C19.0742 20.2064 20.8325 17.5947 24.8786 17.5947C27.2863 17.5947 28.8249 18.8069 29.714 20.709Z" stroke="#2C2C2C" stroke-width="0.849315" stroke-miterlimit="10"/>
<path d="M24.7388 26.1505C25.7826 26.1505 26.4579 26.6115 26.897 27.3751C27.3539 28.1698 27.561 29.3101 27.561 30.6339C27.561 31.9743 27.407 33.111 26.978 33.9015C26.7683 34.2879 26.4962 34.5849 26.146 34.7882C25.7946 34.9921 25.3383 35.1173 24.7388 35.1173C23.6532 35.1173 22.8817 34.6437 22.3638 33.8683C21.8328 33.0732 21.5572 31.9382 21.5571 30.6339C21.5571 29.3087 21.7651 28.177 22.2583 27.3888C22.7304 26.6343 23.4898 26.1505 24.7388 26.1505Z" fill="#2C2C2C" stroke="#2C2C2C" stroke-width="0.849315"/>
<path d="M37.0874 26.1505C38.1312 26.1505 38.8065 26.6115 39.2456 27.3751C39.7026 28.1698 39.9097 29.3101 39.9097 30.6339C39.9097 31.9743 39.7557 33.111 39.3267 33.9015C39.1169 34.2879 38.8448 34.5849 38.4946 34.7882C38.1432 34.9921 37.6869 35.1173 37.0874 35.1173C36.0019 35.1173 35.2303 34.6437 34.7124 33.8683C34.1814 33.0732 33.9058 31.9382 33.9058 30.6339C33.9058 29.3087 34.1138 28.177 34.6069 27.3888C35.079 26.6343 35.8385 26.1505 37.0874 26.1505Z" fill="#2C2C2C" stroke="#2C2C2C" stroke-width="0.849315"/>
<path d="M41.9327 20.4429C37.9166 24.119 33.9404 24.1289 31.0132 23.2715C31.6126 19.9502 33.3909 17.5947 37.2472 17.5947C39.535 17.5947 41.0336 18.6887 41.9327 20.4429Z" stroke="#2C2C2C" stroke-width="0.849315" stroke-miterlimit="10" stroke-linecap="round"/>
<path d="M31.0129 23.2714C30.823 23.2123 30.6432 23.1532 30.4634 23.1039" stroke="#2C2C2C" stroke-width="0.849315" stroke-miterlimit="10" stroke-linecap="round"/>
<path d="M17.8354 41.892C19.7807 41.892 19.7807 44.4055 21.7149 44.4055C23.6491 44.4055 23.6491 41.892 25.5943 41.892C27.5396 41.892 27.5396 44.4055 29.4738 44.4055C31.408 44.4055 31.419 41.892 33.3532 41.892C35.2874 41.892 35.2984 44.4055 37.2327 44.4055C39.1669 44.4055 39.1779 41.892 41.1231 41.892C43.0683 41.892 43.0683 44.4055 45.0135 44.4055" stroke="#2C2C2C" stroke-width="0.849315" stroke-miterlimit="10" stroke-linecap="round"/>
</g>
<defs>
<clipPath id="clip0_40000417_7100">
<rect width="62" height="62" fill="white"/>
</clipPath>
</defs>
</svg>
