<svg width="62" height="62" viewBox="0 0 62 62" fill="none" xmlns="http://www.w3.org/2000/svg">
<circle cx="31" cy="31" r="30.5753" fill="#FBD7D5" stroke="#5C5C5C" stroke-width="0.849315"/>
<path d="M32.6026 25.55C32.6026 29.8771 31.6208 33.3841 27.4105 33.3841C23.4656 33.3841 21.6523 29.8771 21.6523 25.55C21.6523 21.223 22.988 17.7159 27.4105 17.7159C31.2581 17.7159 32.6026 21.223 32.6026 25.55Z" fill="#FBFBFB" stroke="#2C2C2C" stroke-width="0.916327" stroke-miterlimit="10"/>
<path d="M43.5435 25.55C43.5435 29.8771 42.5617 33.3841 38.3514 33.3841C34.4065 33.3841 32.5933 29.8771 32.5933 25.55C32.5933 21.223 33.9289 17.7159 38.3514 17.7159C42.199 17.7159 43.5435 21.223 43.5435 25.55Z" fill="#FBFBFB" stroke="#2C2C2C" stroke-width="0.916327" stroke-miterlimit="10"/>
<path d="M29.728 22.0996C30.621 22.0997 31.192 22.491 31.5669 23.1426C31.9611 23.8279 32.144 24.8206 32.144 25.9863C32.144 27.17 32.0077 28.159 31.6382 28.8398C31.4585 29.1708 31.2272 29.4215 30.9321 29.5928C30.6359 29.7647 30.2471 29.872 29.728 29.8721C28.7955 29.8721 28.1368 29.4683 27.6929 28.8037C27.2348 28.118 26.9927 27.131 26.9927 25.9863C26.9927 24.819 27.1766 23.8356 27.6011 23.1572C28.0028 22.5153 28.6483 22.0996 29.728 22.0996Z" fill="#2C2C2C" stroke="#2C2C2C" stroke-width="0.916327"/>
<path d="M40.6694 21.6636C41.5624 21.6637 42.1335 22.0549 42.5083 22.7065C42.9025 23.3919 43.0854 24.3845 43.0854 25.5503C43.0854 26.7339 42.9491 27.723 42.5796 28.4038C42.3999 28.7347 42.1687 28.9855 41.8735 29.1567C41.5773 29.3286 41.1885 29.436 40.6694 29.436C39.7369 29.436 39.0782 29.0323 38.6343 28.3677C38.1762 27.6819 37.9341 26.695 37.9341 25.5503C37.9341 24.383 38.118 23.3996 38.5425 22.7212C38.9443 22.0792 39.5897 21.6636 40.6694 21.6636Z" fill="#2C2C2C" stroke="#2C2C2C" stroke-width="0.916327"/>
<path d="M33.3365 33.6371C33.3365 33.6371 28.8697 33.864 29.4358 36.3154C30.0019 38.7668 36.2377 38.2608 37.1222 37.214C38.0067 36.1671 37.3876 33.8378 33.3365 33.6284V33.6371Z" fill="#2C2C2C" stroke="#2C2C2C" stroke-width="0.916327" stroke-miterlimit="10"/>
<path d="M18.1938 21.7375C18.1938 21.7375 27.7289 27.5127 33.434 16.1367" stroke="#2C2C2C" stroke-width="0.916327" stroke-miterlimit="10" stroke-linecap="round"/>
<path d="M12.6128 31.8967C12.6733 31.8969 12.7114 31.9441 12.7114 31.9885C12.7113 32.0329 12.6732 32.0792 12.6128 32.0793C12.5522 32.0793 12.5133 32.033 12.5132 31.9885C12.5132 31.944 12.5521 31.8967 12.6128 31.8967Z" fill="#2C2C2C" stroke="#2C2C2C" stroke-width="0.916327"/>
<path d="M16.0811 31.8967C16.1415 31.8969 16.1797 31.9441 16.1797 31.9885C16.1796 32.0329 16.1414 32.0792 16.0811 32.0793C16.0204 32.0793 15.9816 32.033 15.9814 31.9885C15.9814 31.944 16.0204 31.8967 16.0811 31.8967Z" fill="#2C2C2C" stroke="#2C2C2C" stroke-width="0.916327"/>
<path d="M14.3472 33.5979C14.4076 33.5981 14.4458 33.6452 14.4458 33.6897C14.4457 33.7341 14.4076 33.7803 14.3472 33.7805C14.2866 33.7805 14.2477 33.7342 14.2476 33.6897C14.2476 33.6451 14.2865 33.5979 14.3472 33.5979Z" fill="#2C2C2C" stroke="#2C2C2C" stroke-width="0.916327"/>
<path d="M45.4727 31.8967C45.5331 31.8969 45.5713 31.9441 45.5713 31.9885C45.5712 32.0329 45.533 32.0792 45.4727 32.0793C45.412 32.0793 45.3732 32.033 45.373 31.9885C45.373 31.944 45.412 31.8967 45.4727 31.8967Z" fill="#2C2C2C" stroke="#2C2C2C" stroke-width="0.916327"/>
<path d="M48.9492 31.8967C49.0097 31.8969 49.0479 31.9441 49.0479 31.9885C49.0477 32.0329 49.0096 32.0792 48.9492 32.0793C48.8886 32.0793 48.8497 32.033 48.8496 31.9885C48.8496 31.944 48.8885 31.8967 48.9492 31.8967Z" fill="#2C2C2C" stroke="#2C2C2C" stroke-width="0.916327"/>
<path d="M47.2148 33.5979C47.2753 33.5981 47.3135 33.6452 47.3135 33.6897C47.3134 33.7341 47.2752 33.7803 47.2148 33.7805C47.1542 33.7805 47.1153 33.7342 47.1152 33.6897C47.1152 33.6451 47.1541 33.5979 47.2148 33.5979Z" fill="#2C2C2C" stroke="#2C2C2C" stroke-width="0.916327"/>
<path d="M29.3926 42.0556C29.3926 42.0556 31.9223 39.3338 32.9748 40.5726L34.0274 41.8026" stroke="#2C2C2C" stroke-width="0.916327" stroke-miterlimit="10" stroke-linecap="round"/>
<path d="M18.9727 42.1255C18.9727 44.6903 20.5205 45.6499 21.8473 45.6499C23.1741 45.6499 24.722 44.6903 24.722 42.1255C24.722 39.5606 21.8473 35.3208 21.8473 35.3208C21.8473 35.3208 18.9727 39.5606 18.9727 42.1255Z" fill="#93D1E0"/>
<path d="M27.538 32.7259C27.6914 31.9062 26.3398 30.973 24.5192 30.6415C22.6985 30.3099 21.0982 30.7057 20.9448 31.5254C20.7914 32.345 22.1429 33.2783 23.9636 33.6098C25.7842 33.9413 27.3845 33.5456 27.538 32.7259Z" fill="#93D1E0"/>
</svg>
