<svg width="62" height="62" viewBox="0 0 62 62" fill="none" xmlns="http://www.w3.org/2000/svg">
<circle cx="31" cy="31" r="30.5753" fill="#FBD7D5" stroke="#5C5C5C" stroke-width="0.849315"/>
<path d="M33.036 33.1401V33.4192C33.036 33.5936 33.0272 33.768 33.0272 33.9425V34.021C33.0095 34.2565 33.0007 34.492 32.983 34.7187C32.983 34.7972 32.9741 34.867 32.9653 34.9368C32.6912 38.3993 31.462 40.9723 27.854 40.9723C23.91 40.9723 22.0972 37.4661 22.0972 33.1401V33.1139C23.459 33.0616 25.1922 32.922 27.0139 32.6255C28.9063 32.3202 30.8872 31.8318 32.6558 31.073H32.6646C32.7531 31.1166 32.8415 31.1515 32.9299 31.1864C33.0007 31.8144 33.036 32.4685 33.036 33.1401Z" fill="#FBFBFB" stroke="#2C2C2C" stroke-width="0.916327" stroke-miterlimit="10"/>
<path d="M43.9839 33.1399C43.9839 33.2882 43.9838 33.4365 43.975 33.5847C43.9131 37.7014 42.8608 40.9721 38.793 40.9721C34.7252 40.9721 33.0361 37.4659 33.0361 33.1399C33.0361 32.4945 33.0627 31.8752 33.1334 31.2734C34.6544 31.8665 36.3169 32.2852 37.9263 32.5643C40.2432 32.9742 42.454 33.105 43.9839 33.1399Z" fill="#FBFBFB" stroke="#2C2C2C" stroke-width="0.916327" stroke-miterlimit="10"/>
<path d="M32.9304 31.1864C32.842 31.1515 32.7536 31.1166 32.6651 31.073H32.6563C30.8877 31.8318 28.9068 32.3202 27.0144 32.6255C25.1927 32.922 23.4595 33.0616 22.0977 33.1139C22.1065 28.7966 23.4418 25.3079 27.8545 25.3079C31.0999 25.3079 32.559 27.8023 32.9304 31.1864Z" stroke="#2C2C2C" stroke-width="0.916327" stroke-miterlimit="10"/>
<path d="M32.3745 31.6833C32.4832 32.109 32.5489 32.5916 32.5708 33.113L32.5786 33.4236V33.5759C32.5786 33.7006 32.5782 33.8062 32.5708 33.9089L32.5698 33.9255V33.9978C32.561 34.1167 32.5547 34.2352 32.5483 34.3474C32.5417 34.4646 32.5353 34.5756 32.5269 34.6833L32.5249 34.7009V34.7185C32.5249 34.7641 32.5204 34.8074 32.5112 34.8796V34.8816C32.4096 35.7123 32.1935 36.3555 31.8354 36.7859C31.4956 37.1943 30.9857 37.4617 30.1626 37.4617C29.2304 37.4617 28.5723 37.0576 28.1284 36.3933C27.6705 35.7077 27.4282 34.7204 27.4282 33.5759C27.4282 33.3888 27.436 33.2008 27.4468 33.0154C29.0918 32.7314 30.7986 32.3077 32.3745 31.6833Z" fill="#2C2C2C" stroke="#2C2C2C" stroke-width="0.916327"/>
<path d="M38.3677 33.1005C40.3017 33.4115 42.1285 33.538 43.5161 33.5839C43.4805 34.6495 43.3116 35.5196 42.9419 36.1132C42.5957 36.6688 42.0482 37.0253 41.1011 37.0253C40.1688 37.0253 39.5107 36.6213 39.0669 35.9569C38.6089 35.2713 38.3667 34.284 38.3667 33.1395C38.3667 33.1265 38.3676 33.1135 38.3677 33.1005Z" fill="#2C2C2C" stroke="#2C2C2C" stroke-width="0.916327"/>
<path d="M43.9833 33.1401C42.4534 33.1052 40.2426 32.9744 37.9258 32.5644C36.3163 32.2853 34.6538 31.8667 33.1328 31.2736C33.5042 27.8459 35.0341 25.3079 38.7924 25.3079C42.5507 25.3079 43.8771 28.5611 43.9744 32.6691C43.9833 32.8261 43.9833 32.9831 43.9833 33.1401Z" stroke="#2C2C2C" stroke-width="0.916327" stroke-miterlimit="10"/>
<path d="M33.7795 41.2339C33.7795 41.2339 29.3137 41.4607 29.8797 43.9115C30.4456 46.3624 36.68 45.8565 37.5643 44.8099C38.4486 43.7633 37.8296 41.4345 33.7795 41.2252V41.2339Z" fill="#2C2C2C" stroke="#2C2C2C" stroke-width="0.916327" stroke-miterlimit="10"/>
<path d="M13.0508 39.4854C13.1114 39.4854 13.1504 39.5327 13.1504 39.5771C13.1502 39.6215 13.1113 39.668 13.0508 39.668C12.9906 39.6677 12.9523 39.6214 12.9521 39.5771C12.9521 39.5328 12.9904 39.4856 13.0508 39.4854Z" fill="#2C2C2C" stroke="#2C2C2C" stroke-width="0.916327"/>
<path d="M16.5259 39.4854C16.5865 39.4854 16.6255 39.5327 16.6255 39.5771C16.6253 39.6215 16.5864 39.668 16.5259 39.668C16.4657 39.6677 16.4274 39.6214 16.4272 39.5771C16.4272 39.5328 16.4655 39.4856 16.5259 39.4854Z" fill="#2C2C2C" stroke="#2C2C2C" stroke-width="0.916327"/>
<path d="M14.793 41.1862C14.8536 41.1862 14.8926 41.2335 14.8926 41.278C14.8924 41.3223 14.8535 41.3688 14.793 41.3688C14.7328 41.3685 14.6945 41.3222 14.6943 41.278C14.6943 41.2336 14.7326 41.1864 14.793 41.1862Z" fill="#2C2C2C" stroke="#2C2C2C" stroke-width="0.916327"/>
<path d="M45.9116 39.4854C45.9723 39.4854 46.0112 39.5327 46.0112 39.5771C46.011 39.6215 45.9721 39.668 45.9116 39.668C45.8514 39.6677 45.8132 39.6214 45.813 39.5771C45.813 39.5328 45.8513 39.4856 45.9116 39.4854Z" fill="#2C2C2C" stroke="#2C2C2C" stroke-width="0.916327"/>
<path d="M49.3872 39.4854C49.4478 39.4854 49.4868 39.5327 49.4868 39.5771C49.4866 39.6215 49.4477 39.668 49.3872 39.668C49.327 39.6677 49.2888 39.6214 49.2886 39.5771C49.2886 39.5328 49.3268 39.4856 49.3872 39.4854Z" fill="#2C2C2C" stroke="#2C2C2C" stroke-width="0.916327"/>
<path d="M47.6543 41.1862C47.7149 41.1862 47.7539 41.2335 47.7539 41.278C47.7537 41.3223 47.7148 41.3688 47.6543 41.3688C47.5941 41.3685 47.5559 41.3222 47.5557 41.278C47.5557 41.2336 47.5939 41.1864 47.6543 41.1862Z" fill="#2C2C2C" stroke="#2C2C2C" stroke-width="0.916327"/>
<path d="M31.022 49.5176C31.0521 49.5048 31.1298 49.4894 31.269 49.5186C31.4036 49.5468 31.5626 49.61 31.7241 49.7041C32.0165 49.8746 32.2443 50.1024 32.3521 50.2959C32.314 50.3139 32.2663 50.3339 32.2075 50.3516L32.2007 50.3545C31.7298 50.5048 31.1984 50.3951 30.7534 50.085L30.7515 50.0869C30.6458 50.0144 30.5449 49.9371 30.4546 49.8555L30.4478 49.8496C30.4436 49.8459 30.4407 49.8413 30.437 49.8379C30.48 49.8007 30.5434 49.7533 30.6343 49.7021C30.7488 49.6377 30.8825 49.5765 31.022 49.5176Z" fill="#2C2C2C" stroke="#2C2C2C" stroke-width="0.916327"/>
<path d="M36.0171 8.97546C38.322 9.01377 40.6312 9.09833 42.9214 9.23425H42.9224L45.1802 9.36316C46.9096 9.46111 48.3442 10.7598 48.5991 12.4384L49.4077 17.7528V17.7538C49.5639 18.759 49.2762 19.7917 48.6245 20.5809C48.0144 21.3198 47.1264 21.7905 46.1636 21.8934L45.9702 21.9091L41.894 22.119H41.8931C39.6351 22.2404 37.3536 22.3095 35.0806 22.3348C37.3493 22.3073 39.6143 22.2329 41.8843 22.118H41.8853L45.9634 21.9071H45.9644C48.0568 21.7958 49.6143 19.9859 49.4185 17.9501L49.394 17.7528L48.5854 12.4374V12.4354L48.522 12.1229C48.1408 10.5895 46.7962 9.46213 45.1782 9.36414H45.1763L42.9185 9.23621H42.9194C40.616 9.09951 38.3174 9.01398 36.0171 8.97546ZM28.2251 9.02332C27.0313 9.05846 25.8382 9.10715 24.646 9.16882L23.4292 9.23621L21.1733 9.36414H21.1714C19.4479 9.46852 18.0207 10.7426 17.7642 12.4374L16.9556 17.7528C16.6355 19.8781 18.2363 21.7923 20.3853 21.9071H20.3862L24.4634 22.1171V22.118C26.4917 22.2274 28.5244 22.2936 30.5581 22.3251C28.5208 22.2938 26.4792 22.2277 24.4565 22.119H24.4556L20.3784 21.9091H20.3794C19.3429 21.8518 18.3758 21.3689 17.7251 20.5809H17.7241C17.0713 19.781 16.7861 18.7569 16.9419 17.7538V17.7528L17.7505 12.4384C18.0054 10.7598 19.4401 9.46111 21.1694 9.36316L23.4272 9.23425H23.4282C25.0195 9.13982 26.6222 9.07015 28.2251 9.02332Z" fill="#2C2C2C" stroke="#2C2C2C" stroke-width="0.916327"/>
<path d="M45.9717 10.4613C46.8639 10.8064 47.5329 11.6017 47.6797 12.5668L48.4883 17.8812V17.8832C48.7328 19.4476 47.5403 20.8952 45.918 20.974H45.917L41.8379 21.1849C36.7873 21.4488 31.7296 21.4815 26.6709 21.2836L24.5029 21.1849L20.4336 20.974H20.4316C19.3337 20.9218 18.4448 20.2531 18.0508 19.3441L22.4697 19.5531C25.5893 19.7001 28.7552 19.7728 31.8838 19.7728C35.0124 19.7728 38.1783 19.7 41.2979 19.5531L45.7764 19.3422L45.7881 19.3412C46.1779 19.3127 46.4294 19.1338 46.584 18.9662L46.5859 18.9642C46.7278 18.8087 46.8966 18.5166 46.8398 18.1361H46.8418L45.9717 10.4613Z" fill="#2C2C2C" stroke="#2C2C2C" stroke-width="0.916327"/>
<path d="M8.61084 23.0261V36.8169" stroke="#2C2C2C" stroke-width="0.916327" stroke-miterlimit="10" stroke-linecap="round"/>
<path d="M11.5278 22.238V29.926" stroke="#2C2C2C" stroke-width="0.916327" stroke-miterlimit="10" stroke-linecap="round"/>
<path d="M14.4453 23.6399V26.5447" stroke="#2C2C2C" stroke-width="0.916327" stroke-miterlimit="10" stroke-linecap="round"/>
</svg>
