<svg width="62" height="62" viewBox="0 0 62 62" fill="none" xmlns="http://www.w3.org/2000/svg">
<circle cx="31" cy="31" r="30.5753" fill="#FBD7D5" stroke="#5C5C5C" stroke-width="0.849315"/>
<path d="M33.0415 26.4906C33.0415 30.8476 32.053 34.379 27.8136 34.379C23.8414 34.379 22.0156 30.8476 22.0156 26.4906C22.0156 22.1335 23.3694 18.6022 27.8136 18.6022C31.6878 18.6022 33.0415 22.1335 33.0415 26.4906Z" fill="#FBFBFB" stroke="#2C2C2C" stroke-width="0.916327" stroke-miterlimit="10"/>
<path d="M44.0591 26.4906C44.0591 30.8476 43.0705 34.379 38.8312 34.379C34.859 34.379 33.0332 30.8476 33.0332 26.4906C33.0332 22.1335 34.387 18.6022 38.8312 18.6022C42.7054 18.6022 44.0591 22.1335 44.0591 26.4906Z" fill="#FBFBFB" stroke="#2C2C2C" stroke-width="0.916327" stroke-miterlimit="10"/>
<path d="M33.7814 34.6425C33.7814 34.6425 29.2842 34.8708 29.8541 37.339C30.4241 39.8072 36.7024 39.2977 37.5929 38.2437C38.4835 37.1897 37.8601 34.8445 33.7814 34.6337V34.6425Z" fill="#2C2C2C" stroke="#2C2C2C" stroke-width="0.916327" stroke-miterlimit="10"/>
<path d="M20.5649 35.9513C20.5649 35.9513 24.261 46.4574 36.0618 41.1692" stroke="#2C2C2C" stroke-width="0.916327" stroke-miterlimit="10" stroke-linecap="round"/>
<path d="M12.9146 32.8779C12.9772 32.8781 13.0171 32.927 13.0171 32.9736C13.017 33.0202 12.9771 33.0682 12.9146 33.0684C12.8518 33.0684 12.8112 33.0203 12.811 32.9736C12.811 32.9269 12.8517 32.8779 12.9146 32.8779Z" fill="#2C2C2C" stroke="#2C2C2C" stroke-width="0.916327"/>
<path d="M16.4062 32.8778C16.4689 32.878 16.5088 32.9269 16.5088 32.9735C16.5087 33.02 16.4688 33.068 16.4062 33.0682C16.3435 33.0682 16.3029 33.0201 16.3027 32.9735C16.3027 32.9268 16.3434 32.8778 16.4062 32.8778Z" fill="#2C2C2C" stroke="#2C2C2C" stroke-width="0.916327"/>
<path d="M14.6597 34.5908C14.7223 34.591 14.7622 34.6399 14.7622 34.6865C14.7621 34.7331 14.7222 34.7811 14.6597 34.7812C14.5969 34.7812 14.5563 34.7332 14.5562 34.6865C14.5562 34.6398 14.5968 34.5908 14.6597 34.5908Z" fill="#2C2C2C" stroke="#2C2C2C" stroke-width="0.916327"/>
<path d="M46.0005 32.8779C46.0631 32.8781 46.103 32.927 46.103 32.9736C46.1029 33.0202 46.063 33.0682 46.0005 33.0684C45.9378 33.0684 45.8971 33.0203 45.897 32.9736C45.897 32.9269 45.9376 32.8779 46.0005 32.8779Z" fill="#2C2C2C" stroke="#2C2C2C" stroke-width="0.916327"/>
<path d="M49.501 32.8778C49.5636 32.878 49.6035 32.9269 49.6035 32.9735C49.6034 33.02 49.5635 33.068 49.501 33.0682C49.4382 33.0682 49.3976 33.0201 49.3975 32.9735C49.3975 32.9268 49.4381 32.8778 49.501 32.8778Z" fill="#2C2C2C" stroke="#2C2C2C" stroke-width="0.916327"/>
<path d="M47.7563 34.5908C47.819 34.591 47.8589 34.6399 47.8589 34.6865C47.8587 34.7331 47.8189 34.7811 47.7563 34.7812C47.6936 34.7812 47.653 34.7332 47.6528 34.6865C47.6528 34.6398 47.6935 34.5908 47.7563 34.5908Z" fill="#2C2C2C" stroke="#2C2C2C" stroke-width="0.916327"/>
<path d="M31.1807 23.3645C31.8961 23.3645 32.6465 24.1469 32.6465 25.3137V25.428C32.6325 25.483 32.6116 25.5533 32.5801 25.6389C32.5149 25.8161 32.4177 26.0385 32.293 26.2971C32.0439 26.8135 31.6992 27.4466 31.3232 28.1047C30.6203 29.3352 29.8179 30.6285 29.3574 31.3645C28.8876 30.6332 28.0678 29.3431 27.3477 28.1106C26.963 27.4522 26.6102 26.8173 26.3555 26.2961C26.2279 26.0352 26.1281 25.81 26.0615 25.6292C26.0283 25.539 26.0055 25.4646 25.9912 25.4065C25.9842 25.3782 25.98 25.3559 25.9775 25.3391C25.9763 25.3308 25.976 25.324 25.9756 25.3196C25.9753 25.3163 25.9746 25.3144 25.9746 25.3137C25.9746 24.1363 26.7176 23.3645 27.4316 23.3645C28.0578 23.3646 28.7028 23.953 28.8584 24.9045H29.7627C29.9183 23.9531 30.5723 23.3647 31.1807 23.3645Z" fill="#2C2C2C" stroke="#2C2C2C" stroke-width="0.916327"/>
<path d="M42.1167 23.3645C42.8321 23.3645 43.5825 24.1469 43.5825 25.3137V25.428C43.5685 25.483 43.5476 25.5533 43.5161 25.6389C43.451 25.8161 43.3538 26.0385 43.229 26.2971C42.9799 26.8135 42.6352 27.4466 42.2593 28.1047C41.5563 29.3352 40.7539 30.6285 40.2935 31.3645C39.8236 30.6332 39.0038 29.3431 38.2837 28.1106C37.899 27.4522 37.5462 26.8173 37.2915 26.2961C37.1639 26.0352 37.0641 25.81 36.9976 25.6292C36.9644 25.539 36.9416 25.4646 36.9272 25.4065C36.9203 25.3782 36.9161 25.3559 36.9136 25.3391C36.9123 25.3308 36.912 25.324 36.9116 25.3196C36.9114 25.3163 36.9107 25.3144 36.9106 25.3137C36.9106 24.1363 37.6537 23.3645 38.3677 23.3645C38.9938 23.3646 39.6388 23.953 39.7944 24.9045H40.6987C40.8543 23.9531 41.5084 23.3647 42.1167 23.3645Z" fill="#2C2C2C" stroke="#2C2C2C" stroke-width="0.916327"/>
</svg>
