<svg width="62" height="62" viewBox="0 0 62 62" fill="none" xmlns="http://www.w3.org/2000/svg">
<circle cx="31" cy="31" r="30.5753" fill="#FBD7D5" stroke="#5C5C5C" stroke-width="0.849315"/>
<path d="M32.6036 31.3686C32.6036 35.6957 31.6218 39.2027 27.4115 39.2027C23.4666 39.2027 21.6533 35.6957 21.6533 31.3686C21.6533 27.0416 22.9889 23.5345 27.4115 23.5345C31.2591 23.5345 32.6036 27.0416 32.6036 31.3686Z" fill="#FBFBFB" stroke="#2C2C2C" stroke-width="0.916327" stroke-miterlimit="10"/>
<path d="M27.376 27.4822C28.2689 27.4823 28.84 27.8735 29.2148 28.5251C29.609 29.2105 29.792 30.2031 29.792 31.3689C29.792 32.5525 29.6557 33.5416 29.2861 34.2224C29.1065 34.5533 28.8752 34.8041 28.5801 34.9753C28.2838 35.1472 27.8951 35.2546 27.376 35.2546C26.4434 35.2546 25.7848 34.8509 25.3408 34.1863C24.8828 33.5005 24.6407 32.5136 24.6406 31.3689C24.6406 30.2016 24.8245 29.2182 25.249 28.5398C25.6508 27.8978 26.2962 27.4822 27.376 27.4822Z" fill="#2C2C2C" stroke="#2C2C2C" stroke-width="0.916327"/>
<path d="M43.544 31.3686C43.544 35.6957 42.5622 39.2027 38.3519 39.2027C34.407 39.2027 32.5938 35.6957 32.5938 31.3686C32.5938 27.0416 33.9294 23.5345 38.3519 23.5345C42.1995 23.5345 43.544 27.0416 43.544 31.3686Z" fill="#FBFBFB" stroke="#2C2C2C" stroke-width="0.916327" stroke-miterlimit="10"/>
<path d="M33.337 39.4559C33.337 39.4559 28.8702 39.6827 29.4363 42.1341C30.0024 44.5855 36.2382 44.0796 37.1227 43.0327C38.0072 41.9858 37.3881 39.6565 33.337 39.4471V39.4559Z" fill="#2C2C2C" stroke="#2C2C2C" stroke-width="0.916327" stroke-miterlimit="10"/>
<path d="M29.708 46.7361H37.0382" stroke="#2C2C2C" stroke-width="0.916327" stroke-miterlimit="10" stroke-linecap="round"/>
<path d="M38.3169 27.4822C39.2098 27.4823 39.7809 27.8735 40.1558 28.5251C40.5499 29.2105 40.7329 30.2031 40.7329 31.3689C40.7329 32.5525 40.5966 33.5416 40.2271 34.2224C40.0474 34.5533 39.8161 34.8041 39.521 34.9753C39.2247 35.1472 38.836 35.2546 38.3169 35.2546C37.3843 35.2546 36.7257 34.8509 36.2817 34.1863C35.8237 33.5005 35.5816 32.5136 35.5815 31.3689C35.5815 30.2016 35.7654 29.2182 36.1899 28.5398C36.5917 27.8978 37.2372 27.4822 38.3169 27.4822Z" fill="#2C2C2C" stroke="#2C2C2C" stroke-width="0.916327"/>
<path d="M12.6128 37.7155C12.6733 37.7156 12.7114 37.7628 12.7114 37.8073C12.7113 37.8517 12.6732 37.8979 12.6128 37.8981C12.5522 37.8981 12.5133 37.8518 12.5132 37.8073C12.5132 37.7627 12.5521 37.7155 12.6128 37.7155Z" fill="#2C2C2C" stroke="#2C2C2C" stroke-width="0.916327"/>
<path d="M16.0811 37.7155C16.1415 37.7156 16.1797 37.7628 16.1797 37.8073C16.1796 37.8517 16.1414 37.8979 16.0811 37.8981C16.0204 37.8981 15.9816 37.8518 15.9814 37.8073C15.9814 37.7627 16.0204 37.7155 16.0811 37.7155Z" fill="#2C2C2C" stroke="#2C2C2C" stroke-width="0.916327"/>
<path d="M14.3472 39.4166C14.4076 39.4168 14.4458 39.4639 14.4458 39.5084C14.4457 39.5528 14.4076 39.599 14.3472 39.5992C14.2866 39.5992 14.2477 39.5529 14.2476 39.5084C14.2476 39.4639 14.2865 39.4166 14.3472 39.4166Z" fill="#2C2C2C" stroke="#2C2C2C" stroke-width="0.916327"/>
<path d="M45.4727 37.7155C45.5331 37.7156 45.5713 37.7628 45.5713 37.8073C45.5712 37.8517 45.533 37.8979 45.4727 37.8981C45.4121 37.8981 45.3732 37.8518 45.373 37.8073C45.373 37.7627 45.412 37.7155 45.4727 37.7155Z" fill="#2C2C2C" stroke="#2C2C2C" stroke-width="0.916327"/>
<path d="M48.9492 37.7155C49.0097 37.7156 49.0479 37.7628 49.0479 37.8073C49.0477 37.8517 49.0096 37.8979 48.9492 37.8981C48.8886 37.8981 48.8497 37.8518 48.8496 37.8073C48.8496 37.7627 48.8885 37.7155 48.9492 37.7155Z" fill="#2C2C2C" stroke="#2C2C2C" stroke-width="0.916327"/>
<path d="M47.2153 39.4166C47.2758 39.4168 47.314 39.4639 47.314 39.5084C47.3139 39.5528 47.2757 39.5991 47.2153 39.5992C47.1547 39.5992 47.1158 39.5529 47.1157 39.5084C47.1157 39.4639 47.1546 39.4166 47.2153 39.4166Z" fill="#2C2C2C" stroke="#2C2C2C" stroke-width="0.916327"/>
<path d="M22.2754 16.4203C22.2754 16.4203 25.4713 14.4227 28.6673 15.7331" stroke="#2C2C2C" stroke-width="0.916327" stroke-miterlimit="10" stroke-linecap="round"/>
<path d="M41.0979 16.4203C41.0979 16.4203 37.902 14.4227 34.7061 15.7331" stroke="#2C2C2C" stroke-width="0.916327" stroke-miterlimit="10" stroke-linecap="round"/>
</svg>
