<svg width="73" height="74" viewBox="0 0 73 74" fill="none" xmlns="http://www.w3.org/2000/svg">
<g clip-path="url(#clip0_40000282_8157)">
<path d="M36.5 0.5C56.3759 0.5 72.5 16.8352 72.5 37C72.5 57.1648 56.3759 73.5 36.5 73.5C16.6241 73.5 0.5 57.1648 0.5 37C0.5 16.8352 16.6241 0.5 36.5 0.5Z" fill="#FBD7D5" stroke="#5C5C5C"/>
<g filter="url(#filter0_g_40000282_8157)">
<path d="M38.8977 39.5543V39.8874C38.8977 40.0956 38.8873 40.3038 38.8873 40.512V40.6057C38.8665 40.8868 38.8561 41.1679 38.8352 41.4385C38.8352 41.5322 38.8248 41.6155 38.8144 41.6988C38.4916 45.8315 37.0444 48.9024 32.7963 48.9024C28.1525 48.9024 26.0181 44.7176 26.0181 39.5543V39.5231C27.6215 39.4606 29.6623 39.2941 31.8071 38.9401C34.0353 38.5758 36.3676 37.9928 38.45 37.0872H38.4604C38.5645 37.1392 38.6686 37.1808 38.7728 37.2225C38.8561 37.972 38.8977 38.7527 38.8977 39.5543Z" fill="#FBFBFB" stroke="#2C2C2C" stroke-width="1.0789" stroke-miterlimit="10"/>
<path d="M51.787 39.5543C51.787 39.7312 51.787 39.9082 51.7766 40.0852C51.7037 44.9987 50.4647 48.9024 45.6752 48.9024C40.8857 48.9024 38.897 44.7176 38.897 39.5543C38.897 38.7839 38.9282 38.0448 39.0115 37.3265C40.8024 38.0344 42.7598 38.5341 44.6548 38.8672C47.3827 39.3565 49.9858 39.5126 51.787 39.5543Z" fill="#FBFBFB" stroke="#2C2C2C" stroke-width="1.0789" stroke-miterlimit="10"/>
<path d="M38.7733 37.2225C38.6691 37.1808 38.565 37.1392 38.4609 37.0871H38.4505C36.3681 37.9928 34.0358 38.5758 31.8076 38.9401C29.6628 39.294 27.622 39.4606 26.0186 39.5231C26.029 34.3701 27.6012 30.2062 32.7968 30.2062C36.618 30.2062 38.3359 33.1834 38.7733 37.2225Z" stroke="#2C2C2C" stroke-width="1.0789" stroke-miterlimit="10"/>
<path d="M38.1172 37.8088C38.246 38.3189 38.3228 38.8972 38.3486 39.5217L38.3584 39.8928V40.0745C38.3584 40.2234 38.3574 40.3505 38.3486 40.4739L38.3477 40.4924V40.5959C38.3379 40.7319 38.3295 40.8668 38.3223 40.9954C38.3144 41.1352 38.3068 41.268 38.2969 41.3967L38.2959 41.4182V41.4387C38.2959 41.4941 38.29 41.5461 38.2793 41.6321L38.2783 41.634C38.1585 42.6272 37.9044 43.3978 37.4814 43.9133C37.0805 44.4019 36.4802 44.72 35.5137 44.72C34.4192 44.72 33.6442 44.2389 33.1201 43.4436C32.5795 42.6232 32.2939 41.4425 32.2939 40.0745C32.294 39.8488 32.3026 39.6221 32.3154 39.3987C34.2521 39.0598 36.2616 38.5537 38.1172 37.8088Z" fill="#2C2C2C" stroke="#2C2C2C" stroke-width="1.0789"/>
<path d="M45.1743 39.499C47.4519 39.8702 49.6029 40.0224 51.2368 40.0771C51.1953 41.3535 50.9957 42.3972 50.5581 43.1094C50.149 43.775 49.5048 44.1992 48.3931 44.1992C47.2986 44.1992 46.5236 43.7181 45.9995 42.9229C45.459 42.1025 45.1734 40.9225 45.1733 39.5547C45.1733 39.5363 45.1742 39.5175 45.1743 39.499Z" fill="#2C2C2C" stroke="#2C2C2C" stroke-width="1.0789"/>
<path d="M51.7868 39.5543C49.9855 39.5127 47.3825 39.3565 44.6545 38.8672C42.7595 38.5341 40.8021 38.0344 39.0112 37.3266C39.4485 33.2355 41.2498 30.2062 45.6749 30.2062C50.1 30.2062 51.6618 34.0891 51.7763 38.9922C51.7868 39.1795 51.7868 39.3669 51.7868 39.5543Z" stroke="#2C2C2C" stroke-width="1.0789" stroke-miterlimit="10"/>
<path d="M39.7721 49.2148C39.7721 49.2148 34.5141 49.4854 35.1805 52.4106C35.8468 55.3358 43.1873 54.732 44.2285 53.4828C45.2697 52.2336 44.5408 49.4542 39.7721 49.2043V49.2148Z" fill="#2C2C2C" stroke="#2C2C2C" stroke-width="1.0789" stroke-miterlimit="10"/>
<path d="M15.3672 47.1201C15.4315 47.1203 15.4834 47.1732 15.4834 47.2373C15.4832 47.3012 15.4314 47.3534 15.3672 47.3535C15.3029 47.3535 15.2502 47.3013 15.25 47.2373C15.25 47.1731 15.3027 47.1201 15.3672 47.1201Z" fill="#2C2C2C" stroke="#2C2C2C" stroke-width="1.0789"/>
<path d="M19.459 47.1201C19.5233 47.1203 19.5752 47.1732 19.5752 47.2373C19.575 47.3012 19.5232 47.3534 19.459 47.3535C19.3947 47.3535 19.342 47.3013 19.3418 47.2373C19.3418 47.1731 19.3945 47.1201 19.459 47.1201Z" fill="#2C2C2C" stroke="#2C2C2C" stroke-width="1.0789"/>
<path d="M17.4185 49.15C17.4828 49.1502 17.5347 49.2031 17.5347 49.2672C17.5344 49.3311 17.4826 49.3833 17.4185 49.3834C17.3542 49.3834 17.3015 49.3312 17.3013 49.2672C17.3013 49.203 17.354 49.15 17.4185 49.15Z" fill="#2C2C2C" stroke="#2C2C2C" stroke-width="1.0789"/>
<path d="M54.0581 47.1201C54.1224 47.1203 54.1743 47.1732 54.1743 47.2373C54.1741 47.3012 54.1223 47.3534 54.0581 47.3535C53.9938 47.3535 53.9411 47.3013 53.9409 47.2373C53.9409 47.1731 53.9937 47.1201 54.0581 47.1201Z" fill="#2C2C2C" stroke="#2C2C2C" stroke-width="1.0789"/>
<path d="M58.1504 47.1201C58.2147 47.1203 58.2666 47.1732 58.2666 47.2373C58.2664 47.3012 58.2146 47.3534 58.1504 47.3535C58.0861 47.3535 58.0334 47.3013 58.0332 47.2373C58.0332 47.1731 58.0859 47.1201 58.1504 47.1201Z" fill="#2C2C2C" stroke="#2C2C2C" stroke-width="1.0789"/>
<path d="M56.1104 49.15C56.1747 49.1502 56.2266 49.2031 56.2266 49.2672C56.2263 49.3311 56.1745 49.3833 56.1104 49.3834C56.0461 49.3834 55.9934 49.3312 55.9932 49.2672C55.9932 49.203 56.0459 49.15 56.1104 49.15Z" fill="#2C2C2C" stroke="#2C2C2C" stroke-width="1.0789"/>
<path d="M36.5283 59.0941C36.5625 59.0795 36.6519 59.0613 36.8154 59.0961C36.9732 59.1296 37.1594 59.2044 37.3496 59.3168C37.699 59.5233 37.9715 59.8009 38.0967 60.0365C38.051 60.0591 37.9918 60.0826 37.9189 60.1049L37.9111 60.1078C37.3592 60.2863 36.7348 60.1577 36.2109 59.7875L36.209 59.7885C36.0848 59.7021 35.9656 59.6105 35.8594 59.5131L35.8525 59.5062L35.8311 59.4828C35.8816 59.4369 35.9597 59.379 36.0723 59.3148C36.2071 59.2379 36.3642 59.1645 36.5283 59.0941Z" fill="#2C2C2C" stroke="#2C2C2C" stroke-width="1.0789"/>
<path d="M39.0605 10.676C42.8789 10.676 46.7299 10.7859 50.5361 11.0149H50.5381L53.1963 11.1672C55.2271 11.284 56.9203 12.8316 57.2217 14.843L58.1738 21.1868V21.1887C58.3582 22.3928 58.0183 23.6281 57.25 24.5715C56.5308 25.4545 55.485 26.0152 54.3535 26.1379L54.127 26.1565L49.3262 26.4084H49.3252C45.9227 26.5938 42.4753 26.6809 39.0605 26.6809C35.6459 26.6809 32.1992 26.5938 28.7969 26.4084H28.7959L23.9941 26.1565H23.9951C22.7774 26.0882 21.6391 25.5131 20.8721 24.5715C20.1023 23.6154 19.7642 22.3905 19.9482 21.1887V21.1868L20.9004 14.843C21.2018 12.8316 22.895 11.284 24.9258 11.1672L27.584 11.0149H27.5859C31.392 10.7859 35.2532 10.676 39.0605 10.676ZM39.0605 10.6917C35.7112 10.6917 32.3614 10.7751 29.0186 10.9504L27.5869 11.0315L24.9297 11.1838L24.9277 11.1848C22.8932 11.3097 21.2168 12.8321 20.916 14.8469L19.9639 21.1907V21.1917C19.5891 23.7156 21.4646 26.0024 24.002 26.1399H24.0029L28.8037 26.3909V26.3918C32.2159 26.5783 35.6386 26.6663 39.0605 26.6663C42.4838 26.6663 45.8955 26.5672 49.3164 26.3918H49.3174L54.1191 26.1399H54.1201C56.5906 26.0067 58.4156 23.8443 58.1865 21.426L58.1582 21.1907L57.2061 14.8469V14.845L57.1729 14.6575C56.7897 12.7405 55.1681 11.3059 53.1943 11.1848L53.1924 11.1838L50.5342 11.0315H50.5352C46.7063 10.8012 42.8884 10.6917 39.0605 10.6917Z" fill="#2C2C2C" stroke="#2C2C2C" stroke-width="1.0789"/>
<path d="M54.127 12.4791C55.1753 12.8908 55.966 13.8393 56.1396 14.9967L57.0908 21.3395V21.3424C57.3806 23.2223 55.9672 24.9469 54.0645 25.0406H54.0625L49.2607 25.2926C42.4649 25.6525 35.6575 25.6525 28.8506 25.2926L24.0596 25.0406H24.0566C22.7633 24.9783 21.7106 24.1759 21.248 23.0807L26.4561 23.3297C30.1292 23.5051 33.8572 23.5924 37.541 23.5924C41.2248 23.5924 44.9529 23.5051 48.626 23.3297L53.8984 23.0778H53.9121C54.3737 23.0436 54.6704 22.8278 54.8516 22.6285L54.8535 22.6266C55.0202 22.4412 55.2165 22.0962 55.1504 21.6481H55.1523L54.127 12.4791Z" fill="#2C2C2C" stroke="#2C2C2C" stroke-width="1.0789"/>
<path d="M10.1387 27.4828V43.9427" stroke="#2C2C2C" stroke-width="1.0789" stroke-miterlimit="10" stroke-linecap="round"/>
<path d="M13.5732 26.5422V35.7182" stroke="#2C2C2C" stroke-width="1.0789" stroke-miterlimit="10" stroke-linecap="round"/>
<path d="M17.0083 28.2156V31.6825" stroke="#2C2C2C" stroke-width="1.0789" stroke-miterlimit="10" stroke-linecap="round"/>
</g>
</g>
<defs>
<filter id="filter0_g_40000282_8157" x="9.19912" y="9.73696" width="50.007" height="51.3902" filterUnits="userSpaceOnUse" color-interpolation-filters="sRGB">
<feFlood flood-opacity="0" result="BackgroundImageFix"/>
<feBlend mode="normal" in="SourceGraphic" in2="BackgroundImageFix" result="shape"/>
<feTurbulence type="fractalNoise" baseFrequency="0.66666668653488159 0.66666668653488159" numOctaves="3" seed="7043" />
<feDisplacementMap in="shape" scale="0.80000001192092896" xChannelSelector="R" yChannelSelector="G" result="displacedImage" width="100%" height="100%" />
<feMerge result="effect1_texture_40000282_8157">
<feMergeNode in="displacedImage"/>
</feMerge>
</filter>
<clipPath id="clip0_40000282_8157">
<rect width="73" height="74" fill="white"/>
</clipPath>
</defs>
</svg>
