<svg width="62" height="62" viewBox="0 0 62 62" fill="none" xmlns="http://www.w3.org/2000/svg">
<circle cx="31" cy="31" r="30.5753" fill="#FBD7D5" stroke="#5C5C5C" stroke-width="0.849315"/>
<path d="M32.6015 26.8541C32.6015 31.1812 31.6197 34.6882 27.4095 34.6882C23.4646 34.6882 21.6514 31.1812 21.6514 26.8541C21.6514 22.527 22.987 19.0199 27.4095 19.0199C31.2571 19.0199 32.6015 22.527 32.6015 26.8541Z" fill="#FBFBFB" stroke="#2C2C2C" stroke-width="0.916327" stroke-miterlimit="10"/>
<path d="M27.375 22.9675C28.2679 22.9676 28.839 23.3589 29.2139 24.0105C29.608 24.6958 29.791 25.6885 29.791 26.8542C29.791 28.0379 29.6547 29.0269 29.2852 29.7078C29.1055 30.0387 28.8742 30.2894 28.5791 30.4607C28.2829 30.6326 27.8941 30.7409 27.375 30.741C26.4424 30.741 25.7838 30.3363 25.3398 29.6716C24.8818 28.9859 24.6397 27.999 24.6396 26.8542C24.6396 25.6869 24.8236 24.7035 25.248 24.0251C25.6498 23.3832 26.2953 22.9675 27.375 22.9675Z" fill="#2C2C2C" stroke="#2C2C2C" stroke-width="0.916327"/>
<path d="M43.5429 26.8541C43.5429 31.1812 42.5611 34.6882 38.3509 34.6882C34.406 34.6882 32.5928 31.1812 32.5928 26.8541C32.5928 22.527 33.9284 19.0199 38.3509 19.0199C42.1985 19.0199 43.5429 22.527 43.5429 26.8541Z" fill="#FBFBFB" stroke="#2C2C2C" stroke-width="0.916327" stroke-miterlimit="10"/>
<path d="M33.3355 34.9412C33.3355 34.9412 28.8688 35.168 29.4348 37.6195C30.0009 40.0709 36.2367 39.565 37.1212 38.5181C38.0057 37.4712 37.3865 35.1419 33.3355 34.9325V34.9412Z" fill="#2C2C2C" stroke="#2C2C2C" stroke-width="0.916327" stroke-miterlimit="10"/>
<path d="M33.0347 42.457C33.3806 42.457 33.8582 42.725 34.2788 43.248C34.6879 43.7568 34.9565 44.4043 34.9565 44.9824C34.9565 45.5954 34.7685 45.9908 34.5171 46.2334C34.2619 46.4797 33.8896 46.6181 33.4331 46.6182C32.9782 46.6182 32.6061 46.4781 32.3501 46.2305C32.0978 45.9862 31.9097 45.5904 31.9097 44.9824C31.9097 44.3184 32.026 43.6423 32.2495 43.1504C32.477 42.65 32.7512 42.4571 33.0347 42.457Z" fill="#2C2C2C" stroke="#2C2C2C" stroke-width="0.916327"/>
<path d="M38.3159 22.9675C39.2088 22.9676 39.7799 23.3589 40.1548 24.0105C40.5489 24.6958 40.7319 25.6885 40.7319 26.8542C40.7319 28.0379 40.5956 29.0269 40.2261 29.7078C40.0464 30.0387 39.8151 30.2894 39.52 30.4607C39.2238 30.6326 38.835 30.7409 38.3159 30.741C37.3833 30.741 36.7247 30.3363 36.2808 29.6716C35.8227 28.9859 35.5806 27.999 35.5806 26.8542C35.5806 25.6869 35.7645 24.7035 36.189 24.0251C36.5907 23.3832 37.2362 22.9675 38.3159 22.9675Z" fill="#2C2C2C" stroke="#2C2C2C" stroke-width="0.916327"/>
<path d="M12.6123 33.2009C12.6728 33.2011 12.7109 33.2482 12.7109 33.2927C12.7108 33.3372 12.6727 33.3833 12.6123 33.3835C12.5517 33.3835 12.5128 33.3372 12.5127 33.2927C12.5127 33.2481 12.5516 33.2009 12.6123 33.2009Z" fill="#2C2C2C" stroke="#2C2C2C" stroke-width="0.916327"/>
<path d="M16.0791 33.2009C16.1396 33.2011 16.1777 33.2482 16.1777 33.2927C16.1776 33.3372 16.1395 33.3833 16.0791 33.3835C16.0185 33.3835 15.9796 33.3372 15.9795 33.2927C15.9795 33.2481 16.0184 33.2009 16.0791 33.2009Z" fill="#2C2C2C" stroke="#2C2C2C" stroke-width="0.916327"/>
<path d="M14.3452 34.9021C14.4057 34.9023 14.4438 34.9494 14.4438 34.9939C14.4437 35.0383 14.4056 35.0845 14.3452 35.0847C14.2846 35.0847 14.2457 35.0384 14.2456 34.9939C14.2456 34.9493 14.2845 34.9021 14.3452 34.9021Z" fill="#2C2C2C" stroke="#2C2C2C" stroke-width="0.916327"/>
<path d="M45.4717 33.201C45.5321 33.2012 45.5703 33.2484 45.5703 33.2928C45.5702 33.3373 45.5321 33.3835 45.4717 33.3837C45.4111 33.3837 45.3722 33.3374 45.3721 33.2928C45.3721 33.2483 45.411 33.201 45.4717 33.201Z" fill="#2C2C2C" stroke="#2C2C2C" stroke-width="0.916327"/>
<path d="M48.9478 33.201C49.0082 33.2012 49.0464 33.2484 49.0464 33.2928C49.0463 33.3373 49.0081 33.3835 48.9478 33.3837C48.8872 33.3837 48.8483 33.3374 48.8481 33.2928C48.8481 33.2483 48.8871 33.201 48.9478 33.201Z" fill="#2C2C2C" stroke="#2C2C2C" stroke-width="0.916327"/>
<path d="M47.2144 34.9022C47.2748 34.9024 47.313 34.9495 47.313 34.994C47.3129 35.0384 47.2747 35.0846 47.2144 35.0848C47.1538 35.0848 47.1149 35.0385 47.1147 34.994C47.1147 34.9494 47.1537 34.9022 47.2144 34.9022Z" fill="#2C2C2C" stroke="#2C2C2C" stroke-width="0.916327"/>
<path d="M21.3452 17.2742C21.3452 17.2742 23.6028 12.3993 26.4178 15.4324" stroke="#2C2C2C" stroke-width="0.916327" stroke-miterlimit="10" stroke-linecap="round"/>
</svg>
