<svg width="62" height="62" viewBox="0 0 62 62" fill="none" xmlns="http://www.w3.org/2000/svg">
<circle cx="31" cy="31" r="30.5753" fill="#FBD7D5" stroke="#5C5C5C" stroke-width="0.849315"/>
<path d="M32.5947 26.1259V26.4051C32.5947 26.5796 32.5859 26.754 32.5859 26.9285V27.007C32.5682 27.2426 32.5594 27.4781 32.5417 27.705C32.5417 27.7835 32.5328 27.8533 32.524 27.923C32.2498 31.3865 31.0203 33.96 27.4115 33.96C23.4666 33.96 21.6533 30.453 21.6533 26.1259C21.6533 24.1107 21.9452 22.2699 22.7059 20.8828C23.9531 21.8599 25.4479 22.8108 27.1815 23.5436C28.7471 24.1979 30.4984 24.6865 32.4355 24.8435C32.4709 24.8435 32.5151 24.8522 32.5505 24.8522C32.577 25.2622 32.5947 25.6897 32.5947 26.1259Z" fill="#FBFBFB" stroke="#2C2C2C" stroke-width="0.916327" stroke-miterlimit="10"/>
<path d="M43.1545 22.5666C43.0042 22.6539 42.8715 22.7236 42.73 22.7847H42.7211C40.9256 23.6309 39.2273 24.1893 37.6087 24.5208C35.8485 24.8872 34.1856 24.9831 32.6377 24.861C32.8942 21.1359 34.3802 18.2919 38.3516 18.2919C41.0583 18.2919 42.5265 20.0279 43.1545 22.5666Z" stroke="#2C2C2C" stroke-width="0.916327" stroke-miterlimit="10"/>
<path d="M43.544 26.1258C43.544 26.2741 43.544 26.4224 43.5352 26.5707C43.4733 30.6884 42.4207 33.9599 38.3519 33.9599C34.2832 33.9599 32.5938 30.4529 32.5938 26.1258C32.5938 25.6983 32.6114 25.2708 32.638 24.8608C34.1859 24.9829 35.8488 24.887 37.6089 24.5206C39.2276 24.1891 40.9259 23.6307 42.7214 22.7845H42.7303C42.8718 22.7234 43.0045 22.6536 43.1548 22.5664C43.3936 23.4999 43.5086 24.5467 43.5352 25.6547C43.544 25.8117 43.544 25.9688 43.544 26.1258Z" fill="#FBFBFB" stroke="#2C2C2C" stroke-width="0.916327" stroke-miterlimit="10"/>
<path d="M32.5502 24.8523C32.5502 24.8523 32.4706 24.8436 32.4352 24.8436C30.4981 24.6865 28.7468 24.198 27.1812 23.5437C25.4476 22.8109 23.9527 21.86 22.7056 20.8829C23.5724 19.2951 25.0495 18.2919 27.4112 18.2919C30.8696 18.2919 32.3025 21.1272 32.5502 24.8523Z" stroke="#2C2C2C" stroke-width="0.916327" stroke-miterlimit="10" stroke-linecap="round"/>
<path d="M27.3955 24.1228C28.8024 24.6753 30.353 25.0953 32.0479 25.2683C32.0846 25.5045 32.1093 25.7538 32.123 26.0164L32.1357 26.4128V26.5623C32.1357 26.687 32.1354 26.7925 32.1279 26.8953L32.127 26.9119V26.9841C32.1182 27.103 32.1118 27.2216 32.1055 27.3337C32.0988 27.4509 32.0924 27.5619 32.084 27.6697L32.083 27.6873V27.7048C32.083 27.7505 32.0775 27.7937 32.0684 27.866V27.8679C31.9667 28.6989 31.7508 29.3427 31.3926 29.7732C31.0527 30.1816 30.5427 30.4489 29.7197 30.449C28.7871 30.449 28.1285 30.0443 27.6846 29.3796C27.2265 28.6939 26.9844 27.707 26.9844 26.5623C26.9844 25.5965 27.1104 24.7621 27.3955 24.1228Z" fill="#2C2C2C" stroke="#2C2C2C" stroke-width="0.916327"/>
<path d="M42.5503 23.3646C42.8609 23.9445 43.0344 24.7374 43.0776 25.6761V25.6801C43.0856 25.8219 43.0854 25.9664 43.0854 26.1254L43.0776 26.5433L43.0767 26.556C43.042 27.6281 42.8727 28.5027 42.5015 29.099C42.1552 29.6549 41.608 30.012 40.6606 30.0121C39.7282 30.0121 39.0695 29.6082 38.6255 28.9437C38.1674 28.2579 37.9253 27.2702 37.9253 26.1254C37.9253 25.6936 37.953 25.283 38.0093 24.9008C39.4607 24.58 40.9701 24.0809 42.5503 23.3646Z" fill="#2C2C2C" stroke="#2C2C2C" stroke-width="0.916327"/>
<path d="M33.3375 34.2131C33.3375 34.2131 28.8707 34.4399 29.4368 36.8913C30.0029 39.3428 36.2387 38.8368 37.1232 37.7899C38.0077 36.743 37.3886 34.4137 33.3375 34.2043V34.2131Z" fill="#2C2C2C" stroke="#2C2C2C" stroke-width="0.916327" stroke-miterlimit="10"/>
<path d="M37.0883 46.5749C37.0883 46.5749 33.4175 36.141 21.6978 41.3928" stroke="#2C2C2C" stroke-width="0.916327" stroke-miterlimit="10" stroke-linecap="round"/>
<path d="M32.5498 24.8522C32.5498 24.8522 32.6117 24.8694 32.6383 24.8608" stroke="#2C2C2C" stroke-width="0.916327" stroke-miterlimit="10" stroke-linecap="round"/>
<path d="M48.6923 19.1031C46.7641 20.5688 44.9155 21.7116 43.1553 22.5666" stroke="#2C2C2C" stroke-width="0.916327" stroke-miterlimit="10" stroke-linecap="round"/>
<path d="M22.705 20.8827C19.7419 18.5796 18.1675 16.1368 18.1675 16.1368" stroke="#2C2C2C" stroke-width="0.916327" stroke-miterlimit="10" stroke-linecap="round"/>
<path d="M12.6128 32.4725C12.6733 32.4727 12.7114 32.5199 12.7114 32.5643C12.7113 32.6087 12.6732 32.655 12.6128 32.6552C12.5522 32.6552 12.5133 32.6088 12.5132 32.5643C12.5132 32.5198 12.5521 32.4725 12.6128 32.4725Z" fill="#2C2C2C" stroke="#2C2C2C" stroke-width="0.916327"/>
<path d="M16.0811 32.4725C16.1415 32.4727 16.1797 32.5199 16.1797 32.5643C16.1796 32.6087 16.1414 32.655 16.0811 32.6552C16.0204 32.6552 15.9816 32.6088 15.9814 32.5643C15.9814 32.5198 16.0204 32.4725 16.0811 32.4725Z" fill="#2C2C2C" stroke="#2C2C2C" stroke-width="0.916327"/>
<path d="M14.3472 34.1737C14.4076 34.1739 14.4458 34.221 14.4458 34.2655C14.4457 34.3099 14.4076 34.3561 14.3472 34.3563C14.2866 34.3563 14.2477 34.31 14.2476 34.2655C14.2476 34.2209 14.2865 34.1737 14.3472 34.1737Z" fill="#2C2C2C" stroke="#2C2C2C" stroke-width="0.916327"/>
<path d="M45.4727 32.4725C45.5331 32.4727 45.5713 32.5199 45.5713 32.5643C45.5712 32.6087 45.533 32.655 45.4727 32.6552C45.412 32.6552 45.3732 32.6088 45.373 32.5643C45.373 32.5198 45.412 32.4725 45.4727 32.4725Z" fill="#2C2C2C" stroke="#2C2C2C" stroke-width="0.916327"/>
<path d="M48.9492 32.4725C49.0097 32.4727 49.0479 32.5199 49.0479 32.5643C49.0477 32.6087 49.0096 32.655 48.9492 32.6552C48.8886 32.6552 48.8497 32.6088 48.8496 32.5643C48.8496 32.5198 48.8885 32.4725 48.9492 32.4725Z" fill="#2C2C2C" stroke="#2C2C2C" stroke-width="0.916327"/>
<path d="M47.2153 34.1737C47.2758 34.1739 47.314 34.221 47.314 34.2655C47.3139 34.3099 47.2757 34.3561 47.2153 34.3563C47.1547 34.3563 47.1158 34.31 47.1157 34.2655C47.1157 34.2209 47.1546 34.1737 47.2153 34.1737Z" fill="#2C2C2C" stroke="#2C2C2C" stroke-width="0.916327"/>
</svg>
