<svg width="62" height="62" viewBox="0 0 62 62" fill="none" xmlns="http://www.w3.org/2000/svg">
<circle cx="31" cy="31" r="30.5753" fill="#FBD7D5" stroke="#5C5C5C" stroke-width="0.849315"/>
<path d="M21.3457 41.8545C22.9901 41.8545 22.9901 43.6871 24.6253 43.6871C26.2604 43.6871 26.2604 41.8545 27.9048 41.8545C29.5493 41.8545 29.5493 43.6871 31.1844 43.6871C32.8195 43.6871 32.8288 41.8545 34.4639 41.8545C36.0991 41.8545 36.1084 43.6871 37.7435 43.6871C39.3786 43.6871 39.3879 41.8545 41.0324 41.8545C42.6768 41.8545 42.6768 43.6871 44.3212 43.6871" stroke="#2C2C2C" stroke-width="0.916327" stroke-miterlimit="10" stroke-linecap="round"/>
<path d="M32.3071 25.7768C32.3071 30.163 31.3119 33.7181 27.044 33.7181C23.0451 33.7181 21.207 30.163 21.207 25.7768C21.207 21.3905 22.5699 17.8354 27.044 17.8354C30.9443 17.8354 32.3071 21.3905 32.3071 25.7768Z" fill="#FBFBFB" stroke="#2C2C2C" stroke-width="0.916327" stroke-miterlimit="10"/>
<path d="M43.3994 25.7768C43.3994 30.1631 42.4042 33.7181 38.1363 33.7181C34.1374 33.7181 32.2993 30.1631 32.2993 25.7768C32.2993 23 32.8463 20.5504 34.3884 19.1266C35.6258 19.6837 38.737 20.8776 42.5745 20.8599C43.1573 22.2129 43.3994 23.9197 43.3994 25.7768Z" fill="#FBFBFB" stroke="#2C2C2C" stroke-width="0.916327" stroke-miterlimit="10"/>
<path d="M27.0078 22.0519C27.9155 22.0519 28.4969 22.4499 28.8779 23.1124C29.2783 23.8085 29.4639 24.816 29.4639 25.9982C29.4638 27.1982 29.3256 28.2021 28.9502 28.8937C28.7676 29.2299 28.5326 29.4851 28.2324 29.6593C27.9309 29.8342 27.535 29.9435 27.0078 29.9435C26.0606 29.9434 25.3915 29.5328 24.9404 28.8575C24.4752 28.1611 24.2295 27.1593 24.2295 25.9982C24.2295 24.8146 24.4155 23.8162 24.8467 23.1271C25.2551 22.4744 25.9115 22.052 27.0078 22.0519Z" fill="#2C2C2C" stroke="#2C2C2C" stroke-width="0.916327"/>
<path d="M38.0991 22.0519C39.0068 22.0519 39.5882 22.4499 39.9692 23.1124C40.3696 23.8085 40.5552 24.816 40.5552 25.9982C40.5552 27.1982 40.4169 28.2021 40.0415 28.8937C39.8589 29.2299 39.624 29.4851 39.3237 29.6593C39.0222 29.8342 38.6263 29.9435 38.0991 29.9435C37.1519 29.9434 36.4828 29.5328 36.0317 28.8575C35.5665 28.1611 35.3208 27.1593 35.3208 25.9982C35.3208 24.8146 35.5068 23.8162 35.938 23.1271C36.3464 22.4744 37.0028 22.052 38.0991 22.0519Z" fill="#2C2C2C" stroke="#2C2C2C" stroke-width="0.916327"/>
<path d="M42.5738 20.8599C38.7363 20.8776 35.625 19.6837 34.3877 19.1266C35.2753 18.313 36.4947 17.8354 38.1355 17.8354C40.386 17.8354 41.7848 19.0116 42.5738 20.8599Z" stroke="#2C2C2C" stroke-width="0.916327" stroke-miterlimit="10"/>
<path d="M33.0517 33.9833C33.0517 33.9833 28.5238 34.2133 29.0976 36.6982C29.6715 39.1832 35.9926 38.6703 36.8892 37.6091C37.7858 36.5479 37.1582 34.1867 33.0517 33.9745V33.9833Z" fill="#2C2C2C" stroke="#2C2C2C" stroke-width="0.916327" stroke-miterlimit="10"/>
<path d="M44.5727 20.7361C43.8913 20.8245 43.2188 20.8599 42.5732 20.8599" stroke="#2C2C2C" stroke-width="0.916327" stroke-miterlimit="10" stroke-linecap="round"/>
<path d="M12.6128 32.2109C12.6733 32.2111 12.7114 32.2583 12.7114 32.3027C12.7113 32.3472 12.6732 32.3934 12.6128 32.3936C12.5522 32.3936 12.5133 32.3472 12.5132 32.3027C12.5132 32.2582 12.5521 32.2109 12.6128 32.2109Z" fill="#2C2C2C" stroke="#2C2C2C" stroke-width="0.916327"/>
<path d="M16.0811 32.2109C16.1415 32.2111 16.1797 32.2583 16.1797 32.3027C16.1796 32.3472 16.1414 32.3934 16.0811 32.3936C16.0204 32.3936 15.9816 32.3472 15.9814 32.3027C15.9814 32.2582 16.0204 32.2109 16.0811 32.2109Z" fill="#2C2C2C" stroke="#2C2C2C" stroke-width="0.916327"/>
<path d="M14.3472 33.9121C14.4076 33.9123 14.4458 33.9594 14.4458 34.0039C14.4457 34.0483 14.4076 34.0945 14.3472 34.0947C14.2866 34.0947 14.2477 34.0484 14.2476 34.0039C14.2476 33.9593 14.2865 33.9121 14.3472 33.9121Z" fill="#2C2C2C" stroke="#2C2C2C" stroke-width="0.916327"/>
<path d="M45.4727 32.2109C45.5331 32.2111 45.5713 32.2583 45.5713 32.3027C45.5712 32.3471 45.533 32.3934 45.4727 32.3936C45.4121 32.3936 45.3732 32.3472 45.373 32.3027C45.373 32.2582 45.412 32.2109 45.4727 32.2109Z" fill="#2C2C2C" stroke="#2C2C2C" stroke-width="0.916327"/>
<path d="M48.9492 32.2109C49.0097 32.2111 49.0479 32.2583 49.0479 32.3027C49.0477 32.3471 49.0096 32.3934 48.9492 32.3936C48.8886 32.3936 48.8497 32.3472 48.8496 32.3027C48.8496 32.2582 48.8885 32.2109 48.9492 32.2109Z" fill="#2C2C2C" stroke="#2C2C2C" stroke-width="0.916327"/>
<path d="M47.2153 33.9121C47.2758 33.9123 47.314 33.9594 47.314 34.0039C47.3139 34.0483 47.2757 34.0945 47.2153 34.0947C47.1547 34.0947 47.1158 34.0484 47.1157 34.0039C47.1157 33.9593 47.1546 33.9121 47.2153 33.9121Z" fill="#2C2C2C" stroke="#2C2C2C" stroke-width="0.916327"/>
</svg>
