<svg width="62" height="62" viewBox="0 0 62 62" fill="none" xmlns="http://www.w3.org/2000/svg">
<circle cx="31" cy="31" r="30.5753" fill="#FBD7D5" stroke="#5C5C5C" stroke-width="0.849315"/>
<path d="M32.6026 28.6122C32.6026 33.1571 31.6208 36.8408 27.4105 36.8408C23.4656 36.8408 21.6523 33.1571 21.6523 28.6122C21.6523 24.0672 22.9968 20.3835 27.4105 20.3835C31.2581 20.3835 32.6026 24.0672 32.6026 28.6122Z" fill="#FBFBFB" stroke="#2C2C2C" stroke-width="0.916327" stroke-miterlimit="10"/>
<path d="M43.5435 28.6122C43.5435 33.1571 42.5617 36.8408 38.3514 36.8408C34.4065 36.8408 32.5933 33.1571 32.5933 28.6122C32.5933 24.0672 33.9377 20.3835 38.3514 20.3835C42.199 20.3835 43.5435 24.0672 43.5435 28.6122Z" fill="#FBFBFB" stroke="#2C2C2C" stroke-width="0.916327" stroke-miterlimit="10"/>
<path d="M29.728 24.7358C30.6098 24.7359 31.1829 25.1404 31.563 25.8345C31.9613 26.5619 32.144 27.6129 32.144 28.8413C32.144 30.0867 32.007 31.1336 31.6333 31.8569C31.4511 32.2094 31.2181 32.4752 30.9233 32.6548C30.6286 32.8343 30.2431 32.9467 29.728 32.9468C28.8057 32.9468 28.1473 32.5271 27.6987 31.8218C27.2364 31.0948 26.9927 30.0499 26.9927 28.8413C26.9927 27.6113 27.1769 26.5694 27.606 25.8491C28.0124 25.1668 28.6587 24.7358 29.728 24.7358Z" fill="#2C2C2C" stroke="#2C2C2C" stroke-width="0.916327"/>
<path d="M40.6694 24.7358C41.5512 24.7359 42.1243 25.1404 42.5044 25.8345C42.9027 26.5619 43.0854 27.6129 43.0854 28.8413C43.0854 30.0867 42.9484 31.1336 42.5747 31.8569C42.3925 32.2094 42.1595 32.4752 41.8647 32.6548C41.57 32.8343 41.1845 32.9467 40.6694 32.9468C39.7471 32.9468 39.0887 32.5271 38.6401 31.8218C38.1778 31.0948 37.9341 30.0499 37.9341 28.8413C37.9341 27.6113 38.1183 26.5694 38.5474 25.8491C38.9538 25.1668 39.6001 24.7358 40.6694 24.7358Z" fill="#2C2C2C" stroke="#2C2C2C" stroke-width="0.916327"/>
<path d="M33.337 37.1156C33.337 37.1156 28.8702 37.3539 29.4363 39.9287C30.0024 42.5036 36.2382 41.9721 37.1227 40.8726C38.0072 39.773 37.3881 37.3264 33.337 37.1064V37.1156Z" fill="#2C2C2C" stroke="#2C2C2C" stroke-width="0.916327" stroke-miterlimit="10"/>
<path d="M12.6128 35.2552C12.6524 35.2555 12.7114 35.2936 12.7114 35.3744C12.7114 35.4553 12.6524 35.4933 12.6128 35.4935C12.5732 35.4935 12.5132 35.4556 12.5132 35.3744C12.5133 35.2933 12.5732 35.2552 12.6128 35.2552Z" fill="#2C2C2C" stroke="#2C2C2C" stroke-width="0.916327"/>
<path d="M16.0811 35.2552C16.1206 35.2555 16.1796 35.2936 16.1797 35.3744C16.1797 35.4553 16.1206 35.4933 16.0811 35.4935C16.0415 35.4935 15.9814 35.4556 15.9814 35.3744C15.9815 35.2933 16.0415 35.2552 16.0811 35.2552Z" fill="#2C2C2C" stroke="#2C2C2C" stroke-width="0.916327"/>
<path d="M14.3472 37.0421C14.3867 37.0424 14.4457 37.0804 14.4458 37.1613C14.4458 37.2422 14.3868 37.2802 14.3472 37.2804C14.3076 37.2804 14.2476 37.2424 14.2476 37.1613C14.2476 37.0802 14.3076 37.0421 14.3472 37.0421Z" fill="#2C2C2C" stroke="#2C2C2C" stroke-width="0.916327"/>
<path d="M45.4727 35.2552C45.5122 35.2555 45.5712 35.2936 45.5713 35.3744C45.5713 35.4553 45.5123 35.4933 45.4727 35.4935C45.4331 35.4935 45.373 35.4556 45.373 35.3744C45.3731 35.2933 45.4331 35.2552 45.4727 35.2552Z" fill="#2C2C2C" stroke="#2C2C2C" stroke-width="0.916327"/>
<path d="M48.9492 35.2552C48.9888 35.2555 49.0478 35.2936 49.0479 35.3744C49.0479 35.4553 48.9888 35.4933 48.9492 35.4935C48.9096 35.4935 48.8496 35.4556 48.8496 35.3744C48.8497 35.2933 48.9097 35.2552 48.9492 35.2552Z" fill="#2C2C2C" stroke="#2C2C2C" stroke-width="0.916327"/>
<path d="M47.2148 37.0421C47.2544 37.0424 47.3134 37.0804 47.3135 37.1613C47.3135 37.2422 47.2544 37.2802 47.2148 37.2804C47.1753 37.2804 47.1152 37.2424 47.1152 37.1613C47.1153 37.0802 47.1753 37.0421 47.2148 37.0421Z" fill="#2C2C2C" stroke="#2C2C2C" stroke-width="0.916327"/>
</svg>
