<svg width="62" height="62" viewBox="0 0 62 62" fill="none" xmlns="http://www.w3.org/2000/svg">
<circle cx="31" cy="31" r="30.5753" fill="#FBD7D5" stroke="#5C5C5C" stroke-width="0.849315"/>
<path d="M33.9012 28.2256C33.9012 32.5572 32.907 36.0679 28.6439 36.0679C24.6495 36.0679 22.8135 32.5572 22.8135 28.2256C22.8135 23.894 24.1659 20.3833 28.6439 20.3833C32.5398 20.3833 33.9012 23.894 33.9012 28.2256Z" fill="#FBFBFB" stroke="#2C2C2C" stroke-width="0.849315" stroke-miterlimit="10"/>
<path d="M33.9017 28.6624C33.9017 31.064 33.3554 33.0115 30.991 33.0115C28.7788 33.0115 27.7578 31.064 27.7578 28.6624C27.7578 26.2608 28.5101 24.3134 30.991 24.3134C33.1494 24.3134 33.9017 26.2608 33.9017 28.6624Z" fill="#2C2C2C" stroke="#2C2C2C" stroke-width="0.849315"/>
<path d="M44.9793 28.2256C44.9793 32.5572 43.9852 36.0679 39.722 36.0679C35.7276 36.0679 33.8916 32.5572 33.8916 28.2256C33.8916 23.894 35.244 20.3833 39.722 20.3833C43.618 20.3833 44.9793 23.894 44.9793 28.2256Z" fill="#FBFBFB" stroke="#2C2C2C" stroke-width="0.849315" stroke-miterlimit="10"/>
<path d="M34.6434 36.33C34.6434 36.33 30.1206 36.5571 30.6938 39.0111C31.267 41.4651 37.581 40.9585 38.4767 39.9106C39.3723 38.8626 38.7453 36.5309 34.6434 36.3213V36.33Z" fill="#2C2C2C" stroke="#2C2C2C" stroke-width="0.849315"/>
<path d="M21.3618 37.6312C21.3618 37.6312 25.0786 48.076 36.9455 42.8187" stroke="#2C2C2C" stroke-width="0.849315" stroke-miterlimit="10" stroke-linecap="round"/>
<path d="M44.9794 28.2258C44.9794 30.6274 44.433 32.5748 42.0686 32.5748C39.8564 32.5748 38.8354 30.6274 38.8354 28.2258C38.8354 25.8242 39.5878 23.8767 42.0686 23.8767C44.227 23.8767 44.9794 25.8242 44.9794 28.2258Z" fill="#2C2C2C" stroke="#2C2C2C" stroke-width="0.849315"/>
<path d="M13.6604 35.2212C13.972 35.2212 14.2247 34.9748 14.2247 34.6709C14.2247 34.367 13.972 34.1206 13.6604 34.1206C13.3488 34.1206 13.0962 34.367 13.0962 34.6709C13.0962 34.9748 13.3488 35.2212 13.6604 35.2212Z" fill="#2C2C2C"/>
<path d="M17.1804 35.2212C17.4921 35.2212 17.7447 34.9748 17.7447 34.6709C17.7447 34.367 17.4921 34.1206 17.1804 34.1206C16.8688 34.1206 16.6162 34.367 16.6162 34.6709C16.6162 34.9748 16.8688 35.2212 17.1804 35.2212Z" fill="#2C2C2C"/>
<path d="M15.4241 36.9241C15.7357 36.9241 15.9883 36.6777 15.9883 36.3738C15.9883 36.0699 15.7357 35.8235 15.4241 35.8235C15.1125 35.8235 14.8599 36.0699 14.8599 36.3738C14.8599 36.6777 15.1125 36.9241 15.4241 36.9241Z" fill="#2C2C2C"/>
<path d="M46.9412 35.2212C47.2528 35.2212 47.5054 34.9748 47.5054 34.6709C47.5054 34.367 47.2528 34.1206 46.9412 34.1206C46.6296 34.1206 46.377 34.367 46.377 34.6709C46.377 34.9748 46.6296 35.2212 46.9412 35.2212Z" fill="#2C2C2C"/>
<path d="M50.4524 35.2212C50.764 35.2212 51.0167 34.9748 51.0167 34.6709C51.0167 34.367 50.764 34.1206 50.4524 34.1206C50.1408 34.1206 49.8882 34.367 49.8882 34.6709C49.8882 34.9748 50.1408 35.2212 50.4524 35.2212Z" fill="#2C2C2C"/>
<path d="M48.6971 36.9241C49.0087 36.9241 49.2613 36.6777 49.2613 36.3738C49.2613 36.0699 49.0087 35.8235 48.6971 35.8235C48.3854 35.8235 48.1328 36.0699 48.1328 36.3738C48.1328 36.6777 48.3854 36.9241 48.6971 36.9241Z" fill="#2C2C2C"/>
</svg>
