<svg width="73" height="74" viewBox="0 0 73 74" fill="none" xmlns="http://www.w3.org/2000/svg">
<g clip-path="url(#clip0_40000282_7182)">
<path d="M36.5 0.5C56.3759 0.5 72.5 16.8352 72.5 37C72.5 57.1648 56.3759 73.5 36.5 73.5C16.6241 73.5 0.5 57.1648 0.5 37C0.5 16.8352 16.6241 0.5 36.5 0.5Z" fill="#EEEDEB" stroke="#9C9C9C"/>
<g filter="url(#filter0_g_40000282_7182)">
<path d="M38.3866 32.0519C38.3866 37.2165 37.2306 41.4023 32.2734 41.4023C27.6286 41.4023 25.4937 37.2165 25.4937 32.0519C25.4937 26.8873 27.0662 22.7014 32.2734 22.7014C36.8036 22.7014 38.3866 26.8873 38.3866 32.0519Z" fill="#FBFBFB" stroke="#2C2C2C" stroke-width="1.0789" stroke-miterlimit="10"/>
<path d="M32.2317 27.4055C33.2796 27.4056 33.9527 27.8707 34.3958 28.6516C34.8612 29.472 35.0764 30.6593 35.0764 32.052C35.0764 33.4655 34.9163 34.6488 34.4797 35.4641C34.2674 35.8607 33.994 36.1602 33.6467 36.3645C33.2984 36.5694 32.8417 36.6975 32.2317 36.6975C31.1369 36.6975 30.3613 36.2167 29.8372 35.4211C29.2966 34.6005 29.011 33.4201 29.011 32.052C29.011 30.6577 29.2276 29.4813 29.7288 28.6692C30.2033 27.9004 30.9637 27.4055 32.2317 27.4055Z" fill="#2C2C2C" stroke="#2C2C2C" stroke-width="1.0789"/>
<path d="M51.2686 32.0519C51.2686 37.2165 50.1126 41.4023 45.1554 41.4023C40.5107 41.4023 38.3757 37.2165 38.3757 32.0519C38.3757 26.8873 39.9483 22.7014 45.1554 22.7014C49.6857 22.7014 51.2686 26.8873 51.2686 32.0519Z" fill="#FBFBFB" stroke="#2C2C2C" stroke-width="1.0789" stroke-miterlimit="10"/>
<path d="M39.251 41.7043C39.251 41.7043 33.9917 41.975 34.6582 44.9009C35.3248 47.8268 42.6668 47.2229 43.7083 45.9734C44.7497 44.7239 44.0207 41.9437 39.251 41.6938V41.7043Z" fill="#FBD7D5" stroke="#2C2C2C" stroke-width="1.0789" stroke-miterlimit="10"/>
<path d="M38.897 50.6671C39.3011 50.6672 39.8624 50.9856 40.3589 51.6115C40.8412 52.2194 41.1587 52.9953 41.1587 53.6896C41.1586 54.4247 40.9363 54.8989 40.6392 55.1896C40.3383 55.4839 39.9012 55.6485 39.3657 55.6486C38.832 55.6486 38.394 55.4827 38.0923 55.1866C37.794 54.894 37.5719 54.4187 37.5718 53.6896C37.5718 52.8956 37.7091 52.0863 37.9731 51.4972C38.2429 50.8956 38.5671 50.6671 38.897 50.6671Z" fill="#2C2C2C" stroke="#2C2C2C" stroke-width="1.0789"/>
<path d="M45.1143 27.4055C46.1621 27.4056 46.8353 27.8707 47.2783 28.6516C47.7438 29.472 47.959 30.6593 47.959 32.052C47.959 33.4655 47.7989 34.6488 47.3623 35.4641C47.1499 35.8607 46.8766 36.1602 46.5293 36.3645C46.181 36.5694 45.7243 36.6975 45.1143 36.6975C44.0195 36.6975 43.2439 36.2167 42.7197 35.4211C42.1792 34.6005 41.8936 33.4201 41.8936 32.052C41.8936 30.6577 42.1102 29.4813 42.6113 28.6692C43.0859 27.9004 43.8462 27.4055 45.1143 27.4055Z" fill="#2C2C2C" stroke="#2C2C2C" stroke-width="1.0789"/>
<path d="M14.8503 39.6194C14.9148 39.6195 14.9666 39.6723 14.9666 39.7366C14.9664 39.8007 14.9147 39.8527 14.8503 39.8528C14.7859 39.8528 14.7333 39.8007 14.7332 39.7366C14.7332 39.6723 14.7858 39.6194 14.8503 39.6194Z" fill="#2C2C2C" stroke="#2C2C2C" stroke-width="1.0789"/>
<path d="M18.9324 39.6194C18.9968 39.6195 19.0486 39.6723 19.0486 39.7366C19.0484 39.8007 18.9967 39.8527 18.9324 39.8528C18.868 39.8528 18.8153 39.8007 18.8152 39.7366C18.8152 39.6723 18.8679 39.6194 18.9324 39.6194Z" fill="#2C2C2C" stroke="#2C2C2C" stroke-width="1.0789"/>
<path d="M16.8911 41.6499C16.9556 41.65 17.0073 41.7029 17.0073 41.7671C17.0072 41.8312 16.9555 41.8832 16.8911 41.8833C16.8267 41.8833 16.7741 41.8312 16.7739 41.7671C16.7739 41.7028 16.8266 41.6499 16.8911 41.6499Z" fill="#2C2C2C" stroke="#2C2C2C" stroke-width="1.0789"/>
<path d="M53.5386 39.6195C53.603 39.6196 53.6548 39.6725 53.6548 39.7367C53.6546 39.8008 53.6029 39.8528 53.5386 39.8529C53.4742 39.8529 53.4215 39.8009 53.4214 39.7367C53.4214 39.6724 53.4741 39.6195 53.5386 39.6195Z" fill="#2C2C2C" stroke="#2C2C2C" stroke-width="1.0789"/>
<path d="M57.6313 39.6195C57.6958 39.6196 57.7476 39.6725 57.7476 39.7367C57.7474 39.8008 57.6957 39.8528 57.6313 39.8529C57.5669 39.8529 57.5143 39.8009 57.5142 39.7367C57.5142 39.6724 57.5668 39.6195 57.6313 39.6195Z" fill="#2C2C2C" stroke="#2C2C2C" stroke-width="1.0789"/>
<path d="M55.5906 41.65C55.655 41.6501 55.7068 41.703 55.7068 41.7672C55.7066 41.8313 55.6549 41.8833 55.5906 41.8834C55.5262 41.8834 55.4735 41.8314 55.4734 41.7672C55.4734 41.7029 55.5261 41.65 55.5906 41.65Z" fill="#2C2C2C" stroke="#2C2C2C" stroke-width="1.0789"/>
<path d="M25.1326 20.6178C25.1326 20.6178 27.7907 14.7993 31.1051 18.4195" stroke="#2C2C2C" stroke-width="1.0789" stroke-miterlimit="10" stroke-linecap="round"/>
</g>
</g>
<defs>
<filter id="filter0_g_40000282_7182" x="13.7941" y="16.2935" width="44.8933" height="40.2946" filterUnits="userSpaceOnUse" color-interpolation-filters="sRGB">
<feFlood flood-opacity="0" result="BackgroundImageFix"/>
<feBlend mode="normal" in="SourceGraphic" in2="BackgroundImageFix" result="shape"/>
<feTurbulence type="fractalNoise" baseFrequency="0.66666668653488159 0.66666668653488159" numOctaves="3" seed="7043" />
<feDisplacementMap in="shape" scale="0.80000001192092896" xChannelSelector="R" yChannelSelector="G" result="displacedImage" width="100%" height="100%" />
<feMerge result="effect1_texture_40000282_7182">
<feMergeNode in="displacedImage"/>
</feMerge>
</filter>
<clipPath id="clip0_40000282_7182">
<rect width="73" height="74" fill="white"/>
</clipPath>
</defs>
</svg>
