<svg width="62" height="62" viewBox="0 0 62 62" fill="none" xmlns="http://www.w3.org/2000/svg">
<circle cx="31" cy="31" r="30.5753" fill="#EEEDEB" stroke="#9C9C9C" stroke-width="0.849315"/>
<path d="M33.9007 28.2256C33.9007 32.5572 32.9066 36.0679 28.6434 36.0679C24.649 36.0679 22.813 32.5572 22.813 28.2256C22.813 23.894 24.1654 20.3833 28.6434 20.3833C32.5394 20.3833 33.9007 23.894 33.9007 28.2256Z" fill="#FBFBFB" stroke="#2C2C2C" stroke-width="0.849315" stroke-miterlimit="10"/>
<path d="M33.9007 28.6624C33.9007 31.064 33.3544 33.0115 30.99 33.0115C28.7778 33.0115 27.7568 31.064 27.7568 28.6624C27.7568 26.2608 28.5091 24.3134 30.99 24.3134C33.1484 24.3134 33.9007 26.2608 33.9007 28.6624Z" fill="#2C2C2C" stroke="#2C2C2C" stroke-width="0.849315"/>
<path d="M44.9793 28.2256C44.9793 32.5572 43.9852 36.0679 39.722 36.0679C35.7276 36.0679 33.8916 32.5572 33.8916 28.2256C33.8916 23.894 35.244 20.3833 39.722 20.3833C43.618 20.3833 44.9793 23.894 44.9793 28.2256Z" fill="#FBFBFB" stroke="#2C2C2C" stroke-width="0.849315" stroke-miterlimit="10"/>
<path d="M34.6432 36.33C34.6432 36.33 30.1203 36.5571 30.6935 39.0111C31.2667 41.4651 37.5808 40.9585 38.4764 39.9106C39.372 38.8626 38.7451 36.5309 34.6432 36.3213V36.33Z" fill="#FBD7D5" stroke="#2C2C2C" stroke-width="0.849315"/>
<path d="M21.3618 37.6312C21.3618 37.6312 25.0786 48.076 36.9455 42.8187" stroke="#2C2C2C" stroke-width="0.849315" stroke-miterlimit="10" stroke-linecap="round"/>
<path d="M44.9786 28.2258C44.9786 30.6274 44.4323 32.5748 42.0679 32.5748C39.8557 32.5748 38.8347 30.6274 38.8347 28.2258C38.8347 25.8242 39.587 23.8767 42.0679 23.8767C44.2263 23.8767 44.9786 25.8242 44.9786 28.2258Z" fill="#2C2C2C" stroke="#2C2C2C" stroke-width="0.849315"/>
<path d="M13.6604 35.2212C13.972 35.2212 14.2247 34.9748 14.2247 34.6709C14.2247 34.367 13.972 34.1206 13.6604 34.1206C13.3488 34.1206 13.0962 34.367 13.0962 34.6709C13.0962 34.9748 13.3488 35.2212 13.6604 35.2212Z" fill="#2C2C2C"/>
<path d="M17.1797 35.2212C17.4913 35.2212 17.744 34.9748 17.744 34.6709C17.744 34.367 17.4913 34.1206 17.1797 34.1206C16.8681 34.1206 16.6155 34.367 16.6155 34.6709C16.6155 34.9748 16.8681 35.2212 17.1797 35.2212Z" fill="#2C2C2C"/>
<path d="M15.4239 36.9241C15.7355 36.9241 15.9881 36.6777 15.9881 36.3738C15.9881 36.0699 15.7355 35.8235 15.4239 35.8235C15.1122 35.8235 14.8596 36.0699 14.8596 36.3738C14.8596 36.6777 15.1122 36.9241 15.4239 36.9241Z" fill="#2C2C2C"/>
<path d="M46.9414 35.2212C47.2531 35.2212 47.5057 34.9748 47.5057 34.6709C47.5057 34.367 47.2531 34.1206 46.9414 34.1206C46.6298 34.1206 46.3772 34.367 46.3772 34.6709C46.3772 34.9748 46.6298 35.2212 46.9414 35.2212Z" fill="#2C2C2C"/>
<path d="M50.4519 35.2212C50.7636 35.2212 51.0162 34.9748 51.0162 34.6709C51.0162 34.367 50.7636 34.1206 50.4519 34.1206C50.1403 34.1206 49.8877 34.367 49.8877 34.6709C49.8877 34.9748 50.1403 35.2212 50.4519 35.2212Z" fill="#2C2C2C"/>
<path d="M48.6973 36.9241C49.0089 36.9241 49.2615 36.6777 49.2615 36.3738C49.2615 36.0699 49.0089 35.8235 48.6973 35.8235C48.3857 35.8235 48.1331 36.0699 48.1331 36.3738C48.1331 36.6777 48.3857 36.9241 48.6973 36.9241Z" fill="#2C2C2C"/>
</svg>
