<svg width="62" height="62" viewBox="0 0 62 62" fill="none" xmlns="http://www.w3.org/2000/svg">
<circle cx="31" cy="31" r="30.5753" fill="#EEEDEB" stroke="#9C9C9C" stroke-width="0.849315"/>
<g filter="url(#filter0_g_40000282_7189)">
<path d="M32.6033 25.5502C32.6033 29.8772 31.6215 33.3843 27.4112 33.3843C23.4663 33.3843 21.6531 29.8772 21.6531 25.5502C21.6531 21.2231 22.9887 17.7161 27.4112 17.7161C31.2589 17.7161 32.6033 21.2231 32.6033 25.5502Z" fill="#FBFBFB" stroke="#2C2C2C" stroke-width="0.916327" stroke-miterlimit="10"/>
<path d="M43.544 25.5502C43.544 29.8772 42.5622 33.3843 38.3519 33.3843C34.407 33.3843 32.5938 29.8772 32.5938 25.5502C32.5938 21.2231 33.9294 17.7161 38.3519 17.7161C42.1995 17.7161 43.544 21.2231 43.544 25.5502Z" fill="#FBFBFB" stroke="#2C2C2C" stroke-width="0.916327" stroke-miterlimit="10"/>
<path d="M29.7283 22.0997C30.6212 22.0998 31.1923 22.4911 31.5671 23.1427C31.9613 23.828 32.1443 24.8207 32.1443 25.9865C32.1443 27.1701 32.008 28.1591 31.6384 28.84C31.4587 29.1709 31.2275 29.4216 30.9324 29.5929C30.6361 29.7648 30.2474 29.8722 29.7283 29.8722C28.7957 29.8722 28.1371 29.4685 27.6931 28.8038C27.2351 28.1181 26.9929 27.1312 26.9929 25.9865C26.9929 24.8192 27.1768 23.8357 27.6013 23.1573C28.0031 22.5154 28.6485 22.0997 29.7283 22.0997Z" fill="#2C2C2C" stroke="#2C2C2C" stroke-width="0.916327"/>
<path d="M40.6697 21.6637C41.5626 21.6638 42.1337 22.0551 42.5085 22.7067C42.9027 23.392 43.0857 24.3847 43.0857 25.5504C43.0857 26.734 42.9494 27.7231 42.5798 28.4039C42.4002 28.7349 42.1689 28.9856 41.8738 29.1569C41.5775 29.3287 41.1888 29.4361 40.6697 29.4362C39.7371 29.4362 39.0785 29.0324 38.6345 28.3678C38.1765 27.682 37.9344 26.6951 37.9343 25.5504C37.9343 24.3831 38.1182 23.3997 38.5427 22.7213C38.9445 22.0794 39.5899 21.6637 40.6697 21.6637Z" fill="#2C2C2C" stroke="#2C2C2C" stroke-width="0.916327"/>
<path d="M33.337 33.6373C33.337 33.6373 28.8702 33.8641 29.4363 36.3155C30.0024 38.7669 36.2382 38.261 37.1227 37.2141C38.0072 36.1672 37.3881 33.8379 33.337 33.6285V33.6373Z" fill="#FBD7D5" stroke="#2C2C2C" stroke-width="0.916327" stroke-miterlimit="10"/>
<path d="M18.1941 21.7376C18.1941 21.7376 27.7291 27.5129 33.4342 16.1368" stroke="#2C2C2C" stroke-width="0.916327" stroke-miterlimit="10" stroke-linecap="round"/>
<path d="M12.6133 31.8969C12.6738 31.897 12.7119 31.9442 12.7119 31.9886C12.7118 32.0331 12.6737 32.0793 12.6133 32.0795C12.5527 32.0795 12.5138 32.0332 12.5137 31.9886C12.5137 31.9441 12.5526 31.8969 12.6133 31.8969Z" fill="#2C2C2C" stroke="#2C2C2C" stroke-width="0.916327"/>
<path d="M16.0811 31.8969C16.1415 31.897 16.1797 31.9442 16.1797 31.9886C16.1796 32.0331 16.1414 32.0793 16.0811 32.0795C16.0204 32.0795 15.9816 32.0332 15.9814 31.9886C15.9814 31.9441 16.0204 31.8969 16.0811 31.8969Z" fill="#2C2C2C" stroke="#2C2C2C" stroke-width="0.916327"/>
<path d="M14.3474 33.5981C14.4079 33.5983 14.446 33.6455 14.446 33.6899C14.4459 33.7344 14.4078 33.7806 14.3474 33.7808C14.2868 33.7808 14.2479 33.7344 14.2478 33.6899C14.2478 33.6454 14.2867 33.5981 14.3474 33.5981Z" fill="#2C2C2C" stroke="#2C2C2C" stroke-width="0.916327"/>
<path d="M45.4731 31.8969C45.5336 31.897 45.5718 31.9442 45.5718 31.9886C45.5717 32.0331 45.5335 32.0793 45.4731 32.0795C45.4125 32.0795 45.3736 32.0332 45.3735 31.9886C45.3735 31.9441 45.4124 31.8969 45.4731 31.8969Z" fill="#2C2C2C" stroke="#2C2C2C" stroke-width="0.916327"/>
<path d="M48.949 31.8969C49.0095 31.897 49.0476 31.9442 49.0476 31.9886C49.0475 32.0331 49.0094 32.0793 48.949 32.0795C48.8884 32.0795 48.8495 32.0332 48.8494 31.9886C48.8494 31.9441 48.8883 31.8969 48.949 31.8969Z" fill="#2C2C2C" stroke="#2C2C2C" stroke-width="0.916327"/>
<path d="M47.2148 33.5981C47.2753 33.5983 47.3135 33.6455 47.3135 33.6899C47.3134 33.7344 47.2752 33.7806 47.2148 33.7808C47.1542 33.7808 47.1153 33.7344 47.1152 33.6899C47.1152 33.6454 47.1541 33.5981 47.2148 33.5981Z" fill="#2C2C2C" stroke="#2C2C2C" stroke-width="0.916327"/>
<path d="M29.3923 42.0558C29.3923 42.0558 31.922 39.3339 32.9746 40.5727L34.0272 41.8028" stroke="#2C2C2C" stroke-width="0.916327" stroke-miterlimit="10" stroke-linecap="round"/>
<path d="M18.9727 42.1256C18.9727 44.6904 20.5205 45.6501 21.8473 45.6501C23.1741 45.6501 24.722 44.6904 24.722 42.1256C24.722 39.5608 21.8473 35.3209 21.8473 35.3209C21.8473 35.3209 18.9727 39.5608 18.9727 42.1256Z" fill="#93D1E0"/>
<path d="M27.5382 32.7259C27.6916 31.9062 26.3401 30.973 24.5194 30.6415C22.6988 30.3099 21.0985 30.7057 20.945 31.5254C20.7916 32.345 22.1432 33.2783 23.9638 33.6098C25.7845 33.9413 27.3848 33.5456 27.5382 32.7259Z" fill="#93D1E0"/>
</g>
<defs>
<filter id="filter0_g_40000282_7189" x="11.7159" y="15.3389" width="38.1296" height="30.6509" filterUnits="userSpaceOnUse" color-interpolation-filters="sRGB">
<feFlood flood-opacity="0" result="BackgroundImageFix"/>
<feBlend mode="normal" in="SourceGraphic" in2="BackgroundImageFix" result="shape"/>
<feTurbulence type="fractalNoise" baseFrequency="0.78494620323181152 0.78494620323181152" numOctaves="3" seed="7043" />
<feDisplacementMap in="shape" scale="0.67945206165313721" xChannelSelector="R" yChannelSelector="G" result="displacedImage" width="100%" height="100%" />
<feMerge result="effect1_texture_40000282_7189">
<feMergeNode in="displacedImage"/>
</feMerge>
</filter>
</defs>
</svg>
