<svg width="73" height="74" viewBox="0 0 73 74" fill="none" xmlns="http://www.w3.org/2000/svg">
<g clip-path="url(#clip0_40000282_7189)">
<path d="M36.5 0.5C56.3759 0.5 72.5 16.8352 72.5 37C72.5 57.1648 56.3759 73.5 36.5 73.5C16.6241 73.5 0.5 57.1648 0.5 37C0.5 16.8352 16.6241 0.5 36.5 0.5Z" fill="#EEEDEB" stroke="#9C9C9C"/>
<g filter="url(#filter0_g_40000282_7189)">
<path d="M38.3877 30.4953C38.3877 35.6598 37.2317 39.8456 32.2744 39.8456C27.6296 39.8456 25.4946 35.6598 25.4946 30.4953C25.4946 25.3307 27.0672 21.1449 32.2744 21.1449C36.8047 21.1449 38.3877 25.3307 38.3877 30.4953Z" fill="#FBFBFB" stroke="#2C2C2C" stroke-width="1.0789" stroke-miterlimit="10"/>
<path d="M51.2695 30.4953C51.2695 35.6598 50.1135 39.8456 45.1562 39.8456C40.5114 39.8456 38.3765 35.6598 38.3765 30.4953C38.3765 25.3307 39.949 21.1449 45.1562 21.1449C49.6865 21.1449 51.2695 25.3307 51.2695 30.4953Z" fill="#FBFBFB" stroke="#2C2C2C" stroke-width="1.0789" stroke-miterlimit="10"/>
<path d="M35.0024 26.3695C36.0504 26.3696 36.7235 26.8347 37.1665 27.6156C37.632 28.436 37.8472 29.6233 37.8472 31.016C37.8472 32.4295 37.687 33.6128 37.2505 34.4281C37.0381 34.8247 36.7648 35.1242 36.4175 35.3285C36.0692 35.5334 35.6125 35.6615 35.0024 35.6615C33.9077 35.6615 33.1321 35.1806 32.6079 34.3851C32.0674 33.5645 31.7818 32.3841 31.7817 31.016C31.7817 29.6217 31.9984 28.4453 32.4995 27.6332C32.9741 26.8644 33.7344 26.3695 35.0024 26.3695Z" fill="#2C2C2C" stroke="#2C2C2C" stroke-width="1.0789"/>
<path d="M47.885 25.849C48.9329 25.849 49.606 26.3142 50.0491 27.0951C50.5145 27.9155 50.7297 29.1028 50.7297 30.4955C50.7297 31.909 50.5696 33.0923 50.1331 33.9076C49.9207 34.3042 49.6474 34.6037 49.3 34.808C48.9517 35.0128 48.4951 35.141 47.885 35.141C46.7902 35.141 46.0147 34.6601 45.4905 33.8646C44.9499 33.044 44.6643 31.8636 44.6643 30.4955C44.6643 29.1012 44.8809 27.9248 45.3821 27.1127C45.8566 26.3439 46.617 25.849 47.885 25.849Z" fill="#2C2C2C" stroke="#2C2C2C" stroke-width="1.0789"/>
<path d="M39.2515 40.1476C39.2515 40.1476 33.9922 40.4183 34.6587 43.3442C35.3253 46.2701 42.6674 45.6662 43.7088 44.4167C44.7503 43.1672 44.0213 40.3871 39.2515 40.1372V40.1476Z" fill="#FBD7D5" stroke="#2C2C2C" stroke-width="1.0789" stroke-miterlimit="10"/>
<path d="M21.4221 25.945C21.4221 25.945 32.6488 32.8381 39.3661 19.2603" stroke="#2C2C2C" stroke-width="1.0789" stroke-miterlimit="10" stroke-linecap="round"/>
<path d="M14.8508 38.0627C14.9153 38.0628 14.967 38.1157 14.967 38.1799C14.9669 38.244 14.9152 38.2961 14.8508 38.2961C14.7864 38.2961 14.7338 38.2441 14.7336 38.1799C14.7336 38.1157 14.7863 38.0627 14.8508 38.0627Z" fill="#2C2C2C" stroke="#2C2C2C" stroke-width="1.0789"/>
<path d="M18.9338 38.0627C18.9983 38.0628 19.05 38.1157 19.05 38.1799C19.0499 38.244 18.9982 38.2961 18.9338 38.2961C18.8694 38.2961 18.8168 38.2441 18.8167 38.1799C18.8167 38.1157 18.8693 38.0627 18.9338 38.0627Z" fill="#2C2C2C" stroke="#2C2C2C" stroke-width="1.0789"/>
<path d="M16.8926 40.0931C16.957 40.0932 17.0088 40.1461 17.0088 40.2103C17.0086 40.2744 16.9569 40.3265 16.8926 40.3265C16.8281 40.3265 16.7755 40.2745 16.7754 40.2103C16.7754 40.1461 16.8281 40.0931 16.8926 40.0931Z" fill="#2C2C2C" stroke="#2C2C2C" stroke-width="1.0789"/>
<path d="M53.5405 38.0627C53.605 38.0628 53.6567 38.1157 53.6567 38.1799C53.6566 38.244 53.6049 38.2961 53.5405 38.2961C53.4761 38.2961 53.4235 38.2441 53.4233 38.1799C53.4233 38.1157 53.476 38.0627 53.5405 38.0627Z" fill="#2C2C2C" stroke="#2C2C2C" stroke-width="1.0789"/>
<path d="M57.6333 38.0627C57.6978 38.0628 57.7495 38.1157 57.7495 38.1799C57.7494 38.244 57.6977 38.2961 57.6333 38.2961C57.5689 38.2961 57.5163 38.2441 57.5161 38.1799C57.5161 38.1157 57.5688 38.0627 57.6333 38.0627Z" fill="#2C2C2C" stroke="#2C2C2C" stroke-width="1.0789"/>
<path d="M55.5913 40.0931C55.6558 40.0932 55.7075 40.1461 55.7075 40.2103C55.7074 40.2744 55.6557 40.3265 55.5913 40.3265C55.5269 40.3265 55.4743 40.2745 55.4741 40.2103C55.4741 40.1461 55.5268 40.0931 55.5913 40.0931Z" fill="#2C2C2C" stroke="#2C2C2C" stroke-width="1.0789"/>
<path d="M34.6069 50.1956C34.6069 50.1956 37.5855 46.947 38.8248 48.4255L40.0641 49.8937" stroke="#2C2C2C" stroke-width="1.0789" stroke-miterlimit="10" stroke-linecap="round"/>
<path d="M22.3386 50.2789C22.3386 53.3402 24.1611 54.4856 25.7233 54.4856C27.2855 54.4856 29.108 53.3402 29.108 50.2789C29.108 47.2177 25.7233 42.1572 25.7233 42.1572C25.7233 42.1572 22.3386 47.2177 22.3386 50.2789Z" fill="#93D1E0"/>
<path d="M32.424 39.06C32.6047 38.0817 31.0133 36.9679 28.8696 36.5722C26.726 36.1765 24.8417 36.6488 24.6611 37.6271C24.4804 38.6055 26.0718 39.7193 28.2154 40.115C30.3591 40.5107 32.2434 40.0384 32.424 39.06Z" fill="#93D1E0"/>
</g>
</g>
<defs>
<filter id="filter0_g_40000282_7189" x="13.7946" y="18.3207" width="44.8947" height="36.5649" filterUnits="userSpaceOnUse" color-interpolation-filters="sRGB">
<feFlood flood-opacity="0" result="BackgroundImageFix"/>
<feBlend mode="normal" in="SourceGraphic" in2="BackgroundImageFix" result="shape"/>
<feTurbulence type="fractalNoise" baseFrequency="0.66666668653488159 0.66666668653488159" numOctaves="3" seed="7043" />
<feDisplacementMap in="shape" scale="0.80000001192092896" xChannelSelector="R" yChannelSelector="G" result="displacedImage" width="100%" height="100%" />
<feMerge result="effect1_texture_40000282_7189">
<feMergeNode in="displacedImage"/>
</feMerge>
</filter>
<clipPath id="clip0_40000282_7189">
<rect width="73" height="74" fill="white"/>
</clipPath>
</defs>
</svg>
