<svg width="112" height="112" viewBox="0 0 112 112" fill="none" xmlns="http://www.w3.org/2000/svg">
<circle cx="56" cy="56" r="55.5753" fill="#EEEDEB" stroke="#9C9C9C" stroke-width="0.849315"/>
<g filter="url(#filter0_g_40000282_7189)">
<path d="M58.8966 46.155C58.8966 53.9716 57.123 60.3069 49.5173 60.3069C42.391 60.3069 39.1155 53.9716 39.1155 46.155C39.1155 38.3383 41.5282 32.0031 49.5173 32.0031C56.4679 32.0031 58.8966 38.3383 58.8966 46.155Z" fill="#FBFBFB" stroke="#2C2C2C" stroke-width="0.916327" stroke-miterlimit="10"/>
<path d="M78.6602 46.155C78.6602 53.9716 76.8866 60.3069 69.281 60.3069C62.1547 60.3069 58.8792 53.9716 58.8792 46.155C58.8792 38.3383 61.2919 32.0031 69.281 32.0031C76.2315 32.0031 78.6602 38.3383 78.6602 46.155Z" fill="#FBFBFB" stroke="#2C2C2C" stroke-width="0.916327" stroke-miterlimit="10"/>
<path d="M53.7029 39.5527C55.4553 39.5529 56.6059 40.3364 57.3455 41.6221C58.1043 42.9415 58.4373 44.8102 58.4373 46.9434C58.4372 49.0942 58.1919 50.9586 57.4783 52.2734C57.1265 52.9216 56.6641 53.4297 56.0632 53.7783C55.4615 54.1274 54.6925 54.333 53.7029 54.333C51.8893 54.333 50.587 53.536 49.7195 52.2373C48.838 50.9176 48.3924 49.0552 48.3923 46.9434C48.3923 44.8088 48.7255 42.9491 49.5466 41.6367C50.3452 40.3606 51.6351 39.5527 53.7029 39.5527Z" fill="#2C2C2C" stroke="#2C2C2C" stroke-width="0.916327"/>
<path d="M73.4678 38.765C75.2202 38.7651 76.3708 39.5487 77.1104 40.8344C77.8692 42.1537 78.2021 44.0225 78.2021 46.1556C78.2021 48.3064 77.9568 50.1709 77.2432 51.4857C76.8914 52.1338 76.429 52.642 75.8281 52.9906C75.2264 53.3396 74.4574 53.5452 73.4678 53.5453C71.6542 53.5453 70.3519 52.7483 69.4844 51.4496C68.6029 50.1298 68.1573 48.2675 68.1572 46.1556C68.1572 44.0211 68.4903 42.1614 69.3115 40.849C70.1101 39.5729 71.4 38.765 73.4678 38.765Z" fill="#2C2C2C" stroke="#2C2C2C" stroke-width="0.916327"/>
<path d="M60.2217 60.7639C60.2217 60.7639 52.1527 61.1737 53.1753 65.6021C54.1979 70.0304 65.4626 69.1164 67.0604 67.2253C68.6582 65.3341 67.5397 61.1264 60.2217 60.7482V60.7639Z" fill="#FBD7D5" stroke="#2C2C2C" stroke-width="0.916327" stroke-miterlimit="10"/>
<path d="M32.8669 39.2679C32.8669 39.2679 50.0915 49.7006 60.3975 29.1504" stroke="#2C2C2C" stroke-width="0.916327" stroke-miterlimit="10" stroke-linecap="round"/>
<path d="M22.7849 57.2506C23.0937 57.2507 23.3328 57.4965 23.3328 57.7858C23.3326 58.0749 23.0936 58.3198 22.7849 58.3199C22.4761 58.3199 22.2363 58.075 22.2361 57.7858C22.2361 57.4964 22.476 57.2506 22.7849 57.2506Z" fill="#2C2C2C" stroke="#2C2C2C" stroke-width="0.916327"/>
<path d="M29.0493 57.2506C29.3581 57.2507 29.5972 57.4965 29.5972 57.7858C29.597 58.0749 29.358 58.3198 29.0493 58.3199C28.7405 58.3199 28.5007 58.075 28.5005 57.7858C28.5005 57.4964 28.7404 57.2506 29.0493 57.2506Z" fill="#2C2C2C" stroke="#2C2C2C" stroke-width="0.916327"/>
<path d="M25.9175 60.3239C26.2263 60.324 26.4653 60.5697 26.4653 60.859C26.4652 61.1482 26.2262 61.3931 25.9175 61.3932C25.6087 61.3932 25.3688 61.1482 25.3687 60.859C25.3687 60.5697 25.6086 60.3239 25.9175 60.3239Z" fill="#2C2C2C" stroke="#2C2C2C" stroke-width="0.916327"/>
<path d="M82.1445 57.2506C82.4533 57.2507 82.6924 57.4965 82.6924 57.7858C82.6922 58.0749 82.4532 58.3198 82.1445 58.3199C81.8358 58.3199 81.5959 58.075 81.5957 57.7858C81.5957 57.4964 81.8356 57.2506 82.1445 57.2506Z" fill="#2C2C2C" stroke="#2C2C2C" stroke-width="0.916327"/>
<path d="M88.4233 57.2506C88.7321 57.2507 88.9712 57.4965 88.9712 57.7858C88.971 58.0749 88.732 58.3198 88.4233 58.3199C88.1146 58.3199 87.8747 58.075 87.8745 57.7858C87.8745 57.4964 88.1145 57.2506 88.4233 57.2506Z" fill="#2C2C2C" stroke="#2C2C2C" stroke-width="0.916327"/>
<path d="M85.2908 60.3239C85.5996 60.324 85.8386 60.5697 85.8386 60.859C85.8384 61.1482 85.5994 61.3931 85.2908 61.3932C84.982 61.3932 84.7421 61.1482 84.7419 60.859C84.7419 60.5697 84.9819 60.3239 85.2908 60.3239Z" fill="#2C2C2C" stroke="#2C2C2C" stroke-width="0.916327"/>
<path d="M53.0957 75.9718C53.0957 75.9718 57.6655 71.0548 59.5669 73.2927L61.4683 75.5148" stroke="#2C2C2C" stroke-width="0.916327" stroke-miterlimit="10" stroke-linecap="round"/>
<path d="M34.2732 76.0979C34.2732 80.7311 37.0694 82.4646 39.4661 82.4646C41.8629 82.4646 44.6591 80.7311 44.6591 76.0979C44.6591 71.4646 39.4661 63.8055 39.4661 63.8055C39.4661 63.8055 34.2732 71.4646 34.2732 76.0979Z" fill="#93D1E0"/>
<path d="M49.7463 59.1178C50.0235 57.6371 47.582 55.9512 44.293 55.3524C41.0041 54.7535 38.1132 55.4684 37.8361 56.9491C37.5589 58.4298 40.0004 60.1156 43.2894 60.7145C46.5783 61.3134 49.4692 60.5985 49.7463 59.1178Z" fill="#93D1E0"/>
</g>
<defs>
<filter id="filter0_g_40000282_7189" x="21.4384" y="28.3524" width="68.3311" height="54.4519" filterUnits="userSpaceOnUse" color-interpolation-filters="sRGB">
<feFlood flood-opacity="0" result="BackgroundImageFix"/>
<feBlend mode="normal" in="SourceGraphic" in2="BackgroundImageFix" result="shape"/>
<feTurbulence type="fractalNoise" baseFrequency="0.78494620323181152 0.78494620323181152" numOctaves="3" seed="7043" />
<feDisplacementMap in="shape" scale="0.67945206165313721" xChannelSelector="R" yChannelSelector="G" result="displacedImage" width="100%" height="100%" />
<feMerge result="effect1_texture_40000282_7189">
<feMergeNode in="displacedImage"/>
</feMerge>
</filter>
</defs>
</svg>
