<svg width="62" height="62" viewBox="0 0 62 62" fill="none" xmlns="http://www.w3.org/2000/svg">
<circle cx="31" cy="31" r="30.5753" fill="#EEEDEB" stroke="#9C9C9C" stroke-width="0.849315"/>
<path d="M44.149 26.519C44.149 30.8461 43.1535 34.3531 38.8848 34.3531C34.8851 34.3531 33.0466 30.8461 33.0466 26.519C33.0466 22.192 34.4098 18.6849 38.8848 18.6849C42.7858 18.6849 44.149 22.192 44.149 26.519Z" fill="#FBFBFB" stroke="#2C2C2C" stroke-width="0.916327" stroke-miterlimit="10"/>
<path d="M33.0559 26.519C33.0559 30.8461 32.0605 34.3531 27.7918 34.3531C23.792 34.3531 21.9536 30.8461 21.9536 26.519C21.9536 22.192 23.3167 18.6849 27.7918 18.6849C31.6928 18.6849 33.0559 22.192 33.0559 26.519Z" fill="#FBFBFB" stroke="#2C2C2C" stroke-width="0.916327" stroke-miterlimit="10"/>
<path d="M41.2339 22.6326C42.1448 22.6326 42.7262 23.0265 43.106 23.6775C43.5052 24.3621 43.6909 25.3542 43.6909 26.5193C43.6909 27.7023 43.5523 28.6899 43.1782 29.3699C42.9962 29.7005 42.7611 29.9527 42.4604 30.1248C42.1585 30.2975 41.7621 30.405 41.2339 30.405C40.2834 30.405 39.6136 29.9982 39.1636 29.3337C38.6996 28.6484 38.4546 27.6627 38.4546 26.5193C38.4546 25.3527 38.6408 24.3699 39.0708 23.6921C39.4781 23.0504 40.1345 22.6326 41.2339 22.6326Z" fill="#2C2C2C" stroke="#2C2C2C" stroke-width="0.916327"/>
<path d="M33.8001 34.6148C33.8001 34.6148 29.2713 34.8416 29.8452 37.2931C30.4192 39.7445 36.7416 39.2385 37.6384 38.1916C38.5352 37.1447 37.9074 34.8155 33.8001 34.6061V34.6148Z" fill="#FBD7D5" stroke="#2C2C2C" stroke-width="0.916327" stroke-miterlimit="10"/>
<path d="M29.98 42.5709C29.98 42.5709 26.8592 44.682 24.1957 43.9841C21.5322 43.2949 22.16 38.7585 22.16 38.7585L20.4919 35.9058C20.4919 35.9058 24.2136 46.3396 36.0962 41.0878" stroke="#2C2C2C" stroke-width="0.916327" stroke-miterlimit="10" stroke-linecap="round"/>
<path d="M12.7883 32.8657C12.8589 32.8659 12.8948 32.9188 12.8948 32.9575C12.8947 32.9962 12.8589 33.0491 12.7883 33.0493C12.7175 33.0493 12.681 32.9963 12.6809 32.9575C12.6809 32.9187 12.7174 32.8657 12.7883 32.8657Z" fill="#2C2C2C" stroke="#2C2C2C" stroke-width="0.916327"/>
<path d="M16.3044 32.8657C16.3751 32.8659 16.4109 32.9188 16.4109 32.9575C16.4108 32.9962 16.375 33.0491 16.3044 33.0493C16.2336 33.0493 16.1971 32.9963 16.197 32.9575C16.197 32.9187 16.2335 32.8657 16.3044 32.8657Z" fill="#2C2C2C" stroke="#2C2C2C" stroke-width="0.916327"/>
<path d="M14.5464 34.5669C14.617 34.5671 14.6528 34.62 14.6528 34.6587C14.6528 34.6974 14.6169 34.7503 14.5464 34.7505C14.4755 34.7505 14.439 34.6975 14.439 34.6587C14.439 34.6199 14.4755 34.5669 14.5464 34.5669Z" fill="#2C2C2C" stroke="#2C2C2C" stroke-width="0.916327"/>
<path d="M46.1042 32.8657C46.1749 32.8659 46.2107 32.9188 46.2107 32.9575C46.2106 32.9962 46.1748 33.0491 46.1042 33.0493C46.0334 33.0493 45.9969 32.9963 45.9968 32.9575C45.9968 32.9187 46.0333 32.8657 46.1042 32.8657Z" fill="#2C2C2C" stroke="#2C2C2C" stroke-width="0.916327"/>
<path d="M49.6289 32.8657C49.6995 32.8659 49.7354 32.9188 49.7354 32.9575C49.7353 32.9962 49.6995 33.0491 49.6289 33.0493C49.5581 33.0493 49.5215 32.9963 49.5215 32.9575C49.5215 32.9187 49.558 32.8657 49.6289 32.8657Z" fill="#2C2C2C" stroke="#2C2C2C" stroke-width="0.916327"/>
<path d="M47.8706 34.5669C47.9412 34.5671 47.9771 34.62 47.9771 34.6587C47.977 34.6974 47.9412 34.7503 47.8706 34.7505C47.7998 34.7505 47.7632 34.6975 47.7632 34.6587C47.7632 34.6199 47.7997 34.5669 47.8706 34.5669Z" fill="#2C2C2C" stroke="#2C2C2C" stroke-width="0.916327"/>
<path d="M27.6928 23.8755C29.4685 23.8057 31.7015 25.2888 32.4279 27.2779C32.4638 27.3738 32.383 27.4698 32.2754 27.4698C31.5311 27.4523 30.0603 27.2604 27.6838 29.4676" stroke="#2C2C2C" stroke-width="0.916327" stroke-miterlimit="10" stroke-linecap="round"/>
</svg>
