<svg width="62" height="62" viewBox="0 0 62 62" fill="none" xmlns="http://www.w3.org/2000/svg">
<circle cx="31" cy="31" r="30.5753" fill="#EEEDEB" stroke="#9C9C9C" stroke-width="0.849315"/>
<path d="M33.0418 26.4906C33.0418 30.8476 32.0532 34.379 27.8138 34.379C23.8416 34.379 22.0159 30.8476 22.0159 26.4906C22.0159 22.1335 23.3696 18.6022 27.8138 18.6022C31.688 18.6022 33.0418 22.1335 33.0418 26.4906Z" fill="#FBFBFB" stroke="#2C2C2C" stroke-width="0.916327" stroke-miterlimit="10"/>
<path d="M44.0589 26.4906C44.0589 30.8476 43.0703 34.379 38.8309 34.379C34.8587 34.379 33.033 30.8476 33.033 26.4906C33.033 22.1335 34.3867 18.6022 38.8309 18.6022C42.7051 18.6022 44.0589 22.1335 44.0589 26.4906Z" fill="#FBFBFB" stroke="#2C2C2C" stroke-width="0.916327" stroke-miterlimit="10"/>
<path d="M33.7812 34.6425C33.7812 34.6425 29.2839 34.8708 29.8539 37.339C30.4238 39.8072 36.7021 39.2977 37.5927 38.2437C38.4832 37.1897 37.8598 34.8445 33.7812 34.6337V34.6425Z" fill="#FBD7D5" stroke="#2C2C2C" stroke-width="0.916327" stroke-miterlimit="10"/>
<path d="M20.564 35.9513C20.564 35.9513 24.2601 46.4574 36.0608 41.1692" stroke="#2C2C2C" stroke-width="0.916327" stroke-miterlimit="10" stroke-linecap="round"/>
<path d="M12.9148 32.8779C12.9774 32.8781 13.0173 32.927 13.0173 32.9736C13.0172 33.0202 12.9773 33.0682 12.9148 33.0684C12.8521 33.0684 12.8114 33.0203 12.8113 32.9736C12.8113 32.9269 12.852 32.8779 12.9148 32.8779Z" fill="#2C2C2C" stroke="#2C2C2C" stroke-width="0.916327"/>
<path d="M16.4058 32.8778C16.4684 32.878 16.5083 32.9269 16.5083 32.9735C16.5082 33.02 16.4683 33.068 16.4058 33.0682C16.343 33.0682 16.3024 33.0201 16.3022 32.9735C16.3022 32.9268 16.3429 32.8778 16.4058 32.8778Z" fill="#2C2C2C" stroke="#2C2C2C" stroke-width="0.916327"/>
<path d="M14.6602 34.5908C14.7228 34.591 14.7627 34.6399 14.7627 34.6865C14.7626 34.7331 14.7227 34.7811 14.6602 34.7812C14.5974 34.7812 14.5568 34.7332 14.5566 34.6865C14.5566 34.6398 14.5973 34.5908 14.6602 34.5908Z" fill="#2C2C2C" stroke="#2C2C2C" stroke-width="0.916327"/>
<path d="M46.001 32.8779C46.0636 32.8781 46.1035 32.927 46.1035 32.9736C46.1034 33.0202 46.0635 33.0682 46.001 33.0684C45.9382 33.0684 45.8976 33.0203 45.8975 32.9736C45.8975 32.9269 45.9381 32.8779 46.001 32.8779Z" fill="#2C2C2C" stroke="#2C2C2C" stroke-width="0.916327"/>
<path d="M49.5015 32.8778C49.5641 32.878 49.604 32.9269 49.604 32.9735C49.6039 33.02 49.564 33.068 49.5015 33.0682C49.4387 33.0682 49.3981 33.0201 49.3979 32.9735C49.3979 32.9268 49.4386 32.8778 49.5015 32.8778Z" fill="#2C2C2C" stroke="#2C2C2C" stroke-width="0.916327"/>
<path d="M47.7561 34.5908C47.8187 34.591 47.8586 34.6399 47.8586 34.6865C47.8585 34.7331 47.8186 34.7811 47.7561 34.7812C47.6934 34.7812 47.6527 34.7332 47.6526 34.6865C47.6526 34.6398 47.6933 34.5908 47.7561 34.5908Z" fill="#2C2C2C" stroke="#2C2C2C" stroke-width="0.916327"/>
<path d="M31.1807 23.3645C31.8961 23.3645 32.6465 24.1469 32.6465 25.3137V25.428C32.6325 25.483 32.6116 25.5533 32.5801 25.6389C32.5149 25.8161 32.4177 26.0385 32.293 26.2971C32.0439 26.8135 31.6992 27.4466 31.3232 28.1047C30.6203 29.3352 29.8179 30.6285 29.3574 31.3645C28.8876 30.6332 28.0678 29.3431 27.3477 28.1106C26.963 27.4522 26.6102 26.8173 26.3555 26.2961C26.2279 26.0352 26.1281 25.81 26.0615 25.6292C26.0283 25.539 26.0055 25.4646 25.9912 25.4065C25.9842 25.3782 25.98 25.3559 25.9775 25.3391C25.9763 25.3308 25.976 25.324 25.9756 25.3196C25.9753 25.3163 25.9746 25.3144 25.9746 25.3137C25.9746 24.1363 26.7176 23.3645 27.4316 23.3645C28.0578 23.3646 28.7028 23.953 28.8584 24.9045H29.7627C29.9183 23.9531 30.5723 23.3647 31.1807 23.3645Z" fill="#2C2C2C" stroke="#2C2C2C" stroke-width="0.916327"/>
<path d="M42.1172 23.3645C42.8326 23.3645 43.583 24.1469 43.583 25.3137V25.428C43.569 25.483 43.5481 25.5533 43.5166 25.6389C43.4515 25.8161 43.3542 26.0385 43.2295 26.2971C42.9804 26.8135 42.6357 27.4466 42.2598 28.1047C41.5568 29.3352 40.7544 30.6285 40.2939 31.3645C39.8241 30.6332 39.0043 29.3431 38.2842 28.1106C37.8995 27.4522 37.5467 26.8173 37.292 26.2961C37.1644 26.0352 37.0646 25.81 36.998 25.6292C36.9649 25.539 36.942 25.4646 36.9277 25.4065C36.9208 25.3782 36.9166 25.3559 36.9141 25.3391C36.9128 25.3308 36.9125 25.324 36.9121 25.3196C36.9118 25.3163 36.9112 25.3144 36.9111 25.3137C36.9111 24.1363 37.6542 23.3645 38.3682 23.3645C38.9943 23.3646 39.6393 23.953 39.7949 24.9045H40.6992C40.8548 23.9531 41.5089 23.3647 42.1172 23.3645Z" fill="#2C2C2C" stroke="#2C2C2C" stroke-width="0.916327"/>
</svg>
