<svg width="62" height="62" viewBox="0 0 62 62" fill="none" xmlns="http://www.w3.org/2000/svg">
<circle cx="31" cy="31" r="30.5753" fill="#EEEDEB" stroke="#9C9C9C" stroke-width="0.849315"/>
<path d="M33.0365 33.1402V33.4193C33.0365 33.5937 33.0277 33.7682 33.0277 33.9426V34.0211C33.01 34.2566 33.0012 34.4921 32.9835 34.7188C32.9835 34.7973 32.9746 34.8671 32.9658 34.9369C32.6917 38.3995 31.4625 40.9724 27.8545 40.9724C23.9105 40.9724 22.0977 37.4662 22.0977 33.1402V33.114C23.4595 33.0617 25.1927 32.9221 27.0144 32.6256C28.9068 32.3203 30.8877 31.8319 32.6563 31.0731H32.6651C32.7536 31.1167 32.842 31.1516 32.9304 31.1865C33.0012 31.8145 33.0365 32.4686 33.0365 33.1402Z" fill="#FBFBFB" stroke="#2C2C2C" stroke-width="0.916327" stroke-miterlimit="10"/>
<path d="M43.9836 33.14C43.9836 33.2883 43.9836 33.4366 43.9748 33.5848C43.9129 37.7015 42.8605 40.9722 38.7927 40.9722C34.7249 40.9722 33.0359 37.4661 33.0359 33.14C33.0359 32.4946 33.0624 31.8754 33.1332 31.2736C34.6542 31.8666 36.3167 32.2853 37.9261 32.5644C40.243 32.9743 42.4538 33.1051 43.9836 33.14Z" fill="#FBFBFB" stroke="#2C2C2C" stroke-width="0.916327" stroke-miterlimit="10"/>
<path d="M32.9309 31.1865C32.8425 31.1516 32.754 31.1167 32.6656 31.0731H32.6568C30.8882 31.8319 28.9073 32.3203 27.0149 32.6256C25.1932 32.9221 23.46 33.0617 22.0981 33.114C22.107 28.7967 23.4423 25.308 27.855 25.308C31.1004 25.308 32.5595 27.8024 32.9309 31.1865Z" stroke="#2C2C2C" stroke-width="0.916327" stroke-miterlimit="10"/>
<path d="M32.374 31.6835C32.4827 32.1092 32.5484 32.5917 32.5703 33.1132L32.5781 33.4237V33.576C32.5781 33.7007 32.5777 33.8064 32.5703 33.9091L32.5693 33.9257V33.9979C32.5605 34.1168 32.5542 34.2353 32.5479 34.3475C32.5412 34.4647 32.5348 34.5757 32.5264 34.6835L32.5244 34.701V34.7186C32.5244 34.7642 32.5199 34.8075 32.5107 34.8798V34.8817C32.4091 35.7124 32.193 36.3556 31.835 36.786C31.4951 37.1944 30.9852 37.4618 30.1621 37.4618C29.2299 37.4618 28.5718 37.0577 28.1279 36.3934C27.67 35.7078 27.4277 34.7206 27.4277 33.576C27.4277 33.3889 27.4356 33.2009 27.4463 33.0155C29.0913 32.7315 30.7982 32.3078 32.374 31.6835Z" fill="#2C2C2C" stroke="#2C2C2C" stroke-width="0.916327"/>
<path d="M38.3677 33.1006C40.3017 33.4116 42.1285 33.5381 43.5161 33.584C43.4805 34.6497 43.3116 35.5197 42.9419 36.1133C42.5957 36.6689 42.0482 37.0254 41.1011 37.0254C40.1688 37.0254 39.5107 36.6214 39.0669 35.957C38.6089 35.2714 38.3667 34.2842 38.3667 33.1396C38.3667 33.1266 38.3676 33.1136 38.3677 33.1006Z" fill="#2C2C2C" stroke="#2C2C2C" stroke-width="0.916327"/>
<path d="M43.9835 33.1402C42.4537 33.1053 40.2429 32.9745 37.926 32.5645C36.3166 32.2854 34.6541 31.8668 33.1331 31.2737C33.5045 27.846 35.0343 25.308 38.7926 25.308C42.5509 25.308 43.8774 28.5612 43.9747 32.6692C43.9835 32.8262 43.9835 32.9832 43.9835 33.1402Z" stroke="#2C2C2C" stroke-width="0.916327" stroke-miterlimit="10"/>
<path d="M33.7792 41.2341C33.7792 41.2341 29.3135 41.4608 29.8794 43.9117C30.4454 46.3625 36.6797 45.8566 37.564 44.81C38.4483 43.7634 37.8293 41.4347 33.7792 41.2253V41.2341Z" fill="#FBD7D5" stroke="#2C2C2C" stroke-width="0.916327" stroke-miterlimit="10"/>
<path d="M13.0508 39.4854C13.1114 39.4854 13.1504 39.5327 13.1504 39.5771C13.1502 39.6215 13.1113 39.668 13.0508 39.668C12.9906 39.6677 12.9523 39.6214 12.9521 39.5771C12.9521 39.5328 12.9904 39.4856 13.0508 39.4854Z" fill="#2C2C2C" stroke="#2C2C2C" stroke-width="0.916327"/>
<path d="M16.5264 39.4854C16.587 39.4854 16.626 39.5327 16.626 39.5771C16.6258 39.6215 16.5868 39.668 16.5264 39.668C16.4662 39.6677 16.4279 39.6214 16.4277 39.5771C16.4277 39.5328 16.466 39.4856 16.5264 39.4854Z" fill="#2C2C2C" stroke="#2C2C2C" stroke-width="0.916327"/>
<path d="M14.7932 41.1862C14.8538 41.1862 14.8928 41.2335 14.8928 41.278C14.8926 41.3223 14.8537 41.3688 14.7932 41.3688C14.733 41.3685 14.6948 41.3222 14.6946 41.278C14.6946 41.2336 14.7329 41.1864 14.7932 41.1862Z" fill="#2C2C2C" stroke="#2C2C2C" stroke-width="0.916327"/>
<path d="M45.9116 39.4854C45.9723 39.4854 46.0112 39.5327 46.0112 39.5771C46.011 39.6215 45.9721 39.668 45.9116 39.668C45.8514 39.6677 45.8132 39.6214 45.813 39.5771C45.813 39.5328 45.8513 39.4856 45.9116 39.4854Z" fill="#2C2C2C" stroke="#2C2C2C" stroke-width="0.916327"/>
<path d="M49.3867 39.4854C49.4474 39.4854 49.4863 39.5327 49.4863 39.5771C49.4861 39.6215 49.4472 39.668 49.3867 39.668C49.3265 39.6677 49.2883 39.6214 49.2881 39.5771C49.2881 39.5328 49.3264 39.4856 49.3867 39.4854Z" fill="#2C2C2C" stroke="#2C2C2C" stroke-width="0.916327"/>
<path d="M47.6543 41.1862C47.7149 41.1862 47.7539 41.2335 47.7539 41.278C47.7537 41.3223 47.7148 41.3688 47.6543 41.3688C47.5941 41.3685 47.5559 41.3222 47.5557 41.278C47.5557 41.2336 47.5939 41.1864 47.6543 41.1862Z" fill="#2C2C2C" stroke="#2C2C2C" stroke-width="0.916327"/>
<path d="M31.0212 49.5176C31.0514 49.5048 31.129 49.4894 31.2683 49.5186C31.4029 49.5468 31.5619 49.61 31.7234 49.7041C32.0158 49.8746 32.2436 50.1024 32.3513 50.2959C32.3132 50.3139 32.2655 50.3339 32.2068 50.3516L32.2 50.3545C31.7291 50.5048 31.1976 50.3951 30.7527 50.085L30.7507 50.0869C30.6451 50.0144 30.5442 49.9371 30.4539 49.8555L30.447 49.8496C30.4428 49.8459 30.44 49.8413 30.4363 49.8379C30.4792 49.8007 30.5427 49.7533 30.6335 49.7021C30.7481 49.6377 30.8818 49.5765 31.0212 49.5176Z" fill="#2C2C2C" stroke="#2C2C2C" stroke-width="0.916327"/>
<path d="M36.0176 8.97546C38.3225 9.01377 40.6317 9.09833 42.9219 9.23425H42.9229L45.1807 9.36316C46.91 9.46111 48.3447 10.7598 48.5996 12.4384L49.4082 17.7528V17.7538C49.5644 18.759 49.2767 19.7917 48.625 20.5809C48.0149 21.3198 47.1269 21.7905 46.1641 21.8934L45.9707 21.9091L41.8945 22.119H41.8936C39.6356 22.2404 37.3541 22.3095 35.0811 22.3348C37.3498 22.3073 39.6148 22.2329 41.8848 22.118H41.8857L45.9639 21.9071H45.9648C48.0573 21.7958 49.6148 19.9859 49.4189 17.9501L49.3945 17.7528L48.5859 12.4374V12.4354L48.5225 12.1229C48.1412 10.5895 46.7966 9.46213 45.1787 9.36414H45.1768L42.9189 9.23621H42.9199C40.6165 9.09951 38.3179 9.01398 36.0176 8.97546ZM28.2256 9.02332C27.0318 9.05846 25.8386 9.10715 24.6465 9.16882L23.4297 9.23621L21.1738 9.36414H21.1719C19.4484 9.46852 18.0211 10.7426 17.7646 12.4374L16.9561 17.7528C16.636 19.8781 18.2368 21.7923 20.3857 21.9071H20.3867L24.4639 22.1171V22.118C26.4921 22.2274 28.5249 22.2936 30.5586 22.3251C28.5213 22.2938 26.4797 22.2277 24.457 22.119H24.4561L20.3789 21.9091H20.3799C19.3434 21.8518 18.3763 21.3689 17.7256 20.5809H17.7246C17.0718 19.781 16.7866 18.7569 16.9424 17.7538V17.7528L17.751 12.4384C18.0058 10.7598 19.4405 9.46111 21.1699 9.36316L23.4277 9.23425H23.4287C25.02 9.13982 26.6227 9.07015 28.2256 9.02332Z" fill="#2C2C2C" stroke="#2C2C2C" stroke-width="0.916327"/>
<path d="M45.9717 10.4613C46.8639 10.8064 47.5329 11.6017 47.6797 12.5668L48.4883 17.8812V17.8832C48.7328 19.4476 47.5403 20.8952 45.918 20.974H45.917L41.8379 21.1849C36.7873 21.4488 31.7296 21.4815 26.6709 21.2836L24.5029 21.1849L20.4336 20.974H20.4316C19.3337 20.9218 18.4448 20.2531 18.0508 19.3441L22.4697 19.5531C25.5893 19.7001 28.7552 19.7728 31.8838 19.7728C35.0124 19.7728 38.1783 19.7 41.2979 19.5531L45.7764 19.3422L45.7881 19.3412C46.1779 19.3127 46.4294 19.1338 46.584 18.9662L46.5859 18.9642C46.7278 18.8087 46.8966 18.5166 46.8398 18.1361H46.8418L45.9717 10.4613Z" fill="#2C2C2C" stroke="#2C2C2C" stroke-width="0.916327"/>
<path d="M8.61133 23.0261V36.8169" stroke="#2C2C2C" stroke-width="0.916327" stroke-miterlimit="10" stroke-linecap="round"/>
<path d="M11.5281 22.238V29.926" stroke="#2C2C2C" stroke-width="0.916327" stroke-miterlimit="10" stroke-linecap="round"/>
<path d="M14.4458 23.6399V26.5447" stroke="#2C2C2C" stroke-width="0.916327" stroke-miterlimit="10" stroke-linecap="round"/>
</svg>
