<svg width="62" height="62" viewBox="0 0 62 62" fill="none" xmlns="http://www.w3.org/2000/svg">
<circle cx="31" cy="31" r="30.5753" fill="#EEEDEB" stroke="#9C9C9C" stroke-width="0.849315"/>
<path d="M32.6022 26.8541C32.6022 31.1812 31.6204 34.6882 27.4102 34.6882C23.4653 34.6882 21.6521 31.1812 21.6521 26.8541C21.6521 22.527 22.9877 19.0199 27.4102 19.0199C31.2578 19.0199 32.6022 22.527 32.6022 26.8541Z" fill="#FBFBFB" stroke="#2C2C2C" stroke-width="0.916327" stroke-miterlimit="10"/>
<path d="M27.375 22.9675C28.2679 22.9676 28.839 23.3589 29.2139 24.0105C29.608 24.6958 29.791 25.6885 29.791 26.8542C29.791 28.0379 29.6547 29.0269 29.2852 29.7078C29.1055 30.0387 28.8742 30.2894 28.5791 30.4607C28.2829 30.6326 27.8941 30.7409 27.375 30.741C26.4424 30.741 25.7838 30.3363 25.3398 29.6716C24.8818 28.9859 24.6397 27.999 24.6396 26.8542C24.6396 25.6869 24.8236 24.7035 25.248 24.0251C25.6498 23.3832 26.2953 22.9675 27.375 22.9675Z" fill="#2C2C2C" stroke="#2C2C2C" stroke-width="0.916327"/>
<path d="M43.5434 26.8541C43.5434 31.1812 42.5616 34.6882 38.3514 34.6882C34.4065 34.6882 32.5933 31.1812 32.5933 26.8541C32.5933 22.527 33.9289 19.0199 38.3514 19.0199C42.199 19.0199 43.5434 22.527 43.5434 26.8541Z" fill="#FBFBFB" stroke="#2C2C2C" stroke-width="0.916327" stroke-miterlimit="10"/>
<path d="M33.3365 34.9412C33.3365 34.9412 28.8697 35.168 29.4358 37.6195C30.0019 40.0709 36.2376 39.565 37.1221 38.5181C38.0066 37.4712 37.3875 35.1419 33.3365 34.9325V34.9412Z" fill="#FBD7D5" stroke="#2C2C2C" stroke-width="0.916327" stroke-miterlimit="10"/>
<path d="M33.0356 42.457C33.3816 42.457 33.8592 42.725 34.2798 43.248C34.6889 43.7568 34.9575 44.4043 34.9575 44.9824C34.9575 45.5954 34.7695 45.9908 34.5181 46.2334C34.2628 46.4797 33.8906 46.6181 33.4341 46.6182C32.9792 46.6182 32.607 46.4781 32.3511 46.2305C32.0987 45.9862 31.9106 45.5904 31.9106 44.9824C31.9107 44.3184 32.0269 43.6423 32.2505 43.1504C32.478 42.65 32.7521 42.4571 33.0356 42.457Z" fill="#2C2C2C" stroke="#2C2C2C" stroke-width="0.916327"/>
<path d="M38.3164 22.9675C39.2093 22.9676 39.7804 23.3589 40.1553 24.0105C40.5494 24.6958 40.7324 25.6885 40.7324 26.8542C40.7324 28.0379 40.5961 29.0269 40.2266 29.7078C40.0469 30.0387 39.8156 30.2894 39.5205 30.4607C39.2243 30.6326 38.8355 30.7409 38.3164 30.741C37.3838 30.741 36.7252 30.3363 36.2812 29.6716C35.8232 28.9859 35.5811 27.999 35.5811 26.8542C35.5811 25.6869 35.765 24.7035 36.1895 24.0251C36.5912 23.3832 37.2367 22.9675 38.3164 22.9675Z" fill="#2C2C2C" stroke="#2C2C2C" stroke-width="0.916327"/>
<path d="M12.6128 33.2009C12.6733 33.2011 12.7114 33.2482 12.7114 33.2927C12.7113 33.3372 12.6732 33.3833 12.6128 33.3835C12.5522 33.3835 12.5133 33.3372 12.5132 33.2927C12.5132 33.2481 12.5521 33.2009 12.6128 33.2009Z" fill="#2C2C2C" stroke="#2C2C2C" stroke-width="0.916327"/>
<path d="M16.0798 33.2009C16.1403 33.2011 16.1785 33.2482 16.1785 33.2927C16.1784 33.3372 16.1402 33.3833 16.0798 33.3835C16.0192 33.3835 15.9803 33.3372 15.9802 33.2927C15.9802 33.2481 16.0191 33.2009 16.0798 33.2009Z" fill="#2C2C2C" stroke="#2C2C2C" stroke-width="0.916327"/>
<path d="M14.3459 34.9021C14.4064 34.9023 14.4446 34.9494 14.4446 34.9939C14.4445 35.0383 14.4063 35.0845 14.3459 35.0847C14.2853 35.0847 14.2464 35.0384 14.2463 34.9939C14.2463 34.9493 14.2853 34.9021 14.3459 34.9021Z" fill="#2C2C2C" stroke="#2C2C2C" stroke-width="0.916327"/>
<path d="M45.4712 33.201C45.5317 33.2012 45.5698 33.2484 45.5698 33.2928C45.5697 33.3373 45.5316 33.3835 45.4712 33.3837C45.4106 33.3837 45.3717 33.3374 45.3716 33.2928C45.3716 33.2483 45.4105 33.201 45.4712 33.201Z" fill="#2C2C2C" stroke="#2C2C2C" stroke-width="0.916327"/>
<path d="M48.9473 33.201C49.0077 33.2012 49.0459 33.2484 49.0459 33.2928C49.0458 33.3373 49.0076 33.3835 48.9473 33.3837C48.8867 33.3837 48.8478 33.3374 48.8477 33.2928C48.8477 33.2483 48.8866 33.201 48.9473 33.201Z" fill="#2C2C2C" stroke="#2C2C2C" stroke-width="0.916327"/>
<path d="M47.2141 34.9022C47.2746 34.9024 47.3127 34.9495 47.3127 34.994C47.3126 35.0384 47.2745 35.0846 47.2141 35.0848C47.1535 35.0848 47.1146 35.0385 47.1145 34.994C47.1145 34.9494 47.1534 34.9022 47.2141 34.9022Z" fill="#2C2C2C" stroke="#2C2C2C" stroke-width="0.916327"/>
<path d="M21.3455 17.2742C21.3455 17.2742 23.603 12.3993 26.418 15.4324" stroke="#2C2C2C" stroke-width="0.916327" stroke-miterlimit="10" stroke-linecap="round"/>
</svg>
