<svg width="73" height="74" viewBox="0 0 73 74" fill="none" xmlns="http://www.w3.org/2000/svg">
<path d="M36.5 0.5C56.3759 0.5 72.5 16.8352 72.5 37C72.5 57.1648 56.3759 73.5 36.5 73.5C16.6241 73.5 0.5 57.1648 0.5 37C0.5 16.8352 16.6241 0.5 36.5 0.5Z" fill="#EEEDEB" stroke="#9C9C9C"/>
<g filter="url(#filter0_g_40000282_7179)">
<path d="M38.9186 32.0849C38.9186 37.3208 37.7467 41.5644 32.7211 41.5644C28.0123 41.5644 25.8479 37.3208 25.8479 32.0849C25.8479 26.849 27.4527 22.6055 32.7211 22.6055C37.3138 22.6055 38.9186 26.849 38.9186 32.0849Z" fill="#FBFBFB" stroke="#2C2C2C" stroke-width="1.0789" stroke-miterlimit="10"/>
<path d="M51.9789 32.0849C51.9789 37.3208 50.807 41.5644 45.7814 41.5644C41.0726 41.5644 38.9082 37.3208 38.9082 32.0849C38.9082 26.849 40.513 22.6055 45.7814 22.6055C50.3741 22.6055 51.9789 26.849 51.9789 32.0849Z" fill="#FBFBFB" stroke="#2C2C2C" stroke-width="1.0789" stroke-miterlimit="10"/>
<path d="M39.7951 41.881C39.7951 41.881 34.4639 42.1555 35.1395 45.1215C35.8152 48.0875 43.2578 47.4753 44.3135 46.2087C45.3692 44.942 44.6302 42.1238 39.7951 41.8705V41.881Z" fill="#FBD7D5" stroke="#2C2C2C" stroke-width="1.0789" stroke-miterlimit="10"/>
<path d="M24.127 43.4539C24.127 43.4539 28.5085 56.079 42.4978 49.7242" stroke="#2C2C2C" stroke-width="1.0789" stroke-miterlimit="10" stroke-linecap="round"/>
<path d="M15.0586 39.7493C15.1281 39.7493 15.1845 39.806 15.1846 39.8752C15.1846 39.9446 15.1281 40.0012 15.0586 40.0012C14.9891 40.0011 14.9326 39.9445 14.9326 39.8752C14.9327 39.806 14.9892 39.7494 15.0586 39.7493Z" fill="#2C2C2C" stroke="#2C2C2C" stroke-width="1.0789"/>
<path d="M19.197 39.7491C19.2665 39.7491 19.323 39.8058 19.323 39.8751C19.323 39.9444 19.2666 40.0011 19.197 40.0011C19.1276 40.001 19.071 39.9444 19.071 39.8751C19.0711 39.8059 19.1276 39.7492 19.197 39.7491Z" fill="#2C2C2C" stroke="#2C2C2C" stroke-width="1.0789"/>
<path d="M17.1274 41.8076C17.197 41.8076 17.2534 41.8643 17.2534 41.9336C17.2534 42.0029 17.197 42.0596 17.1274 42.0596C17.058 42.0595 17.0015 42.0028 17.0015 41.9336C17.0015 41.8644 17.058 41.8077 17.1274 41.8076Z" fill="#2C2C2C" stroke="#2C2C2C" stroke-width="1.0789"/>
<path d="M54.2805 39.7493C54.35 39.7493 54.4065 39.806 54.4065 39.8752C54.4065 39.9446 54.3501 40.0012 54.2805 40.0012C54.2111 40.0011 54.1545 39.9445 54.1545 39.8752C54.1546 39.806 54.2111 39.7494 54.2805 39.7493Z" fill="#2C2C2C" stroke="#2C2C2C" stroke-width="1.0789"/>
<path d="M58.4304 39.7491C58.4999 39.7491 58.5564 39.8058 58.5564 39.8751C58.5564 39.9444 58.5 40.0011 58.4304 40.0011C58.361 40.001 58.3044 39.9444 58.3044 39.8751C58.3045 39.8059 58.361 39.7492 58.4304 39.7491Z" fill="#2C2C2C" stroke="#2C2C2C" stroke-width="1.0789"/>
<path d="M56.3616 41.8076C56.4311 41.8076 56.4875 41.8643 56.4875 41.9336C56.4875 42.0029 56.4311 42.0596 56.3616 42.0596C56.2921 42.0595 56.2356 42.0028 56.2356 41.9336C56.2356 41.8644 56.2921 41.8077 56.3616 41.8076Z" fill="#2C2C2C" stroke="#2C2C2C" stroke-width="1.0789"/>
<path d="M36.7129 28.317C37.5579 28.317 38.4541 29.2572 38.4541 30.6705V30.8121C38.4373 30.8791 38.4116 30.9644 38.374 31.068C38.2965 31.2815 38.1802 31.549 38.0322 31.86C37.7367 32.4809 37.3285 33.242 36.8828 34.0328C36.0486 35.5131 35.0974 37.0697 34.5518 37.9537C33.9951 37.0755 33.0217 35.5236 32.167 34.0406C31.7109 33.2494 31.2924 32.4857 30.9902 31.859C30.8389 31.5452 30.7208 31.2743 30.6416 31.0563C30.5564 30.8217 30.5372 30.7029 30.5371 30.6705C30.5371 29.2447 31.4244 28.3173 32.2676 28.317C33.007 28.317 33.7769 29.0232 33.9629 30.1754H35.0283C35.2143 29.0231 35.9946 28.317 36.7129 28.317Z" fill="#2C2C2C" stroke="#2C2C2C" stroke-width="1.0789"/>
<path d="M49.6775 28.317C50.5225 28.317 51.4187 29.2572 51.4187 30.6705V30.8121C51.4019 30.8791 51.3762 30.9644 51.3386 31.068C51.2611 31.2815 51.1448 31.549 50.9968 31.86C50.7013 32.4809 50.2931 33.242 49.8474 34.0328C49.0132 35.5131 48.062 37.0697 47.5164 37.9537C46.9597 37.0755 45.9863 35.5236 45.1316 34.0406C44.6755 33.2494 44.257 32.4857 43.9548 31.859C43.8035 31.5452 43.6854 31.2743 43.6062 31.0563C43.521 30.8217 43.5018 30.7029 43.5017 30.6705C43.5017 29.2447 44.389 28.3173 45.2322 28.317C45.9716 28.317 46.7415 29.0232 46.9275 30.1754H47.9929C48.1789 29.0231 48.9592 28.317 49.6775 28.317Z" fill="#2C2C2C" stroke="#2C2C2C" stroke-width="1.0789"/>
</g>
<defs>
<filter id="filter0_g_40000282_7179" x="13.9936" y="21.666" width="45.5021" height="30.7858" filterUnits="userSpaceOnUse" color-interpolation-filters="sRGB">
<feFlood flood-opacity="0" result="BackgroundImageFix"/>
<feBlend mode="normal" in="SourceGraphic" in2="BackgroundImageFix" result="shape"/>
<feTurbulence type="fractalNoise" baseFrequency="0.66666668653488159 0.66666668653488159" numOctaves="3" seed="7043" />
<feDisplacementMap in="shape" scale="0.80000001192092896" xChannelSelector="R" yChannelSelector="G" result="displacedImage" width="100%" height="100%" />
<feMerge result="effect1_texture_40000282_7179">
<feMergeNode in="displacedImage"/>
</feMerge>
</filter>
</defs>
</svg>
