<svg width="62" height="62" viewBox="0 0 62 62" fill="none" xmlns="http://www.w3.org/2000/svg">
<circle cx="31" cy="31" r="30.5753" fill="#EEEDEB" stroke="#9C9C9C" stroke-width="0.849315"/>
<path d="M21.3462 41.8545C22.9906 41.8545 22.9906 43.6871 24.6258 43.6871C26.2609 43.6871 26.2609 41.8545 27.9053 41.8545C29.5497 41.8545 29.5497 43.6871 31.1849 43.6871C32.82 43.6871 32.8293 41.8545 34.4644 41.8545C36.0996 41.8545 36.1089 43.6871 37.744 43.6871C39.3791 43.6871 39.3884 41.8545 41.0328 41.8545C42.6773 41.8545 42.6773 43.6871 44.3217 43.6871" stroke="#2C2C2C" stroke-width="0.916327" stroke-miterlimit="10" stroke-linecap="round"/>
<path d="M32.3071 25.7768C32.3071 30.163 31.3119 33.7181 27.044 33.7181C23.0451 33.7181 21.207 30.163 21.207 25.7768C21.207 21.3905 22.5699 17.8354 27.044 17.8354C30.9443 17.8354 32.3071 21.3905 32.3071 25.7768Z" fill="#FBFBFB" stroke="#2C2C2C" stroke-width="0.916327" stroke-miterlimit="10"/>
<path d="M43.3987 25.7768C43.3987 30.1631 42.4034 33.7181 38.1355 33.7181C34.1366 33.7181 32.2986 30.1631 32.2986 25.7768C32.2986 23 32.8455 20.5504 34.3877 19.1266C35.625 19.6837 38.7363 20.8776 42.5738 20.8599C43.1566 22.2129 43.3987 23.9197 43.3987 25.7768Z" fill="#FBFBFB" stroke="#2C2C2C" stroke-width="0.916327" stroke-miterlimit="10"/>
<path d="M27.0078 22.0519C27.9155 22.0519 28.4969 22.4499 28.8779 23.1124C29.2783 23.8085 29.4639 24.816 29.4639 25.9982C29.4638 27.1982 29.3256 28.2021 28.9502 28.8937C28.7676 29.2299 28.5326 29.4851 28.2324 29.6593C27.9309 29.8342 27.535 29.9435 27.0078 29.9435C26.0606 29.9434 25.3915 29.5328 24.9404 28.8575C24.4752 28.1611 24.2295 27.1593 24.2295 25.9982C24.2295 24.8146 24.4155 23.8162 24.8467 23.1271C25.2551 22.4744 25.9115 22.052 27.0078 22.0519Z" fill="#2C2C2C" stroke="#2C2C2C" stroke-width="0.916327"/>
<path d="M38.0989 22.0519C39.0066 22.0519 39.5879 22.4499 39.969 23.1124C40.3693 23.8085 40.5549 24.816 40.5549 25.9982C40.5549 27.1982 40.4166 28.2021 40.0413 28.8937C39.8587 29.2299 39.6237 29.4851 39.3235 29.6593C39.022 29.8342 38.6261 29.9435 38.0989 29.9435C37.1516 29.9434 36.4826 29.5328 36.0315 28.8575C35.5663 28.1611 35.3206 27.1593 35.3206 25.9982C35.3206 24.8146 35.5066 23.8162 35.9377 23.1271C36.3462 22.4744 37.0026 22.052 38.0989 22.0519Z" fill="#2C2C2C" stroke="#2C2C2C" stroke-width="0.916327"/>
<path d="M42.5733 20.8599C38.7358 20.8776 35.6245 19.6837 34.3872 19.1266C35.2749 18.313 36.4943 17.8354 38.1351 17.8354C40.3856 17.8354 41.7843 19.0116 42.5733 20.8599Z" stroke="#2C2C2C" stroke-width="0.916327" stroke-miterlimit="10"/>
<path d="M33.0512 33.9833C33.0512 33.9833 28.5233 34.2133 29.0971 36.6982C29.671 39.1832 35.9921 38.6703 36.8887 37.6091C37.7853 36.5479 37.1577 34.1867 33.0512 33.9745V33.9833Z" fill="#FBD7D5" stroke="#2C2C2C" stroke-width="0.916327" stroke-miterlimit="10"/>
<path d="M44.5727 20.7361C43.8913 20.8245 43.2188 20.8599 42.5732 20.8599" stroke="#2C2C2C" stroke-width="0.916327" stroke-miterlimit="10" stroke-linecap="round"/>
<path d="M12.6135 32.2109C12.674 32.2111 12.7122 32.2583 12.7122 32.3027C12.712 32.3472 12.6739 32.3934 12.6135 32.3936C12.5529 32.3936 12.514 32.3472 12.5139 32.3027C12.5139 32.2582 12.5528 32.2109 12.6135 32.2109Z" fill="#2C2C2C" stroke="#2C2C2C" stroke-width="0.916327"/>
<path d="M16.0813 32.2109C16.1418 32.2111 16.1799 32.2583 16.1799 32.3027C16.1798 32.3472 16.1417 32.3934 16.0813 32.3936C16.0207 32.3936 15.9818 32.3472 15.9817 32.3027C15.9817 32.2582 16.0206 32.2109 16.0813 32.2109Z" fill="#2C2C2C" stroke="#2C2C2C" stroke-width="0.916327"/>
<path d="M14.3477 33.9121C14.4081 33.9123 14.4463 33.9594 14.4463 34.0039C14.4462 34.0483 14.408 34.0945 14.3477 34.0947C14.287 34.0947 14.2482 34.0484 14.248 34.0039C14.248 33.9593 14.287 33.9121 14.3477 33.9121Z" fill="#2C2C2C" stroke="#2C2C2C" stroke-width="0.916327"/>
<path d="M45.4731 32.2109C45.5336 32.2111 45.5718 32.2583 45.5718 32.3027C45.5717 32.3471 45.5335 32.3934 45.4731 32.3936C45.4125 32.3936 45.3736 32.3472 45.3735 32.3027C45.3735 32.2582 45.4124 32.2109 45.4731 32.2109Z" fill="#2C2C2C" stroke="#2C2C2C" stroke-width="0.916327"/>
<path d="M48.949 32.2109C49.0095 32.2111 49.0476 32.2583 49.0476 32.3027C49.0475 32.3471 49.0094 32.3934 48.949 32.3936C48.8884 32.3936 48.8495 32.3472 48.8494 32.3027C48.8494 32.2582 48.8883 32.2109 48.949 32.2109Z" fill="#2C2C2C" stroke="#2C2C2C" stroke-width="0.916327"/>
<path d="M47.2156 33.9121C47.2761 33.9123 47.3142 33.9594 47.3142 34.0039C47.3141 34.0483 47.276 34.0945 47.2156 34.0947C47.155 34.0947 47.1161 34.0484 47.116 34.0039C47.116 33.9593 47.1549 33.9121 47.2156 33.9121Z" fill="#2C2C2C" stroke="#2C2C2C" stroke-width="0.916327"/>
</svg>
