<svg width="62" height="62" viewBox="0 0 62 62" fill="none" xmlns="http://www.w3.org/2000/svg">
<circle cx="31" cy="31" r="30.5753" fill="#EEEDEB" stroke="#9C9C9C" stroke-width="0.849315"/>
<path d="M32.6036 31.3685C32.6036 35.6956 31.6218 39.2026 27.4115 39.2026C23.4666 39.2026 21.6533 35.6956 21.6533 31.3685C21.6533 27.0414 22.9889 23.5344 27.4115 23.5344C31.2591 23.5344 32.6036 27.0414 32.6036 31.3685Z" fill="#FBFBFB" stroke="#2C2C2C" stroke-width="0.916327" stroke-miterlimit="10"/>
<path d="M27.3762 27.4821C28.2692 27.4821 28.8402 27.8734 29.2151 28.525C29.6092 29.2103 29.7922 30.203 29.7922 31.3688C29.7922 32.5524 29.6559 33.5415 29.2864 34.2223C29.1067 34.5532 28.8754 34.804 28.5803 34.9752C28.2841 35.1471 27.8953 35.2545 27.3762 35.2545C26.4437 35.2545 25.785 34.8508 25.3411 34.1862C24.883 33.5004 24.6409 32.5135 24.6409 31.3688C24.6409 30.2015 24.8248 29.218 25.2493 28.5397C25.651 27.8977 26.2965 27.4821 27.3762 27.4821Z" fill="#2C2C2C" stroke="#2C2C2C" stroke-width="0.916327"/>
<path d="M43.545 31.3685C43.545 35.6956 42.5632 39.2026 38.3529 39.2026C34.408 39.2026 32.5947 35.6956 32.5947 31.3685C32.5947 27.0414 33.9303 23.5344 38.3529 23.5344C42.2005 23.5344 43.545 27.0414 43.545 31.3685Z" fill="#FBFBFB" stroke="#2C2C2C" stroke-width="0.916327" stroke-miterlimit="10"/>
<path d="M33.3377 39.4557C33.3377 39.4557 28.871 39.6826 29.437 42.134C30.0031 44.5854 36.2389 44.0794 37.1234 43.0326C38.008 41.9857 37.3888 39.6564 33.3377 39.447V39.4557Z" fill="#FBD7D5" stroke="#2C2C2C" stroke-width="0.916327" stroke-miterlimit="10"/>
<path d="M29.7078 46.736H37.038" stroke="#2C2C2C" stroke-width="0.916327" stroke-miterlimit="10" stroke-linecap="round"/>
<path d="M38.3179 27.4821C39.2108 27.4821 39.7819 27.8734 40.1567 28.525C40.5509 29.2103 40.7339 30.203 40.7339 31.3688C40.7339 32.5524 40.5976 33.5415 40.228 34.2223C40.0483 34.5532 39.8171 34.804 39.522 34.9752C39.2257 35.1471 38.837 35.2545 38.3179 35.2545C37.3853 35.2545 36.7267 34.8508 36.2827 34.1862C35.8247 33.5004 35.5825 32.5135 35.5825 31.3688C35.5825 30.2015 35.7664 29.218 36.1909 28.5397C36.5927 27.8977 37.2381 27.4821 38.3179 27.4821Z" fill="#2C2C2C" stroke="#2C2C2C" stroke-width="0.916327"/>
<path d="M12.6138 37.7153C12.6743 37.7155 12.7124 37.7627 12.7124 37.8071C12.7123 37.8515 12.6742 37.8978 12.6138 37.8979C12.5532 37.8979 12.5143 37.8516 12.5142 37.8071C12.5142 37.7626 12.5531 37.7153 12.6138 37.7153Z" fill="#2C2C2C" stroke="#2C2C2C" stroke-width="0.916327"/>
<path d="M16.0815 37.7153C16.142 37.7155 16.1802 37.7627 16.1802 37.8071C16.1801 37.8515 16.1419 37.8978 16.0815 37.8979C16.0209 37.8979 15.982 37.8516 15.9819 37.8071C15.9819 37.7626 16.0208 37.7153 16.0815 37.7153Z" fill="#2C2C2C" stroke="#2C2C2C" stroke-width="0.916327"/>
<path d="M14.3479 39.4165C14.4084 39.4167 14.4465 39.4638 14.4465 39.5083C14.4464 39.5527 14.4083 39.5989 14.3479 39.5991C14.2873 39.5991 14.2484 39.5528 14.2483 39.5083C14.2483 39.4637 14.2872 39.4165 14.3479 39.4165Z" fill="#2C2C2C" stroke="#2C2C2C" stroke-width="0.916327"/>
<path d="M45.4734 37.7153C45.5339 37.7155 45.572 37.7627 45.572 37.8071C45.5719 37.8515 45.5338 37.8978 45.4734 37.8979C45.4128 37.8979 45.3739 37.8516 45.3738 37.8071C45.3738 37.7626 45.4127 37.7153 45.4734 37.7153Z" fill="#2C2C2C" stroke="#2C2C2C" stroke-width="0.916327"/>
<path d="M48.9492 37.7153C49.0097 37.7155 49.0479 37.7627 49.0479 37.8071C49.0477 37.8515 49.0096 37.8978 48.9492 37.8979C48.8886 37.8979 48.8497 37.8516 48.8496 37.8071C48.8496 37.7626 48.8885 37.7153 48.9492 37.7153Z" fill="#2C2C2C" stroke="#2C2C2C" stroke-width="0.916327"/>
<path d="M47.2158 39.4165C47.2763 39.4167 47.3145 39.4638 47.3145 39.5083C47.3143 39.5527 47.2762 39.5989 47.2158 39.5991C47.1552 39.5991 47.1163 39.5528 47.1162 39.5083C47.1162 39.4637 47.1551 39.4165 47.2158 39.4165Z" fill="#2C2C2C" stroke="#2C2C2C" stroke-width="0.916327"/>
<path d="M22.2754 16.4203C22.2754 16.4203 25.4713 14.4227 28.6673 15.7331" stroke="#2C2C2C" stroke-width="0.916327" stroke-miterlimit="10" stroke-linecap="round"/>
<path d="M41.0982 16.4203C41.0982 16.4203 37.9022 14.4227 34.7063 15.7331" stroke="#2C2C2C" stroke-width="0.916327" stroke-miterlimit="10" stroke-linecap="round"/>
</svg>
