<svg width="62" height="62" viewBox="0 0 62 62" fill="none" xmlns="http://www.w3.org/2000/svg">
<circle cx="31" cy="31" r="30.5753" fill="#EEEDEB" stroke="#9C9C9C" stroke-width="0.849315"/>
<path d="M32.5945 26.1259V26.4051C32.5945 26.5796 32.5856 26.754 32.5856 26.9285V27.007C32.568 27.2426 32.5591 27.4781 32.5414 27.705C32.5414 27.7835 32.5326 27.8533 32.5237 27.923C32.2495 31.3865 31.0201 33.96 27.4113 33.96C23.4663 33.96 21.6531 30.453 21.6531 26.1259C21.6531 24.1107 21.945 22.2699 22.7056 20.8828C23.9528 21.8599 25.4476 22.8108 27.1813 23.5436C28.7469 24.1979 30.4982 24.6865 32.4353 24.8435C32.4707 24.8435 32.5149 24.8522 32.5503 24.8522C32.5768 25.2622 32.5945 25.6897 32.5945 26.1259Z" fill="#FBFBFB" stroke="#2C2C2C" stroke-width="0.916327" stroke-miterlimit="10"/>
<path d="M43.155 22.5666C43.0047 22.6539 42.872 22.7236 42.7305 22.7847H42.7216C40.9261 23.6309 39.2278 24.1893 37.6091 24.5208C35.849 24.8872 34.1861 24.9831 32.6382 24.861C32.8947 21.1359 34.3807 18.2919 38.3521 18.2919C41.0587 18.2919 42.527 20.0279 43.155 22.5666Z" stroke="#2C2C2C" stroke-width="0.916327" stroke-miterlimit="10"/>
<path d="M43.5445 26.1258C43.5445 26.2741 43.5445 26.4224 43.5357 26.5707C43.4737 30.6884 42.4212 33.9599 38.3524 33.9599C34.2837 33.9599 32.5942 30.4529 32.5942 26.1258C32.5942 25.6983 32.6119 25.2708 32.6385 24.8608C34.1864 24.9829 35.8492 24.887 37.6094 24.5206C39.2281 24.1891 40.9263 23.6307 42.7219 22.7845H42.7308C42.8723 22.7234 43.0049 22.6536 43.1553 22.5664C43.3941 23.4999 43.5091 24.5467 43.5357 25.6547C43.5445 25.8117 43.5445 25.9688 43.5445 26.1258Z" fill="#FBFBFB" stroke="#2C2C2C" stroke-width="0.916327" stroke-miterlimit="10"/>
<path d="M32.5502 24.8523C32.5502 24.8523 32.4706 24.8436 32.4352 24.8436C30.4981 24.6865 28.7468 24.198 27.1812 23.5437C25.4476 22.8109 23.9527 21.86 22.7056 20.8829C23.5724 19.2951 25.0495 18.2919 27.4112 18.2919C30.8696 18.2919 32.3025 21.1272 32.5502 24.8523Z" stroke="#2C2C2C" stroke-width="0.916327" stroke-miterlimit="10" stroke-linecap="round"/>
<path d="M27.396 24.1228C28.8029 24.6753 30.3535 25.0953 32.0483 25.2683C32.0851 25.5045 32.1098 25.7538 32.1235 26.0164L32.1362 26.4128V26.5623C32.1362 26.687 32.1359 26.7925 32.1284 26.8953L32.1274 26.9119V26.9841C32.1187 27.103 32.1123 27.2216 32.106 27.3337C32.0993 27.4509 32.0929 27.5619 32.0845 27.6697L32.0835 27.6873V27.7048C32.0835 27.7505 32.078 27.7937 32.0688 27.866V27.8679C31.9672 28.6989 31.7513 29.3427 31.3931 29.7732C31.0532 30.1816 30.5432 30.4489 29.7202 30.449C28.7876 30.449 28.129 30.0443 27.6851 29.3796C27.227 28.6939 26.9849 27.707 26.9849 26.5623C26.9849 25.5965 27.1109 24.7621 27.396 24.1228Z" fill="#2C2C2C" stroke="#2C2C2C" stroke-width="0.916327"/>
<path d="M42.5508 23.3646C42.8614 23.9445 43.0349 24.7374 43.0781 25.6761V25.6801C43.0861 25.8219 43.0859 25.9664 43.0859 26.1254L43.0781 26.5433L43.0771 26.556C43.0425 27.6281 42.8732 28.5027 42.502 29.099C42.1557 29.6549 41.6085 30.012 40.6611 30.0121C39.7287 30.0121 39.0699 29.6082 38.626 28.9437C38.1679 28.2579 37.9258 27.2702 37.9258 26.1254C37.9258 25.6936 37.9535 25.283 38.0098 24.9008C39.4612 24.58 40.9705 24.0809 42.5508 23.3646Z" fill="#2C2C2C" stroke="#2C2C2C" stroke-width="0.916327"/>
<path d="M33.3373 34.2131C33.3373 34.2131 28.8705 34.4399 29.4366 36.8913C30.0026 39.3428 36.2385 38.8368 37.123 37.7899C38.0075 36.743 37.3883 34.4137 33.3373 34.2043V34.2131Z" fill="#FBD7D5" stroke="#2C2C2C" stroke-width="0.916327" stroke-miterlimit="10"/>
<path d="M37.088 46.5749C37.088 46.5749 33.4173 36.141 21.6975 41.3928" stroke="#2C2C2C" stroke-width="0.916327" stroke-miterlimit="10" stroke-linecap="round"/>
<path d="M32.5498 24.8522C32.5498 24.8522 32.6117 24.8696 32.6383 24.8609" stroke="#2C2C2C" stroke-width="0.916327" stroke-miterlimit="10" stroke-linecap="round"/>
<path d="M48.6926 19.1031C46.7643 20.5688 44.9157 21.7116 43.1555 22.5666" stroke="#2C2C2C" stroke-width="0.916327" stroke-miterlimit="10" stroke-linecap="round"/>
<path d="M22.7055 20.8827C19.7424 18.5796 18.168 16.1368 18.168 16.1368" stroke="#2C2C2C" stroke-width="0.916327" stroke-miterlimit="10" stroke-linecap="round"/>
<path d="M12.6133 32.4725C12.6738 32.4727 12.7119 32.5199 12.7119 32.5643C12.7118 32.6087 12.6737 32.655 12.6133 32.6552C12.5527 32.6552 12.5138 32.6088 12.5137 32.5643C12.5137 32.5198 12.5526 32.4725 12.6133 32.4725Z" fill="#2C2C2C" stroke="#2C2C2C" stroke-width="0.916327"/>
<path d="M16.0811 32.4725C16.1415 32.4727 16.1797 32.5199 16.1797 32.5643C16.1796 32.6087 16.1414 32.655 16.0811 32.6552C16.0204 32.6552 15.9816 32.6088 15.9814 32.5643C15.9814 32.5198 16.0204 32.4725 16.0811 32.4725Z" fill="#2C2C2C" stroke="#2C2C2C" stroke-width="0.916327"/>
<path d="M14.3474 34.1737C14.4079 34.1739 14.446 34.221 14.446 34.2655C14.4459 34.3099 14.4078 34.3561 14.3474 34.3563C14.2868 34.3563 14.2479 34.31 14.2478 34.2655C14.2478 34.2209 14.2867 34.1737 14.3474 34.1737Z" fill="#2C2C2C" stroke="#2C2C2C" stroke-width="0.916327"/>
<path d="M45.4731 32.4725C45.5336 32.4727 45.5718 32.5199 45.5718 32.5643C45.5717 32.6087 45.5335 32.655 45.4731 32.6552C45.4125 32.6552 45.3736 32.6088 45.3735 32.5643C45.3735 32.5198 45.4124 32.4725 45.4731 32.4725Z" fill="#2C2C2C" stroke="#2C2C2C" stroke-width="0.916327"/>
<path d="M48.949 32.4725C49.0095 32.4727 49.0476 32.5199 49.0476 32.5643C49.0475 32.6087 49.0094 32.655 48.949 32.6552C48.8884 32.6552 48.8495 32.6088 48.8494 32.5643C48.8494 32.5198 48.8883 32.4725 48.949 32.4725Z" fill="#2C2C2C" stroke="#2C2C2C" stroke-width="0.916327"/>
<path d="M47.2156 34.1737C47.2761 34.1739 47.3142 34.221 47.3142 34.2655C47.3141 34.3099 47.276 34.3561 47.2156 34.3563C47.155 34.3563 47.1161 34.31 47.116 34.2655C47.116 34.2209 47.1549 34.1737 47.2156 34.1737Z" fill="#2C2C2C" stroke="#2C2C2C" stroke-width="0.916327"/>
</svg>
