<svg width="158" height="166" viewBox="0 0 158 166" fill="none" xmlns="http://www.w3.org/2000/svg">
<rect x="0.5" y="0.5" width="157" height="165" rx="14.5" stroke="#CBCBC5"/>
<g filter="url(#filter0_g_40002013_10992)">
<path d="M79.1602 133.045C90.2671 133.045 100.312 133.724 107.57 134.818C111.203 135.366 114.117 136.015 116.11 136.726C117.11 137.082 117.849 137.444 118.328 137.797C118.821 138.16 118.943 138.439 118.943 138.618C118.943 138.797 118.821 139.077 118.328 139.44C117.849 139.794 117.11 140.155 116.11 140.512C114.117 141.222 111.203 141.871 107.57 142.419C100.312 143.513 90.2671 144.192 79.1602 144.192C68.0531 144.192 58.0075 143.513 50.749 142.419C47.1163 141.871 44.2037 141.222 42.21 140.512C41.2102 140.155 40.4708 139.794 39.9912 139.44C39.4983 139.077 39.376 138.797 39.376 138.618C39.3762 138.439 39.4988 138.16 39.9912 137.797C40.4708 137.444 41.2102 137.082 42.21 136.726C44.2037 136.015 47.1163 135.366 50.749 134.818C58.0075 133.724 68.0531 133.045 79.1602 133.045Z" fill="#2C2C2C" stroke="#2C2C2C"/>
<path d="M76.5083 76.4873V133.537C76.5083 136.66 73.9734 139.192 70.8477 139.192H51.211C40.926 139.192 40.0268 123.708 50.2862 122.93C50.603 122.904 50.9284 122.896 51.2624 122.896C55.57 122.896 60.5369 124.478 64.9301 126.514L70.2996 76.4959H76.5083V76.4873Z" fill="#CBCBC5" stroke="#2C2C2C" stroke-miterlimit="10"/>
<path d="M69.282 128.959C68.3571 128.428 66.3104 127.162 62.3882 125.451Z" fill="#CBCBC5"/>
<path d="M69.282 128.959C68.3571 128.428 66.3104 127.162 62.3882 125.451" stroke="#2C2C2C" stroke-miterlimit="10" stroke-linecap="round"/>
<path d="M79.1433 79.8724L85.2321 135.408C86.0371 138.428 89.1286 140.225 92.1516 139.42L111.129 134.39C121.071 131.756 117.963 116.563 107.849 118.428C107.532 118.487 107.215 118.556 106.898 118.641C102.736 119.745 99.2938 121.772 95.5685 124.869L85.1379 78.2812L79.1348 79.8724H79.1433Z" fill="#CBCBC5" stroke="#2C2C2C" stroke-miterlimit="10"/>
<path d="M90.9912 129.084C91.7448 128.331 93.4062 126.586 96.7546 123.926Z" fill="#CBCBC5"/>
<path d="M90.9912 129.084C91.7448 128.331 93.4062 126.586 96.7546 123.926" stroke="#2C2C2C" stroke-miterlimit="10" stroke-linecap="round"/>
<path d="M92.1299 139.025C92.1299 139.025 109.009 122.369 112.863 126.236" stroke="#2C2C2C" stroke-miterlimit="10" stroke-linecap="round"/>
<path d="M79.1104 21.5C82.2537 21.5 85.3455 22.421 87.3389 24.1982C88.3294 25.0815 89.0485 26.1748 89.3818 27.4795C89.7153 28.785 89.6711 30.335 89.083 32.1436L88.8701 32.7988H89.9297L90.043 32.4531C90.6322 30.6444 91.5091 29.3637 92.5479 28.5029C93.586 27.6428 94.8113 27.1801 96.1328 27.0469C98.7918 26.7789 101.834 27.8493 104.377 29.6943C106.919 31.5394 108.878 34.0982 109.444 36.7061C109.726 38.0022 109.663 39.3088 109.165 40.5605C108.666 41.8131 107.718 43.0424 106.178 44.1611L106.766 44.9697C108.306 43.8511 109.769 43.3292 111.115 43.2422C112.461 43.1552 113.724 43.501 114.871 44.1689C117.179 45.5129 119.012 48.1645 119.983 51.1504C120.955 54.1362 121.033 57.3572 119.957 59.7998C119.422 61.0137 118.603 62.0349 117.464 62.7549C116.395 63.4302 115.018 63.8566 113.281 63.9072L112.929 63.9121V64.9121C114.833 64.9121 116.323 65.3489 117.464 66.0693C118.603 66.7893 119.422 67.8105 119.957 69.0244C121.033 71.467 120.955 74.688 119.983 77.6738C119.012 80.6597 117.179 83.3114 114.871 84.6553C113.724 85.3232 112.461 85.6681 111.115 85.5811C109.769 85.494 108.306 84.9722 106.766 83.8535L106.472 84.2588L106.178 84.6631C107.718 85.7817 108.667 87.0103 109.165 88.2627C109.663 89.5143 109.724 90.821 109.442 92.1172C108.875 94.7253 106.916 97.2847 104.373 99.1299C101.83 100.975 98.7875 102.044 96.1289 101.776C94.8076 101.643 93.5824 101.181 92.5449 100.321C91.5716 99.5144 90.7409 98.3383 90.1562 96.7041L90.043 96.3711L89.5674 96.5254L89.0918 96.6807C89.6798 98.4892 89.7241 100.039 89.3906 101.345C89.0572 102.65 88.3374 103.743 87.3467 104.626C85.3533 106.403 82.2625 107.324 79.1191 107.324C75.9758 107.324 72.8849 106.403 70.8916 104.626C69.9009 103.743 69.182 102.65 68.8486 101.345C68.5151 100.039 68.5594 98.4893 69.1475 96.6807L68.6719 96.5254L68.1963 96.3711C67.6071 98.1798 66.7302 99.4605 65.6914 100.321C64.6532 101.182 63.4271 101.643 62.1055 101.776C59.4466 102.044 56.4048 100.975 53.8623 99.1299C51.3198 97.2849 49.3614 94.7261 48.7949 92.1182C48.5134 90.8219 48.5749 89.5145 49.0732 88.2627C49.5719 87.0103 50.5202 85.7817 52.0605 84.6631L51.7666 84.2588L51.4727 83.8535C49.9322 84.9722 48.4696 85.494 47.123 85.5811C45.7774 85.668 44.5144 85.3232 43.3672 84.6553C41.0589 83.3113 39.2274 80.6597 38.2559 77.6738C37.2844 74.6879 37.2051 71.4671 38.2812 69.0244C38.8161 67.8104 39.6348 66.7894 40.7744 66.0693C41.9148 65.3489 43.4051 64.9121 45.3096 64.9121V63.9121L44.957 63.9072C43.2201 63.8565 41.8435 63.4303 40.7744 62.7549C39.6348 62.0349 38.8162 61.0137 38.2812 59.7998C37.205 57.3572 37.284 54.1363 38.2549 51.1504C39.2258 48.1646 41.0564 45.5129 43.3633 44.1689C44.5099 43.5011 45.7725 43.1553 47.1172 43.2422C48.4628 43.3292 49.9246 43.8513 51.4639 44.9697V44.9688L51.4648 44.9697L52.0518 44.1611C50.5116 43.0426 49.5639 41.8138 49.0654 40.5615C48.5673 39.3098 48.5053 38.0023 48.7871 36.7061C49.3542 34.0982 51.3135 31.5394 53.8564 29.6943C56.3995 27.8493 59.4421 26.7791 62.1006 27.0469C63.4219 27.1801 64.6471 27.6429 65.6846 28.5029C66.6579 29.3099 67.4895 30.4858 68.0742 32.1201L68.1875 32.4531L68.6631 32.2988L69.1387 32.1436C68.5506 30.335 68.5063 28.785 68.8398 27.4795C69.1732 26.1748 69.8922 25.0815 70.8828 24.1982C72.8761 22.421 75.9671 21.5001 79.1104 21.5Z" fill="#EEEDEB" stroke="#2C2C2C"/>
<path d="M89.5585 32.2984C94.457 17.2339 63.7646 17.2339 68.663 32.2984C63.7646 17.2339 38.9298 35.2497 51.7583 44.5656C38.9384 35.2497 29.4498 64.412 45.3098 64.412C29.4498 64.412 38.9384 93.5744 51.7668 84.2585C38.9384 93.5744 63.7646 111.59 68.6716 96.5257C63.7732 111.59 94.4655 111.59 89.5671 96.5257C94.4655 111.59 119.3 93.5744 106.472 84.2585C119.3 93.5744 128.789 64.412 112.929 64.412C128.789 64.412 119.3 35.2497 106.472 44.5656C119.3 35.2497 94.4741 17.2339 89.5671 32.2984H89.5585Z" fill="#EEEDEB" stroke="#2C2C2C" stroke-miterlimit="10"/>
<path d="M69.304 128.958L62.5215 125.502C66.3752 127.196 68.3876 128.436 69.304 128.958Z" fill="white" stroke="#2C2C2C" stroke-miterlimit="10"/>
<path d="M69.304 128.958L62.5215 125.502C66.3752 127.196 68.3876 128.436 69.304 128.958Z" fill="white" stroke="#2C2C2C" stroke-miterlimit="10" stroke-linecap="round"/>
<path d="M96.6268 123.993L90.9233 129.1C91.6341 128.39 93.1328 126.816 96.0787 124.429C96.2585 124.284 96.4384 124.139 96.6268 123.993Z" fill="white" stroke="#2C2C2C" stroke-miterlimit="10"/>
<path d="M96.6268 123.993L90.9233 129.1C91.6341 128.39 93.1328 126.816 96.0787 124.429C96.2585 124.284 96.4384 124.139 96.6268 123.993Z" fill="white" stroke="#2C2C2C" stroke-miterlimit="10" stroke-linecap="round"/>
<path d="M80.6846 59.7163V59.9986C80.6846 60.1697 80.6761 60.3322 80.6761 60.5033C80.6675 60.7599 80.6504 61.0166 80.6333 61.2646C80.6333 61.3416 80.6247 61.4186 80.6161 61.4956C80.3506 64.8832 79.1517 67.4068 75.6663 67.4068C71.8469 67.4068 70.0913 63.9593 70.0913 59.7163C70.0913 58.7325 70.1598 57.783 70.3311 56.9189C71.9411 57.1243 73.6196 57.2697 75.3409 57.3723C76.9423 57.475 78.578 57.5263 80.2564 57.5263C80.3506 57.5349 80.4534 57.5349 80.5476 57.5349C80.6418 58.2278 80.6846 58.9549 80.6846 59.7163Z" fill="#FBFBFB" stroke="#2C2C2C" stroke-miterlimit="10"/>
<path d="M75.6929 57.8887C77.0817 57.9711 78.4959 58.0163 79.9409 58.0225C80.0907 58.4947 80.1792 59.0535 80.2104 59.6748L80.2222 60.0068V60.1514C80.2222 60.2734 80.2214 60.3676 80.2144 60.4668V60.4756L80.2134 60.4854C80.2052 60.7319 80.1885 60.9803 80.1714 61.2285L80.1704 61.2461V61.2637C80.1704 61.3074 80.1655 61.3557 80.1567 61.4346C80.0589 62.2402 79.8501 62.8587 79.5112 63.2695C79.1921 63.6562 78.7148 63.9111 77.939 63.9111C77.0587 63.9111 76.4382 63.527 76.0171 62.8887C75.5806 62.2269 75.3472 61.2689 75.3472 60.1514C75.3472 59.2698 75.4534 58.4956 75.6929 57.8887Z" fill="#2C2C2C" stroke="#2C2C2C"/>
<path d="M91.2767 59.7163C91.2767 59.8617 91.2767 60.0071 91.2681 60.1526C91.2082 64.1903 90.1891 67.4068 86.2498 67.4068C82.3105 67.4068 80.6748 63.9593 80.6748 59.7163C80.6748 58.9549 80.7176 58.2278 80.8118 57.5349C82.4903 57.5349 84.126 57.4835 85.7274 57.3894C87.4744 57.2953 89.1529 57.1499 90.78 56.9446H90.7886C90.8742 56.9446 90.9598 56.9361 91.0455 56.9189C91.1825 57.6461 91.251 58.4331 91.2681 59.2543C91.2767 59.4083 91.2767 59.5623 91.2767 59.7163Z" fill="#FBFBFB" stroke="#2C2C2C" stroke-miterlimit="10"/>
<path d="M80.6367 67.6807C80.8005 67.683 80.9582 67.6987 81.0762 67.7139C81.1343 67.7213 81.182 67.7281 81.2139 67.7334C81.2296 67.736 81.2415 67.7389 81.249 67.7402C81.2527 67.7409 81.2554 67.7409 81.2568 67.7412H81.2578L81.3291 67.7549C81.3551 67.7624 81.3857 67.771 81.4199 67.7812C81.5473 67.8194 81.728 67.876 81.9385 67.9482C82.3632 68.094 82.8949 68.3 83.3574 68.5449C83.5886 68.6674 83.7928 68.7935 83.9531 68.9209C84.117 69.0511 84.2112 69.1628 84.2559 69.2471C84.2934 69.3181 84.2894 69.3543 84.2793 69.3848C84.2634 69.4326 84.2028 69.5418 83.9932 69.6963C83.0243 70.4058 82.3259 70.5714 81.8242 70.5225C81.3258 70.4737 80.9172 70.2032 80.5469 69.8115C80.507 69.7684 80.4283 69.6425 80.3389 69.4219C80.2549 69.2144 80.1776 68.9635 80.1221 68.71C80.0661 68.4545 80.0355 68.2131 80.0361 68.0215C80.0369 67.8035 80.0774 67.7481 80.0625 67.7676C80.051 67.7827 80.0698 67.7495 80.1973 67.7188C80.3155 67.6903 80.4693 67.6783 80.6367 67.6807Z" fill="#FEE888" stroke="#2C2C2C"/>
<path d="M73.8423 74.9619C77.7816 76.9979 82.466 77.0236 86.431 75.0218L86.5509 74.9619" stroke="#2C2C2C" stroke-miterlimit="10" stroke-linecap="round"/>
<path d="M80.5754 57.5396C80.4812 57.5396 80.3784 57.5396 80.2842 57.5311C78.6058 57.5311 76.9701 57.4797 75.3687 57.3771C73.6474 57.2744 71.9689 57.129 70.3589 56.9237C70.8813 54.0665 72.4056 52.0391 75.6941 52.0391C78.7513 52.0391 80.1729 54.3573 80.5754 57.5396Z" stroke="#2C2C2C" stroke-miterlimit="10"/>
<path d="M91.0427 56.9237C90.9571 56.9408 90.8715 56.9494 90.7858 56.9494H90.7773C89.1501 57.1547 87.4717 57.3001 85.7247 57.3942C84.1232 57.4883 82.4876 57.5396 80.8091 57.5396C81.2287 54.3573 82.7359 52.0391 86.247 52.0391C89.1073 52.0391 90.5375 54.0665 91.0427 56.9237Z" stroke="#2C2C2C" stroke-miterlimit="10"/>
<path d="M90.5015 57.4912C90.6731 57.9909 90.7727 58.5975 90.8062 59.2861V59.29C90.8138 59.4277 90.814 59.5676 90.814 59.7236C90.814 59.8715 90.8147 60.0026 90.8071 60.1309H90.8062V60.1445C90.7726 61.1937 90.609 62.0416 90.2563 62.6152C89.931 63.1443 89.4194 63.4843 88.5229 63.4844C87.6426 63.4844 87.0222 63.0994 86.6011 62.4609C86.1646 61.7991 85.9312 60.8412 85.9312 59.7236C85.9312 59.0292 85.9958 58.4055 86.1401 57.874C87.6388 57.787 89.0889 57.6607 90.5015 57.4912Z" fill="#2C2C2C" stroke="#2C2C2C"/>
</g>
<defs>
<filter id="filter0_g_40002013_10992" x="36.1" y="20.1" width="86.0383" height="124.992" filterUnits="userSpaceOnUse" color-interpolation-filters="sRGB">
<feFlood flood-opacity="0" result="BackgroundImageFix"/>
<feBlend mode="normal" in="SourceGraphic" in2="BackgroundImageFix" result="shape"/>
<feTurbulence type="fractalNoise" baseFrequency="0.66666668653488159 0.66666668653488159" numOctaves="3" seed="7043" />
<feDisplacementMap in="shape" scale="0.80000001192092896" xChannelSelector="R" yChannelSelector="G" result="displacedImage" width="100%" height="100%" />
<feMerge result="effect1_texture_40002013_10992">
<feMergeNode in="displacedImage"/>
</feMerge>
</filter>
</defs>
</svg>