<svg width="158" height="166" viewBox="0 0 158 166" fill="none" xmlns="http://www.w3.org/2000/svg">
<rect x="0.5" y="0.5" width="157" height="165" rx="14.5" stroke="#CBCBC5"/>
<g filter="url(#filter0_g_40002013_10921)">
<path d="M78.7588 115.326C91.0006 115.326 102.073 116.079 110.075 117.291C114.08 117.898 117.294 118.617 119.496 119.405C120.6 119.801 121.42 120.203 121.954 120.599C122.501 121.004 122.653 121.328 122.653 121.553C122.653 121.778 122.501 122.101 121.954 122.506C121.42 122.901 120.6 123.305 119.496 123.7C117.294 124.489 114.08 125.208 110.075 125.814C102.073 127.027 91.0006 127.778 78.7588 127.778C66.5169 127.778 55.4444 127.027 47.4424 125.814C43.4377 125.208 40.224 124.489 38.0225 123.7C36.9187 123.305 36.0988 122.901 35.5645 122.506C35.0177 122.101 34.8653 121.778 34.8652 121.553C34.8652 121.328 35.0173 121.004 35.5645 120.599C36.0988 120.203 36.9187 119.801 38.0225 119.405C40.224 118.617 43.4377 117.898 47.4424 117.291C55.4444 116.079 66.5169 115.326 78.7588 115.326Z" fill="#2C2C2C" stroke="#2C2C2C"/>
<path d="M75.8334 52.7637V115.944C75.8334 119.402 73.0399 122.206 69.5952 122.206H47.955C36.6206 122.206 35.6296 105.058 46.9358 104.196C47.285 104.168 47.6436 104.158 48.0116 104.158C52.7587 104.158 58.2325 105.911 63.0739 108.166L68.9912 52.7731H75.8334V52.7637Z" fill="#CBCBC5" stroke="#2C2C2C" stroke-miterlimit="10"/>
<path d="M67.9248 110.847C66.9056 110.26 64.65 108.858 60.3276 106.963Z" fill="#CBCBC5"/>
<path d="M67.9248 110.847C66.9056 110.26 64.65 108.858 60.3276 106.963" stroke="#2C2C2C" stroke-miterlimit="10" stroke-linecap="round"/>
<path d="M78.7594 56.4867L85.4695 117.99C86.3566 121.334 89.7636 123.324 93.095 122.433L114.009 116.863C124.965 113.945 121.54 97.1193 110.394 99.1846C110.045 99.2509 109.696 99.3267 109.346 99.4215C104.76 100.644 100.966 102.889 96.8606 106.318L85.3657 54.7246L78.75 56.4867H78.7594Z" fill="#CBCBC5" stroke="#2C2C2C" stroke-miterlimit="10"/>
<path d="M91.7832 111.008C92.6137 110.174 94.4446 108.241 98.1346 105.295Z" fill="#CBCBC5"/>
<path d="M91.7832 111.008C92.6137 110.174 94.4446 108.241 98.1346 105.295" stroke="#2C2C2C" stroke-miterlimit="10" stroke-linecap="round"/>
<path d="M93.104 122.016C93.104 122.016 111.705 103.571 115.952 107.853" stroke="#2C2C2C" stroke-miterlimit="10" stroke-linecap="round"/>
<path d="M120.473 91.8147H37.5082C34.2145 91.8147 31.6286 88.48 32.0439 84.7C35.0544 57.7853 54.9298 37 78.986 37C103.042 37 122.918 57.7853 125.928 84.7C126.353 88.48 123.758 91.8147 120.464 91.8147H120.473Z" fill="#EEEDEB" stroke="#2C2C2C" stroke-miterlimit="10"/>
<path d="M98.1345 105.296L98.0307 105.391C97.8985 105.485 97.7664 105.59 97.6343 105.703C97.7947 105.571 97.9646 105.438 98.1345 105.296Z" fill="white" stroke="#2C2C2C" stroke-miterlimit="10" stroke-linecap="round"/>
<path d="M90.6602 62.7398C90.6602 67.4387 89.6126 71.2472 85.1204 71.2472C80.9113 71.2472 78.9766 67.4387 78.9766 62.7398C78.9766 58.0408 80.4016 54.2324 85.1204 54.2324C89.2257 54.2324 90.6602 58.0408 90.6602 62.7398Z" fill="#FBFBFB" stroke="#2C2C2C" stroke-miterlimit="10"/>
<path d="M78.9859 62.7398C78.9859 67.4387 77.9383 71.2472 73.4461 71.2472C69.2369 71.2472 67.3022 67.4387 67.3022 62.7398C67.3022 58.0408 68.7273 54.2324 73.4461 54.2324C77.5514 54.2324 78.9859 58.0408 78.9859 62.7398Z" fill="#FBFBFB" stroke="#2C2C2C" stroke-miterlimit="10"/>
<path d="M75.9189 58.7588C76.8632 58.7589 77.47 59.1787 77.8701 59.8867C78.2909 60.6313 78.4863 61.71 78.4863 62.9766C78.4863 64.2624 78.3399 65.3372 77.9453 66.0771C77.7534 66.437 77.5071 66.7089 77.1943 66.8936C76.8809 67.0785 76.4695 67.1943 75.9189 67.1943C74.9317 67.1943 74.2323 66.7595 73.7588 66.0381C73.2701 65.2933 73.0117 64.2207 73.0117 62.9766C73.0117 61.7082 73.208 60.6393 73.6611 59.9023C74.0894 59.206 74.7746 58.7588 75.9189 58.7588Z" fill="#2C2C2C" stroke="#2C2C2C"/>
<path d="M87.5933 58.7588C88.5375 58.7589 89.1444 59.1787 89.5444 59.8867C89.9652 60.6313 90.1606 61.71 90.1606 62.9766C90.1606 64.2624 90.0142 65.3372 89.6196 66.0771C89.4277 66.437 89.1814 66.7089 88.8687 66.8936C88.5552 67.0785 88.1438 67.1943 87.5933 67.1943C86.6061 67.1943 85.9066 66.7595 85.4331 66.0381C84.9444 65.2933 84.686 64.2207 84.686 62.9766C84.686 61.7082 84.8823 60.6393 85.3354 59.9023C85.7638 59.206 86.4489 58.7588 87.5933 58.7588Z" fill="#2C2C2C" stroke="#2C2C2C"/>
<path d="M79.0142 71.3877C79.1018 71.3877 79.2652 71.4353 79.4058 71.5488C79.5378 71.6554 79.6001 71.7772 79.6001 71.9014C79.6 72.0526 79.5096 72.2706 79.3403 72.4707C79.2606 72.565 79.1785 72.6368 79.1108 72.6807C79.0759 72.7033 79.0535 72.7128 79.0435 72.7168C78.9072 72.7142 78.7336 72.6831 78.605 72.5967C78.504 72.5288 78.3726 72.3925 78.3726 72.0244C78.3726 71.734 78.5118 71.5933 78.6841 71.499C78.7775 71.4479 78.8762 71.4156 78.9546 71.3965C78.9706 71.3926 78.9854 71.3904 78.9985 71.3877H79.0142Z" fill="#A7E1B6" stroke="#2C2C2C"/>
<path d="M65.396 52.8871C65.396 52.8871 67.0098 48.3019 71.8512 49.7798" stroke="#2C2C2C" stroke-miterlimit="10" stroke-linecap="round"/>
<path d="M82.1287 76.3151C82.1287 76.3151 77.7591 78.4183 75.3809 73.9277" stroke="#2C2C2C" stroke-miterlimit="10" stroke-linecap="round"/>
</g>
<defs>
<filter id="filter0_g_40002013_10921" x="31.1005" y="36.1" width="95.7727" height="92.5783" filterUnits="userSpaceOnUse" color-interpolation-filters="sRGB">
<feFlood flood-opacity="0" result="BackgroundImageFix"/>
<feBlend mode="normal" in="SourceGraphic" in2="BackgroundImageFix" result="shape"/>
<feTurbulence type="fractalNoise" baseFrequency="0.66666668653488159 0.66666668653488159" numOctaves="3" seed="7043" />
<feDisplacementMap in="shape" scale="0.80000001192092896" xChannelSelector="R" yChannelSelector="G" result="displacedImage" width="100%" height="100%" />
<feMerge result="effect1_texture_40002013_10921">
<feMergeNode in="displacedImage"/>
</feMerge>
</filter>
</defs>
</svg>
