<svg width="158" height="166" viewBox="0 0 158 166" fill="none" xmlns="http://www.w3.org/2000/svg">
<rect x="0.5" y="0.5" width="157" height="165" rx="14.5" stroke="#CBCBC5"/>
<g filter="url(#filter0_g_40002013_10951)">
<path d="M79.9771 142.652C103.322 142.652 122.246 139.778 122.246 136.233C122.246 132.688 103.322 129.813 79.9771 129.813C56.6325 129.813 37.708 132.688 37.708 136.233C37.708 139.778 56.6325 142.652 79.9771 142.652Z" fill="#2C2C2C"/>
<path d="M77.1914 70.582V130.88C77.1914 134.18 74.5316 136.857 71.2518 136.857H50.6475C39.8556 136.857 38.9121 120.491 49.677 119.669C50.0095 119.642 50.3509 119.632 50.7014 119.632C55.2212 119.632 60.433 121.305 65.0427 123.457L70.6767 70.5911H77.1914V70.582Z" fill="#CBCBC5" stroke="#2C2C2C" stroke-miterlimit="10"/>
<path d="M69.6613 126.016C68.6908 125.455 66.5432 124.117 62.4277 122.309Z" fill="#CBCBC5"/>
<path d="M69.6613 126.016C68.6908 125.455 66.5432 124.117 62.4277 122.309" stroke="#2C2C2C" stroke-miterlimit="10" stroke-linecap="round"/>
<path d="M79.9763 74.1349L86.3652 132.833C87.2098 136.024 90.4537 137.923 93.6257 137.073L113.538 131.757C123.971 128.972 120.709 112.914 110.097 114.885C109.764 114.948 109.432 115.021 109.099 115.111C104.732 116.278 101.12 118.42 97.211 121.693L86.2663 72.4531L79.9673 74.1349H79.9763Z" fill="#CBCBC5" stroke="#2C2C2C" stroke-miterlimit="10"/>
<path d="M92.377 126.16C93.1677 125.364 94.9109 123.52 98.4244 120.708Z" fill="#CBCBC5"/>
<path d="M92.377 126.16C93.1677 125.364 94.9109 123.52 98.4244 120.708" stroke="#2C2C2C" stroke-miterlimit="10" stroke-linecap="round"/>
<path d="M69.6621 126.016L62.5454 122.363C66.589 124.144 68.7007 125.465 69.6621 126.016Z" fill="#FBFBFB" stroke="#2C2C2C" stroke-miterlimit="10"/>
<path d="M69.6621 126.016L62.5454 122.363C66.589 124.144 68.7007 125.465 69.6621 126.016Z" fill="#FBFBFB" stroke="#2C2C2C" stroke-miterlimit="10" stroke-linecap="round"/>
<path d="M98.335 120.79L92.3774 126.161C93.0693 125.465 94.4981 123.964 97.2208 121.694C97.5622 121.414 97.9396 121.106 98.335 120.79Z" fill="#FBFBFB" stroke="#2C2C2C" stroke-miterlimit="10"/>
<path d="M98.335 120.79L92.3774 126.161C93.0693 125.465 94.4981 123.964 97.2208 121.694C97.5622 121.414 97.9396 121.106 98.335 120.79Z" fill="#FBFBFB" stroke="#2C2C2C" stroke-miterlimit="10" stroke-linecap="round"/>
<path d="M93.6357 136.676C93.6357 136.676 111.347 119.072 115.39 123.158" stroke="#2C2C2C" stroke-miterlimit="10" stroke-linecap="round"/>
<path d="M125.302 66.197C125.302 68.7286 125.14 71.206 124.826 73.611C123.81 81.4591 119.371 88.4302 112.695 92.6164C104.077 98.0323 92.8003 101.432 80.382 101.739C79.7529 101.757 79.1239 101.766 78.486 101.766H77.9378C66.3282 101.676 55.6351 98.9003 47.1166 94.271C39.8382 90.3198 34.914 83.1318 33.656 74.913C33.2246 72.1011 33 69.1807 33 66.197C33 58.6653 34.4377 51.5948 36.9627 45.4737C42.2464 32.6528 52.2745 24 63.7763 24C67.7749 24 71.5939 25.0398 75.1073 26.9475C77.6503 28.3219 80.6605 28.3219 83.1945 26.9475C86.6989 25.0488 90.5179 24 94.5076 24C106.701 24 117.242 33.7197 122.22 47.8064C124.188 53.367 125.293 59.6057 125.293 66.197H125.302Z" fill="#EEEDEB" stroke="#2C2C2C" stroke-miterlimit="10"/>
<path d="M79.8871 61.2336C79.8871 65.7182 78.8897 69.3529 74.6124 69.3529C70.6048 69.3529 68.7627 65.7182 68.7627 61.2336C68.7627 56.749 70.1195 53.1143 74.6124 53.1143C78.5212 53.1143 79.8871 56.749 79.8871 61.2336Z" fill="#FBFBFB" stroke="#2C2C2C" stroke-miterlimit="10"/>
<path d="M79.8874 61.6853C79.8874 64.1717 79.3392 66.188 76.967 66.188C74.7475 66.188 73.7231 64.1717 73.7231 61.6853C73.7231 59.1989 74.4779 57.1826 76.967 57.1826C79.1326 57.1826 79.8874 59.1989 79.8874 61.6853Z" fill="#2C2C2C"/>
<path d="M91.0023 61.2336C91.0023 65.7182 90.0049 69.3529 85.7277 69.3529C81.72 69.3529 79.8779 65.7182 79.8779 61.2336C79.8779 56.749 81.2348 53.1143 85.7277 53.1143C89.6365 53.1143 91.0023 56.749 91.0023 61.2336Z" fill="#FBFBFB" stroke="#2C2C2C" stroke-miterlimit="10"/>
<path d="M80.6322 69.6243C80.6322 69.6243 76.0944 69.8594 76.6695 72.4C77.2446 74.9407 83.5796 74.4163 84.4782 73.3313C85.3767 72.2463 84.7477 69.8322 80.6322 69.6152V69.6243Z" fill="#FBD7D5" stroke="#2C2C2C"/>
<path d="M67.3066 70.9717C67.3066 70.9717 71.0357 81.7854 82.9419 76.3424" stroke="#2C2C2C" stroke-miterlimit="10" stroke-linecap="round"/>
<path d="M91.0021 61.2332C91.0021 63.7196 90.454 65.7359 88.0818 65.7359C85.8623 65.7359 84.8379 63.7196 84.8379 61.2332C84.8379 58.7467 85.5927 56.7305 88.0818 56.7305C90.2473 56.7305 91.0021 58.7467 91.0021 61.2332Z" fill="#2C2C2C"/>
<path d="M59.5793 68.4762C59.8919 68.4762 60.1454 68.2211 60.1454 67.9065C60.1454 67.5919 59.8919 67.3369 59.5793 67.3369C59.2666 67.3369 59.0132 67.5919 59.0132 67.9065C59.0132 68.2211 59.2666 68.4762 59.5793 68.4762Z" fill="#2C2C2C"/>
<path d="M63.1105 68.4762C63.4232 68.4762 63.6766 68.2211 63.6766 67.9065C63.6766 67.5919 63.4232 67.3369 63.1105 67.3369C62.7979 67.3369 62.5444 67.5919 62.5444 67.9065C62.5444 68.2211 62.7979 68.4762 63.1105 68.4762Z" fill="#2C2C2C"/>
<path d="M61.3488 70.2388C61.6615 70.2388 61.9149 69.9838 61.9149 69.6692C61.9149 69.3546 61.6615 69.0996 61.3488 69.0996C61.0362 69.0996 60.7827 69.3546 60.7827 69.6692C60.7827 69.9838 61.0362 70.2388 61.3488 70.2388Z" fill="#2C2C2C"/>
<path d="M92.9704 68.4762C93.2831 68.4762 93.5365 68.2211 93.5365 67.9065C93.5365 67.5919 93.2831 67.3369 92.9704 67.3369C92.6578 67.3369 92.4043 67.5919 92.4043 67.9065C92.4043 68.2211 92.6578 68.4762 92.9704 68.4762Z" fill="#2C2C2C"/>
<path d="M96.4929 68.4762C96.8055 68.4762 97.059 68.2211 97.059 67.9065C97.059 67.5919 96.8055 67.3369 96.4929 67.3369C96.1802 67.3369 95.9268 67.5919 95.9268 67.9065C95.9268 68.2211 96.1802 68.4762 96.4929 68.4762Z" fill="#2C2C2C"/>
<path d="M94.7316 70.2388C95.0443 70.2388 95.2977 69.9838 95.2977 69.6692C95.2977 69.3546 95.0443 69.0996 94.7316 69.0996C94.419 69.0996 94.1655 69.3546 94.1655 69.6692C94.1655 69.9838 94.419 70.2388 94.7316 70.2388Z" fill="#2C2C2C"/>
</g>
<defs>
<filter id="filter0_g_40002013_10951" x="32.1" y="23.1" width="94.1018" height="119.952" filterUnits="userSpaceOnUse" color-interpolation-filters="sRGB">
<feFlood flood-opacity="0" result="BackgroundImageFix"/>
<feBlend mode="normal" in="SourceGraphic" in2="BackgroundImageFix" result="shape"/>
<feTurbulence type="fractalNoise" baseFrequency="0.66666668653488159 0.66666668653488159" numOctaves="3" seed="7043" />
<feDisplacementMap in="shape" scale="0.80000001192092896" xChannelSelector="R" yChannelSelector="G" result="displacedImage" width="100%" height="100%" />
<feMerge result="effect1_texture_40002013_10951">
<feMergeNode in="displacedImage"/>
</feMerge>
</filter>
</defs>
</svg>