<svg width="73" height="74" viewBox="0 0 73 74" fill="none" xmlns="http://www.w3.org/2000/svg">
<g clip-path="url(#clip0_40000417_7743)">
<path d="M36.5 0.5C56.3759 0.5 72.5 16.8352 72.5 37C72.5 57.1648 56.3759 73.5 36.5 73.5C16.6241 73.5 0.5 57.1648 0.5 37C0.5 16.8352 16.6241 0.5 36.5 0.5Z" fill="#A7E1B6" stroke="#5C5C5C"/>
<g filter="url(#filter0_g_40000417_7743)">
<path d="M36.9379 35.3858V35.7842C36.9379 36.0331 36.9254 36.2821 36.9254 36.531V36.6431C36.9005 36.9792 36.8881 37.3153 36.8632 37.6389C36.8632 37.751 36.8507 37.8505 36.8383 37.9501C36.4524 42.892 34.7097 46.5642 29.6308 46.5642C24.0914 46.5642 21.5396 41.5601 21.5396 35.3858C21.5396 32.4232 21.9752 29.7095 23.1329 27.7178C25.1744 28.6887 27.6889 29.6348 30.6516 30.3443C32.2325 30.7302 33.9379 31.0414 35.7926 31.253C36.054 31.2904 36.3279 31.3153 36.6018 31.3402C36.8383 32.5974 36.9379 33.9543 36.9379 35.3858Z" fill="#FBFBFB" stroke="#2C2C2C" stroke-miterlimit="10"/>
<path d="M52.3363 35.386C52.3363 35.5976 52.3363 35.8093 52.3239 36.0209C52.2367 41.8964 50.7678 46.5644 45.0417 46.5644C39.3156 46.5644 36.938 41.5603 36.938 35.386C36.938 33.9794 37.0376 32.635 37.2616 31.4026C39.4899 31.5894 41.9048 31.6391 44.5064 31.4773C46.6226 31.3653 48.8757 31.1163 51.2409 30.6931C51.4525 30.6682 51.6517 30.6308 51.8633 30.5811C52.1496 31.8508 52.299 33.245 52.3239 34.7138C52.3363 34.9379 52.3363 35.162 52.3363 35.386Z" fill="#FBFBFB" stroke="#2C2C2C" stroke-miterlimit="10"/>
<path d="M30.7388 30.8787C32.2158 31.2308 33.7982 31.5178 35.5054 31.7214C36.1185 32.6829 36.414 34.1145 36.437 35.7908V36.0085C36.437 36.1857 36.4372 36.3424 36.4263 36.4958L36.4253 36.5134V36.6179C36.4129 36.7874 36.4041 36.9561 36.395 37.1179C36.3857 37.2849 36.3757 37.4446 36.3638 37.6003L36.3628 37.6199V37.6394C36.3628 37.7159 36.3541 37.7864 36.3413 37.8884V37.8904C36.1967 39.0894 35.8871 40.0427 35.356 40.6902C34.8451 41.3127 34.0842 41.7077 32.8921 41.7078C31.5324 41.7078 30.5615 41.1061 29.9097 40.1169C29.2425 39.1042 28.898 37.6614 28.8979 36.0085C28.8979 33.6011 29.4308 31.7507 30.7388 30.8787Z" fill="#2C2C2C" stroke="#2C2C2C"/>
<path d="M50.9941 31.2417C51.4933 32.1129 51.7583 33.3186 51.8242 34.7368V34.7417C51.8358 34.9495 51.8359 35.16 51.8359 35.3862C51.8359 35.6001 51.8357 35.7973 51.8242 35.9917V36.0063C51.7813 37.544 51.544 38.8272 51.001 39.7134C50.4854 40.5547 49.6669 41.0854 48.291 41.0854C46.9311 41.0854 45.9604 40.4831 45.3086 39.4937C44.6415 38.481 44.2969 37.039 44.2969 35.3862C44.2969 34.0673 44.4604 32.8927 44.8418 31.9565C46.7874 31.8421 48.8443 31.6133 50.9941 31.2417Z" fill="#2C2C2C" stroke="#2C2C2C"/>
<path d="M51.8629 30.581C51.6512 30.6307 51.4521 30.6681 51.2405 30.693C48.8753 31.1162 46.6222 31.3652 44.506 31.4772C41.9044 31.639 39.4894 31.5892 37.2612 31.4025C38.0206 27.1951 40.2363 24.2075 45.0413 24.2075C48.95 24.2075 51.0164 26.8092 51.8629 30.581Z" stroke="#2C2C2C" stroke-miterlimit="10"/>
<path d="M36.6012 31.3403C36.3273 31.3154 36.0535 31.2905 35.7921 31.2532C33.9373 31.0415 32.2319 30.7303 30.651 30.3444C27.6883 29.6349 25.1738 28.6888 23.1323 27.7179C24.3522 25.5519 26.4062 24.2075 29.6302 24.2075C33.8004 24.2075 35.8792 27.1702 36.6012 31.3403Z" stroke="#2C2C2C" stroke-miterlimit="10" stroke-linecap="round"/>
<path d="M37.2608 31.4026C37.0368 31.4026 36.8127 31.3652 36.6011 31.3403" stroke="#2C2C2C" stroke-miterlimit="10" stroke-linecap="round"/>
<path d="M57.9997 29.1868C55.8711 29.7718 53.8296 30.2324 51.8628 30.581" stroke="#2C2C2C" stroke-miterlimit="10" stroke-linecap="round"/>
<path d="M23.1328 27.7178C18.3402 25.4398 16 23 16 23" stroke="#2C2C2C" stroke-miterlimit="10" stroke-linecap="round"/>
<path d="M37.5537 45.8073C37.7111 45.8073 37.9612 45.8857 38.1709 46.0543C38.3723 46.2163 38.4854 46.4178 38.4854 46.6393C38.4852 46.8881 38.3435 47.2097 38.1064 47.4889C37.9929 47.6225 37.8728 47.7272 37.7686 47.7946C37.6773 47.8535 37.6264 47.8662 37.6162 47.8688C37.417 47.8688 37.1381 47.8267 36.9238 47.6832C36.7431 47.5622 36.5479 47.3314 36.5479 46.8004C36.548 46.3478 36.7765 46.1171 37.04 45.9733C37.1792 45.8974 37.3238 45.8502 37.4365 45.8229C37.4664 45.8156 37.4936 45.8117 37.5166 45.8073H37.5537Z" fill="#2C2C2C" stroke="#2C2C2C"/>
</g>
<g filter="url(#filter1_g_40000417_7743)">
<path d="M31 52.3141C31 52.3141 34.7847 45.4843 45 53.6353" stroke="#2C2C2C" stroke-miterlimit="10" stroke-linecap="round"/>
</g>
</g>
<defs>
<filter id="filter0_g_40000417_7743" x="15.1" y="22.1" width="43.8" height="26.6693" filterUnits="userSpaceOnUse" color-interpolation-filters="sRGB">
<feFlood flood-opacity="0" result="BackgroundImageFix"/>
<feBlend mode="normal" in="SourceGraphic" in2="BackgroundImageFix" result="shape"/>
<feTurbulence type="fractalNoise" baseFrequency="0.66666668653488159 0.66666668653488159" numOctaves="3" seed="7043" />
<feDisplacementMap in="shape" scale="0.80000001192092896" xChannelSelector="R" yChannelSelector="G" result="displacedImage" width="100%" height="100%" />
<feMerge result="effect1_texture_40000417_7743">
<feMergeNode in="displacedImage"/>
</feMerge>
</filter>
<filter id="filter1_g_40000417_7743" x="30.1" y="48.7348" width="15.8" height="5.80049" filterUnits="userSpaceOnUse" color-interpolation-filters="sRGB">
<feFlood flood-opacity="0" result="BackgroundImageFix"/>
<feBlend mode="normal" in="SourceGraphic" in2="BackgroundImageFix" result="shape"/>
<feTurbulence type="fractalNoise" baseFrequency="0.66666668653488159 0.66666668653488159" numOctaves="3" seed="7043" />
<feDisplacementMap in="shape" scale="0.80000001192092896" xChannelSelector="R" yChannelSelector="G" result="displacedImage" width="100%" height="100%" />
<feMerge result="effect1_texture_40000417_7743">
<feMergeNode in="displacedImage"/>
</feMerge>
</filter>
<clipPath id="clip0_40000417_7743">
<rect width="73" height="74" fill="white"/>
</clipPath>
</defs>
</svg>
