<svg width="62" height="62" viewBox="0 0 62 62" fill="none" xmlns="http://www.w3.org/2000/svg">
<g clip-path="url(#clip0_40000417_7714)">
<circle cx="31" cy="31" r="30.5753" fill="#A7E1B6" stroke="#5C5C5C" stroke-width="0.849315"/>
<path d="M43.2069 29.4365C43.2069 34.229 42.1197 38.1133 37.4574 38.1133C33.089 38.1133 31.0811 34.229 31.0811 29.4365C31.0811 24.6439 32.5601 20.7596 37.4574 20.7596C41.7181 20.7596 43.2069 24.6439 43.2069 29.4365Z" fill="#FBFBFB" stroke="#2C2C2C" stroke-width="0.849315" stroke-miterlimit="10"/>
<path d="M31.0907 29.4365C31.0907 34.229 30.0035 38.1133 25.3412 38.1133C20.9728 38.1133 18.9648 34.229 18.9648 29.4365C18.9648 24.6439 20.4438 20.7596 25.3412 20.7596C29.6019 20.7596 31.0907 24.6439 31.0907 29.4365Z" fill="#FBFBFB" stroke="#2C2C2C" stroke-width="0.849315" stroke-miterlimit="10"/>
<path d="M31.0908 32.4898C31.0908 35.147 30.4933 37.3017 27.9075 37.3017C25.4882 37.3017 24.3716 35.147 24.3716 32.4898C24.3716 29.8327 25.1943 27.678 27.9075 27.678C30.268 27.678 31.0908 29.8327 31.0908 32.4898Z" fill="#2C2C2C"/>
<path d="M43.207 32.4898C43.207 35.147 42.6095 37.3017 40.0237 37.3017C37.6044 37.3017 36.4878 35.147 36.4878 32.4898C36.4878 29.8327 37.3106 27.678 40.0237 27.678C42.3842 27.678 43.207 29.8327 43.207 32.4898Z" fill="#2C2C2C"/>
<path d="M31.1206 38.171C31.2381 38.1711 31.4284 38.2297 31.5884 38.3566C31.7417 38.4782 31.8218 38.6247 31.8218 38.7804C31.8216 38.9597 31.7163 39.1999 31.5327 39.4132C31.4454 39.5147 31.354 39.5942 31.2749 39.6447C31.187 39.7007 31.1519 39.6984 31.1694 39.6984C31.0149 39.6984 30.8011 39.6657 30.6392 39.5587C30.5064 39.471 30.3599 39.3038 30.3599 38.9054C30.3599 38.5738 30.5273 38.4046 30.729 38.296C30.8355 38.2388 30.9466 38.2036 31.0337 38.1827C31.0562 38.1774 31.0768 38.1744 31.0942 38.171H31.1206Z" fill="#2C2C2C" stroke="#2C2C2C" stroke-width="0.849315"/>
<path d="M16.9863 19.3875C16.9863 19.3875 18.6612 14.7109 23.6859 16.2182" stroke="#2C2C2C" stroke-width="0.849315" stroke-miterlimit="10" stroke-linecap="round"/>
<path d="M27.1782 44.1498C27.1782 44.1498 29.9596 41.6247 31.1168 42.7739L32.2741 43.9151" stroke="black" stroke-width="0.849315" stroke-miterlimit="10" stroke-linecap="round"/>
<path d="M45.0139 46.5841C45.0139 49.0807 43.6419 50.0147 42.4659 50.0147C41.2899 50.0147 39.918 49.0807 39.918 46.5841C39.918 44.0876 42.4659 39.9607 42.4659 39.9607C42.4659 39.9607 45.0139 44.0876 45.0139 46.5841Z" fill="#93D1E0"/>
<g filter="url(#filter0_g_40000417_7714)">
<path d="M40.7544 38.7218C42.4448 38.4139 43.6996 37.5473 43.5572 36.7861C43.4147 36.0249 41.9289 35.6574 40.2385 35.9653C38.5481 36.2731 37.2932 37.1398 37.4357 37.901C37.5781 38.6621 39.064 39.0296 40.7544 38.7218Z" fill="#93D1E0"/>
</g>
</g>
<defs>
<filter id="filter0_g_40000417_7714" x="37.0851" y="35.5167" width="6.82301" height="3.65357" filterUnits="userSpaceOnUse" color-interpolation-filters="sRGB">
<feFlood flood-opacity="0" result="BackgroundImageFix"/>
<feBlend mode="normal" in="SourceGraphic" in2="BackgroundImageFix" result="shape"/>
<feTurbulence type="fractalNoise" baseFrequency="0.78494632244110107 0.78494632244110107" numOctaves="3" seed="7043" />
<feDisplacementMap in="shape" scale="0.67945206165313721" xChannelSelector="R" yChannelSelector="G" result="displacedImage" width="100%" height="100%" />
<feMerge result="effect1_texture_40000417_7714">
<feMergeNode in="displacedImage"/>
</feMerge>
</filter>
<clipPath id="clip0_40000417_7714">
<rect width="62" height="62" fill="white"/>
</clipPath>
</defs>
</svg>
