<svg width="62" height="62" viewBox="0 0 62 62" fill="none" xmlns="http://www.w3.org/2000/svg">
<g clip-path="url(#clip0_40000417_7598)">
<circle cx="31" cy="31" r="30.5753" fill="#A7E1B6" stroke="#5C5C5C" stroke-width="0.849315"/>
<path d="M41.4253 28.9179C41.4253 33.2295 40.4471 36.724 36.2527 36.724C32.3226 36.724 30.5161 33.2295 30.5161 28.9179C30.5161 24.6062 31.8467 21.1117 36.2527 21.1117C40.0858 21.1117 41.4253 24.6062 41.4253 28.9179Z" fill="#FBFBFB" stroke="#2C2C2C" stroke-width="0.849315" stroke-miterlimit="10"/>
<path d="M30.5249 28.9179C30.5249 33.2295 29.5467 36.724 25.3523 36.724C21.4222 36.724 19.6157 33.2295 19.6157 28.9179C19.6157 24.6062 20.9463 21.1117 25.3523 21.1117C29.1855 21.1117 30.5249 24.6062 30.5249 28.9179Z" fill="#FBFBFB" stroke="#2C2C2C" stroke-width="0.849315" stroke-miterlimit="10"/>
<path d="M27.6606 25.231C28.5623 25.231 29.1421 25.627 29.521 26.2856C29.9177 26.9755 30.1001 27.9713 30.1001 29.1353C30.1001 30.3158 29.9644 31.3079 29.5923 31.9937C29.4109 32.3279 29.1764 32.5823 28.8765 32.7563C28.5756 32.9309 28.1823 33.0396 27.6606 33.0396C26.7209 33.0394 26.0558 32.6309 25.6079 31.9604C25.1469 31.2701 24.9048 30.2798 24.9048 29.1353C24.9048 27.9699 25.0875 26.9828 25.5151 26.2993C25.9216 25.6497 26.5752 25.2311 27.6606 25.231Z" fill="#2C2C2C" stroke="#2C2C2C" stroke-width="0.849315"/>
<path d="M38.561 25.231C39.4627 25.231 40.0425 25.627 40.4214 26.2856C40.8181 26.9755 41.0005 27.9713 41.0005 29.1353C41.0005 30.3158 40.8648 31.3079 40.4927 31.9937C40.3113 32.3279 40.0768 32.5823 39.7769 32.7563C39.476 32.9309 39.0827 33.0396 38.561 33.0396C37.6213 33.0394 36.9562 32.6309 36.5083 31.9604C36.0473 31.2701 35.8052 30.2798 35.8052 29.1353C35.8052 27.9699 35.9879 26.9828 36.4155 26.2993C36.822 25.6497 37.4755 25.2311 38.561 25.231Z" fill="#2C2C2C" stroke="#2C2C2C" stroke-width="0.849315"/>
<path d="M30.5513 36.8186C30.6461 36.8187 30.8084 36.8669 30.9458 36.9758C31.0764 37.0795 31.14 37.1999 31.1401 37.3235C31.1401 37.4709 31.0518 37.6786 30.8901 37.8665C30.8139 37.9549 30.7346 38.0228 30.6675 38.0657C30.6194 38.0963 30.5918 38.1046 30.5854 38.1067C30.4517 38.1053 30.2747 38.0762 30.1421 37.9885C30.0353 37.918 29.9097 37.7819 29.9097 37.4368C29.9097 37.1585 30.0472 37.0186 30.2192 36.926C30.3108 36.8768 30.4069 36.8466 30.4829 36.8284C30.5004 36.8242 30.5168 36.8213 30.5308 36.8186H30.5513Z" fill="#2C2C2C" stroke="#2C2C2C" stroke-width="0.849315"/>
<path d="M17.8354 19.8773C17.8354 19.8773 19.3423 15.67 23.8628 17.0261" stroke="#2C2C2C" stroke-width="0.849315" stroke-miterlimit="10" stroke-linecap="round"/>
<path d="M33.4592 41.3747C33.4592 41.3747 29.3793 43.3045 27.1587 39.1841" stroke="#2C2C2C" stroke-width="0.849315" stroke-miterlimit="10" stroke-linecap="round"/>
</g>
<defs>
<clipPath id="clip0_40000417_7598">
<rect width="62" height="62" fill="white"/>
</clipPath>
</defs>
</svg>
