<svg width="73" height="74" viewBox="0 0 73 74" fill="none" xmlns="http://www.w3.org/2000/svg">
<g clip-path="url(#clip0_40000417_7688)">
<path d="M36.5 0.5C56.3759 0.5 72.5 16.8352 72.5 37C72.5 57.1648 56.3759 73.5 36.5 73.5C16.6241 73.5 0.5 57.1648 0.5 37C0.5 16.8352 16.6241 0.5 36.5 0.5Z" fill="#A7E1B6" stroke="#5C5C5C"/>
<g filter="url(#filter0_g_40000417_7688)">
<path d="M51.923 37.6375C51.923 43.1817 50.6823 47.6751 45.3617 47.6751C40.3764 47.6751 38.085 43.1817 38.085 37.6375C38.085 32.0933 39.7728 27.5999 45.3617 27.5999C50.224 27.5999 51.923 32.0933 51.923 37.6375Z" fill="#FBFBFB" stroke="#2C2C2C" stroke-miterlimit="10"/>
<path d="M38.0964 37.6375C38.0964 43.1817 36.8556 47.6751 31.535 47.6751C26.5497 47.6751 24.2583 43.1817 24.2583 37.6375C24.2583 32.0933 25.9461 27.5999 31.535 27.5999C36.3974 27.5999 38.0964 32.0933 38.0964 37.6375Z" fill="#FBFBFB" stroke="#2C2C2C" stroke-miterlimit="10"/>
<path d="M34.4634 32.8503C35.6184 32.8503 36.3663 33.366 36.855 34.2273C37.3644 35.1253 37.5962 36.416 37.5962 37.9167C37.5962 39.4369 37.424 40.7237 36.9458 41.6169C36.7121 42.0534 36.4093 42.3871 36.022 42.615C35.6338 42.8432 35.1293 42.9832 34.4634 42.9832C33.2604 42.9831 32.4041 42.4528 31.8276 41.5779C31.2359 40.6796 30.9282 39.395 30.9282 37.9167C30.9282 36.4144 31.161 35.1342 31.7104 34.2439C32.2351 33.3938 33.0769 32.8503 34.4634 32.8503Z" fill="#2C2C2C" stroke="#2C2C2C"/>
<path d="M48.2905 32.8503C49.4455 32.8503 50.1935 33.366 50.6821 34.2273C51.1915 35.1253 51.4233 36.416 51.4233 37.9167C51.4233 39.4369 51.2512 40.7237 50.7729 41.6169C50.5393 42.0534 50.2364 42.3871 49.8491 42.615C49.461 42.8432 48.9565 42.9832 48.2905 42.9832C47.0875 42.9831 46.2312 42.4528 45.6548 41.5779C45.063 40.6796 44.7554 39.395 44.7554 37.9167C44.7554 36.4144 44.9882 35.1342 45.5376 34.2439C46.0623 33.3938 46.9041 32.8503 48.2905 32.8503Z" fill="#2C2C2C" stroke="#2C2C2C"/>
<path d="M38.1299 47.7499C38.2581 47.7499 38.4718 47.8156 38.6523 47.9608C38.8244 48.0992 38.915 48.2666 38.915 48.4462C38.915 48.6531 38.7954 48.931 38.5869 49.1766C38.4877 49.2934 38.3837 49.3839 38.2949 49.4413C38.2249 49.4865 38.1862 49.4965 38.1787 49.4989C38.0055 49.4979 37.7701 49.4611 37.5918 49.3417C37.4448 49.2432 37.2773 49.0526 37.2773 48.5917C37.2773 48.2085 37.4681 48.0163 37.6934 47.8934C37.8132 47.8281 37.9379 47.7874 38.0361 47.7635C38.0615 47.7574 38.0848 47.7537 38.1045 47.7499H38.1299Z" fill="#2C2C2C" stroke="#2C2C2C"/>
<path d="M22 26.0125C22 26.0125 23.9114 20.6025 29.6456 22.3462" stroke="#2C2C2C" stroke-miterlimit="10" stroke-linecap="round"/>
</g>
</g>
<defs>
<filter id="filter0_g_40000417_7688" x="21.1" y="21.0999" width="31.7229" height="29.3001" filterUnits="userSpaceOnUse" color-interpolation-filters="sRGB">
<feFlood flood-opacity="0" result="BackgroundImageFix"/>
<feBlend mode="normal" in="SourceGraphic" in2="BackgroundImageFix" result="shape"/>
<feTurbulence type="fractalNoise" baseFrequency="0.66666668653488159 0.66666668653488159" numOctaves="3" seed="7043" />
<feDisplacementMap in="shape" scale="0.80000001192092896" xChannelSelector="R" yChannelSelector="G" result="displacedImage" width="100%" height="100%" />
<feMerge result="effect1_texture_40000417_7688">
<feMergeNode in="displacedImage"/>
</feMerge>
</filter>
<clipPath id="clip0_40000417_7688">
<rect width="73" height="74" fill="white"/>
</clipPath>
</defs>
</svg>
