<svg width="62" height="62" viewBox="0 0 62 62" fill="none" xmlns="http://www.w3.org/2000/svg">
<g clip-path="url(#clip0_40000417_7627)">
<circle cx="31" cy="31" r="30.5753" fill="#A7E1B6" stroke="#5C5C5C" stroke-width="0.849315"/>
<path d="M30.7001 28.6913C30.7001 33.028 29.7163 36.5428 25.4974 36.5428C21.5445 36.5428 19.7275 33.028 19.7275 28.6913C19.7275 24.3546 21.0659 20.8397 25.4974 20.8397C29.3529 20.8397 30.7001 24.3546 30.7001 28.6913Z" fill="#FBFBFB" stroke="#2C2C2C" stroke-width="0.849315" stroke-miterlimit="10"/>
<path d="M41.664 28.6913C41.664 33.028 40.6802 36.5428 36.4613 36.5428C32.5083 36.5428 30.6914 33.028 30.6914 28.6913C30.6914 24.3546 32.0297 20.8397 36.4613 20.8397C40.3168 20.8397 41.664 24.3546 41.664 28.6913Z" fill="#FBFBFB" stroke="#2C2C2C" stroke-width="0.849315" stroke-miterlimit="10"/>
<path d="M38.7832 24.762C39.6911 24.762 40.2748 25.1611 40.6562 25.8245C41.0556 26.5189 41.2393 27.5207 41.2393 28.6917C41.2392 29.879 41.1031 30.8774 40.7285 31.5676C40.5459 31.9041 40.3099 32.1609 40.0078 32.3362C39.7047 32.5121 39.3083 32.6213 38.7832 32.6213C37.8369 32.6212 37.1668 32.2096 36.7158 31.5344C36.2518 30.8396 36.0088 29.843 36.0088 28.6917C36.0088 27.5195 36.1927 26.5261 36.623 25.8381C37.0324 25.1839 37.6905 24.7621 38.7832 24.762Z" fill="#2C2C2C" stroke="#2C2C2C" stroke-width="0.849315"/>
<path d="M25.2144 25.946C27.182 25.8673 29.6637 26.7417 30.4703 28.98C30.5057 29.0849 30.4171 29.1985 30.3019 29.1985C29.4687 29.1723 27.8468 28.9625 25.2056 31.4456" stroke="#2C2C2C" stroke-width="0.849315" stroke-miterlimit="10" stroke-linecap="round"/>
<path d="M30.625 36.9327C30.721 36.9327 30.8848 36.982 31.0234 37.0919C31.1553 37.1966 31.2197 37.3181 31.2197 37.4435C31.2197 37.5925 31.1306 37.8012 30.9678 37.9904C30.8909 38.0797 30.8109 38.1483 30.7432 38.1915C30.694 38.2229 30.6664 38.2315 30.6602 38.2335C30.5253 38.2322 30.346 38.203 30.2119 38.1144C30.1039 38.0429 29.9775 37.9044 29.9775 37.5568C29.9776 37.2758 30.1166 37.1345 30.29 37.0411C30.3826 36.9913 30.48 36.9608 30.5566 36.9425C30.5743 36.9383 30.5904 36.9355 30.6045 36.9327H30.625Z" fill="#2C2C2C" stroke="#2C2C2C" stroke-width="0.849315"/>
<path d="M17.8354 19.8955C17.8354 19.8955 19.351 15.6637 23.8978 17.0277" stroke="#2C2C2C" stroke-width="0.849315" stroke-miterlimit="10" stroke-linecap="round"/>
<path d="M31.4248 41.4255C31.4248 41.4255 28.593 44.5462 27.7018 43.2543C26.8106 41.9714 27.327 39.3784 27.327 39.3784C28.5514 41.289 30.1838 41.5347 31.3582 41.3891L31.4248 41.4255Z" stroke="#2C2C2C" stroke-width="0.849315" stroke-miterlimit="10" stroke-linecap="round"/>
</g>
<defs>
<clipPath id="clip0_40000417_7627">
<rect width="62" height="62" fill="white"/>
</clipPath>
</defs>
</svg>
