<svg width="62" height="62" viewBox="0 0 62 62" fill="none" xmlns="http://www.w3.org/2000/svg">
<g clip-path="url(#clip0_40000417_7820)">
<circle cx="31" cy="31" r="30.5753" fill="#EEEDEB" stroke="#9C9C9C" stroke-width="0.849315"/>
<path d="M43.3152 29.9135C43.3152 34.7828 42.2105 38.7293 37.4736 38.7293C33.0352 38.7293 30.9951 34.7828 30.9951 29.9135C30.9951 25.0442 32.4978 21.0978 37.4736 21.0978C41.8025 21.0978 43.3152 25.0442 43.3152 29.9135Z" fill="#FBFBFB" stroke="#2C2C2C" stroke-width="0.849315" stroke-miterlimit="10"/>
<path d="M31.0051 29.9135C31.0051 34.7828 29.9005 38.7293 25.1635 38.7293C20.7251 38.7293 18.6851 34.7828 18.6851 29.9135C18.6851 25.0442 20.1877 21.0978 25.1635 21.0978C29.4925 21.0978 31.0051 25.0442 31.0051 29.9135Z" fill="#FBFBFB" stroke="#2C2C2C" stroke-width="0.849315" stroke-miterlimit="10"/>
<path d="M24.8599 25.6066C25.8988 25.6066 26.5712 26.0652 27.0083 26.8253C27.4633 27.6165 27.6694 28.752 27.6694 30.0704C27.6694 31.4056 27.5155 32.5382 27.0884 33.3253C26.8795 33.71 26.6089 34.0058 26.2603 34.2081C25.9106 34.4111 25.4567 34.5352 24.8599 34.5353C23.7791 34.5353 23.0103 34.064 22.4946 33.2921C21.9659 32.5005 21.6919 31.3696 21.6919 30.0704C21.6919 28.7507 21.8983 27.6237 22.3892 26.839C22.8591 26.0879 23.6162 25.6066 24.8599 25.6066Z" fill="#2C2C2C" stroke="#2C2C2C" stroke-width="0.849315"/>
<path d="M37.1699 25.6066C38.2089 25.6066 38.8813 26.0652 39.3184 26.8253C39.7733 27.6165 39.9795 28.752 39.9795 30.0704C39.9795 31.4056 39.8256 32.5382 39.3984 33.3253C39.1896 33.71 38.9189 34.0058 38.5703 34.2081C38.2206 34.4111 37.7668 34.5352 37.1699 34.5353C36.0891 34.5353 35.3203 34.064 34.8047 33.2921C34.276 32.5005 34.002 31.3696 34.002 30.0704C34.002 28.7507 34.2083 27.6237 34.6992 26.839C35.1691 26.0879 35.9263 25.6066 37.1699 25.6066Z" fill="#2C2C2C" stroke="#2C2C2C" stroke-width="0.849315"/>
<path d="M31.0352 38.781C31.1562 38.781 31.351 38.8416 31.5146 38.9714C31.6716 39.096 31.7549 39.2462 31.7549 39.407C31.7548 39.5913 31.6469 39.837 31.46 40.0544C31.3707 40.1581 31.2764 40.2391 31.1953 40.2908C31.1056 40.3479 31.069 40.3464 31.085 40.3464C30.9274 40.3464 30.709 40.3134 30.543 40.2039C30.406 40.1134 30.2559 39.9409 30.2559 39.5339C30.256 39.194 30.4284 39.02 30.6348 38.9089C30.7436 38.8504 30.8574 38.814 30.9463 38.7927C30.9688 38.7874 30.9893 38.7844 31.0068 38.781H31.0352Z" fill="#A7E1B6" stroke="#2C2C2C" stroke-width="0.849315"/>
<path d="M27.1782 46.0811H34.8221" stroke="#2C2C2C" stroke-width="0.849315" stroke-miterlimit="10" stroke-linecap="round"/>
<path d="M20.3838 16.7567C20.3838 16.7567 23.781 13.8016 27.1783 15.7401" stroke="#2C2C2C" stroke-width="0.849315" stroke-miterlimit="10" stroke-linecap="round"/>
<g filter="url(#filter0_g_40000417_7820)">
<path d="M40.7672 16.7567C40.7672 16.7567 37.3699 13.8016 33.9727 15.7401" stroke="#2C2C2C" stroke-width="0.849315" stroke-miterlimit="10" stroke-linecap="round"/>
</g>
</g>
<defs>
<filter id="filter0_g_40000417_7820" x="33.2081" y="14.3166" width="8.3235" height="3.20448" filterUnits="userSpaceOnUse" color-interpolation-filters="sRGB">
<feFlood flood-opacity="0" result="BackgroundImageFix"/>
<feBlend mode="normal" in="SourceGraphic" in2="BackgroundImageFix" result="shape"/>
<feTurbulence type="fractalNoise" baseFrequency="0.78494632244110107 0.78494632244110107" numOctaves="3" seed="7043" />
<feDisplacementMap in="shape" scale="0.67945206165313721" xChannelSelector="R" yChannelSelector="G" result="displacedImage" width="100%" height="100%" />
<feMerge result="effect1_texture_40000417_7820">
<feMergeNode in="displacedImage"/>
</feMerge>
</filter>
<clipPath id="clip0_40000417_7820">
<rect width="62" height="62" fill="white"/>
</clipPath>
</defs>
</svg>
