<svg width="63" height="64" viewBox="0 0 63 64" fill="none" xmlns="http://www.w3.org/2000/svg">
<g clip-path="url(#clip0_40000417_7586)">
<circle cx="31.5" cy="31.5753" r="30.5753" fill="#EEEDEB" stroke="#9C9C9C" stroke-width="0.849315"/>
<path d="M41.9253 29.8893C41.9253 34.26 40.9471 37.8024 36.7527 37.8024C32.8226 37.8024 31.0161 34.26 31.0161 29.8893C31.0161 25.5186 32.3467 21.9762 36.7527 21.9762C40.5858 21.9762 41.9253 25.5186 41.9253 29.8893Z" fill="#FBFBFB" stroke="#2C2C2C" stroke-width="0.849315" stroke-miterlimit="10"/>
<path d="M31.0249 29.8893C31.0249 34.26 30.0467 37.8024 25.8523 37.8024C21.9222 37.8024 20.1157 34.26 20.1157 29.8893C20.1157 25.5186 21.4463 21.9762 25.8523 21.9762C29.6855 21.9762 31.0249 25.5186 31.0249 29.8893Z" fill="#FBFBFB" stroke="#2C2C2C" stroke-width="0.849315" stroke-miterlimit="10"/>
<path d="M28.1606 26.1461C29.0596 26.1461 29.6398 26.5462 30.02 27.2164C30.4178 27.9177 30.6001 28.9291 30.6001 30.11C30.6001 31.3072 30.4646 32.3151 30.0913 33.0123C29.9093 33.3523 29.6743 33.6104 29.3745 33.7867C29.074 33.9635 28.6814 34.0729 28.1606 34.0729C27.2234 34.0727 26.5579 33.6606 26.1089 32.9791C25.6468 32.2777 25.4048 31.2717 25.4048 30.11C25.4048 28.9278 25.5875 27.9249 26.0161 27.2301C26.4238 26.5696 27.0778 26.1462 28.1606 26.1461Z" fill="#2C2C2C" stroke="#2C2C2C" stroke-width="0.849315"/>
<path d="M39.061 26.1461C39.9599 26.1461 40.5402 26.5462 40.9204 27.2164C41.3182 27.9177 41.5005 28.9291 41.5005 30.11C41.5005 31.3072 41.365 32.3151 40.9917 33.0123C40.8097 33.3523 40.5746 33.6104 40.2749 33.7867C39.9744 33.9635 39.5818 34.0729 39.061 34.0729C38.1238 34.0727 37.4583 33.6606 37.0093 32.9791C36.5472 32.2777 36.3052 31.2717 36.3052 30.11C36.3052 28.9278 36.4879 27.9249 36.9165 27.2301C37.3242 26.5696 37.9781 26.1462 39.061 26.1461Z" fill="#2C2C2C" stroke="#2C2C2C" stroke-width="0.849315"/>
<path d="M31.0513 37.8922C31.1445 37.8923 31.3062 37.9407 31.4438 38.0514C31.5744 38.1564 31.6401 38.2807 31.6401 38.4108C31.64 38.564 31.5498 38.7761 31.3882 38.9664C31.3116 39.0565 31.2316 39.1252 31.1646 39.1686C31.1177 39.1989 31.0911 39.2073 31.0845 39.2096C30.9516 39.2081 30.7759 39.1788 30.644 39.0905C30.5373 39.0189 30.4097 38.8789 30.4097 38.525C30.4097 38.2371 30.5505 38.0937 30.7212 38.0006C30.8127 37.9507 30.9091 37.9203 30.9849 37.902C31.0025 37.8977 31.0187 37.895 31.0327 37.8922H31.0513Z" fill="#A7E1B6" stroke="#2C2C2C" stroke-width="0.849315"/>
<path d="M18.3354 20.7249C18.3354 20.7249 19.8423 16.4599 24.3628 17.8346" stroke="#2C2C2C" stroke-width="0.849315" stroke-miterlimit="10" stroke-linecap="round"/>
<path d="M33.9592 42.5166C33.9592 42.5166 29.8793 44.4729 27.6587 40.296" stroke="#2C2C2C" stroke-width="0.849315" stroke-miterlimit="10" stroke-linecap="round"/>
</g>
<defs>
<clipPath id="clip0_40000417_7586">
<rect width="62" height="62.8493" fill="white" transform="translate(0.5 0.575317)"/>
</clipPath>
</defs>
</svg>
