<svg width="62" height="62" viewBox="0 0 62 62" fill="none" xmlns="http://www.w3.org/2000/svg">
<g clip-path="url(#clip0_40000417_7756)">
<circle cx="31" cy="31" r="30.5753" fill="#EEEDEB" stroke="#9C9C9C" stroke-width="0.849315"/>
<path d="M29.6233 30.3045C29.6233 35.1543 28.5231 39.085 23.8051 39.085C19.3845 39.085 17.3525 35.1543 17.3525 30.3045C17.3525 25.4547 18.8492 21.524 23.8051 21.524C28.1167 21.524 29.6233 25.4547 29.6233 30.3045Z" stroke="#2C2C2C" stroke-width="0.849315" stroke-miterlimit="10"/>
<path d="M41.8938 30.3045C41.8938 35.1543 40.7936 39.085 36.0756 39.085C31.655 39.085 29.623 35.1543 29.623 30.3045C29.623 25.4547 31.1197 21.524 36.0756 21.524C40.3872 21.524 41.8938 25.4547 41.8938 30.3045Z" stroke="#2C2C2C" stroke-width="0.849315" stroke-miterlimit="10"/>
<path d="M15.1025 33.4334C15.1025 33.4334 24.2115 36.3667 29.7422 32.0254" stroke="#2C2C2C" stroke-width="0.849315" stroke-miterlimit="10" stroke-linecap="round"/>
<path d="M44.3916 33.4334C44.3916 33.4334 35.2827 36.3667 29.752 32.0254" stroke="#2C2C2C" stroke-width="0.849315" stroke-miterlimit="10" stroke-linecap="round"/>
<path d="M30.1143 39.8031C30.2344 39.8031 30.429 39.8634 30.5918 39.9926C30.7474 40.1162 30.829 40.265 30.8291 40.4242C30.8291 40.6073 30.7224 40.8522 30.5361 41.0687C30.4474 41.1718 30.354 41.2527 30.2734 41.3041C30.1841 41.361 30.1477 41.3588 30.1641 41.3588C30.0073 41.3588 29.79 41.3261 29.625 41.2172C29.4892 41.1274 29.34 40.9566 29.3398 40.5521C29.3398 40.2142 29.5106 40.0415 29.7158 39.931C29.8241 39.8728 29.9369 39.836 30.0254 39.8148C30.0477 39.8095 30.0685 39.8065 30.0859 39.8031H30.1143Z" fill="#A7E1B6" stroke="#2C2C2C" stroke-width="0.849315"/>
<path d="M30.3709 25.8459C27.6353 25.8459 24.86 25.7775 22.1243 25.6308L18.2687 25.4255C17.2775 25.3766 16.3458 24.9072 15.7213 24.1543C15.0969 23.3917 14.8194 22.4041 14.968 21.4361L15.7412 16.4103C15.989 14.797 17.3667 13.5552 19.022 13.4574L21.1629 13.3303C24.2157 13.1543 27.3181 13.0565 30.3808 13.0565C33.4436 13.0565 36.546 13.1445 39.5988 13.3303L41.7397 13.4574C43.395 13.5552 44.7727 14.797 45.0205 16.4103L45.7837 21.4361C45.9324 22.4041 45.6549 23.3917 45.0304 24.1543C44.406 24.917 43.4743 25.3766 42.4831 25.4255L38.6274 25.6308C35.8918 25.7775 33.1165 25.8459 30.3808 25.8459H30.3709Z" fill="#EEEDEB"/>
<path d="M30.3714 13.5552C33.4341 13.5552 36.4968 13.6432 39.5596 13.8192L41.7005 13.9463C43.1278 14.0343 44.3073 15.0903 44.5155 16.4885L45.2787 21.5143C45.5463 23.2646 44.228 24.8486 42.4439 24.9464L38.5882 25.1517C35.8526 25.2984 33.107 25.3668 30.3714 25.3668C27.6357 25.3668 24.8902 25.2984 22.1545 25.1517L18.2988 24.9464C16.5147 24.8486 15.1964 23.2646 15.4641 21.5143L16.2273 16.4885C16.4453 15.0903 17.6149 14.0343 19.0422 13.9463L21.1832 13.8192C24.2459 13.6432 27.3086 13.5552 30.3714 13.5552ZM30.3714 12.5774C27.2987 12.5774 24.1864 12.6654 21.1237 12.8512L18.9827 12.9783C17.0995 13.0859 15.5235 14.5036 15.246 16.3516L14.4828 21.3677C14.3143 22.4726 14.6315 23.597 15.3451 24.4672C16.0588 25.3277 17.1193 25.8655 18.2493 25.9241L22.1049 26.1295C24.8505 26.2761 27.6258 26.3446 30.3714 26.3446C33.1169 26.3446 35.9021 26.2761 38.6378 26.1295L42.4935 25.9241C43.6234 25.8655 44.684 25.3375 45.3976 24.4672C46.1112 23.597 46.4284 22.4726 46.2599 21.3677L45.4967 16.3419C45.2192 14.5036 43.6432 13.0859 41.76 12.9685L39.619 12.8414C36.5563 12.6654 33.444 12.5676 30.3714 12.5676V12.5774Z" fill="#2C2C2C"/>
<path d="M42.8101 14.2533C44.3518 14.3336 45.6259 15.4278 45.8507 16.8532L46.6751 22.0129C46.9642 23.8098 45.5402 25.446 43.6131 25.5364L39.4484 25.7472C33.5385 26.0483 27.6179 26.0483 21.6973 25.7472L17.5433 25.5364C15.7768 25.456 14.4385 24.0808 14.4385 22.4847C14.4385 22.6453 14.5134 22.7658 14.5884 22.8361C14.674 22.9364 14.8346 23.0469 15.0916 23.0569L19.6631 23.2677C22.8429 23.4082 26.0655 23.4785 29.256 23.4785C32.4464 23.4785 35.669 23.4082 38.8488 23.2677L43.4204 23.0569C43.6773 23.0368 43.8272 22.9364 43.9236 22.8361C44.0092 22.7457 44.1056 22.5851 44.0628 22.3843L43.1527 14.7452C43.0992 14.4742 42.8315 14.2533 42.5104 14.2433H42.8101V14.2533Z" fill="#2C2C2C"/>
<path d="M50.1206 24.9855V37.0024" stroke="#2C2C2C" stroke-width="0.849315" stroke-miterlimit="10" stroke-linecap="round"/>
<path d="M52.6582 24.301V30.9988" stroke="#2C2C2C" stroke-width="0.849315" stroke-miterlimit="10" stroke-linecap="round"/>
<path d="M55.2056 25.5232V28.0556" stroke="#2C2C2C" stroke-width="0.849315" stroke-miterlimit="10" stroke-linecap="round"/>
<path d="M25.4795 45.2433C25.4795 45.2433 29.5799 41.793 34.822 44.7943" stroke="#2C2C2C" stroke-width="0.849315" stroke-miterlimit="10" stroke-linecap="round"/>
</g>
<defs>
<clipPath id="clip0_40000417_7756">
<rect width="62" height="62" fill="white"/>
</clipPath>
</defs>
</svg>
