<svg width="62" height="62" viewBox="0 0 62 62" fill="none" xmlns="http://www.w3.org/2000/svg">
<g clip-path="url(#clip0_40000417_7678)">
<circle cx="31" cy="31" r="30.5753" fill="#EEEDEB" stroke="#9C9C9C" stroke-width="0.849315"/>
<path d="M44.0991 31.5342C44.0991 36.1793 43.0453 39.9441 38.5264 39.9441C34.2924 39.9441 32.3462 36.1793 32.3462 31.5342C32.3462 26.8891 33.7797 23.1243 38.5264 23.1243C42.6561 23.1243 44.0991 26.8891 44.0991 31.5342Z" fill="#FBFBFB" stroke="#2C2C2C" stroke-width="0.849315" stroke-miterlimit="10"/>
<path d="M32.3559 31.5342C32.3559 36.1793 31.3021 39.9441 26.7833 39.9441C22.5492 39.9441 20.603 36.1793 20.603 31.5342C20.603 26.8891 22.0365 23.1243 26.7833 23.1243C30.9129 23.1243 32.3559 26.8891 32.3559 31.5342Z" fill="#FBFBFB" stroke="#2C2C2C" stroke-width="0.849315" stroke-miterlimit="10"/>
<path d="M29.27 27.5292C30.2539 27.5292 30.8895 27.9631 31.3032 28.6825C31.7346 29.433 31.9312 30.5122 31.9312 31.7684C31.9311 33.0414 31.7844 34.1168 31.3794 34.8632C31.1816 35.2277 30.9253 35.5071 30.5962 35.6981C30.2661 35.8896 29.8366 36.0077 29.27 36.0077C28.2459 36.0076 27.5191 35.5612 27.0308 34.83C26.5293 34.0791 26.2681 33.0053 26.2681 31.7684C26.2681 30.5107 26.4657 29.4402 26.9312 28.6962C27.3756 27.9859 28.0901 27.5293 29.27 27.5292Z" fill="#2C2C2C" stroke="#2C2C2C" stroke-width="0.849315"/>
<path d="M41.0137 27.5292C41.9976 27.5292 42.6332 27.9631 43.0469 28.6825C43.4783 29.433 43.6748 30.5122 43.6748 31.7684C43.6748 33.0414 43.5281 34.1168 43.123 34.8632C42.9253 35.2275 42.6697 35.5071 42.3408 35.6981C42.0107 35.8897 41.5804 36.0077 41.0137 36.0077C39.9895 36.0076 39.2628 35.5612 38.7744 34.83C38.273 34.0791 38.0117 33.0053 38.0117 31.7684C38.0117 30.5107 38.2093 29.4402 38.6748 28.6962C39.1192 27.9859 39.8337 27.5293 41.0137 27.5292Z" fill="#2C2C2C" stroke="#2C2C2C" stroke-width="0.849315"/>
<path d="M32.3838 40.0125C32.4944 40.0125 32.6769 40.0686 32.8301 40.1902C32.9763 40.3063 33.0508 40.4448 33.0508 40.5906C33.0507 40.7601 32.9513 40.9905 32.7744 41.196C32.6904 41.2937 32.6019 41.3696 32.5264 41.4177C32.4424 41.4712 32.4111 41.4675 32.4316 41.4675C32.2832 41.4675 32.0787 41.4355 31.9248 41.3337C31.8001 41.2512 31.6602 41.0934 31.6602 40.7117C31.6603 40.3968 31.8183 40.2372 32.0107 40.1335C32.1128 40.0786 32.2199 40.0442 32.3037 40.0242C32.3252 40.019 32.3447 40.0156 32.3613 40.0125H32.3838Z" fill="#A7E1B6" stroke="#2C2C2C" stroke-width="0.849315"/>
<path d="M18.6851 21.7943C18.6851 21.7943 20.3084 17.2616 25.1786 18.7226" stroke="#2C2C2C" stroke-width="0.849315" stroke-miterlimit="10" stroke-linecap="round"/>
</g>
<defs>
<clipPath id="clip0_40000417_7678">
<rect width="62" height="62" fill="white"/>
</clipPath>
</defs>
</svg>
