<svg width="73" height="74" viewBox="0 0 73 74" fill="none" xmlns="http://www.w3.org/2000/svg">
<g clip-path="url(#clip0_40000417_7586)">
<path d="M36.5 0.5C56.3759 0.5 72.5 16.8352 72.5 37C72.5 57.1648 56.3759 73.5 36.5 73.5C16.6241 73.5 0.5 57.1648 0.5 37C0.5 16.8352 16.6241 0.5 36.5 0.5Z" fill="#EEEDEB" stroke="#9C9C9C"/>
<g filter="url(#filter0_g_40000417_7586)">
<path d="M48.7748 34.5148C48.7748 39.6609 47.6231 43.8318 42.6845 43.8318C38.0571 43.8318 35.9302 39.6609 35.9302 34.5148C35.9302 29.3686 37.4968 25.1978 42.6845 25.1978C47.1978 25.1978 48.7748 29.3686 48.7748 34.5148Z" fill="#FBFBFB" stroke="#2C2C2C" stroke-miterlimit="10"/>
<path d="M35.9403 34.5148C35.9403 39.6609 34.7887 43.8318 29.85 43.8318C25.2226 43.8318 23.0957 39.6609 23.0957 34.5148C23.0957 29.3686 24.6624 25.1978 29.85 25.1978C34.3633 25.1978 35.9403 29.3686 35.9403 34.5148Z" fill="#FBFBFB" stroke="#2C2C2C" stroke-miterlimit="10"/>
<path d="M32.5684 30.1073C33.6267 30.1073 34.3102 30.5781 34.7578 31.3671C35.2262 32.1927 35.4404 33.3838 35.4404 34.7743C35.4404 36.184 35.2803 37.3703 34.8408 38.1913C34.6265 38.5915 34.3509 38.8967 33.998 39.1044C33.6442 39.3125 33.1815 39.4413 32.5684 39.4413C31.4647 39.4412 30.6811 38.9548 30.1523 38.1522C29.6084 37.3263 29.3233 36.1421 29.3232 34.7743C29.3232 33.3822 29.5391 32.2017 30.0439 31.3837C30.524 30.6059 31.2933 30.1074 32.5684 30.1073Z" fill="#2C2C2C" stroke="#2C2C2C"/>
<path d="M45.4028 30.1073C46.4611 30.1073 47.1447 30.5781 47.5923 31.3671C48.0607 32.1927 48.2749 33.3838 48.2749 34.7743C48.2749 36.184 48.1147 37.3703 47.6753 38.1913C47.461 38.5915 47.1854 38.8967 46.8325 39.1044C46.4787 39.3125 46.016 39.4413 45.4028 39.4413C44.2991 39.4412 43.5155 38.9548 42.9868 38.1522C42.4428 37.3263 42.1577 36.1421 42.1577 34.7743C42.1577 33.3822 42.3736 32.2017 42.8784 31.3837C43.3584 30.6059 44.1277 30.1074 45.4028 30.1073Z" fill="#2C2C2C" stroke="#2C2C2C"/>
<path d="M35.9722 43.9379C36.082 43.938 36.2722 43.9952 36.4341 44.1254C36.5876 44.2488 36.6644 44.3943 36.6646 44.5472C36.6646 44.7276 36.559 44.9772 36.3687 45.2015C36.2785 45.3077 36.185 45.3897 36.106 45.4408C36.053 45.475 36.0216 45.4855 36.0122 45.4886C35.8557 45.487 35.6483 45.4531 35.4927 45.349C35.3669 45.2648 35.2164 45.0997 35.2163 44.683C35.2163 44.344 35.3825 44.1755 35.5835 44.0658C35.6912 44.0071 35.8039 43.9702 35.8931 43.9486C35.9122 43.944 35.9302 43.941 35.9458 43.9379H35.9722Z" fill="#A7E1B6" stroke="#2C2C2C"/>
<path d="M21 23.7245C21 23.7245 22.7742 18.7028 28.0967 20.3214" stroke="#2C2C2C" stroke-miterlimit="10" stroke-linecap="round"/>
<path d="M39.3954 49.3825C39.3954 49.3825 34.5916 51.6858 31.9771 46.7679" stroke="#2C2C2C" stroke-miterlimit="10" stroke-linecap="round"/>
</g>
</g>
<defs>
<filter id="filter0_g_40000417_7586" x="20.1" y="19.0999" width="29.5749" height="31.7215" filterUnits="userSpaceOnUse" color-interpolation-filters="sRGB">
<feFlood flood-opacity="0" result="BackgroundImageFix"/>
<feBlend mode="normal" in="SourceGraphic" in2="BackgroundImageFix" result="shape"/>
<feTurbulence type="fractalNoise" baseFrequency="0.66666668653488159 0.66666668653488159" numOctaves="3" seed="7043" />
<feDisplacementMap in="shape" scale="0.80000001192092896" xChannelSelector="R" yChannelSelector="G" result="displacedImage" width="100%" height="100%" />
<feMerge result="effect1_texture_40000417_7586">
<feMergeNode in="displacedImage"/>
</feMerge>
</filter>
<clipPath id="clip0_40000417_7586">
<rect width="73" height="74" fill="white"/>
</clipPath>
</defs>
</svg>
