<svg width="62" height="62" viewBox="0 0 62 62" fill="none" xmlns="http://www.w3.org/2000/svg">
<g clip-path="url(#clip0_40000417_7644)">
<circle cx="31" cy="31" r="30.5753" fill="#EEEDEB" stroke="#9C9C9C" stroke-width="0.849315"/>
<path d="M12.7759 33.4828L5.0957 38.7554" stroke="#2C2C2C" stroke-width="0.849315" stroke-miterlimit="10" stroke-linecap="round"/>
<path d="M17.2476 33.4828L9.56738 38.7554" stroke="#2C2C2C" stroke-width="0.849315" stroke-miterlimit="10" stroke-linecap="round"/>
<path d="M22.573 33.4828L14.9023 38.7554" stroke="#2C2C2C" stroke-width="0.849315" stroke-miterlimit="10" stroke-linecap="round"/>
<path d="M44.0991 29.8585C44.0991 34.5036 43.0453 38.2684 38.5264 38.2684C34.2923 38.2684 32.3462 34.5036 32.3462 29.8585C32.3462 25.2134 33.7797 21.4486 38.5264 21.4486C42.6561 21.4486 44.0991 25.2134 44.0991 29.8585Z" fill="#FBFBFB" stroke="#2C2C2C" stroke-width="0.849315" stroke-miterlimit="10"/>
<path d="M32.3549 29.8585C32.3549 34.5036 31.3011 38.2684 26.7823 38.2684C22.5482 38.2684 20.6021 34.5036 20.6021 29.8585C20.6021 25.2134 22.0356 21.4486 26.7823 21.4486C30.9119 21.4486 32.3549 25.2134 32.3549 29.8585Z" fill="#FBFBFB" stroke="#2C2C2C" stroke-width="0.849315" stroke-miterlimit="10"/>
<path d="M32.3838 38.3367C32.4944 38.3367 32.6769 38.3929 32.8301 38.5144C32.9763 38.6305 33.0508 38.769 33.0508 38.9148C33.0507 39.0843 32.9513 39.3147 32.7744 39.5203C32.6904 39.6179 32.6019 39.6938 32.5264 39.7419C32.4424 39.7954 32.4111 39.7917 32.4316 39.7917C32.2832 39.7917 32.0787 39.7597 31.9248 39.658C31.8001 39.5754 31.6602 39.4176 31.6602 39.0359C31.6603 38.721 31.8183 38.5614 32.0107 38.4578C32.1128 38.4028 32.2199 38.3684 32.3037 38.3484C32.3252 38.3433 32.3447 38.3398 32.3613 38.3367H32.3838Z" fill="#A7E1B6" stroke="#2C2C2C" stroke-width="0.849315"/>
<path d="M18.6851 20.1187C18.6851 20.1187 20.3084 15.586 25.1786 17.0469" stroke="#2C2C2C" stroke-width="0.849315" stroke-miterlimit="10" stroke-linecap="round"/>
<path d="M30.3271 26.3978C31.1916 26.3979 32.0507 27.3285 32.0508 28.6586V28.8021C32.0358 28.8617 32.0105 28.9441 31.9707 29.0521C31.8966 29.2534 31.7863 29.5037 31.6465 29.7933C31.3671 30.3721 30.9817 31.0809 30.5615 31.8158C29.7367 33.2584 28.7911 34.7791 28.292 35.5746C27.7831 34.7846 26.8158 33.2688 25.9707 31.8236C25.5407 31.0883 25.1462 30.3777 24.8604 29.7933C24.7173 29.501 24.6051 29.2469 24.5293 29.0414C24.4485 28.8222 24.4268 28.7016 24.4268 28.6586C24.4268 27.317 25.2775 26.3978 26.1406 26.3978C26.8968 26.3981 27.6413 27.1007 27.8193 28.1879H28.6572C28.8353 27.1004 29.5907 26.3978 30.3271 26.3978Z" fill="#2C2C2C" stroke="#2C2C2C" stroke-width="0.849315"/>
<path d="M42.2173 26.3978C43.0818 26.3979 43.9409 27.3285 43.9409 28.6586V28.8021C43.9259 28.8617 43.9006 28.9441 43.8608 29.0521C43.7867 29.2534 43.6764 29.5037 43.5366 29.7933C43.2572 30.3721 42.8718 31.0809 42.4517 31.8158C41.6269 33.2584 40.6812 34.7791 40.1821 35.5746C39.6733 34.7846 38.7059 33.2688 37.8608 31.8236C37.4309 31.0883 37.0363 30.3777 36.7505 29.7933C36.6075 29.501 36.4952 29.2469 36.4194 29.0414C36.3387 28.8222 36.3169 28.7016 36.3169 28.6586C36.3169 27.317 37.1676 26.3978 38.0308 26.3978C38.787 26.3981 39.5314 27.1007 39.7095 28.1879H40.5474C40.7254 27.1004 41.4808 26.3978 42.2173 26.3978Z" fill="#2C2C2C" stroke="#2C2C2C" stroke-width="0.849315"/>
</g>
<defs>
<clipPath id="clip0_40000417_7644">
<rect width="62" height="62" fill="white"/>
</clipPath>
</defs>
</svg>
