<svg width="62" height="62" viewBox="0 0 62 62" fill="none" xmlns="http://www.w3.org/2000/svg">
<g clip-path="url(#clip0_40000417_7846)">
<circle cx="31" cy="31" r="30.5753" fill="#EEEDEB" stroke="#9C9C9C" stroke-width="0.849315"/>
<path d="M44.267 30.8208C44.267 35.8071 43.1358 39.8484 38.285 39.8484C33.74 39.8484 31.6509 35.8071 31.6509 30.8208C31.6509 25.8345 33.1897 21.7932 38.285 21.7932C42.718 21.7932 44.267 25.8345 44.267 30.8208Z" fill="#FBFBFB" stroke="#2C2C2C" stroke-width="0.849315" stroke-miterlimit="10"/>
<path d="M31.661 30.8208C31.661 35.8071 30.5298 39.8484 25.6791 39.8484C21.134 39.8484 19.0449 35.8071 19.0449 30.8208C19.0449 25.8345 20.5837 21.7932 25.6791 21.7932C30.112 21.7932 31.661 25.8345 31.661 30.8208Z" fill="#FBFBFB" stroke="#2C2C2C" stroke-width="0.849315" stroke-miterlimit="10"/>
<path d="M25.3677 30.4211C26.4355 30.4211 27.1273 30.8928 27.5767 31.6741C28.0439 32.4866 28.2554 33.6522 28.2554 35.0032C28.2553 36.3706 28.0983 37.5318 27.6597 38.3401C27.445 38.7356 27.1661 39.04 26.8071 39.2483C26.4471 39.4572 25.9804 39.5842 25.3677 39.5842C24.2574 39.5842 23.4678 39.1001 22.938 38.3069C22.3952 37.4941 22.1138 36.3345 22.1138 35.0032C22.1138 33.6508 22.3253 32.4938 22.8296 31.6877C23.3128 30.9155 24.0911 30.4212 25.3677 30.4211Z" fill="#2C2C2C" stroke="#2C2C2C" stroke-width="0.849315"/>
<path d="M38.4727 30.4211C39.5404 30.4211 40.2323 30.8928 40.6816 31.6741C41.1489 32.4866 41.3604 33.6522 41.3604 35.0032C41.3603 36.3706 41.2033 37.5318 40.7646 38.3401C40.55 38.7356 40.2711 39.04 39.9121 39.2483C39.5521 39.4572 39.0854 39.5842 38.4727 39.5842C37.3624 39.5842 36.5728 39.1001 36.043 38.3069C35.5001 37.4941 35.2188 36.3345 35.2188 35.0032C35.2188 33.6508 35.4303 32.4938 35.9346 31.6877C36.4178 30.9155 37.196 30.4212 38.4727 30.4211Z" fill="#2C2C2C" stroke="#2C2C2C" stroke-width="0.849315"/>
<path d="M31.6924 39.8907C31.819 39.8909 32.0204 39.954 32.1895 40.088C32.3519 40.2169 32.4395 40.3735 32.4395 40.5421C32.4394 40.7343 32.3272 40.9883 32.1348 41.212C32.043 41.3187 31.9463 41.4026 31.8623 41.4562C31.7696 41.5153 31.7296 41.5148 31.7432 41.5148C31.5808 41.5148 31.355 41.4801 31.1826 41.3663C31.0394 41.2717 30.8839 41.0926 30.8838 40.673C30.8838 40.3199 31.0628 40.1386 31.2764 40.0236C31.389 39.963 31.5069 39.9254 31.5986 39.9034C31.6227 39.8977 31.6445 39.8943 31.6631 39.8907H31.6924Z" fill="#A7E1B6" stroke="#2C2C2C" stroke-width="0.849315"/>
<path d="M16.9863 20.3656C16.9863 20.3656 18.7289 15.5 23.9568 17.0682" stroke="#2C2C2C" stroke-width="0.849315" stroke-miterlimit="10" stroke-linecap="round"/>
<path d="M19.5342 44.4054C21.3578 44.4054 21.3578 46.0811 23.1712 46.0811C24.9845 46.0811 24.9845 44.4054 26.8081 44.4054C28.6318 44.4054 28.6318 46.0811 30.4451 46.0811C32.2585 46.0811 32.2688 44.4054 34.0821 44.4054C35.8954 44.4054 35.9057 46.0811 37.7191 46.0811C39.5324 46.0811 39.5427 44.4054 41.3663 44.4054C43.19 44.4054 43.19 46.0811 45.0136 46.0811" stroke="#2C2C2C" stroke-width="0.849315" stroke-miterlimit="10" stroke-linecap="round"/>
</g>
<defs>
<clipPath id="clip0_40000417_7846">
<rect width="62" height="62" fill="white"/>
</clipPath>
</defs>
</svg>
