<svg width="62" height="62" viewBox="0 0 62 62" fill="none" xmlns="http://www.w3.org/2000/svg">
<g clip-path="url(#clip0_40000417_7730)">
<circle cx="31" cy="31" r="30.5753" fill="#EEEDEB" stroke="#9C9C9C" stroke-width="0.849315"/>
<path d="M31.372 29.6476V29.9813C31.372 30.1899 31.3614 30.3985 31.3614 30.6071V30.701C31.3402 30.9826 31.3297 31.2642 31.3085 31.5353C31.3085 31.6292 31.298 31.7126 31.2874 31.7961C30.9596 35.9366 29.4795 39.0133 25.166 39.0133C20.4613 39.0133 18.2939 34.8206 18.2939 29.6476C18.2939 27.1654 18.664 24.8917 19.6472 23.223C21.3811 24.0365 23.5167 24.8292 26.0329 25.4236C27.3756 25.747 28.824 26.0077 30.3993 26.185C30.6213 26.2163 30.8539 26.2371 31.0865 26.258C31.2874 27.3114 31.372 28.4482 31.372 29.6476Z" fill="#FBFBFB" stroke="#2C2C2C" stroke-width="0.849315" stroke-miterlimit="10"/>
<path d="M44.4501 29.6477C44.4501 29.825 44.4501 30.0023 44.4395 30.1796C44.3655 35.1024 43.118 39.0134 38.2547 39.0134C33.3914 39.0134 31.3721 34.8208 31.3721 29.6477C31.3721 28.4692 31.4566 27.3428 31.647 26.3103C33.5394 26.4667 35.5904 26.5085 37.8001 26.3729C39.5974 26.279 41.511 26.0704 43.5197 25.7158C43.6995 25.695 43.8686 25.6637 44.0483 25.6219C44.2915 26.6858 44.4184 27.8539 44.4395 29.0845C44.4501 29.2723 44.4501 29.46 44.4501 29.6477Z" fill="#FBFBFB" stroke="#2C2C2C" stroke-width="0.849315" stroke-miterlimit="10"/>
<path d="M26.1089 25.877C27.3632 26.1719 28.707 26.4134 30.1567 26.584C30.607 27.281 30.8556 28.2733 30.9263 29.4395L30.9468 29.9873V30.1689C30.9468 30.3173 30.9463 30.4482 30.937 30.5762L30.936 30.5918V30.6797C30.9255 30.8216 30.9183 30.9633 30.9106 31.0986C30.9027 31.2385 30.8944 31.3726 30.8843 31.5029L30.8833 31.5186V31.5352C30.8833 31.5985 30.8766 31.6575 30.8657 31.7432L30.8647 31.7451C30.742 32.7483 30.4798 33.5448 30.0298 34.0859C29.5966 34.6067 28.9498 34.9385 27.9351 34.9385C26.7776 34.9384 25.9533 34.4327 25.4009 33.6055C24.8354 32.7586 24.5435 31.5521 24.5435 30.1689C24.5435 28.1523 24.9969 26.6058 26.1089 25.877Z" fill="#2C2C2C" stroke="#2C2C2C" stroke-width="0.849315"/>
<path d="M43.3105 26.1805C43.7336 26.9089 43.9587 27.917 44.0146 29.1044L44.0156 29.1083C44.0254 29.282 44.0254 29.4577 44.0254 29.6473C44.0254 29.8267 44.0253 29.9916 44.0156 30.1542L44.0146 30.1678C43.9782 31.4552 43.7774 32.5279 43.3174 33.2684C42.8806 33.9715 42.185 34.4169 41.0137 34.4169C39.8562 34.4168 39.0319 33.9111 38.4795 33.0839C37.9141 32.237 37.6221 31.0305 37.6221 29.6473C37.6221 28.5438 37.762 27.5627 38.085 26.7802C39.7375 26.6842 41.4845 26.492 43.3105 26.1805Z" fill="#2C2C2C" stroke="#2C2C2C" stroke-width="0.849315"/>
<path d="M44.0479 25.6219C43.8681 25.6636 43.699 25.6949 43.5193 25.7158C41.5105 26.0704 39.5969 26.2789 37.7996 26.3728C35.59 26.5084 33.5389 26.4667 31.6465 26.3102C32.2914 22.7851 34.1733 20.282 38.2542 20.282C41.5739 20.282 43.329 22.4617 44.0479 25.6219Z" stroke="#2C2C2C" stroke-width="0.849315" stroke-miterlimit="10"/>
<path d="M31.0858 26.2581C30.8532 26.2372 30.6206 26.2164 30.3986 26.1851C28.8233 26.0078 27.3749 25.747 26.0322 25.4237C23.516 24.8292 21.3804 24.0366 19.6465 23.2231C20.6826 21.4084 22.427 20.282 25.1653 20.282C28.707 20.282 30.4726 22.7642 31.0858 26.2581Z" stroke="#2C2C2C" stroke-width="0.849315" stroke-miterlimit="10" stroke-linecap="round"/>
<path d="M31.6463 26.3109C31.456 26.3109 31.2657 26.2792 31.0859 26.2581" stroke="#2C2C2C" stroke-width="0.849315" stroke-miterlimit="10" stroke-linecap="round"/>
<path d="M49.26 24.4537C47.4522 24.9439 45.7183 25.3298 44.0479 25.6218" stroke="#2C2C2C" stroke-width="0.849315" stroke-miterlimit="10" stroke-linecap="round"/>
<path d="M19.6468 23.223C15.5765 21.3144 13.5889 19.2703 13.5889 19.2703" stroke="#2C2C2C" stroke-width="0.849315" stroke-miterlimit="10" stroke-linecap="round"/>
<path d="M31.8955 38.385C32.0309 38.385 32.2439 38.4509 32.4219 38.592C32.593 38.7278 32.6864 38.8946 32.6865 39.0754C32.6865 39.2801 32.5675 39.5477 32.3662 39.7815C32.27 39.8932 32.1687 39.9808 32.0801 40.0374C31.983 40.0992 31.9388 40.1008 31.9482 40.1008C31.7782 40.1008 31.5399 40.0652 31.3574 39.9446C31.2041 39.8432 31.041 39.6516 31.041 39.2112C31.0411 38.8376 31.2319 38.6458 31.457 38.5247C31.5752 38.4611 31.698 38.4217 31.7939 38.3987C31.8189 38.3927 31.842 38.3887 31.8613 38.385H31.8955Z" fill="#A7E1B6" stroke="#2C2C2C" stroke-width="0.849315"/>
<path d="M26.3286 43.8308C26.3286 43.8308 29.543 38.1085 38.219 44.9377" stroke="#2C2C2C" stroke-width="0.849315" stroke-miterlimit="10" stroke-linecap="round"/>
</g>
<defs>
<clipPath id="clip0_40000417_7730">
<rect width="62" height="62" fill="white"/>
</clipPath>
</defs>
</svg>
