<svg width="62" height="62" viewBox="0 0 62 62" fill="none" xmlns="http://www.w3.org/2000/svg">
<g clip-path="url(#clip0_40000417_7794)">
<circle cx="31" cy="31" r="30.5753" fill="#EEEDEB" stroke="#9C9C9C" stroke-width="0.849315"/>
<path d="M45.0138 31.2058C45.0138 36.3286 43.8516 40.4806 38.8681 40.4806C34.1985 40.4806 32.0522 36.3286 32.0522 31.2058C32.0522 26.083 33.6332 21.931 38.8681 21.931C43.4224 21.931 45.0138 26.083 45.0138 31.2058Z" fill="#FBFBFB" stroke="#2C2C2C" stroke-width="0.849315" stroke-miterlimit="10"/>
<path d="M32.0626 31.2058C32.0626 36.3286 30.9005 40.4806 25.9169 40.4806C21.2474 40.4806 19.1011 36.3286 19.1011 31.2058C19.1011 26.083 20.682 21.931 25.9169 21.931C30.4712 21.931 32.0626 26.083 32.0626 31.2058Z" fill="#FBFBFB" stroke="#2C2C2C" stroke-width="0.849315" stroke-miterlimit="10"/>
<path d="M25.5972 26.7454C26.6987 26.7454 27.4128 27.2331 27.8765 28.0393C28.3579 28.8766 28.5757 30.0754 28.5757 31.4641C28.5757 32.8696 28.4146 34.0655 27.9624 34.8987C27.7411 35.3064 27.4533 35.6209 27.0825 35.8362C26.7106 36.052 26.2283 36.1829 25.5972 36.1829C24.4526 36.1828 23.6377 35.6833 23.0913 34.8655C22.5319 34.0278 22.2427 32.8335 22.2427 31.4641C22.2427 30.0739 22.4602 28.8828 22.98 28.052C23.4787 27.255 24.2821 26.7454 25.5972 26.7454Z" fill="#2C2C2C" stroke="#2C2C2C" stroke-width="0.849315"/>
<path d="M38.5483 26.7454C39.6499 26.7454 40.364 27.2331 40.8276 28.0393C41.3091 28.8766 41.5269 30.0754 41.5269 31.4641C41.5268 32.8696 41.3657 34.0655 40.9136 34.8987C40.6923 35.3064 40.4045 35.6209 40.0337 35.8362C39.6617 36.052 39.1795 36.1829 38.5483 36.1829C37.4038 36.1828 36.5888 35.6833 36.0425 34.8655C35.483 34.0278 35.1939 32.8335 35.1938 31.4641C35.1938 30.0739 35.4113 28.8828 35.9312 28.052C36.4299 27.255 37.2332 26.7454 38.5483 26.7454Z" fill="#2C2C2C" stroke="#2C2C2C" stroke-width="0.849315"/>
<path d="M32.0942 40.5123C32.2272 40.5123 32.4372 40.5782 32.6128 40.7174C32.7816 40.8513 32.8735 41.0154 32.8735 41.193C32.8735 41.3943 32.7569 41.6582 32.5581 41.8893C32.4631 41.9997 32.3623 42.0865 32.2749 42.1422C32.1985 42.1909 32.1558 42.2015 32.147 42.2037C31.979 42.2037 31.7438 42.1682 31.564 42.0494C31.4134 41.9498 31.2525 41.7622 31.2524 41.3278C31.2524 40.9594 31.4404 40.7705 31.6626 40.651C31.7794 40.5881 31.9007 40.5487 31.9956 40.526C32.0216 40.5198 32.0451 40.5161 32.0649 40.5123H32.0942Z" fill="#A7E1B6" stroke="#2C2C2C" stroke-width="0.849315"/>
<path d="M16.9863 20.4644C16.9863 20.4644 18.7767 15.4655 24.1476 17.0767" stroke="#2C2C2C" stroke-width="0.849315" stroke-miterlimit="10" stroke-linecap="round"/>
<path d="M38.4526 44.4054H26.9444C26.6043 44.4054 26.3286 44.7805 26.3286 45.2432C26.3286 45.706 26.6043 46.0811 26.9444 46.0811H38.4526C38.7926 46.0811 39.0683 45.706 39.0683 45.2432C39.0683 44.7805 38.7926 44.4054 38.4526 44.4054Z" stroke="#2C2C2C" stroke-width="0.849315" stroke-miterlimit="10" stroke-linecap="round"/>
</g>
<defs>
<clipPath id="clip0_40000417_7794">
<rect width="62" height="62" fill="white"/>
</clipPath>
</defs>
</svg>
