<svg width="260" height="338" viewBox="0 0 260 338" fill="none" xmlns="http://www.w3.org/2000/svg">
<g clip-path="url(#clip0_40002001_6161)">
<path d="M261.725 315.356C259.382 324.236 246.849 324.445 244.212 315.65C236.271 320.271 227.268 311.561 231.623 303.469C222.743 301.126 222.534 288.593 231.328 285.956C226.708 278.015 235.417 269.011 243.51 273.366C245.853 264.486 258.386 264.277 261.023 273.072C268.964 268.452 277.967 277.161 273.613 285.254C282.493 287.597 282.702 300.129 273.907 302.767C278.527 310.708 269.818 319.711 261.725 315.356Z" fill="#FBD7D5"/>
</g>
<g clip-path="url(#clip1_40002001_6161)">
<path d="M-1.97844 123.705C-0.277112 130.203 8.82188 130.356 10.7367 123.921C16.5019 127.301 23.0386 120.929 19.877 115.007C26.3242 113.293 26.4757 104.122 20.0906 102.193C23.445 96.3823 17.1219 89.7945 11.2464 92.9808C9.54512 86.4833 0.446127 86.3306 -1.46872 92.7656C-7.23394 89.385 -13.7706 95.7576 -10.609 101.679C-17.0562 103.394 -17.2077 112.564 -10.8226 114.494C-14.177 120.304 -7.85386 126.892 -1.97844 123.705Z" fill="#FBD7D5"/>
</g>
<defs>
<clipPath id="clip0_40002001_6161">
<rect width="69.2564" height="77.7949" fill="white" transform="translate(189.744 255.205)"/>
</clipPath>
<clipPath id="clip1_40002001_6161">
<rect width="50.2821" height="56.9231" fill="white" transform="matrix(-1 0 0 1 50.2822 79.6923)"/>
</clipPath>
</defs>
</svg>
