<svg width="261" height="339" viewBox="0 0 261 339" fill="none" xmlns="http://www.w3.org/2000/svg">
<rect x="0.525641" y="0.525641" width="259.949" height="337.949" rx="13.7564" stroke="#9C9C9C" stroke-width="0.948718"/>
<g clip-path="url(#clip0_40002002_5589)">
<path d="M7.66199 299.678C0.115115 298.333 -6.9382 296.614 -12.1954 294.837C-16.5625 293.363 -23.8666 290.891 -22.849 285.182C-22.4366 282.868 -20.8676 281.588 -19.145 280.863C-18.9016 279.059 -18.2259 277.326 -17.1319 275.877C-15.0198 273.069 -11.7037 271.668 -8.04867 272.044C-7.70548 272.075 -7.3654 272.124 -7.0274 272.184C-5.38398 272.477 -3.65589 273.037 -1.85955 273.855L-0.61615 269.577C-4.13761 268.014 -7.35445 266.091 -10.2153 263.824C-15.5694 259.588 -18.6707 252.935 -18.5187 246.01C-18.4724 243.894 -18.2505 241.738 -17.8702 239.605C-16.9282 234.32 -14.9837 229.28 -12.2515 225.016C-6.14086 215.494 3.30827 210.586 12.417 212.209C15.7446 212.802 18.8143 214.201 21.5488 216.368C21.6597 216.454 21.7924 216.519 21.9322 216.544C22.0721 216.569 22.2123 216.558 22.353 216.511C25.6794 215.425 29.0376 215.172 32.3535 215.763C41.9576 217.474 49.4471 226.259 51.4406 238.15C52.1949 242.621 52.1495 247.262 51.3163 251.936C50.994 253.744 50.5563 255.526 50.0092 257.246C48.016 263.537 43.3565 268.561 37.2242 271.019C33.903 272.347 30.2233 273.257 26.39 273.713L26.5192 276.597C27.7225 276.29 28.9314 276.086 30.1577 275.986C30.4938 275.956 30.8336 275.939 31.1645 275.938C31.8808 275.933 32.5565 275.988 33.2092 276.104C38.2094 276.995 41.6633 281.468 41.4164 286.733C41.3296 288.637 40.7794 290.374 39.874 291.845C41.0018 293.107 41.6543 294.675 41.3082 296.617C40.2906 302.326 32.5825 302.122 27.9749 301.997C22.4276 301.848 15.2147 301.024 7.66782 299.679L7.66199 299.678Z" fill="#FBFBFB" stroke="#9C9C9C" stroke-width="0.948718" stroke-miterlimit="10"/>
<g filter="url(#filter0_g_40002002_5589)">
<path d="M9.8797 287.239C17.4339 288.585 24.1808 290.263 28.9799 291.885C31.3829 292.697 33.2775 293.488 34.5376 294.207C35.1703 294.568 35.6177 294.895 35.8887 295.18C36.1705 295.477 36.1843 295.642 36.1736 295.702C36.1626 295.763 36.092 295.912 35.7261 296.093C35.3732 296.267 34.8402 296.42 34.1217 296.54C32.6909 296.779 30.6396 296.867 28.1041 296.799C23.0403 296.662 16.129 295.906 8.57481 294.56C1.02066 293.213 -5.72626 291.535 -10.5254 289.913C-12.9283 289.102 -14.823 288.31 -16.0831 287.592C-16.7158 287.231 -17.1632 286.903 -17.4342 286.618C-17.7153 286.322 -17.7298 286.157 -17.7193 286.097C-17.7085 286.037 -17.6385 285.886 -17.2716 285.705C-16.9187 285.531 -16.3856 285.378 -15.6672 285.258C-14.2364 285.019 -12.1851 284.931 -9.64958 285C-4.58574 285.136 2.32555 285.892 9.8797 287.239Z" fill="#2C2C2C" stroke="#2C2C2C" stroke-width="0.948718"/>
<path d="M14.9459 248.357L8.03523 287.129C7.657 289.251 5.62528 290.665 3.49817 290.286L-9.86476 287.904C-16.8638 286.656 -15.6002 276.024 -8.52427 276.74C-8.30553 276.761 -8.08304 276.794 -7.85576 276.835C-4.92443 277.357 -1.73606 279.035 1.00692 280.952L10.7198 247.61L14.9448 248.363L14.9459 248.357Z" fill="#CBCBC5" stroke="#2C2C2C" stroke-width="0.948718" stroke-miterlimit="10"/>
<path d="M3.70785 283.137C3.14271 282.664 1.90325 281.555 -0.558594 279.917Z" fill="#CBCBC5"/>
<path d="M3.70785 283.137C3.14271 282.664 1.90325 281.555 -0.558594 279.917" stroke="#2C2C2C" stroke-width="0.948718" stroke-miterlimit="10" stroke-linecap="round"/>
<path d="M16.3439 250.97L13.7601 289.452C13.9421 291.601 15.8283 293.197 17.9829 293.018L31.5064 291.901C38.5915 291.316 38.3164 280.614 31.208 280.654C30.9851 280.657 30.7612 280.665 30.5352 280.684C27.5693 280.93 24.981 281.89 22.0708 283.543L20.616 250.615L16.338 250.969L16.3439 250.97Z" fill="#CBCBC5" stroke="#2C2C2C" stroke-width="0.948718" stroke-miterlimit="10"/>
<path d="M18.4235 285.856C19.0275 285.436 20.3695 284.451 22.9704 283.049Z" fill="#CBCBC5"/>
<path d="M18.4235 285.856C19.0275 285.436 20.3695 284.451 22.9704 283.049" stroke="#2C2C2C" stroke-width="0.948718" stroke-miterlimit="10" stroke-linecap="round"/>
</g>
<g filter="url(#filter1_g_40002002_5589)">
<path d="M46.6481 251.104C46.358 252.732 45.9692 254.306 45.4895 255.817C43.9316 260.746 40.2537 264.715 35.444 266.635C29.2345 269.121 21.5311 270.004 13.442 268.766C13.032 268.705 12.623 268.638 12.2092 268.564L11.8538 268.501C4.33472 267.101 -2.28212 264.08 -7.27623 260.118C-11.5438 256.736 -13.9136 251.545 -13.7876 246.115C-13.745 244.257 -13.556 242.353 -13.214 240.435C-12.3509 235.592 -10.6081 231.212 -8.26897 227.567C-3.3729 219.934 4.12249 215.53 11.582 216.859C14.1753 217.321 16.5329 218.431 18.5929 220.064C20.0846 221.242 22.0369 221.59 23.8378 220.999C26.3282 220.183 28.9252 219.95 31.5127 220.411C39.4209 221.821 45.1428 229.289 46.7569 238.923C47.3959 242.726 47.3977 246.865 46.6423 251.103L46.6481 251.104Z" fill="#EEEDEB"/>
<path d="M46.6481 251.104C46.358 252.732 45.9692 254.306 45.4895 255.817C43.9316 260.746 40.2537 264.715 35.444 266.635C29.2345 269.121 21.5311 270.004 13.442 268.766C13.032 268.705 12.623 268.638 12.2092 268.564L11.8538 268.501C4.33472 267.101 -2.28212 264.08 -7.27623 260.118C-11.5438 256.736 -13.9136 251.545 -13.7876 246.115C-13.745 244.257 -13.556 242.353 -13.214 240.435C-12.3509 235.592 -10.6081 231.212 -8.26897 227.567C-3.3729 219.934 4.12249 215.53 11.582 216.859C14.1753 217.321 16.5329 218.431 18.5929 220.064C20.0846 221.242 22.0369 221.59 23.8378 220.999C26.3282 220.183 28.9252 219.95 31.5127 220.411C39.4209 221.821 45.1428 229.289 46.7569 238.923C47.3959 242.726 47.3977 246.865 46.6423 251.103L46.6481 251.104Z" stroke="#2C2C2C" stroke-width="0.948718" stroke-miterlimit="10"/>
</g>
<g filter="url(#filter2_g_40002002_5589)">
<path d="M17.7641 242.663C17.2502 245.547 16.1867 247.768 13.4127 247.274C10.8136 246.811 10.0355 244.261 10.5494 241.377C11.0634 238.493 12.36 236.313 15.2738 236.832C17.8089 237.284 18.2781 239.779 17.7641 242.663Z" fill="#FBFBFB" stroke="#2C2C2C" stroke-width="0.948718" stroke-miterlimit="10"/>
<path d="M24.979 243.949C24.465 246.832 23.4016 249.054 20.6276 248.56C18.0284 248.097 17.2503 245.547 17.7643 242.663C18.2783 239.779 19.5748 237.599 22.4887 238.118C25.0237 238.57 25.493 241.065 24.979 243.949Z" fill="#FBFBFB" stroke="#2C2C2C" stroke-width="0.948718" stroke-miterlimit="10"/>
<path d="M16.2508 240.188C16.7743 240.281 17.0586 240.563 17.2099 240.99C17.3745 241.454 17.3821 242.105 17.2458 242.87C17.1061 243.654 16.9031 244.263 16.6048 244.64C16.4625 244.821 16.3043 244.94 16.1229 245.007C15.9406 245.074 15.7031 245.101 15.3852 245.044C14.8309 244.945 14.4902 244.639 14.2972 244.191C14.0939 243.72 14.0491 243.068 14.1818 242.324C14.3185 241.557 14.5493 240.959 14.8796 240.59C15.18 240.255 15.5942 240.071 16.2508 240.188Z" fill="#2C2C2C" stroke="#2C2C2C" stroke-width="0.948718"/>
<path d="M23.5174 241.183C24.0409 241.277 24.3252 241.558 24.4765 241.985C24.6411 242.449 24.6487 243.1 24.5124 243.865C24.3727 244.649 24.1697 245.258 23.8714 245.636C23.7291 245.816 23.5709 245.935 23.3895 246.002C23.2072 246.07 22.9697 246.096 22.6518 246.039C22.0975 245.94 21.7568 245.634 21.5638 245.187C21.3605 244.715 21.3157 244.064 21.4484 243.319C21.5851 242.552 21.8159 241.954 22.1462 241.586C22.4466 241.25 22.8608 241.066 23.5174 241.183Z" fill="#2C2C2C" stroke="#2C2C2C" stroke-width="0.948718"/>
<path d="M17.2936 248.14C17.2936 248.14 14.3236 247.766 14.4054 249.466C14.4872 251.167 18.6558 251.562 19.363 250.968C20.0701 250.374 19.9388 248.749 17.2946 248.134L17.2936 248.14Z" fill="#FBD7D5" stroke="#2C2C2C" stroke-width="0.948718" stroke-miterlimit="10"/>
<path d="M8.48926 247.47C8.48926 247.47 9.66842 254.855 18.0139 252.731" stroke="#2C2C2C" stroke-width="0.948718" stroke-miterlimit="10" stroke-linecap="round"/>
<path d="M3.92833 244.624C3.91822 244.68 3.8644 244.716 3.81035 244.707C3.76966 244.7 3.73786 244.668 3.72902 244.629L3.72835 244.588C3.73845 244.531 3.79224 244.495 3.84633 244.505L3.88342 244.519C3.91641 244.541 3.9359 244.581 3.92833 244.624Z" fill="#2C2C2C" stroke="#2C2C2C" stroke-width="0.948718"/>
<path d="M6.21885 245.032C6.20875 245.089 6.15492 245.125 6.10087 245.115C6.06019 245.108 6.02838 245.076 6.01954 245.037L6.01888 244.996C6.02898 244.94 6.08276 244.904 6.13686 244.913L6.17394 244.928C6.20694 244.949 6.22643 244.989 6.21885 245.032Z" fill="#2C2C2C" stroke="#2C2C2C" stroke-width="0.948718"/>
<path d="M4.87461 245.962C4.86451 246.019 4.81068 246.055 4.75663 246.045C4.71595 246.038 4.68415 246.006 4.67531 245.967L4.67464 245.927C4.68474 245.87 4.73852 245.834 4.79262 245.843L4.82971 245.858C4.8627 245.879 4.88219 245.92 4.87461 245.962Z" fill="#2C2C2C" stroke="#2C2C2C" stroke-width="0.948718"/>
<path d="M25.5841 248.484C25.574 248.54 25.5202 248.576 25.4661 248.567C25.4254 248.559 25.3936 248.528 25.3848 248.489L25.3841 248.448C25.3942 248.391 25.448 248.355 25.5021 248.365L25.5392 248.379C25.5722 248.401 25.5917 248.441 25.5841 248.484Z" fill="#2C2C2C" stroke="#2C2C2C" stroke-width="0.948718"/>
<path d="M27.8741 248.892C27.864 248.948 27.8102 248.984 27.7561 248.975C27.7155 248.968 27.6837 248.936 27.6748 248.897L27.6742 248.856C27.6843 248.799 27.738 248.763 27.7921 248.773L27.8292 248.787C27.8622 248.809 27.8817 248.849 27.8741 248.892Z" fill="#2C2C2C" stroke="#2C2C2C" stroke-width="0.948718"/>
<path d="M26.5304 249.822C26.5203 249.879 26.4664 249.915 26.4124 249.905C26.3717 249.898 26.3399 249.866 26.3311 249.827L26.3304 249.786C26.3405 249.73 26.3943 249.693 26.4484 249.703L26.4855 249.718C26.5185 249.739 26.538 249.779 26.5304 249.822Z" fill="#2C2C2C" stroke="#2C2C2C" stroke-width="0.948718"/>
</g>
<path d="M18.0351 292.757C18.0351 292.757 31.539 283.485 33.6931 286.58" stroke="black" stroke-width="0.948718" stroke-miterlimit="10" stroke-linecap="round"/>
</g>
<g clip-path="url(#clip1_40002002_5589)">
<path d="M259.285 127.855C266.529 125.989 273.265 123.797 278.249 121.68C282.39 119.923 289.315 116.98 287.903 111.5C287.331 109.279 285.71 108.149 283.981 107.571C283.611 105.833 282.826 104.197 281.654 102.868C279.392 100.291 276.062 99.1727 272.533 99.8076C272.202 99.8633 271.874 99.9357 271.55 100.019C269.973 100.425 268.332 101.098 266.645 102.026L265.119 97.956C268.431 96.1751 271.419 94.0667 274.035 91.6494C278.933 87.1332 281.459 80.4308 280.801 73.7036C280.6 71.6489 280.225 69.5675 279.697 67.5194C278.391 62.4467 276.127 57.6861 273.154 53.7388C266.506 44.9241 256.95 40.8453 248.207 43.0968C245.013 43.9193 242.129 45.5069 239.628 47.8171C239.526 47.9087 239.402 47.9824 239.268 48.0169C239.134 48.0515 238.996 48.0512 238.856 48.0159C235.539 47.2038 232.253 47.2051 229.07 48.0248C219.851 50.3987 213.212 59.4992 212.149 71.2159C211.745 75.6223 212.132 80.1344 213.287 84.6212C213.734 86.3567 214.291 88.0579 214.951 89.6912C217.354 95.6656 222.258 100.21 228.406 102.15C231.736 103.197 235.383 103.811 239.147 103.972L239.234 106.788C238.041 106.578 236.849 106.468 235.649 106.462C235.319 106.457 234.987 106.465 234.665 106.489C233.968 106.537 233.315 106.64 232.688 106.802C227.889 108.038 224.858 112.644 225.486 117.749C225.711 119.595 226.375 121.245 227.364 122.609C226.36 123.921 225.841 125.494 226.321 127.358C227.732 132.838 235.217 132.071 239.691 131.609C245.078 131.055 252.035 129.722 259.279 127.856L259.285 127.855Z" fill="#FBFBFB" stroke="#9C9C9C" stroke-width="0.948718" stroke-miterlimit="10"/>
<g filter="url(#filter3_g_40002002_5589)">
<path d="M256.213 115.926C248.962 117.793 242.522 119.923 237.972 121.854C235.694 122.821 233.909 123.731 232.737 124.523C232.148 124.92 231.739 125.273 231.498 125.569C231.246 125.877 231.247 126.034 231.26 126.087C231.274 126.139 231.35 126.277 231.718 126.426C232.073 126.568 232.601 126.678 233.308 126.742C234.717 126.869 236.719 126.803 239.181 126.55C244.098 126.044 250.766 124.799 258.017 122.932C265.267 121.064 271.708 118.934 276.257 117.002C278.535 116.035 280.32 115.126 281.492 114.334C282.081 113.936 282.49 113.585 282.732 113.289C282.983 112.981 282.982 112.824 282.969 112.771C282.955 112.719 282.88 112.58 282.511 112.432C282.157 112.289 281.628 112.178 280.921 112.114C279.512 111.987 277.51 112.053 275.048 112.307C270.131 112.813 263.463 114.059 256.213 115.926Z" fill="#2C2C2C" stroke="#2C2C2C" stroke-width="0.948718"/>
<path d="M248.413 78.4559L257.997 115.673C258.521 117.709 260.602 118.935 262.644 118.409L275.471 115.106C282.189 113.376 280.175 103.124 273.343 104.342C273.132 104.378 272.918 104.428 272.7 104.484C269.886 105.208 266.907 107.076 264.38 109.143L252.47 77.4171L248.414 78.4615L248.413 78.4559Z" fill="#CBCBC5" stroke="#2C2C2C" stroke-width="0.948718" stroke-miterlimit="10"/>
<path d="M247.245 81.1013L252.597 118.354C252.578 120.46 250.861 122.152 248.751 122.136L235.51 122.046C228.573 122 228.051 111.566 234.971 111.081C235.188 111.067 235.406 111.059 235.628 111.061C238.532 111.081 241.121 111.824 244.075 113.218L243.062 81.0717L247.25 81.0999L247.245 81.1013Z" fill="#CBCBC5" stroke="#2C2C2C" stroke-width="0.948718" stroke-miterlimit="10"/>
<path d="M247.794 115.2C247.175 114.835 245.797 113.976 243.163 112.804Z" fill="#CBCBC5"/>
<path d="M247.794 115.2C247.175 114.835 245.797 113.976 243.163 112.804" stroke="#2C2C2C" stroke-width="0.948718" stroke-miterlimit="10" stroke-linecap="round"/>
</g>
<g filter="url(#filter4_g_40002002_5589)">
<path d="M217.768 83.4674C218.17 85.03 218.665 86.5331 219.243 87.9671C221.122 92.6482 224.993 96.2392 229.815 97.7527C236.04 99.714 243.601 100.004 251.381 98.2034C251.775 98.1137 252.168 98.0185 252.565 97.9162L252.906 97.8283C260.119 95.9114 266.335 92.484 270.902 88.2611C274.805 84.6556 276.728 79.4297 276.205 74.1553C276.026 72.3506 275.702 70.5121 275.228 68.6705C274.031 64.0219 272.012 59.8884 269.467 56.5151C264.14 49.449 256.522 45.716 249.362 47.5599C246.873 48.2009 244.661 49.4549 242.777 51.1956C241.412 52.4515 239.538 52.9341 237.742 52.4921C235.259 51.8819 232.715 51.8468 230.231 52.4864C222.64 54.4412 217.623 62.13 216.763 71.6225C216.422 75.37 216.726 79.3978 217.773 83.466L217.768 83.4674Z" fill="#EEEDEB"/>
<path d="M217.768 83.4674C218.17 85.03 218.665 86.5331 219.243 87.9671C221.122 92.6482 224.993 96.2392 229.815 97.7527C236.04 99.714 243.601 100.004 251.381 98.2034C251.775 98.1137 252.168 98.0185 252.565 97.9162L252.906 97.8283C260.119 95.9114 266.335 92.484 270.902 88.2611C274.805 84.6556 276.728 79.4297 276.205 74.1553C276.026 72.3506 275.702 70.5121 275.228 68.6705C274.031 64.0219 272.012 59.8884 269.467 56.5151C264.14 49.449 256.522 45.716 249.362 47.5599C246.873 48.2009 244.661 49.4549 242.777 51.1956C241.412 52.4515 239.538 52.9341 237.742 52.4921C235.259 51.8819 232.715 51.8468 230.231 52.4864C222.64 54.4412 217.623 62.13 216.763 71.6225C216.422 75.37 216.726 79.3978 217.773 83.466L217.768 83.4674Z" stroke="#2C2C2C" stroke-width="0.948718" stroke-miterlimit="10"/>
</g>
<g filter="url(#filter5_g_40002002_5589)">
<path d="M245.249 73.1233C245.962 75.8912 247.161 77.9747 249.823 77.289C252.318 76.6466 252.887 74.1079 252.174 71.3399C251.461 68.572 250.039 66.5461 247.242 67.2664C244.809 67.893 244.536 70.3553 245.249 73.1233Z" fill="#FBFBFB" stroke="#2C2C2C" stroke-width="0.948718" stroke-miterlimit="10"/>
<path d="M238.324 74.9066C239.037 77.6746 240.236 79.758 242.898 79.0724C245.393 78.4299 245.962 75.8912 245.249 73.1233C244.537 70.3553 243.114 68.3295 240.317 69.0497C237.884 69.6763 237.611 72.1387 238.324 74.9066Z" fill="#FBFBFB" stroke="#2C2C2C" stroke-width="0.948718" stroke-miterlimit="10"/>
<path d="M246.542 70.6147C246.043 70.743 245.79 71.0352 245.676 71.4579C245.551 71.9191 245.591 72.5506 245.78 73.2845C245.974 74.0361 246.215 74.6118 246.531 74.9547C246.681 75.1179 246.842 75.2209 247.021 75.2722C247.201 75.3237 247.433 75.3325 247.736 75.2543C248.265 75.1183 248.571 74.7975 248.724 74.3516C248.886 73.8806 248.882 73.2461 248.699 72.5329C248.509 71.7974 248.242 71.2338 247.895 70.9014C247.581 70.6002 247.168 70.4534 246.542 70.6147Z" fill="#2C2C2C" stroke="#2C2C2C" stroke-width="0.948718"/>
<path d="M239.545 72.119C239.047 72.2473 238.794 72.5394 238.679 72.9621C238.554 73.4233 238.594 74.0548 238.783 74.7888C238.977 75.5404 239.218 76.1161 239.534 76.459C239.685 76.6222 239.846 76.7252 240.024 76.7765C240.204 76.828 240.436 76.8368 240.74 76.7586C241.268 76.6225 241.574 76.3018 241.728 75.8558C241.89 75.3849 241.886 74.7503 241.702 74.0372C241.513 73.3016 241.245 72.738 240.899 72.4057C240.585 72.1045 240.172 71.9577 239.545 72.119Z" fill="#2C2C2C" stroke="#2C2C2C" stroke-width="0.948718"/>
<path d="M246.112 78.4175C246.112 78.4175 248.974 77.8351 249.02 79.4954C249.065 81.1558 245.038 81.8477 244.307 81.322C243.575 80.7964 243.583 79.2056 246.11 78.4119L246.112 78.4175Z" fill="#FBD7D5" stroke="#2C2C2C" stroke-width="0.948718" stroke-miterlimit="10"/>
<path d="M254.628 77.1168C254.628 77.1168 254.026 84.389 245.749 82.9382" stroke="#2C2C2C" stroke-width="0.948718" stroke-miterlimit="10" stroke-linecap="round"/>
<path d="M258.845 74.0141C258.861 74.0744 258.922 74.1091 258.98 74.0944C259.023 74.0832 259.055 74.0467 259.062 74.0038L259.059 73.9591C259.043 73.8985 258.982 73.8638 258.924 73.8788L258.886 73.8978C258.852 73.9237 258.834 73.9687 258.845 74.0141Z" fill="#2C2C2C" stroke="#2C2C2C" stroke-width="0.948718"/>
<path d="M256.647 74.5803C256.662 74.6406 256.723 74.6753 256.781 74.6606C256.825 74.6494 256.856 74.6128 256.863 74.57L256.86 74.5252C256.845 74.4647 256.784 74.43 256.726 74.4449L256.687 74.4639C256.653 74.4899 256.635 74.5348 256.647 74.5803Z" fill="#2C2C2C" stroke="#2C2C2C" stroke-width="0.948718"/>
<path d="M258.023 75.3862C258.039 75.4465 258.1 75.4812 258.158 75.4665C258.201 75.4553 258.233 75.4187 258.239 75.3759L258.237 75.3311C258.221 75.2706 258.16 75.2359 258.102 75.2508L258.064 75.2698C258.03 75.2958 258.011 75.3407 258.023 75.3862Z" fill="#2C2C2C" stroke="#2C2C2C" stroke-width="0.948718"/>
<path d="M238.058 79.3671C238.074 79.4274 238.135 79.4621 238.193 79.4474C238.236 79.4363 238.268 79.3997 238.274 79.3568L238.272 79.3121C238.256 79.2515 238.195 79.2169 238.137 79.2318L238.099 79.2508C238.065 79.2768 238.047 79.3217 238.058 79.3671Z" fill="#2C2C2C" stroke="#2C2C2C" stroke-width="0.948718"/>
<path d="M235.86 79.9333C235.876 79.9936 235.937 80.0283 235.995 80.0136C236.038 80.0024 236.07 79.9659 236.076 79.923L236.074 79.8783C236.058 79.8177 235.997 79.783 235.939 79.798L235.901 79.8169C235.867 79.8429 235.848 79.8879 235.86 79.9333Z" fill="#2C2C2C" stroke="#2C2C2C" stroke-width="0.948718"/>
<path d="M237.236 80.7392C237.252 80.7995 237.313 80.8342 237.371 80.8195C237.414 80.8083 237.445 80.7718 237.452 80.7289L237.45 80.6842C237.434 80.6236 237.373 80.5889 237.315 80.6039L237.277 80.6229C237.242 80.6488 237.224 80.6938 237.236 80.7392Z" fill="#2C2C2C" stroke="#2C2C2C" stroke-width="0.948718"/>
</g>
<path d="M248.681 121.886C248.681 121.886 234.858 113.86 232.99 117.03" stroke="black" stroke-width="0.948718" stroke-miterlimit="10" stroke-linecap="round"/>
</g>
<defs>
<filter id="filter0_g_40002002_5589" x="-18.5758" y="246.688" width="56.1115" height="50.9866" filterUnits="userSpaceOnUse" color-interpolation-filters="sRGB">
<feFlood flood-opacity="0" result="BackgroundImageFix"/>
<feBlend mode="normal" in="SourceGraphic" in2="BackgroundImageFix" result="shape"/>
<feTurbulence type="fractalNoise" baseFrequency="0.70270270109176636 0.70270270109176636" numOctaves="3" seed="7043" />
<feDisplacementMap in="shape" scale="0.75897437334060669" xChannelSelector="R" yChannelSelector="G" result="displacedImage" width="100%" height="100%" />
<feMerge result="effect1_texture_40002002_5589">
<feMergeNode in="displacedImage"/>
</feMerge>
</filter>
<filter id="filter1_g_40002002_5589" x="-14.6461" y="215.769" width="62.7233" height="54.4059" filterUnits="userSpaceOnUse" color-interpolation-filters="sRGB">
<feFlood flood-opacity="0" result="BackgroundImageFix"/>
<feBlend mode="normal" in="SourceGraphic" in2="BackgroundImageFix" result="shape"/>
<feTurbulence type="fractalNoise" baseFrequency="0.70270270109176636 0.70270270109176636" numOctaves="3" seed="7043" />
<feDisplacementMap in="shape" scale="0.75897437334060669" xChannelSelector="R" yChannelSelector="G" result="displacedImage" width="100%" height="100%" />
<feMerge result="effect1_texture_40002002_5589">
<feMergeNode in="displacedImage"/>
</feMerge>
</filter>
<filter id="filter2_g_40002002_5589" x="3.07559" y="235.902" width="25.4509" height="18.0667" filterUnits="userSpaceOnUse" color-interpolation-filters="sRGB">
<feFlood flood-opacity="0" result="BackgroundImageFix"/>
<feBlend mode="normal" in="SourceGraphic" in2="BackgroundImageFix" result="shape"/>
<feTurbulence type="fractalNoise" baseFrequency="0.70270270109176636 0.70270270109176636" numOctaves="3" seed="7043" />
<feDisplacementMap in="shape" scale="0.75897437334060669" xChannelSelector="R" yChannelSelector="G" result="displacedImage" width="100%" height="100%" />
<feMerge result="effect1_texture_40002002_5589">
<feMergeNode in="displacedImage"/>
</feMerge>
</filter>
<filter id="filter3_g_40002002_5589" x="229.183" y="76.472" width="54.6447" height="51.1868" filterUnits="userSpaceOnUse" color-interpolation-filters="sRGB">
<feFlood flood-opacity="0" result="BackgroundImageFix"/>
<feBlend mode="normal" in="SourceGraphic" in2="BackgroundImageFix" result="shape"/>
<feTurbulence type="fractalNoise" baseFrequency="0.70270270109176636 0.70270270109176636" numOctaves="3" seed="7043" />
<feDisplacementMap in="shape" scale="0.75897437334060669" xChannelSelector="R" yChannelSelector="G" result="displacedImage" width="100%" height="100%" />
<feMerge result="effect1_texture_40002002_5589">
<feMergeNode in="displacedImage"/>
</feMerge>
</filter>
<filter id="filter4_g_40002002_5589" x="215.776" y="46.2372" width="61.3674" height="54.0192" filterUnits="userSpaceOnUse" color-interpolation-filters="sRGB">
<feFlood flood-opacity="0" result="BackgroundImageFix"/>
<feBlend mode="normal" in="SourceGraphic" in2="BackgroundImageFix" result="shape"/>
<feTurbulence type="fractalNoise" baseFrequency="0.70270270109176636 0.70270270109176636" numOctaves="3" seed="7043" />
<feDisplacementMap in="shape" scale="0.75897437334060669" xChannelSelector="R" yChannelSelector="G" result="displacedImage" width="100%" height="100%" />
<feMerge result="effect1_texture_40002002_5589">
<feMergeNode in="displacedImage"/>
</feMerge>
</filter>
<filter id="filter5_g_40002002_5589" x="235.224" y="66.2661" width="24.4724" height="17.7172" filterUnits="userSpaceOnUse" color-interpolation-filters="sRGB">
<feFlood flood-opacity="0" result="BackgroundImageFix"/>
<feBlend mode="normal" in="SourceGraphic" in2="BackgroundImageFix" result="shape"/>
<feTurbulence type="fractalNoise" baseFrequency="0.70270270109176636 0.70270270109176636" numOctaves="3" seed="7043" />
<feDisplacementMap in="shape" scale="0.75897437334060669" xChannelSelector="R" yChannelSelector="G" result="displacedImage" width="100%" height="100%" />
<feMerge result="effect1_texture_40002002_5589">
<feMergeNode in="displacedImage"/>
</feMerge>
</filter>
<clipPath id="clip0_40002002_5589">
<rect width="80.641" height="99.6154" fill="white" transform="translate(1 207.821)"/>
</clipPath>
<clipPath id="clip1_40002002_5589">
<rect width="80.641" height="99.6154" fill="white" transform="matrix(-1 0 0 1 260 34.2052)"/>
</clipPath>
</defs>
</svg>
