<svg width="261" height="339" viewBox="0 0 261 339" fill="none" xmlns="http://www.w3.org/2000/svg">
<rect x="0.525641" y="0.525641" width="259.949" height="337.949" rx="13.7564" stroke="#9C9C9C" stroke-width="0.948718"/>
<g clip-path="url(#clip0_40002002_5724)">
<path d="M58.6656 262.523L58.5806 262.599C58.4723 262.675 58.3641 262.759 58.2559 262.85C58.3873 262.744 58.5264 262.629 58.6656 262.523Z" fill="#2C2C2C" stroke="#2C2C2C" stroke-width="0.948718" stroke-miterlimit="10" stroke-linecap="round"/>
<path d="M6.26905 277.05C-1.54071 274.985 -8.78836 272.578 -14.1523 270.269C-18.6082 268.352 -26.0663 265.138 -24.5061 259.295C-23.4379 255.295 -19.4824 253.891 -10.6438 254.809C-10.37 253.253 -9.68425 251.747 -8.56464 250.478L-7.41994 249.018L-13.9883 247.281C-16.2662 246.678 -18.2067 245.102 -19.3116 242.958C-20.5138 240.623 -20.6432 237.846 -19.6591 235.344C-12.2434 216.464 6.6216 205.734 24.2237 210.389C41.8258 215.044 52.85 233.679 49.8679 253.738C49.4759 256.39 47.9783 258.737 45.7698 260.17C44.0613 261.278 42.0404 261.742 40.086 261.499C40.4736 262.874 40.5938 264.357 40.4006 265.878C40.2135 267.4 39.7421 268.803 39.0463 270.032C41.172 271.784 42.5886 274.017 41.8347 276.841C40.2745 282.684 32.2034 281.79 27.3793 281.252C21.5709 280.607 14.0788 279.116 6.26905 277.05Z" fill="#FBFBFB" stroke="#9C9C9C" stroke-width="0.948718" stroke-miterlimit="10"/>
<g filter="url(#filter0_g_40002002_5724)">
<path d="M7.53413 272.288C23.1895 276.428 36.3852 277.895 37.0076 275.564C37.63 273.233 25.4433 267.987 9.78796 263.847C-5.86741 259.706 -19.0631 258.24 -19.6855 260.57C-20.3079 262.901 -8.12124 268.147 7.53413 272.288Z" fill="#2C2C2C"/>
<path d="M17.212 226.609L11.1397 266.36C11.1423 268.609 12.979 270.431 15.2521 270.431L29.5185 270.446C36.9928 270.454 37.6405 259.312 30.1894 258.737C29.9557 258.72 29.7204 258.709 29.4819 258.71C26.353 258.707 23.5572 259.48 20.3636 260.944L21.7189 226.612L17.2059 226.608L17.212 226.609Z" fill="#CBCBC5" stroke="#2C2C2C" stroke-width="0.948718" stroke-miterlimit="10"/>
<path d="M16.3462 263.021C17.0163 262.637 18.5093 261.731 21.3588 260.499Z" fill="#CBCBC5"/>
<path d="M16.3462 263.021C17.0163 262.637 18.5093 261.731 21.3588 260.499" stroke="#2C2C2C" stroke-width="0.948718" stroke-miterlimit="10" stroke-linecap="round"/>
<path d="M15.3442 270.158C15.3442 270.158 30.3157 261.702 32.3058 265.108Z" fill="#CBCBC5"/>
<path d="M15.3442 270.158C15.3442 270.158 30.3157 261.702 32.3058 265.108" stroke="#2C2C2C" stroke-width="0.948718" stroke-miterlimit="10" stroke-linecap="round"/>
<path d="M19.7049 222.483L-4.71462 253.649C-6.24556 255.301 -6.13602 257.877 -4.45543 259.396L6.07202 268.949C11.5862 273.957 19.6749 266.191 14.5632 260.786C14.4025 260.616 14.2342 260.451 14.0582 260.29C11.7514 258.198 8.30986 256.614 4.95316 255.557L23.0391 225.502L19.7125 222.479L19.7049 222.483Z" fill="#CBCBC5" stroke="#2C2C2C" stroke-width="0.948718" stroke-miterlimit="10"/>
<path d="M1.39355 254.697C2.15475 254.866 3.87229 255.199 6.82503 256.197Z" fill="#CBCBC5"/>
<path d="M1.39355 254.697C2.15475 254.866 3.87229 255.199 6.82503 256.197" stroke="#2C2C2C" stroke-width="0.948718" stroke-miterlimit="10" stroke-linecap="round"/>
<path d="M40.6412 256.319L-12.3338 242.309C-14.4369 241.753 -15.5294 239.224 -14.6309 236.922C-8.19491 220.551 7.97225 210.864 23.3387 214.928C38.7051 218.992 47.9076 235.388 45.3207 252.784C44.9586 255.228 42.7427 256.882 40.6396 256.325L40.6412 256.319Z" fill="#EEEDEB" stroke="#2C2C2C" stroke-width="0.948718" stroke-miterlimit="10"/>
<path d="M18.6372 231.284C17.8464 234.235 16.5378 236.451 13.6743 235.696C10.9913 234.989 10.399 232.272 11.1898 229.321C11.9806 226.37 13.5299 224.217 16.5378 225.01C19.1546 225.7 19.428 228.333 18.6372 231.284Z" fill="#FBFBFB" stroke="#2C2C2C" stroke-width="0.948718" stroke-miterlimit="10"/>
<path d="M26.0909 233.255C25.3001 236.206 23.9914 238.422 21.1279 237.668C18.4449 236.961 17.8527 234.244 18.6435 231.292C19.4343 228.341 20.9836 226.189 23.9914 226.982C26.6082 227.671 26.8817 230.304 26.0909 233.255Z" fill="#FBFBFB" stroke="#2C2C2C" stroke-width="0.948718" stroke-miterlimit="10"/>
<path d="M18.5984 231.441C18.1599 233.077 17.4374 234.307 15.8493 233.888C14.3634 233.497 14.0332 231.989 14.4716 230.353C14.9101 228.717 15.7709 227.523 17.4373 227.962C18.8871 228.344 19.0368 229.804 18.5984 231.441Z" fill="#2C2C2C"/>
<path d="M26.0525 233.412C25.614 235.048 24.8915 236.278 23.3034 235.86C21.8175 235.468 21.4873 233.961 21.9257 232.324C22.3642 230.688 23.225 229.495 24.8914 229.934C26.3412 230.316 26.4909 231.776 26.0525 233.412Z" fill="#2C2C2C"/>
<path d="M17.2352 236.895C17.2665 236.918 17.2968 236.947 17.3202 236.978C17.3677 237.042 17.3661 237.082 17.3606 237.103C17.3557 237.121 17.3405 237.156 17.3027 237.202C17.2658 237.247 17.216 237.293 17.16 237.331C17.1054 237.369 17.0554 237.392 17.0204 237.403C16.9569 237.381 16.8926 237.35 16.8558 237.308C16.8384 237.289 16.8269 237.268 16.8206 237.239C16.8141 237.21 16.8092 237.15 16.8366 237.048C16.856 236.975 16.8833 236.944 16.9018 236.929C16.9251 236.909 16.9611 236.891 17.0133 236.878C17.0661 236.866 17.1219 236.862 17.167 236.863C17.1697 236.863 17.1725 236.863 17.175 236.863C17.181 236.865 17.2036 236.873 17.2352 236.895ZM17.2205 236.867L17.2177 236.867L17.217 236.865C17.2191 236.866 17.2206 236.866 17.2217 236.867L17.2205 236.867Z" fill="#A7E1B6" stroke="#2C2C2C" stroke-width="0.948718"/>
<path d="M11.6152 222.821C11.6152 222.821 13.4161 220.212 16.2574 221.956" stroke="#2C2C2C" stroke-width="0.948718" stroke-miterlimit="10" stroke-linecap="round"/>
<path d="M18.3721 240.343C18.3721 240.343 15.2296 240.929 14.4668 237.706" stroke="#2C2C2C" stroke-width="0.948718" stroke-miterlimit="10" stroke-linecap="round"/>
</g>
</g>
<g clip-path="url(#clip1_40002002_5724)">
<path d="M264.393 95.8453C272.203 93.7799 279.45 91.3731 284.814 89.0635C289.27 87.1468 296.728 83.9334 295.168 78.0903C294.1 74.0899 290.144 72.6859 281.306 73.6043C281.032 72.0476 280.346 70.5425 279.227 69.2731L278.082 67.813L284.65 66.0758C286.928 65.4734 288.869 63.8974 289.974 61.7533C291.176 59.418 291.305 56.6409 290.321 54.1393C282.906 35.2586 264.041 24.529 246.438 29.1842C228.836 33.8395 217.812 52.4739 220.794 72.5335C221.186 75.1854 222.684 77.5321 224.892 78.9654C226.601 80.0727 228.622 80.5374 230.576 80.2942C230.189 81.6695 230.068 83.1522 230.261 84.673C230.449 86.1954 230.92 87.5981 231.616 88.8269C229.49 90.5791 228.073 92.812 228.827 95.6355C230.388 101.479 238.459 100.585 243.283 100.047C249.091 99.4022 256.583 97.9108 264.393 95.8453Z" fill="#FBFBFB" stroke="#9C9C9C" stroke-width="0.948718" stroke-miterlimit="10"/>
<g filter="url(#filter1_g_40002002_5724)">
<path d="M263.128 91.0824C247.473 95.2228 234.277 96.6897 233.655 94.3589C233.032 92.0281 245.219 86.7821 260.874 82.6417C276.53 78.5013 289.725 77.0344 290.348 79.3652C290.97 81.6961 278.783 86.942 263.128 91.0824Z" fill="#2C2C2C"/>
<path d="M253.45 45.4039L259.522 85.1545C259.52 87.4036 257.683 89.2253 255.41 89.2256L241.144 89.2404C233.669 89.2485 233.022 78.1069 240.473 77.5317C240.706 77.5147 240.942 77.5036 241.18 77.5044C244.309 77.5015 247.105 78.2742 250.299 79.7383L248.943 45.4071L253.456 45.4024L253.45 45.4039Z" fill="#CBCBC5" stroke="#2C2C2C" stroke-width="0.948718" stroke-miterlimit="10"/>
<path d="M254.316 81.8161C253.646 81.4319 252.153 80.5252 249.304 79.2942Z" fill="#CBCBC5"/>
<path d="M254.316 81.8161C253.646 81.4319 252.153 80.5252 249.304 79.2942" stroke="#2C2C2C" stroke-width="0.948718" stroke-miterlimit="10" stroke-linecap="round"/>
<path d="M255.318 88.9527C255.318 88.9527 240.346 80.4973 238.356 83.9024Z" fill="#CBCBC5"/>
<path d="M255.318 88.9527C255.318 88.9527 240.346 80.4973 238.356 83.9024" stroke="#2C2C2C" stroke-width="0.948718" stroke-miterlimit="10" stroke-linecap="round"/>
<path d="M250.957 41.278L275.376 72.4435C276.907 74.096 276.798 76.6716 275.117 78.1911L264.59 87.7436C259.075 92.7515 250.987 84.9854 256.098 79.5808C256.259 79.411 256.427 79.2456 256.603 79.0846C258.91 76.9924 262.352 75.4093 265.708 74.3516L247.622 44.2972L250.949 41.2737L250.957 41.278Z" fill="#CBCBC5" stroke="#2C2C2C" stroke-width="0.948718" stroke-miterlimit="10"/>
<path d="M230.021 75.1143L282.996 61.104C285.099 60.5478 286.191 58.0187 285.293 55.7171C278.857 39.3457 262.69 29.659 247.323 33.723C231.957 37.787 222.754 54.1832 225.341 71.5789C225.704 74.0224 227.919 75.6764 230.022 75.1202L230.021 75.1143Z" fill="#EEEDEB" stroke="#2C2C2C" stroke-width="0.948718" stroke-miterlimit="10"/>
<path d="M252.025 50.0786C252.816 53.0298 254.125 55.2457 256.988 54.4911C259.671 53.784 260.264 51.0671 259.473 48.116C258.682 45.1648 257.133 43.0123 254.125 43.805C251.508 44.4946 251.235 47.1275 252.025 50.0786Z" fill="#FBFBFB" stroke="#2C2C2C" stroke-width="0.948718" stroke-miterlimit="10"/>
<path d="M244.571 52.05C245.362 55.0011 246.67 57.217 249.534 56.4624C252.217 55.7553 252.809 53.0384 252.018 50.0873C251.227 47.1361 249.678 44.9837 246.67 45.7763C244.053 46.466 243.78 49.0988 244.571 52.05Z" fill="#FBFBFB" stroke="#2C2C2C" stroke-width="0.948718" stroke-miterlimit="10"/>
<path d="M252.063 50.2354C252.502 51.8716 253.224 53.1018 254.812 52.6832C256.298 52.2917 256.628 50.7841 256.19 49.1479C255.752 47.5116 254.891 46.318 253.224 46.7571C251.775 47.1392 251.625 48.5992 252.063 50.2354Z" fill="#2C2C2C"/>
<path d="M244.61 52.2067C245.048 53.843 245.771 55.0731 247.359 54.6546C248.845 54.263 249.175 52.7554 248.736 51.1192C248.298 49.483 247.437 48.2893 245.771 48.7284C244.321 49.1105 244.171 50.5705 244.61 52.2067Z" fill="#2C2C2C"/>
<path d="M253.427 55.6903C253.396 55.7125 253.366 55.7419 253.342 55.7733C253.295 55.8373 253.297 55.8774 253.302 55.8981C253.307 55.9161 253.322 55.9508 253.36 55.997C253.397 56.0423 253.447 56.0876 253.503 56.126C253.557 56.1635 253.607 56.1865 253.642 56.1982C253.706 56.1762 253.77 56.1448 253.807 56.1033C253.824 56.0837 253.836 56.0626 253.842 56.0344C253.848 56.0049 253.853 55.945 253.826 55.8427C253.807 55.77 253.779 55.7393 253.761 55.7236C253.737 55.7038 253.701 55.6858 253.649 55.6732C253.596 55.6605 253.541 55.6572 253.496 55.6582C253.493 55.6582 253.49 55.6582 253.488 55.6583C253.482 55.66 253.459 55.668 253.427 55.6903ZM253.442 55.6622L253.445 55.6615L253.446 55.6603C253.444 55.6605 253.442 55.6614 253.441 55.6615L253.442 55.6622Z" fill="#A7E1B6" stroke="#2C2C2C" stroke-width="0.948718"/>
<path d="M259.047 41.6163C259.047 41.6163 257.246 39.007 254.405 40.751" stroke="#2C2C2C" stroke-width="0.948718" stroke-miterlimit="10" stroke-linecap="round"/>
<path d="M252.29 59.1379C252.29 59.1379 255.433 59.7236 256.195 56.501" stroke="#2C2C2C" stroke-width="0.948718" stroke-miterlimit="10" stroke-linecap="round"/>
</g>
</g>
<g clip-path="url(#clip2_40002002_5724)">
<path d="M88.028 -8.90933C96.9365 -10.0573 102.809 0.112987 97.3634 7.25683C102.809 14.4007 96.9365 24.5709 88.028 23.423C84.5652 31.7148 72.8201 31.7148 69.3573 23.423C60.4488 24.5709 54.5762 14.4007 60.0219 7.25683C54.5762 0.112987 60.4488 -10.0573 69.3573 -8.90933C72.8201 -17.2011 84.5652 -17.2011 88.028 -8.90933Z" fill="#A7E1B6"/>
</g>
<defs>
<filter id="filter0_g_40002002_5724" x="-20.088" y="213.149" width="66.696" height="63.9028" filterUnits="userSpaceOnUse" color-interpolation-filters="sRGB">
<feFlood flood-opacity="0" result="BackgroundImageFix"/>
<feBlend mode="normal" in="SourceGraphic" in2="BackgroundImageFix" result="shape"/>
<feTurbulence type="fractalNoise" baseFrequency="0.70270270109176636 0.70270270109176636" numOctaves="3" seed="7043" />
<feDisplacementMap in="shape" scale="0.75897437334060669" xChannelSelector="R" yChannelSelector="G" result="displacedImage" width="100%" height="100%" />
<feMerge result="effect1_texture_40002002_5724">
<feMergeNode in="displacedImage"/>
</feMerge>
</filter>
<filter id="filter1_g_40002002_5724" x="224.054" y="31.9433" width="66.696" height="63.9029" filterUnits="userSpaceOnUse" color-interpolation-filters="sRGB">
<feFlood flood-opacity="0" result="BackgroundImageFix"/>
<feBlend mode="normal" in="SourceGraphic" in2="BackgroundImageFix" result="shape"/>
<feTurbulence type="fractalNoise" baseFrequency="0.70270270109176636 0.70270270109176636" numOctaves="3" seed="7043" />
<feDisplacementMap in="shape" scale="0.75897437334060669" xChannelSelector="R" yChannelSelector="G" result="displacedImage" width="100%" height="100%" />
<feMerge result="effect1_texture_40002002_5724">
<feMergeNode in="displacedImage"/>
</feMerge>
</filter>
<clipPath id="clip0_40002002_5724">
<rect width="90.1282" height="86.3333" fill="white" transform="translate(1 201.18)"/>
</clipPath>
<clipPath id="clip1_40002002_5724">
<rect width="90.1282" height="86.3333" fill="white" transform="matrix(-1 0 0 1 260 17.1282)"/>
</clipPath>
<clipPath id="clip2_40002002_5724">
<rect width="57.8718" height="38.8974" fill="white" transform="translate(49.3848 1)"/>
</clipPath>
</defs>
</svg>
