<svg width="151" height="162" viewBox="0 0 151 162" fill="none" xmlns="http://www.w3.org/2000/svg">
<g clip-path="url(#clip0_40000163_3140)" filter="url(#filter0_g_40000163_3140)">
<g filter="url(#filter1_d_40000163_3140)">
<path d="M61.7134 159.404C50.0709 159.404 39.0842 158.71 30.7566 157.447C24.2976 156.464 12.2688 154.643 12.2688 145.778C12.2688 142.189 14.2811 139.835 16.6617 138.284C16.5449 135.507 17.1019 132.711 18.3506 130.249C20.7581 125.47 25.3217 122.485 30.8824 122.061C30.9453 122.061 30.9992 122.061 31.0621 122.052C31.5561 122.025 32.0053 122.007 32.4545 122.007C34.9968 122.007 37.7277 122.386 40.6204 123.134L42.2733 107.624C35.2304 102.772 31.0261 95.3054 31.0261 87.2074C31.0261 82.7976 32.3018 78.433 34.7093 74.6004C35.7514 72.9502 35.8412 70.8851 34.9519 68.9282C33.6493 66.0696 32.9845 63.0215 32.9845 59.8833C32.9845 56.186 33.9547 52.4797 35.7873 49.1701C37.1079 46.7894 37.3055 44.1743 36.3084 42.1633C34.853 39.2235 34.1164 36.0762 34.1164 32.8208C34.1254 19.9433 45.9475 9.47363 60.4737 9.47363C69.3493 9.47363 77.4433 13.3964 82.2674 19.6548C82.8783 19.6007 83.4891 19.5826 84.1 19.5826C97.7368 19.5826 108.831 32.397 108.831 48.1511C108.831 62.6518 99.4346 74.6636 87.2981 76.4852C89.0139 79.8308 89.9123 83.501 89.9123 87.1984C89.9123 94.4757 86.5435 101.23 80.6953 106.064L83.7227 119.645C85.4385 118.86 87.1813 118.229 88.987 117.751C89.4451 117.625 89.9482 117.507 90.5141 117.408C91.5562 117.21 92.5893 117.12 93.6044 117.12C101.312 117.12 107.654 122.909 108.697 130.89C109.074 133.775 108.715 136.526 107.762 138.979C109.784 140.575 111.176 142.757 111.176 145.778C111.176 154.643 99.1472 156.464 92.6881 157.447C84.3605 158.71 73.3648 159.404 61.7224 159.404H61.7134Z" fill="#FBFBFB"/>
<path d="M61.7134 159.404C50.0709 159.404 39.0842 158.71 30.7566 157.447C24.2976 156.464 12.2688 154.643 12.2688 145.778C12.2688 142.189 14.2811 139.835 16.6617 138.284C16.5449 135.507 17.1019 132.711 18.3506 130.249C20.7581 125.47 25.3217 122.485 30.8824 122.061C30.9453 122.061 30.9992 122.061 31.0621 122.052C31.5561 122.025 32.0053 122.007 32.4545 122.007C34.9968 122.007 37.7277 122.386 40.6204 123.134L42.2733 107.624C35.2304 102.772 31.0261 95.3054 31.0261 87.2074C31.0261 82.7976 32.3018 78.433 34.7093 74.6004C35.7514 72.9502 35.8412 70.8851 34.9519 68.9282C33.6493 66.0696 32.9845 63.0215 32.9845 59.8833C32.9845 56.186 33.9547 52.4797 35.7873 49.1701C37.1079 46.7894 37.3055 44.1743 36.3084 42.1633C34.853 39.2235 34.1164 36.0762 34.1164 32.8208C34.1254 19.9433 45.9475 9.47363 60.4737 9.47363C69.3493 9.47363 77.4433 13.3964 82.2674 19.6548C82.8783 19.6007 83.4891 19.5826 84.1 19.5826C97.7368 19.5826 108.831 32.397 108.831 48.1511C108.831 62.6518 99.4346 74.6636 87.2981 76.4852C89.0139 79.8308 89.9123 83.501 89.9123 87.1984C89.9123 94.4757 86.5435 101.23 80.6953 106.064L83.7227 119.645C85.4385 118.86 87.1813 118.229 88.987 117.751C89.4451 117.625 89.9482 117.507 90.5141 117.408C91.5562 117.21 92.5893 117.12 93.6044 117.12C101.312 117.12 107.654 122.909 108.697 130.89C109.074 133.775 108.715 136.526 107.762 138.979C109.784 140.575 111.176 142.757 111.176 145.778C111.176 154.643 99.1472 156.464 92.6881 157.447C84.3605 158.71 73.3648 159.404 61.7224 159.404H61.7134Z" stroke="#9C9C9C" stroke-miterlimit="10"/>
</g>
<path d="M84.1002 69.5054C93.7898 69.5054 101.645 59.9448 101.645 48.1512C101.645 36.3576 93.7898 26.7969 84.1002 26.7969C74.4106 26.7969 66.5557 36.3576 66.5557 48.1512C66.5557 59.9448 74.4106 69.5054 84.1002 69.5054Z" fill="#93D1E0"/>
<path d="M61.7132 152.19C85.0516 152.19 103.971 149.323 103.971 145.787C103.971 142.251 85.0516 139.385 61.7132 139.385C38.3748 139.385 19.4553 142.251 19.4553 145.787C19.4553 149.323 38.3748 152.19 61.7132 152.19Z" fill="#2C2C2C"/>
<path d="M58.9285 80.2999V140.44C58.9285 143.731 56.2694 146.401 52.9905 146.401H32.3915C21.6025 146.401 20.6592 130.078 31.4213 129.258C31.7537 129.231 32.0951 129.222 32.4454 129.222C36.9641 129.222 42.1744 130.89 46.7829 133.036L52.4155 80.3089H58.9285V80.2999Z" fill="#CBCBC5" stroke="#2C2C2C" stroke-miterlimit="10"/>
<path d="M51.4094 135.597C50.4392 135.038 48.2921 133.703 44.1777 131.9L51.4094 135.597Z" fill="#CBCBC5"/>
<path d="M51.4094 135.597C50.4392 135.038 48.2921 133.703 44.1777 131.9" stroke="#2C2C2C" stroke-miterlimit="10" stroke-linecap="round"/>
<path d="M61.7131 83.8529L68.1003 142.397C68.9447 145.58 72.1877 147.474 75.3589 146.626L95.2661 141.324C105.696 138.546 102.435 122.53 91.8254 124.496C91.493 124.559 91.1606 124.632 90.8283 124.722C86.4623 125.885 82.851 128.022 78.9432 131.287L68.0015 82.1755L61.7041 83.8529H61.7131Z" fill="#CBCBC5" stroke="#2C2C2C" stroke-miterlimit="10"/>
<path d="M74.1104 135.742C74.9009 134.948 76.6437 133.108 80.1562 130.304L74.1104 135.742Z" fill="#FBFBFB"/>
<path d="M74.1104 135.742C74.9009 134.948 76.6437 133.108 80.1562 130.304" stroke="#2C2C2C" stroke-miterlimit="10" stroke-linecap="round"/>
<path d="M75.3682 146.22C75.3682 146.22 93.0744 128.663 97.117 132.739" stroke="#2C2C2C" stroke-miterlimit="10" stroke-linecap="round"/>
<path d="M82.7255 87.1984C82.7255 97.5328 72.754 105.91 60.4647 105.91C48.1754 105.91 38.2039 97.5328 38.2039 87.1984C38.2039 84.0331 39.1381 81.0482 40.7821 78.4421C43.1627 74.6636 43.3334 70.0014 41.4918 65.9343C40.6384 64.0496 40.1712 62.0116 40.1712 59.8743C40.1712 57.2952 40.854 54.8604 42.0667 52.6691C44.4293 48.4217 44.8965 43.3266 42.7495 38.962C41.8152 37.0682 41.3031 34.9851 41.3031 32.8118C41.3031 23.9112 49.8823 16.6879 60.4647 16.6879C71.0471 16.6879 79.6353 23.9112 79.6353 32.8118C79.6353 34.9941 79.1232 37.0773 78.1889 38.971C76.0419 43.3356 76.509 48.4307 78.8717 52.6871C80.0844 54.8694 80.7582 57.3043 80.7582 59.8743C80.7582 62.0116 80.291 64.0496 79.4376 65.9343C77.596 70.0014 77.7667 74.6636 80.1473 78.4421C81.7913 81.0572 82.7255 84.0331 82.7255 87.1984Z" fill="#EEEDEB" stroke="#2C2C2C" stroke-miterlimit="10"/>
<path d="M44.3754 131.981C44.3754 131.981 44.3035 131.945 44.2586 131.936L44.1777 131.891C44.2496 131.918 44.3125 131.954 44.3754 131.981Z" fill="#FBFBFB" stroke="#2C2C2C" stroke-miterlimit="10" stroke-linecap="round"/>
<path d="M60.1827 32.5895V33.1769C60.1827 33.2811 60.1827 33.3758 60.1733 33.4705C60.1733 33.6221 60.1733 33.7642 60.1638 33.8969C60.0034 36.6063 59.1446 38.6811 56.4077 38.6811C53.6708 38.6811 52.208 36.0853 52.208 32.8927C52.208 30.9979 52.5478 29.3116 53.5009 28.2505L57.2948 30.1169L59.909 31.3863L60.1072 31.4811C60.1449 31.8505 60.1638 32.2105 60.1733 32.599L60.1827 32.5895Z" fill="#FBFBFB" stroke="#2C2C2C" stroke-miterlimit="10"/>
<path d="M68.148 32.8832C68.148 32.9969 68.148 33.1011 68.148 33.2148C68.1291 34.7116 67.9309 36.0474 67.393 37.0326C66.3171 37.1463 65.3922 37.7716 64.8543 38.6621C64.7033 38.6811 64.5428 38.6905 64.3824 38.6905C61.5134 38.6905 60.1921 36.0948 60.1921 32.8926C60.1921 29.6905 61.1548 27.0758 64.3635 27.0758C67.0626 27.0758 68.063 29.4821 68.1385 32.5326C68.1385 32.6463 68.1385 32.7695 68.1385 32.8832H68.148Z" fill="#FBFBFB" stroke="#2C2C2C" stroke-miterlimit="10"/>
<path d="M60.1827 33.0916V33.1863C60.1827 33.1863 60.1827 33.2716 60.1827 33.3C60.1827 33.3568 60.1827 33.4137 60.1733 33.48C60.1733 33.6316 60.1733 33.7737 60.1638 33.9063C60.06 35.3558 59.5504 36.4263 58.0876 36.4263C56.5021 36.4263 55.7754 34.9863 55.7754 33.2053C55.7754 31.7179 56.1529 30.4674 57.3043 30.1074L59.9185 31.3768C60.0789 31.8126 60.1638 32.3337 60.1733 32.8832C60.1827 32.94 60.1827 33.0158 60.1827 33.0821V33.0916Z" fill="#2C2C2C"/>
<path d="M68.148 32.8832C68.148 34.6642 67.7516 36.1042 66.0528 36.1042C64.4579 36.1042 63.7312 34.6642 63.7312 32.8832C63.7312 31.1021 64.2691 29.6621 66.0528 29.6621C67.61 29.6621 68.148 31.1021 68.148 32.8832Z" fill="#2C2C2C"/>
<path d="M67.3835 37.0326C67.5062 37.0137 67.6384 37.0042 67.761 37.0042C69.0257 37.0042 70.1299 37.6958 70.715 38.7189" stroke="#2C2C2C" stroke-miterlimit="10" stroke-linecap="round"/>
<path d="M64.8449 38.6621L64.8071 38.719" stroke="#2C2C2C" stroke-miterlimit="10" stroke-linecap="round"/>
<path d="M60.0318 31.4337L59.8336 31.3389L57.1911 30.0505L53.3689 28.1747C54.0295 27.4358 54.9638 27 56.2945 27C58.7011 27 59.7675 28.8947 60.0412 31.4337H60.0318Z" stroke="#2C2C2C" stroke-miterlimit="10" stroke-linecap="round"/>
<path d="M53.369 28.1747L50.9624 27" stroke="#2C2C2C" stroke-miterlimit="10" stroke-linecap="round"/>
<path d="M60.022 38.9777C60.5265 39.0613 60.7893 39.3256 60.9194 39.5988C61.0636 39.9017 61.0413 40.2023 60.9839 40.339C60.9715 40.3479 60.9191 40.3906 60.7798 40.4327C60.6019 40.4865 60.3659 40.5122 60.1265 40.4874C59.6302 40.436 59.3104 40.2105 59.2437 39.8302C59.1989 39.5746 59.2427 39.4284 59.2896 39.3429C59.3396 39.2516 59.4235 39.1758 59.5405 39.1144C59.659 39.0522 59.7914 39.0149 59.9019 38.9943C59.9511 38.9851 59.9928 38.9807 60.022 38.9777Z" fill="#93D1E0" stroke="#2C2C2C"/>
<path d="M60.3999 42.9057C60.3999 42.9057 64.9393 41.0772 67.0911 46.8657" stroke="#2C2C2C" stroke-miterlimit="10" stroke-linecap="round"/>
</g>
<defs>
<filter id="filter0_g_40000163_3140" x="-0.4" y="-0.4" width="151.8" height="162.8" filterUnits="userSpaceOnUse" color-interpolation-filters="sRGB">
<feFlood flood-opacity="0" result="BackgroundImageFix"/>
<feBlend mode="normal" in="SourceGraphic" in2="BackgroundImageFix" result="shape"/>
<feTurbulence type="fractalNoise" baseFrequency="0.66666668653488159 0.66666668653488159" numOctaves="3" seed="7043" />
<feDisplacementMap in="shape" scale="0.80000001192092896" xChannelSelector="R" yChannelSelector="G" result="displacedImage" width="100%" height="100%" />
<feMerge result="effect1_texture_40000163_3140">
<feMergeNode in="displacedImage"/>
</feMerge>
</filter>
<filter id="filter1_d_40000163_3140" x="8.7688" y="7.97363" width="103.907" height="154.931" filterUnits="userSpaceOnUse" color-interpolation-filters="sRGB">
<feFlood flood-opacity="0" result="BackgroundImageFix"/>
<feColorMatrix in="SourceAlpha" type="matrix" values="0 0 0 0 0 0 0 0 0 0 0 0 0 0 0 0 0 0 127 0" result="hardAlpha"/>
<feOffset dx="-1" dy="1"/>
<feGaussianBlur stdDeviation="1"/>
<feComposite in2="hardAlpha" operator="out"/>
<feColorMatrix type="matrix" values="0 0 0 0 0 0 0 0 0 0 0 0 0 0 0 0 0 0 0.25 0"/>
<feBlend mode="normal" in2="BackgroundImageFix" result="effect1_dropShadow_40000163_3140"/>
<feBlend mode="normal" in="SourceGraphic" in2="effect1_dropShadow_40000163_3140" result="shape"/>
</filter>
<clipPath id="clip0_40000163_3140">
<rect width="151" height="162" fill="white"/>
</clipPath>
</defs>
</svg>
