<svg width="151" height="162" viewBox="0 0 151 162" fill="none" xmlns="http://www.w3.org/2000/svg">
<g clip-path="url(#clip0_40000246_4274)" filter="url(#filter0_g_40000246_4274)">
<g filter="url(#filter1_d_40000246_4274)">
<path d="M61.7134 159.404C50.0709 159.404 39.0842 158.71 30.7566 157.447C24.2976 156.464 12.2688 154.643 12.2688 145.778C12.2688 142.189 14.2811 139.836 16.6617 138.284C16.5449 135.507 17.1019 132.711 18.3506 130.25C20.7581 125.47 25.3217 122.485 30.8824 122.061C30.9453 122.061 30.9992 122.061 31.0621 122.052C31.5561 122.025 32.0053 122.007 32.4545 122.007C34.9968 122.007 37.7277 122.386 40.6204 123.134L42.2733 107.624C35.2304 102.772 31.0261 95.3055 31.0261 87.2074C31.0261 82.7977 32.3018 78.4331 34.7093 74.6005C35.7514 72.9502 35.8412 70.8852 34.9519 68.9283C33.6493 66.0696 32.9845 63.0216 32.9845 59.8834C32.9845 56.1861 33.9547 52.4798 35.7873 49.1702C37.1079 46.7895 37.3055 44.1743 36.3084 42.1633C34.853 39.2235 34.1164 36.0763 34.1164 32.8209C34.1254 19.9434 45.9475 9.47369 60.4737 9.47369C69.3493 9.47369 77.4433 13.3965 82.2674 19.6548C82.8783 19.6007 83.4891 19.5827 84.1 19.5827C97.7368 19.5827 108.831 32.397 108.831 48.1512C108.831 62.6519 99.4346 74.6636 87.2981 76.4852C89.0139 79.8308 89.9123 83.5011 89.9123 87.1984C89.9123 94.4758 86.5435 101.23 80.6953 106.064L83.7227 119.645C85.4385 118.86 87.1813 118.229 88.987 117.751C89.4451 117.625 89.9482 117.507 90.5141 117.408C91.5562 117.21 92.5893 117.12 93.6044 117.12C101.312 117.12 107.654 122.909 108.697 130.89C109.074 133.776 108.715 136.526 107.762 138.979C109.784 140.575 111.176 142.757 111.176 145.778C111.176 154.643 99.1472 156.464 92.6881 157.447C84.3605 158.71 73.3648 159.404 61.7224 159.404H61.7134Z" fill="#FBFBFB"/>
<path d="M61.7134 159.404C50.0709 159.404 39.0842 158.71 30.7566 157.447C24.2976 156.464 12.2688 154.643 12.2688 145.778C12.2688 142.189 14.2811 139.836 16.6617 138.284C16.5449 135.507 17.1019 132.711 18.3506 130.25C20.7581 125.47 25.3217 122.485 30.8824 122.061C30.9453 122.061 30.9992 122.061 31.0621 122.052C31.5561 122.025 32.0053 122.007 32.4545 122.007C34.9968 122.007 37.7277 122.386 40.6204 123.134L42.2733 107.624C35.2304 102.772 31.0261 95.3055 31.0261 87.2074C31.0261 82.7977 32.3018 78.4331 34.7093 74.6005C35.7514 72.9502 35.8412 70.8852 34.9519 68.9283C33.6493 66.0696 32.9845 63.0216 32.9845 59.8834C32.9845 56.1861 33.9547 52.4798 35.7873 49.1702C37.1079 46.7895 37.3055 44.1743 36.3084 42.1633C34.853 39.2235 34.1164 36.0763 34.1164 32.8209C34.1254 19.9434 45.9475 9.47369 60.4737 9.47369C69.3493 9.47369 77.4433 13.3965 82.2674 19.6548C82.8783 19.6007 83.4891 19.5827 84.1 19.5827C97.7368 19.5827 108.831 32.397 108.831 48.1512C108.831 62.6519 99.4346 74.6636 87.2981 76.4852C89.0139 79.8308 89.9123 83.5011 89.9123 87.1984C89.9123 94.4758 86.5435 101.23 80.6953 106.064L83.7227 119.645C85.4385 118.86 87.1813 118.229 88.987 117.751C89.4451 117.625 89.9482 117.507 90.5141 117.408C91.5562 117.21 92.5893 117.12 93.6044 117.12C101.312 117.12 107.654 122.909 108.697 130.89C109.074 133.776 108.715 136.526 107.762 138.979C109.784 140.575 111.176 142.757 111.176 145.778C111.176 154.643 99.1472 156.464 92.6881 157.447C84.3605 158.71 73.3648 159.404 61.7224 159.404H61.7134Z" stroke="#9C9C9C" stroke-miterlimit="10"/>
</g>
<path d="M84.1002 69.5054C93.7898 69.5054 101.645 59.9448 101.645 48.1511C101.645 36.3575 93.7898 26.7969 84.1002 26.7969C74.4106 26.7969 66.5557 36.3575 66.5557 48.1511C66.5557 59.9448 74.4106 69.5054 84.1002 69.5054Z" fill="#93D1E0"/>
<path d="M61.7132 152.19C85.0516 152.19 103.971 149.323 103.971 145.787C103.971 142.251 85.0516 139.385 61.7132 139.385C38.3748 139.385 19.4553 142.251 19.4553 145.787C19.4553 149.323 38.3748 152.19 61.7132 152.19Z" fill="#2C2C2C"/>
<path d="M58.9285 80.2998V140.44C58.9285 143.731 56.2694 146.401 52.9905 146.401H32.3915C21.6025 146.401 20.6592 130.078 31.4213 129.258C31.7537 129.231 32.0951 129.222 32.4454 129.222C36.9641 129.222 42.1744 130.89 46.7829 133.036L52.4155 80.3089H58.9285V80.2998Z" fill="#CBCBC5" stroke="#2C2C2C" stroke-miterlimit="10"/>
<path d="M51.4094 135.597C50.4392 135.038 48.2921 133.703 44.1777 131.9L51.4094 135.597Z" fill="#CBCBC5"/>
<path d="M51.4094 135.597C50.4392 135.038 48.2921 133.703 44.1777 131.9" stroke="#2C2C2C" stroke-miterlimit="10" stroke-linecap="round"/>
<path d="M61.7131 83.8528L68.1003 142.397C68.9447 145.58 72.1877 147.474 75.3589 146.626L95.2661 141.323C105.696 138.546 102.435 122.53 91.8254 124.496C91.493 124.559 91.1606 124.631 90.8283 124.722C86.4623 125.885 82.851 128.022 78.9432 131.287L68.0015 82.1755L61.7041 83.8528H61.7131Z" fill="#CBCBC5" stroke="#2C2C2C" stroke-miterlimit="10"/>
<path d="M74.1104 135.741C74.9009 134.948 76.6437 133.108 80.1562 130.304L74.1104 135.741Z" fill="#FBFBFB"/>
<path d="M74.1104 135.741C74.9009 134.948 76.6437 133.108 80.1562 130.304" stroke="#2C2C2C" stroke-miterlimit="10" stroke-linecap="round"/>
<path d="M75.3682 146.22C75.3682 146.22 93.0744 128.663 97.117 132.739" stroke="#2C2C2C" stroke-miterlimit="10" stroke-linecap="round"/>
<path d="M82.7255 87.1984C82.7255 97.5329 72.754 105.91 60.4647 105.91C48.1754 105.91 38.2039 97.5329 38.2039 87.1984C38.2039 84.0332 39.1381 81.0482 40.7821 78.4421C43.1627 74.6636 43.3334 70.0014 41.4918 65.9344C40.6384 64.0496 40.1712 62.0116 40.1712 59.8744C40.1712 57.2953 40.854 54.8605 42.0667 52.6691C44.4293 48.4217 44.8965 43.3266 42.7495 38.962C41.8152 37.0683 41.3031 34.9851 41.3031 32.8118C41.3031 23.9112 49.8823 16.688 60.4647 16.688C71.0471 16.688 79.6353 23.9112 79.6353 32.8118C79.6353 34.9942 79.1232 37.0773 78.1889 38.971C76.0419 43.3357 76.509 48.4307 78.8717 52.6872C80.0844 54.8695 80.7582 57.3043 80.7582 59.8744C80.7582 62.0116 80.291 64.0496 79.4376 65.9344C77.596 70.0014 77.7667 74.6636 80.1473 78.4421C81.7913 81.0573 82.7255 84.0332 82.7255 87.1984Z" fill="#EEEDEB" stroke="#2C2C2C" stroke-miterlimit="10"/>
<path d="M44.3754 131.981C44.3754 131.981 44.3035 131.945 44.2586 131.936L44.1777 131.891C44.2496 131.918 44.3125 131.954 44.3754 131.981Z" fill="#FBFBFB" stroke="#2C2C2C" stroke-miterlimit="10" stroke-linecap="round"/>
<path d="M59.8715 33.4326C59.8715 36.6347 59.1542 39.24 56.0965 39.24C53.2275 39.24 51.9062 36.6442 51.9062 33.4326C51.9062 30.221 52.8783 27.6252 56.0965 27.6252C58.8994 27.6252 59.8715 30.221 59.8715 33.4326Z" fill="#FBFBFB" stroke="#2C2C2C" stroke-miterlimit="10"/>
<path d="M67.8367 33.4326C67.8367 33.5368 67.8367 33.6505 67.8273 33.7642C67.8084 35.2516 67.6102 36.5968 67.0723 37.5821C65.9964 37.6958 65.0716 38.321 64.5336 39.2116C64.3826 39.2305 64.2222 39.2305 64.0523 39.2305C61.2399 39.2305 59.9187 36.7389 59.8715 33.6316C59.8621 33.5652 59.8621 33.4989 59.8621 33.4326C59.8621 33.3379 59.8621 33.2337 59.8715 33.1389C59.9092 30.8558 60.4849 28.9231 62.0421 28.08C63.1557 29.4537 64.9489 30.9505 67.7046 31.6231C67.7801 32.0874 67.8179 32.58 67.8273 33.0821C67.8367 33.1958 67.8367 33.3189 67.8367 33.4326Z" fill="#FBFBFB" stroke="#2C2C2C" stroke-miterlimit="10"/>
<path d="M56.7949 35.1947C56.7949 36.9758 56.3985 38.4158 54.6998 38.4158C53.1049 38.4158 52.3782 36.9758 52.3782 35.1947C52.3782 33.4137 52.9161 31.9737 54.6998 31.9737C56.257 31.9737 56.7949 33.4137 56.7949 35.1947Z" fill="#2C2C2C"/>
<path d="M64.76 34.8631C64.76 36.6442 64.3636 38.0842 62.6649 38.0842C61.0699 38.0842 60.3433 36.6442 60.3433 34.8631C60.3433 33.0821 60.8812 31.6421 62.6649 31.6421C64.2221 31.6421 64.76 33.0821 64.76 34.8631Z" fill="#2C2C2C"/>
<path d="M67.7047 31.6231C64.949 30.9505 63.1559 29.4537 62.0422 28.08C62.5896 27.7863 63.2502 27.6252 64.0524 27.6252C66.2985 27.6252 67.3744 29.3021 67.7047 31.6231Z" stroke="#2C2C2C" stroke-miterlimit="10" stroke-linecap="round"/>
<path d="M68.6483 31.8126C68.318 31.7558 68.0066 31.699 67.7046 31.6232" stroke="#2C2C2C" stroke-miterlimit="10" stroke-linecap="round"/>
<path d="M60.3716 25.1053C60.3716 25.1053 60.7868 26.5263 62.042 28.08" stroke="#2C2C2C" stroke-miterlimit="10" stroke-linecap="round"/>
<path d="M60.0222 38.9777C60.5267 39.0613 60.7896 39.3256 60.9197 39.5988C61.0638 39.9017 61.0416 40.2023 60.9841 40.339C60.9718 40.3479 60.9194 40.3906 60.78 40.4327C60.6022 40.4865 60.3661 40.5122 60.1267 40.4874C59.6304 40.436 59.3107 40.2105 59.2439 39.8302C59.1992 39.5746 59.2429 39.4284 59.2898 39.3429C59.3399 39.2516 59.4238 39.1758 59.5408 39.1144C59.6592 39.0522 59.7916 39.0149 59.9021 38.9943C59.9513 38.9851 59.993 38.9807 60.0222 38.9777Z" fill="#93D1E0" stroke="#2C2C2C"/>
<path d="M66.9954 37.3803C67.1174 37.3614 67.2489 37.352 67.371 37.352C68.6292 37.352 69.7278 38.0401 70.31 39.0581" stroke="#2C2C2C" stroke-miterlimit="10" stroke-linecap="round"/>
<path d="M64.4702 39.0015L64.4321 39.0588" stroke="#2C2C2C" stroke-miterlimit="10" stroke-linecap="round"/>
<path d="M52.8501 42.6316C53.9732 42.6316 53.9732 44.5263 55.1057 44.5263C56.2382 44.5263 56.2382 42.6316 57.3612 42.6316C58.4843 42.6316 58.4937 44.5263 59.6262 44.5263C60.7587 44.5263 60.7587 42.6316 61.8912 42.6316C63.0237 42.6316 63.0237 44.5263 64.1562 44.5263C65.2887 44.5263 65.2887 42.6316 66.4212 42.6316C67.5537 42.6316 67.5537 44.5263 68.6862 44.5263" stroke="#2C2C2C" stroke-miterlimit="10" stroke-linecap="round"/>
</g>
<defs>
<filter id="filter0_g_40000246_4274" x="-0.4" y="-0.4" width="151.8" height="162.8" filterUnits="userSpaceOnUse" color-interpolation-filters="sRGB">
<feFlood flood-opacity="0" result="BackgroundImageFix"/>
<feBlend mode="normal" in="SourceGraphic" in2="BackgroundImageFix" result="shape"/>
<feTurbulence type="fractalNoise" baseFrequency="0.66666668653488159 0.66666668653488159" numOctaves="3" seed="7043" />
<feDisplacementMap in="shape" scale="0.80000001192092896" xChannelSelector="R" yChannelSelector="G" result="displacedImage" width="100%" height="100%" />
<feMerge result="effect1_texture_40000246_4274">
<feMergeNode in="displacedImage"/>
</feMerge>
</filter>
<filter id="filter1_d_40000246_4274" x="8.7688" y="7.97369" width="103.907" height="154.931" filterUnits="userSpaceOnUse" color-interpolation-filters="sRGB">
<feFlood flood-opacity="0" result="BackgroundImageFix"/>
<feColorMatrix in="SourceAlpha" type="matrix" values="0 0 0 0 0 0 0 0 0 0 0 0 0 0 0 0 0 0 127 0" result="hardAlpha"/>
<feOffset dx="-1" dy="1"/>
<feGaussianBlur stdDeviation="1"/>
<feComposite in2="hardAlpha" operator="out"/>
<feColorMatrix type="matrix" values="0 0 0 0 0 0 0 0 0 0 0 0 0 0 0 0 0 0 0.25 0"/>
<feBlend mode="normal" in2="BackgroundImageFix" result="effect1_dropShadow_40000246_4274"/>
<feBlend mode="normal" in="SourceGraphic" in2="effect1_dropShadow_40000246_4274" result="shape"/>
</filter>
<clipPath id="clip0_40000246_4274">
<rect width="151" height="162" fill="white"/>
</clipPath>
</defs>
</svg>
