<svg width="151" height="162" viewBox="0 0 151 162" fill="none" xmlns="http://www.w3.org/2000/svg">
<g clip-path="url(#clip0_40000164_3195)" filter="url(#filter0_g_40000164_3195)">
<g filter="url(#filter1_d_40000164_3195)">
<path d="M61.7134 159.404C50.0709 159.404 39.0842 158.71 30.7566 157.447C24.2976 156.464 12.2688 154.643 12.2688 145.778C12.2688 142.189 14.2811 139.836 16.6617 138.284C16.5449 135.507 17.1019 132.711 18.3506 130.25C20.7581 125.47 25.3217 122.485 30.8824 122.061C30.9453 122.061 30.9992 122.061 31.0621 122.052C31.5561 122.025 32.0053 122.007 32.4545 122.007C34.9968 122.007 37.7277 122.386 40.6204 123.134L42.2733 107.624C35.2304 102.772 31.0261 95.3055 31.0261 87.2074C31.0261 82.7977 32.3018 78.4331 34.7093 74.6005C35.7514 72.9502 35.8412 70.8852 34.9519 68.9283C33.6493 66.0696 32.9845 63.0216 32.9845 59.8834C32.9845 56.1861 33.9547 52.4798 35.7873 49.1702C37.1079 46.7895 37.3055 44.1743 36.3084 42.1633C34.853 39.2235 34.1164 36.0763 34.1164 32.8209C34.1254 19.9434 45.9475 9.47369 60.4737 9.47369C69.3493 9.47369 77.4433 13.3965 82.2674 19.6548C82.8783 19.6007 83.4891 19.5827 84.1 19.5827C97.7368 19.5827 108.831 32.397 108.831 48.1512C108.831 62.6519 99.4346 74.6636 87.2981 76.4852C89.0139 79.8308 89.9123 83.5011 89.9123 87.1984C89.9123 94.4758 86.5435 101.23 80.6953 106.064L83.7227 119.645C85.4385 118.86 87.1813 118.229 88.987 117.751C89.4451 117.625 89.9482 117.507 90.5141 117.408C91.5562 117.21 92.5893 117.12 93.6044 117.12C101.312 117.12 107.654 122.909 108.697 130.89C109.074 133.776 108.715 136.526 107.762 138.979C109.784 140.575 111.176 142.757 111.176 145.778C111.176 154.643 99.1472 156.464 92.6881 157.447C84.3605 158.71 73.3648 159.404 61.7224 159.404H61.7134Z" fill="#FBFBFB"/>
<path d="M61.7134 159.404C50.0709 159.404 39.0842 158.71 30.7566 157.447C24.2976 156.464 12.2688 154.643 12.2688 145.778C12.2688 142.189 14.2811 139.836 16.6617 138.284C16.5449 135.507 17.1019 132.711 18.3506 130.25C20.7581 125.47 25.3217 122.485 30.8824 122.061C30.9453 122.061 30.9992 122.061 31.0621 122.052C31.5561 122.025 32.0053 122.007 32.4545 122.007C34.9968 122.007 37.7277 122.386 40.6204 123.134L42.2733 107.624C35.2304 102.772 31.0261 95.3055 31.0261 87.2074C31.0261 82.7977 32.3018 78.4331 34.7093 74.6005C35.7514 72.9502 35.8412 70.8852 34.9519 68.9283C33.6493 66.0696 32.9845 63.0216 32.9845 59.8834C32.9845 56.1861 33.9547 52.4798 35.7873 49.1702C37.1079 46.7895 37.3055 44.1743 36.3084 42.1633C34.853 39.2235 34.1164 36.0763 34.1164 32.8209C34.1254 19.9434 45.9475 9.47369 60.4737 9.47369C69.3493 9.47369 77.4433 13.3965 82.2674 19.6548C82.8783 19.6007 83.4891 19.5827 84.1 19.5827C97.7368 19.5827 108.831 32.397 108.831 48.1512C108.831 62.6519 99.4346 74.6636 87.2981 76.4852C89.0139 79.8308 89.9123 83.5011 89.9123 87.1984C89.9123 94.4758 86.5435 101.23 80.6953 106.064L83.7227 119.645C85.4385 118.86 87.1813 118.229 88.987 117.751C89.4451 117.625 89.9482 117.507 90.5141 117.408C91.5562 117.21 92.5893 117.12 93.6044 117.12C101.312 117.12 107.654 122.909 108.697 130.89C109.074 133.776 108.715 136.526 107.762 138.979C109.784 140.575 111.176 142.757 111.176 145.778C111.176 154.643 99.1472 156.464 92.6881 157.447C84.3605 158.71 73.3648 159.404 61.7224 159.404H61.7134Z" stroke="#9C9C9C" stroke-miterlimit="10"/>
</g>
<path d="M84.1002 69.5054C93.7898 69.5054 101.645 59.9448 101.645 48.1512C101.645 36.3576 93.7898 26.7969 84.1002 26.7969C74.4106 26.7969 66.5557 36.3576 66.5557 48.1512C66.5557 59.9448 74.4106 69.5054 84.1002 69.5054Z" fill="#93D1E0"/>
<path d="M61.7132 152.19C85.0516 152.19 103.971 149.323 103.971 145.787C103.971 142.251 85.0516 139.385 61.7132 139.385C38.3748 139.385 19.4553 142.251 19.4553 145.787C19.4553 149.323 38.3748 152.19 61.7132 152.19Z" fill="#2C2C2C"/>
<path d="M58.9285 80.2999V140.44C58.9285 143.731 56.2694 146.401 52.9905 146.401H32.3915C21.6025 146.401 20.6592 130.078 31.4213 129.258C31.7537 129.231 32.0951 129.222 32.4454 129.222C36.9641 129.222 42.1744 130.89 46.7829 133.036L52.4155 80.3089H58.9285V80.2999Z" fill="#CBCBC5" stroke="#2C2C2C" stroke-miterlimit="10"/>
<path d="M51.4094 135.597C50.4392 135.038 48.2921 133.703 44.1777 131.9L51.4094 135.597Z" fill="#CBCBC5"/>
<path d="M51.4094 135.597C50.4392 135.038 48.2921 133.703 44.1777 131.9" stroke="#2C2C2C" stroke-miterlimit="10" stroke-linecap="round"/>
<path d="M61.7131 83.8529L68.1003 142.397C68.9447 145.58 72.1877 147.474 75.3589 146.626L95.2661 141.324C105.696 138.546 102.435 122.53 91.8254 124.496C91.493 124.559 91.1606 124.632 90.8283 124.722C86.4623 125.885 82.851 128.022 78.9432 131.287L68.0015 82.1755L61.7041 83.8529H61.7131Z" fill="#CBCBC5" stroke="#2C2C2C" stroke-miterlimit="10"/>
<path d="M74.1104 135.742C74.9009 134.948 76.6437 133.108 80.1562 130.304L74.1104 135.742Z" fill="#FBFBFB"/>
<path d="M74.1104 135.742C74.9009 134.948 76.6437 133.108 80.1562 130.304" stroke="#2C2C2C" stroke-miterlimit="10" stroke-linecap="round"/>
<path d="M75.3682 146.22C75.3682 146.22 93.0744 128.663 97.117 132.739" stroke="#2C2C2C" stroke-miterlimit="10" stroke-linecap="round"/>
<path d="M82.7255 87.1984C82.7255 97.5328 72.754 105.91 60.4647 105.91C48.1754 105.91 38.2039 97.5328 38.2039 87.1984C38.2039 84.0331 39.1381 81.0482 40.7821 78.4421C43.1627 74.6636 43.3334 70.0014 41.4918 65.9343C40.6384 64.0496 40.1712 62.0116 40.1712 59.8743C40.1712 57.2952 40.854 54.8604 42.0667 52.6691C44.4293 48.4217 44.8965 43.3266 42.7495 38.962C41.8152 37.0682 41.3031 34.9851 41.3031 32.8118C41.3031 23.9112 49.8823 16.6879 60.4647 16.6879C71.0471 16.6879 79.6353 23.9112 79.6353 32.8118C79.6353 34.9941 79.1232 37.0773 78.1889 38.971C76.0419 43.3356 76.509 48.4307 78.8717 52.6871C80.0844 54.8694 80.7582 57.3043 80.7582 59.8743C80.7582 62.0116 80.291 64.0496 79.4376 65.9343C77.596 70.0014 77.7667 74.6636 80.1473 78.4421C81.7913 81.0572 82.7255 84.0331 82.7255 87.1984Z" fill="#EEEDEB" stroke="#2C2C2C" stroke-miterlimit="10"/>
<path d="M44.3754 131.981C44.3754 131.981 44.3035 131.945 44.2586 131.936L44.1777 131.891C44.2496 131.918 44.3125 131.954 44.3754 131.981Z" fill="#FBFBFB" stroke="#2C2C2C" stroke-miterlimit="10" stroke-linecap="round"/>
<path d="M59.8313 33.2518C59.8313 36.4377 59.1177 39.0299 56.0754 39.0299C53.2208 39.0299 51.9062 36.4472 51.9062 33.2518C51.9062 30.0564 52.8734 27.4737 56.0754 27.4737C58.8642 27.4737 59.8313 30.0564 59.8313 33.2518Z" fill="#FBFBFB" stroke="#2C2C2C" stroke-miterlimit="10"/>
<path d="M67.7565 33.2518C67.7565 33.3649 67.7565 33.4686 67.7565 33.5817C67.7377 35.071 67.5405 36.4 67.0053 37.3803C65.9349 37.4934 65.0147 38.1155 64.4794 39.0016C64.3292 39.0204 64.1696 39.0299 64.0099 39.0299C61.1554 39.0299 59.8408 36.4472 59.8408 33.2518C59.8408 30.0564 60.8174 27.4737 64.0099 27.4737C66.6955 27.4737 67.6908 29.8679 67.7659 32.903C67.7659 33.0161 67.7659 33.1387 67.7659 33.2518H67.7565Z" fill="#FBFBFB" stroke="#2C2C2C" stroke-miterlimit="10"/>
<path d="M57.2446 35.7358C57.2446 37.5078 56.8502 38.9406 55.16 38.9406C53.5731 38.9406 52.8501 37.5078 52.8501 35.7358C52.8501 33.9637 53.3853 32.5309 55.16 32.5309C56.7093 32.5309 57.2446 33.9637 57.2446 35.7358Z" fill="#2C2C2C"/>
<path d="M65.1696 35.4153C65.1696 37.1874 64.7752 38.6201 63.0851 38.6201C61.4982 38.6201 60.7751 37.1874 60.7751 35.4153C60.7751 33.6432 61.3104 32.2105 63.0851 32.2105C64.6344 32.2105 65.1696 33.6432 65.1696 35.4153Z" fill="#2C2C2C"/>
<path d="M60.0222 38.9777C60.5267 39.0613 60.7896 39.3256 60.9197 39.5988C61.0638 39.9017 61.0416 40.2023 60.9841 40.339C60.9718 40.3479 60.9194 40.3906 60.78 40.4327C60.6022 40.4865 60.3661 40.5122 60.1267 40.4874C59.6304 40.436 59.3107 40.2105 59.2439 39.8302C59.1992 39.5746 59.2429 39.4284 59.2898 39.3429C59.3399 39.2516 59.4238 39.1758 59.5408 39.1144C59.6592 39.0522 59.7916 39.0149 59.9021 38.9943C59.9513 38.9851 59.993 38.9807 60.0222 38.9777Z" fill="#93D1E0" stroke="#2C2C2C"/>
<path d="M66.9954 37.3803C67.1174 37.3614 67.2489 37.352 67.371 37.352C68.6292 37.352 69.7278 38.0401 70.31 39.0581" stroke="#2C2C2C" stroke-miterlimit="10" stroke-linecap="round"/>
<path d="M64.4702 39.0015L64.4321 39.0588" stroke="#2C2C2C" stroke-miterlimit="10" stroke-linecap="round"/>
<path d="M55.6812 43.8C55.6812 43.8 59.8242 42.2842 62.948 47.1916" stroke="#2C2C2C" stroke-miterlimit="10" stroke-linecap="round"/>
<path d="M60.3698 28.6725C58.5926 28.6725 56.7896 28.6273 55.0125 28.5303L52.5077 28.3946C51.8637 28.3622 51.2585 28.052 50.8528 27.5543C50.4471 27.0501 50.2669 26.3973 50.3634 25.7573L50.8657 22.435C51.0267 21.3684 51.9217 20.5475 52.997 20.4829L54.3879 20.3989C56.3711 20.2825 58.3865 20.2179 60.3762 20.2179C62.3659 20.2179 64.3813 20.2761 66.3645 20.3989L67.7554 20.4829C68.8307 20.5475 69.7257 21.3684 69.8867 22.435L70.3825 25.7573C70.4791 26.3973 70.2988 27.0501 69.8932 27.5543C69.4875 28.0584 68.8822 28.3622 68.2383 28.3946L65.7335 28.5303C63.9563 28.6273 62.1534 28.6725 60.3762 28.6725H60.3698Z" fill="#EEEDEB"/>
<path d="M60.3694 20.5476C62.3591 20.5476 64.3488 20.6057 66.3384 20.7221L67.7293 20.8061C68.6565 20.8643 69.4228 21.5624 69.558 22.4867L70.0538 25.8091C70.2277 26.9661 69.3713 28.0132 68.2122 28.0778L65.7074 28.2136C63.9302 28.3105 62.1466 28.3558 60.3694 28.3558C58.5922 28.3558 56.8086 28.3105 55.0314 28.2136L52.5266 28.0778C51.3676 28.0132 50.5112 26.9661 50.6851 25.8091L51.1809 22.4867C51.3225 21.5624 52.0823 20.8643 53.0096 20.8061L54.4004 20.7221C56.3901 20.6057 58.3798 20.5476 60.3694 20.5476ZM60.3694 19.9012C58.3733 19.9012 56.3514 19.9594 54.3618 20.0822L52.9709 20.1662C51.7475 20.2373 50.7237 21.1745 50.5434 22.3962L50.0476 25.7121C49.9381 26.4425 50.1442 27.1858 50.6078 27.7611C51.0714 28.3299 51.7604 28.6854 52.4944 28.7242L54.9992 28.86C56.7829 28.9569 58.5858 29.0022 60.3694 29.0022C62.1531 29.0022 63.9624 28.9569 65.7396 28.86L68.2444 28.7242C68.9785 28.6854 69.6675 28.3364 70.1311 27.7611C70.5947 27.1858 70.8007 26.4425 70.6913 25.7121L70.1955 22.3897C70.0152 21.1745 68.9913 20.2373 67.7679 20.1597L66.3771 20.0757C64.3874 19.9594 62.3655 19.8947 60.3694 19.8947V19.9012Z" fill="#2C2C2C"/>
<path d="M68.2709 20.8486C69.2627 20.9005 70.0823 21.6075 70.2269 22.5285L70.7573 25.8623C70.9432 27.0233 70.0272 28.0805 68.7874 28.1389L66.1082 28.2751C62.3062 28.4697 58.4974 28.4697 54.6886 28.2751L52.0162 28.1389C50.8797 28.087 50.0188 27.1984 50.0188 26.1671C50.0188 26.2709 50.067 26.3488 50.1152 26.3942C50.1703 26.459 50.2736 26.5304 50.4389 26.5369L53.3799 26.6731C55.4255 26.7639 57.4987 26.8093 59.5512 26.8093C61.6037 26.8093 63.6769 26.7639 65.7225 26.6731L68.6635 26.5369C68.8288 26.5239 68.9252 26.459 68.9872 26.3942C69.0423 26.3358 69.1043 26.232 69.0767 26.1023L68.4913 21.1664C68.4568 20.9913 68.2846 20.8486 68.078 20.8421H68.2709V20.8486Z" fill="#2C2C2C"/>
<path d="M71.7253 29.8209V37.7648" stroke="#2C2C2C" stroke-miterlimit="10" stroke-linecap="round"/>
<path d="M73.3738 29.3684V33.7961" stroke="#2C2C2C" stroke-miterlimit="10" stroke-linecap="round"/>
<path d="M75.0288 30.1764V31.8505" stroke="#2C2C2C" stroke-miterlimit="10" stroke-linecap="round"/>
</g>
<defs>
<filter id="filter0_g_40000164_3195" x="-0.4" y="-0.4" width="151.8" height="162.8" filterUnits="userSpaceOnUse" color-interpolation-filters="sRGB">
<feFlood flood-opacity="0" result="BackgroundImageFix"/>
<feBlend mode="normal" in="SourceGraphic" in2="BackgroundImageFix" result="shape"/>
<feTurbulence type="fractalNoise" baseFrequency="0.66666668653488159 0.66666668653488159" numOctaves="3" seed="7043" />
<feDisplacementMap in="shape" scale="0.80000001192092896" xChannelSelector="R" yChannelSelector="G" result="displacedImage" width="100%" height="100%" />
<feMerge result="effect1_texture_40000164_3195">
<feMergeNode in="displacedImage"/>
</feMerge>
</filter>
<filter id="filter1_d_40000164_3195" x="8.7688" y="7.97369" width="103.907" height="154.931" filterUnits="userSpaceOnUse" color-interpolation-filters="sRGB">
<feFlood flood-opacity="0" result="BackgroundImageFix"/>
<feColorMatrix in="SourceAlpha" type="matrix" values="0 0 0 0 0 0 0 0 0 0 0 0 0 0 0 0 0 0 127 0" result="hardAlpha"/>
<feOffset dx="-1" dy="1"/>
<feGaussianBlur stdDeviation="1"/>
<feComposite in2="hardAlpha" operator="out"/>
<feColorMatrix type="matrix" values="0 0 0 0 0 0 0 0 0 0 0 0 0 0 0 0 0 0 0.25 0"/>
<feBlend mode="normal" in2="BackgroundImageFix" result="effect1_dropShadow_40000164_3195"/>
<feBlend mode="normal" in="SourceGraphic" in2="effect1_dropShadow_40000164_3195" result="shape"/>
</filter>
<clipPath id="clip0_40000164_3195">
<rect width="151" height="162" fill="white"/>
</clipPath>
</defs>
</svg>
