<svg width="136" height="36" viewBox="0 0 136 36" fill="none" xmlns="http://www.w3.org/2000/svg">
<rect x="1" y="1" width="134" height="34" rx="6" fill="#FBFBFB"/>
<rect x="1" y="1" width="134" height="34" rx="6" stroke="#9C9C9C"/>
<rect x="6.5" y="6.5" width="122" height="23" rx="3.5" fill="#FBFBFB" stroke="#FBD7D5"/>
<path d="M55.4059 13.934C55.5366 13.9433 55.6346 13.9853 55.6999 14.06C55.7652 14.1253 55.7886 14.2233 55.7699 14.354L55.4339 16.748H57.5059L57.8699 14.284C57.8979 14.032 58.0566 13.9153 58.3459 13.934C58.4672 13.9433 58.5606 13.9853 58.6259 14.06C58.6912 14.1253 58.7146 14.2233 58.6959 14.354L58.3599 16.748H59.5219C59.6526 16.748 59.7459 16.79 59.8019 16.874C59.8579 16.958 59.8859 17.0607 59.8859 17.182C59.8859 17.294 59.8579 17.392 59.8019 17.476C59.7459 17.56 59.6526 17.602 59.5219 17.602H58.2339L57.8699 20.262H59.0599C59.1906 20.262 59.2839 20.304 59.3399 20.388C59.3959 20.472 59.4239 20.5747 59.4239 20.696C59.4239 20.808 59.3959 20.906 59.3399 20.99C59.2839 21.074 59.1906 21.116 59.0599 21.116H57.7579L57.4079 23.622C57.3799 23.874 57.2212 23.986 56.9319 23.958C56.8012 23.9487 56.7032 23.9113 56.6379 23.846C56.5726 23.7713 56.5492 23.6687 56.5679 23.538L56.9039 21.116H54.8179L54.4819 23.622C54.4352 23.874 54.2719 23.986 53.9919 23.958C53.8706 23.9487 53.7772 23.9113 53.7119 23.846C53.6466 23.7713 53.6232 23.6687 53.6419 23.538L53.9779 21.116H52.8159C52.6852 21.116 52.5919 21.074 52.5359 20.99C52.4799 20.906 52.4519 20.808 52.4519 20.696C52.4519 20.5747 52.4799 20.472 52.5359 20.388C52.5919 20.304 52.6852 20.262 52.8159 20.262H54.0899L54.4679 17.602H53.2639C53.1426 17.602 53.0539 17.56 52.9979 17.476C52.9419 17.392 52.9139 17.294 52.9139 17.182C52.9139 17.0607 52.9419 16.958 52.9979 16.874C53.0539 16.79 53.1426 16.748 53.2639 16.748H54.5799L54.9299 14.284C54.9486 14.1533 54.9999 14.06 55.0839 14.004C55.1679 13.948 55.2752 13.9247 55.4059 13.934ZM57.0299 20.262L57.4079 17.602H55.3079L54.9439 20.262H57.0299ZM65.6257 14.144C65.7471 14.144 65.8357 14.186 65.8917 14.27C65.9477 14.354 65.9757 14.4567 65.9757 14.578C65.9757 14.7087 65.9477 14.816 65.8917 14.9C65.8357 14.984 65.7471 15.026 65.6257 15.026H62.1677C61.9904 15.026 61.9017 15.11 61.9017 15.278V17.56H65.4157C65.5371 17.56 65.6257 17.602 65.6817 17.686C65.7377 17.77 65.7657 17.8727 65.7657 17.994C65.7657 18.106 65.7377 18.2087 65.6817 18.302C65.6257 18.386 65.5371 18.428 65.4157 18.428H61.9017V20.78C61.9017 20.948 61.9904 21.032 62.1677 21.032C62.5037 21.032 62.8537 21.0273 63.2177 21.018C63.5817 20.9993 63.9411 20.9807 64.2957 20.962C64.6504 20.9433 64.9864 20.92 65.3037 20.892C65.6304 20.8547 65.9291 20.8173 66.1997 20.78C66.3024 20.7613 66.3911 20.7893 66.4657 20.864C66.5404 20.9293 66.5871 21.0227 66.6057 21.144C66.6244 21.2747 66.6057 21.3913 66.5497 21.494C66.5031 21.5873 66.4237 21.6433 66.3117 21.662C65.8917 21.7367 65.2897 21.7973 64.5057 21.844C63.7217 21.8907 62.8444 21.914 61.8737 21.914C61.5097 21.914 61.2577 21.8487 61.1177 21.718C60.9777 21.578 60.9077 21.3307 60.9077 20.976V15.082C60.9077 14.7273 60.9777 14.4847 61.1177 14.354C61.2577 14.214 61.5097 14.144 61.8737 14.144H65.6257ZM70.7637 13.164C70.8944 13.164 71.0064 13.1967 71.0997 13.262C71.2024 13.3273 71.2537 13.43 71.2537 13.57V24.742C71.2537 24.882 71.2024 24.9847 71.0997 25.05C71.0064 25.1153 70.8944 25.148 70.7637 25.148C70.6424 25.148 70.5304 25.1153 70.4277 25.05C70.3344 24.9847 70.2877 24.882 70.2877 24.742V18.442H68.4257V24.154C68.4257 24.294 68.3744 24.3967 68.2717 24.462C68.1784 24.5273 68.0664 24.56 67.9357 24.56C67.8144 24.56 67.7024 24.5273 67.5997 24.462C67.5064 24.3967 67.4597 24.294 67.4597 24.154V13.71C67.4597 13.57 67.5064 13.4673 67.5997 13.402C67.7024 13.3367 67.8144 13.304 67.9357 13.304C68.0664 13.304 68.1784 13.3367 68.2717 13.402C68.3744 13.4673 68.4257 13.57 68.4257 13.71V17.56H70.2877V13.57C70.2877 13.43 70.3344 13.3273 70.4277 13.262C70.5304 13.1967 70.6424 13.164 70.7637 13.164ZM81.7039 14.144C82.0679 14.144 82.3199 14.214 82.4599 14.354C82.5999 14.4847 82.6699 14.7273 82.6699 15.082V16.328C82.6699 17.2707 82.6326 18.1527 82.5579 18.974C82.4833 19.786 82.3573 20.5933 82.1799 21.396C82.1613 21.5267 82.0913 21.62 81.9699 21.676C81.8579 21.732 81.7273 21.746 81.5779 21.718C81.4473 21.6993 81.3399 21.648 81.2559 21.564C81.1813 21.4707 81.1579 21.3633 81.1859 21.242C81.3446 20.4113 81.4613 19.604 81.5359 18.82C81.6199 18.036 81.6619 17.266 81.6619 16.51V15.306C81.6619 15.2033 81.6386 15.138 81.5919 15.11C81.5546 15.0727 81.4893 15.054 81.3959 15.054H74.6619C74.5313 15.054 74.4379 15.012 74.3819 14.928C74.3259 14.8347 74.2979 14.7227 74.2979 14.592C74.2979 14.4613 74.3259 14.354 74.3819 14.27C74.4379 14.186 74.5313 14.144 74.6619 14.144H81.7039ZM84.0839 22.95C84.2146 22.95 84.3079 22.9967 84.3639 23.09C84.4199 23.174 84.4479 23.2813 84.4479 23.412C84.4479 23.5333 84.4199 23.636 84.3639 23.72C84.3079 23.804 84.2146 23.846 84.0839 23.846H73.1359C73.0053 23.846 72.9119 23.804 72.8559 23.72C72.7999 23.636 72.7719 23.5333 72.7719 23.412C72.7719 23.2813 72.7999 23.174 72.8559 23.09C72.9119 22.9967 73.0053 22.95 73.1359 22.95H84.0839Z" fill="#2C2C2C"/>
</svg>
