<svg width="261" height="339" viewBox="0 0 261 339" fill="none" xmlns="http://www.w3.org/2000/svg">
<rect x="0.525641" y="0.525641" width="259.949" height="337.949" rx="13.7564" stroke="#9C9C9C" stroke-width="0.948718"/>
<g clip-path="url(#clip0_40002002_5780)">
<path d="M254.066 254.308C263.059 254.308 271.545 253.773 277.977 252.802C282.966 252.046 292.256 250.644 292.256 243.823C292.256 240.16 289.571 238.127 286.719 236.947C286.636 235.039 286.13 233.159 285.2 231.487C283.292 228.045 279.843 225.894 275.729 225.575C275.368 225.547 274.972 225.533 274.507 225.533C272.551 225.533 270.441 225.825 268.2 226.4L267.943 223.993C269.491 222.633 270.67 221.037 271.406 219.288C277.297 218.719 284.02 213.238 285.283 205.286C285.554 203.559 285.498 201.907 285.144 200.381C286.164 199.492 287.059 198.41 287.788 197.147C290.619 192.249 290.619 185.129 287.788 180.224C287.059 178.961 286.164 177.872 285.144 176.99C285.498 175.464 285.561 173.813 285.29 172.085C284.027 164.126 277.311 158.645 271.413 158.069C271.309 157.819 271.191 157.562 271.059 157.319C268.561 152.421 262.455 149 256.196 149C253.511 149 251.117 149.666 249.16 150.853C247.204 149.666 244.81 149 242.125 149C235.866 149 229.76 152.421 227.262 157.312C227.137 157.562 227.019 157.812 226.908 158.062C221.01 158.631 214.287 164.119 213.031 172.078C212.76 173.792 212.816 175.443 213.17 176.963C210.207 179.523 208.396 183.686 208.396 188.668C208.396 193.65 210.214 197.82 213.17 200.381C212.816 201.907 212.76 203.552 213.031 205.272C214.134 212.239 219.428 217.311 224.688 218.844C221.038 220.246 218.186 223.5 217.222 227.691C216.362 231.431 217.236 235.108 219.442 237.898C217.236 239.237 215.869 241.117 215.869 243.823C215.869 250.644 225.16 252.046 230.149 252.802C236.574 253.773 245.067 254.308 254.059 254.308H254.066Z" fill="#FBFBFB" stroke="#9C9C9C" stroke-width="0.948718" stroke-miterlimit="10"/>
<g filter="url(#filter0_g_40002002_5780)">
<path d="M256.476 248.9C238.45 248.9 223.837 246.694 223.837 243.974C223.837 241.253 238.45 239.047 256.476 239.047C274.503 239.047 289.116 241.253 289.116 243.974C289.116 246.694 274.503 248.9 256.476 248.9Z" fill="#2C2C2C"/>
<path d="M256.463 193.585V239.859C256.463 242.392 258.517 244.446 261.049 244.446H276.96C285.293 244.446 286.022 231.887 277.709 231.255C277.452 231.234 277.189 231.227 276.918 231.227C273.428 231.227 269.404 232.511 265.844 234.162L261.494 193.592H256.463V193.585Z" fill="#9C9C9C" stroke="#2C2C2C" stroke-width="0.948718" stroke-miterlimit="10"/>
<path d="M259.023 198.019L249.066 241.295C247.963 243.578 245.222 244.529 242.939 243.426L228.625 236.494C221.124 232.858 225.94 221.243 233.697 224.289C233.94 224.386 234.183 224.49 234.419 224.608C237.555 226.128 239.983 228.272 242.467 231.311L254.492 195.827L259.023 198.019Z" fill="#9C9C9C" stroke="#2C2C2C" stroke-width="0.948718" stroke-miterlimit="10"/>
<path d="M245.486 235.391C245 234.676 243.952 233.031 241.697 230.395Z" fill="#9C9C9C"/>
<path d="M245.486 235.391C245 234.676 243.952 233.031 241.697 230.395" stroke="#2C2C2C" stroke-width="0.948718" stroke-miterlimit="10" stroke-linecap="round"/>
<path d="M242.995 243.127C242.995 243.127 232.143 227.259 228.479 229.743Z" fill="#9C9C9C"/>
<path d="M242.995 243.127C242.995 243.127 232.143 227.259 228.479 229.743" stroke="#2C2C2C" stroke-width="0.948718" stroke-miterlimit="10" stroke-linecap="round"/>
<path d="M235.473 166.657C227.917 156.263 251.571 148.575 251.571 161.425C251.571 148.575 275.225 156.263 267.669 166.657C275.225 156.263 289.837 176.378 277.619 180.353C289.837 176.385 289.837 201.253 277.619 197.284C289.837 201.253 275.225 221.375 267.669 210.981C275.225 221.375 251.571 229.063 251.571 216.212C251.571 229.063 227.917 221.375 235.473 210.981C227.917 221.375 213.304 201.26 225.523 197.284C213.304 201.253 213.304 176.385 225.523 180.353C213.304 176.385 227.917 156.263 235.473 166.657Z" fill="#EEEDEB"/>
<path d="M235.473 166.657C227.917 156.263 251.571 148.575 251.571 161.425C251.571 148.575 275.225 156.263 267.669 166.657C275.225 156.263 289.837 176.378 277.619 180.353C289.837 176.385 289.837 201.253 277.619 197.284C289.837 201.253 275.225 221.375 267.669 210.981C275.225 221.375 251.571 229.063 251.571 216.212C251.571 229.063 227.917 221.375 235.473 210.981C227.917 221.375 213.304 201.26 225.523 197.284C213.304 201.253 213.304 176.385 225.523 180.353C213.304 176.385 227.917 156.263 235.473 166.657Z" fill="#EEEDEB" stroke="#2C2C2C" stroke-width="0.948718" stroke-miterlimit="10"/>
<path d="M249.198 185.585L249.267 185.8C249.309 185.932 249.358 186.057 249.399 186.189C249.469 186.383 249.545 186.577 249.621 186.765C249.642 186.827 249.67 186.883 249.691 186.938C250.745 189.485 252.3 191.129 254.985 190.262C257.927 189.304 258.419 186.21 257.351 182.935C257.101 182.178 256.817 181.464 256.463 180.839C255.276 181.401 254.013 181.935 252.716 182.442C251.509 182.921 250.26 183.372 248.969 183.788C248.9 183.816 248.816 183.844 248.747 183.864C248.851 184.419 248.997 184.995 249.191 185.578L249.198 185.585Z" fill="#FBFBFB" stroke="#2C2C2C" stroke-width="0.948718" stroke-miterlimit="10"/>
<path d="M241.031 188.236C241.066 188.347 241.108 188.458 241.149 188.569C242.211 191.67 243.8 193.898 246.832 192.905C249.774 191.948 250.267 188.853 249.198 185.578C249.004 184.988 248.789 184.44 248.546 183.927C247.255 184.35 245.979 184.718 244.723 185.044C243.356 185.412 242.023 185.717 240.719 185.967C240.65 185.988 240.587 186.008 240.518 186.015C240.594 186.612 240.74 187.236 240.934 187.875C240.969 187.993 241.004 188.118 241.045 188.236H241.031Z" fill="#FBFBFB" stroke="#2C2C2C" stroke-width="0.948718" stroke-miterlimit="10"/>
<path d="M241.031 188.236C241.066 188.347 241.107 188.458 241.149 188.569C241.739 190.206 242.62 191.351 244.251 190.824C245.881 190.297 246.152 188.576 245.562 186.765C245.347 186.099 245.076 185.509 244.722 185.051C243.356 185.419 242.023 185.724 240.719 185.974C240.656 186.536 240.74 187.188 240.927 187.875C240.962 187.993 240.996 188.118 241.038 188.236H241.031Z" fill="#2C2C2C"/>
<path d="M250.586 191.552C250.586 191.552 247.075 193.842 249.038 194.487C251.002 195.14 251.8 194.383 252.216 193.495C252.424 193.051 252.334 191.566 251.939 191.296C251.543 191.025 250.586 191.552 250.586 191.552Z" fill="#FEE888" stroke="#2C2C2C" stroke-width="0.948718" stroke-miterlimit="10"/>
<path d="M248.761 183.864C248.83 183.843 248.913 183.816 248.983 183.788C250.273 183.365 251.522 182.921 252.73 182.442C254.027 181.928 255.29 181.401 256.477 180.839C255.359 178.764 253.673 177.585 251.141 178.404C248.782 179.167 248.268 181.311 248.761 183.871V183.864Z" fill="#EEEDEB" stroke="#2C2C2C" stroke-width="0.948718" stroke-miterlimit="10"/>
<path d="M240.504 186.022C240.574 186.015 240.643 186.001 240.705 185.981C242.01 185.731 243.342 185.419 244.709 185.058C245.965 184.732 247.242 184.357 248.532 183.941C247.408 181.588 245.667 180.18 242.961 181.061C240.754 181.776 240.164 183.698 240.49 186.029L240.504 186.022Z" fill="#EEEDEB" stroke="#2C2C2C" stroke-width="0.948718" stroke-miterlimit="10"/>
<path d="M252.737 183.164C251.411 183.531 249.961 184.655 249.912 186.335C249.912 186.418 249.996 186.473 250.072 186.446C250.62 186.251 251.654 185.752 253.944 186.862" stroke="#2C2C2C" stroke-width="0.948718" stroke-miterlimit="10" stroke-linecap="round"/>
<path d="M258.065 195.827C258.141 195.757 258.211 195.695 258.28 195.618Z" fill="#EEEDEB"/>
<path d="M258.065 195.827C258.141 195.757 258.211 195.695 258.28 195.618" stroke="#2C2C2C" stroke-width="0.948718" stroke-miterlimit="10" stroke-linecap="round"/>
<path d="M248.789 198.845C248.719 198.838 248.657 198.831 248.601 198.817L248.497 198.803" fill="#EEEDEB"/>
<path d="M248.789 198.845C248.719 198.838 248.657 198.831 248.601 198.817L248.497 198.803" stroke="#2C2C2C" stroke-width="0.948718" stroke-miterlimit="10" stroke-linecap="round"/>
<path d="M248.851 199.095C249.489 201.051 252.091 201.967 254.666 201.135C257.24 200.302 258.808 198.033 258.17 196.069C258.142 195.993 258.107 195.91 258.072 195.833C255.602 198.213 252.182 199.324 248.796 198.845C248.809 198.928 248.83 199.018 248.858 199.095H248.851Z" fill="#EEEDEB" stroke="#2C2C2C" stroke-width="0.948718" stroke-miterlimit="10" stroke-linecap="round"/>
</g>
</g>
<defs>
<filter id="filter0_g_40002002_5780" x="215.505" y="153.839" width="73.9899" height="95.4411" filterUnits="userSpaceOnUse" color-interpolation-filters="sRGB">
<feFlood flood-opacity="0" result="BackgroundImageFix"/>
<feBlend mode="normal" in="SourceGraphic" in2="BackgroundImageFix" result="shape"/>
<feTurbulence type="fractalNoise" baseFrequency="0.70270270109176636 0.70270270109176636" numOctaves="3" seed="7043" />
<feDisplacementMap in="shape" scale="0.75897437334060669" xChannelSelector="R" yChannelSelector="G" result="displacedImage" width="100%" height="100%" />
<feMerge result="effect1_texture_40002002_5780">
<feMergeNode in="displacedImage"/>
</feMerge>
</filter>
<clipPath id="clip0_40002002_5780">
<rect width="86.3333" height="131.872" fill="white" transform="matrix(-1 0 0 1 260 130.974)"/>
</clipPath>
</defs>
</svg>
