<svg width="262" height="340" viewBox="0 0 262 340" fill="none" xmlns="http://www.w3.org/2000/svg">
<rect x="0.525641" y="0.525641" width="260.949" height="338.949" rx="13.7564" stroke="#9C9C9C" stroke-width="0.948718"/>
<g clip-path="url(#clip0_40002001_6001)">
<path d="M250.85 224.531L250.803 224.607C250.739 224.687 250.676 224.773 250.615 224.864C250.69 224.756 250.769 224.641 250.85 224.531Z" stroke="#2C2C2C" stroke-width="0.948718" stroke-miterlimit="10" stroke-linecap="round"/>
<path d="M284.817 225.613C286.386 231.263 279.04 234.586 275.096 236.373C270.011 238.674 263.124 241.092 255.707 243.182C248.29 245.272 241.157 246.804 235.624 247.494C231.332 248.027 223.341 249.025 221.772 243.375C221.136 241.086 221.997 239.23 223.234 237.814C222.668 236.063 222.527 234.18 222.886 232.379C223.572 228.891 225.964 226.164 229.434 224.895C229.77 224.769 230.099 224.664 230.419 224.574C232.04 224.117 233.848 223.868 235.825 223.826L235.342 220.929C229.475 219.015 225.079 214.683 223.521 209.073C222.682 206.052 222.726 202.833 223.656 199.754C224.104 198.257 223.727 196.632 222.626 195.311C221.194 193.605 220.172 191.66 219.583 189.537C218.872 186.976 218.832 184.345 219.464 181.704C219.965 179.64 219.55 177.61 218.36 176.283C216.809 174.549 215.717 172.549 215.105 170.345C212.669 161.577 218.759 152.175 228.685 149.379C238.61 146.582 248.671 151.434 251.106 160.202C251.72 162.412 251.816 164.692 251.383 166.979C251.051 168.742 251.747 170.692 253.236 172.208C255.102 174.102 256.461 176.436 257.159 178.95C257.752 181.085 257.877 183.289 257.525 185.491C257.264 187.178 257.785 188.762 258.949 189.817C261.322 191.959 263.019 194.688 263.858 197.709C265.153 202.375 264.287 207.414 261.557 211.726L262.693 213.862C263.648 213.053 264.648 212.338 265.714 211.708C266.005 211.533 266.307 211.374 266.61 211.22C267.256 210.902 267.899 210.659 268.54 210.478C273.454 209.093 278.529 211.646 280.602 216.552C281.354 218.326 281.614 220.151 281.436 221.888C283.009 222.55 284.282 223.686 284.817 225.613Z" fill="#FBFBFB" stroke="#9C9C9C" stroke-width="0.948718" stroke-miterlimit="10"/>
<g filter="url(#filter0_g_40002001_6001)">
<path d="M252.296 230.891C259.723 228.793 266.562 227.349 271.613 226.71C274.142 226.39 276.202 226.274 277.655 226.372C278.385 226.421 278.932 226.522 279.302 226.662C279.686 226.807 279.772 226.949 279.788 227.009C279.805 227.069 279.805 227.236 279.551 227.561C279.307 227.874 278.891 228.248 278.292 228.672C277.1 229.517 275.28 230.498 272.953 231.549C268.307 233.65 261.719 236 254.292 238.098C246.865 240.196 240.026 241.64 234.975 242.279C232.446 242.599 230.386 242.715 228.932 242.617C228.202 242.568 227.655 242.467 227.285 242.327C226.901 242.183 226.816 242.04 226.8 241.98C226.783 241.919 226.782 241.753 227.036 241.428C227.28 241.115 227.696 240.741 228.295 240.317C229.487 239.472 231.308 238.491 233.635 237.44C238.281 235.339 244.869 232.989 252.296 230.891Z" fill="#2C2C2C" stroke="#2C2C2C" stroke-width="0.948718"/>
<path d="M239.992 193.214L250.578 231.532C251.157 233.629 249.926 235.812 247.828 236.406L234.65 240.139C227.747 242.094 224.271 231.865 231.012 229.392C231.219 229.314 231.436 229.247 231.66 229.183C234.551 228.364 238.178 228.483 241.504 229.016L235.827 194.399L239.994 193.219L239.992 193.214Z" fill="#CBCBC5" stroke="#2C2C2C" stroke-width="0.948718" stroke-miterlimit="10"/>
<path d="M244.913 229.837C244.195 229.657 242.59 229.197 239.647 228.794Z" fill="#CBCBC5"/>
<path d="M244.913 229.837C244.195 229.657 242.59 229.197 239.647 228.794" stroke="#2C2C2C" stroke-width="0.948718" stroke-miterlimit="10" stroke-linecap="round"/>
<path d="M242.317 195.042L256.703 231.178C257.803 233.053 260.21 233.672 262.089 232.557L273.888 225.572C280.07 221.913 275.166 212.302 268.727 215.476C268.525 215.577 268.325 215.683 268.129 215.801C265.541 217.333 263.607 219.349 261.683 222.136L246.044 192.834L242.311 195.043L242.317 195.042Z" fill="#CBCBC5" stroke="#2C2C2C" stroke-width="0.948718" stroke-miterlimit="10"/>
<path d="M259.409 225.859C259.775 225.211 260.565 223.724 262.316 221.304Z" fill="#CBCBC5"/>
<path d="M259.409 225.859C259.775 225.211 260.565 223.724 262.316 221.304" stroke="#2C2C2C" stroke-width="0.948718" stroke-miterlimit="10" stroke-linecap="round"/>
<path d="M262.064 232.318C262.064 232.318 270.268 217.943 273.566 219.81" stroke="#2C2C2C" stroke-width="0.948718" stroke-miterlimit="10" stroke-linecap="round"/>
</g>
<g filter="url(#filter1_g_40002001_6001)">
<path d="M259.276 199C261.286 206.237 255.936 214.078 247.334 216.502C238.731 218.926 230.118 215.018 228.108 207.78C227.491 205.56 227.564 203.287 228.213 201.132C229.144 198.016 228.357 194.714 226.277 192.229C225.316 191.079 224.591 189.739 224.176 188.243C223.674 186.436 223.675 184.593 224.102 182.817C224.931 179.376 224.265 175.711 221.91 173.08C220.888 171.935 220.123 170.581 219.7 169.057C217.967 162.82 222.569 156.064 229.974 153.978C237.38 151.892 244.805 155.259 246.537 161.496C246.962 163.026 247.006 164.583 246.724 166.102C246.066 169.581 247.392 173.067 249.869 175.582C251.142 176.874 252.086 178.45 252.585 180.245C253 181.741 253.072 183.266 252.842 184.751C252.344 187.962 253.366 191.198 255.774 193.373C257.433 194.878 258.672 196.781 259.289 199.002L259.276 199Z" fill="#EEEDEB"/>
<path d="M259.276 199C261.286 206.237 255.936 214.078 247.334 216.502C238.731 218.926 230.118 215.018 228.108 207.78C227.491 205.56 227.564 203.287 228.213 201.132C229.144 198.016 228.357 194.714 226.277 192.229C225.316 191.079 224.591 189.739 224.176 188.243C223.674 186.436 223.675 184.593 224.102 182.817C224.931 179.376 224.265 175.711 221.91 173.08C220.888 171.935 220.123 170.581 219.7 169.057C217.967 162.82 222.569 156.064 229.974 153.978C237.38 151.892 244.805 155.259 246.537 161.496C246.962 163.026 247.006 164.583 246.724 166.102C246.066 169.581 247.392 173.067 249.869 175.582C251.142 176.874 252.086 178.45 252.585 180.245C253 181.741 253.072 183.266 252.842 184.751C252.344 187.962 253.366 191.198 255.774 193.373C257.433 194.878 258.672 196.781 259.289 199.002L259.276 199Z" stroke="#2C2C2C" stroke-width="0.948718" stroke-miterlimit="10"/>
</g>
<g filter="url(#filter2_g_40002001_6001)">
<path d="M232.887 164.966C233.477 167.103 233.479 168.967 231.429 169.547C229.511 170.09 228.154 168.61 227.564 166.473C226.973 164.336 227.144 162.423 229.291 161.815C231.163 161.285 232.296 162.829 232.887 164.966Z" fill="#FBFBFB" stroke="#2C2C2C" stroke-width="0.948718" stroke-miterlimit="10"/>
<path d="M238.196 163.47C238.216 163.545 238.235 163.614 238.256 163.688C238.519 164.685 238.635 165.619 238.454 166.376C237.757 166.654 237.253 167.249 237.06 167.942C236.96 167.983 236.858 168.018 236.749 168.048C234.831 168.591 233.469 167.113 232.879 164.975C232.288 162.838 232.465 160.924 234.612 160.316C236.415 159.805 237.53 161.218 238.136 163.233C238.157 163.307 238.179 163.388 238.2 163.463L238.196 163.47Z" fill="#FBFBFB" stroke="#2C2C2C" stroke-width="0.948718" stroke-miterlimit="10"/>
<path d="M231.078 163.898C231.423 163.8 231.666 163.885 231.881 164.098C232.124 164.339 232.334 164.758 232.488 165.316C232.647 165.892 232.701 166.35 232.627 166.677C232.592 166.829 232.533 166.943 232.448 167.031C232.363 167.119 232.228 167.206 232.009 167.269C231.64 167.373 231.349 167.288 231.101 167.071C230.832 166.837 230.599 166.431 230.45 165.893C230.295 165.333 230.263 164.874 230.359 164.544C230.442 164.257 230.631 164.024 231.078 163.898Z" fill="#2C2C2C" stroke="#2C2C2C" stroke-width="0.948718"/>
<path d="M236.325 162.184C236.671 162.086 236.914 162.171 237.128 162.384C237.371 162.625 237.581 163.044 237.736 163.602C237.895 164.178 237.948 164.636 237.874 164.962C237.84 165.115 237.78 165.228 237.696 165.316C237.61 165.405 237.476 165.492 237.257 165.554C236.888 165.659 236.597 165.574 236.348 165.357C236.08 165.123 235.846 164.717 235.697 164.179C235.543 163.619 235.511 163.16 235.606 162.83C235.689 162.543 235.879 162.31 236.325 162.184Z" fill="#2C2C2C" stroke="#2C2C2C" stroke-width="0.948718"/>
<path d="M234.099 168.898C234.401 168.87 234.582 168.978 234.691 169.103C234.803 169.23 234.837 169.369 234.842 169.446C234.829 169.458 234.811 169.476 234.779 169.497C234.684 169.557 234.546 169.614 234.396 169.64C234.079 169.696 233.898 169.605 233.819 169.437C233.753 169.296 233.761 169.22 233.769 169.186C233.778 169.145 233.804 169.099 233.858 169.048C233.914 168.995 233.985 168.952 234.048 168.921C234.067 168.911 234.085 168.904 234.099 168.898Z" fill="#93D1E0" stroke="#2C2C2C" stroke-width="0.948718"/>
<path d="M237.889 168.834C237.889 168.834 237.438 172.203 233.228 171.549" stroke="#2C2C2C" stroke-width="0.948718" stroke-miterlimit="10" stroke-linecap="round"/>
<path d="M238.448 166.389C238.525 166.355 238.609 166.325 238.695 166.3C239.538 166.062 240.404 166.312 240.983 166.886" stroke="#2C2C2C" stroke-width="0.948718" stroke-miterlimit="10" stroke-linecap="round"/>
<path d="M237.062 167.949L237.049 167.999" stroke="#2C2C2C" stroke-width="0.948718" stroke-miterlimit="10" stroke-linecap="round"/>
</g>
</g>
<g clip-path="url(#clip1_40002001_6001)">
<path d="M7.22771 102.147L7.27473 102.222C7.33893 102.302 7.40153 102.388 7.46254 102.48C7.38755 102.372 7.30843 102.256 7.22771 102.147Z" stroke="#2C2C2C" stroke-width="0.948718" stroke-miterlimit="10" stroke-linecap="round"/>
<path d="M-26.7393 103.229C-28.3085 108.879 -20.9625 112.201 -17.0188 113.989C-11.9334 116.29 -5.04628 118.708 2.37049 120.797C9.78726 122.887 16.9204 124.419 22.4533 125.109C26.7454 125.642 34.7369 126.641 36.3061 120.991C36.9421 118.701 36.0804 116.845 34.8433 115.43C35.4099 113.679 35.5502 111.795 35.1919 109.994C34.5055 106.507 32.1136 103.779 28.6435 102.51C28.3079 102.385 27.9789 102.28 27.6582 102.189C26.0373 101.733 24.2291 101.484 22.2523 101.442L22.7359 98.5443C28.6031 96.6302 32.999 92.2979 34.557 86.6883C35.396 83.6678 35.3516 80.448 34.4219 77.3696C33.9732 75.8722 34.3503 74.2477 35.4521 72.9266C36.8831 71.2205 37.9051 69.2751 38.4948 67.1521C39.2059 64.5919 39.2452 61.9602 38.6138 59.3195C38.1127 57.2552 38.5281 55.2258 39.7181 53.8985C41.2682 52.1639 42.3609 50.164 42.9729 47.9605C45.4082 39.1923 39.3184 29.7903 29.3931 26.994C19.4678 24.1977 9.40677 29.0495 6.97148 37.8177C6.35787 40.027 6.2617 42.3076 6.69483 44.5947C7.0267 46.357 6.33062 48.3073 4.84125 49.8232C2.97523 51.7169 1.6167 54.0514 0.91839 56.5656C0.325548 58.7001 0.201137 60.9046 0.552878 63.1067C0.813223 64.793 0.292938 66.3772 -0.870947 67.4327C-3.24427 69.5743 -4.94095 72.3035 -5.77988 75.3241C-7.07582 79.9901 -6.20915 85.0296 -3.47906 89.341L-4.61585 91.4774C-5.57073 90.6687 -6.56995 89.9529 -7.63644 89.3236C-7.92746 89.1486 -8.22901 88.9892 -8.53216 88.8355C-9.17855 88.517 -9.8212 88.2739 -10.4626 88.0931C-15.3766 86.7087 -20.4517 89.2616 -22.5245 94.1678C-23.2764 95.9411 -23.5363 97.7662 -23.3581 99.5038C-24.9312 100.165 -26.204 101.301 -26.7393 103.229Z" fill="#FBFBFB" stroke="#9C9C9C" stroke-width="0.948718" stroke-miterlimit="10"/>
<g filter="url(#filter3_g_40002001_6001)">
<path d="M5.7812 108.506C-1.64547 106.408 -8.4852 104.965 -13.5359 104.325C-16.0648 104.005 -18.1244 103.89 -19.5779 103.987C-20.3077 104.036 -20.8552 104.138 -21.2247 104.277C-21.6089 104.422 -21.6945 104.565 -21.7111 104.625C-21.7278 104.685 -21.7279 104.852 -21.4739 105.177C-21.2296 105.489 -20.8137 105.863 -20.215 106.287C-19.0225 107.132 -17.2025 108.113 -14.8762 109.165C-10.2302 111.265 -3.64163 113.615 3.78503 115.713C11.2117 117.812 18.0514 119.255 23.1021 119.894C25.6312 120.214 27.6915 120.33 29.1451 120.233C29.8747 120.184 30.4224 120.082 30.7919 119.943C31.1759 119.798 31.2607 119.655 31.2774 119.595C31.294 119.535 31.2949 119.368 31.0411 119.043C30.7968 118.73 30.3807 118.357 29.7821 117.932C28.5897 117.087 26.7689 116.107 24.4425 115.055C19.7964 112.955 13.2079 110.604 5.7812 108.506Z" fill="#2C2C2C" stroke="#2C2C2C" stroke-width="0.948718"/>
<path d="M18.0852 70.8289L7.49937 109.147C6.92 111.245 8.15133 113.427 10.2491 114.021L23.4274 117.754C30.3298 119.709 33.8063 109.48 27.0656 107.007C26.8577 106.93 26.6409 106.862 26.4167 106.799C23.5259 105.98 19.8989 106.099 16.5728 106.631L22.2503 72.0148L18.0836 70.8346L18.0852 70.8289Z" fill="#CBCBC5" stroke="#2C2C2C" stroke-width="0.948718" stroke-miterlimit="10"/>
<path d="M13.1646 107.452C13.8821 107.272 15.487 106.812 18.4302 106.41Z" fill="#CBCBC5"/>
<path d="M13.1646 107.452C13.8821 107.272 15.487 106.812 18.4302 106.41" stroke="#2C2C2C" stroke-width="0.948718" stroke-miterlimit="10" stroke-linecap="round"/>
<path d="M15.7607 72.657L1.37508 108.794C0.274922 110.669 -2.13239 111.287 -4.0114 110.173L-15.8104 103.188C-21.9922 99.5287 -17.0887 89.9171 -10.6492 93.0918C-10.4477 93.1922 -10.2478 93.2984 -10.0511 93.4161C-7.4635 94.9482 -5.52986 96.964 -3.60495 99.7516L12.0339 70.449L15.7664 72.6586L15.7607 72.657Z" fill="#CBCBC5" stroke="#2C2C2C" stroke-width="0.948718" stroke-miterlimit="10"/>
</g>
<g filter="url(#filter4_g_40002001_6001)">
<path d="M-1.19801 76.6149C-3.20824 83.8527 2.14175 91.6938 10.7441 94.1174C19.3464 96.5409 27.9594 92.6336 29.9696 85.3958C30.5864 83.175 30.5136 80.9026 29.8648 78.7471C28.9333 75.631 29.7206 72.3292 31.8002 69.8443C32.7618 68.6945 33.4862 67.3539 33.9016 65.858C34.4034 64.0515 34.4026 62.2088 33.9759 60.4322C33.1469 56.9914 33.8128 53.3265 36.1675 50.6958C37.1896 49.5507 37.9547 48.1968 38.3781 46.6721C40.1103 40.4354 35.5086 33.6798 28.1033 31.5935C20.698 29.5072 13.2725 32.8743 11.5403 39.111C11.1152 40.6414 11.0718 42.1987 11.354 43.7174C12.0117 47.1968 10.6856 50.6819 8.20841 53.1974C6.93572 54.489 5.99149 56.0655 5.49293 57.8606C5.07746 59.3564 5.00602 60.881 5.23572 62.3664C5.73336 65.5773 4.71118 68.813 2.30376 70.9884C0.644438 72.4937 -0.59425 74.3966 -1.21106 76.6174L-1.19801 76.6149Z" fill="#EEEDEB"/>
<path d="M-1.19801 76.6149C-3.20824 83.8527 2.14175 91.6938 10.7441 94.1174C19.3464 96.5409 27.9594 92.6336 29.9696 85.3958C30.5864 83.175 30.5136 80.9026 29.8648 78.7471C28.9333 75.631 29.7206 72.3292 31.8002 69.8443C32.7618 68.6945 33.4862 67.3539 33.9016 65.858C34.4034 64.0515 34.4026 62.2088 33.9759 60.4322C33.1469 56.9914 33.8128 53.3265 36.1675 50.6958C37.1896 49.5507 37.9547 48.1968 38.3781 46.6721C40.1103 40.4354 35.5086 33.6798 28.1033 31.5935C20.698 29.5072 13.2725 32.8743 11.5403 39.111C11.1152 40.6414 11.0718 42.1987 11.354 43.7174C12.0117 47.1968 10.6856 50.6819 8.20841 53.1974C6.93572 54.489 5.99149 56.0655 5.49293 57.8606C5.07746 59.3564 5.00602 60.881 5.23572 62.3664C5.73336 65.5773 4.71118 68.813 2.30376 70.9884C0.644438 72.4937 -0.59425 74.3966 -1.21106 76.6174L-1.19801 76.6149Z" stroke="#2C2C2C" stroke-width="0.948718" stroke-miterlimit="10"/>
</g>
<g filter="url(#filter5_g_40002001_6001)">
<path d="M25.1906 42.581C24.5999 44.7182 24.5986 46.5823 26.6485 47.1627C28.5664 47.7057 29.9228 46.2252 30.5135 44.0881C31.1041 41.9509 30.9332 40.038 28.7857 39.4299C26.9138 38.9 25.7812 40.4439 25.1906 42.581Z" fill="#FBFBFB" stroke="#2C2C2C" stroke-width="0.948718" stroke-miterlimit="10"/>
<path d="M19.8819 41.0853C19.8612 41.16 19.8422 41.229 19.8215 41.3036C19.5583 42.3008 19.4427 43.2344 19.6235 43.9917C20.3206 44.2696 20.8248 44.8646 21.0173 45.5571C21.1175 45.5979 21.2192 45.6329 21.3283 45.6638C23.2462 46.2068 24.6084 44.7279 25.199 42.5908C25.7897 40.4536 25.613 38.539 23.4655 37.931C21.6625 37.4205 20.5477 38.8332 19.9412 40.8482C19.9206 40.9228 19.8984 41.0033 19.8777 41.078L19.8819 41.0853Z" fill="#FBFBFB" stroke="#2C2C2C" stroke-width="0.948718" stroke-miterlimit="10"/>
<path d="M26.9994 41.5133C26.6541 41.4155 26.411 41.5001 26.1965 41.7132C25.9536 41.9545 25.7436 42.3731 25.5892 42.9317C25.4301 43.5075 25.3766 43.9658 25.4503 44.292C25.4848 44.4443 25.5445 44.5581 25.6291 44.6461C25.7145 44.7349 25.8488 44.8219 26.0679 44.884C26.4372 44.9885 26.7279 44.9034 26.9765 44.6866C27.2452 44.4523 27.4785 44.0469 27.6273 43.5088C27.7821 42.9487 27.814 42.4892 27.7185 42.1594C27.6355 41.8726 27.446 41.6397 26.9994 41.5133Z" fill="#2C2C2C" stroke="#2C2C2C" stroke-width="0.948718"/>
<path d="M21.7519 39.799C21.4065 39.7012 21.1634 39.7859 20.9489 39.999C20.7061 40.2402 20.496 40.6589 20.3416 41.2175C20.1825 41.7933 20.1291 42.2515 20.2028 42.5778C20.2372 42.7301 20.2969 42.8438 20.3815 42.9318C20.467 43.0206 20.6012 43.1077 20.8203 43.1697C21.1896 43.2743 21.4803 43.1892 21.729 42.9723C21.9976 42.738 22.2309 42.3327 22.3797 41.7945C22.5345 41.2344 22.5664 40.7749 22.471 40.4451C22.388 40.1584 22.1985 39.9255 21.7519 39.799Z" fill="#2C2C2C" stroke="#2C2C2C" stroke-width="0.948718"/>
<path d="M23.978 46.5138C23.6758 46.4849 23.4947 46.5935 23.3853 46.7186C23.2741 46.8458 23.2396 46.9848 23.2346 47.0617C23.2475 47.0731 23.2661 47.0918 23.2977 47.112C23.3926 47.1725 23.5305 47.2295 23.6804 47.2557C23.9975 47.3111 24.1784 47.2204 24.2575 47.0525C24.3239 46.9114 24.3159 46.8349 24.3079 46.8009C24.2984 46.7608 24.2731 46.7144 24.2184 46.6629C24.1626 46.6104 24.092 46.5674 24.0285 46.5362C24.0096 46.5268 23.9921 46.5197 23.978 46.5138Z" fill="#93D1E0" stroke="#2C2C2C" stroke-width="0.948718"/>
<path d="M20.1886 46.4492C20.1886 46.4492 20.6395 49.8187 24.8494 49.1644" stroke="#2C2C2C" stroke-width="0.948718" stroke-miterlimit="10" stroke-linecap="round"/>
<path d="M19.6295 44.0042C19.5524 43.97 19.4681 43.94 19.3821 43.9157C18.5395 43.6775 17.673 43.9278 17.0941 44.5009" stroke="#2C2C2C" stroke-width="0.948718" stroke-miterlimit="10" stroke-linecap="round"/>
<path d="M21.0155 45.5648L21.0281 45.6148" stroke="#2C2C2C" stroke-width="0.948718" stroke-miterlimit="10" stroke-linecap="round"/>
</g>
</g>
<defs>
<filter id="filter0_g_40002001_6001" x="225.94" y="191.794" width="54.7082" height="51.7114" filterUnits="userSpaceOnUse" color-interpolation-filters="sRGB">
<feFlood flood-opacity="0" result="BackgroundImageFix"/>
<feBlend mode="normal" in="SourceGraphic" in2="BackgroundImageFix" result="shape"/>
<feTurbulence type="fractalNoise" baseFrequency="0.70270270109176636 0.70270270109176636" numOctaves="3" seed="7043" />
<feDisplacementMap in="shape" scale="0.75897437334060669" xChannelSelector="R" yChannelSelector="G" result="displacedImage" width="100%" height="100%" />
<feMerge result="effect1_texture_40002001_6001">
<feMergeNode in="displacedImage"/>
</feMerge>
</filter>
<filter id="filter1_g_40002001_6001" x="218.479" y="152.508" width="42.0744" height="65.5651" filterUnits="userSpaceOnUse" color-interpolation-filters="sRGB">
<feFlood flood-opacity="0" result="BackgroundImageFix"/>
<feBlend mode="normal" in="SourceGraphic" in2="BackgroundImageFix" result="shape"/>
<feTurbulence type="fractalNoise" baseFrequency="0.70270270109176636 0.70270270109176636" numOctaves="3" seed="7043" />
<feDisplacementMap in="shape" scale="0.75897437334060669" xChannelSelector="R" yChannelSelector="G" result="displacedImage" width="100%" height="100%" />
<feMerge result="effect1_texture_40002001_6001">
<feMergeNode in="displacedImage"/>
</feMerge>
</filter>
<filter id="filter2_g_40002001_6001" x="226.417" y="159.356" width="15.4191" height="13.1314" filterUnits="userSpaceOnUse" color-interpolation-filters="sRGB">
<feFlood flood-opacity="0" result="BackgroundImageFix"/>
<feBlend mode="normal" in="SourceGraphic" in2="BackgroundImageFix" result="shape"/>
<feTurbulence type="fractalNoise" baseFrequency="0.70270270109176636 0.70270270109176636" numOctaves="3" seed="7043" />
<feDisplacementMap in="shape" scale="0.75897437334060669" xChannelSelector="R" yChannelSelector="G" result="displacedImage" width="100%" height="100%" />
<feMerge result="effect1_texture_40002001_6001">
<feMergeNode in="displacedImage"/>
</feMerge>
</filter>
<filter id="filter3_g_40002001_6001" x="-22.5709" y="69.4091" width="54.7082" height="51.7114" filterUnits="userSpaceOnUse" color-interpolation-filters="sRGB">
<feFlood flood-opacity="0" result="BackgroundImageFix"/>
<feBlend mode="normal" in="SourceGraphic" in2="BackgroundImageFix" result="shape"/>
<feTurbulence type="fractalNoise" baseFrequency="0.70270270109176636 0.70270270109176636" numOctaves="3" seed="7043" />
<feDisplacementMap in="shape" scale="0.75897437334060669" xChannelSelector="R" yChannelSelector="G" result="displacedImage" width="100%" height="100%" />
<feMerge result="effect1_texture_40002001_6001">
<feMergeNode in="displacedImage"/>
</feMerge>
</filter>
<filter id="filter4_g_40002001_6001" x="-2.47617" y="30.1231" width="42.0744" height="65.5651" filterUnits="userSpaceOnUse" color-interpolation-filters="sRGB">
<feFlood flood-opacity="0" result="BackgroundImageFix"/>
<feBlend mode="normal" in="SourceGraphic" in2="BackgroundImageFix" result="shape"/>
<feTurbulence type="fractalNoise" baseFrequency="0.70270270109176636 0.70270270109176636" numOctaves="3" seed="7043" />
<feDisplacementMap in="shape" scale="0.75897437334060669" xChannelSelector="R" yChannelSelector="G" result="displacedImage" width="100%" height="100%" />
<feMerge result="effect1_texture_40002001_6001">
<feMergeNode in="displacedImage"/>
</feMerge>
</filter>
<filter id="filter5_g_40002001_6001" x="16.2411" y="36.9715" width="15.4191" height="13.1315" filterUnits="userSpaceOnUse" color-interpolation-filters="sRGB">
<feFlood flood-opacity="0" result="BackgroundImageFix"/>
<feBlend mode="normal" in="SourceGraphic" in2="BackgroundImageFix" result="shape"/>
<feTurbulence type="fractalNoise" baseFrequency="0.70270270109176636 0.70270270109176636" numOctaves="3" seed="7043" />
<feDisplacementMap in="shape" scale="0.75897437334060669" xChannelSelector="R" yChannelSelector="G" result="displacedImage" width="100%" height="100%" />
<feMerge result="effect1_texture_40002001_6001">
<feMergeNode in="displacedImage"/>
</feMerge>
</filter>
<clipPath id="clip0_40002001_6001">
<rect width="75.8974" height="112.897" fill="white" transform="translate(184.103 134.769)"/>
</clipPath>
<clipPath id="clip1_40002001_6001">
<rect width="75.8974" height="112.897" fill="white" transform="matrix(-1 0 0 1 76.8975 12.3846)"/>
</clipPath>
</defs>
</svg>
