<svg width="46" height="15" viewBox="0 0 46 15" fill="none" xmlns="http://www.w3.org/2000/svg">
<path d="M43.4525 14.7544V4.56341H45.6486V14.7544H43.4525ZM44.5505 2.57843C44.1406 2.57843 43.7965 2.45565 43.5183 2.21008C43.2402 1.96452 43.1011 1.65074 43.1011 1.26875C43.1011 0.900403 43.2402 0.600269 43.5183 0.368347C43.7965 0.122782 44.1406 0 44.5505 0C44.9605 0 45.3045 0.122782 45.5827 0.368347C45.8609 0.600269 46 0.900403 46 1.26875C46 1.65074 45.8609 1.96452 45.5827 2.21008C45.3045 2.45565 44.9605 2.57843 44.5505 2.57843Z" fill="black"/>
<path d="M35.3547 15C34.3005 15 33.3635 14.768 32.5436 14.3042C31.7384 13.8403 31.1088 13.206 30.6549 12.4011C30.2011 11.5825 29.9741 10.6616 29.9741 9.63846C29.9741 8.61527 30.2011 7.70805 30.6549 6.91678C31.1088 6.11188 31.7457 5.4775 32.5656 5.01366C33.3855 4.54981 34.3225 4.31789 35.3766 4.31789C36.2405 4.31789 37.0018 4.4816 37.6606 4.80902C38.3341 5.13644 38.8539 5.58664 39.2199 6.15963V0.0205078H41.416V14.7544H39.4395L39.2199 13.1582C39.0003 13.472 38.7075 13.7721 38.3414 14.0586C37.99 14.3315 37.5655 14.5566 37.0677 14.7339C36.5845 14.9113 36.0135 15 35.3547 15ZM35.7061 13.2196C36.3942 13.2196 37.0018 13.0695 37.5289 12.7694C38.0559 12.4693 38.4659 12.0532 38.7587 11.5211C39.0515 10.9891 39.1979 10.3683 39.1979 9.65892C39.1979 8.94952 39.0515 8.32878 38.7587 7.79673C38.4659 7.26467 38.0559 6.84857 37.5289 6.54844C37.0018 6.2483 36.3942 6.09824 35.7061 6.09824C35.0326 6.09824 34.4323 6.2483 33.9052 6.54844C33.3781 6.84857 32.9682 7.26467 32.6754 7.79673C32.3826 8.32878 32.2361 8.94952 32.2361 9.65892C32.2361 10.3683 32.3826 10.9891 32.6754 11.5211C32.9682 12.0532 33.3781 12.4693 33.9052 12.7694C34.4323 13.0695 35.0326 13.2196 35.7061 13.2196Z" fill="black"/>
<path d="M23.4367 14.9999C22.4118 14.9999 21.4821 14.7817 20.6476 14.3451C19.8277 13.8949 19.1761 13.2673 18.693 12.4624C18.2098 11.6575 17.9683 10.7298 17.9683 9.67937C17.9683 8.60161 18.2098 7.66028 18.693 6.85537C19.1908 6.05047 19.8569 5.42973 20.6915 4.99317C21.526 4.54297 22.4557 4.31787 23.4806 4.31787C24.5201 4.31787 25.4498 4.54297 26.2697 4.99317C27.1042 5.42973 27.7631 6.05047 28.2462 6.85537C28.7294 7.64664 28.9709 8.58797 28.9709 9.67937C28.9709 10.7435 28.7221 11.678 28.2243 12.4829C27.7411 13.2742 27.0823 13.8949 26.2477 14.3451C25.4278 14.7817 24.4908 14.9999 23.4367 14.9999ZM23.4586 13.2401C24.0443 13.2401 24.5787 13.1105 25.0618 12.8512C25.5596 12.5784 25.9622 12.1759 26.2697 11.6439C26.5771 11.1118 26.7309 10.4502 26.7309 9.65891C26.7309 8.86764 26.5771 8.20598 26.2697 7.67392C25.9769 7.14187 25.5816 6.74623 25.0838 6.48703C24.6006 6.21418 24.0662 6.07775 23.4806 6.07775C22.9242 6.07775 22.3898 6.21418 21.8774 6.48703C21.3796 6.74623 20.977 7.14187 20.6695 7.67392C20.3767 8.20598 20.2303 8.86764 20.2303 9.65891C20.2303 10.4502 20.3767 11.1118 20.6695 11.6439C20.977 12.1759 21.3723 12.5784 21.8554 12.8512C22.3532 13.1105 22.8876 13.2401 23.4586 13.2401Z" fill="black"/>
<path d="M0 14.7543V0.801758H2.80068L8.49697 10.2098L14.1695 0.801758H16.9702V14.7543H14.5968V4.28989L9.39888 12.7611H7.57132L2.37346 4.30983V14.7543H0Z" fill="black"/>
</svg>
