<svg width="144" height="144" viewBox="0 0 144 144" fill="none" xmlns="http://www.w3.org/2000/svg">
<g filter="url(#filter0_d_40000159_4872)">
<path d="M57.7724 139.675C46.1358 139.675 35.1373 138.979 26.8074 137.713C19.8884 136.664 8.30576 134.901 8.30576 126.022C8.30576 122.424 10.3186 120.073 12.6998 118.518C12.583 115.733 13.1401 112.939 14.3801 110.462C16.7883 105.661 21.3711 102.659 26.9333 102.234C27.3915 102.198 27.9127 102.18 28.4968 102.18C31.0308 102.18 33.7624 102.56 36.6648 103.31L37.3837 96.5289C31.6957 95.1184 26.3761 93.075 21.4969 90.4348C12.3583 85.4891 5.9425 76.2758 4.34303 65.8147C3.84882 62.614 3.6062 59.3138 3.6062 55.9955C3.6062 47.7768 5.16972 39.6574 8.11706 32.4965C14.7216 16.493 27.5353 6.55629 41.58 6.55629C46.7019 6.55629 51.6621 7.84019 56.3257 10.3718C56.5234 10.4803 56.73 10.5346 56.9457 10.5346C57.1614 10.5346 57.377 10.4803 57.5837 10.3628C62.2563 7.83115 67.2075 6.55629 72.3204 6.55629C77.4333 6.55629 82.5731 7.90348 87.2547 10.4803C89.8336 8.69914 92.9067 7.68648 96.0967 7.68648C96.2854 7.68648 96.4651 7.68648 96.6448 7.69552C99.5562 4.33206 103.815 2.3158 108.56 2.3158C113.304 2.3158 117.177 4.1874 120.089 7.30674C120.448 7.27961 120.817 7.27057 121.176 7.27057C126.684 7.27057 131.887 10.2814 134.771 15.1367C136.344 17.7859 137.081 20.7606 136.982 23.7262C140.334 26.6557 142.337 30.9414 142.337 35.7244C142.337 40.2542 140.486 44.3952 137.386 47.3156C137.413 47.6863 137.422 48.048 137.422 48.4187C137.422 57.0534 130.18 64.3409 121.607 64.3409C121.419 64.3409 121.23 64.3409 121.041 64.3319C118.13 67.6953 113.871 69.7116 109.135 69.7116C108.955 69.7116 108.785 69.7116 108.605 69.7116C106.296 77.4873 101.255 84.1781 94.2816 88.5542C89.6719 91.4475 84.4152 93.8074 78.8171 95.5162L79.7785 99.82C81.4948 99.0243 83.2381 98.4005 85.0532 97.9213C85.5204 97.8037 86.0596 97.6681 86.6616 97.5596C87.668 97.3788 88.6745 97.2884 89.6629 97.2884C97.3727 97.2884 103.717 103.093 104.75 111.095C105.127 113.988 104.768 116.755 103.806 119.214C105.828 120.814 107.221 123.003 107.221 126.031C107.221 134.91 95.6474 136.673 88.7284 137.722C80.3986 138.988 69.4 139.684 57.7634 139.684L57.7724 139.675Z" fill="#FBFBFB" stroke="#9C9C9C" stroke-miterlimit="10"/>
<path d="M117.474 56.0227C115.254 64.4856 103.384 64.6845 100.886 56.3029C93.365 60.7062 84.8375 52.406 88.9619 44.6936C80.5513 42.4603 80.3536 30.5164 88.6834 28.0029C84.3073 20.4351 92.5562 11.8546 100.221 16.0047C102.441 7.54181 114.311 7.3429 116.809 15.7244C124.33 11.3212 132.857 19.6213 128.733 27.3338C137.144 29.5671 137.341 41.511 129.011 44.0245C133.388 51.5923 125.139 60.1727 117.474 56.0227Z" fill="#FBD7D5"/>
<path d="M57.7722 132.442C81.1168 132.442 100.041 129.568 100.041 126.022C100.041 122.477 81.1168 119.603 57.7722 119.603C34.4277 119.603 15.5032 122.477 15.5032 126.022C15.5032 129.568 34.4277 132.442 57.7722 132.442Z" fill="#2C2C2C"/>
<path d="M54.9866 60.3716V120.67C54.9866 123.97 52.3268 126.646 49.047 126.646H28.4426C17.6507 126.646 16.7072 110.281 27.4722 109.458C27.8046 109.431 28.1461 109.422 28.4965 109.422C33.0164 109.422 38.2281 111.095 42.8378 113.247L48.4719 60.3806H54.9866V60.3716Z" fill="#CBCBC5" stroke="#2C2C2C" stroke-miterlimit="10"/>
<path d="M47.4564 115.805C46.486 115.245 44.3384 113.907 40.2229 112.098L47.4564 115.805Z" fill="#CBCBC5"/>
<path d="M47.4564 115.805C46.486 115.245 44.3384 113.907 40.2229 112.098" stroke="#2C2C2C" stroke-miterlimit="10" stroke-linecap="round"/>
<path d="M57.7717 63.9248L64.1606 122.623C65.0052 125.814 68.2491 127.713 71.4211 126.863L91.3335 121.547C101.766 118.762 98.5042 102.704 87.892 104.675C87.5595 104.738 87.227 104.811 86.8946 104.901C82.5275 106.068 78.9152 108.21 75.0064 111.483L64.0617 62.2431L57.7627 63.9248H57.7717Z" fill="#CBCBC5" stroke="#2C2C2C" stroke-miterlimit="10"/>
<path d="M70.1726 115.95C70.9634 115.154 72.7066 113.31 76.22 110.498L70.1726 115.95Z" fill="#CBCBC5"/>
<path d="M70.1726 115.95C70.9634 115.154 72.7066 113.31 76.22 110.498" stroke="#2C2C2C" stroke-miterlimit="10" stroke-linecap="round"/>
<path d="M47.4573 115.805L40.3406 112.153C44.3842 113.934 46.4958 115.254 47.4573 115.805Z" fill="#FBFBFB" stroke="#2C2C2C" stroke-miterlimit="10"/>
<path d="M47.4573 115.805L40.3406 112.153C44.3842 113.934 46.4958 115.254 47.4573 115.805Z" fill="#FBFBFB" stroke="#2C2C2C" stroke-miterlimit="10" stroke-linecap="round"/>
<path d="M76.1302 110.579L70.1726 115.95C70.8645 115.254 72.2932 113.753 75.0159 111.484C75.3574 111.203 75.7348 110.896 76.1302 110.579Z" fill="#FBFBFB" stroke="#2C2C2C" stroke-miterlimit="10"/>
<path d="M76.1302 110.579L70.1726 115.95C70.8645 115.254 72.2932 113.753 75.0159 111.484C75.3574 111.203 75.7348 110.896 76.1302 110.579Z" fill="#FBFBFB" stroke="#2C2C2C" stroke-miterlimit="10" stroke-linecap="round"/>
<path d="M71.4309 126.465C71.4309 126.465 89.1419 108.861 93.1855 112.948" stroke="#2C2C2C" stroke-miterlimit="10" stroke-linecap="round"/>
<path d="M103.097 55.9865C103.097 58.5182 102.935 60.9955 102.62 63.4006C101.605 71.2487 97.1661 78.2197 90.4897 82.406C81.8723 87.8218 70.5952 91.2215 58.1769 91.5289C57.5479 91.547 56.9189 91.556 56.2809 91.556H55.7327C44.1231 91.4656 33.4301 88.6898 24.9116 84.0606C17.6331 80.1094 12.7089 72.9214 11.4509 64.7026C11.0196 61.8907 10.7949 58.9702 10.7949 55.9865C10.7949 48.4549 12.2326 41.3844 14.7576 35.2633C20.0413 22.4423 30.0694 13.7896 41.5712 13.7896C45.5698 13.7896 49.3888 14.8293 52.9022 16.7371C55.4452 18.1114 58.4554 18.1114 60.9894 16.7371C64.4939 14.8384 68.3128 13.7896 72.3025 13.7896C84.4962 13.7896 95.0365 23.5092 100.015 37.596C101.982 43.1565 103.088 49.3952 103.088 55.9865H103.097Z" fill="#EEEDEB" stroke="#2C2C2C" stroke-miterlimit="10"/>
<path d="M58.4443 53.3799V53.6686C58.4443 53.849 58.4353 54.0293 58.4353 54.2097V54.2909C58.4174 54.5344 58.4084 54.778 58.3904 55.0125C58.3904 55.0936 58.3814 55.1658 58.3724 55.238C58.0939 58.8187 56.845 61.4794 53.1791 61.4794C49.1718 61.4794 47.3298 57.8536 47.3298 53.3799C47.3298 51.2964 47.6263 49.3933 48.3991 47.9592C49.6659 48.9694 51.1844 49.9525 52.9455 50.7102C54.5358 51.3866 56.3149 51.8917 58.2826 52.0541C58.3185 52.0541 58.3635 52.0631 58.3994 52.0631C58.4264 52.487 58.4443 52.929 58.4443 53.3799Z" fill="#FBFBFB" stroke="#2C2C2C" stroke-miterlimit="10"/>
<path d="M69.1725 49.6999C69.0197 49.7901 68.8849 49.8623 68.7412 49.9254H68.7322C66.9082 50.8003 65.1831 51.3776 63.5388 51.7203C61.7508 52.0991 60.0616 52.1983 58.4893 52.0721C58.7498 48.2207 60.2593 45.2804 64.2936 45.2804C67.043 45.2804 68.5345 47.0753 69.1725 49.6999Z" stroke="#2C2C2C" stroke-miterlimit="10"/>
<path d="M69.5681 53.3799C69.5681 53.5332 69.5681 53.6866 69.5591 53.8399C69.4962 58.0971 68.427 61.4794 64.2938 61.4794C60.1607 61.4794 58.4446 57.8536 58.4446 53.3799C58.4446 52.9379 58.4626 52.496 58.4895 52.0721C60.0619 52.1983 61.7511 52.0991 63.5391 51.7203C65.1834 51.3776 66.9085 50.8003 68.7324 49.9254H68.7414C68.8852 49.8623 69.02 49.7901 69.1727 49.7C69.4153 50.665 69.5321 51.7474 69.5591 52.8928C69.5681 53.0552 69.5681 53.2176 69.5681 53.3799Z" fill="#FBFBFB" stroke="#2C2C2C" stroke-miterlimit="10"/>
<path d="M58.3993 52.063C58.3993 52.063 58.3184 52.054 58.2825 52.054C56.3147 51.8917 54.5357 51.3866 52.9454 50.7101C51.1843 49.9525 49.6658 48.9694 48.3989 47.9592C49.2795 46.3176 50.78 45.2804 53.179 45.2804C56.6921 45.2804 58.1477 48.2117 58.3993 52.063Z" stroke="#2C2C2C" stroke-miterlimit="10" stroke-linecap="round"/>
<path d="M58.4445 53.6685V53.8309C58.4445 53.9572 58.4445 54.0834 58.4355 54.2097V54.2909C58.4175 54.5344 58.4086 54.7779 58.3906 55.0124C58.3906 55.0936 58.3816 55.1658 58.3726 55.2379C58.157 57.0328 57.4292 58.3226 55.5244 58.3226C53.3051 58.3226 52.2808 56.3112 52.2808 53.8309C52.2808 52.6133 52.4605 51.5129 52.9457 50.7101C54.536 51.3866 56.315 51.8917 58.2828 52.054C58.3906 52.5501 58.4355 53.0913 58.4445 53.6685Z" fill="#2C2C2C"/>
<path d="M69.5677 53.3799C69.5677 53.5333 69.5677 53.6866 69.5588 53.8399C69.4869 56.1038 68.8579 57.8716 66.6386 57.8716C64.4193 57.8716 63.395 55.8603 63.395 53.3799C63.395 52.7937 63.4399 52.2345 63.5388 51.7204C65.183 51.3776 66.9082 50.8004 68.7321 49.9255H68.7411C69.2623 50.647 69.5048 51.7023 69.5588 52.8929C69.5677 53.0552 69.5677 53.2176 69.5677 53.3799Z" fill="#2C2C2C"/>
<path d="M59.1993 61.741C59.1993 61.741 54.6619 61.9755 55.2369 64.51C55.8119 67.0445 62.1464 66.5213 63.0449 65.439C63.9434 64.3567 63.3145 61.9485 59.1993 61.732V61.741Z" fill="#FBD7D5" stroke="#2C2C2C" stroke-miterlimit="10"/>
<path d="M63.009 74.5216C63.009 74.5216 59.2802 63.7343 47.375 69.164" stroke="#2C2C2C" stroke-miterlimit="10" stroke-linecap="round"/>
<path d="M58.3992 52.063C58.3992 52.063 58.4621 52.0821 58.489 52.0726" stroke="#2C2C2C" stroke-miterlimit="10" stroke-linecap="round"/>
<path d="M74.7972 46.1193C72.8385 47.6345 70.9606 48.8161 69.1726 49.7" stroke="#2C2C2C" stroke-miterlimit="10" stroke-linecap="round"/>
<path d="M48.3994 47.9592C45.3894 45.5781 43.79 43.0526 43.79 43.0526" stroke="#2C2C2C" stroke-miterlimit="10" stroke-linecap="round"/>
<path d="M38.1474 60.6046C38.46 60.6046 38.7134 60.3502 38.7134 60.0364C38.7134 59.7225 38.46 59.4681 38.1474 59.4681C37.8347 59.4681 37.5813 59.7225 37.5813 60.0364C37.5813 60.3502 37.8347 60.6046 38.1474 60.6046Z" fill="#2C2C2C"/>
<path d="M41.6693 60.6046C41.982 60.6046 42.2354 60.3502 42.2354 60.0364C42.2354 59.7225 41.982 59.4681 41.6693 59.4681C41.3567 59.4681 41.1033 59.7225 41.1033 60.0364C41.1033 60.3502 41.3567 60.6046 41.6693 60.6046Z" fill="#2C2C2C"/>
<path d="M39.9083 62.3634C40.221 62.3634 40.4744 62.109 40.4744 61.7952C40.4744 61.4813 40.221 61.2269 39.9083 61.2269C39.5957 61.2269 39.3423 61.4813 39.3423 61.7952C39.3423 62.109 39.5957 62.3634 39.9083 62.3634Z" fill="#2C2C2C"/>
<path d="M71.5267 60.6046C71.8394 60.6046 72.0928 60.3502 72.0928 60.0364C72.0928 59.7225 71.8394 59.4681 71.5267 59.4681C71.2141 59.4681 70.9607 59.7225 70.9607 60.0364C70.9607 60.3502 71.2141 60.6046 71.5267 60.6046Z" fill="#2C2C2C"/>
<path d="M75.0582 60.6046C75.3709 60.6046 75.6243 60.3502 75.6243 60.0364C75.6243 59.7225 75.3709 59.4681 75.0582 59.4681C74.7456 59.4681 74.4922 59.7225 74.4922 60.0364C74.4922 60.3502 74.7456 60.6046 75.0582 60.6046Z" fill="#2C2C2C"/>
<path d="M73.2973 62.3634C73.6099 62.3634 73.8633 62.109 73.8633 61.7952C73.8633 61.4813 73.6099 61.2269 73.2973 61.2269C72.9846 61.2269 72.7312 61.4813 72.7312 61.7952C72.7312 62.109 72.9846 62.3634 73.2973 62.3634Z" fill="#2C2C2C"/>
</g>
<defs>
<filter id="filter0_d_40000159_4872" x="0.106201" y="0.815796" width="143.731" height="142.368" filterUnits="userSpaceOnUse" color-interpolation-filters="sRGB">
<feFlood flood-opacity="0" result="BackgroundImageFix"/>
<feColorMatrix in="SourceAlpha" type="matrix" values="0 0 0 0 0 0 0 0 0 0 0 0 0 0 0 0 0 0 127 0" result="hardAlpha"/>
<feOffset dx="-1" dy="1"/>
<feGaussianBlur stdDeviation="1"/>
<feComposite in2="hardAlpha" operator="out"/>
<feColorMatrix type="matrix" values="0 0 0 0 0 0 0 0 0 0 0 0 0 0 0 0 0 0 0.25 0"/>
<feBlend mode="normal" in2="BackgroundImageFix" result="effect1_dropShadow_40000159_4872"/>
<feBlend mode="normal" in="SourceGraphic" in2="effect1_dropShadow_40000159_4872" result="shape"/>
</filter>
</defs>
</svg>
