<svg width="122" height="144" viewBox="0 0 122 144" fill="none" xmlns="http://www.w3.org/2000/svg">
<g filter="url(#filter0_d_40000173_3689)">
<path d="M52.8985 139.676C41.8085 139.676 31.3265 139.017 23.3879 137.819C17.2306 136.887 5.76379 135.159 5.76379 126.758C5.76379 123.354 7.68206 121.129 9.94289 119.658C9.83156 117.023 10.3539 114.38 11.5443 112.036C13.8394 107.494 18.2069 104.653 23.5078 104.26C23.9703 104.226 24.467 104.209 24.9979 104.209C27.4129 104.209 30.0163 104.568 32.7823 105.278L33.6473 97.2624C25.9656 96.5951 18.1641 90.607 15.8005 83.3442C15.4322 82.2235 15.2096 81.1029 15.1068 79.9994C11.8869 78.6392 9.06082 76.0472 6.97984 72.4543C3.92259 67.159 2.44963 59.0237 6.06352 52.7789C6.10634 52.7019 6.14916 52.6335 6.19198 52.565C4.71045 50.1013 3.93115 47.15 3.93115 43.8907C3.93115 34.6946 9.06939 27.8425 15.0982 25.2162C15.1924 24.087 15.4237 22.9493 15.8005 21.803C18.3096 14.0954 26.9419 7.8249 35.0603 7.8249C36.2421 7.8249 37.3811 7.95322 38.4686 8.2013C41.7057 4.4972 46.9981 2.3158 52.8985 2.3158C58.7989 2.3158 64.0913 4.4972 67.3284 8.2013C68.416 7.95322 69.555 7.8249 70.7368 7.8249C73.8882 7.8249 77.151 8.74879 80.1397 10.4084C84.3873 7.25175 89.5598 5.51519 95.0149 5.51519C108.803 5.51519 120.012 16.713 120.012 30.4858C120.012 42.3082 111.748 52.2314 100.693 54.8063C101.455 56.7311 101.866 58.8954 101.866 61.2393C101.866 70.4354 96.7277 77.2961 90.6988 79.9224C90.6046 81.0516 90.3734 82.1893 89.9966 83.3356C87.7015 90.3931 80.2767 96.2358 72.8092 97.1854L73.8796 101.976C75.5153 101.232 77.1767 100.641 78.898 100.179C79.3176 100.068 79.78 99.957 80.3281 99.8544C81.3386 99.6662 82.3235 99.5721 83.2912 99.5721C90.6389 99.5721 96.6848 105.064 97.6782 112.635C98.0379 115.372 97.6954 117.99 96.779 120.317C98.7059 121.831 100.033 123.901 100.033 126.767C100.033 135.167 88.5664 136.895 82.4091 137.828C74.4705 139.026 63.9885 139.684 52.8985 139.684V139.676Z" fill="#FBFBFB"/>
<path d="M52.8985 139.676C41.8085 139.676 31.3265 139.017 23.3879 137.819C17.2306 136.887 5.76379 135.159 5.76379 126.758C5.76379 123.354 7.68206 121.129 9.94289 119.658C9.83156 117.023 10.3539 114.38 11.5443 112.036C13.8394 107.494 18.2069 104.653 23.5078 104.26C23.9703 104.226 24.467 104.209 24.9979 104.209C27.4129 104.209 30.0163 104.568 32.7823 105.278L33.6473 97.2624C25.9656 96.5951 18.1641 90.607 15.8005 83.3442C15.4322 82.2235 15.2096 81.1029 15.1068 79.9994C11.8869 78.6392 9.06082 76.0472 6.97984 72.4543C3.92259 67.159 2.44963 59.0237 6.06352 52.7789C6.10634 52.7019 6.14916 52.6335 6.19198 52.565C4.71045 50.1013 3.93115 47.15 3.93115 43.8907C3.93115 34.6946 9.06939 27.8425 15.0982 25.2162C15.1924 24.087 15.4237 22.9493 15.8005 21.803C18.3096 14.0954 26.9419 7.8249 35.0603 7.8249C36.2421 7.8249 37.3811 7.95322 38.4686 8.2013C41.7057 4.4972 46.9981 2.3158 52.8985 2.3158C58.7989 2.3158 64.0913 4.4972 67.3284 8.2013C68.416 7.95322 69.555 7.8249 70.7368 7.8249C73.8882 7.8249 77.151 8.74879 80.1397 10.4084C84.3873 7.25175 89.5598 5.51519 95.0149 5.51519C108.803 5.51519 120.012 16.713 120.012 30.4858C120.012 42.3082 111.748 52.2314 100.693 54.8063C101.455 56.7311 101.866 58.8954 101.866 61.2393C101.866 70.4354 96.7277 77.2961 90.6988 79.9224C90.6046 81.0516 90.3734 82.1893 89.9966 83.3356C87.7015 90.3931 80.2767 96.2358 72.8092 97.1854L73.8796 101.976C75.5153 101.232 77.1767 100.641 78.898 100.179C79.3176 100.068 79.78 99.957 80.3281 99.8544C81.3386 99.6662 82.3235 99.5721 83.2912 99.5721C90.6389 99.5721 96.6848 105.064 97.6782 112.635C98.0379 115.372 97.6954 117.99 96.779 120.317C98.7059 121.831 100.033 123.901 100.033 126.767C100.033 135.167 88.5664 136.895 82.4091 137.828C74.4705 139.026 63.9885 139.684 52.8985 139.684V139.676Z" stroke="#9C9C9C" stroke-miterlimit="10"/>
</g>
<path d="M95.0254 48.5975C105.047 48.5975 113.172 40.4817 113.172 30.4705C113.172 20.4592 105.047 12.3434 95.0254 12.3434C85.0034 12.3434 76.8789 20.4592 76.8789 30.4705C76.8789 40.4817 85.0034 48.5975 95.0254 48.5975Z" fill="#2C2C2C"/>
<path d="M95.0254 48.5975C105.047 48.5975 113.172 40.4817 113.172 30.4705C113.172 20.4592 105.047 12.3434 95.0254 12.3434C85.0034 12.3434 76.8789 20.4592 76.8789 30.4705C76.8789 40.4817 85.0034 48.5975 95.0254 48.5975Z" fill="#FEE888"/>
<path d="M52.9232 132.833C75.1713 132.833 93.2069 130.113 93.2069 126.759C93.2069 123.405 75.1713 120.685 52.9232 120.685C30.6751 120.685 12.6394 123.405 12.6394 126.759C12.6394 130.113 30.6751 132.833 52.9232 132.833Z" fill="#2C2C2C"/>
<path d="M50.2717 64.6279V121.678C50.2717 124.8 47.7368 127.333 44.6111 127.333H24.9745C14.6894 127.333 13.7902 111.849 24.0496 111.07C24.3664 111.045 24.6919 111.036 25.0259 111.036C29.3334 111.036 34.3004 112.619 38.6936 114.655L44.063 64.6365H50.2717V64.6279Z" fill="#CBCBC5" stroke="#2C2C2C" stroke-miterlimit="10"/>
<path d="M43.0454 117.1C42.1205 116.569 40.0738 115.303 36.1516 113.592L43.0454 117.1Z" fill="#CBCBC5"/>
<path d="M43.0454 117.1C42.1205 116.569 40.0738 115.303 36.1516 113.592" stroke="#2C2C2C" stroke-miterlimit="10" stroke-linecap="round"/>
<path d="M52.9065 68.0133L58.9953 123.549C59.8003 126.569 62.8918 128.365 65.9148 127.561L84.892 122.531C94.8345 119.896 91.7259 104.704 81.6121 106.569C81.2952 106.628 80.9784 106.697 80.6615 106.782C76.4996 107.886 73.057 109.913 69.3317 113.01L58.9011 66.4222L52.8979 68.0133H52.9065Z" fill="#CBCBC5" stroke="#2C2C2C" stroke-miterlimit="10"/>
<path d="M64.7544 117.225C65.508 116.472 67.1694 114.727 70.5178 112.066L64.7544 117.225Z" fill="#CBCBC5"/>
<path d="M64.7544 117.225C65.508 116.472 67.1694 114.727 70.5178 112.066" stroke="#2C2C2C" stroke-miterlimit="10" stroke-linecap="round"/>
<path d="M65.8933 127.165C65.8933 127.165 82.7724 110.509 86.6261 114.376" stroke="#2C2C2C" stroke-miterlimit="10" stroke-linecap="round"/>
<path d="M63.3224 20.439C68.2209 5.3745 37.5285 5.3745 42.427 20.439C37.5285 5.3745 12.6937 23.3903 25.5222 32.7062C12.7023 23.3903 3.21367 52.5527 19.0737 52.5527C3.21367 52.5527 12.7023 81.715 25.5307 72.3991C12.7023 81.715 37.5285 99.7308 42.4355 84.6663C37.5371 99.7308 68.2295 99.7308 63.331 84.6663C68.2295 99.7308 93.0642 81.715 80.2358 72.3991C93.0642 81.715 102.553 52.5527 86.6928 52.5527C102.553 52.5527 93.0642 23.3903 80.2358 32.7062C93.0642 23.3903 68.238 5.3745 63.331 20.439H63.3224Z" fill="#EEEDEB"/>
<path d="M63.3224 20.439C68.2209 5.3745 37.5285 5.3745 42.427 20.439C37.5285 5.3745 12.6937 23.3903 25.5222 32.7062C12.7023 23.3903 3.21367 52.5527 19.0737 52.5527C3.21367 52.5527 12.7023 81.715 25.5307 72.3991C12.7023 81.715 37.5285 99.7308 42.4355 84.6663C37.5371 99.7308 68.2295 99.7308 63.331 84.6663C68.2295 99.7308 93.0642 81.715 80.2358 72.3991C93.0642 81.715 102.553 52.5527 86.6928 52.5527C102.553 52.5527 93.0642 23.3903 80.2358 32.7062C93.0642 23.3903 68.238 5.3745 63.331 20.439H63.3224Z" fill="#EEEDEB" stroke="#2C2C2C" stroke-miterlimit="10"/>
<path d="M43.0679 117.099L36.2854 113.643C40.1391 115.336 42.1515 116.577 43.0679 117.099Z" fill="white" stroke="#2C2C2C" stroke-miterlimit="10"/>
<path d="M43.0679 117.099L36.2854 113.643C40.1391 115.336 42.1515 116.577 43.0679 117.099Z" fill="white" stroke="#2C2C2C" stroke-miterlimit="10" stroke-linecap="round"/>
<path d="M70.3907 112.133L64.6873 117.24C65.398 116.53 66.8967 114.956 69.8426 112.57C70.0225 112.424 70.2023 112.279 70.3907 112.133Z" fill="white" stroke="#2C2C2C" stroke-miterlimit="10"/>
<path d="M70.3907 112.133L64.6873 117.24C65.398 116.53 66.8967 114.956 69.8426 112.57C70.0225 112.424 70.2023 112.279 70.3907 112.133Z" fill="white" stroke="#2C2C2C" stroke-miterlimit="10" stroke-linecap="round"/>
<path d="M54.4004 55.8214C54.5642 55.8237 54.7219 55.8394 54.8398 55.8546C54.898 55.862 54.9457 55.8688 54.9775 55.8741C54.9933 55.8767 55.0052 55.8796 55.0127 55.8809C55.0164 55.8816 55.0191 55.8816 55.0205 55.8819H55.0215L55.0928 55.8956C55.1187 55.9031 55.1494 55.9117 55.1836 55.9219C55.311 55.9601 55.4916 56.0167 55.7021 56.0889C56.1268 56.2346 56.6586 56.4406 57.1211 56.6856C57.3523 56.808 57.5564 56.9342 57.7168 57.0616C57.8807 57.1918 57.9749 57.3034 58.0195 57.3878C58.0571 57.4588 58.0531 57.495 58.043 57.5255C58.027 57.5733 57.9665 57.6825 57.7568 57.837C56.788 58.5464 56.0895 58.7121 55.5879 58.6631C55.0894 58.6144 54.6809 58.3439 54.3105 57.9522C54.2707 57.9091 54.1919 57.7832 54.1025 57.5626C54.0185 57.3551 53.9413 57.1042 53.8857 56.8506C53.8298 56.5952 53.7992 56.3538 53.7998 56.1622C53.8006 55.9442 53.8411 55.8888 53.8262 55.9083C53.8146 55.9233 53.8335 55.8902 53.9609 55.8594C54.0792 55.831 54.2329 55.819 54.4004 55.8214Z" fill="#FEE888" stroke="#2C2C2C"/>
<path d="M54.3181 48.2697C54.3181 52.5518 53.3654 56.0154 49.2799 56.0154C45.4604 56.0154 43.7009 52.5518 43.7009 48.2697C43.7009 47.4684 43.7438 46.693 43.8468 45.9693C45.1686 46.3656 46.7479 46.5379 48.4559 46.1416C49.6146 45.8745 50.842 45.3403 52.0779 44.4184C52.5071 44.1082 52.9362 43.7377 53.374 43.3156L53.4341 43.2552C53.4856 43.3586 53.5285 43.462 53.5628 43.574C53.786 44.1082 53.9576 44.7027 54.0778 45.3403C54.198 46.021 54.2752 46.7361 54.3009 47.4857V47.5029C54.3095 47.7528 54.3181 48.0112 54.3181 48.2697Z" fill="#FBFBFB" stroke="#2C2C2C" stroke-miterlimit="10"/>
<path d="M64.9353 48.2697C64.9353 52.5519 63.9912 56.0155 59.9057 56.0155C56.0776 56.0155 54.3181 52.5519 54.3181 48.2697C54.3181 47.2875 54.3868 46.357 54.5499 45.4954C55.8631 45.8917 57.4252 46.0727 59.116 45.6936C60.6095 45.3662 62.2059 44.5907 63.8109 43.1347C63.8538 43.1002 63.8882 43.0571 63.9311 43.0226C64.0255 43.2036 64.1113 43.3931 64.1886 43.5913C64.6349 44.7027 64.8666 46.0382 64.9181 47.4943V47.5202C64.9267 47.77 64.9353 48.0199 64.9353 48.2697Z" fill="#FBFBFB" stroke="#2C2C2C" stroke-miterlimit="10"/>
<path d="M53.4339 43.2553L53.3738 43.3156C52.9361 43.7378 52.5069 44.1083 52.0778 44.4184C50.8418 45.3403 49.6145 45.8745 48.4558 46.1416C46.7477 46.538 45.1685 46.3656 43.8467 45.9693C44.293 42.8159 45.8036 40.5327 49.2797 40.5327C51.3482 40.5327 52.67 41.5924 53.4339 43.2553Z" stroke="#2C2C2C" stroke-miterlimit="10"/>
<path d="M54.3179 46.8137C54.3179 47.0463 54.3093 47.2703 54.3007 47.4857V47.503C54.1977 49.5449 53.5712 51.1044 51.5284 51.1044C49.4856 51.1044 48.4299 49.1831 48.4299 46.8137C48.4299 46.581 48.4385 46.357 48.4557 46.1416C49.6144 45.8745 50.8418 45.3404 52.0777 44.4185C52.5069 44.1083 52.936 43.7378 53.3737 43.3156C53.4424 43.3932 53.5111 43.4793 53.5626 43.5741C53.8973 44.0566 54.1033 44.6769 54.2149 45.392C54.2835 45.8401 54.3179 46.314 54.3179 46.8137Z" fill="#2C2C2C"/>
<path d="M64.9353 46.8137C64.9353 47.0463 64.9267 47.2703 64.9181 47.4944V47.5202C64.8066 49.5536 64.18 51.1044 62.1458 51.1044C60.1117 51.1044 59.0474 49.1831 59.0474 46.8137C59.0474 46.426 59.0645 46.0469 59.116 45.6936C60.6095 45.3662 62.2059 44.5908 63.8109 43.1347C63.9568 43.2639 64.0856 43.419 64.1886 43.5913C64.7207 44.3754 64.9353 45.5299 64.9353 46.8137Z" fill="#2C2C2C"/>
<path d="M63.9313 43.0227C63.9313 43.0227 63.854 43.1002 63.8111 43.1347C62.2061 44.5908 60.6097 45.3662 59.1162 45.6936C57.4254 46.0727 55.8632 45.8918 54.55 45.4954C55.065 42.5919 56.5928 40.5327 59.9058 40.5327C61.8714 40.5327 63.1588 41.489 63.9313 43.0227Z" stroke="#2C2C2C" stroke-miterlimit="10" stroke-linecap="round"/>
<path d="M54.5497 45.4955C54.3866 45.4438 54.2321 45.3921 54.0776 45.349" stroke="#2C2C2C" stroke-miterlimit="10" stroke-linecap="round"/>
<path d="M52.6242 64.4122C53.1715 64.8007 53.8605 64.9617 54.5022 64.7533C54.842 64.6491 55.1062 64.4691 54.993 64.1659C54.7287 63.4554 53.5774 62.7449 52.9828 63.0007C52.3882 63.2565 51.7087 63.6354 52.275 64.1375C52.3882 64.2417 52.5109 64.3365 52.6336 64.4217L52.6242 64.4122Z" fill="#2C2C2C"/>
<path d="M54.4759 25.0527C57.6752 25.0527 60.8839 25.1474 64.0832 25.3369L66.3199 25.4695C67.8111 25.5548 69.0474 26.6821 69.2644 28.1695L70.0666 33.5127C70.3497 35.3695 68.9719 37.0653 67.1032 37.16L63.0734 37.3779C60.2139 37.5295 57.3449 37.6053 54.4759 37.6053C51.6069 37.6053 48.7473 37.5295 45.8783 37.3779L41.8485 37.16C39.9799 37.0653 38.602 35.3695 38.8851 33.5127L39.6873 28.1695C39.9138 26.6821 41.1407 25.5548 42.6318 25.4695L44.8685 25.3369C48.0678 25.1474 51.2766 25.0527 54.4759 25.0527ZM54.4759 24.1053C51.2671 24.1053 48.0112 24.2 44.8119 24.3895L42.5752 24.5221C40.6499 24.6358 39.0361 26.1137 38.753 28.0274L37.9508 33.3705C37.7809 34.5169 38.1018 35.6916 38.8285 36.5916C39.5646 37.4916 40.6405 38.0411 41.8013 38.1074L45.8311 38.3253C48.7001 38.4769 51.6069 38.5527 54.4759 38.5527C57.3449 38.5527 60.2516 38.4769 63.1206 38.3253L67.1504 38.1074C68.3018 38.0505 69.3871 37.4916 70.1232 36.5916C70.8594 35.6916 71.1708 34.5169 71.0009 33.3705L70.1987 28.0274C69.9062 26.1137 68.3018 24.6358 66.3766 24.5221L64.1399 24.3895C60.9406 24.2 57.6846 24.1053 54.4759 24.1053Z" fill="#2C2C2C"/>
<path d="M66.3201 25.4695C67.8113 25.5548 69.0381 26.6821 69.2646 28.1695L70.0668 33.5221C70.3499 35.379 68.9626 37.0748 67.094 37.1695L63.0548 37.3874C57.3356 37.7 51.5976 37.7 45.8691 37.3874L41.8393 37.1695C40.1216 37.0842 38.8381 35.6632 38.8381 34.0053C38.8381 34.1663 38.9136 34.299 38.9797 34.3748C39.0646 34.479 39.2156 34.5927 39.4704 34.6021L43.8966 34.82C46.9733 34.9621 50.0971 35.0379 53.1831 35.0379C56.2692 35.0379 59.393 34.9621 62.4696 34.82L66.8958 34.6021C67.1412 34.5832 67.2922 34.4695 67.3866 34.3748C67.4715 34.28 67.5659 34.119 67.5187 33.9011L66.641 25.9811C66.5938 25.6969 66.3296 25.479 66.0181 25.46H66.3107L66.3201 25.4695Z" fill="#2C2C2C"/>
<path d="M33.1875 41.0157V55.0463" stroke="#2C2C2C" stroke-miterlimit="10" stroke-linecap="round"/>
<path d="M36.1038 40.2105V48.0358" stroke="#2C2C2C" stroke-miterlimit="10" stroke-linecap="round"/>
<path d="M39.0198 41.6505V44.5968" stroke="#2C2C2C" stroke-miterlimit="10" stroke-linecap="round"/>
<defs>
<filter id="filter0_d_40000173_3689" x="0.431152" y="0.815796" width="121.081" height="142.368" filterUnits="userSpaceOnUse" color-interpolation-filters="sRGB">
<feFlood flood-opacity="0" result="BackgroundImageFix"/>
<feColorMatrix in="SourceAlpha" type="matrix" values="0 0 0 0 0 0 0 0 0 0 0 0 0 0 0 0 0 0 127 0" result="hardAlpha"/>
<feOffset dx="-1" dy="1"/>
<feGaussianBlur stdDeviation="1"/>
<feComposite in2="hardAlpha" operator="out"/>
<feColorMatrix type="matrix" values="0 0 0 0 0 0 0 0 0 0 0 0 0 0 0 0 0 0 0.25 0"/>
<feBlend mode="normal" in2="BackgroundImageFix" result="effect1_dropShadow_40000173_3689"/>
<feBlend mode="normal" in="SourceGraphic" in2="effect1_dropShadow_40000173_3689" result="shape"/>
</filter>
</defs>
</svg>
