<svg width="122" height="144" viewBox="0 0 122 144" fill="none" xmlns="http://www.w3.org/2000/svg">
<g filter="url(#filter0_d_40000173_3690)">
<path d="M52.8985 139.676C41.8085 139.676 31.3265 139.017 23.3879 137.819C17.2306 136.887 5.76379 135.159 5.76379 126.758C5.76379 123.354 7.68206 121.129 9.94289 119.658C9.83156 117.023 10.3539 114.38 11.5443 112.036C13.8394 107.494 18.2069 104.653 23.5078 104.26C23.9703 104.226 24.467 104.209 24.9979 104.209C27.4129 104.209 30.0163 104.568 32.7823 105.278L33.6473 97.2624C25.9656 96.5951 18.1641 90.607 15.8005 83.3442C15.4322 82.2235 15.2096 81.1029 15.1068 79.9994C11.8869 78.6392 9.06082 76.0472 6.97984 72.4543C3.92259 67.159 2.44963 59.0237 6.06352 52.7789C6.10634 52.7019 6.14916 52.6335 6.19198 52.565C4.71045 50.1013 3.93115 47.15 3.93115 43.8907C3.93115 34.6946 9.06939 27.8425 15.0982 25.2162C15.1924 24.087 15.4237 22.9493 15.8005 21.803C18.3096 14.0954 26.9419 7.8249 35.0603 7.8249C36.2421 7.8249 37.3811 7.95322 38.4686 8.2013C41.7057 4.4972 46.9981 2.3158 52.8985 2.3158C58.7989 2.3158 64.0913 4.4972 67.3284 8.2013C68.416 7.95322 69.555 7.8249 70.7368 7.8249C73.8882 7.8249 77.151 8.74879 80.1397 10.4084C84.3873 7.25175 89.5598 5.51519 95.0149 5.51519C108.803 5.51519 120.012 16.713 120.012 30.4858C120.012 42.3082 111.748 52.2314 100.693 54.8063C101.455 56.7311 101.866 58.8954 101.866 61.2393C101.866 70.4354 96.7277 77.2961 90.6988 79.9224C90.6046 81.0516 90.3734 82.1893 89.9966 83.3356C87.7015 90.3931 80.2767 96.2358 72.8092 97.1854L73.8796 101.976C75.5153 101.232 77.1767 100.641 78.898 100.179C79.3176 100.068 79.78 99.957 80.3281 99.8544C81.3386 99.6662 82.3235 99.5721 83.2912 99.5721C90.6389 99.5721 96.6848 105.064 97.6782 112.635C98.0379 115.372 97.6954 117.99 96.779 120.317C98.7059 121.831 100.033 123.901 100.033 126.767C100.033 135.167 88.5664 136.895 82.4091 137.828C74.4705 139.026 63.9885 139.684 52.8985 139.684V139.676Z" fill="#FBFBFB"/>
<path d="M52.8985 139.676C41.8085 139.676 31.3265 139.017 23.3879 137.819C17.2306 136.887 5.76379 135.159 5.76379 126.758C5.76379 123.354 7.68206 121.129 9.94289 119.658C9.83156 117.023 10.3539 114.38 11.5443 112.036C13.8394 107.494 18.2069 104.653 23.5078 104.26C23.9703 104.226 24.467 104.209 24.9979 104.209C27.4129 104.209 30.0163 104.568 32.7823 105.278L33.6473 97.2624C25.9656 96.5951 18.1641 90.607 15.8005 83.3442C15.4322 82.2235 15.2096 81.1029 15.1068 79.9994C11.8869 78.6392 9.06082 76.0472 6.97984 72.4543C3.92259 67.159 2.44963 59.0237 6.06352 52.7789C6.10634 52.7019 6.14916 52.6335 6.19198 52.565C4.71045 50.1013 3.93115 47.15 3.93115 43.8907C3.93115 34.6946 9.06939 27.8425 15.0982 25.2162C15.1924 24.087 15.4237 22.9493 15.8005 21.803C18.3096 14.0954 26.9419 7.8249 35.0603 7.8249C36.2421 7.8249 37.3811 7.95322 38.4686 8.2013C41.7057 4.4972 46.9981 2.3158 52.8985 2.3158C58.7989 2.3158 64.0913 4.4972 67.3284 8.2013C68.416 7.95322 69.555 7.8249 70.7368 7.8249C73.8882 7.8249 77.151 8.74879 80.1397 10.4084C84.3873 7.25175 89.5598 5.51519 95.0149 5.51519C108.803 5.51519 120.012 16.713 120.012 30.4858C120.012 42.3082 111.748 52.2314 100.693 54.8063C101.455 56.7311 101.866 58.8954 101.866 61.2393C101.866 70.4354 96.7277 77.2961 90.6988 79.9224C90.6046 81.0516 90.3734 82.1893 89.9966 83.3356C87.7015 90.3931 80.2767 96.2358 72.8092 97.1854L73.8796 101.976C75.5153 101.232 77.1767 100.641 78.898 100.179C79.3176 100.068 79.78 99.957 80.3281 99.8544C81.3386 99.6662 82.3235 99.5721 83.2912 99.5721C90.6389 99.5721 96.6848 105.064 97.6782 112.635C98.0379 115.372 97.6954 117.99 96.779 120.317C98.7059 121.831 100.033 123.901 100.033 126.767C100.033 135.167 88.5664 136.895 82.4091 137.828C74.4705 139.026 63.9885 139.684 52.8985 139.684V139.676Z" stroke="#9C9C9C" stroke-miterlimit="10"/>
</g>
<path d="M95.0254 48.5974C105.047 48.5974 113.172 40.4817 113.172 30.4704C113.172 20.4591 105.047 12.3434 95.0254 12.3434C85.0034 12.3434 76.8789 20.4591 76.8789 30.4704C76.8789 40.4817 85.0034 48.5974 95.0254 48.5974Z" fill="#2C2C2C"/>
<path d="M95.0254 48.5974C105.047 48.5974 113.172 40.4817 113.172 30.4704C113.172 20.4591 105.047 12.3434 95.0254 12.3434C85.0034 12.3434 76.8789 20.4591 76.8789 30.4704C76.8789 40.4817 85.0034 48.5974 95.0254 48.5974Z" fill="#FEE888"/>
<path d="M52.9232 132.833C75.1713 132.833 93.2069 130.114 93.2069 126.759C93.2069 123.405 75.1713 120.685 52.9232 120.685C30.6751 120.685 12.6394 123.405 12.6394 126.759C12.6394 130.114 30.6751 132.833 52.9232 132.833Z" fill="#2C2C2C"/>
<path d="M50.2717 64.6279V121.678C50.2717 124.8 47.7368 127.333 44.6111 127.333H24.9745C14.6894 127.333 13.7902 111.849 24.0496 111.07C24.3664 111.045 24.6919 111.036 25.0259 111.036C29.3334 111.036 34.3004 112.619 38.6936 114.655L44.063 64.6365H50.2717V64.6279Z" fill="#CBCBC5" stroke="#2C2C2C" stroke-miterlimit="10"/>
<path d="M43.0454 117.1C42.1205 116.569 40.0738 115.303 36.1516 113.592L43.0454 117.1Z" fill="#CBCBC5"/>
<path d="M43.0454 117.1C42.1205 116.569 40.0738 115.303 36.1516 113.592" stroke="#2C2C2C" stroke-miterlimit="10" stroke-linecap="round"/>
<path d="M52.9065 68.0133L58.9953 123.549C59.8003 126.569 62.8918 128.365 65.9148 127.561L84.892 122.531C94.8345 119.896 91.7259 104.704 81.6121 106.568C81.2952 106.628 80.9784 106.697 80.6615 106.782C76.4996 107.886 73.057 109.913 69.3317 113.01L58.9011 66.4221L52.8979 68.0133H52.9065Z" fill="#CBCBC5" stroke="#2C2C2C" stroke-miterlimit="10"/>
<path d="M64.7544 117.225C65.508 116.472 67.1694 114.727 70.5178 112.066L64.7544 117.225Z" fill="#CBCBC5"/>
<path d="M64.7544 117.225C65.508 116.472 67.1694 114.727 70.5178 112.066" stroke="#2C2C2C" stroke-miterlimit="10" stroke-linecap="round"/>
<path d="M65.8933 127.165C65.8933 127.165 82.7724 110.509 86.6261 114.376" stroke="#2C2C2C" stroke-miterlimit="10" stroke-linecap="round"/>
<path d="M63.3224 20.439C68.2209 5.3745 37.5285 5.3745 42.427 20.439C37.5285 5.3745 12.6937 23.3903 25.5222 32.7062C12.7023 23.3903 3.21367 52.5527 19.0737 52.5527C3.21367 52.5527 12.7023 81.715 25.5307 72.3991C12.7023 81.715 37.5285 99.7308 42.4355 84.6663C37.5371 99.7308 68.2295 99.7308 63.331 84.6663C68.2295 99.7308 93.0642 81.715 80.2358 72.3991C93.0642 81.715 102.553 52.5527 86.6928 52.5527C102.553 52.5527 93.0642 23.3903 80.2358 32.7062C93.0642 23.3903 68.238 5.3745 63.331 20.439H63.3224Z" fill="#EEEDEB"/>
<path d="M63.3224 20.439C68.2209 5.3745 37.5285 5.3745 42.427 20.439C37.5285 5.3745 12.6937 23.3903 25.5222 32.7062C12.7023 23.3903 3.21367 52.5527 19.0737 52.5527C3.21367 52.5527 12.7023 81.715 25.5307 72.3991C12.7023 81.715 37.5285 99.7308 42.4355 84.6663C37.5371 99.7308 68.2295 99.7308 63.331 84.6663C68.2295 99.7308 93.0642 81.715 80.2358 72.3991C93.0642 81.715 102.553 52.5527 86.6928 52.5527C102.553 52.5527 93.0642 23.3903 80.2358 32.7062C93.0642 23.3903 68.238 5.3745 63.331 20.439H63.3224Z" fill="#EEEDEB" stroke="#2C2C2C" stroke-miterlimit="10"/>
<path d="M43.0679 117.099L36.2854 113.643C40.1391 115.336 42.1515 116.577 43.0679 117.099Z" fill="white" stroke="#2C2C2C" stroke-miterlimit="10"/>
<path d="M43.0679 117.099L36.2854 113.643C40.1391 115.336 42.1515 116.577 43.0679 117.099Z" fill="white" stroke="#2C2C2C" stroke-miterlimit="10" stroke-linecap="round"/>
<path d="M70.3907 112.133L64.6873 117.24C65.398 116.53 66.8967 114.956 69.8426 112.57C70.0225 112.424 70.2023 112.279 70.3907 112.133Z" fill="white" stroke="#2C2C2C" stroke-miterlimit="10"/>
<path d="M70.3907 112.133L64.6873 117.24C65.398 116.53 66.8967 114.956 69.8426 112.57C70.0225 112.424 70.2023 112.279 70.3907 112.133Z" fill="white" stroke="#2C2C2C" stroke-miterlimit="10" stroke-linecap="round"/>
<path d="M55.256 55.4137C55.256 55.4137 58.8459 56.4052 57.3681 57.5231C55.8902 58.6347 55.0097 58.2115 54.4124 57.561C54.1168 57.2326 53.7843 55.9252 54.0429 55.5779C54.3015 55.2305 55.256 55.42 55.256 55.42V55.4137Z" fill="#FEE888" stroke="#2C2C2C" stroke-miterlimit="10"/>
<path d="M54.653 47.4705C54.653 51.7507 53.7007 55.2128 49.617 55.2128C45.7993 55.2128 44.0405 51.7507 44.0405 47.4705C44.0405 46.6696 44.0834 45.8945 44.1864 45.1711C46.417 45.8342 49.3682 45.8859 52.4138 43.6209C52.8599 43.2936 53.3146 42.9061 53.7693 42.4583C54.0525 43.0783 54.2669 43.7759 54.4128 44.5424C54.5758 45.4553 54.653 46.437 54.653 47.4705Z" fill="#FBFBFB" stroke="#2C2C2C" stroke-miterlimit="10"/>
<path d="M65.2655 47.4705C65.2655 51.7507 64.3218 55.2127 60.2381 55.2127C56.4118 55.2127 54.6531 51.7507 54.6531 47.4705C54.6531 46.4887 54.7217 45.5586 54.8847 44.6974C57.3984 45.4466 60.8129 45.438 64.2618 42.2257C64.9739 43.6036 65.2655 45.4466 65.2655 47.4705Z" fill="#FBFBFB" stroke="#2C2C2C" stroke-miterlimit="10"/>
<path d="M53.7692 42.4582C53.3145 42.9061 52.8598 43.2936 52.4137 43.6209C49.3681 45.8859 46.4169 45.8342 44.1863 45.171C44.6324 42.019 46.1423 39.7368 49.6169 39.7368C51.6845 39.7368 53.0057 40.7961 53.7692 42.4582Z" stroke="#2C2C2C" stroke-miterlimit="10"/>
<path d="M54.6529 49.8561C54.6529 52.2244 54.1296 54.1449 51.8647 54.1449C49.7456 54.1449 48.7676 52.2244 48.7676 49.8561C48.7676 47.4878 49.4882 45.5673 51.8647 45.5673C53.9323 45.5673 54.6529 47.4878 54.6529 49.8561Z" fill="#2C2C2C"/>
<path d="M65.2655 49.8561C65.2655 52.2244 64.7421 54.1449 62.4772 54.1449C60.3582 54.1449 59.3801 52.2244 59.3801 49.8561C59.3801 47.4878 60.1008 45.5673 62.4772 45.5673C64.5448 45.5673 65.2655 47.4878 65.2655 49.8561Z" fill="#2C2C2C"/>
<path d="M64.2618 42.2257C60.813 45.438 57.3985 45.4466 54.8848 44.6974C55.3995 41.7951 56.9266 39.7368 60.2382 39.7368C62.2028 39.7368 63.4897 40.6928 64.2618 42.2257Z" stroke="#2C2C2C" stroke-miterlimit="10" stroke-linecap="round"/>
<path d="M54.8845 44.6973C54.7214 44.6456 54.567 44.594 54.4126 44.5509" stroke="#2C2C2C" stroke-miterlimit="10" stroke-linecap="round"/>
<path d="M69.7467 65.6475C69.7467 68.4328 68.0951 69.4749 66.6795 69.4749C65.2639 69.4749 63.6123 68.4328 63.6123 65.6475C63.6123 62.8623 66.6795 58.2581 66.6795 58.2581C66.6795 58.2581 69.7467 62.8623 69.7467 65.6475Z" fill="#93D1E0"/>
<path d="M53.0063 65.7989C53.0063 65.7989 55.7055 62.8431 56.8285 64.1884L57.9516 65.5242" stroke="#2C2C2C" stroke-miterlimit="10" stroke-linecap="round"/>
<path d="M64.4305 56.4015C66.3731 56.0415 67.8152 55.0281 67.6515 54.138C67.4878 53.2478 65.7803 52.8181 63.8377 53.1781C61.8951 53.5381 60.453 54.5515 60.6167 55.4417C60.7804 56.3318 62.4879 56.7615 64.4305 56.4015Z" fill="#93D1E0"/>
<defs>
<filter id="filter0_d_40000173_3690" x="0.431152" y="0.815796" width="121.081" height="142.368" filterUnits="userSpaceOnUse" color-interpolation-filters="sRGB">
<feFlood flood-opacity="0" result="BackgroundImageFix"/>
<feColorMatrix in="SourceAlpha" type="matrix" values="0 0 0 0 0 0 0 0 0 0 0 0 0 0 0 0 0 0 127 0" result="hardAlpha"/>
<feOffset dx="-1" dy="1"/>
<feGaussianBlur stdDeviation="1"/>
<feComposite in2="hardAlpha" operator="out"/>
<feColorMatrix type="matrix" values="0 0 0 0 0 0 0 0 0 0 0 0 0 0 0 0 0 0 0.25 0"/>
<feBlend mode="normal" in2="BackgroundImageFix" result="effect1_dropShadow_40000173_3690"/>
<feBlend mode="normal" in="SourceGraphic" in2="effect1_dropShadow_40000173_3690" result="shape"/>
</filter>
</defs>
</svg>
