<svg width="122" height="144" viewBox="0 0 122 144" fill="none" xmlns="http://www.w3.org/2000/svg">
<g filter="url(#filter0_d_40000173_3692)">
<path d="M52.8985 139.676C41.8085 139.676 31.3265 139.017 23.3879 137.819C17.2306 136.887 5.76379 135.159 5.76379 126.758C5.76379 123.354 7.68206 121.129 9.94289 119.658C9.83156 117.023 10.3539 114.38 11.5443 112.036C13.8394 107.494 18.2069 104.653 23.5078 104.26C23.9703 104.226 24.467 104.209 24.9979 104.209C27.4129 104.209 30.0163 104.568 32.7823 105.278L33.6473 97.2624C25.9656 96.5951 18.1641 90.607 15.8005 83.3442C15.4322 82.2235 15.2096 81.1029 15.1068 79.9994C11.8869 78.6392 9.06082 76.0472 6.97984 72.4543C3.92259 67.159 2.44963 59.0237 6.06352 52.7789C6.10634 52.7019 6.14916 52.6335 6.19198 52.565C4.71045 50.1013 3.93115 47.15 3.93115 43.8907C3.93115 34.6946 9.06939 27.8425 15.0982 25.2162C15.1924 24.087 15.4237 22.9493 15.8005 21.803C18.3096 14.0954 26.9419 7.8249 35.0603 7.8249C36.2421 7.8249 37.3811 7.95322 38.4686 8.2013C41.7057 4.4972 46.9981 2.3158 52.8985 2.3158C58.7989 2.3158 64.0913 4.4972 67.3284 8.2013C68.416 7.95322 69.555 7.8249 70.7368 7.8249C73.8882 7.8249 77.151 8.74879 80.1397 10.4084C84.3873 7.25175 89.5598 5.51519 95.0149 5.51519C108.803 5.51519 120.012 16.713 120.012 30.4858C120.012 42.3082 111.748 52.2314 100.693 54.8063C101.455 56.7311 101.866 58.8954 101.866 61.2393C101.866 70.4354 96.7277 77.2961 90.6988 79.9224C90.6046 81.0516 90.3734 82.1893 89.9966 83.3356C87.7015 90.3931 80.2767 96.2358 72.8092 97.1854L73.8796 101.976C75.5153 101.232 77.1767 100.641 78.898 100.179C79.3176 100.068 79.78 99.957 80.3281 99.8544C81.3386 99.6662 82.3235 99.5721 83.2912 99.5721C90.6389 99.5721 96.6848 105.064 97.6782 112.635C98.0379 115.372 97.6954 117.99 96.779 120.317C98.7059 121.831 100.033 123.901 100.033 126.767C100.033 135.167 88.5664 136.895 82.4091 137.828C74.4705 139.026 63.9885 139.684 52.8985 139.684V139.676Z" fill="#FBFBFB"/>
<path d="M52.8985 139.676C41.8085 139.676 31.3265 139.017 23.3879 137.819C17.2306 136.887 5.76379 135.159 5.76379 126.758C5.76379 123.354 7.68206 121.129 9.94289 119.658C9.83156 117.023 10.3539 114.38 11.5443 112.036C13.8394 107.494 18.2069 104.653 23.5078 104.26C23.9703 104.226 24.467 104.209 24.9979 104.209C27.4129 104.209 30.0163 104.568 32.7823 105.278L33.6473 97.2624C25.9656 96.5951 18.1641 90.607 15.8005 83.3442C15.4322 82.2235 15.2096 81.1029 15.1068 79.9994C11.8869 78.6392 9.06082 76.0472 6.97984 72.4543C3.92259 67.159 2.44963 59.0237 6.06352 52.7789C6.10634 52.7019 6.14916 52.6335 6.19198 52.565C4.71045 50.1013 3.93115 47.15 3.93115 43.8907C3.93115 34.6946 9.06939 27.8425 15.0982 25.2162C15.1924 24.087 15.4237 22.9493 15.8005 21.803C18.3096 14.0954 26.9419 7.8249 35.0603 7.8249C36.2421 7.8249 37.3811 7.95322 38.4686 8.2013C41.7057 4.4972 46.9981 2.3158 52.8985 2.3158C58.7989 2.3158 64.0913 4.4972 67.3284 8.2013C68.416 7.95322 69.555 7.8249 70.7368 7.8249C73.8882 7.8249 77.151 8.74879 80.1397 10.4084C84.3873 7.25175 89.5598 5.51519 95.0149 5.51519C108.803 5.51519 120.012 16.713 120.012 30.4858C120.012 42.3082 111.748 52.2314 100.693 54.8063C101.455 56.7311 101.866 58.8954 101.866 61.2393C101.866 70.4354 96.7277 77.2961 90.6988 79.9224C90.6046 81.0516 90.3734 82.1893 89.9966 83.3356C87.7015 90.3931 80.2767 96.2358 72.8092 97.1854L73.8796 101.976C75.5153 101.232 77.1767 100.641 78.898 100.179C79.3176 100.068 79.78 99.957 80.3281 99.8544C81.3386 99.6662 82.3235 99.5721 83.2912 99.5721C90.6389 99.5721 96.6848 105.064 97.6782 112.635C98.0379 115.372 97.6954 117.99 96.779 120.317C98.7059 121.831 100.033 123.901 100.033 126.767C100.033 135.167 88.5664 136.895 82.4091 137.828C74.4705 139.026 63.9885 139.684 52.8985 139.684V139.676Z" stroke="#9C9C9C" stroke-miterlimit="10"/>
</g>
<path d="M95.0254 48.5974C105.047 48.5974 113.172 40.4817 113.172 30.4704C113.172 20.4591 105.047 12.3434 95.0254 12.3434C85.0034 12.3434 76.8789 20.4591 76.8789 30.4704C76.8789 40.4817 85.0034 48.5974 95.0254 48.5974Z" fill="#2C2C2C"/>
<path d="M95.0254 48.5974C105.047 48.5974 113.172 40.4817 113.172 30.4704C113.172 20.4591 105.047 12.3434 95.0254 12.3434C85.0034 12.3434 76.8789 20.4591 76.8789 30.4704C76.8789 40.4817 85.0034 48.5974 95.0254 48.5974Z" fill="#FEE888"/>
<path d="M52.9232 132.833C75.1713 132.833 93.2069 130.114 93.2069 126.759C93.2069 123.405 75.1713 120.685 52.9232 120.685C30.6751 120.685 12.6394 123.405 12.6394 126.759C12.6394 130.114 30.6751 132.833 52.9232 132.833Z" fill="#2C2C2C"/>
<path d="M50.2717 64.6279V121.678C50.2717 124.8 47.7368 127.333 44.6111 127.333H24.9745C14.6894 127.333 13.7902 111.849 24.0496 111.07C24.3664 111.045 24.6919 111.036 25.0259 111.036C29.3334 111.036 34.3004 112.619 38.6936 114.655L44.063 64.6365H50.2717V64.6279Z" fill="#CBCBC5" stroke="#2C2C2C" stroke-miterlimit="10"/>
<path d="M43.0454 117.1C42.1205 116.569 40.0738 115.303 36.1516 113.592L43.0454 117.1Z" fill="#CBCBC5"/>
<path d="M43.0454 117.1C42.1205 116.569 40.0738 115.303 36.1516 113.592" stroke="#2C2C2C" stroke-miterlimit="10" stroke-linecap="round"/>
<path d="M52.9065 68.0133L58.9953 123.549C59.8003 126.569 62.8918 128.365 65.9148 127.561L84.892 122.531C94.8345 119.896 91.7259 104.704 81.6121 106.568C81.2952 106.628 80.9784 106.697 80.6615 106.782C76.4996 107.886 73.057 109.913 69.3317 113.01L58.9011 66.4221L52.8979 68.0133H52.9065Z" fill="#CBCBC5" stroke="#2C2C2C" stroke-miterlimit="10"/>
<path d="M64.7544 117.225C65.508 116.472 67.1694 114.727 70.5178 112.066L64.7544 117.225Z" fill="#CBCBC5"/>
<path d="M64.7544 117.225C65.508 116.472 67.1694 114.727 70.5178 112.066" stroke="#2C2C2C" stroke-miterlimit="10" stroke-linecap="round"/>
<path d="M65.8933 127.165C65.8933 127.165 82.7724 110.509 86.6261 114.376" stroke="#2C2C2C" stroke-miterlimit="10" stroke-linecap="round"/>
<path d="M63.3224 20.439C68.2209 5.3745 37.5285 5.3745 42.427 20.439C37.5285 5.3745 12.6937 23.3903 25.5222 32.7062C12.7023 23.3903 3.21367 52.5527 19.0737 52.5527C3.21367 52.5527 12.7023 81.715 25.5307 72.3991C12.7023 81.715 37.5285 99.7308 42.4355 84.6663C37.5371 99.7308 68.2295 99.7308 63.331 84.6663C68.2295 99.7308 93.0642 81.715 80.2358 72.3991C93.0642 81.715 102.553 52.5527 86.6928 52.5527C102.553 52.5527 93.0642 23.3903 80.2358 32.7062C93.0642 23.3903 68.238 5.3745 63.331 20.439H63.3224Z" fill="#EEEDEB"/>
<path d="M63.3224 20.439C68.2209 5.3745 37.5285 5.3745 42.427 20.439C37.5285 5.3745 12.6937 23.3903 25.5222 32.7062C12.7023 23.3903 3.21367 52.5527 19.0737 52.5527C3.21367 52.5527 12.7023 81.715 25.5307 72.3991C12.7023 81.715 37.5285 99.7308 42.4355 84.6663C37.5371 99.7308 68.2295 99.7308 63.331 84.6663C68.2295 99.7308 93.0642 81.715 80.2358 72.3991C93.0642 81.715 102.553 52.5527 86.6928 52.5527C102.553 52.5527 93.0642 23.3903 80.2358 32.7062C93.0642 23.3903 68.238 5.3745 63.331 20.439H63.3224Z" fill="#EEEDEB" stroke="#2C2C2C" stroke-miterlimit="10"/>
<path d="M43.0679 117.099L36.2854 113.643C40.1391 115.336 42.1515 116.577 43.0679 117.099Z" fill="white" stroke="#2C2C2C" stroke-miterlimit="10"/>
<path d="M43.0679 117.099L36.2854 113.643C40.1391 115.336 42.1515 116.577 43.0679 117.099Z" fill="white" stroke="#2C2C2C" stroke-miterlimit="10" stroke-linecap="round"/>
<path d="M70.3907 112.133L64.6873 117.24C65.398 116.53 66.8967 114.956 69.8426 112.57C70.0225 112.424 70.2023 112.279 70.3907 112.133Z" fill="white" stroke="#2C2C2C" stroke-miterlimit="10"/>
<path d="M70.3907 112.133L64.6873 117.24C65.398 116.53 66.8967 114.956 69.8426 112.57C70.0225 112.424 70.2023 112.279 70.3907 112.133Z" fill="white" stroke="#2C2C2C" stroke-miterlimit="10" stroke-linecap="round"/>
<path d="M54.8188 47.4674V47.7515C54.8188 47.9237 54.8102 48.0872 54.8102 48.2594C54.8016 48.5177 54.7845 48.7759 54.7673 49.0256C54.7673 49.1031 54.7588 49.1805 54.7502 49.258C54.4843 52.6671 53.2837 55.2067 49.7933 55.2067C45.9685 55.2067 44.2104 51.7373 44.2104 47.4674C44.2104 46.4774 44.2791 45.5218 44.4506 44.6523C46.0628 44.859 47.7437 45.0053 49.4675 45.1086C51.0711 45.2119 52.7091 45.2636 54.39 45.2636C54.4843 45.2722 54.5872 45.2722 54.6816 45.2722C54.7759 45.9695 54.8188 46.7012 54.8188 47.4674Z" fill="#FBFBFB" stroke="#2C2C2C" stroke-miterlimit="10"/>
<path d="M65.4353 47.4674C65.4353 47.6138 65.4353 47.7601 65.4267 47.9064C65.3667 51.9698 64.3461 55.2067 60.4012 55.2067C56.4564 55.2067 54.8184 51.7373 54.8184 47.4674C54.8184 46.7012 54.8612 45.9695 54.9556 45.2722C56.6364 45.2722 58.2744 45.2205 59.8781 45.1258C61.6276 45.0311 63.3085 44.8848 64.9379 44.6782H64.9465C65.0322 44.6782 65.118 44.6696 65.2037 44.6523C65.3409 45.3841 65.4095 46.1761 65.4267 47.0025C65.4353 47.1575 65.4353 47.3124 65.4353 47.4674Z" fill="#FBFBFB" stroke="#2C2C2C" stroke-miterlimit="10"/>
<path d="M55.2557 54.1585C55.2557 54.1585 58.8457 55.1253 57.3678 56.2152C55.89 57.299 55.0094 56.8864 54.4121 56.2521C54.1166 55.9319 53.784 54.6573 54.0427 54.3186C54.3013 53.9799 55.2557 54.1647 55.2557 54.1647V54.1585Z" fill="#FEE888" stroke="#2C2C2C" stroke-miterlimit="10"/>
<path d="M54.6814 45.2722C54.5871 45.2722 54.4842 45.2722 54.3899 45.2636C52.709 45.2636 51.071 45.212 49.4673 45.1087C47.7436 45.0054 46.0627 44.859 44.4504 44.6524C44.9736 41.7771 46.5001 39.7368 49.7932 39.7368C52.8548 39.7368 54.2784 42.0698 54.6814 45.2722Z" stroke="#2C2C2C" stroke-miterlimit="10"/>
<path d="M65.204 44.6524C65.1182 44.6696 65.0324 44.6782 64.9467 44.6782H64.9381C63.3087 44.8848 61.6278 45.0312 59.8784 45.1259C58.2747 45.2206 56.6367 45.2722 54.9558 45.2722C55.376 42.0698 56.8854 39.7368 60.4015 39.7368C63.2658 39.7368 64.698 41.7771 65.204 44.6524Z" stroke="#2C2C2C" stroke-miterlimit="10"/>
<path d="M54.6644 48.5004V48.5262C54.6644 49.3441 52.1774 53.4332 51.3284 54.8106C51.1997 55.0258 50.891 55.0258 50.7538 54.8106C49.8876 53.4418 47.3406 49.3699 47.3406 48.5004C47.3406 47.2005 48.1639 46.1416 49.1844 46.1416C50.0763 46.1416 50.8224 46.9594 50.9939 48.0269C51.1654 46.9594 51.9201 46.1416 52.7948 46.1416C53.8154 46.1416 54.6472 47.2091 54.6472 48.5004H54.6644Z" fill="#2C2C2C"/>
<path d="M65.1954 48.5004V48.5262C65.1954 49.3441 62.7084 53.4332 61.8594 54.8106C61.7307 55.0258 61.422 55.0258 61.2848 54.8106C60.4186 53.4418 57.8716 49.3699 57.8716 48.5004C57.8716 47.2005 58.6949 46.1416 59.7154 46.1416C60.6073 46.1416 61.3534 46.9594 61.5249 48.0269C61.6964 46.9594 62.4511 46.1416 63.3258 46.1416C64.3464 46.1416 65.1782 47.2091 65.1782 48.5004H65.1954Z" fill="#2C2C2C"/>
<path d="M37.9911 57.2632L30.3562 62.5969" stroke="#2C2C2C" stroke-miterlimit="10" stroke-linecap="round"/>
<path d="M42.4362 57.2632L34.8013 62.5969" stroke="#2C2C2C" stroke-miterlimit="10" stroke-linecap="round"/>
<path d="M47.7307 57.2632L40.1052 62.5969" stroke="#2C2C2C" stroke-miterlimit="10" stroke-linecap="round"/>
<defs>
<filter id="filter0_d_40000173_3692" x="0.431152" y="0.815796" width="121.081" height="142.368" filterUnits="userSpaceOnUse" color-interpolation-filters="sRGB">
<feFlood flood-opacity="0" result="BackgroundImageFix"/>
<feColorMatrix in="SourceAlpha" type="matrix" values="0 0 0 0 0 0 0 0 0 0 0 0 0 0 0 0 0 0 127 0" result="hardAlpha"/>
<feOffset dx="-1" dy="1"/>
<feGaussianBlur stdDeviation="1"/>
<feComposite in2="hardAlpha" operator="out"/>
<feColorMatrix type="matrix" values="0 0 0 0 0 0 0 0 0 0 0 0 0 0 0 0 0 0 0.25 0"/>
<feBlend mode="normal" in2="BackgroundImageFix" result="effect1_dropShadow_40000173_3692"/>
<feBlend mode="normal" in="SourceGraphic" in2="effect1_dropShadow_40000173_3692" result="shape"/>
</filter>
</defs>
</svg>
