<svg width="144" height="144" viewBox="0 0 144 144" fill="none" xmlns="http://www.w3.org/2000/svg">
<g filter="url(#filter0_d_40000173_3694)">
<path d="M57.7724 139.675C46.1358 139.675 35.1373 138.979 26.8074 137.713C19.8884 136.664 8.30576 134.901 8.30576 126.022C8.30576 122.424 10.3186 120.073 12.6998 118.518C12.583 115.733 13.1401 112.939 14.3801 110.462C16.7883 105.661 21.3711 102.659 26.9333 102.234C27.3915 102.198 27.9127 102.18 28.4968 102.18C31.0308 102.18 33.7624 102.56 36.6648 103.31L37.3837 96.5289C31.6957 95.1184 26.3761 93.075 21.4969 90.4348C12.3583 85.4891 5.9425 76.2758 4.34303 65.8147C3.84882 62.614 3.6062 59.3138 3.6062 55.9955C3.6062 47.7768 5.16972 39.6574 8.11706 32.4965C14.7216 16.493 27.5353 6.55629 41.58 6.55629C46.7019 6.55629 51.6621 7.84019 56.3257 10.3718C56.5234 10.4803 56.73 10.5346 56.9457 10.5346C57.1614 10.5346 57.377 10.4803 57.5837 10.3628C62.2563 7.83115 67.2075 6.55629 72.3204 6.55629C77.4333 6.55629 82.5731 7.90348 87.2547 10.4803C89.8336 8.69914 92.9067 7.68648 96.0967 7.68648C96.2854 7.68648 96.4651 7.68648 96.6448 7.69552C99.5562 4.33206 103.815 2.3158 108.56 2.3158C113.304 2.3158 117.177 4.1874 120.089 7.30674C120.448 7.27961 120.817 7.27057 121.176 7.27057C126.684 7.27057 131.887 10.2814 134.771 15.1367C136.344 17.7859 137.081 20.7606 136.982 23.7262C140.334 26.6557 142.337 30.9414 142.337 35.7244C142.337 40.2542 140.486 44.3952 137.386 47.3156C137.413 47.6863 137.422 48.048 137.422 48.4187C137.422 57.0534 130.18 64.3409 121.607 64.3409C121.419 64.3409 121.23 64.3409 121.041 64.3319C118.13 67.6953 113.871 69.7116 109.135 69.7116C108.955 69.7116 108.785 69.7116 108.605 69.7116C106.296 77.4873 101.255 84.1781 94.2816 88.5542C89.6719 91.4475 84.4152 93.8074 78.8171 95.5162L79.7785 99.82C81.4948 99.0243 83.2381 98.4005 85.0532 97.9213C85.5204 97.8037 86.0596 97.6681 86.6616 97.5596C87.668 97.3788 88.6745 97.2884 89.6629 97.2884C97.3727 97.2884 103.717 103.093 104.75 111.095C105.127 113.988 104.768 116.755 103.806 119.214C105.828 120.814 107.221 123.003 107.221 126.031C107.221 134.91 95.6474 136.673 88.7284 137.722C80.3986 138.988 69.4 139.684 57.7634 139.684L57.7724 139.675Z" fill="#FBFBFB" stroke="#9C9C9C" stroke-miterlimit="10"/>
<path d="M117.474 56.0227C115.254 64.4856 103.384 64.6845 100.886 56.3029C93.365 60.7062 84.8375 52.406 88.9619 44.6936C80.5513 42.4603 80.3536 30.5164 88.6834 28.0029C84.3073 20.4351 92.5562 11.8546 100.221 16.0047C102.441 7.54181 114.311 7.3429 116.809 15.7244C124.33 11.3212 132.857 19.6213 128.733 27.3338C137.144 29.5671 137.341 41.511 129.011 44.0245C133.388 51.5923 125.139 60.1727 117.474 56.0227Z" fill="#FBD7D5"/>
<path d="M57.7722 132.442C81.1168 132.442 100.041 129.568 100.041 126.022C100.041 122.477 81.1168 119.603 57.7722 119.603C34.4277 119.603 15.5032 122.477 15.5032 126.022C15.5032 129.568 34.4277 132.442 57.7722 132.442Z" fill="#2C2C2C"/>
<path d="M54.9866 60.3716V120.67C54.9866 123.97 52.3268 126.646 49.047 126.646H28.4426C17.6507 126.646 16.7072 110.281 27.4722 109.458C27.8046 109.431 28.1461 109.422 28.4965 109.422C33.0164 109.422 38.2281 111.095 42.8378 113.247L48.4719 60.3806H54.9866V60.3716Z" fill="#CBCBC5" stroke="#2C2C2C" stroke-miterlimit="10"/>
<path d="M47.4564 115.805C46.486 115.245 44.3384 113.907 40.2229 112.098L47.4564 115.805Z" fill="#CBCBC5"/>
<path d="M47.4564 115.805C46.486 115.245 44.3384 113.907 40.2229 112.098" stroke="#2C2C2C" stroke-miterlimit="10" stroke-linecap="round"/>
<path d="M57.7717 63.9248L64.1606 122.623C65.0052 125.814 68.2491 127.713 71.4211 126.863L91.3335 121.547C101.766 118.762 98.5042 102.704 87.892 104.675C87.5595 104.738 87.227 104.811 86.8946 104.901C82.5275 106.068 78.9152 108.21 75.0064 111.483L64.0617 62.2431L57.7627 63.9248H57.7717Z" fill="#CBCBC5" stroke="#2C2C2C" stroke-miterlimit="10"/>
<path d="M70.1726 115.95C70.9634 115.154 72.7066 113.31 76.22 110.498L70.1726 115.95Z" fill="#CBCBC5"/>
<path d="M70.1726 115.95C70.9634 115.154 72.7066 113.31 76.22 110.498" stroke="#2C2C2C" stroke-miterlimit="10" stroke-linecap="round"/>
<path d="M47.4573 115.805L40.3406 112.153C44.3842 113.934 46.4958 115.254 47.4573 115.805Z" fill="#FBFBFB" stroke="#2C2C2C" stroke-miterlimit="10"/>
<path d="M47.4573 115.805L40.3406 112.153C44.3842 113.934 46.4958 115.254 47.4573 115.805Z" fill="#FBFBFB" stroke="#2C2C2C" stroke-miterlimit="10" stroke-linecap="round"/>
<path d="M76.1302 110.579L70.1726 115.95C70.8645 115.254 72.2932 113.753 75.0159 111.484C75.3574 111.203 75.7348 110.896 76.1302 110.579Z" fill="#FBFBFB" stroke="#2C2C2C" stroke-miterlimit="10"/>
<path d="M76.1302 110.579L70.1726 115.95C70.8645 115.254 72.2932 113.753 75.0159 111.484C75.3574 111.203 75.7348 110.896 76.1302 110.579Z" fill="#FBFBFB" stroke="#2C2C2C" stroke-miterlimit="10" stroke-linecap="round"/>
<path d="M71.4309 126.465C71.4309 126.465 89.1419 108.861 93.1855 112.948" stroke="#2C2C2C" stroke-miterlimit="10" stroke-linecap="round"/>
<path d="M103.097 55.9865C103.097 58.5182 102.935 60.9955 102.62 63.4006C101.605 71.2487 97.1661 78.2197 90.4897 82.406C81.8723 87.8218 70.5952 91.2215 58.1769 91.5289C57.5479 91.547 56.9189 91.556 56.2809 91.556H55.7327C44.1231 91.4656 33.4301 88.6898 24.9116 84.0606C17.6331 80.1094 12.7089 72.9214 11.4509 64.7026C11.0196 61.8907 10.7949 58.9702 10.7949 55.9865C10.7949 48.4549 12.2326 41.3844 14.7576 35.2633C20.0413 22.4423 30.0694 13.7896 41.5712 13.7896C45.5698 13.7896 49.3888 14.8293 52.9022 16.7371C55.4452 18.1114 58.4554 18.1114 60.9894 16.7371C64.4939 14.8384 68.3128 13.7896 72.3025 13.7896C84.4962 13.7896 95.0365 23.5092 100.015 37.596C101.982 43.1565 103.088 49.3952 103.088 55.9865H103.097Z" fill="#EEEDEB" stroke="#2C2C2C" stroke-miterlimit="10"/>
<path d="M57.6743 50.5344V50.8229C57.6743 51.0033 57.6654 51.1836 57.6654 51.364V51.4451C57.6474 51.6886 57.6384 51.9321 57.6204 52.1665C57.6204 52.2477 57.6115 52.3198 57.6025 52.392C57.324 55.9718 56.0754 58.632 52.4104 58.632C48.404 58.632 46.5625 55.007 46.5625 50.5344V50.5073C47.9459 50.4532 49.7065 50.309 51.557 50.0024C53.4793 49.6868 55.4915 49.1818 57.2881 48.3973H57.2971C57.3869 48.4424 57.4767 48.4784 57.5665 48.5145C57.6384 49.1638 57.6743 49.8401 57.6743 50.5344Z" fill="#FBFBFB" stroke="#2C2C2C" stroke-miterlimit="10"/>
<path d="M68.7951 50.5344C68.7951 50.6877 68.7951 50.841 68.7862 50.9943C68.7233 55.2505 67.6543 58.632 63.5222 58.632C59.39 58.632 57.6743 55.007 57.6743 50.5344C57.6743 49.8671 57.7013 49.2269 57.7731 48.6047C59.3182 49.2179 61.007 49.6507 62.6419 49.9392C64.9954 50.3631 67.2411 50.4983 68.7951 50.5344Z" fill="#FBFBFB" stroke="#2C2C2C" stroke-miterlimit="10"/>
<path d="M57.5668 48.5145C57.477 48.4784 57.3871 48.4424 57.2973 48.3973H57.2883C55.4917 49.1818 53.4796 49.6868 51.5572 50.0024C49.7068 50.309 47.9461 50.4532 46.5627 50.5073C46.5717 46.0438 47.9281 42.4368 52.4106 42.4368C55.7073 42.4368 57.1895 45.0158 57.5668 48.5145Z" stroke="#2C2C2C" stroke-miterlimit="10"/>
<path d="M57.6742 50.8229V50.9853C57.6742 51.1115 57.6742 51.2377 57.6652 51.364V51.4451C57.6473 51.6886 57.6383 51.9321 57.6203 52.1665C57.6203 52.2477 57.6114 52.3198 57.6024 52.392C57.3868 54.1864 56.6592 55.4759 54.7548 55.4759C52.536 55.4759 51.512 53.465 51.512 50.9853C51.512 50.6516 51.5299 50.318 51.5569 50.0024C53.4792 49.6868 55.4914 49.1818 57.288 48.3973H57.2969C57.5485 49.0826 57.6652 49.9212 57.6742 50.8229Z" fill="#2C2C2C"/>
<path d="M68.795 50.5344C68.795 50.6877 68.795 50.841 68.786 50.9943C68.7142 53.2577 68.0854 55.025 65.8666 55.025C63.6478 55.025 62.6238 53.0142 62.6238 50.5344C62.6238 50.336 62.6328 50.1377 62.6417 49.9393C64.9953 50.3631 67.241 50.4983 68.795 50.5344Z" fill="#2C2C2C"/>
<path d="M68.795 50.5344C67.2409 50.4983 64.9952 50.3631 62.6417 49.9393C61.0068 49.6507 59.318 49.2179 57.7729 48.6047C58.1502 45.0609 59.7043 42.4368 63.522 42.4368C67.3397 42.4368 68.6872 45.8003 68.786 50.0475C68.795 50.2098 68.795 50.3721 68.795 50.5344Z" stroke="#2C2C2C" stroke-miterlimit="10"/>
<path d="M58.4291 58.9025C58.4291 58.9025 53.8927 59.137 54.4676 61.6708C55.0425 64.2047 61.3754 63.6817 62.2737 62.5996C63.172 61.5175 62.5432 59.1099 58.4291 58.8935V58.9025Z" fill="#FBD7D5" stroke="#2C2C2C" stroke-miterlimit="10"/>
<path d="M37.3733 57.7573C37.6858 57.7573 37.9392 57.5029 37.9392 57.1892C37.9392 56.8754 37.6858 56.6211 37.3733 56.6211C37.0607 56.6211 36.8074 56.8754 36.8074 57.1892C36.8074 57.5029 37.0607 57.7573 37.3733 57.7573Z" fill="#2C2C2C"/>
<path d="M40.9033 57.7573C41.2159 57.7573 41.4692 57.5029 41.4692 57.1892C41.4692 56.8754 41.2159 56.6211 40.9033 56.6211C40.5908 56.6211 40.3374 56.8754 40.3374 57.1892C40.3374 57.5029 40.5908 57.7573 40.9033 57.7573Z" fill="#2C2C2C"/>
<path d="M39.1431 59.5157C39.4556 59.5157 39.709 59.2614 39.709 58.9476C39.709 58.6339 39.4556 58.3795 39.1431 58.3795C38.8305 58.3795 38.5771 58.6339 38.5771 58.9476C38.5771 59.2614 38.8305 59.5157 39.1431 59.5157Z" fill="#2C2C2C"/>
<path d="M70.7539 57.7573C71.0665 57.7573 71.3198 57.5029 71.3198 57.1892C71.3198 56.8754 71.0665 56.6211 70.7539 56.6211C70.4414 56.6211 70.188 56.8754 70.188 57.1892C70.188 57.5029 70.4414 57.7573 70.7539 57.7573Z" fill="#2C2C2C"/>
<path d="M74.2839 57.7573C74.5965 57.7573 74.8499 57.5029 74.8499 57.1892C74.8499 56.8754 74.5965 56.6211 74.2839 56.6211C73.9714 56.6211 73.718 56.8754 73.718 57.1892C73.718 57.5029 73.9714 57.7573 74.2839 57.7573Z" fill="#2C2C2C"/>
<path d="M72.5237 59.5157C72.8362 59.5157 73.0896 59.2614 73.0896 58.9476C73.0896 58.6339 72.8362 58.3795 72.5237 58.3795C72.2111 58.3795 71.9578 58.6339 71.9578 58.9476C71.9578 59.2614 72.2111 59.5157 72.5237 59.5157Z" fill="#2C2C2C"/>
<path d="M55.088 68.4421C55.6354 68.8305 56.3244 68.9916 56.9661 68.7831C57.3059 68.6789 57.5701 68.4989 57.4569 68.1958C57.1926 67.4852 56.0412 66.7747 55.4467 67.0305C54.8521 67.2863 54.1726 67.6652 54.7389 68.1674C54.8521 68.2716 54.9748 68.3663 55.0975 68.4516L55.088 68.4421Z" fill="#2C2C2C"/>
</g>
<path d="M57.8152 26C61.1089 26 64.3932 26.0947 67.6868 26.2937L69.9802 26.4263C71.5185 26.521 72.7737 27.6768 73.0096 29.2021L73.8307 34.6968C74.1138 36.601 72.7076 38.3442 70.7823 38.4484L66.6393 38.6663C63.6948 38.8179 60.7597 38.9031 57.8152 38.9031C54.8707 38.9031 51.9262 38.8273 48.9912 38.6663L44.8481 38.4484C42.9323 38.3442 41.5167 36.6105 41.7998 34.6968L42.6208 29.2021C42.8473 27.6768 44.112 26.521 45.6503 26.4263L47.9436 26.2937C51.2278 26.0947 54.5215 26 57.8152 26ZM57.8152 25.0526C54.5215 25.0526 51.1807 25.1473 47.887 25.3463L45.5937 25.4789C43.6212 25.5926 41.9791 27.0989 41.6865 29.06L40.8655 34.5547C40.6862 35.7295 41.0165 36.9231 41.762 37.8516C42.5076 38.7705 43.6118 39.3295 44.7915 39.3958L48.9345 39.6137C51.879 39.7747 54.8613 39.8505 57.8152 39.8505C60.7692 39.8505 63.7514 39.7747 66.6959 39.6137L70.839 39.3958C72.0187 39.3295 73.1228 38.7705 73.8684 37.8516C74.614 36.9326 74.9443 35.7295 74.765 34.5547L73.9439 29.06C73.6513 27.0989 72.0092 25.5926 70.0368 25.4789L67.7435 25.3463C64.4498 25.1473 61.1183 25.0526 57.8152 25.0526Z" fill="#2C2C2C"/>
<path d="M69.9898 26.4263C71.5186 26.5116 72.7833 27.6768 73.0098 29.1926L73.8308 34.6874C74.1234 36.5916 72.6983 38.3347 70.7825 38.4295L66.6395 38.6474C60.7599 38.96 54.8709 38.96 48.9819 38.6474L44.8483 38.4295C43.0835 38.3442 41.7622 36.8853 41.7622 35.18C41.7622 35.3505 41.8377 35.4832 41.9132 35.5589C41.9981 35.6632 42.1586 35.7768 42.4134 35.7958L46.9623 36.0137C50.1238 36.1653 53.3326 36.241 56.5036 36.241C59.6746 36.241 62.8833 36.1653 66.0449 36.0137L70.5938 35.7958C70.8486 35.7768 70.9996 35.6632 71.094 35.5589C71.1789 35.4642 71.2733 35.2937 71.2355 35.0758L70.3295 26.9379C70.2729 26.6442 70.0181 26.4168 69.6878 26.3979H69.9898V26.4263Z" fill="#2C2C2C"/>
<path d="M32.8625 40.0779V54.3358" stroke="#2C2C2C" stroke-miterlimit="10" stroke-linecap="round"/>
<path d="M35.8259 39.2632V47.2116" stroke="#2C2C2C" stroke-miterlimit="10" stroke-linecap="round"/>
<path d="M38.7893 40.7126V43.7158" stroke="#2C2C2C" stroke-miterlimit="10" stroke-linecap="round"/>
<defs>
<filter id="filter0_d_40000173_3694" x="0.106201" y="0.815796" width="143.731" height="142.368" filterUnits="userSpaceOnUse" color-interpolation-filters="sRGB">
<feFlood flood-opacity="0" result="BackgroundImageFix"/>
<feColorMatrix in="SourceAlpha" type="matrix" values="0 0 0 0 0 0 0 0 0 0 0 0 0 0 0 0 0 0 127 0" result="hardAlpha"/>
<feOffset dx="-1" dy="1"/>
<feGaussianBlur stdDeviation="1"/>
<feComposite in2="hardAlpha" operator="out"/>
<feColorMatrix type="matrix" values="0 0 0 0 0 0 0 0 0 0 0 0 0 0 0 0 0 0 0.25 0"/>
<feBlend mode="normal" in2="BackgroundImageFix" result="effect1_dropShadow_40000173_3694"/>
<feBlend mode="normal" in="SourceGraphic" in2="effect1_dropShadow_40000173_3694" result="shape"/>
</filter>
</defs>
</svg>
