<svg width="144" height="144" viewBox="0 0 144 144" fill="none" xmlns="http://www.w3.org/2000/svg">
<g filter="url(#filter0_d_40000246_3859)">
<path d="M57.7724 139.675C46.1358 139.675 35.1373 138.979 26.8074 137.713C19.8884 136.664 8.30576 134.901 8.30576 126.022C8.30576 122.424 10.3186 120.073 12.6998 118.518C12.583 115.733 13.1401 112.939 14.3801 110.462C16.7883 105.661 21.3711 102.659 26.9333 102.234C27.3915 102.198 27.9127 102.18 28.4968 102.18C31.0308 102.18 33.7624 102.56 36.6648 103.31L37.3837 96.5289C31.6957 95.1184 26.3761 93.075 21.4969 90.4348C12.3583 85.4891 5.9425 76.2758 4.34303 65.8147C3.84882 62.614 3.6062 59.3138 3.6062 55.9955C3.6062 47.7768 5.16972 39.6574 8.11706 32.4965C14.7216 16.493 27.5353 6.55629 41.58 6.55629C46.7019 6.55629 51.6621 7.84019 56.3257 10.3718C56.5234 10.4803 56.73 10.5346 56.9457 10.5346C57.1614 10.5346 57.377 10.4803 57.5837 10.3628C62.2563 7.83115 67.2075 6.55629 72.3204 6.55629C77.4333 6.55629 82.5731 7.90348 87.2547 10.4803C89.8336 8.69914 92.9067 7.68648 96.0967 7.68648C96.2854 7.68648 96.4651 7.68648 96.6448 7.69552C99.5562 4.33206 103.815 2.3158 108.56 2.3158C113.304 2.3158 117.177 4.1874 120.089 7.30674C120.448 7.27961 120.817 7.27057 121.176 7.27057C126.684 7.27057 131.887 10.2814 134.771 15.1367C136.344 17.7859 137.081 20.7606 136.982 23.7262C140.334 26.6557 142.337 30.9414 142.337 35.7244C142.337 40.2542 140.486 44.3952 137.386 47.3156C137.413 47.6863 137.422 48.048 137.422 48.4187C137.422 57.0534 130.18 64.3409 121.607 64.3409C121.419 64.3409 121.23 64.3409 121.041 64.3319C118.13 67.6953 113.871 69.7116 109.135 69.7116C108.955 69.7116 108.785 69.7116 108.605 69.7116C106.296 77.4873 101.255 84.1781 94.2816 88.5542C89.6719 91.4475 84.4152 93.8074 78.8171 95.5162L79.7785 99.82C81.4948 99.0243 83.2381 98.4005 85.0532 97.9213C85.5204 97.8037 86.0596 97.6681 86.6616 97.5596C87.668 97.3788 88.6745 97.2884 89.6629 97.2884C97.3727 97.2884 103.717 103.093 104.75 111.095C105.127 113.988 104.768 116.755 103.806 119.214C105.828 120.814 107.221 123.003 107.221 126.031C107.221 134.91 95.6474 136.673 88.7284 137.722C80.3986 138.988 69.4 139.684 57.7634 139.684L57.7724 139.675Z" fill="#FBFBFB" stroke="#9C9C9C" stroke-miterlimit="10"/>
<path d="M117.474 56.0227C115.254 64.4856 103.384 64.6845 100.886 56.3029C93.365 60.7062 84.8375 52.406 88.9619 44.6936C80.5513 42.4603 80.3536 30.5164 88.6834 28.0029C84.3073 20.4351 92.5562 11.8546 100.221 16.0047C102.441 7.54181 114.311 7.3429 116.809 15.7244C124.33 11.3212 132.857 19.6213 128.733 27.3338C137.144 29.5671 137.341 41.511 129.011 44.0245C133.388 51.5923 125.139 60.1727 117.474 56.0227Z" fill="#FBD7D5"/>
<path d="M57.7722 132.442C81.1168 132.442 100.041 129.568 100.041 126.022C100.041 122.477 81.1168 119.603 57.7722 119.603C34.4277 119.603 15.5032 122.477 15.5032 126.022C15.5032 129.568 34.4277 132.442 57.7722 132.442Z" fill="#2C2C2C"/>
<path d="M54.9866 60.3716V120.67C54.9866 123.97 52.3268 126.646 49.047 126.646H28.4426C17.6507 126.646 16.7072 110.281 27.4722 109.458C27.8046 109.431 28.1461 109.422 28.4965 109.422C33.0164 109.422 38.2281 111.095 42.8378 113.247L48.4719 60.3806H54.9866V60.3716Z" fill="#CBCBC5" stroke="#2C2C2C" stroke-miterlimit="10"/>
<path d="M47.4564 115.805C46.486 115.245 44.3384 113.907 40.2229 112.098L47.4564 115.805Z" fill="#CBCBC5"/>
<path d="M47.4564 115.805C46.486 115.245 44.3384 113.907 40.2229 112.098" stroke="#2C2C2C" stroke-miterlimit="10" stroke-linecap="round"/>
<path d="M57.7717 63.9248L64.1606 122.623C65.0052 125.814 68.2491 127.713 71.4211 126.863L91.3335 121.547C101.766 118.762 98.5042 102.704 87.892 104.675C87.5595 104.738 87.227 104.811 86.8946 104.901C82.5275 106.068 78.9152 108.21 75.0064 111.483L64.0617 62.2431L57.7627 63.9248H57.7717Z" fill="#CBCBC5" stroke="#2C2C2C" stroke-miterlimit="10"/>
<path d="M70.1726 115.95C70.9634 115.154 72.7066 113.31 76.22 110.498L70.1726 115.95Z" fill="#CBCBC5"/>
<path d="M70.1726 115.95C70.9634 115.154 72.7066 113.31 76.22 110.498" stroke="#2C2C2C" stroke-miterlimit="10" stroke-linecap="round"/>
<path d="M47.4573 115.805L40.3406 112.153C44.3842 113.934 46.4958 115.254 47.4573 115.805Z" fill="#FBFBFB" stroke="#2C2C2C" stroke-miterlimit="10"/>
<path d="M47.4573 115.805L40.3406 112.153C44.3842 113.934 46.4958 115.254 47.4573 115.805Z" fill="#FBFBFB" stroke="#2C2C2C" stroke-miterlimit="10" stroke-linecap="round"/>
<path d="M76.1302 110.579L70.1726 115.95C70.8645 115.254 72.2932 113.753 75.0159 111.484C75.3574 111.203 75.7348 110.896 76.1302 110.579Z" fill="#FBFBFB" stroke="#2C2C2C" stroke-miterlimit="10"/>
<path d="M76.1302 110.579L70.1726 115.95C70.8645 115.254 72.2932 113.753 75.0159 111.484C75.3574 111.203 75.7348 110.896 76.1302 110.579Z" fill="#FBFBFB" stroke="#2C2C2C" stroke-miterlimit="10" stroke-linecap="round"/>
<path d="M71.4309 126.465C71.4309 126.465 89.1419 108.861 93.1855 112.948" stroke="#2C2C2C" stroke-miterlimit="10" stroke-linecap="round"/>
<path d="M103.097 55.9865C103.097 58.5182 102.935 60.9955 102.62 63.4006C101.605 71.2487 97.1661 78.2197 90.4897 82.406C81.8723 87.8218 70.5952 91.2215 58.1769 91.5289C57.5479 91.547 56.9189 91.556 56.2809 91.556H55.7327C44.1231 91.4656 33.4301 88.6898 24.9116 84.0606C17.6331 80.1094 12.7089 72.9214 11.4509 64.7026C11.0196 61.8907 10.7949 58.9702 10.7949 55.9865C10.7949 48.4549 12.2326 41.3844 14.7576 35.2633C20.0413 22.4423 30.0694 13.7896 41.5712 13.7896C45.5698 13.7896 49.3888 14.8293 52.9022 16.7371C55.4452 18.1114 58.4554 18.1114 60.9894 16.7371C64.4939 14.8384 68.3128 13.7896 72.3025 13.7896C84.4962 13.7896 95.0365 23.5092 100.015 37.596C101.982 43.1565 103.088 49.3952 103.088 55.9865H103.097Z" fill="#EEEDEB" stroke="#2C2C2C" stroke-miterlimit="10"/>
<path d="M46.075 70.5263C47.7454 70.5263 47.7454 72.421 49.4064 72.421C51.0674 72.421 51.0674 70.5263 52.7378 70.5263C54.4083 70.5263 54.4083 72.421 56.0693 72.421C57.7303 72.421 57.7397 70.5263 59.4007 70.5263C61.0617 70.5263 61.0711 72.421 62.7321 72.421C64.3931 72.421 64.4026 70.5263 66.073 70.5263C67.7435 70.5263 67.7435 72.421 69.4139 72.421" stroke="#2C2C2C" stroke-miterlimit="10" stroke-linecap="round"/>
<path d="M57.2093 53.9038C57.2093 58.4387 56.1983 62.1141 51.8629 62.1141C47.8007 62.1141 45.9336 58.4387 45.9336 53.9038C45.9336 49.369 47.318 45.6935 51.8629 45.6935C55.8249 45.6935 57.2093 49.369 57.2093 53.9038Z" fill="#FBFBFB" stroke="#2C2C2C" stroke-miterlimit="10"/>
<path d="M68.4761 53.9038C68.4761 58.4387 67.4651 62.1142 63.1297 62.1142C59.0676 62.1142 57.2004 58.4387 57.2004 53.9038C57.2004 51.033 57.756 48.5004 59.3226 47.0284C60.5795 47.6044 63.74 48.8387 67.6382 48.8204C68.2302 50.2193 68.4761 51.9838 68.4761 53.9038Z" fill="#FBFBFB" stroke="#2C2C2C" stroke-miterlimit="10"/>
<path d="M51.8267 50.0793C52.7313 50.0793 53.3116 50.4811 53.6948 51.1593C54.0985 51.874 54.2866 52.9112 54.2866 54.132C54.2866 55.3724 54.1458 56.4062 53.7671 57.1164C53.5831 57.4613 53.3479 57.7213 53.0493 57.8976C52.75 58.0744 52.3558 58.1857 51.8267 58.1857C50.8802 58.1857 50.2112 57.7689 49.7573 57.0773C49.2881 56.3623 49.0386 55.3308 49.0386 54.132C49.0386 52.9093 49.2279 51.882 49.6626 51.175C50.0726 50.5082 50.7278 50.0793 51.8267 50.0793Z" fill="#2C2C2C" stroke="#2C2C2C"/>
<path d="M63.093 50.0793C63.9977 50.0793 64.5779 50.4811 64.9612 51.1593C65.3649 51.874 65.5529 52.9112 65.553 54.132C65.553 55.3724 65.4121 56.4062 65.0334 57.1164C64.8495 57.4613 64.6143 57.7213 64.3157 57.8976C64.0163 58.0744 63.6221 58.1857 63.093 58.1857C62.1465 58.1857 61.4776 57.7689 61.0237 57.0773C60.5544 56.3623 60.3049 55.3308 60.3049 54.132C60.305 52.9093 60.4942 51.882 60.929 51.175C61.3389 50.5082 61.9941 50.0793 63.093 50.0793Z" fill="#2C2C2C" stroke="#2C2C2C"/>
<path d="M67.6378 48.8204C63.7396 48.8387 60.5792 47.6044 59.3223 47.0284C60.224 46.1872 61.4626 45.6935 63.1294 45.6935C65.4155 45.6935 66.8363 46.9095 67.6378 48.8204Z" stroke="#2C2C2C" stroke-miterlimit="10"/>
<path d="M57.9651 62.3884C57.9651 62.3884 53.3656 62.6261 53.9485 65.1953C54.5314 67.7644 60.9526 67.2341 61.8634 66.137C62.7742 65.0399 62.1366 62.5987 57.9651 62.3793V62.3884Z" fill="#FBD7D5" stroke="#2C2C2C" stroke-miterlimit="10"/>
<path d="M69.6688 48.6924C68.9766 48.7838 68.2935 48.8204 67.6377 48.8204" stroke="#2C2C2C" stroke-miterlimit="10" stroke-linecap="round"/>
<path d="M37.2038 61.2188C37.5164 61.2188 37.7698 60.9644 37.7698 60.6506C37.7698 60.3368 37.5164 60.0824 37.2038 60.0824C36.8911 60.0824 36.6377 60.3368 36.6377 60.6506C36.6377 60.9644 36.8911 61.2188 37.2038 61.2188Z" fill="#2C2C2C"/>
<path d="M40.7257 61.2188C41.0383 61.2188 41.2918 60.9644 41.2918 60.6506C41.2918 60.3368 41.0383 60.0824 40.7257 60.0824C40.4131 60.0824 40.1597 60.3368 40.1597 60.6506C40.1597 60.9644 40.4131 61.2188 40.7257 61.2188Z" fill="#2C2C2C"/>
<path d="M38.9647 62.9776C39.2774 62.9776 39.5308 62.7232 39.5308 62.4094C39.5308 62.0956 39.2774 61.8412 38.9647 61.8412C38.6521 61.8412 38.3987 62.0956 38.3987 62.4094C38.3987 62.7232 38.6521 62.9776 38.9647 62.9776Z" fill="#2C2C2C"/>
<path d="M70.5829 61.2188C70.8955 61.2188 71.149 60.9644 71.149 60.6506C71.149 60.3368 70.8955 60.0824 70.5829 60.0824C70.2703 60.0824 70.0168 60.3368 70.0168 60.6506C70.0168 60.9644 70.2703 61.2188 70.5829 61.2188Z" fill="#2C2C2C"/>
<path d="M74.1141 61.2188C74.4268 61.2188 74.6802 60.9644 74.6802 60.6506C74.6802 60.3368 74.4268 60.0824 74.1141 60.0824C73.8015 60.0824 73.5481 60.3368 73.5481 60.6506C73.5481 60.9644 73.8015 61.2188 74.1141 61.2188Z" fill="#2C2C2C"/>
<path d="M72.3532 62.9776C72.6658 62.9776 72.9192 62.7232 72.9192 62.4094C72.9192 62.0956 72.6658 61.8412 72.3532 61.8412C72.0405 61.8412 71.7871 62.0956 71.7871 62.4094C71.7871 62.7232 72.0405 62.9776 72.3532 62.9776Z" fill="#2C2C2C"/>
</g>
<defs>
<filter id="filter0_d_40000246_3859" x="0.106201" y="0.815796" width="143.731" height="142.368" filterUnits="userSpaceOnUse" color-interpolation-filters="sRGB">
<feFlood flood-opacity="0" result="BackgroundImageFix"/>
<feColorMatrix in="SourceAlpha" type="matrix" values="0 0 0 0 0 0 0 0 0 0 0 0 0 0 0 0 0 0 127 0" result="hardAlpha"/>
<feOffset dx="-1" dy="1"/>
<feGaussianBlur stdDeviation="1"/>
<feComposite in2="hardAlpha" operator="out"/>
<feColorMatrix type="matrix" values="0 0 0 0 0 0 0 0 0 0 0 0 0 0 0 0 0 0 0.25 0"/>
<feBlend mode="normal" in2="BackgroundImageFix" result="effect1_dropShadow_40000246_3859"/>
<feBlend mode="normal" in="SourceGraphic" in2="effect1_dropShadow_40000246_3859" result="shape"/>
</filter>
</defs>
</svg>
