<svg width="151" height="162" viewBox="0 0 151 162" fill="none" xmlns="http://www.w3.org/2000/svg">
<g filter="url(#filter0_g_40000159_4460)">
<g filter="url(#filter1_d_40000159_4460)">
<path d="M60.7724 149.675C49.1358 149.675 38.1373 148.979 29.8074 147.713C22.8884 146.664 11.3058 144.901 11.3058 136.022C11.3058 132.424 13.3186 130.073 15.6998 128.518C15.583 125.733 16.1401 122.939 17.3801 120.462C19.7883 115.661 24.3711 112.659 29.9333 112.234C30.3915 112.198 30.9127 112.18 31.4968 112.18C34.0308 112.18 36.7624 112.56 39.6648 113.31L40.3837 106.529C34.6957 105.118 29.3761 103.075 24.4969 100.435C15.3583 95.4891 8.9425 86.2758 7.34303 75.8147C6.84882 72.614 6.6062 69.3138 6.6062 65.9955C6.6062 57.7768 8.16972 49.6574 11.1171 42.4965C17.7216 26.493 30.5353 16.5563 44.58 16.5563C49.7019 16.5563 54.6621 17.8402 59.3257 20.3718C59.5234 20.4803 59.73 20.5346 59.9457 20.5346C60.1614 20.5346 60.377 20.4803 60.5837 20.3628C65.2563 17.8311 70.2075 16.5563 75.3204 16.5563C80.4333 16.5563 85.5731 17.9035 90.2547 20.4803C92.8336 18.6991 95.9067 17.6865 99.0967 17.6865C99.2854 17.6865 99.4651 17.6865 99.6448 17.6955C102.556 14.3321 106.815 12.3158 111.56 12.3158C116.304 12.3158 120.177 14.1874 123.089 17.3067C123.448 17.2796 123.817 17.2706 124.176 17.2706C129.684 17.2706 134.887 20.2814 137.771 25.1367C139.344 27.7859 140.081 30.7606 139.982 33.7262C143.334 36.6557 145.337 40.9414 145.337 45.7244C145.337 50.2542 143.486 54.3952 140.386 57.3156C140.413 57.6863 140.422 58.048 140.422 58.4187C140.422 67.0534 133.18 74.3409 124.607 74.3409C124.419 74.3409 124.23 74.3409 124.041 74.3319C121.13 77.6953 116.871 79.7116 112.135 79.7116C111.955 79.7116 111.785 79.7116 111.605 79.7116C109.296 87.4873 104.255 94.1781 97.2816 98.5542C92.6719 101.448 87.4152 103.807 81.8171 105.516L82.7785 109.82C84.4948 109.024 86.2381 108.4 88.0532 107.921C88.5204 107.804 89.0596 107.668 89.6616 107.56C90.668 107.379 91.6745 107.288 92.6629 107.288C100.373 107.288 106.717 113.093 107.75 121.095C108.127 123.988 107.768 126.755 106.806 129.214C108.828 130.814 110.221 133.003 110.221 136.031C110.221 144.91 98.6474 146.673 91.7284 147.722C83.3986 148.988 72.4 149.684 60.7634 149.684L60.7724 149.675Z" fill="#FBFBFB" stroke="#9C9C9C" stroke-miterlimit="10"/>
<path d="M120.474 66.0227C118.254 74.4856 106.384 74.6845 103.886 66.3029C96.365 70.7062 87.8375 62.406 91.9619 54.6936C83.5513 52.4603 83.3536 40.5164 91.6834 38.0029C87.3073 30.4351 95.5562 21.8546 103.221 26.0047C105.441 17.5418 117.311 17.3429 119.809 25.7244C127.33 21.3212 135.857 29.6213 131.733 37.3338C140.144 39.5671 140.341 51.511 132.011 54.0245C136.388 61.5923 128.139 70.1727 120.474 66.0227Z" fill="#FBD7D5"/>
<path d="M60.7722 142.442C84.1168 142.442 103.041 139.568 103.041 136.022C103.041 132.477 84.1168 129.603 60.7722 129.603C37.4277 129.603 18.5032 132.477 18.5032 136.022C18.5032 139.568 37.4277 142.442 60.7722 142.442Z" fill="#2C2C2C"/>
<path d="M57.9866 70.3716V130.67C57.9866 133.97 55.3268 136.646 52.047 136.646H31.4426C20.6507 136.646 19.7072 120.281 30.4722 119.458C30.8046 119.431 31.1461 119.422 31.4965 119.422C36.0164 119.422 41.2281 121.095 45.8378 123.247L51.4719 70.3806H57.9866V70.3716Z" fill="#CBCBC5" stroke="#2C2C2C" stroke-miterlimit="10"/>
<path d="M50.4564 125.805C49.486 125.245 47.3384 123.907 43.2229 122.098L50.4564 125.805Z" fill="#CBCBC5"/>
<path d="M50.4564 125.805C49.486 125.245 47.3384 123.907 43.2229 122.098" stroke="#2C2C2C" stroke-miterlimit="10" stroke-linecap="round"/>
<path d="M60.7717 73.9248L67.1606 132.623C68.0052 135.814 71.2491 137.713 74.4211 136.863L94.3335 131.547C104.766 128.762 101.504 112.704 90.892 114.675C90.5595 114.738 90.227 114.811 89.8946 114.901C85.5275 116.067 81.9152 118.21 78.0064 121.483L67.0617 72.243L60.7627 73.9248H60.7717Z" fill="#CBCBC5" stroke="#2C2C2C" stroke-miterlimit="10"/>
<path d="M73.1726 125.95C73.9634 125.154 75.7066 123.31 79.22 120.498L73.1726 125.95Z" fill="#CBCBC5"/>
<path d="M73.1726 125.95C73.9634 125.154 75.7066 123.31 79.22 120.498" stroke="#2C2C2C" stroke-miterlimit="10" stroke-linecap="round"/>
<path d="M50.4573 125.805L43.3406 122.153C47.3842 123.934 49.4958 125.254 50.4573 125.805Z" fill="#FBFBFB" stroke="#2C2C2C" stroke-miterlimit="10"/>
<path d="M50.4573 125.805L43.3406 122.153C47.3842 123.934 49.4958 125.254 50.4573 125.805Z" fill="#FBFBFB" stroke="#2C2C2C" stroke-miterlimit="10" stroke-linecap="round"/>
<path d="M79.1302 120.579L73.1726 125.95C73.8645 125.254 75.2932 123.753 78.0159 121.484C78.3574 121.203 78.7348 120.896 79.1302 120.579Z" fill="#FBFBFB" stroke="#2C2C2C" stroke-miterlimit="10"/>
<path d="M79.1302 120.579L73.1726 125.95C73.8645 125.254 75.2932 123.753 78.0159 121.484C78.3574 121.203 78.7348 120.896 79.1302 120.579Z" fill="#FBFBFB" stroke="#2C2C2C" stroke-miterlimit="10" stroke-linecap="round"/>
<path d="M74.4309 136.465C74.4309 136.465 92.1419 118.861 96.1855 122.948" stroke="#2C2C2C" stroke-miterlimit="10" stroke-linecap="round"/>
<path d="M106.097 65.9865C106.097 68.5182 105.935 70.9955 105.62 73.4006C104.605 81.2487 100.166 88.2197 93.4897 92.406C84.8723 97.8218 73.5952 101.221 61.1769 101.529C60.5479 101.547 59.9189 101.556 59.2809 101.556H58.7327C47.1231 101.466 36.4301 98.6898 27.9116 94.0606C20.6331 90.1094 15.7089 82.9214 14.4509 74.7026C14.0196 71.8907 13.7949 68.9702 13.7949 65.9865C13.7949 58.4549 15.2326 51.3844 17.7576 45.2633C23.0413 32.4423 33.0694 23.7896 44.5712 23.7896C48.5698 23.7896 52.3888 24.8293 55.9022 26.7371C58.4452 28.1114 61.4554 28.1114 63.9894 26.7371C67.4939 24.8384 71.3128 23.7896 75.3025 23.7896C87.4962 23.7896 98.0365 33.5092 103.015 47.596C104.982 53.1565 106.088 59.3952 106.088 65.9865H106.097Z" fill="#EEEDEB" stroke="#2C2C2C" stroke-miterlimit="10"/>
<path d="M60.6822 61.0226C60.6822 65.5073 59.6848 69.142 55.4076 69.142C51.3999 69.142 49.5579 65.5073 49.5579 61.0226C49.5579 56.538 50.9147 52.9033 55.4076 52.9033C59.3164 52.9033 60.6822 56.538 60.6822 61.0226Z" fill="#FBFBFB" stroke="#2C2C2C" stroke-miterlimit="10"/>
<path d="M60.6825 61.4746C60.6825 63.961 60.1344 65.9773 57.7622 65.9773C55.5427 65.9773 54.5183 63.961 54.5183 61.4746C54.5183 58.9882 55.2731 56.9719 57.7622 56.9719C59.9277 56.9719 60.6825 58.9882 60.6825 61.4746Z" fill="#2C2C2C"/>
<path d="M71.7975 61.0226C71.7975 65.5073 70.8001 69.142 66.5228 69.142C62.5152 69.142 60.6731 65.5073 60.6731 61.0226C60.6731 56.538 62.0299 52.9033 66.5228 52.9033C70.4316 52.9033 71.7975 56.538 71.7975 61.0226Z" fill="#FBFBFB" stroke="#2C2C2C" stroke-miterlimit="10"/>
<path d="M61.4277 69.4132C61.4277 69.4132 56.8898 69.6483 57.4649 72.189C58.04 74.7297 64.375 74.2052 65.2736 73.1203C66.1721 72.0353 65.5431 69.6212 61.4277 69.4042V69.4132Z" fill="#FBD7D5" stroke="#2C2C2C"/>
<path d="M48.1018 70.7605C48.1018 70.7605 51.8309 81.5742 63.737 76.1312" stroke="#2C2C2C" stroke-miterlimit="10" stroke-linecap="round"/>
<path d="M71.7973 61.0226C71.7973 63.509 71.2492 65.5253 68.8769 65.5253C66.6574 65.5253 65.6331 63.509 65.6331 61.0226C65.6331 58.5362 66.3879 56.5199 68.8769 56.5199C71.0425 56.5199 71.7973 58.5362 71.7973 61.0226Z" fill="#2C2C2C"/>
<path d="M40.3745 68.265C40.6871 68.265 40.9406 68.0099 40.9406 67.6954C40.9406 67.3808 40.6871 67.1257 40.3745 67.1257C40.0618 67.1257 39.8083 67.3808 39.8083 67.6954C39.8083 68.0099 40.0618 68.265 40.3745 68.265Z" fill="#2C2C2C"/>
<path d="M43.9059 68.265C44.2186 68.265 44.4721 68.0099 44.4721 67.6954C44.4721 67.3808 44.2186 67.1257 43.9059 67.1257C43.5933 67.1257 43.3398 67.3808 43.3398 67.6954C43.3398 68.0099 43.5933 68.265 43.9059 68.265Z" fill="#2C2C2C"/>
<path d="M42.1442 70.0282C42.4569 70.0282 42.7103 69.7731 42.7103 69.4585C42.7103 69.1439 42.4569 68.8889 42.1442 68.8889C41.8316 68.8889 41.5781 69.1439 41.5781 69.4585C41.5781 69.7731 41.8316 70.0282 42.1442 70.0282Z" fill="#2C2C2C"/>
<path d="M73.7653 68.2648C74.078 68.2648 74.3314 68.0098 74.3314 67.6952C74.3314 67.3806 74.078 67.1256 73.7653 67.1256C73.4527 67.1256 73.1992 67.3806 73.1992 67.6952C73.1992 68.0098 73.4527 68.2648 73.7653 68.2648Z" fill="#2C2C2C"/>
<path d="M77.2878 68.2648C77.6004 68.2648 77.8539 68.0098 77.8539 67.6952C77.8539 67.3806 77.6004 67.1256 77.2878 67.1256C76.9751 67.1256 76.7217 67.3806 76.7217 67.6952C76.7217 68.0098 76.9751 68.2648 77.2878 68.2648Z" fill="#2C2C2C"/>
<path d="M75.5266 70.028C75.8392 70.028 76.0927 69.773 76.0927 69.4584C76.0927 69.1438 75.8392 68.8888 75.5266 68.8888C75.2139 68.8888 74.9604 69.1438 74.9604 69.4584C74.9604 69.773 75.2139 70.028 75.5266 70.028Z" fill="#2C2C2C"/>
</g>
</g>
<defs>
<filter id="filter0_g_40000159_4460" x="-0.4" y="-0.4" width="151.8" height="162.8" filterUnits="userSpaceOnUse" color-interpolation-filters="sRGB">
<feFlood flood-opacity="0" result="BackgroundImageFix"/>
<feBlend mode="normal" in="SourceGraphic" in2="BackgroundImageFix" result="shape"/>
<feTurbulence type="fractalNoise" baseFrequency="0.66666668653488159 0.66666668653488159" numOctaves="3" seed="7043" />
<feDisplacementMap in="shape" scale="0.80000001192092896" xChannelSelector="R" yChannelSelector="G" result="displacedImage" width="100%" height="100%" />
<feMerge result="effect1_texture_40000159_4460">
<feMergeNode in="displacedImage"/>
</feMerge>
</filter>
<filter id="filter1_d_40000159_4460" x="3.1062" y="10.8158" width="143.731" height="142.368" filterUnits="userSpaceOnUse" color-interpolation-filters="sRGB">
<feFlood flood-opacity="0" result="BackgroundImageFix"/>
<feColorMatrix in="SourceAlpha" type="matrix" values="0 0 0 0 0 0 0 0 0 0 0 0 0 0 0 0 0 0 127 0" result="hardAlpha"/>
<feOffset dx="-1" dy="1"/>
<feGaussianBlur stdDeviation="1"/>
<feComposite in2="hardAlpha" operator="out"/>
<feColorMatrix type="matrix" values="0 0 0 0 0 0 0 0 0 0 0 0 0 0 0 0 0 0 0.25 0"/>
<feBlend mode="normal" in2="BackgroundImageFix" result="effect1_dropShadow_40000159_4460"/>
<feBlend mode="normal" in="SourceGraphic" in2="effect1_dropShadow_40000159_4460" result="shape"/>
</filter>
</defs>
</svg>
