<svg width="151" height="162" viewBox="0 0 151 162" fill="none" xmlns="http://www.w3.org/2000/svg">
<g filter="url(#filter0_g_40000159_4783)">
<g filter="url(#filter1_d_40000159_4783)">
<path d="M60.7724 149.675C49.1358 149.675 38.1373 148.979 29.8074 147.713C22.8884 146.664 11.3058 144.901 11.3058 136.022C11.3058 132.424 13.3186 130.073 15.6998 128.518C15.583 125.733 16.1401 122.939 17.3801 120.462C19.7883 115.661 24.3711 112.659 29.9333 112.234C30.3915 112.198 30.9127 112.18 31.4968 112.18C34.0308 112.18 36.7624 112.56 39.6648 113.31L40.3837 106.529C34.6957 105.118 29.3761 103.075 24.4969 100.435C15.3583 95.4891 8.9425 86.2758 7.34303 75.8147C6.84882 72.614 6.6062 69.3138 6.6062 65.9955C6.6062 57.7768 8.16972 49.6574 11.1171 42.4965C17.7216 26.493 30.5353 16.5563 44.58 16.5563C49.7019 16.5563 54.6621 17.8402 59.3257 20.3718C59.5234 20.4803 59.73 20.5346 59.9457 20.5346C60.1614 20.5346 60.377 20.4803 60.5837 20.3628C65.2563 17.8311 70.2075 16.5563 75.3204 16.5563C80.4333 16.5563 85.5731 17.9035 90.2547 20.4803C92.8336 18.6991 95.9067 17.6865 99.0967 17.6865C99.2854 17.6865 99.4651 17.6865 99.6448 17.6955C102.556 14.3321 106.815 12.3158 111.56 12.3158C116.304 12.3158 120.177 14.1874 123.089 17.3067C123.448 17.2796 123.817 17.2706 124.176 17.2706C129.684 17.2706 134.887 20.2814 137.771 25.1367C139.344 27.7859 140.081 30.7606 139.982 33.7262C143.334 36.6557 145.337 40.9414 145.337 45.7244C145.337 50.2542 143.486 54.3952 140.386 57.3156C140.413 57.6863 140.422 58.048 140.422 58.4187C140.422 67.0534 133.18 74.3409 124.607 74.3409C124.419 74.3409 124.23 74.3409 124.041 74.3319C121.13 77.6953 116.871 79.7116 112.135 79.7116C111.955 79.7116 111.785 79.7116 111.605 79.7116C109.296 87.4873 104.255 94.1781 97.2816 98.5542C92.6719 101.448 87.4152 103.807 81.8171 105.516L82.7785 109.82C84.4948 109.024 86.2381 108.4 88.0532 107.921C88.5204 107.804 89.0596 107.668 89.6616 107.56C90.668 107.379 91.6745 107.288 92.6629 107.288C100.373 107.288 106.717 113.093 107.75 121.095C108.127 123.988 107.768 126.755 106.806 129.214C108.828 130.814 110.221 133.003 110.221 136.031C110.221 144.91 98.6474 146.673 91.7284 147.722C83.3986 148.988 72.4 149.684 60.7634 149.684L60.7724 149.675Z" fill="#FBFBFB" stroke="#9C9C9C" stroke-miterlimit="10"/>
<path d="M120.474 66.0227C118.254 74.4856 106.384 74.6845 103.886 66.3029C96.365 70.7062 87.8375 62.406 91.9619 54.6936C83.5513 52.4603 83.3536 40.5164 91.6834 38.0029C87.3073 30.4351 95.5562 21.8546 103.221 26.0047C105.441 17.5418 117.311 17.3429 119.809 25.7244C127.33 21.3212 135.857 29.6213 131.733 37.3338C140.144 39.5671 140.341 51.511 132.011 54.0245C136.388 61.5923 128.139 70.1727 120.474 66.0227Z" fill="#FBD7D5"/>
<path d="M60.7722 142.442C84.1168 142.442 103.041 139.568 103.041 136.022C103.041 132.477 84.1168 129.603 60.7722 129.603C37.4277 129.603 18.5032 132.477 18.5032 136.022C18.5032 139.568 37.4277 142.442 60.7722 142.442Z" fill="#2C2C2C"/>
<path d="M57.9866 70.3716V130.67C57.9866 133.97 55.3268 136.646 52.047 136.646H31.4426C20.6507 136.646 19.7072 120.281 30.4722 119.458C30.8046 119.431 31.1461 119.422 31.4965 119.422C36.0164 119.422 41.2281 121.095 45.8378 123.247L51.4719 70.3806H57.9866V70.3716Z" fill="#CBCBC5" stroke="#2C2C2C" stroke-miterlimit="10"/>
<path d="M50.4564 125.805C49.486 125.245 47.3384 123.907 43.2229 122.098L50.4564 125.805Z" fill="#CBCBC5"/>
<path d="M50.4564 125.805C49.486 125.245 47.3384 123.907 43.2229 122.098" stroke="#2C2C2C" stroke-miterlimit="10" stroke-linecap="round"/>
<path d="M60.7717 73.9248L67.1606 132.623C68.0052 135.814 71.2491 137.713 74.4211 136.863L94.3335 131.547C104.766 128.762 101.504 112.704 90.892 114.675C90.5595 114.738 90.227 114.811 89.8946 114.901C85.5275 116.067 81.9152 118.21 78.0064 121.483L67.0617 72.243L60.7627 73.9248H60.7717Z" fill="#CBCBC5" stroke="#2C2C2C" stroke-miterlimit="10"/>
<path d="M73.1726 125.95C73.9634 125.154 75.7066 123.31 79.22 120.498L73.1726 125.95Z" fill="#CBCBC5"/>
<path d="M73.1726 125.95C73.9634 125.154 75.7066 123.31 79.22 120.498" stroke="#2C2C2C" stroke-miterlimit="10" stroke-linecap="round"/>
<path d="M50.4573 125.805L43.3406 122.153C47.3842 123.934 49.4958 125.254 50.4573 125.805Z" fill="#FBFBFB" stroke="#2C2C2C" stroke-miterlimit="10"/>
<path d="M50.4573 125.805L43.3406 122.153C47.3842 123.934 49.4958 125.254 50.4573 125.805Z" fill="#FBFBFB" stroke="#2C2C2C" stroke-miterlimit="10" stroke-linecap="round"/>
<path d="M79.1302 120.579L73.1726 125.95C73.8645 125.254 75.2932 123.753 78.0159 121.484C78.3574 121.203 78.7348 120.896 79.1302 120.579Z" fill="#FBFBFB" stroke="#2C2C2C" stroke-miterlimit="10"/>
<path d="M79.1302 120.579L73.1726 125.95C73.8645 125.254 75.2932 123.753 78.0159 121.484C78.3574 121.203 78.7348 120.896 79.1302 120.579Z" fill="#FBFBFB" stroke="#2C2C2C" stroke-miterlimit="10" stroke-linecap="round"/>
<path d="M74.4309 136.465C74.4309 136.465 92.1419 118.861 96.1855 122.948" stroke="#2C2C2C" stroke-miterlimit="10" stroke-linecap="round"/>
<path d="M106.097 65.9865C106.097 68.5182 105.935 70.9955 105.62 73.4006C104.605 81.2487 100.166 88.2197 93.4897 92.406C84.8723 97.8218 73.5952 101.221 61.1769 101.529C60.5479 101.547 59.9189 101.556 59.2809 101.556H58.7327C47.1231 101.466 36.4301 98.6898 27.9116 94.0606C20.6331 90.1094 15.7089 82.9214 14.4509 74.7026C14.0196 71.8907 13.7949 68.9702 13.7949 65.9865C13.7949 58.4549 15.2326 51.3844 17.7576 45.2633C23.0413 32.4423 33.0694 23.7896 44.5712 23.7896C48.5698 23.7896 52.3888 24.8293 55.9022 26.7371C58.4452 28.1114 61.4554 28.1114 63.9894 26.7371C67.4939 24.8384 71.3128 23.7896 75.3025 23.7896C87.4962 23.7896 98.0365 33.5092 103.015 47.596C104.982 53.1565 106.088 59.3952 106.088 65.9865H106.097Z" fill="#EEEDEB" stroke="#2C2C2C" stroke-miterlimit="10"/>
<path d="M60.6796 62.633C60.6796 67.1067 59.6823 70.7325 55.4054 70.7325C51.3981 70.7325 49.5562 67.1067 49.5562 62.633C49.5562 58.1594 50.9129 54.5336 55.4054 54.5336C59.3139 54.5336 60.6796 58.1594 60.6796 62.633Z" fill="#FBFBFB" stroke="#2C2C2C" stroke-miterlimit="10"/>
<path d="M71.7936 62.633C71.7936 67.1067 70.7963 70.7325 66.5194 70.7325C62.5121 70.7325 60.6702 67.1067 60.6702 62.633C60.6702 58.1594 62.0269 54.5336 66.5194 54.5336C70.4279 54.5336 71.7936 58.1594 71.7936 62.633Z" fill="#FBFBFB" stroke="#2C2C2C" stroke-miterlimit="10"/>
<path d="M60.6793 63.084C60.6793 65.5643 60.1313 67.5757 57.7592 67.5757C55.5399 67.5757 54.5156 65.5643 54.5156 63.084C54.5156 60.6036 55.2704 58.5923 57.7592 58.5923C59.9246 58.5923 60.6793 60.6036 60.6793 63.084Z" fill="#2C2C2C"/>
<path d="M71.7936 62.6331C71.7936 65.1134 71.2455 67.1247 68.8735 67.1247C66.6542 67.1247 65.6299 65.1134 65.6299 62.6331C65.6299 60.1527 66.3846 58.1414 68.8735 58.1414C71.0389 58.1414 71.7936 60.1527 71.7936 62.6331Z" fill="#2C2C2C"/>
<path d="M61.4251 70.994C61.4251 70.994 56.8877 71.2285 57.4627 73.763C58.0378 76.2975 64.3722 75.7743 65.2707 74.692C66.1692 73.6097 65.5403 71.2015 61.4251 70.985V70.994Z" fill="#FBD7D5" stroke="#2C2C2C" stroke-miterlimit="10"/>
<path d="M46.0427 58.6915C46.0427 58.6915 55.7286 64.6624 61.5239 52.901" stroke="#2C2C2C" stroke-miterlimit="10" stroke-linecap="round"/>
<path d="M40.3737 69.8575C40.6863 69.8575 40.9397 69.6031 40.9397 69.2893C40.9397 68.9755 40.6863 68.7211 40.3737 68.7211C40.061 68.7211 39.8076 68.9755 39.8076 69.2893C39.8076 69.6031 40.061 69.8575 40.3737 69.8575Z" fill="#2C2C2C"/>
<path d="M43.8954 69.8575C44.208 69.8575 44.4615 69.6031 44.4615 69.2893C44.4615 68.9755 44.208 68.7211 43.8954 68.7211C43.5828 68.7211 43.3293 68.9755 43.3293 69.2893C43.3293 69.6031 43.5828 69.8575 43.8954 69.8575Z" fill="#2C2C2C"/>
<path d="M42.1347 71.6163C42.4473 71.6163 42.7007 71.3619 42.7007 71.0481C42.7007 70.7343 42.4473 70.4799 42.1347 70.4799C41.822 70.4799 41.5686 70.7343 41.5686 71.0481C41.5686 71.3619 41.822 71.6163 42.1347 71.6163Z" fill="#2C2C2C"/>
<path d="M73.7528 69.8575C74.0654 69.8575 74.3189 69.6031 74.3189 69.2893C74.3189 68.9755 74.0654 68.7211 73.7528 68.7211C73.4402 68.7211 73.1868 68.9755 73.1868 69.2893C73.1868 69.6031 73.4402 69.8575 73.7528 69.8575Z" fill="#2C2C2C"/>
<path d="M77.2838 69.8575C77.5965 69.8575 77.8499 69.6031 77.8499 69.2893C77.8499 68.9755 77.5965 68.7211 77.2838 68.7211C76.9712 68.7211 76.7178 68.9755 76.7178 69.2893C76.7178 69.6031 76.9712 69.8575 77.2838 69.8575Z" fill="#2C2C2C"/>
<path d="M75.5226 71.6163C75.8352 71.6163 76.0887 71.3619 76.0887 71.0481C76.0887 70.7343 75.8352 70.4799 75.5226 70.4799C75.21 70.4799 74.9565 70.7343 74.9565 71.0481C74.9565 71.3619 75.21 71.6163 75.5226 71.6163Z" fill="#2C2C2C"/>
<path d="M57.4182 79.6979C57.4182 79.6979 59.9879 76.8838 61.0571 78.1646L62.1264 79.4363" stroke="#2C2C2C" stroke-miterlimit="10" stroke-linecap="round"/>
<path d="M46.8335 79.77C46.8335 82.4218 48.4059 83.4139 49.7536 83.4139C51.1014 83.4139 52.6738 82.4218 52.6738 79.77C52.6738 77.1183 49.7536 72.7349 49.7536 72.7349C49.7536 72.7349 46.8335 77.1183 46.8335 79.77Z" fill="#93D1E0"/>
<path d="M55.5348 70.052C55.6907 69.2045 54.3178 68.2397 52.4683 67.8969C50.6189 67.5542 48.9932 67.9633 48.8374 68.8108C48.6815 69.6582 50.0545 70.6231 51.9039 70.9658C53.7534 71.3086 55.379 70.8994 55.5348 70.052Z" fill="#93D1E0"/>
</g>
</g>
<defs>
<filter id="filter0_g_40000159_4783" x="-0.4" y="-0.4" width="151.8" height="162.8" filterUnits="userSpaceOnUse" color-interpolation-filters="sRGB">
<feFlood flood-opacity="0" result="BackgroundImageFix"/>
<feBlend mode="normal" in="SourceGraphic" in2="BackgroundImageFix" result="shape"/>
<feTurbulence type="fractalNoise" baseFrequency="0.66666668653488159 0.66666668653488159" numOctaves="3" seed="7043" />
<feDisplacementMap in="shape" scale="0.80000001192092896" xChannelSelector="R" yChannelSelector="G" result="displacedImage" width="100%" height="100%" />
<feMerge result="effect1_texture_40000159_4783">
<feMergeNode in="displacedImage"/>
</feMerge>
</filter>
<filter id="filter1_d_40000159_4783" x="3.1062" y="10.8158" width="143.731" height="142.368" filterUnits="userSpaceOnUse" color-interpolation-filters="sRGB">
<feFlood flood-opacity="0" result="BackgroundImageFix"/>
<feColorMatrix in="SourceAlpha" type="matrix" values="0 0 0 0 0 0 0 0 0 0 0 0 0 0 0 0 0 0 127 0" result="hardAlpha"/>
<feOffset dx="-1" dy="1"/>
<feGaussianBlur stdDeviation="1"/>
<feComposite in2="hardAlpha" operator="out"/>
<feColorMatrix type="matrix" values="0 0 0 0 0 0 0 0 0 0 0 0 0 0 0 0 0 0 0.25 0"/>
<feBlend mode="normal" in2="BackgroundImageFix" result="effect1_dropShadow_40000159_4783"/>
<feBlend mode="normal" in="SourceGraphic" in2="effect1_dropShadow_40000159_4783" result="shape"/>
</filter>
</defs>
</svg>
