<svg width="144" height="144" viewBox="0 0 144 144" fill="none" xmlns="http://www.w3.org/2000/svg">
<g filter="url(#filter0_d_40000159_4631)">
<path d="M57.7724 139.675C46.1358 139.675 35.1373 138.979 26.8074 137.713C19.8884 136.664 8.30576 134.901 8.30576 126.022C8.30576 122.424 10.3186 120.073 12.6998 118.518C12.583 115.733 13.1401 112.939 14.3801 110.462C16.7883 105.661 21.3711 102.659 26.9333 102.234C27.3915 102.198 27.9127 102.18 28.4968 102.18C31.0308 102.18 33.7624 102.56 36.6648 103.31L37.3837 96.5289C31.6957 95.1184 26.3761 93.075 21.4969 90.4348C12.3583 85.4891 5.9425 76.2758 4.34303 65.8147C3.84882 62.614 3.6062 59.3138 3.6062 55.9955C3.6062 47.7768 5.16972 39.6574 8.11706 32.4965C14.7216 16.493 27.5353 6.55629 41.58 6.55629C46.7019 6.55629 51.6621 7.84019 56.3257 10.3718C56.5234 10.4803 56.73 10.5346 56.9457 10.5346C57.1614 10.5346 57.377 10.4803 57.5837 10.3628C62.2563 7.83115 67.2075 6.55629 72.3204 6.55629C77.4333 6.55629 82.5731 7.90348 87.2547 10.4803C89.8336 8.69914 92.9067 7.68648 96.0967 7.68648C96.2854 7.68648 96.4651 7.68648 96.6448 7.69552C99.5562 4.33206 103.815 2.3158 108.56 2.3158C113.304 2.3158 117.177 4.1874 120.089 7.30674C120.448 7.27961 120.817 7.27057 121.176 7.27057C126.684 7.27057 131.887 10.2814 134.771 15.1367C136.344 17.7859 137.081 20.7606 136.982 23.7262C140.334 26.6557 142.337 30.9414 142.337 35.7244C142.337 40.2542 140.486 44.3952 137.386 47.3156C137.413 47.6863 137.422 48.048 137.422 48.4187C137.422 57.0534 130.18 64.3409 121.607 64.3409C121.419 64.3409 121.23 64.3409 121.041 64.3319C118.13 67.6953 113.871 69.7116 109.135 69.7116C108.955 69.7116 108.785 69.7116 108.605 69.7116C106.296 77.4873 101.255 84.1781 94.2816 88.5542C89.6719 91.4475 84.4152 93.8074 78.8171 95.5162L79.7785 99.82C81.4948 99.0243 83.2381 98.4005 85.0532 97.9213C85.5204 97.8037 86.0596 97.6681 86.6616 97.5596C87.668 97.3788 88.6745 97.2884 89.6629 97.2884C97.3727 97.2884 103.717 103.093 104.75 111.095C105.127 113.988 104.768 116.755 103.806 119.214C105.828 120.814 107.221 123.003 107.221 126.031C107.221 134.91 95.6474 136.673 88.7284 137.722C80.3986 138.988 69.4 139.684 57.7634 139.684L57.7724 139.675Z" fill="#FBFBFB" stroke="#9C9C9C" stroke-miterlimit="10"/>
<path d="M117.474 56.0227C115.254 64.4856 103.384 64.6845 100.886 56.3029C93.365 60.7062 84.8375 52.406 88.9619 44.6936C80.5513 42.4603 80.3536 30.5164 88.6834 28.0029C84.3073 20.4351 92.5562 11.8546 100.221 16.0047C102.441 7.54181 114.311 7.3429 116.809 15.7244C124.33 11.3212 132.857 19.6213 128.733 27.3338C137.144 29.5671 137.341 41.511 129.011 44.0245C133.388 51.5923 125.139 60.1727 117.474 56.0227Z" fill="#FBD7D5"/>
<path d="M57.7722 132.442C81.1168 132.442 100.041 129.568 100.041 126.022C100.041 122.477 81.1168 119.603 57.7722 119.603C34.4277 119.603 15.5032 122.477 15.5032 126.022C15.5032 129.568 34.4277 132.442 57.7722 132.442Z" fill="#2C2C2C"/>
<path d="M54.9866 60.3716V120.67C54.9866 123.97 52.3268 126.646 49.047 126.646H28.4426C17.6507 126.646 16.7072 110.281 27.4722 109.458C27.8046 109.431 28.1461 109.422 28.4965 109.422C33.0164 109.422 38.2281 111.095 42.8378 113.247L48.4719 60.3806H54.9866V60.3716Z" fill="#CBCBC5" stroke="#2C2C2C" stroke-miterlimit="10"/>
<path d="M47.4564 115.805C46.486 115.245 44.3384 113.907 40.2229 112.098L47.4564 115.805Z" fill="#CBCBC5"/>
<path d="M47.4564 115.805C46.486 115.245 44.3384 113.907 40.2229 112.098" stroke="#2C2C2C" stroke-miterlimit="10" stroke-linecap="round"/>
<path d="M57.7717 63.9248L64.1606 122.623C65.0052 125.814 68.2491 127.713 71.4211 126.863L91.3335 121.547C101.766 118.762 98.5042 102.704 87.892 104.675C87.5595 104.738 87.227 104.811 86.8946 104.901C82.5275 106.067 78.9152 108.21 75.0064 111.483L64.0617 62.243L57.7627 63.9248H57.7717Z" fill="#CBCBC5" stroke="#2C2C2C" stroke-miterlimit="10"/>
<path d="M70.1726 115.95C70.9634 115.154 72.7066 113.31 76.22 110.498L70.1726 115.95Z" fill="#CBCBC5"/>
<path d="M70.1726 115.95C70.9634 115.154 72.7066 113.31 76.22 110.498" stroke="#2C2C2C" stroke-miterlimit="10" stroke-linecap="round"/>
<path d="M47.4573 115.805L40.3406 112.153C44.3842 113.934 46.4958 115.254 47.4573 115.805Z" fill="#FBFBFB" stroke="#2C2C2C" stroke-miterlimit="10"/>
<path d="M47.4573 115.805L40.3406 112.153C44.3842 113.934 46.4958 115.254 47.4573 115.805Z" fill="#FBFBFB" stroke="#2C2C2C" stroke-miterlimit="10" stroke-linecap="round"/>
<path d="M76.1302 110.579L70.1726 115.95C70.8645 115.254 72.2932 113.753 75.0159 111.484C75.3574 111.203 75.7348 110.896 76.1302 110.579Z" fill="#FBFBFB" stroke="#2C2C2C" stroke-miterlimit="10"/>
<path d="M76.1302 110.579L70.1726 115.95C70.8645 115.254 72.2932 113.753 75.0159 111.484C75.3574 111.203 75.7348 110.896 76.1302 110.579Z" fill="#FBFBFB" stroke="#2C2C2C" stroke-miterlimit="10" stroke-linecap="round"/>
<path d="M71.4309 126.465C71.4309 126.465 89.1419 108.861 93.1855 112.948" stroke="#2C2C2C" stroke-miterlimit="10" stroke-linecap="round"/>
<path d="M103.097 55.9865C103.097 58.5182 102.935 60.9955 102.62 63.4006C101.605 71.2487 97.1661 78.2197 90.4897 82.406C81.8723 87.8218 70.5952 91.2215 58.1769 91.5289C57.5479 91.547 56.9189 91.556 56.2809 91.556H55.7327C44.1231 91.4656 33.4301 88.6898 24.9116 84.0606C17.6331 80.1094 12.7089 72.9214 11.4509 64.7026C11.0196 61.8907 10.7949 58.9702 10.7949 55.9865C10.7949 48.4549 12.2326 41.3844 14.7576 35.2633C20.0413 22.4423 30.0694 13.7896 41.5712 13.7896C45.5698 13.7896 49.3888 14.8293 52.9022 16.7371C55.4452 18.1114 58.4554 18.1114 60.9894 16.7371C64.4939 14.8384 68.3128 13.7896 72.3025 13.7896C84.4962 13.7896 95.0365 23.5092 100.015 37.596C101.982 43.1565 103.088 49.3952 103.088 55.9865H103.097Z" fill="#EEEDEB" stroke="#2C2C2C" stroke-miterlimit="10"/>
<path d="M57.5094 52.5074C57.5094 57.2063 56.5121 61.0147 52.2352 61.0147C48.2279 61.0147 46.386 57.2063 46.386 52.5074C46.386 47.8084 47.7517 44 52.2352 44C56.1437 44 57.5094 47.8084 57.5094 52.5074Z" fill="#FBFBFB" stroke="#2C2C2C" stroke-miterlimit="10"/>
<path d="M68.6239 52.5074C68.6239 57.2063 67.6266 61.0147 63.3497 61.0147C59.3424 61.0147 57.5005 57.2063 57.5005 52.5074C57.5005 47.8084 58.8662 44 63.3497 44C67.2582 44 68.6239 47.8084 68.6239 52.5074Z" fill="#FBFBFB" stroke="#2C2C2C" stroke-miterlimit="10"/>
<path d="M57.5094 52.7443C57.5094 55.3495 56.9613 57.4622 54.5893 57.4622C52.37 57.4622 51.3457 55.3495 51.3457 52.7443C51.3457 50.139 52.1004 48.0264 54.5893 48.0264C56.7547 48.0264 57.5094 50.139 57.5094 52.7443Z" fill="#2C2C2C"/>
<path d="M68.6239 52.7443C68.6239 55.3495 68.0758 57.4622 65.7038 57.4622C63.4845 57.4622 62.4602 55.3495 62.4602 52.7443C62.4602 50.139 63.2149 48.0264 65.7038 48.0264C67.8692 48.0264 68.6239 50.139 68.6239 52.7443Z" fill="#2C2C2C"/>
<path d="M58.2552 61.2989C58.2552 61.2989 53.7178 61.5452 54.2928 64.2073C54.8679 66.8694 61.2023 66.32 62.1008 65.1831C62.9993 64.0463 62.3703 61.5168 58.2552 61.2894V61.2989Z" fill="#FBD7D5" stroke="#2C2C2C" stroke-miterlimit="10"/>
<path d="M37.2035 60.0958C37.5161 60.0958 37.7696 59.8286 37.7696 59.4989C37.7696 59.1693 37.5161 58.9021 37.2035 58.9021C36.8909 58.9021 36.6375 59.1693 36.6375 59.4989C36.6375 59.8286 36.8909 60.0958 37.2035 60.0958Z" fill="#2C2C2C"/>
<path d="M40.7257 60.0958C41.0383 60.0958 41.2918 59.8286 41.2918 59.4989C41.2918 59.1693 41.0383 58.9021 40.7257 58.9021C40.4131 58.9021 40.1597 59.1693 40.1597 59.4989C40.1597 59.8286 40.4131 60.0958 40.7257 60.0958Z" fill="#2C2C2C"/>
<path d="M38.9645 61.9432C39.2771 61.9432 39.5305 61.676 39.5305 61.3464C39.5305 61.0167 39.2771 60.7495 38.9645 60.7495C38.6519 60.7495 38.3984 61.0167 38.3984 61.3464C38.3984 61.676 38.6519 61.9432 38.9645 61.9432Z" fill="#2C2C2C"/>
<path d="M70.5827 60.0958C70.8953 60.0958 71.1487 59.8286 71.1487 59.4989C71.1487 59.1693 70.8953 58.9021 70.5827 58.9021C70.27 58.9021 70.0166 59.1693 70.0166 59.4989C70.0166 59.8286 70.27 60.0958 70.5827 60.0958Z" fill="#2C2C2C"/>
<path d="M74.1137 60.0958C74.4263 60.0958 74.6797 59.8286 74.6797 59.4989C74.6797 59.1693 74.4263 58.9021 74.1137 58.9021C73.801 58.9021 73.5476 59.1693 73.5476 59.4989C73.5476 59.8286 73.801 60.0958 74.1137 60.0958Z" fill="#2C2C2C"/>
<path d="M72.3527 61.9432C72.6653 61.9432 72.9187 61.676 72.9187 61.3464C72.9187 61.0167 72.6653 60.7495 72.3527 60.7495C72.0401 60.7495 71.7866 61.0167 71.7866 61.3464C71.7866 61.676 72.0401 61.9432 72.3527 61.9432Z" fill="#2C2C2C"/>
</g>
<defs>
<filter id="filter0_d_40000159_4631" x="0.106201" y="0.815796" width="143.731" height="142.368" filterUnits="userSpaceOnUse" color-interpolation-filters="sRGB">
<feFlood flood-opacity="0" result="BackgroundImageFix"/>
<feColorMatrix in="SourceAlpha" type="matrix" values="0 0 0 0 0 0 0 0 0 0 0 0 0 0 0 0 0 0 127 0" result="hardAlpha"/>
<feOffset dx="-1" dy="1"/>
<feGaussianBlur stdDeviation="1"/>
<feComposite in2="hardAlpha" operator="out"/>
<feColorMatrix type="matrix" values="0 0 0 0 0 0 0 0 0 0 0 0 0 0 0 0 0 0 0.25 0"/>
<feBlend mode="normal" in2="BackgroundImageFix" result="effect1_dropShadow_40000159_4631"/>
<feBlend mode="normal" in="SourceGraphic" in2="effect1_dropShadow_40000159_4631" result="shape"/>
</filter>
</defs>
</svg>
