<svg width="151" height="162" viewBox="0 0 151 162" fill="none" xmlns="http://www.w3.org/2000/svg">
<g filter="url(#filter0_g_40000162_4551)">
<g filter="url(#filter1_d_40000162_4551)">
<path d="M71.2958 143.062C59.0743 143.062 47.5228 142.333 38.7742 141.006C31.5073 139.907 19.3518 138.06 19.3518 128.747C19.3518 124.977 21.4658 122.504 23.9573 120.875C23.8347 117.966 24.4198 115.029 25.7222 112.434C26.9396 110.018 28.6761 108.038 30.809 106.579H30.0445C26.4772 106.579 23.0325 105.006 20.5787 102.259C17.8985 99.2558 16.6244 95.1727 17.0774 91.0516C20.5598 60.0158 43.9648 36.6158 71.5318 36.6158C73.9006 36.6158 76.2505 36.7863 78.5816 37.1274C80.6295 31.0169 85.8957 26.3842 92.332 25.3137C95.6257 21.3442 100.533 18.9474 105.865 18.9474C111.198 18.9474 116.105 21.3348 119.399 25.3042C124.901 26.2232 129.667 29.7284 132.234 34.9295C134.423 39.3727 134.64 44.3842 132.979 48.8653C133.706 50.8074 134.074 52.8537 134.074 54.9569C134.074 63.1421 128.553 70.0484 121.079 72.0853C123.598 78.0442 125.241 84.4011 125.977 91.0516C126.439 95.1537 125.165 99.2463 122.494 102.249C121.182 103.718 119.588 104.855 117.842 105.603C119.295 107.754 120.286 110.302 120.654 113.106C121.05 116.138 120.673 119.027 119.663 121.604C121.786 123.281 123.259 125.574 123.259 128.747C123.259 138.06 111.094 139.907 103.827 141.006C95.0783 142.333 83.5268 143.062 71.3053 143.062H71.2958Z" fill="#FBFBFB" stroke="#9C9C9C" stroke-miterlimit="10"/>
<path d="M115.142 32.7411C124.004 31.5948 129.846 41.7505 124.429 48.8842C129.846 56.0179 124.004 66.1737 115.142 65.0274C111.698 73.3074 100.014 73.3074 96.5694 65.0274C87.7075 66.1737 81.8657 56.0179 87.2829 48.8842C81.8657 41.7505 87.7075 31.5948 96.5694 32.7411C100.014 24.4611 111.698 24.4611 115.142 32.7411Z" fill="#A7E1B6"/>
<path d="M71.2959 135.474C95.814 135.474 115.69 132.462 115.69 128.747C115.69 125.033 95.814 122.021 71.2959 122.021C46.7777 122.021 26.9019 125.033 26.9019 128.747C26.9019 132.462 46.7777 135.474 71.2959 135.474Z" fill="#2C2C2C"/>
<path d="M68.3703 59.959V123.139C68.3703 126.597 65.5768 129.401 62.1321 129.401H40.4919C29.1575 129.401 28.1665 112.254 39.4726 111.392C39.8218 111.363 40.1805 111.354 40.5485 111.354C45.2956 111.354 50.7693 113.106 55.6108 115.361L61.5281 59.9685H68.3703V59.959Z" fill="#CBCBC5" stroke="#2C2C2C" stroke-miterlimit="10"/>
<path d="M60.4617 118.042C59.4424 117.455 57.1869 116.053 52.8645 114.158L60.4617 118.042Z" fill="#CBCBC5"/>
<path d="M60.4617 118.042C59.4424 117.455 57.1869 116.053 52.8645 114.158" stroke="#2C2C2C" stroke-miterlimit="10" stroke-linecap="round"/>
<path d="M71.2958 63.6821L78.0059 125.185C78.893 128.53 82.2999 130.519 85.6314 129.628L106.545 124.058C117.502 121.14 114.076 104.315 102.93 106.38C102.581 106.446 102.232 106.522 101.883 106.617C97.2961 107.839 93.5023 110.084 89.3969 113.514L77.9021 61.92L71.2864 63.6821H71.2958Z" fill="#CBCBC5" stroke="#2C2C2C" stroke-miterlimit="10"/>
<path d="M84.3196 118.203C85.1501 117.369 86.981 115.437 90.671 112.491L84.3196 118.203Z" fill="#CBCBC5"/>
<path d="M84.3196 118.203C85.1501 117.369 86.981 115.437 90.671 112.491" stroke="#2C2C2C" stroke-miterlimit="10" stroke-linecap="round"/>
<path d="M85.6409 129.212C85.6409 129.212 104.242 110.766 108.489 115.048" stroke="#2C2C2C" stroke-miterlimit="10" stroke-linecap="round"/>
<path d="M113.01 99.0095H30.0446C26.7509 99.0095 24.165 95.6748 24.5803 91.8948C27.5908 64.98 47.4662 44.1948 71.5224 44.1948C95.5786 44.1948 115.454 64.98 118.465 91.8948C118.889 95.6748 116.294 99.0095 113 99.0095H113.01Z" fill="#EEEDEB" stroke="#2C2C2C" stroke-miterlimit="10"/>
<path d="M90.6711 112.491L90.5673 112.585C90.4351 112.68 90.303 112.784 90.1709 112.898C90.3313 112.765 90.5012 112.633 90.6711 112.491Z" fill="white" stroke="#2C2C2C" stroke-miterlimit="10" stroke-linecap="round"/>
<path d="M71.0833 69.2905C71.0833 73.9895 70.0357 77.7979 65.5435 77.7979C61.3343 77.7979 59.3997 73.9895 59.3997 69.2905C59.3997 64.5916 60.8247 60.7831 65.5435 60.7831C69.6488 60.7831 71.0833 64.5916 71.0833 69.2905Z" stroke="#2C2C2C" stroke-miterlimit="10"/>
<path d="M82.7669 69.2905C82.7669 73.9895 81.7193 77.7979 77.2271 77.7979C73.0179 77.7979 71.0833 73.9895 71.0833 69.2905C71.0833 64.5916 72.5083 60.7831 77.2271 60.7831C81.3324 60.7831 82.7669 64.5916 82.7669 69.2905Z" stroke="#2C2C2C" stroke-miterlimit="10"/>
<path d="M71.1117 77.4284C71.1117 77.4284 69.9697 77.5326 69.9697 78.5747C69.9697 79.6168 70.7814 79.7684 71.1589 79.7684C71.5364 79.7684 72.197 79.0768 72.197 78.4516C72.197 77.8263 71.5458 77.4379 71.1117 77.4379V77.4284Z" fill="#2C2C2C"/>
<path d="M57.2573 72.3222C57.2573 72.3222 65.9304 75.1643 71.1965 70.9579" stroke="#2C2C2C" stroke-miterlimit="10" stroke-linecap="round"/>
<path d="M85.1455 72.3222C85.1455 72.3222 76.4724 75.1643 71.2063 70.9579" stroke="#2C2C2C" stroke-miterlimit="10" stroke-linecap="round"/>
<path d="M71.5503 78.5823C71.638 78.5823 71.8013 78.63 71.9419 78.7435C72.0739 78.8501 72.1362 78.9719 72.1362 79.096C72.1361 79.2473 72.0457 79.4652 71.8765 79.6653C71.7967 79.7597 71.7146 79.8314 71.647 79.8753C71.6121 79.8979 71.5897 79.9075 71.5796 79.9114C71.4433 79.9089 71.2697 79.8777 71.1411 79.7913C71.0402 79.7234 70.9087 79.5872 70.9087 79.2191C70.9087 78.9287 71.048 78.788 71.2202 78.6937C71.3137 78.6425 71.4123 78.6102 71.4907 78.5911C71.5067 78.5872 71.5216 78.585 71.5347 78.5823H71.5503Z" fill="#A7E1B6" stroke="#2C2C2C"/>
<path d="M71.7956 64.9706C69.1909 64.9706 66.5484 64.9042 63.9436 64.7621L60.2724 64.5632C59.3287 64.5158 58.4415 64.0611 57.847 63.3316C57.2524 62.5927 56.9882 61.6358 57.1297 60.6979L57.8659 55.8285C58.1018 54.2653 59.4136 53.0621 60.9897 52.9674L63.0282 52.8442C65.9349 52.6737 68.8889 52.579 71.805 52.579C74.7212 52.579 77.6752 52.6642 80.5819 52.8442L82.6204 52.9674C84.1965 53.0621 85.5083 54.2653 85.7442 55.8285L86.4709 60.6979C86.6125 61.6358 86.3482 62.5927 85.7537 63.3316C85.1591 64.0706 84.272 64.5158 83.3282 64.5632L79.657 64.7621C77.0523 64.9042 74.4098 64.9706 71.805 64.9706H71.7956Z" fill="#EEEDEB"/>
<path d="M71.7955 53.0621C74.7117 53.0621 77.6279 53.1474 80.5441 53.3179L82.5826 53.4411C83.9416 53.5263 85.0646 54.5495 85.2628 55.9042L85.9895 60.7737C86.2443 62.4695 84.9891 64.0042 83.2904 64.099L79.6192 64.2979C77.0145 64.44 74.4003 64.5063 71.7955 64.5063C69.1908 64.5063 66.5766 64.44 63.9718 64.2979L60.3006 64.099C58.6019 64.0042 57.3467 62.4695 57.6015 60.7737L58.3282 55.9042C58.5358 54.5495 59.6495 53.5263 61.0085 53.4411L63.047 53.3179C65.9631 53.1474 68.8793 53.0621 71.7955 53.0621ZM71.7955 52.1148C68.8699 52.1148 65.9065 52.2 62.9903 52.38L60.9518 52.5032C59.1587 52.6074 57.6581 53.9811 57.3939 55.7716L56.6672 60.6316C56.5068 61.7021 56.8088 62.7916 57.4883 63.6348C58.1678 64.4684 59.1776 64.9895 60.2535 65.0463L63.9246 65.2453C66.5388 65.3874 69.1813 65.4537 71.7955 65.4537C74.4097 65.4537 77.0616 65.3874 79.6664 65.2453L83.3376 65.0463C84.4135 64.9895 85.4233 64.4779 86.1028 63.6348C86.7823 62.7916 87.0843 61.7021 86.9238 60.6316L86.1971 55.7621C85.9329 53.9811 84.4323 52.6074 82.6392 52.4937L80.6007 52.3705C77.6845 52.2 74.7211 52.1053 71.7955 52.1053V52.1148Z" fill="#2C2C2C"/>
<path d="M82.5824 53.4411C83.9414 53.5168 85.0644 54.5495 85.2626 55.8947L85.9893 60.7642C86.2441 62.46 84.9889 64.0042 83.2902 64.0895L79.619 64.2884C74.4095 64.5726 69.1906 64.5726 63.9716 64.2884L60.3099 64.0895C58.7527 64.0137 57.573 62.7158 57.573 61.2095C57.573 61.3611 57.6391 61.4747 57.7051 61.5411C57.7806 61.6358 57.9222 61.74 58.1487 61.7495L62.1785 61.9484C64.9814 62.0811 67.8221 62.1474 70.6345 62.1474C73.4469 62.1474 76.2876 62.0811 79.0905 61.9484L83.1203 61.7495C83.3468 61.7305 83.4789 61.6358 83.5639 61.5411C83.6394 61.4558 83.7243 61.3042 83.6866 61.1147L82.8844 53.9053C82.8372 53.6495 82.6012 53.4411 82.3181 53.4316H82.5824V53.4411Z" fill="#2C2C2C"/>
<path d="M90.6001 64.1368V75.78" stroke="#2C2C2C" stroke-miterlimit="10" stroke-linecap="round"/>
<path d="M93.0161 63.4737V69.9632" stroke="#2C2C2C" stroke-miterlimit="10" stroke-linecap="round"/>
<path d="M95.4417 64.6579V67.1116" stroke="#2C2C2C" stroke-miterlimit="10" stroke-linecap="round"/>
<path d="M67.0063 83.7645C67.0063 83.7645 71.0739 80.9982 76.274 83.4045" stroke="#2C2C2C" stroke-miterlimit="10" stroke-linecap="round"/>
</g>
</g>
<defs>
<filter id="filter0_g_40000162_4551" x="-0.4" y="-0.4" width="151.8" height="162.8" filterUnits="userSpaceOnUse" color-interpolation-filters="sRGB">
<feFlood flood-opacity="0" result="BackgroundImageFix"/>
<feBlend mode="normal" in="SourceGraphic" in2="BackgroundImageFix" result="shape"/>
<feTurbulence type="fractalNoise" baseFrequency="0.66666668653488159 0.66666668653488159" numOctaves="3" seed="7043" />
<feDisplacementMap in="shape" scale="0.80000001192092896" xChannelSelector="R" yChannelSelector="G" result="displacedImage" width="100%" height="100%" />
<feMerge result="effect1_texture_40000162_4551">
<feMergeNode in="displacedImage"/>
</feMerge>
</filter>
<filter id="filter1_d_40000162_4551" x="13.4875" y="17.4474" width="122.086" height="129.115" filterUnits="userSpaceOnUse" color-interpolation-filters="sRGB">
<feFlood flood-opacity="0" result="BackgroundImageFix"/>
<feColorMatrix in="SourceAlpha" type="matrix" values="0 0 0 0 0 0 0 0 0 0 0 0 0 0 0 0 0 0 127 0" result="hardAlpha"/>
<feOffset dx="-1" dy="1"/>
<feGaussianBlur stdDeviation="1"/>
<feComposite in2="hardAlpha" operator="out"/>
<feColorMatrix type="matrix" values="0 0 0 0 0 0 0 0 0 0 0 0 0 0 0 0 0 0 0.25 0"/>
<feBlend mode="normal" in2="BackgroundImageFix" result="effect1_dropShadow_40000162_4551"/>
<feBlend mode="normal" in="SourceGraphic" in2="effect1_dropShadow_40000162_4551" result="shape"/>
</filter>
</defs>
</svg>
