<svg width="151" height="162" viewBox="0 0 151 162" fill="none" xmlns="http://www.w3.org/2000/svg">
<g filter="url(#filter0_g_40000162_4434)">
<g filter="url(#filter1_d_40000162_4434)">
<path d="M71.2958 143.062C59.0743 143.062 47.5228 142.333 38.7742 141.006C31.5073 139.907 19.3518 138.06 19.3518 128.747C19.3518 124.977 21.4658 122.504 23.9573 120.875C23.8347 117.966 24.4198 115.029 25.7222 112.434C26.9396 110.018 28.6761 108.038 30.809 106.579H30.0445C26.4772 106.579 23.0325 105.006 20.5787 102.259C17.8985 99.2558 16.6244 95.1727 17.0774 91.0516C20.5598 60.0158 43.9648 36.6158 71.5318 36.6158C73.9006 36.6158 76.2505 36.7863 78.5816 37.1274C80.6295 31.0169 85.8957 26.3842 92.332 25.3137C95.6257 21.3442 100.533 18.9474 105.865 18.9474C111.198 18.9474 116.105 21.3348 119.399 25.3042C124.901 26.2232 129.667 29.7284 132.234 34.9295C134.423 39.3727 134.64 44.3842 132.979 48.8653C133.706 50.8074 134.074 52.8537 134.074 54.9569C134.074 63.1421 128.553 70.0484 121.079 72.0853C123.598 78.0442 125.241 84.4011 125.977 91.0516C126.439 95.1537 125.165 99.2463 122.494 102.249C121.182 103.718 119.588 104.855 117.842 105.603C119.295 107.754 120.286 110.302 120.654 113.106C121.05 116.138 120.673 119.027 119.663 121.604C121.786 123.281 123.259 125.574 123.259 128.747C123.259 138.06 111.094 139.907 103.827 141.006C95.0783 142.333 83.5268 143.062 71.3053 143.062H71.2958Z" fill="#FBFBFB" stroke="#9C9C9C" stroke-miterlimit="10"/>
<path d="M115.142 32.741C124.004 31.5947 129.846 41.7505 124.429 48.8842C129.846 56.0178 124.004 66.1736 115.142 65.0273C111.698 73.3073 100.014 73.3073 96.5694 65.0273C87.7075 66.1736 81.8657 56.0178 87.2829 48.8842C81.8657 41.7505 87.7075 31.5947 96.5694 32.741C100.014 24.461 111.698 24.461 115.142 32.741Z" fill="#A7E1B6"/>
<path d="M71.2959 135.474C95.814 135.474 115.69 132.462 115.69 128.747C115.69 125.033 95.814 122.021 71.2959 122.021C46.7777 122.021 26.9019 125.033 26.9019 128.747C26.9019 132.462 46.7777 135.474 71.2959 135.474Z" fill="#2C2C2C"/>
<path d="M68.3703 59.959V123.139C68.3703 126.597 65.5768 129.401 62.1321 129.401H40.4919C29.1575 129.401 28.1665 112.254 39.4726 111.392C39.8218 111.363 40.1805 111.354 40.5485 111.354C45.2956 111.354 50.7693 113.106 55.6108 115.361L61.5281 59.9685H68.3703V59.959Z" fill="#CBCBC5" stroke="#2C2C2C" stroke-miterlimit="10"/>
<path d="M60.4617 118.042C59.4424 117.455 57.1869 116.053 52.8645 114.158L60.4617 118.042Z" fill="#CBCBC5"/>
<path d="M60.4617 118.042C59.4424 117.455 57.1869 116.053 52.8645 114.158" stroke="#2C2C2C" stroke-miterlimit="10" stroke-linecap="round"/>
<path d="M71.2958 63.6821L78.0059 125.185C78.893 128.53 82.2999 130.519 85.6314 129.628L106.545 124.058C117.502 121.14 114.076 104.315 102.93 106.38C102.581 106.446 102.232 106.522 101.883 106.617C97.2961 107.839 93.5023 110.084 89.3969 113.514L77.9021 61.92L71.2864 63.6821H71.2958Z" fill="#CBCBC5" stroke="#2C2C2C" stroke-miterlimit="10"/>
<path d="M84.3196 118.203C85.1501 117.37 86.981 115.437 90.671 112.491L84.3196 118.203Z" fill="#CBCBC5"/>
<path d="M84.3196 118.203C85.1501 117.37 86.981 115.437 90.671 112.491" stroke="#2C2C2C" stroke-miterlimit="10" stroke-linecap="round"/>
<path d="M85.6409 129.212C85.6409 129.212 104.242 110.766 108.489 115.048" stroke="#2C2C2C" stroke-miterlimit="10" stroke-linecap="round"/>
<path d="M113.01 99.0094H30.0446C26.7509 99.0094 24.165 95.6747 24.5803 91.8947C27.5908 64.98 47.4662 44.1947 71.5224 44.1947C95.5786 44.1947 115.454 64.98 118.465 91.8947C118.889 95.6747 116.294 99.0094 113 99.0094H113.01Z" fill="#EEEDEB" stroke="#2C2C2C" stroke-miterlimit="10"/>
<path d="M90.6711 112.49L90.5673 112.585C90.4351 112.68 90.303 112.784 90.1709 112.898C90.3313 112.765 90.5012 112.633 90.6711 112.49Z" fill="white" stroke="#2C2C2C" stroke-miterlimit="10" stroke-linecap="round"/>
<path d="M83.1966 69.9347C83.1966 74.6337 82.149 78.4421 77.6568 78.4421C73.4476 78.4421 71.5129 74.6337 71.5129 69.9347C71.5129 65.2358 72.938 61.4274 77.6568 61.4274C81.7621 61.4274 83.1966 65.2358 83.1966 69.9347Z" fill="#FBFBFB" stroke="#2C2C2C" stroke-miterlimit="10"/>
<path d="M71.5225 69.9347C71.5225 74.6337 70.4749 78.4421 65.9827 78.4421C61.7736 78.4421 59.8389 74.6337 59.8389 69.9347C59.8389 65.2358 61.2639 61.4274 65.9827 61.4274C70.088 61.4274 71.5225 65.2358 71.5225 69.9347Z" fill="#FBFBFB" stroke="#2C2C2C" stroke-miterlimit="10"/>
<path d="M71.5225 70.1716C71.5225 72.7769 70.9468 74.8895 68.4553 74.8895C66.1242 74.8895 65.0483 72.7769 65.0483 70.1716C65.0483 67.5664 65.8411 65.4537 68.4553 65.4537C70.7297 65.4537 71.5225 67.5664 71.5225 70.1716Z" fill="#2C2C2C"/>
<path d="M83.1968 70.1716C83.1968 72.7769 82.6211 74.8895 80.1296 74.8895C77.7985 74.8895 76.7227 72.7769 76.7227 70.1716C76.7227 67.5664 77.5154 65.4537 80.1296 65.4537C82.404 65.4537 83.1968 67.5664 83.1968 70.1716Z" fill="#2C2C2C"/>
<path d="M71.5503 78.5824C71.638 78.5824 71.8013 78.63 71.9419 78.7435C72.0739 78.8502 72.1362 78.9719 72.1362 79.0961C72.1361 79.2473 72.0457 79.4653 71.8765 79.6654C71.7967 79.7597 71.7146 79.8315 71.647 79.8754C71.6121 79.898 71.5897 79.9075 71.5796 79.9115C71.4433 79.9089 71.2697 79.8778 71.1411 79.7914C71.0402 79.7235 70.9087 79.5872 70.9087 79.2191C70.9087 78.9287 71.048 78.788 71.2202 78.6937C71.3137 78.6426 71.4123 78.6103 71.4907 78.5912C71.5067 78.5873 71.5216 78.5851 71.5347 78.5824H71.5503Z" fill="#A7E1B6" stroke="#2C2C2C"/>
<path d="M57.9324 60.0821C57.9324 60.0821 59.5462 55.4968 64.3876 56.9747" stroke="#2C2C2C" stroke-miterlimit="10" stroke-linecap="round"/>
</g>
</g>
<defs>
<filter id="filter0_g_40000162_4434" x="-0.4" y="-0.4" width="151.8" height="162.8" filterUnits="userSpaceOnUse" color-interpolation-filters="sRGB">
<feFlood flood-opacity="0" result="BackgroundImageFix"/>
<feBlend mode="normal" in="SourceGraphic" in2="BackgroundImageFix" result="shape"/>
<feTurbulence type="fractalNoise" baseFrequency="0.66666668653488159 0.66666668653488159" numOctaves="3" seed="7043" />
<feDisplacementMap in="shape" scale="0.80000001192092896" xChannelSelector="R" yChannelSelector="G" result="displacedImage" width="100%" height="100%" />
<feMerge result="effect1_texture_40000162_4434">
<feMergeNode in="displacedImage"/>
</feMerge>
</filter>
<filter id="filter1_d_40000162_4434" x="13.4875" y="17.4474" width="122.086" height="129.115" filterUnits="userSpaceOnUse" color-interpolation-filters="sRGB">
<feFlood flood-opacity="0" result="BackgroundImageFix"/>
<feColorMatrix in="SourceAlpha" type="matrix" values="0 0 0 0 0 0 0 0 0 0 0 0 0 0 0 0 0 0 127 0" result="hardAlpha"/>
<feOffset dx="-1" dy="1"/>
<feGaussianBlur stdDeviation="1"/>
<feComposite in2="hardAlpha" operator="out"/>
<feColorMatrix type="matrix" values="0 0 0 0 0 0 0 0 0 0 0 0 0 0 0 0 0 0 0.25 0"/>
<feBlend mode="normal" in2="BackgroundImageFix" result="effect1_dropShadow_40000162_4434"/>
<feBlend mode="normal" in="SourceGraphic" in2="effect1_dropShadow_40000162_4434" result="shape"/>
</filter>
</defs>
</svg>
