<svg width="122" height="144" viewBox="0 0 122 144" fill="none" xmlns="http://www.w3.org/2000/svg">
<g filter="url(#filter0_d_40000162_3897)">
<path d="M52.8985 139.676C41.8085 139.676 31.3265 139.017 23.3879 137.819C17.2306 136.887 5.76379 135.159 5.76379 126.758C5.76379 123.354 7.68206 121.129 9.94289 119.658C9.83156 117.023 10.3539 114.38 11.5443 112.036C13.8394 107.494 18.2069 104.653 23.5078 104.26C23.9703 104.226 24.467 104.209 24.9979 104.209C27.4129 104.209 30.0163 104.568 32.7823 105.278L33.6473 97.2624C25.9656 96.5951 18.1641 90.607 15.8005 83.3442C15.4322 82.2235 15.2096 81.1029 15.1068 79.9994C11.8869 78.6392 9.06082 76.0472 6.97984 72.4543C3.92259 67.159 2.44963 59.0237 6.06352 52.7789C6.10634 52.7019 6.14916 52.6335 6.19198 52.565C4.71045 50.1013 3.93115 47.15 3.93115 43.8907C3.93115 34.6946 9.06939 27.8425 15.0982 25.2162C15.1924 24.087 15.4237 22.9493 15.8005 21.803C18.3096 14.0954 26.9419 7.8249 35.0603 7.8249C36.2421 7.8249 37.3811 7.95322 38.4686 8.2013C41.7057 4.4972 46.9981 2.3158 52.8985 2.3158C58.7989 2.3158 64.0913 4.4972 67.3284 8.2013C68.416 7.95322 69.555 7.8249 70.7368 7.8249C73.8882 7.8249 77.151 8.74879 80.1397 10.4084C84.3873 7.25175 89.5598 5.51519 95.0149 5.51519C108.803 5.51519 120.012 16.713 120.012 30.4858C120.012 42.3082 111.748 52.2314 100.693 54.8063C101.455 56.7311 101.866 58.8954 101.866 61.2393C101.866 70.4354 96.7277 77.2961 90.6988 79.9224C90.6046 81.0516 90.3734 82.1893 89.9966 83.3356C87.7015 90.3931 80.2767 96.2358 72.8092 97.1854L73.8796 101.976C75.5153 101.232 77.1767 100.641 78.898 100.179C79.3176 100.068 79.78 99.957 80.3281 99.8544C81.3386 99.6662 82.3235 99.5721 83.2912 99.5721C90.6389 99.5721 96.6848 105.064 97.6782 112.635C98.0379 115.372 97.6954 117.99 96.779 120.317C98.7059 121.831 100.033 123.901 100.033 126.767C100.033 135.167 88.5664 136.895 82.4091 137.828C74.4705 139.026 63.9885 139.684 52.8985 139.684V139.676Z" fill="#FBFBFB"/>
<path d="M52.8985 139.676C41.8085 139.676 31.3265 139.017 23.3879 137.819C17.2306 136.887 5.76379 135.159 5.76379 126.758C5.76379 123.354 7.68206 121.129 9.94289 119.658C9.83156 117.023 10.3539 114.38 11.5443 112.036C13.8394 107.494 18.2069 104.653 23.5078 104.26C23.9703 104.226 24.467 104.209 24.9979 104.209C27.4129 104.209 30.0163 104.568 32.7823 105.278L33.6473 97.2624C25.9656 96.5951 18.1641 90.607 15.8005 83.3442C15.4322 82.2235 15.2096 81.1029 15.1068 79.9994C11.8869 78.6392 9.06082 76.0472 6.97984 72.4543C3.92259 67.159 2.44963 59.0237 6.06352 52.7789C6.10634 52.7019 6.14916 52.6335 6.19198 52.565C4.71045 50.1013 3.93115 47.15 3.93115 43.8907C3.93115 34.6946 9.06939 27.8425 15.0982 25.2162C15.1924 24.087 15.4237 22.9493 15.8005 21.803C18.3096 14.0954 26.9419 7.8249 35.0603 7.8249C36.2421 7.8249 37.3811 7.95322 38.4686 8.2013C41.7057 4.4972 46.9981 2.3158 52.8985 2.3158C58.7989 2.3158 64.0913 4.4972 67.3284 8.2013C68.416 7.95322 69.555 7.8249 70.7368 7.8249C73.8882 7.8249 77.151 8.74879 80.1397 10.4084C84.3873 7.25175 89.5598 5.51519 95.0149 5.51519C108.803 5.51519 120.012 16.713 120.012 30.4858C120.012 42.3082 111.748 52.2314 100.693 54.8063C101.455 56.7311 101.866 58.8954 101.866 61.2393C101.866 70.4354 96.7277 77.2961 90.6988 79.9224C90.6046 81.0516 90.3734 82.1893 89.9966 83.3356C87.7015 90.3931 80.2767 96.2358 72.8092 97.1854L73.8796 101.976C75.5153 101.232 77.1767 100.641 78.898 100.179C79.3176 100.068 79.78 99.957 80.3281 99.8544C81.3386 99.6662 82.3235 99.5721 83.2912 99.5721C90.6389 99.5721 96.6848 105.064 97.6782 112.635C98.0379 115.372 97.6954 117.99 96.779 120.317C98.7059 121.831 100.033 123.901 100.033 126.767C100.033 135.167 88.5664 136.895 82.4091 137.828C74.4705 139.026 63.9885 139.684 52.8985 139.684V139.676Z" stroke="#9C9C9C" stroke-miterlimit="10"/>
</g>
<path d="M95.0254 48.5974C105.047 48.5974 113.172 40.4817 113.172 30.4704C113.172 20.4591 105.047 12.3434 95.0254 12.3434C85.0034 12.3434 76.8789 20.4591 76.8789 30.4704C76.8789 40.4817 85.0034 48.5974 95.0254 48.5974Z" fill="#2C2C2C"/>
<path d="M95.0254 48.5974C105.047 48.5974 113.172 40.4817 113.172 30.4704C113.172 20.4591 105.047 12.3434 95.0254 12.3434C85.0034 12.3434 76.8789 20.4591 76.8789 30.4704C76.8789 40.4817 85.0034 48.5974 95.0254 48.5974Z" fill="#FEE888"/>
<path d="M52.9232 132.833C75.1713 132.833 93.2069 130.114 93.2069 126.759C93.2069 123.405 75.1713 120.685 52.9232 120.685C30.6751 120.685 12.6394 123.405 12.6394 126.759C12.6394 130.114 30.6751 132.833 52.9232 132.833Z" fill="#2C2C2C"/>
<path d="M50.2717 64.6279V121.678C50.2717 124.8 47.7368 127.333 44.6111 127.333H24.9745C14.6894 127.333 13.7902 111.849 24.0496 111.07C24.3664 111.045 24.6919 111.036 25.0259 111.036C29.3334 111.036 34.3004 112.619 38.6936 114.655L44.063 64.6365H50.2717V64.6279Z" fill="#CBCBC5" stroke="#2C2C2C" stroke-miterlimit="10"/>
<path d="M43.0454 117.1C42.1205 116.569 40.0738 115.303 36.1516 113.592L43.0454 117.1Z" fill="#CBCBC5"/>
<path d="M43.0454 117.1C42.1205 116.569 40.0738 115.303 36.1516 113.592" stroke="#2C2C2C" stroke-miterlimit="10" stroke-linecap="round"/>
<path d="M52.9065 68.0133L58.9953 123.549C59.8003 126.569 62.8918 128.365 65.9148 127.561L84.892 122.531C94.8345 119.896 91.7259 104.704 81.6121 106.568C81.2952 106.628 80.9784 106.697 80.6615 106.782C76.4996 107.886 73.057 109.913 69.3317 113.01L58.9011 66.4221L52.8979 68.0133H52.9065Z" fill="#CBCBC5" stroke="#2C2C2C" stroke-miterlimit="10"/>
<path d="M64.7544 117.225C65.508 116.472 67.1694 114.727 70.5178 112.066L64.7544 117.225Z" fill="#CBCBC5"/>
<path d="M64.7544 117.225C65.508 116.472 67.1694 114.727 70.5178 112.066" stroke="#2C2C2C" stroke-miterlimit="10" stroke-linecap="round"/>
<path d="M65.8933 127.165C65.8933 127.165 82.7724 110.509 86.6261 114.376" stroke="#2C2C2C" stroke-miterlimit="10" stroke-linecap="round"/>
<path d="M63.3224 20.439C68.2209 5.3745 37.5285 5.3745 42.427 20.439C37.5285 5.3745 12.6937 23.3903 25.5222 32.7062C12.7023 23.3903 3.21367 52.5527 19.0737 52.5527C3.21367 52.5527 12.7023 81.715 25.5307 72.3991C12.7023 81.715 37.5285 99.7308 42.4355 84.6663C37.5371 99.7308 68.2295 99.7308 63.331 84.6663C68.2295 99.7308 93.0642 81.715 80.2358 72.3991C93.0642 81.715 102.553 52.5527 86.6928 52.5527C102.553 52.5527 93.0642 23.3903 80.2358 32.7062C93.0642 23.3903 68.238 5.3745 63.331 20.439H63.3224Z" fill="#EEEDEB"/>
<path d="M63.3224 20.439C68.2209 5.3745 37.5285 5.3745 42.427 20.439C37.5285 5.3745 12.6937 23.3903 25.5222 32.7062C12.7023 23.3903 3.21367 52.5527 19.0737 52.5527C3.21367 52.5527 12.7023 81.715 25.5307 72.3991C12.7023 81.715 37.5285 99.7308 42.4355 84.6663C37.5371 99.7308 68.2295 99.7308 63.331 84.6663C68.2295 99.7308 93.0642 81.715 80.2358 72.3991C93.0642 81.715 102.553 52.5527 86.6928 52.5527C102.553 52.5527 93.0642 23.3903 80.2358 32.7062C93.0642 23.3903 68.238 5.3745 63.331 20.439H63.3224Z" fill="#EEEDEB" stroke="#2C2C2C" stroke-miterlimit="10"/>
<path d="M43.0679 117.099L36.2854 113.643C40.1391 115.336 42.1515 116.577 43.0679 117.099Z" fill="white" stroke="#2C2C2C" stroke-miterlimit="10"/>
<path d="M43.0679 117.099L36.2854 113.643C40.1391 115.336 42.1515 116.577 43.0679 117.099Z" fill="white" stroke="#2C2C2C" stroke-miterlimit="10" stroke-linecap="round"/>
<path d="M70.3907 112.133L64.6873 117.24C65.398 116.53 66.8967 114.956 69.8426 112.57C70.0225 112.424 70.2023 112.279 70.3907 112.133Z" fill="white" stroke="#2C2C2C" stroke-miterlimit="10"/>
<path d="M70.3907 112.133L64.6873 117.24C65.398 116.53 66.8967 114.956 69.8426 112.57C70.0225 112.424 70.2023 112.279 70.3907 112.133Z" fill="white" stroke="#2C2C2C" stroke-miterlimit="10" stroke-linecap="round"/>
<path d="M54.4481 47.8563V48.1386C54.4481 48.3097 54.4395 48.4722 54.4395 48.6433C54.4309 48.8999 54.4138 49.1566 54.3967 49.4047C54.3967 49.4816 54.3881 49.5586 54.3795 49.6356C54.1141 53.0232 52.9152 55.5468 49.4297 55.5468C45.6103 55.5468 43.8547 52.0993 43.8547 47.8563C43.8547 46.8725 43.9232 45.923 44.0945 45.059C45.7045 45.2643 47.383 45.4097 49.1043 45.5123C50.7057 45.615 52.3414 45.6663 54.0199 45.6663C54.1141 45.6749 54.2168 45.6749 54.311 45.6749C54.4052 46.3678 54.4481 47.0949 54.4481 47.8563Z" fill="#FBFBFB" stroke="#2C2C2C" stroke-miterlimit="10"/>
<path d="M54.4853 48.138V48.2919C54.4853 48.4117 54.4853 48.5229 54.4767 48.6427C54.4682 48.8993 54.4511 49.1559 54.4339 49.404C54.4339 49.481 54.4254 49.558 54.4168 49.635C54.2113 51.3288 53.509 52.5521 51.7021 52.5521C49.5869 52.5521 48.6106 50.6444 48.6106 48.2919C48.6106 47.2312 48.7562 46.256 49.1415 45.5117C50.743 45.6144 52.3786 45.6657 54.0571 45.6657C54.3397 46.3501 54.4682 47.2055 54.4853 48.138Z" fill="#2C2C2C"/>
<path d="M65.0404 47.8563C65.0404 48.0017 65.0404 48.1471 65.0318 48.2926C64.9719 52.3303 63.9528 55.5468 60.0135 55.5468C56.0741 55.5468 54.4385 52.0993 54.4385 47.8563C54.4385 47.0949 54.4813 46.3678 54.5755 45.6749C56.254 45.6749 57.8897 45.6236 59.4911 45.5295C61.2381 45.4354 62.9166 45.2899 64.5437 45.0846H64.5522C64.6379 45.0846 64.7235 45.0761 64.8091 45.059C64.9462 45.7861 65.0147 46.5731 65.0318 47.3943C65.0404 47.5483 65.0404 47.7023 65.0404 47.8563Z" fill="#FBFBFB" stroke="#2C2C2C" stroke-miterlimit="10"/>
<path d="M53.7932 55.8684C53.8948 55.8704 53.9952 55.8841 54.0725 55.8977C54.1102 55.9043 54.1405 55.9108 54.1604 55.9153C54.1703 55.9175 54.1778 55.9192 54.1819 55.9202C54.1831 55.9205 54.1842 55.92 54.1848 55.9202L54.218 55.929C54.2343 55.9355 54.253 55.9429 54.2737 55.9514C54.3626 55.9879 54.4891 56.0421 54.637 56.1116C54.9362 56.2521 55.3083 56.4483 55.6292 56.6809C55.9638 56.9236 56.1758 57.1578 56.2512 57.3528C56.284 57.4376 56.2878 57.5076 56.2717 57.5745C56.2547 57.6449 56.2059 57.7511 56.0706 57.8879C55.3745 58.586 54.9327 58.6849 54.6829 58.6516C54.4211 58.6166 54.1592 58.4118 53.8831 58.012C53.8545 57.9696 53.795 57.8413 53.7288 57.6174C53.6669 57.4082 53.6104 57.156 53.5696 56.9006C53.5285 56.644 53.5056 56.3963 53.5061 56.1956C53.5066 56.0225 53.5249 55.9339 53.5325 55.9036C53.5375 55.9013 53.5443 55.898 53.554 55.8948C53.6056 55.8778 53.6873 55.8664 53.7932 55.8684Z" fill="#FEE888" stroke="#2C2C2C"/>
<path d="M54.3391 45.6799C54.2449 45.6799 54.1421 45.6799 54.0479 45.6713C52.3694 45.6713 50.7338 45.62 49.1323 45.5173C47.411 45.4147 45.7325 45.2693 44.1226 45.064C44.6449 42.2067 46.1693 40.1793 49.4578 40.1793C52.515 40.1793 53.9366 42.4976 54.3391 45.6799Z" stroke="#2C2C2C" stroke-miterlimit="10"/>
<path d="M64.8059 45.064C64.7203 45.0811 64.6346 45.0896 64.549 45.0896H64.5404C62.9133 45.2949 61.2348 45.4404 59.4878 45.5345C57.8864 45.6285 56.2508 45.6799 54.5723 45.6799C54.9919 42.4976 56.4991 40.1793 60.0102 40.1793C62.8705 40.1793 64.3007 42.2067 64.8059 45.064Z" stroke="#2C2C2C" stroke-miterlimit="10"/>
<path d="M65.0776 47.8642C65.0776 48.0096 65.0776 48.155 65.069 48.3005C65.0005 50.4477 64.4011 52.1243 62.2858 52.1243C60.1706 52.1243 59.1943 50.2167 59.1943 47.8642C59.1943 47.0002 59.2885 46.2046 59.5283 45.5374C61.2753 45.4433 62.9538 45.2978 64.5809 45.0925H64.5895C64.8807 45.7256 65.0262 46.5211 65.069 47.4022C65.0776 47.5562 65.0776 47.7102 65.0776 47.8642Z" fill="#2C2C2C"/>
<defs>
<filter id="filter0_d_40000162_3897" x="0.431152" y="0.815796" width="121.081" height="142.368" filterUnits="userSpaceOnUse" color-interpolation-filters="sRGB">
<feFlood flood-opacity="0" result="BackgroundImageFix"/>
<feColorMatrix in="SourceAlpha" type="matrix" values="0 0 0 0 0 0 0 0 0 0 0 0 0 0 0 0 0 0 127 0" result="hardAlpha"/>
<feOffset dx="-1" dy="1"/>
<feGaussianBlur stdDeviation="1"/>
<feComposite in2="hardAlpha" operator="out"/>
<feColorMatrix type="matrix" values="0 0 0 0 0 0 0 0 0 0 0 0 0 0 0 0 0 0 0.25 0"/>
<feBlend mode="normal" in2="BackgroundImageFix" result="effect1_dropShadow_40000162_3897"/>
<feBlend mode="normal" in="SourceGraphic" in2="effect1_dropShadow_40000162_3897" result="shape"/>
</filter>
</defs>
</svg>
