<svg width="151" height="162" viewBox="0 0 151 162" fill="none" xmlns="http://www.w3.org/2000/svg">
<g filter="url(#filter0_g_40000246_4089)">
<g filter="url(#filter1_d_40000246_4089)">
<path d="M66.8985 149.676C55.8085 149.676 45.3265 149.017 37.3879 147.819C31.2306 146.887 19.7638 145.159 19.7638 136.758C19.7638 133.354 21.6821 131.129 23.9429 129.658C23.8316 127.023 24.3539 124.38 25.5443 122.036C27.8394 117.494 32.2069 114.653 37.5078 114.26C37.9703 114.226 38.467 114.209 38.9979 114.209C41.4129 114.209 44.0163 114.568 46.7823 115.278L47.6473 107.262C39.9656 106.595 32.1641 100.607 29.8005 93.3442C29.4322 92.2235 29.2096 91.1029 29.1068 89.9994C25.8869 88.6392 23.0608 86.0472 20.9798 82.4543C17.9226 77.159 16.4496 69.0237 20.0635 62.7789C20.1063 62.7019 20.1492 62.6335 20.192 62.565C18.7105 60.1013 17.9312 57.15 17.9312 53.8907C17.9312 44.6946 23.0694 37.8425 29.0982 35.2162C29.1924 34.087 29.4237 32.9493 29.8005 31.803C32.3096 24.0954 40.9419 17.8249 49.0603 17.8249C50.2421 17.8249 51.3811 17.9532 52.4686 18.2013C55.7057 14.4972 60.9981 12.3158 66.8985 12.3158C72.7989 12.3158 78.0913 14.4972 81.3284 18.2013C82.416 17.9532 83.555 17.8249 84.7368 17.8249C87.8882 17.8249 91.151 18.7488 94.1397 20.4084C98.3873 17.2518 103.56 15.5152 109.015 15.5152C122.803 15.5152 134.012 26.713 134.012 40.4858C134.012 52.3082 125.748 62.2314 114.693 64.8063C115.455 66.7311 115.866 68.8954 115.866 71.2393C115.866 80.4354 110.728 87.2961 104.699 89.9224C104.605 91.0516 104.373 92.1893 103.997 93.3356C101.701 100.393 94.2767 106.236 86.8092 107.185L87.8796 111.976C89.5153 111.232 91.1767 110.641 92.898 110.179C93.3176 110.068 93.78 109.957 94.3281 109.854C95.3386 109.666 96.3235 109.572 97.2912 109.572C104.639 109.572 110.685 115.064 111.678 122.635C112.038 125.372 111.695 127.99 110.779 130.317C112.706 131.831 114.033 133.901 114.033 136.767C114.033 145.167 102.566 146.895 96.4091 147.828C88.4705 149.026 77.9885 149.684 66.8985 149.684V149.676Z" fill="#FBFBFB"/>
<path d="M66.8985 149.676C55.8085 149.676 45.3265 149.017 37.3879 147.819C31.2306 146.887 19.7638 145.159 19.7638 136.758C19.7638 133.354 21.6821 131.129 23.9429 129.658C23.8316 127.023 24.3539 124.38 25.5443 122.036C27.8394 117.494 32.2069 114.653 37.5078 114.26C37.9703 114.226 38.467 114.209 38.9979 114.209C41.4129 114.209 44.0163 114.568 46.7823 115.278L47.6473 107.262C39.9656 106.595 32.1641 100.607 29.8005 93.3442C29.4322 92.2235 29.2096 91.1029 29.1068 89.9994C25.8869 88.6392 23.0608 86.0472 20.9798 82.4543C17.9226 77.159 16.4496 69.0237 20.0635 62.7789C20.1063 62.7019 20.1492 62.6335 20.192 62.565C18.7105 60.1013 17.9312 57.15 17.9312 53.8907C17.9312 44.6946 23.0694 37.8425 29.0982 35.2162C29.1924 34.087 29.4237 32.9493 29.8005 31.803C32.3096 24.0954 40.9419 17.8249 49.0603 17.8249C50.2421 17.8249 51.3811 17.9532 52.4686 18.2013C55.7057 14.4972 60.9981 12.3158 66.8985 12.3158C72.7989 12.3158 78.0913 14.4972 81.3284 18.2013C82.416 17.9532 83.555 17.8249 84.7368 17.8249C87.8882 17.8249 91.151 18.7488 94.1397 20.4084C98.3873 17.2518 103.56 15.5152 109.015 15.5152C122.803 15.5152 134.012 26.713 134.012 40.4858C134.012 52.3082 125.748 62.2314 114.693 64.8063C115.455 66.7311 115.866 68.8954 115.866 71.2393C115.866 80.4354 110.728 87.2961 104.699 89.9224C104.605 91.0516 104.373 92.1893 103.997 93.3356C101.701 100.393 94.2767 106.236 86.8092 107.185L87.8796 111.976C89.5153 111.232 91.1767 110.641 92.898 110.179C93.3176 110.068 93.78 109.957 94.3281 109.854C95.3386 109.666 96.3235 109.572 97.2912 109.572C104.639 109.572 110.685 115.064 111.678 122.635C112.038 125.372 111.695 127.99 110.779 130.317C112.706 131.831 114.033 133.901 114.033 136.767C114.033 145.167 102.566 146.895 96.4091 147.828C88.4705 149.026 77.9885 149.684 66.8985 149.684V149.676Z" stroke="#9C9C9C" stroke-miterlimit="10"/>
</g>
<path d="M109.025 58.5975C119.047 58.5975 127.172 50.4817 127.172 40.4704C127.172 30.4592 119.047 22.3434 109.025 22.3434C99.0034 22.3434 90.8789 30.4592 90.8789 40.4704C90.8789 50.4817 99.0034 58.5975 109.025 58.5975Z" fill="#2C2C2C"/>
<path d="M109.025 58.5975C119.047 58.5975 127.172 50.4817 127.172 40.4704C127.172 30.4592 119.047 22.3434 109.025 22.3434C99.0034 22.3434 90.8789 30.4592 90.8789 40.4704C90.8789 50.4817 99.0034 58.5975 109.025 58.5975Z" fill="#FEE888"/>
<path d="M66.9232 142.833C89.1713 142.833 107.207 140.113 107.207 136.759C107.207 133.405 89.1713 130.685 66.9232 130.685C44.6751 130.685 26.6394 133.405 26.6394 136.759C26.6394 140.113 44.6751 142.833 66.9232 142.833Z" fill="#2C2C2C"/>
<path d="M64.2717 74.6279V131.678C64.2717 134.8 61.7368 137.333 58.6111 137.333H38.9745C28.6894 137.333 27.7902 121.849 38.0496 121.07C38.3664 121.045 38.6919 121.036 39.0259 121.036C43.3334 121.036 48.3004 122.619 52.6936 124.655L58.063 74.6365H64.2717V74.6279Z" fill="#CBCBC5" stroke="#2C2C2C" stroke-miterlimit="10"/>
<path d="M57.0454 127.1C56.1205 126.569 54.0738 125.303 50.1516 123.592L57.0454 127.1Z" fill="#CBCBC5"/>
<path d="M57.0454 127.1C56.1205 126.569 54.0738 125.303 50.1516 123.592" stroke="#2C2C2C" stroke-miterlimit="10" stroke-linecap="round"/>
<path d="M66.9065 78.0133L72.9953 133.549C73.8003 136.569 76.8918 138.365 79.9148 137.561L98.892 132.531C108.834 129.896 105.726 114.704 95.6121 116.569C95.2952 116.628 94.9784 116.697 94.6615 116.782C90.4996 117.886 87.057 119.913 83.3317 123.01L72.9011 76.4222L66.8979 78.0133H66.9065Z" fill="#CBCBC5" stroke="#2C2C2C" stroke-miterlimit="10"/>
<path d="M78.7544 127.225C79.508 126.472 81.1694 124.727 84.5178 122.066L78.7544 127.225Z" fill="#CBCBC5"/>
<path d="M78.7544 127.225C79.508 126.472 81.1694 124.727 84.5178 122.066" stroke="#2C2C2C" stroke-miterlimit="10" stroke-linecap="round"/>
<path d="M79.8933 137.165C79.8933 137.165 96.7724 120.509 100.626 124.376" stroke="#2C2C2C" stroke-miterlimit="10" stroke-linecap="round"/>
<path d="M77.3224 30.439C82.2209 15.3745 51.5285 15.3745 56.427 30.439C51.5285 15.3745 26.6937 33.3903 39.5222 42.7062C26.7023 33.3903 17.2137 62.5527 33.0737 62.5527C17.2137 62.5527 26.7023 91.715 39.5307 82.3991C26.7023 91.715 51.5285 109.731 56.4355 94.6663C51.5371 109.731 82.2295 109.731 77.331 94.6663C82.2295 109.731 107.064 91.715 94.2358 82.3991C107.064 91.715 116.553 62.5527 100.693 62.5527C116.553 62.5527 107.064 33.3903 94.2358 42.7062C107.064 33.3903 82.238 15.3745 77.331 30.439H77.3224Z" fill="#EEEDEB"/>
<path d="M77.3224 30.439C82.2209 15.3745 51.5285 15.3745 56.427 30.439C51.5285 15.3745 26.6937 33.3903 39.5222 42.7062C26.7023 33.3903 17.2137 62.5527 33.0737 62.5527C17.2137 62.5527 26.7023 91.715 39.5307 82.3991C26.7023 91.715 51.5285 109.731 56.4355 94.6663C51.5371 109.731 82.2295 109.731 77.331 94.6663C82.2295 109.731 107.064 91.715 94.2358 82.3991C107.064 91.715 116.553 62.5527 100.693 62.5527C116.553 62.5527 107.064 33.3903 94.2358 42.7062C107.064 33.3903 82.238 15.3745 77.331 30.439H77.3224Z" fill="#EEEDEB" stroke="#2C2C2C" stroke-miterlimit="10"/>
<path d="M57.0679 127.099L50.2854 123.643C54.1391 125.336 56.1515 126.577 57.0679 127.099Z" fill="white" stroke="#2C2C2C" stroke-miterlimit="10"/>
<path d="M57.0679 127.099L50.2854 123.643C54.1391 125.336 56.1515 126.577 57.0679 127.099Z" fill="white" stroke="#2C2C2C" stroke-miterlimit="10" stroke-linecap="round"/>
<path d="M84.3907 122.133L78.6873 127.24C79.398 126.53 80.8967 124.956 83.8426 122.57C84.0225 122.424 84.2023 122.279 84.3907 122.133Z" fill="white" stroke="#2C2C2C" stroke-miterlimit="10"/>
<path d="M84.3907 122.133L78.6873 127.24C79.398 126.53 80.8967 124.956 83.8426 122.57C84.0225 122.424 84.2023 122.279 84.3907 122.133Z" fill="white" stroke="#2C2C2C" stroke-miterlimit="10" stroke-linecap="round"/>
<path d="M69.256 65.4137C69.256 65.4137 72.8459 66.4052 71.3681 67.5231C69.8902 68.6347 69.0097 68.2115 68.4124 67.561C68.1168 67.2326 67.7843 65.9252 68.0429 65.5779C68.3015 65.2305 69.256 65.42 69.256 65.42V65.4137Z" fill="#FEE888" stroke="#2C2C2C" stroke-miterlimit="10"/>
<path d="M68.653 57.4705C68.653 61.7507 67.7007 65.2128 63.617 65.2128C59.7993 65.2128 58.0405 61.7507 58.0405 57.4705C58.0405 56.6696 58.0834 55.8945 58.1864 55.1711C60.417 55.8342 63.3682 55.8859 66.4138 53.6209C66.8599 53.2937 67.3146 52.9061 67.7693 52.4583C68.0525 53.0784 68.2669 53.7759 68.4128 54.5424C68.5758 55.4553 68.653 56.4371 68.653 57.4705Z" fill="#FBFBFB" stroke="#2C2C2C" stroke-miterlimit="10"/>
<path d="M79.2655 57.4705C79.2655 61.7507 78.3218 65.2128 74.2381 65.2128C70.4118 65.2128 68.6531 61.7507 68.6531 57.4705C68.6531 56.4888 68.7217 55.5586 68.8847 54.6974C71.3984 55.4467 74.8129 55.4381 78.2618 52.2258C78.9739 53.6037 79.2655 55.4467 79.2655 57.4705Z" fill="#FBFBFB" stroke="#2C2C2C" stroke-miterlimit="10"/>
<path d="M67.7692 52.4583C67.3145 52.9061 66.8598 53.2936 66.4137 53.6209C63.3681 55.8859 60.4169 55.8342 58.1863 55.1711C58.6324 52.0191 60.1423 49.7368 63.6169 49.7368C65.6845 49.7368 67.0057 50.7961 67.7692 52.4583Z" stroke="#2C2C2C" stroke-miterlimit="10"/>
<path d="M66.2855 61.1309C66.2855 63.4992 65.7621 65.4197 63.4972 65.4197C61.3782 65.4197 60.4001 63.4992 60.4001 61.1309C60.4001 58.7626 61.1208 56.8421 63.4972 56.8421C65.5648 56.8421 66.2855 58.7626 66.2855 61.1309Z" fill="#2C2C2C"/>
<path d="M76.8895 61.1309C76.8895 63.4992 76.3661 65.4197 74.1012 65.4197C71.9822 65.4197 71.0042 63.4992 71.0042 61.1309C71.0042 58.7626 71.7248 56.8421 74.1012 56.8421C76.1688 56.8421 76.8895 58.7626 76.8895 61.1309Z" fill="#2C2C2C"/>
<path d="M78.2618 52.2257C74.813 55.4381 71.3985 55.4467 68.8848 54.6974C69.3995 51.7951 70.9266 49.7368 74.2382 49.7368C76.2028 49.7368 77.4897 50.6928 78.2618 52.2257Z" stroke="#2C2C2C" stroke-miterlimit="10" stroke-linecap="round"/>
<path d="M68.8845 54.6974C68.7214 54.6457 68.567 54.594 68.4126 54.551" stroke="#2C2C2C" stroke-miterlimit="10" stroke-linecap="round"/>
<path d="M57.5688 71.0526C59.2393 71.0526 59.2393 72.9474 60.9003 72.9474C62.5613 72.9474 62.5613 71.0526 64.2317 71.0526C65.9022 71.0526 65.9022 72.9474 67.5632 72.9474C69.2242 72.9474 69.2336 71.0526 70.8946 71.0526C72.5556 71.0526 72.565 72.9474 74.226 72.9474C75.887 72.9474 75.8965 71.0526 77.5669 71.0526C79.2373 71.0526 79.2373 72.9474 80.9078 72.9474" stroke="#2C2C2C" stroke-miterlimit="10" stroke-linecap="round"/>
</g>
<defs>
<filter id="filter0_g_40000246_4089" x="-0.4" y="-0.4" width="151.8" height="162.8" filterUnits="userSpaceOnUse" color-interpolation-filters="sRGB">
<feFlood flood-opacity="0" result="BackgroundImageFix"/>
<feBlend mode="normal" in="SourceGraphic" in2="BackgroundImageFix" result="shape"/>
<feTurbulence type="fractalNoise" baseFrequency="0.66666668653488159 0.66666668653488159" numOctaves="3" seed="7043" />
<feDisplacementMap in="shape" scale="0.80000001192092896" xChannelSelector="R" yChannelSelector="G" result="displacedImage" width="100%" height="100%" />
<feMerge result="effect1_texture_40000246_4089">
<feMergeNode in="displacedImage"/>
</feMerge>
</filter>
<filter id="filter1_d_40000246_4089" x="14.4312" y="10.8158" width="121.081" height="142.368" filterUnits="userSpaceOnUse" color-interpolation-filters="sRGB">
<feFlood flood-opacity="0" result="BackgroundImageFix"/>
<feColorMatrix in="SourceAlpha" type="matrix" values="0 0 0 0 0 0 0 0 0 0 0 0 0 0 0 0 0 0 127 0" result="hardAlpha"/>
<feOffset dx="-1" dy="1"/>
<feGaussianBlur stdDeviation="1"/>
<feComposite in2="hardAlpha" operator="out"/>
<feColorMatrix type="matrix" values="0 0 0 0 0 0 0 0 0 0 0 0 0 0 0 0 0 0 0.25 0"/>
<feBlend mode="normal" in2="BackgroundImageFix" result="effect1_dropShadow_40000246_4089"/>
<feBlend mode="normal" in="SourceGraphic" in2="effect1_dropShadow_40000246_4089" result="shape"/>
</filter>
</defs>
</svg>
