<svg width="122" height="144" viewBox="0 0 122 144" fill="none" xmlns="http://www.w3.org/2000/svg">
<g filter="url(#filter0_d_40000162_3690)">
<path d="M52.8985 139.676C41.8085 139.676 31.3265 139.017 23.3879 137.819C17.2306 136.887 5.76379 135.159 5.76379 126.758C5.76379 123.354 7.68206 121.129 9.94289 119.658C9.83156 117.023 10.3539 114.38 11.5443 112.036C13.8394 107.494 18.2069 104.653 23.5078 104.26C23.9703 104.226 24.467 104.209 24.9979 104.209C27.4129 104.209 30.0163 104.568 32.7823 105.278L33.6473 97.2624C25.9656 96.5951 18.1641 90.607 15.8005 83.3442C15.4322 82.2235 15.2096 81.1029 15.1068 79.9994C11.8869 78.6392 9.06082 76.0472 6.97984 72.4543C3.92259 67.159 2.44963 59.0237 6.06352 52.7789C6.10634 52.7019 6.14916 52.6335 6.19198 52.565C4.71045 50.1013 3.93115 47.15 3.93115 43.8907C3.93115 34.6946 9.06939 27.8425 15.0982 25.2162C15.1924 24.087 15.4237 22.9493 15.8005 21.803C18.3096 14.0954 26.9419 7.8249 35.0603 7.8249C36.2421 7.8249 37.3811 7.95322 38.4686 8.2013C41.7057 4.4972 46.9981 2.3158 52.8985 2.3158C58.7989 2.3158 64.0913 4.4972 67.3284 8.2013C68.416 7.95322 69.555 7.8249 70.7368 7.8249C73.8882 7.8249 77.151 8.74879 80.1397 10.4084C84.3873 7.25175 89.5598 5.51519 95.0149 5.51519C108.803 5.51519 120.012 16.713 120.012 30.4858C120.012 42.3082 111.748 52.2314 100.693 54.8063C101.455 56.7311 101.866 58.8954 101.866 61.2393C101.866 70.4354 96.7277 77.2961 90.6988 79.9224C90.6046 81.0516 90.3734 82.1893 89.9966 83.3356C87.7015 90.3931 80.2767 96.2358 72.8092 97.1854L73.8796 101.976C75.5153 101.232 77.1767 100.641 78.898 100.179C79.3176 100.068 79.78 99.957 80.3281 99.8544C81.3386 99.6662 82.3235 99.5721 83.2912 99.5721C90.6389 99.5721 96.6848 105.064 97.6782 112.635C98.0379 115.372 97.6954 117.99 96.779 120.317C98.7059 121.831 100.033 123.901 100.033 126.767C100.033 135.167 88.5664 136.895 82.4091 137.828C74.4705 139.026 63.9885 139.684 52.8985 139.684V139.676Z" fill="#FBFBFB"/>
<path d="M52.8985 139.676C41.8085 139.676 31.3265 139.017 23.3879 137.819C17.2306 136.887 5.76379 135.159 5.76379 126.758C5.76379 123.354 7.68206 121.129 9.94289 119.658C9.83156 117.023 10.3539 114.38 11.5443 112.036C13.8394 107.494 18.2069 104.653 23.5078 104.26C23.9703 104.226 24.467 104.209 24.9979 104.209C27.4129 104.209 30.0163 104.568 32.7823 105.278L33.6473 97.2624C25.9656 96.5951 18.1641 90.607 15.8005 83.3442C15.4322 82.2235 15.2096 81.1029 15.1068 79.9994C11.8869 78.6392 9.06082 76.0472 6.97984 72.4543C3.92259 67.159 2.44963 59.0237 6.06352 52.7789C6.10634 52.7019 6.14916 52.6335 6.19198 52.565C4.71045 50.1013 3.93115 47.15 3.93115 43.8907C3.93115 34.6946 9.06939 27.8425 15.0982 25.2162C15.1924 24.087 15.4237 22.9493 15.8005 21.803C18.3096 14.0954 26.9419 7.8249 35.0603 7.8249C36.2421 7.8249 37.3811 7.95322 38.4686 8.2013C41.7057 4.4972 46.9981 2.3158 52.8985 2.3158C58.7989 2.3158 64.0913 4.4972 67.3284 8.2013C68.416 7.95322 69.555 7.8249 70.7368 7.8249C73.8882 7.8249 77.151 8.74879 80.1397 10.4084C84.3873 7.25175 89.5598 5.51519 95.0149 5.51519C108.803 5.51519 120.012 16.713 120.012 30.4858C120.012 42.3082 111.748 52.2314 100.693 54.8063C101.455 56.7311 101.866 58.8954 101.866 61.2393C101.866 70.4354 96.7277 77.2961 90.6988 79.9224C90.6046 81.0516 90.3734 82.1893 89.9966 83.3356C87.7015 90.3931 80.2767 96.2358 72.8092 97.1854L73.8796 101.976C75.5153 101.232 77.1767 100.641 78.898 100.179C79.3176 100.068 79.78 99.957 80.3281 99.8544C81.3386 99.6662 82.3235 99.5721 83.2912 99.5721C90.6389 99.5721 96.6848 105.064 97.6782 112.635C98.0379 115.372 97.6954 117.99 96.779 120.317C98.7059 121.831 100.033 123.901 100.033 126.767C100.033 135.167 88.5664 136.895 82.4091 137.828C74.4705 139.026 63.9885 139.684 52.8985 139.684V139.676Z" stroke="#9C9C9C" stroke-miterlimit="10"/>
</g>
<path d="M95.0254 48.5974C105.047 48.5974 113.172 40.4817 113.172 30.4704C113.172 20.4591 105.047 12.3434 95.0254 12.3434C85.0034 12.3434 76.8789 20.4591 76.8789 30.4704C76.8789 40.4817 85.0034 48.5974 95.0254 48.5974Z" fill="#2C2C2C"/>
<path d="M95.0254 48.5974C105.047 48.5974 113.172 40.4817 113.172 30.4704C113.172 20.4591 105.047 12.3434 95.0254 12.3434C85.0034 12.3434 76.8789 20.4591 76.8789 30.4704C76.8789 40.4817 85.0034 48.5974 95.0254 48.5974Z" fill="#FEE888"/>
<path d="M52.9232 132.833C75.1713 132.833 93.2069 130.114 93.2069 126.759C93.2069 123.405 75.1713 120.685 52.9232 120.685C30.6751 120.685 12.6394 123.405 12.6394 126.759C12.6394 130.114 30.6751 132.833 52.9232 132.833Z" fill="#2C2C2C"/>
<path d="M50.2717 64.6279V121.678C50.2717 124.8 47.7368 127.333 44.6111 127.333H24.9745C14.6894 127.333 13.7902 111.849 24.0496 111.07C24.3664 111.045 24.6919 111.036 25.0259 111.036C29.3334 111.036 34.3004 112.619 38.6936 114.655L44.063 64.6365H50.2717V64.6279Z" fill="#CBCBC5" stroke="#2C2C2C" stroke-miterlimit="10"/>
<path d="M43.0454 117.1C42.1205 116.569 40.0738 115.303 36.1516 113.592L43.0454 117.1Z" fill="#CBCBC5"/>
<path d="M43.0454 117.1C42.1205 116.569 40.0738 115.303 36.1516 113.592" stroke="#2C2C2C" stroke-miterlimit="10" stroke-linecap="round"/>
<path d="M52.9065 68.0133L58.9953 123.549C59.8003 126.569 62.8918 128.365 65.9148 127.561L84.892 122.531C94.8345 119.896 91.7259 104.704 81.6121 106.568C81.2952 106.628 80.9784 106.697 80.6615 106.782C76.4996 107.886 73.057 109.913 69.3317 113.01L58.9011 66.4221L52.8979 68.0133H52.9065Z" fill="#CBCBC5" stroke="#2C2C2C" stroke-miterlimit="10"/>
<path d="M64.7544 117.225C65.508 116.472 67.1694 114.727 70.5178 112.066L64.7544 117.225Z" fill="#CBCBC5"/>
<path d="M64.7544 117.225C65.508 116.472 67.1694 114.727 70.5178 112.066" stroke="#2C2C2C" stroke-miterlimit="10" stroke-linecap="round"/>
<path d="M65.8933 127.165C65.8933 127.165 82.7724 110.509 86.6261 114.376" stroke="#2C2C2C" stroke-miterlimit="10" stroke-linecap="round"/>
<path d="M63.3224 20.439C68.2209 5.3745 37.5285 5.3745 42.427 20.439C37.5285 5.3745 12.6937 23.3903 25.5222 32.7062C12.7023 23.3903 3.21367 52.5527 19.0737 52.5527C3.21367 52.5527 12.7023 81.715 25.5307 72.3991C12.7023 81.715 37.5285 99.7308 42.4355 84.6663C37.5371 99.7308 68.2295 99.7308 63.331 84.6663C68.2295 99.7308 93.0642 81.715 80.2358 72.3991C93.0642 81.715 102.553 52.5527 86.6928 52.5527C102.553 52.5527 93.0642 23.3903 80.2358 32.7062C93.0642 23.3903 68.238 5.3745 63.331 20.439H63.3224Z" fill="#EEEDEB"/>
<path d="M63.3224 20.439C68.2209 5.3745 37.5285 5.3745 42.427 20.439C37.5285 5.3745 12.6937 23.3903 25.5222 32.7062C12.7023 23.3903 3.21367 52.5527 19.0737 52.5527C3.21367 52.5527 12.7023 81.715 25.5307 72.3991C12.7023 81.715 37.5285 99.7308 42.4355 84.6663C37.5371 99.7308 68.2295 99.7308 63.331 84.6663C68.2295 99.7308 93.0642 81.715 80.2358 72.3991C93.0642 81.715 102.553 52.5527 86.6928 52.5527C102.553 52.5527 93.0642 23.3903 80.2358 32.7062C93.0642 23.3903 68.238 5.3745 63.331 20.439H63.3224Z" fill="#EEEDEB" stroke="#2C2C2C" stroke-miterlimit="10"/>
<path d="M43.0679 117.099L36.2854 113.643C40.1391 115.336 42.1515 116.577 43.0679 117.099Z" fill="white" stroke="#2C2C2C" stroke-miterlimit="10"/>
<path d="M43.0679 117.099L36.2854 113.643C40.1391 115.336 42.1515 116.577 43.0679 117.099Z" fill="white" stroke="#2C2C2C" stroke-miterlimit="10" stroke-linecap="round"/>
<path d="M70.3907 112.133L64.6873 117.24C65.398 116.53 66.8967 114.956 69.8426 112.57C70.0225 112.424 70.2023 112.279 70.3907 112.133Z" fill="white" stroke="#2C2C2C" stroke-miterlimit="10"/>
<path d="M70.3907 112.133L64.6873 117.24C65.398 116.53 66.8967 114.956 69.8426 112.57C70.0225 112.424 70.2023 112.279 70.3907 112.133Z" fill="white" stroke="#2C2C2C" stroke-miterlimit="10" stroke-linecap="round"/>
<path d="M54.4481 47.8563V48.1386C54.4481 48.3097 54.4395 48.4722 54.4395 48.6433C54.4309 48.8999 54.4138 49.1566 54.3967 49.4047C54.3967 49.4816 54.3881 49.5586 54.3795 49.6356C54.1141 53.0232 52.9152 55.5468 49.4297 55.5468C45.6103 55.5468 43.8547 52.0993 43.8547 47.8563C43.8547 46.8725 43.9232 45.923 44.0945 45.059C45.7045 45.2643 47.383 45.4097 49.1043 45.5123C50.7057 45.615 52.3414 45.6663 54.0199 45.6663C54.1141 45.6749 54.2168 45.6749 54.311 45.6749C54.4052 46.3678 54.4481 47.0949 54.4481 47.8563Z" fill="#FBFBFB" stroke="#2C2C2C" stroke-miterlimit="10"/>
<path d="M49.4563 46.0293C50.8452 46.1117 52.2593 46.1569 53.7043 46.1631C53.8541 46.6353 53.9427 47.1942 53.9739 47.8154L53.9856 48.1475V48.292C53.9856 48.414 53.9849 48.5082 53.9778 48.6074V48.6162L53.9768 48.626C53.9686 48.8725 53.952 49.1209 53.9348 49.3691L53.9338 49.3867V49.4043C53.9338 49.448 53.9289 49.4963 53.9202 49.5752C53.8224 50.3809 53.6135 50.9994 53.2747 51.4102C52.9556 51.7968 52.4782 52.0517 51.7024 52.0518C50.8221 52.0518 50.2016 51.6676 49.7805 51.0293C49.3441 50.3675 49.1106 49.4095 49.1106 48.292C49.1106 47.4104 49.2168 46.6362 49.4563 46.0293Z" fill="#2C2C2C" stroke="#2C2C2C"/>
<path d="M65.0404 47.8563C65.0404 48.0017 65.0404 48.1471 65.0318 48.2926C64.9719 52.3303 63.9528 55.5468 60.0135 55.5468C56.0741 55.5468 54.4385 52.0993 54.4385 47.8563C54.4385 47.0949 54.4813 46.3678 54.5755 45.6749C56.254 45.6749 57.8897 45.6236 59.4911 45.5295C61.2381 45.4354 62.9166 45.2899 64.5437 45.0846H64.5522C64.6379 45.0846 64.7235 45.0761 64.8091 45.059C64.9462 45.7861 65.0147 46.5731 65.0318 47.3943C65.0404 47.5483 65.0404 47.7023 65.0404 47.8563Z" fill="#FBFBFB" stroke="#2C2C2C" stroke-miterlimit="10"/>
<path d="M54.4001 55.8214C54.5639 55.8237 54.7216 55.8395 54.8396 55.8546C54.8978 55.8621 54.9454 55.8689 54.9773 55.8741C54.993 55.8767 55.005 55.8796 55.0125 55.881C55.0161 55.8816 55.0188 55.8817 55.0203 55.882H55.0212L55.0925 55.8956C55.1185 55.9032 55.1492 55.9118 55.1833 55.922C55.3107 55.9601 55.4914 56.0168 55.7019 56.089C56.1266 56.2347 56.6583 56.4407 57.1208 56.6857C57.352 56.8081 57.5562 56.9343 57.7166 57.0616C57.8804 57.1918 57.9746 57.3035 58.0193 57.3878C58.0568 57.4588 58.0528 57.495 58.0427 57.5255C58.0268 57.5733 57.9663 57.6825 57.7566 57.837C56.7878 58.5465 56.0893 58.7122 55.5876 58.6632C55.0892 58.6145 54.6806 58.344 54.3103 57.9523C54.2705 57.9092 54.1917 57.7833 54.1023 57.5626C54.0183 57.3552 53.941 57.1043 53.8855 56.8507C53.8295 56.5953 53.7989 56.3539 53.7996 56.1622C53.8003 55.9442 53.8408 55.8889 53.8259 55.9083C53.8144 55.9234 53.8332 55.8902 53.9607 55.8595C54.0789 55.8311 54.2327 55.819 54.4001 55.8214Z" fill="#FEE888" stroke="#2C2C2C"/>
<path d="M47.6057 63.1021C51.545 65.138 56.2294 65.1637 60.1944 63.1619L60.3143 63.1021" stroke="#2C2C2C" stroke-miterlimit="10" stroke-linecap="round"/>
<path d="M54.3391 45.6799C54.2449 45.6799 54.1421 45.6799 54.0479 45.6713C52.3694 45.6713 50.7338 45.62 49.1323 45.5173C47.411 45.4147 45.7325 45.2693 44.1226 45.064C44.6449 42.2067 46.1693 40.1793 49.4578 40.1793C52.515 40.1793 53.9366 42.4976 54.3391 45.6799Z" stroke="#2C2C2C" stroke-miterlimit="10"/>
<path d="M64.8059 45.064C64.7203 45.0811 64.6346 45.0896 64.549 45.0896H64.5404C62.9133 45.2949 61.2348 45.4404 59.4878 45.5345C57.8864 45.6285 56.2508 45.6799 54.5723 45.6799C54.9919 42.4976 56.4991 40.1793 60.0102 40.1793C62.8705 40.1793 64.3007 42.2067 64.8059 45.064Z" stroke="#2C2C2C" stroke-miterlimit="10"/>
<path d="M64.2646 45.6316C64.4363 46.1312 64.5359 46.7379 64.5693 47.4265V47.4304C64.577 47.5681 64.5771 47.7079 64.5771 47.864C64.5771 48.0119 64.5779 48.1429 64.5703 48.2712H64.5693V48.2849C64.5358 49.3341 64.3722 50.182 64.0195 50.7556C63.6942 51.2847 63.1826 51.6247 62.2861 51.6248C61.4058 51.6248 60.7854 51.2398 60.3643 50.6013C59.9278 49.9395 59.6943 48.9815 59.6943 47.864C59.6943 47.1696 59.7589 46.5459 59.9033 46.0144C61.402 45.9274 62.8521 45.8011 64.2646 45.6316Z" fill="#2C2C2C" stroke="#2C2C2C"/>
<defs>
<filter id="filter0_d_40000162_3690" x="0.431152" y="0.815796" width="121.081" height="142.368" filterUnits="userSpaceOnUse" color-interpolation-filters="sRGB">
<feFlood flood-opacity="0" result="BackgroundImageFix"/>
<feColorMatrix in="SourceAlpha" type="matrix" values="0 0 0 0 0 0 0 0 0 0 0 0 0 0 0 0 0 0 127 0" result="hardAlpha"/>
<feOffset dx="-1" dy="1"/>
<feGaussianBlur stdDeviation="1"/>
<feComposite in2="hardAlpha" operator="out"/>
<feColorMatrix type="matrix" values="0 0 0 0 0 0 0 0 0 0 0 0 0 0 0 0 0 0 0.25 0"/>
<feBlend mode="normal" in2="BackgroundImageFix" result="effect1_dropShadow_40000162_3690"/>
<feBlend mode="normal" in="SourceGraphic" in2="effect1_dropShadow_40000162_3690" result="shape"/>
</filter>
</defs>
</svg>
