<svg width="122" height="144" viewBox="0 0 122 144" fill="none" xmlns="http://www.w3.org/2000/svg">
<g filter="url(#filter0_d_40000162_3695)">
<path d="M52.8985 139.676C41.8085 139.676 31.3265 139.017 23.3879 137.819C17.2306 136.887 5.76379 135.159 5.76379 126.758C5.76379 123.354 7.68206 121.129 9.94289 119.658C9.83156 117.023 10.3539 114.38 11.5443 112.036C13.8394 107.494 18.2069 104.653 23.5078 104.26C23.9703 104.226 24.467 104.209 24.9979 104.209C27.4129 104.209 30.0163 104.568 32.7823 105.278L33.6473 97.2624C25.9656 96.5951 18.1641 90.607 15.8005 83.3442C15.4322 82.2235 15.2096 81.1029 15.1068 79.9994C11.8869 78.6392 9.06082 76.0472 6.97984 72.4543C3.92259 67.159 2.44963 59.0237 6.06352 52.7789C6.10634 52.7019 6.14916 52.6335 6.19198 52.565C4.71045 50.1013 3.93115 47.15 3.93115 43.8907C3.93115 34.6946 9.06939 27.8425 15.0982 25.2162C15.1924 24.087 15.4237 22.9493 15.8005 21.803C18.3096 14.0954 26.9419 7.8249 35.0603 7.8249C36.2421 7.8249 37.3811 7.95322 38.4686 8.2013C41.7057 4.4972 46.9981 2.3158 52.8985 2.3158C58.7989 2.3158 64.0913 4.4972 67.3284 8.2013C68.416 7.95322 69.555 7.8249 70.7368 7.8249C73.8882 7.8249 77.151 8.74879 80.1397 10.4084C84.3873 7.25175 89.5598 5.51519 95.0149 5.51519C108.803 5.51519 120.012 16.713 120.012 30.4858C120.012 42.3082 111.748 52.2314 100.693 54.8063C101.455 56.7311 101.866 58.8954 101.866 61.2393C101.866 70.4354 96.7277 77.2961 90.6988 79.9224C90.6046 81.0516 90.3734 82.1893 89.9966 83.3356C87.7015 90.3931 80.2767 96.2358 72.8092 97.1854L73.8796 101.976C75.5153 101.232 77.1767 100.641 78.898 100.179C79.3176 100.068 79.78 99.957 80.3281 99.8544C81.3386 99.6662 82.3235 99.5721 83.2912 99.5721C90.6389 99.5721 96.6848 105.064 97.6782 112.635C98.0379 115.372 97.6954 117.99 96.779 120.317C98.7059 121.831 100.033 123.901 100.033 126.767C100.033 135.167 88.5664 136.895 82.4091 137.828C74.4705 139.026 63.9885 139.684 52.8985 139.684V139.676Z" fill="#FBFBFB"/>
<path d="M52.8985 139.676C41.8085 139.676 31.3265 139.017 23.3879 137.819C17.2306 136.887 5.76379 135.159 5.76379 126.758C5.76379 123.354 7.68206 121.129 9.94289 119.658C9.83156 117.023 10.3539 114.38 11.5443 112.036C13.8394 107.494 18.2069 104.653 23.5078 104.26C23.9703 104.226 24.467 104.209 24.9979 104.209C27.4129 104.209 30.0163 104.568 32.7823 105.278L33.6473 97.2624C25.9656 96.5951 18.1641 90.607 15.8005 83.3442C15.4322 82.2235 15.2096 81.1029 15.1068 79.9994C11.8869 78.6392 9.06082 76.0472 6.97984 72.4543C3.92259 67.159 2.44963 59.0237 6.06352 52.7789C6.10634 52.7019 6.14916 52.6335 6.19198 52.565C4.71045 50.1013 3.93115 47.15 3.93115 43.8907C3.93115 34.6946 9.06939 27.8425 15.0982 25.2162C15.1924 24.087 15.4237 22.9493 15.8005 21.803C18.3096 14.0954 26.9419 7.8249 35.0603 7.8249C36.2421 7.8249 37.3811 7.95322 38.4686 8.2013C41.7057 4.4972 46.9981 2.3158 52.8985 2.3158C58.7989 2.3158 64.0913 4.4972 67.3284 8.2013C68.416 7.95322 69.555 7.8249 70.7368 7.8249C73.8882 7.8249 77.151 8.74879 80.1397 10.4084C84.3873 7.25175 89.5598 5.51519 95.0149 5.51519C108.803 5.51519 120.012 16.713 120.012 30.4858C120.012 42.3082 111.748 52.2314 100.693 54.8063C101.455 56.7311 101.866 58.8954 101.866 61.2393C101.866 70.4354 96.7277 77.2961 90.6988 79.9224C90.6046 81.0516 90.3734 82.1893 89.9966 83.3356C87.7015 90.3931 80.2767 96.2358 72.8092 97.1854L73.8796 101.976C75.5153 101.232 77.1767 100.641 78.898 100.179C79.3176 100.068 79.78 99.957 80.3281 99.8544C81.3386 99.6662 82.3235 99.5721 83.2912 99.5721C90.6389 99.5721 96.6848 105.064 97.6782 112.635C98.0379 115.372 97.6954 117.99 96.779 120.317C98.7059 121.831 100.033 123.901 100.033 126.767C100.033 135.167 88.5664 136.895 82.4091 137.828C74.4705 139.026 63.9885 139.684 52.8985 139.684V139.676Z" stroke="#9C9C9C" stroke-miterlimit="10"/>
</g>
<path d="M95.0254 48.5974C105.047 48.5974 113.172 40.4817 113.172 30.4704C113.172 20.4591 105.047 12.3434 95.0254 12.3434C85.0034 12.3434 76.8789 20.4591 76.8789 30.4704C76.8789 40.4817 85.0034 48.5974 95.0254 48.5974Z" fill="#2C2C2C"/>
<path d="M95.0254 48.5974C105.047 48.5974 113.172 40.4817 113.172 30.4704C113.172 20.4591 105.047 12.3434 95.0254 12.3434C85.0034 12.3434 76.8789 20.4591 76.8789 30.4704C76.8789 40.4817 85.0034 48.5974 95.0254 48.5974Z" fill="#FEE888"/>
<path d="M52.9232 132.833C75.1713 132.833 93.2069 130.114 93.2069 126.759C93.2069 123.405 75.1713 120.685 52.9232 120.685C30.6751 120.685 12.6394 123.405 12.6394 126.759C12.6394 130.114 30.6751 132.833 52.9232 132.833Z" fill="#2C2C2C"/>
<path d="M50.2717 64.6279V121.678C50.2717 124.8 47.7368 127.333 44.6111 127.333H24.9745C14.6894 127.333 13.7902 111.849 24.0496 111.07C24.3664 111.045 24.6919 111.036 25.0259 111.036C29.3334 111.036 34.3004 112.619 38.6936 114.655L44.063 64.6365H50.2717V64.6279Z" fill="#CBCBC5" stroke="#2C2C2C" stroke-miterlimit="10"/>
<path d="M43.0454 117.1C42.1205 116.569 40.0738 115.303 36.1516 113.592L43.0454 117.1Z" fill="#CBCBC5"/>
<path d="M43.0454 117.1C42.1205 116.569 40.0738 115.303 36.1516 113.592" stroke="#2C2C2C" stroke-miterlimit="10" stroke-linecap="round"/>
<path d="M52.9065 68.0133L58.9953 123.549C59.8003 126.569 62.8918 128.365 65.9148 127.561L84.892 122.531C94.8345 119.896 91.7259 104.704 81.6121 106.568C81.2952 106.628 80.9784 106.697 80.6615 106.782C76.4996 107.886 73.057 109.913 69.3317 113.01L58.9011 66.4221L52.8979 68.0133H52.9065Z" fill="#CBCBC5" stroke="#2C2C2C" stroke-miterlimit="10"/>
<path d="M64.7544 117.225C65.508 116.472 67.1694 114.727 70.5178 112.066L64.7544 117.225Z" fill="#CBCBC5"/>
<path d="M64.7544 117.225C65.508 116.472 67.1694 114.727 70.5178 112.066" stroke="#2C2C2C" stroke-miterlimit="10" stroke-linecap="round"/>
<path d="M65.8933 127.165C65.8933 127.165 82.7724 110.509 86.6261 114.376" stroke="#2C2C2C" stroke-miterlimit="10" stroke-linecap="round"/>
<path d="M63.3224 20.439C68.2209 5.3745 37.5285 5.3745 42.427 20.439C37.5285 5.3745 12.6937 23.3903 25.5222 32.7062C12.7023 23.3903 3.21367 52.5527 19.0737 52.5527C3.21367 52.5527 12.7023 81.715 25.5307 72.3991C12.7023 81.715 37.5285 99.7308 42.4355 84.6663C37.5371 99.7308 68.2295 99.7308 63.331 84.6663C68.2295 99.7308 93.0642 81.715 80.2358 72.3991C93.0642 81.715 102.553 52.5527 86.6928 52.5527C102.553 52.5527 93.0642 23.3903 80.2358 32.7062C93.0642 23.3903 68.238 5.3745 63.331 20.439H63.3224Z" fill="#EEEDEB"/>
<path d="M63.3224 20.439C68.2209 5.3745 37.5285 5.3745 42.427 20.439C37.5285 5.3745 12.6937 23.3903 25.5222 32.7062C12.7023 23.3903 3.21367 52.5527 19.0737 52.5527C3.21367 52.5527 12.7023 81.715 25.5307 72.3991C12.7023 81.715 37.5285 99.7308 42.4355 84.6663C37.5371 99.7308 68.2295 99.7308 63.331 84.6663C68.2295 99.7308 93.0642 81.715 80.2358 72.3991C93.0642 81.715 102.553 52.5527 86.6928 52.5527C102.553 52.5527 93.0642 23.3903 80.2358 32.7062C93.0642 23.3903 68.238 5.3745 63.331 20.439H63.3224Z" fill="#EEEDEB" stroke="#2C2C2C" stroke-miterlimit="10"/>
<path d="M43.0679 117.099L36.2854 113.643C40.1391 115.336 42.1515 116.577 43.0679 117.099Z" fill="white" stroke="#2C2C2C" stroke-miterlimit="10"/>
<path d="M43.0679 117.099L36.2854 113.643C40.1391 115.336 42.1515 116.577 43.0679 117.099Z" fill="white" stroke="#2C2C2C" stroke-miterlimit="10" stroke-linecap="round"/>
<path d="M70.3907 112.133L64.6873 117.24C65.398 116.53 66.8967 114.956 69.8426 112.57C70.0225 112.424 70.2023 112.279 70.3907 112.133Z" fill="white" stroke="#2C2C2C" stroke-miterlimit="10"/>
<path d="M70.3907 112.133L64.6873 117.24C65.398 116.53 66.8967 114.956 69.8426 112.57C70.0225 112.424 70.2023 112.279 70.3907 112.133Z" fill="white" stroke="#2C2C2C" stroke-miterlimit="10" stroke-linecap="round"/>
<path d="M47.9211 61.9927C47.8139 61.943 47.7068 61.8934 47.5996 61.8354" stroke="#2C2C2C" stroke-miterlimit="10" stroke-linecap="round"/>
<path d="M59.5103 61.9927C59.5844 61.9596 59.6504 61.9265 59.7163 61.8934L59.8317 61.8354" stroke="#2C2C2C" stroke-miterlimit="10" stroke-linecap="round"/>
<path d="M59.5349 62.2988C59.5349 64.7563 56.9302 66.7504 53.7156 66.7504C50.5009 66.7504 47.8962 64.7563 47.8962 62.2988C47.8962 62.1995 47.9045 62.092 47.921 61.9927C51.5807 63.7799 55.8587 63.7799 59.5102 61.9927C59.5267 62.092 59.5349 62.1995 59.5349 62.2988Z" stroke="#2C2C2C" stroke-miterlimit="10" stroke-linecap="round"/>
<path d="M64.3817 48.0546C64.3817 48.1952 64.3817 48.3359 64.3735 48.4766C64.3158 52.382 63.3349 55.4932 59.5432 55.4932C55.7516 55.4932 54.1772 52.1586 54.1772 48.0546C54.1772 47.3182 54.2185 46.6148 54.3091 45.9446C55.9247 45.9446 57.4991 45.895 59.0404 45.804C60.7219 45.7129 62.3375 45.5723 63.9036 45.3737H63.9119C63.9943 45.3737 64.0767 45.3654 64.1591 45.3489C64.291 46.0522 64.357 46.8134 64.3735 47.6078C64.3817 47.7567 64.3817 47.9056 64.3817 48.0546Z" fill="#FBFBFB" stroke="#2C2C2C" stroke-miterlimit="10"/>
<path d="M54.1769 48.0546V48.3276C54.1769 48.4931 54.1687 48.6503 54.1687 48.8158C54.1604 49.064 54.144 49.3123 54.1275 49.5522C54.1275 49.6267 54.1192 49.7012 54.111 49.7756C53.8555 53.0522 52.7015 55.4932 49.3467 55.4932C45.6705 55.4932 43.9807 52.1586 43.9807 48.0546C43.9807 47.103 44.0467 46.1846 44.2115 45.3489C45.7611 45.5475 47.3767 45.6881 49.0335 45.7874C50.5749 45.8867 52.1492 45.9364 53.7648 45.9364C53.8555 45.9446 53.9544 45.9446 54.045 45.9446C54.1357 46.6148 54.1769 47.3182 54.1769 48.0546Z" fill="#FBFBFB" stroke="#2C2C2C" stroke-miterlimit="10"/>
<path d="M64.3817 48.0545C64.3817 48.1952 64.3817 48.3359 64.3735 48.4765C64.3075 50.5534 63.7306 52.1751 61.6946 52.1751C59.6587 52.1751 58.719 50.33 58.719 48.0545C58.719 47.2188 58.8097 46.4493 59.0405 45.8039C60.722 45.7129 62.3375 45.5722 63.9036 45.3737H63.9119C64.1921 45.986 64.3323 46.7555 64.3735 47.6077C64.3817 47.7567 64.3817 47.9056 64.3817 48.0545Z" fill="#2C2C2C"/>
<path d="M54.3124 55.4137C54.3124 55.4137 57.9023 56.4052 56.4245 57.5231C54.9466 58.6347 54.0661 58.2115 53.4688 57.561C53.1732 57.2326 52.8407 55.9252 53.0993 55.5779C53.3579 55.2305 54.3124 55.42 54.3124 55.42V55.4137Z" fill="#FEE888" stroke="#2C2C2C" stroke-miterlimit="10"/>
<path d="M54.0452 45.9445C53.9545 45.9445 53.8556 45.9445 53.765 45.9362C52.1494 45.9362 50.575 45.8866 49.0336 45.7873C47.3769 45.688 45.7613 45.5474 44.2117 45.3488C44.7145 42.5852 46.1817 40.6241 49.3469 40.6241C52.2895 40.6241 53.6578 42.8665 54.0452 45.9445Z" stroke="#2C2C2C" stroke-miterlimit="10"/>
<path d="M64.1591 45.3488C64.0767 45.3653 63.9942 45.3736 63.9118 45.3736H63.9036C62.3375 45.5722 60.7219 45.7128 59.0404 45.8039C57.499 45.8949 55.9246 45.9445 54.3091 45.9445C54.713 42.8665 56.1637 40.6241 59.5432 40.6241C62.2963 40.6241 63.6728 42.5852 64.1591 45.3488Z" stroke="#2C2C2C" stroke-miterlimit="10"/>
<path d="M49.2892 46.6148C50.9213 46.5486 52.9737 47.285 53.6414 49.1715C53.6744 49.2626 53.6002 49.3536 53.5013 49.3536C52.8171 49.337 51.4653 49.155 49.281 51.2484" stroke="#2C2C2C" stroke-miterlimit="10" stroke-linecap="round"/>
<defs>
<filter id="filter0_d_40000162_3695" x="0.431152" y="0.815796" width="121.081" height="142.368" filterUnits="userSpaceOnUse" color-interpolation-filters="sRGB">
<feFlood flood-opacity="0" result="BackgroundImageFix"/>
<feColorMatrix in="SourceAlpha" type="matrix" values="0 0 0 0 0 0 0 0 0 0 0 0 0 0 0 0 0 0 127 0" result="hardAlpha"/>
<feOffset dx="-1" dy="1"/>
<feGaussianBlur stdDeviation="1"/>
<feComposite in2="hardAlpha" operator="out"/>
<feColorMatrix type="matrix" values="0 0 0 0 0 0 0 0 0 0 0 0 0 0 0 0 0 0 0.25 0"/>
<feBlend mode="normal" in2="BackgroundImageFix" result="effect1_dropShadow_40000162_3695"/>
<feBlend mode="normal" in="SourceGraphic" in2="effect1_dropShadow_40000162_3695" result="shape"/>
</filter>
</defs>
</svg>
