<svg width="46" height="98" viewBox="0 0 46 98" fill="none" xmlns="http://www.w3.org/2000/svg">
<rect x="10.8652" y="46.5" width="24.7539" height="50.9916" fill="#EEEDEB" stroke="#9C9C9C"/>
<path d="M42.4831 63.0818H4.52041C3.0133 63.0818 1.83007 61.5559 2.02008 59.8263C3.39764 47.5108 12.4921 38 23.4996 38C34.5071 38 43.6016 47.5108 44.9791 59.8263C45.1734 61.5559 43.9859 63.0818 42.4788 63.0818H42.4831Z" fill="#EEEDEB" stroke="#9C9C9C" stroke-miterlimit="10"/>
<path d="M28.8412 49.7775C28.8412 51.9276 28.3619 53.6703 26.3064 53.6703C24.3804 53.6703 23.4951 51.9276 23.4951 49.7775C23.4951 47.6274 24.1472 45.8848 26.3064 45.8848C28.1849 45.8848 28.8412 47.6274 28.8412 49.7775Z" fill="#FBFBFB" stroke="#2C2C2C" stroke-miterlimit="10"/>
<path d="M23.4994 49.7775C23.4994 51.9276 23.0201 53.6703 20.9646 53.6703C19.0386 53.6703 18.1533 51.9276 18.1533 49.7775C18.1533 47.6274 18.8054 45.8848 20.9646 45.8848C22.8431 45.8848 23.4994 47.6274 23.4994 49.7775Z" fill="#FBFBFB" stroke="#2C2C2C" stroke-miterlimit="10"/>
<path d="M23.4995 49.8863C23.4995 51.0784 23.2361 52.0451 22.096 52.0451C21.0294 52.0451 20.5371 51.0784 20.5371 49.8863C20.5371 48.6942 20.8999 47.7275 22.096 47.7275C23.1368 47.7275 23.4995 48.6942 23.4995 49.8863Z" fill="#2C2C2C"/>
<path d="M28.8413 49.8863C28.8413 51.0784 28.5779 52.0451 27.4378 52.0451C26.3712 52.0451 25.8789 51.0784 25.8789 49.8863C25.8789 48.6942 26.2417 47.7275 27.4378 47.7275C28.4786 47.7275 28.8413 48.6942 28.8413 49.8863Z" fill="#2C2C2C"/>
<mask id="path-7-inside-1_40001168_14254" fill="white">
<path d="M23.5128 53.502C23.5128 53.502 22.9902 53.5496 22.9902 54.0265C22.9902 54.5033 23.3616 54.5727 23.5343 54.5727C23.7071 54.5727 24.0094 54.2562 24.0094 53.9701C24.0094 53.684 23.7114 53.5063 23.5128 53.5063V53.502Z"/>
</mask>
<path d="M23.5128 53.502C23.5128 53.502 22.9902 53.5496 22.9902 54.0265C22.9902 54.5033 23.3616 54.5727 23.5343 54.5727C23.7071 54.5727 24.0094 54.2562 24.0094 53.9701C24.0094 53.684 23.7114 53.5063 23.5128 53.5063V53.502Z" fill="#EEEDEB"/>
<path d="M23.5128 53.502H24.5128V52.4065L23.4219 52.5061L23.5128 53.502ZM23.5128 53.5063H22.5128V54.5063H23.5128V53.5063ZM23.5128 53.502C23.4219 52.5061 23.4214 52.5061 23.421 52.5062C23.4208 52.5062 23.4204 52.5062 23.4201 52.5063C23.4195 52.5063 23.4189 52.5064 23.4182 52.5064C23.417 52.5065 23.4157 52.5067 23.4143 52.5068C23.4117 52.5071 23.4089 52.5074 23.4059 52.5077C23.3999 52.5083 23.3933 52.5091 23.3861 52.5099C23.3717 52.5117 23.3548 52.514 23.3357 52.517C23.2978 52.5229 23.2498 52.5318 23.1947 52.5452C23.0885 52.5711 22.935 52.6186 22.7712 52.7083C22.4141 52.9038 21.9902 53.3267 21.9902 54.0265H22.9902H23.9902C23.9902 54.1022 23.9656 54.2081 23.8969 54.3084C23.8352 54.3985 23.7658 54.4439 23.7318 54.4625C23.6987 54.4806 23.6758 54.4865 23.6676 54.4885C23.6614 54.49 23.6542 54.4915 23.6449 54.4929C23.6401 54.4937 23.6344 54.4945 23.6277 54.4953C23.6243 54.4957 23.6206 54.4961 23.6166 54.4965C23.6146 54.4967 23.6126 54.497 23.6104 54.4972C23.6093 54.4973 23.6082 54.4974 23.6071 54.4975C23.6065 54.4975 23.606 54.4976 23.6054 54.4977C23.6051 54.4977 23.6047 54.4977 23.6045 54.4977C23.6041 54.4978 23.6036 54.4978 23.5128 53.502ZM22.9902 54.0265H21.9902C21.9902 54.5705 22.2269 55.0308 22.6395 55.3083C22.9853 55.5407 23.348 55.5727 23.5343 55.5727V54.5727V53.5727C23.554 53.5727 23.5771 53.5743 23.6062 53.5811C23.6351 53.588 23.6907 53.6049 23.7555 53.6485C23.8262 53.696 23.8952 53.7672 23.9418 53.8587C23.9871 53.9476 23.9902 54.0142 23.9902 54.0265H22.9902ZM23.5343 54.5727V55.5727C23.8543 55.5727 24.0993 55.4397 24.2256 55.3577C24.373 55.2621 24.4988 55.1443 24.6001 55.0245C24.7832 54.8081 25.0094 54.4358 25.0094 53.9701H24.0094H23.0094C23.0094 53.8693 23.0347 53.8035 23.0455 53.7791C23.0572 53.7527 23.0676 53.7394 23.0731 53.7329C23.0773 53.7279 23.0951 53.7071 23.1373 53.6798C23.1592 53.6656 23.1988 53.6424 23.2561 53.6211C23.3111 53.6007 23.4074 53.5727 23.5343 53.5727V54.5727ZM24.0094 53.9701H25.0094C25.0094 53.4501 24.7331 53.0704 24.4638 52.8529C24.2115 52.6492 23.8708 52.5063 23.5128 52.5063V53.5063V54.5063C23.4207 54.5063 23.3562 54.4874 23.3204 54.4739C23.2813 54.4591 23.2438 54.4384 23.2073 54.409C23.1366 54.3519 23.0094 54.204 23.0094 53.9701H24.0094ZM23.5128 53.5063H24.5128V53.502H23.5128H22.5128V53.5063H23.5128Z" fill="#2C2C2C" mask="url(#path-7-inside-1_40001168_14254)"/>
<path d="M17.2812 45.27C17.2812 45.27 18.0197 43.1719 20.235 43.8481" stroke="#2C2C2C" stroke-miterlimit="10" stroke-linecap="round"/>
</svg>
