<svg width="46" height="98" viewBox="0 0 46 98" fill="none" xmlns="http://www.w3.org/2000/svg">
<rect x="10.8652" y="24.5" width="24.7539" height="72.9916" fill="#A7E1B6" stroke="#2C2C2C"/>
<path d="M42.4831 26.0818H4.52041C3.0133 26.0818 1.83007 24.5559 2.02008 22.8263C3.39764 10.5108 12.4921 1 23.4996 1C34.5071 1 43.6016 10.5108 44.9791 22.8263C45.1734 24.5559 43.9859 26.0818 42.4788 26.0818H42.4831Z" fill="#A7E1B6" stroke="#2C2C2C" stroke-miterlimit="10"/>
<path d="M28.8412 12.7775C28.8412 14.9276 28.3619 16.6703 26.3064 16.6703C24.3804 16.6703 23.4951 14.9276 23.4951 12.7775C23.4951 10.6274 24.1472 8.88477 26.3064 8.88477C28.1849 8.88477 28.8412 10.6274 28.8412 12.7775Z" fill="#FBFBFB" stroke="#2C2C2C" stroke-miterlimit="10"/>
<path d="M23.4994 12.7775C23.4994 14.9276 23.0201 16.6703 20.9646 16.6703C19.0386 16.6703 18.1533 14.9276 18.1533 12.7775C18.1533 10.6274 18.8054 8.88477 20.9646 8.88477C22.8431 8.88477 23.4994 10.6274 23.4994 12.7775Z" fill="#FBFBFB" stroke="#2C2C2C" stroke-miterlimit="10"/>
<path d="M23.4995 12.8863C23.4995 14.0784 23.2361 15.0451 22.096 15.0451C21.0294 15.0451 20.5371 14.0784 20.5371 12.8863C20.5371 11.6942 20.8999 10.7275 22.096 10.7275C23.1368 10.7275 23.4995 11.6942 23.4995 12.8863Z" fill="#2C2C2C"/>
<path d="M28.8413 12.8863C28.8413 14.0784 28.5779 15.0451 27.4378 15.0451C26.3712 15.0451 25.8789 14.0784 25.8789 12.8863C25.8789 11.6942 26.2417 10.7275 27.4378 10.7275C28.4786 10.7275 28.8413 11.6942 28.8413 12.8863Z" fill="#2C2C2C"/>
<mask id="path-7-inside-1_40001168_14256" fill="white">
<path d="M23.5128 16.502C23.5128 16.502 22.9902 16.5496 22.9902 17.0265C22.9902 17.5033 23.3616 17.5727 23.5343 17.5727C23.7071 17.5727 24.0094 17.2562 24.0094 16.9701C24.0094 16.684 23.7114 16.5063 23.5128 16.5063V16.502Z"/>
</mask>
<path d="M23.5128 16.502C23.5128 16.502 22.9902 16.5496 22.9902 17.0265C22.9902 17.5033 23.3616 17.5727 23.5343 17.5727C23.7071 17.5727 24.0094 17.2562 24.0094 16.9701C24.0094 16.684 23.7114 16.5063 23.5128 16.5063V16.502Z" fill="#A7E1B6"/>
<path d="M23.5128 16.502H24.5128V15.4065L23.4219 15.5061L23.5128 16.502ZM23.5128 16.5063H22.5128V17.5063H23.5128V16.5063ZM23.5128 16.502C23.4219 15.5061 23.4214 15.5061 23.421 15.5062C23.4208 15.5062 23.4204 15.5062 23.4201 15.5063C23.4195 15.5063 23.4189 15.5064 23.4182 15.5064C23.417 15.5065 23.4157 15.5067 23.4143 15.5068C23.4117 15.5071 23.4089 15.5074 23.4059 15.5077C23.3999 15.5083 23.3933 15.5091 23.3861 15.5099C23.3717 15.5117 23.3548 15.514 23.3357 15.517C23.2978 15.5229 23.2498 15.5318 23.1947 15.5452C23.0885 15.5711 22.935 15.6186 22.7712 15.7083C22.4141 15.9038 21.9902 16.3267 21.9902 17.0265H22.9902H23.9902C23.9902 17.1022 23.9656 17.2081 23.8969 17.3084C23.8352 17.3985 23.7658 17.4439 23.7318 17.4625C23.6987 17.4806 23.6758 17.4865 23.6676 17.4885C23.6614 17.49 23.6542 17.4915 23.6449 17.4929C23.6401 17.4937 23.6344 17.4945 23.6277 17.4953C23.6243 17.4957 23.6206 17.4961 23.6166 17.4965C23.6146 17.4967 23.6126 17.497 23.6104 17.4972C23.6093 17.4973 23.6082 17.4974 23.6071 17.4975C23.6065 17.4975 23.606 17.4976 23.6054 17.4977C23.6051 17.4977 23.6047 17.4977 23.6045 17.4977C23.6041 17.4978 23.6036 17.4978 23.5128 16.502ZM22.9902 17.0265H21.9902C21.9902 17.5705 22.2269 18.0308 22.6395 18.3083C22.9853 18.5407 23.348 18.5727 23.5343 18.5727V17.5727V16.5727C23.554 16.5727 23.5771 16.5743 23.6062 16.5811C23.6351 16.588 23.6907 16.6049 23.7555 16.6485C23.8262 16.696 23.8952 16.7672 23.9418 16.8587C23.9871 16.9476 23.9902 17.0142 23.9902 17.0265H22.9902ZM23.5343 17.5727V18.5727C23.8543 18.5727 24.0993 18.4397 24.2256 18.3577C24.373 18.2621 24.4988 18.1443 24.6001 18.0245C24.7832 17.8081 25.0094 17.4358 25.0094 16.9701H24.0094H23.0094C23.0094 16.8693 23.0347 16.8035 23.0455 16.7791C23.0572 16.7527 23.0676 16.7394 23.0731 16.7329C23.0773 16.7279 23.0951 16.7071 23.1373 16.6798C23.1592 16.6656 23.1988 16.6424 23.2561 16.6211C23.3111 16.6007 23.4074 16.5727 23.5343 16.5727V17.5727ZM24.0094 16.9701H25.0094C25.0094 16.4501 24.7331 16.0704 24.4638 15.8529C24.2115 15.6492 23.8708 15.5063 23.5128 15.5063V16.5063V17.5063C23.4207 17.5063 23.3562 17.4874 23.3204 17.4739C23.2813 17.4591 23.2438 17.4384 23.2073 17.409C23.1366 17.3519 23.0094 17.204 23.0094 16.9701H24.0094ZM23.5128 16.5063H24.5128V16.502H23.5128H22.5128V16.5063H23.5128Z" fill="#2C2C2C" mask="url(#path-7-inside-1_40001168_14256)"/>
<path d="M17.2812 8.26999C17.2812 8.26999 18.0197 6.17189 20.235 6.84814" stroke="#2C2C2C" stroke-miterlimit="10" stroke-linecap="round"/>
</svg>
