<svg width="46" height="98" viewBox="0 0 46 98" fill="none" xmlns="http://www.w3.org/2000/svg">
<rect x="10.8652" y="24.5" width="24.7539" height="72.9916" fill="#EEEDEB" stroke="#9C9C9C"/>
<path d="M42.4831 44.0818H4.52041C3.0133 44.0818 1.83007 42.5559 2.02008 40.8263C3.39764 28.5108 12.4921 19 23.4996 19C34.5071 19 43.6016 28.5108 44.9791 40.8263C45.1734 42.5559 43.9859 44.0818 42.4788 44.0818H42.4831Z" fill="#EEEDEB" stroke="#9C9C9C" stroke-miterlimit="10"/>
<path d="M28.8412 30.7775C28.8412 32.9276 28.3619 34.6703 26.3064 34.6703C24.3804 34.6703 23.4951 32.9276 23.4951 30.7775C23.4951 28.6274 24.1472 26.8848 26.3064 26.8848C28.1849 26.8848 28.8412 28.6274 28.8412 30.7775Z" fill="#FBFBFB" stroke="#2C2C2C" stroke-miterlimit="10"/>
<path d="M23.4994 30.7775C23.4994 32.9276 23.0201 34.6703 20.9646 34.6703C19.0386 34.6703 18.1533 32.9276 18.1533 30.7775C18.1533 28.6274 18.8054 26.8848 20.9646 26.8848C22.8431 26.8848 23.4994 28.6274 23.4994 30.7775Z" fill="#FBFBFB" stroke="#2C2C2C" stroke-miterlimit="10"/>
<path d="M23.4995 30.8863C23.4995 32.0784 23.2361 33.0451 22.096 33.0451C21.0294 33.0451 20.5371 32.0784 20.5371 30.8863C20.5371 29.6942 20.8999 28.7275 22.096 28.7275C23.1368 28.7275 23.4995 29.6942 23.4995 30.8863Z" fill="#2C2C2C"/>
<path d="M28.8413 30.8863C28.8413 32.0784 28.5779 33.0451 27.4378 33.0451C26.3712 33.0451 25.8789 32.0784 25.8789 30.8863C25.8789 29.6942 26.2417 28.7275 27.4378 28.7275C28.4786 28.7275 28.8413 29.6942 28.8413 30.8863Z" fill="#2C2C2C"/>
<mask id="path-7-inside-1_40001168_14255" fill="white">
<path d="M23.5128 34.502C23.5128 34.502 22.9902 34.5496 22.9902 35.0265C22.9902 35.5033 23.3616 35.5727 23.5343 35.5727C23.7071 35.5727 24.0094 35.2562 24.0094 34.9701C24.0094 34.684 23.7114 34.5063 23.5128 34.5063V34.502Z"/>
</mask>
<path d="M23.5128 34.502C23.5128 34.502 22.9902 34.5496 22.9902 35.0265C22.9902 35.5033 23.3616 35.5727 23.5343 35.5727C23.7071 35.5727 24.0094 35.2562 24.0094 34.9701C24.0094 34.684 23.7114 34.5063 23.5128 34.5063V34.502Z" fill="#EEEDEB"/>
<path d="M23.5128 34.502H24.5128V33.4065L23.4219 33.5061L23.5128 34.502ZM23.5128 34.5063H22.5128V35.5063H23.5128V34.5063ZM23.5128 34.502C23.4219 33.5061 23.4214 33.5061 23.421 33.5062C23.4208 33.5062 23.4204 33.5062 23.4201 33.5063C23.4195 33.5063 23.4189 33.5064 23.4182 33.5064C23.417 33.5065 23.4157 33.5067 23.4143 33.5068C23.4117 33.5071 23.4089 33.5074 23.4059 33.5077C23.3999 33.5083 23.3933 33.5091 23.3861 33.5099C23.3717 33.5117 23.3548 33.514 23.3357 33.517C23.2978 33.5229 23.2498 33.5318 23.1947 33.5452C23.0885 33.5711 22.935 33.6186 22.7712 33.7083C22.4141 33.9038 21.9902 34.3267 21.9902 35.0265H22.9902H23.9902C23.9902 35.1022 23.9656 35.2081 23.8969 35.3084C23.8352 35.3985 23.7658 35.4439 23.7318 35.4625C23.6987 35.4806 23.6758 35.4865 23.6676 35.4885C23.6614 35.49 23.6542 35.4915 23.6449 35.4929C23.6401 35.4937 23.6344 35.4945 23.6277 35.4953C23.6243 35.4957 23.6206 35.4961 23.6166 35.4965C23.6146 35.4967 23.6126 35.497 23.6104 35.4972C23.6093 35.4973 23.6082 35.4974 23.6071 35.4975C23.6065 35.4975 23.606 35.4976 23.6054 35.4977C23.6051 35.4977 23.6047 35.4977 23.6045 35.4977C23.6041 35.4978 23.6036 35.4978 23.5128 34.502ZM22.9902 35.0265H21.9902C21.9902 35.5705 22.2269 36.0308 22.6395 36.3083C22.9853 36.5407 23.348 36.5727 23.5343 36.5727V35.5727V34.5727C23.554 34.5727 23.5771 34.5743 23.6062 34.5811C23.6351 34.588 23.6907 34.6049 23.7555 34.6485C23.8262 34.696 23.8952 34.7672 23.9418 34.8587C23.9871 34.9476 23.9902 35.0142 23.9902 35.0265H22.9902ZM23.5343 35.5727V36.5727C23.8543 36.5727 24.0993 36.4397 24.2256 36.3577C24.373 36.2621 24.4988 36.1443 24.6001 36.0245C24.7832 35.8081 25.0094 35.4358 25.0094 34.9701H24.0094H23.0094C23.0094 34.8693 23.0347 34.8035 23.0455 34.7791C23.0572 34.7527 23.0676 34.7394 23.0731 34.7329C23.0773 34.7279 23.0951 34.7071 23.1373 34.6798C23.1592 34.6656 23.1988 34.6424 23.2561 34.6211C23.3111 34.6007 23.4074 34.5727 23.5343 34.5727V35.5727ZM24.0094 34.9701H25.0094C25.0094 34.4501 24.7331 34.0704 24.4638 33.8529C24.2115 33.6492 23.8708 33.5063 23.5128 33.5063V34.5063V35.5063C23.4207 35.5063 23.3562 35.4874 23.3204 35.4739C23.2813 35.4591 23.2438 35.4384 23.2073 35.409C23.1366 35.3519 23.0094 35.204 23.0094 34.9701H24.0094ZM23.5128 34.5063H24.5128V34.502H23.5128H22.5128V34.5063H23.5128Z" fill="#2C2C2C" mask="url(#path-7-inside-1_40001168_14255)"/>
<path d="M17.2812 26.27C17.2812 26.27 18.0197 24.1719 20.235 24.8481" stroke="#2C2C2C" stroke-miterlimit="10" stroke-linecap="round"/>
</svg>
