<svg width="46" height="98" viewBox="0 0 46 98" fill="none" xmlns="http://www.w3.org/2000/svg">
<path d="M42.4831 97.0818H4.52041C3.0133 97.0818 1.83007 95.5559 2.02008 93.8263C3.39764 81.5108 12.4921 72 23.4996 72C34.5071 72 43.6016 81.5108 44.9791 93.8263C45.1734 95.5559 43.9859 97.0818 42.4788 97.0818H42.4831Z" fill="#EEEDEB" stroke="#9C9C9C" stroke-miterlimit="10"/>
<path d="M28.8412 83.7775C28.8412 85.9276 28.3619 87.6703 26.3064 87.6703C24.3804 87.6703 23.4951 85.9276 23.4951 83.7775C23.4951 81.6274 24.1472 79.8848 26.3064 79.8848C28.1849 79.8848 28.8412 81.6274 28.8412 83.7775Z" fill="#FBFBFB" stroke="#2C2C2C" stroke-miterlimit="10"/>
<path d="M23.4994 83.7775C23.4994 85.9276 23.0201 87.6703 20.9646 87.6703C19.0386 87.6703 18.1533 85.9276 18.1533 83.7775C18.1533 81.6274 18.8054 79.8848 20.9646 79.8848C22.8431 79.8848 23.4994 81.6274 23.4994 83.7775Z" fill="#FBFBFB" stroke="#2C2C2C" stroke-miterlimit="10"/>
<path d="M23.4995 83.8863C23.4995 85.0784 23.2361 86.0451 22.096 86.0451C21.0294 86.0451 20.5371 85.0784 20.5371 83.8863C20.5371 82.6942 20.8999 81.7275 22.096 81.7275C23.1368 81.7275 23.4995 82.6942 23.4995 83.8863Z" fill="#2C2C2C"/>
<path d="M28.8413 83.8863C28.8413 85.0784 28.5779 86.0451 27.4378 86.0451C26.3712 86.0451 25.8789 85.0784 25.8789 83.8863C25.8789 82.6942 26.2417 81.7275 27.4378 81.7275C28.4786 81.7275 28.8413 82.6942 28.8413 83.8863Z" fill="#2C2C2C"/>
<mask id="path-6-inside-1_40001168_14253" fill="white">
<path d="M23.5128 87.502C23.5128 87.502 22.9902 87.5496 22.9902 88.0265C22.9902 88.5033 23.3616 88.5727 23.5343 88.5727C23.7071 88.5727 24.0094 88.2562 24.0094 87.9701C24.0094 87.684 23.7114 87.5063 23.5128 87.5063V87.502Z"/>
</mask>
<path d="M23.5128 87.502C23.5128 87.502 22.9902 87.5496 22.9902 88.0265C22.9902 88.5033 23.3616 88.5727 23.5343 88.5727C23.7071 88.5727 24.0094 88.2562 24.0094 87.9701C24.0094 87.684 23.7114 87.5063 23.5128 87.5063V87.502Z" fill="#EEEDEB"/>
<path d="M23.5128 87.502H24.5128V86.4065L23.4219 86.5061L23.5128 87.502ZM23.5128 87.5063H22.5128V88.5063H23.5128V87.5063ZM23.5128 87.502C23.4219 86.5061 23.4214 86.5061 23.421 86.5062C23.4208 86.5062 23.4204 86.5062 23.4201 86.5063C23.4195 86.5063 23.4189 86.5064 23.4182 86.5064C23.417 86.5065 23.4157 86.5067 23.4143 86.5068C23.4117 86.5071 23.4089 86.5074 23.4059 86.5077C23.3999 86.5083 23.3933 86.5091 23.3861 86.5099C23.3717 86.5117 23.3548 86.514 23.3357 86.517C23.2978 86.5229 23.2498 86.5318 23.1947 86.5452C23.0885 86.5711 22.935 86.6186 22.7712 86.7083C22.4141 86.9038 21.9902 87.3267 21.9902 88.0265H22.9902H23.9902C23.9902 88.1022 23.9656 88.2081 23.8969 88.3084C23.8352 88.3985 23.7658 88.4439 23.7318 88.4625C23.6987 88.4806 23.6758 88.4865 23.6676 88.4885C23.6614 88.49 23.6542 88.4915 23.6449 88.4929C23.6401 88.4937 23.6344 88.4945 23.6277 88.4953C23.6243 88.4957 23.6206 88.4961 23.6166 88.4965C23.6146 88.4967 23.6126 88.497 23.6104 88.4972C23.6093 88.4973 23.6082 88.4974 23.6071 88.4975C23.6065 88.4975 23.606 88.4976 23.6054 88.4977C23.6051 88.4977 23.6047 88.4977 23.6045 88.4977C23.6041 88.4978 23.6036 88.4978 23.5128 87.502ZM22.9902 88.0265H21.9902C21.9902 88.5705 22.2269 89.0308 22.6395 89.3083C22.9853 89.5407 23.348 89.5727 23.5343 89.5727V88.5727V87.5727C23.554 87.5727 23.5771 87.5743 23.6062 87.5811C23.6351 87.588 23.6907 87.6049 23.7555 87.6485C23.8262 87.696 23.8952 87.7672 23.9418 87.8587C23.9871 87.9476 23.9902 88.0142 23.9902 88.0265H22.9902ZM23.5343 88.5727V89.5727C23.8543 89.5727 24.0993 89.4397 24.2256 89.3577C24.373 89.2621 24.4988 89.1443 24.6001 89.0245C24.7832 88.8081 25.0094 88.4358 25.0094 87.9701H24.0094H23.0094C23.0094 87.8693 23.0347 87.8035 23.0455 87.7791C23.0572 87.7527 23.0676 87.7394 23.0731 87.7329C23.0773 87.7279 23.0951 87.7071 23.1373 87.6798C23.1592 87.6656 23.1988 87.6424 23.2561 87.6211C23.3111 87.6007 23.4074 87.5727 23.5343 87.5727V88.5727ZM24.0094 87.9701H25.0094C25.0094 87.4501 24.7331 87.0704 24.4638 86.8529C24.2115 86.6492 23.8708 86.5063 23.5128 86.5063V87.5063V88.5063C23.4207 88.5063 23.3562 88.4874 23.3204 88.4739C23.2813 88.4591 23.2438 88.4384 23.2073 88.409C23.1366 88.3519 23.0094 88.204 23.0094 87.9701H24.0094ZM23.5128 87.5063H24.5128V87.502H23.5128H22.5128V87.5063H23.5128Z" fill="#2C2C2C" mask="url(#path-6-inside-1_40001168_14253)"/>
<path d="M17.2812 79.27C17.2812 79.27 18.0197 77.1719 20.235 77.8481" stroke="#2C2C2C" stroke-miterlimit="10" stroke-linecap="round"/>
</svg>
