<svg width="45" height="27" viewBox="0 0 45 27" fill="none" xmlns="http://www.w3.org/2000/svg">
<path d="M41.4831 26.0818H3.52041C2.0133 26.0818 0.830072 24.5559 1.02008 22.8263C2.39764 10.5108 11.4921 1 22.4996 1C33.5071 1 42.6016 10.5108 43.9791 22.8263C44.1734 24.5559 42.9859 26.0818 41.4788 26.0818H41.4831Z" fill="#EEEDEB" stroke="#9C9C9C" stroke-miterlimit="10"/>
<path d="M27.8412 12.7775C27.8412 14.9276 27.3619 16.6703 25.3064 16.6703C23.3804 16.6703 22.4951 14.9276 22.4951 12.7775C22.4951 10.6274 23.1472 8.88477 25.3064 8.88477C27.1849 8.88477 27.8412 10.6274 27.8412 12.7775Z" fill="#FBFBFB" stroke="#2C2C2C" stroke-miterlimit="10"/>
<path d="M22.4994 12.7775C22.4994 14.9276 22.0201 16.6703 19.9646 16.6703C18.0386 16.6703 17.1533 14.9276 17.1533 12.7775C17.1533 10.6274 17.8054 8.88477 19.9646 8.88477C21.8431 8.88477 22.4994 10.6274 22.4994 12.7775Z" fill="#FBFBFB" stroke="#2C2C2C" stroke-miterlimit="10"/>
<path d="M22.4995 12.8863C22.4995 14.0784 22.2361 15.0451 21.096 15.0451C20.0294 15.0451 19.5371 14.0784 19.5371 12.8863C19.5371 11.6942 19.8999 10.7275 21.096 10.7275C22.1368 10.7275 22.4995 11.6942 22.4995 12.8863Z" fill="#2C2C2C"/>
<path d="M27.8413 12.8863C27.8413 14.0784 27.5779 15.0451 26.4378 15.0451C25.3712 15.0451 24.8789 14.0784 24.8789 12.8863C24.8789 11.6942 25.2417 10.7275 26.4378 10.7275C27.4786 10.7275 27.8413 11.6942 27.8413 12.8863Z" fill="#2C2C2C"/>
<mask id="path-6-inside-1_40001167_19344" fill="white">
<path d="M22.5128 16.502C22.5128 16.502 21.9902 16.5496 21.9902 17.0265C21.9902 17.5033 22.3616 17.5727 22.5343 17.5727C22.7071 17.5727 23.0094 17.2562 23.0094 16.9701C23.0094 16.684 22.7114 16.5063 22.5128 16.5063V16.502Z"/>
</mask>
<path d="M22.5128 16.502C22.5128 16.502 21.9902 16.5496 21.9902 17.0265C21.9902 17.5033 22.3616 17.5727 22.5343 17.5727C22.7071 17.5727 23.0094 17.2562 23.0094 16.9701C23.0094 16.684 22.7114 16.5063 22.5128 16.5063V16.502Z" fill="#EEEDEB"/>
<path d="M22.5128 16.502H23.5128V15.4065L22.4219 15.5061L22.5128 16.502ZM22.5128 16.5063H21.5128V17.5063H22.5128V16.5063ZM22.5128 16.502C22.4219 15.5061 22.4214 15.5061 22.421 15.5062C22.4208 15.5062 22.4204 15.5062 22.4201 15.5063C22.4195 15.5063 22.4189 15.5064 22.4182 15.5064C22.417 15.5065 22.4157 15.5067 22.4143 15.5068C22.4117 15.5071 22.4089 15.5074 22.4059 15.5077C22.3999 15.5083 22.3933 15.5091 22.3861 15.5099C22.3717 15.5117 22.3548 15.514 22.3357 15.517C22.2978 15.5229 22.2498 15.5318 22.1947 15.5452C22.0885 15.5711 21.935 15.6186 21.7712 15.7083C21.4141 15.9038 20.9902 16.3267 20.9902 17.0265H21.9902H22.9902C22.9902 17.1022 22.9656 17.2081 22.8969 17.3084C22.8352 17.3985 22.7658 17.4439 22.7318 17.4625C22.6987 17.4806 22.6758 17.4865 22.6676 17.4885C22.6614 17.49 22.6542 17.4915 22.6449 17.4929C22.6401 17.4937 22.6344 17.4945 22.6277 17.4953C22.6243 17.4957 22.6206 17.4961 22.6166 17.4965C22.6146 17.4967 22.6126 17.497 22.6104 17.4972C22.6093 17.4973 22.6082 17.4974 22.6071 17.4975C22.6065 17.4975 22.606 17.4976 22.6054 17.4977C22.6051 17.4977 22.6047 17.4977 22.6045 17.4977C22.6041 17.4978 22.6036 17.4978 22.5128 16.502ZM21.9902 17.0265H20.9902C20.9902 17.5705 21.2269 18.0308 21.6395 18.3083C21.9853 18.5407 22.348 18.5727 22.5343 18.5727V17.5727V16.5727C22.554 16.5727 22.5771 16.5743 22.6062 16.5811C22.6351 16.588 22.6907 16.6049 22.7555 16.6485C22.8262 16.696 22.8952 16.7672 22.9418 16.8587C22.9871 16.9476 22.9902 17.0142 22.9902 17.0265H21.9902ZM22.5343 17.5727V18.5727C22.8543 18.5727 23.0993 18.4397 23.2256 18.3577C23.373 18.2621 23.4988 18.1443 23.6001 18.0245C23.7832 17.8081 24.0094 17.4358 24.0094 16.9701H23.0094H22.0094C22.0094 16.8693 22.0347 16.8035 22.0455 16.7791C22.0572 16.7527 22.0676 16.7394 22.0731 16.7329C22.0773 16.7279 22.0951 16.7071 22.1373 16.6798C22.1592 16.6656 22.1988 16.6424 22.2561 16.6211C22.3111 16.6007 22.4074 16.5727 22.5343 16.5727V17.5727ZM23.0094 16.9701H24.0094C24.0094 16.4501 23.7331 16.0704 23.4638 15.8529C23.2115 15.6492 22.8708 15.5063 22.5128 15.5063V16.5063V17.5063C22.4207 17.5063 22.3562 17.4874 22.3204 17.4739C22.2813 17.4591 22.2438 17.4384 22.2073 17.409C22.1366 17.3519 22.0094 17.204 22.0094 16.9701H23.0094ZM22.5128 16.5063H23.5128V16.502H22.5128H21.5128V16.5063H22.5128Z" fill="#2C2C2C" mask="url(#path-6-inside-1_40001167_19344)"/>
<path d="M16.2812 8.26999C16.2812 8.26999 17.0197 6.17189 19.235 6.84814" stroke="#2C2C2C" stroke-miterlimit="10" stroke-linecap="round"/>
</svg>
