<svg width="151" height="162" viewBox="0 0 151 162" fill="none" xmlns="http://www.w3.org/2000/svg">
<g filter="url(#filter0_g_40000162_4499)">
<g filter="url(#filter1_d_40000162_4499)">
<path d="M71.2958 143.062C59.0743 143.062 47.5228 142.333 38.7742 141.006C31.5073 139.907 19.3518 138.06 19.3518 128.747C19.3518 124.977 21.4658 122.504 23.9573 120.875C23.8347 117.966 24.4198 115.029 25.7222 112.434C26.9396 110.018 28.6761 108.038 30.809 106.579H30.0445C26.4772 106.579 23.0325 105.006 20.5787 102.259C17.8985 99.2558 16.6244 95.1727 17.0774 91.0516C20.5598 60.0158 43.9648 36.6158 71.5318 36.6158C73.9006 36.6158 76.2505 36.7863 78.5816 37.1274C80.6295 31.0169 85.8957 26.3842 92.332 25.3137C95.6257 21.3442 100.533 18.9474 105.865 18.9474C111.198 18.9474 116.105 21.3348 119.399 25.3042C124.901 26.2232 129.667 29.7284 132.234 34.9295C134.423 39.3727 134.64 44.3842 132.979 48.8653C133.706 50.8074 134.074 52.8537 134.074 54.9569C134.074 63.1421 128.553 70.0484 121.079 72.0853C123.598 78.0442 125.241 84.4011 125.977 91.0516C126.439 95.1537 125.165 99.2463 122.494 102.249C121.182 103.718 119.588 104.855 117.842 105.603C119.295 107.754 120.286 110.302 120.654 113.106C121.05 116.138 120.673 119.027 119.663 121.604C121.786 123.281 123.259 125.574 123.259 128.747C123.259 138.06 111.094 139.907 103.827 141.006C95.0783 142.333 83.5268 143.062 71.3053 143.062H71.2958Z" fill="#FBFBFB" stroke="#9C9C9C" stroke-miterlimit="10"/>
<path d="M115.142 32.7411C124.004 31.5948 129.846 41.7505 124.429 48.8842C129.846 56.0179 124.004 66.1737 115.142 65.0274C111.698 73.3074 100.014 73.3074 96.5694 65.0274C87.7075 66.1737 81.8657 56.0179 87.2829 48.8842C81.8657 41.7505 87.7075 31.5948 96.5694 32.7411C100.014 24.4611 111.698 24.4611 115.142 32.7411Z" fill="#A7E1B6"/>
<path d="M71.2959 135.474C95.814 135.474 115.69 132.462 115.69 128.747C115.69 125.033 95.814 122.021 71.2959 122.021C46.7777 122.021 26.9019 125.033 26.9019 128.747C26.9019 132.462 46.7777 135.474 71.2959 135.474Z" fill="#2C2C2C"/>
<path d="M68.3703 59.959V123.139C68.3703 126.597 65.5768 129.401 62.1321 129.401H40.4919C29.1575 129.401 28.1665 112.254 39.4726 111.392C39.8218 111.363 40.1805 111.354 40.5485 111.354C45.2956 111.354 50.7693 113.106 55.6108 115.361L61.5281 59.9685H68.3703V59.959Z" fill="#CBCBC5" stroke="#2C2C2C" stroke-miterlimit="10"/>
<path d="M60.4617 118.042C59.4424 117.455 57.1869 116.053 52.8645 114.158L60.4617 118.042Z" fill="#CBCBC5"/>
<path d="M60.4617 118.042C59.4424 117.455 57.1869 116.053 52.8645 114.158" stroke="#2C2C2C" stroke-miterlimit="10" stroke-linecap="round"/>
<path d="M71.2958 63.6821L78.0059 125.185C78.893 128.53 82.2999 130.519 85.6314 129.628L106.545 124.058C117.502 121.14 114.076 104.315 102.93 106.38C102.581 106.446 102.232 106.522 101.883 106.617C97.2961 107.839 93.5023 110.084 89.3969 113.514L77.9021 61.92L71.2864 63.6821H71.2958Z" fill="#CBCBC5" stroke="#2C2C2C" stroke-miterlimit="10"/>
<path d="M84.3196 118.203C85.1501 117.369 86.981 115.437 90.671 112.491L84.3196 118.203Z" fill="#CBCBC5"/>
<path d="M84.3196 118.203C85.1501 117.369 86.981 115.437 90.671 112.491" stroke="#2C2C2C" stroke-miterlimit="10" stroke-linecap="round"/>
<path d="M85.6409 129.212C85.6409 129.212 104.242 110.766 108.489 115.048" stroke="#2C2C2C" stroke-miterlimit="10" stroke-linecap="round"/>
<path d="M113.01 99.0095H30.0446C26.7509 99.0095 24.165 95.6748 24.5803 91.8948C27.5908 64.98 47.4662 44.1948 71.5224 44.1948C95.5786 44.1948 115.454 64.98 118.465 91.8948C118.889 95.6748 116.294 99.0095 113 99.0095H113.01Z" fill="#EEEDEB" stroke="#2C2C2C" stroke-miterlimit="10"/>
<path d="M90.6711 112.491L90.5673 112.585C90.4351 112.68 90.303 112.784 90.1709 112.898C90.3313 112.765 90.5012 112.633 90.6711 112.491Z" fill="white" stroke="#2C2C2C" stroke-miterlimit="10" stroke-linecap="round"/>
<path d="M71.0836 70.5316V70.8347C71.0836 71.0242 71.0742 71.2137 71.0742 71.4032V71.4884C71.0553 71.7442 71.0459 72 71.027 72.2463C71.027 72.3316 71.0175 72.4074 71.0081 72.4832C70.7155 76.2442 69.3943 79.039 65.5438 79.039C61.3441 79.039 59.4094 75.2305 59.4094 70.5316C59.4094 68.2769 59.7397 66.2116 60.6174 64.6958C62.1652 65.4347 64.0715 66.1547 66.3177 66.6947C67.5162 66.9884 68.8092 67.2253 70.2154 67.3863C70.4135 67.4147 70.6212 67.4337 70.8288 67.4526C71.0081 68.4095 71.0836 69.4421 71.0836 70.5316Z" fill="#FBFBFB" stroke="#2C2C2C" stroke-miterlimit="10"/>
<path d="M82.7577 70.5316C82.7577 70.6927 82.7577 70.8537 82.7482 71.0148C82.6822 75.4863 81.5686 79.039 77.2273 79.039C72.8861 79.039 71.0835 75.2305 71.0835 70.5316C71.0835 69.4611 71.159 68.4379 71.3289 67.5C73.0182 67.6421 74.8491 67.68 76.8215 67.5569C78.4259 67.4716 80.1341 67.2821 81.9272 66.96C82.0876 66.9411 82.2386 66.9127 82.3991 66.8748C82.6161 67.8411 82.7294 68.9021 82.7482 70.02C82.7577 70.1905 82.7577 70.3611 82.7577 70.5316Z" fill="#FBFBFB" stroke="#2C2C2C" stroke-miterlimit="10"/>
<path d="M71.0835 70.8348V71.0053C71.0835 71.1379 71.0835 71.2706 71.0741 71.4032V71.4884C71.0552 71.7442 71.0458 72 71.0269 72.2463C71.0269 72.3316 71.0174 72.4074 71.008 72.4832C70.7815 74.3684 70.0171 75.7232 68.0163 75.7232C65.6852 75.7232 64.6094 73.6106 64.6094 71.0053C64.6094 69.0821 65.0435 67.4337 66.3176 66.6948C67.5161 66.9884 68.8091 67.2253 70.2152 67.3863C70.8098 68.2106 71.0646 69.4516 71.0835 70.8348Z" fill="#2C2C2C"/>
<path d="M82.7578 70.5316C82.7578 70.6927 82.7578 70.8537 82.7484 71.0148C82.6823 73.3927 82.0217 75.2495 79.6906 75.2495C77.3596 75.2495 76.2837 73.1369 76.2837 70.5316C76.2837 69.4042 76.4347 68.3716 76.8216 67.5569C78.426 67.4716 80.1342 67.2821 81.9273 66.96C82.4464 67.7179 82.6918 68.7979 82.7484 70.02C82.7578 70.1905 82.7578 70.3611 82.7578 70.5316Z" fill="#2C2C2C"/>
<path d="M82.3993 66.8748C82.2389 66.9127 82.0879 66.9411 81.9274 66.96C80.1343 67.2821 78.4261 67.4716 76.8217 67.5569C74.8493 67.68 73.0184 67.6421 71.3291 67.5C71.9048 64.2979 73.5847 62.0242 77.2275 62.0242C80.1909 62.0242 81.7575 64.0042 82.3993 66.8748Z" stroke="#2C2C2C" stroke-miterlimit="10"/>
<path d="M70.8286 67.4527C70.6209 67.4337 70.4133 67.4148 70.2151 67.3863C68.8089 67.2253 67.516 66.9884 66.3174 66.6948C64.0713 66.1548 62.1649 65.4348 60.6172 64.6958C61.5421 63.0474 63.0992 62.0242 65.5436 62.0242C68.7051 62.0242 70.2812 64.279 70.8286 67.4527Z" stroke="#2C2C2C" stroke-miterlimit="10" stroke-linecap="round"/>
<path d="M71.3286 67.5C71.1587 67.5 70.9888 67.4716 70.8284 67.4526" stroke="#2C2C2C" stroke-miterlimit="10" stroke-linecap="round"/>
<path d="M87.0516 65.8137C85.4378 66.2589 83.8901 66.6094 82.3989 66.8747" stroke="#2C2C2C" stroke-miterlimit="10" stroke-linecap="round"/>
<path d="M60.6172 64.6958C56.9837 62.9621 55.2095 61.1053 55.2095 61.1053" stroke="#2C2C2C" stroke-miterlimit="10" stroke-linecap="round"/>
<path d="M71.5503 78.5823C71.638 78.5823 71.8013 78.63 71.9419 78.7435C72.0739 78.8501 72.1362 78.9719 72.1362 79.096C72.1361 79.2473 72.0457 79.4652 71.8765 79.6653C71.7967 79.7597 71.7146 79.8314 71.647 79.8753C71.6121 79.8979 71.5897 79.9075 71.5796 79.9114C71.4433 79.9089 71.2697 79.8777 71.1411 79.7913C71.0402 79.7234 70.9087 79.5872 70.9087 79.2191C70.9087 78.9287 71.048 78.788 71.2202 78.6937C71.3137 78.6425 71.4123 78.6102 71.4907 78.5911C71.5067 78.5872 71.5216 78.585 71.5347 78.5823H71.5503Z" fill="#A7E1B6" stroke="#2C2C2C"/>
<path d="M66.0625 83.6252C66.0625 83.6252 69.1674 78.1399 77.5479 84.6862" stroke="#2C2C2C" stroke-miterlimit="10" stroke-linecap="round"/>
</g>
</g>
<defs>
<filter id="filter0_g_40000162_4499" x="-0.4" y="-0.4" width="151.8" height="162.8" filterUnits="userSpaceOnUse" color-interpolation-filters="sRGB">
<feFlood flood-opacity="0" result="BackgroundImageFix"/>
<feBlend mode="normal" in="SourceGraphic" in2="BackgroundImageFix" result="shape"/>
<feTurbulence type="fractalNoise" baseFrequency="0.66666668653488159 0.66666668653488159" numOctaves="3" seed="7043" />
<feDisplacementMap in="shape" scale="0.80000001192092896" xChannelSelector="R" yChannelSelector="G" result="displacedImage" width="100%" height="100%" />
<feMerge result="effect1_texture_40000162_4499">
<feMergeNode in="displacedImage"/>
</feMerge>
</filter>
<filter id="filter1_d_40000162_4499" x="13.4875" y="17.4474" width="122.086" height="129.115" filterUnits="userSpaceOnUse" color-interpolation-filters="sRGB">
<feFlood flood-opacity="0" result="BackgroundImageFix"/>
<feColorMatrix in="SourceAlpha" type="matrix" values="0 0 0 0 0 0 0 0 0 0 0 0 0 0 0 0 0 0 127 0" result="hardAlpha"/>
<feOffset dx="-1" dy="1"/>
<feGaussianBlur stdDeviation="1"/>
<feComposite in2="hardAlpha" operator="out"/>
<feColorMatrix type="matrix" values="0 0 0 0 0 0 0 0 0 0 0 0 0 0 0 0 0 0 0.25 0"/>
<feBlend mode="normal" in2="BackgroundImageFix" result="effect1_dropShadow_40000162_4499"/>
<feBlend mode="normal" in="SourceGraphic" in2="effect1_dropShadow_40000162_4499" result="shape"/>
</filter>
</defs>
</svg>
