<svg width="151" height="162" viewBox="0 0 151 162" fill="none" xmlns="http://www.w3.org/2000/svg">
<g clip-path="url(#clip0_40000163_3092)" filter="url(#filter0_g_40000163_3092)">
<g filter="url(#filter1_d_40000163_3092)">
<path d="M61.7134 159.404C50.0709 159.404 39.0842 158.71 30.7566 157.447C24.2976 156.464 12.2688 154.643 12.2688 145.778C12.2688 142.189 14.2811 139.835 16.6617 138.284C16.5449 135.507 17.1019 132.711 18.3506 130.249C20.7581 125.47 25.3217 122.485 30.8824 122.061C30.9453 122.061 30.9992 122.061 31.0621 122.052C31.5561 122.025 32.0053 122.007 32.4545 122.007C34.9968 122.007 37.7277 122.386 40.6204 123.134L42.2733 107.624C35.2304 102.772 31.0261 95.3054 31.0261 87.2074C31.0261 82.7976 32.3018 78.433 34.7093 74.6004C35.7514 72.9502 35.8412 70.8851 34.9519 68.9282C33.6493 66.0696 32.9845 63.0215 32.9845 59.8833C32.9845 56.186 33.9547 52.4797 35.7873 49.1701C37.1079 46.7894 37.3055 44.1743 36.3084 42.1633C34.853 39.2235 34.1164 36.0762 34.1164 32.8208C34.1254 19.9433 45.9475 9.47363 60.4737 9.47363C69.3493 9.47363 77.4433 13.3964 82.2674 19.6548C82.8783 19.6007 83.4891 19.5826 84.1 19.5826C97.7368 19.5826 108.831 32.397 108.831 48.1511C108.831 62.6518 99.4346 74.6636 87.2981 76.4852C89.0139 79.8308 89.9123 83.501 89.9123 87.1984C89.9123 94.4757 86.5435 101.23 80.6953 106.064L83.7227 119.645C85.4385 118.86 87.1813 118.229 88.987 117.751C89.4451 117.625 89.9482 117.507 90.5141 117.408C91.5562 117.21 92.5893 117.12 93.6044 117.12C101.312 117.12 107.654 122.909 108.697 130.89C109.074 133.775 108.715 136.526 107.762 138.979C109.784 140.575 111.176 142.757 111.176 145.778C111.176 154.643 99.1472 156.464 92.6881 157.447C84.3605 158.71 73.3648 159.404 61.7224 159.404H61.7134Z" fill="#FBFBFB"/>
<path d="M61.7134 159.404C50.0709 159.404 39.0842 158.71 30.7566 157.447C24.2976 156.464 12.2688 154.643 12.2688 145.778C12.2688 142.189 14.2811 139.835 16.6617 138.284C16.5449 135.507 17.1019 132.711 18.3506 130.249C20.7581 125.47 25.3217 122.485 30.8824 122.061C30.9453 122.061 30.9992 122.061 31.0621 122.052C31.5561 122.025 32.0053 122.007 32.4545 122.007C34.9968 122.007 37.7277 122.386 40.6204 123.134L42.2733 107.624C35.2304 102.772 31.0261 95.3054 31.0261 87.2074C31.0261 82.7976 32.3018 78.433 34.7093 74.6004C35.7514 72.9502 35.8412 70.8851 34.9519 68.9282C33.6493 66.0696 32.9845 63.0215 32.9845 59.8833C32.9845 56.186 33.9547 52.4797 35.7873 49.1701C37.1079 46.7894 37.3055 44.1743 36.3084 42.1633C34.853 39.2235 34.1164 36.0762 34.1164 32.8208C34.1254 19.9433 45.9475 9.47363 60.4737 9.47363C69.3493 9.47363 77.4433 13.3964 82.2674 19.6548C82.8783 19.6007 83.4891 19.5826 84.1 19.5826C97.7368 19.5826 108.831 32.397 108.831 48.1511C108.831 62.6518 99.4346 74.6636 87.2981 76.4852C89.0139 79.8308 89.9123 83.501 89.9123 87.1984C89.9123 94.4757 86.5435 101.23 80.6953 106.064L83.7227 119.645C85.4385 118.86 87.1813 118.229 88.987 117.751C89.4451 117.625 89.9482 117.507 90.5141 117.408C91.5562 117.21 92.5893 117.12 93.6044 117.12C101.312 117.12 107.654 122.909 108.697 130.89C109.074 133.775 108.715 136.526 107.762 138.979C109.784 140.575 111.176 142.757 111.176 145.778C111.176 154.643 99.1472 156.464 92.6881 157.447C84.3605 158.71 73.3648 159.404 61.7224 159.404H61.7134Z" stroke="#9C9C9C" stroke-miterlimit="10"/>
</g>
<path d="M84.1002 69.5053C93.7898 69.5053 101.645 59.9447 101.645 48.1511C101.645 36.3575 93.7898 26.7969 84.1002 26.7969C74.4106 26.7969 66.5557 36.3575 66.5557 48.1511C66.5557 59.9447 74.4106 69.5053 84.1002 69.5053Z" fill="#93D1E0"/>
<path d="M61.7132 152.19C85.0516 152.19 103.971 149.324 103.971 145.787C103.971 142.251 85.0516 139.385 61.7132 139.385C38.3748 139.385 19.4553 142.251 19.4553 145.787C19.4553 149.324 38.3748 152.19 61.7132 152.19Z" fill="#2C2C2C"/>
<path d="M58.9285 80.2998V140.44C58.9285 143.731 56.2694 146.401 52.9905 146.401H32.3915C21.6025 146.401 20.6592 130.078 31.4213 129.258C31.7537 129.231 32.0951 129.222 32.4454 129.222C36.9641 129.222 42.1744 130.89 46.7829 133.036L52.4155 80.3088H58.9285V80.2998Z" fill="#CBCBC5" stroke="#2C2C2C" stroke-miterlimit="10"/>
<path d="M51.4094 135.597C50.4392 135.038 48.2921 133.703 44.1777 131.9L51.4094 135.597Z" fill="#CBCBC5"/>
<path d="M51.4094 135.597C50.4392 135.038 48.2921 133.703 44.1777 131.9" stroke="#2C2C2C" stroke-miterlimit="10" stroke-linecap="round"/>
<path d="M61.7131 83.8529L68.1003 142.397C68.9447 145.58 72.1877 147.474 75.3589 146.626L95.2661 141.324C105.696 138.546 102.435 122.53 91.8254 124.496C91.493 124.559 91.1606 124.632 90.8283 124.722C86.4623 125.885 82.851 128.022 78.9432 131.287L68.0015 82.1755L61.7041 83.8529H61.7131Z" fill="#CBCBC5" stroke="#2C2C2C" stroke-miterlimit="10"/>
<path d="M74.1104 135.741C74.9009 134.948 76.6437 133.108 80.1562 130.304L74.1104 135.741Z" fill="#FBFBFB"/>
<path d="M74.1104 135.741C74.9009 134.948 76.6437 133.108 80.1562 130.304" stroke="#2C2C2C" stroke-miterlimit="10" stroke-linecap="round"/>
<path d="M75.3682 146.22C75.3682 146.22 93.0744 128.663 97.117 132.739" stroke="#2C2C2C" stroke-miterlimit="10" stroke-linecap="round"/>
<path d="M82.7255 87.1984C82.7255 97.5329 72.754 105.91 60.4647 105.91C48.1754 105.91 38.2039 97.5329 38.2039 87.1984C38.2039 84.0332 39.1381 81.0483 40.7821 78.4421C43.1627 74.6637 43.3334 70.0014 41.4918 65.9344C40.6384 64.0497 40.1712 62.0116 40.1712 59.8744C40.1712 57.2953 40.854 54.8605 42.0667 52.6692C44.4293 48.4218 44.8965 43.3267 42.7495 38.962C41.8152 37.0683 41.3031 34.9852 41.3031 32.8119C41.3031 23.9113 49.8823 16.688 60.4647 16.688C71.0471 16.688 79.6353 23.9113 79.6353 32.8119C79.6353 34.9942 79.1232 37.0773 78.1889 38.9711C76.0419 43.3357 76.509 48.4308 78.8717 52.6872C80.0844 54.8695 80.7582 57.3043 80.7582 59.8744C80.7582 62.0116 80.291 64.0497 79.4376 65.9344C77.596 70.0014 77.7667 74.6637 80.1473 78.4421C81.7913 81.0573 82.7255 84.0332 82.7255 87.1984Z" fill="#EEEDEB" stroke="#2C2C2C" stroke-miterlimit="10"/>
<path d="M44.3754 131.981C44.3754 131.981 44.3035 131.945 44.2586 131.936L44.1777 131.891C44.2496 131.918 44.3125 131.954 44.3754 131.981Z" fill="#FBFBFB" stroke="#2C2C2C" stroke-miterlimit="10" stroke-linecap="round"/>
<path d="M59.8313 33.2517C59.8313 36.4377 59.1177 39.0298 56.0754 39.0298C53.2208 39.0298 51.9062 36.4471 51.9062 33.2517C51.9062 30.0563 52.8734 27.4736 56.0754 27.4736C58.8642 27.4736 59.8313 30.0563 59.8313 33.2517Z" fill="#FBFBFB" stroke="#2C2C2C" stroke-miterlimit="10"/>
<path d="M67.7565 33.2517C67.7565 33.3648 67.7565 33.4685 67.7565 33.5816C67.7377 35.0709 67.5405 36.4 67.0053 37.3803C65.9349 37.4934 65.0147 38.1155 64.4794 39.0015C64.3292 39.0204 64.1696 39.0298 64.0099 39.0298C61.1554 39.0298 59.8408 36.4471 59.8408 33.2517C59.8408 30.0563 60.8174 27.4736 64.0099 27.4736C66.6955 27.4736 67.6908 29.8678 67.7659 32.903C67.7659 33.0161 67.7659 33.1386 67.7659 33.2517H67.7565Z" fill="#FBFBFB" stroke="#2C2C2C" stroke-miterlimit="10"/>
<path d="M60.0222 38.9777C60.5267 39.0613 60.7896 39.3256 60.9197 39.5988C61.0638 39.9017 61.0416 40.2023 60.9841 40.339C60.9718 40.3479 60.9194 40.3906 60.78 40.4327C60.6022 40.4865 60.3661 40.5122 60.1267 40.4874C59.6304 40.436 59.3107 40.2105 59.2439 39.8302C59.1992 39.5746 59.2429 39.4284 59.2898 39.3429C59.3399 39.2516 59.4238 39.1758 59.5408 39.1144C59.6592 39.0522 59.7916 39.0149 59.9021 38.9943C59.9513 38.9851 59.993 38.9807 60.0222 38.9777Z" fill="#93D1E0" stroke="#2C2C2C"/>
<path d="M66.9954 37.3802C67.1174 37.3614 67.2489 37.3519 67.371 37.3519C68.6292 37.3519 69.7278 38.04 70.31 39.058" stroke="#2C2C2C" stroke-miterlimit="10" stroke-linecap="round"/>
<path d="M64.4702 39.0015L64.4321 39.0587" stroke="#2C2C2C" stroke-miterlimit="10" stroke-linecap="round"/>
<path d="M50.0188 49.5541C50.0188 51.4204 51.123 52.1215 52.0762 52.1215C53.0294 52.1215 54.1335 51.4204 54.1335 49.5541C54.1335 47.6878 52.0762 44.5994 52.0762 44.5994C52.0762 44.5994 50.0188 47.6878 50.0188 49.5541Z" fill="#93D1E0"/>
<path d="M56.1377 38.9018C56.2475 38.305 55.2811 37.6255 53.9792 37.3843C52.6773 37.143 51.5329 37.4312 51.4231 38.0281C51.3133 38.6249 52.2798 39.3044 53.5817 39.5456C54.8835 39.7869 56.0279 39.4987 56.1377 38.9018Z" fill="#93D1E0"/>
<path d="M52.2743 42.951C52.8424 42.951 53.303 42.4887 53.303 41.9184C53.303 41.3481 52.8424 40.8857 52.2743 40.8857C51.7062 40.8857 51.2456 41.3481 51.2456 41.9184C51.2456 42.4887 51.7062 42.951 52.2743 42.951Z" fill="#93D1E0"/>
<path d="M58.5125 46.0213C58.5125 46.0213 61.8722 42.3455 63.269 44.0129L64.6657 45.6802" stroke="#2C2C2C" stroke-miterlimit="10" stroke-linecap="round"/>
<path d="M60.7493 33.1578L64.8829 35.1473" stroke="#2C2C2C" stroke-miterlimit="10" stroke-linecap="round"/>
<path d="M58.8617 33.1578L54.7375 35.1473" stroke="#2C2C2C" stroke-miterlimit="10" stroke-linecap="round"/>
</g>
<defs>
<filter id="filter0_g_40000163_3092" x="-0.4" y="-0.4" width="151.8" height="162.8" filterUnits="userSpaceOnUse" color-interpolation-filters="sRGB">
<feFlood flood-opacity="0" result="BackgroundImageFix"/>
<feBlend mode="normal" in="SourceGraphic" in2="BackgroundImageFix" result="shape"/>
<feTurbulence type="fractalNoise" baseFrequency="0.66666668653488159 0.66666668653488159" numOctaves="3" seed="7043" />
<feDisplacementMap in="shape" scale="0.80000001192092896" xChannelSelector="R" yChannelSelector="G" result="displacedImage" width="100%" height="100%" />
<feMerge result="effect1_texture_40000163_3092">
<feMergeNode in="displacedImage"/>
</feMerge>
</filter>
<filter id="filter1_d_40000163_3092" x="8.7688" y="7.97363" width="103.907" height="154.931" filterUnits="userSpaceOnUse" color-interpolation-filters="sRGB">
<feFlood flood-opacity="0" result="BackgroundImageFix"/>
<feColorMatrix in="SourceAlpha" type="matrix" values="0 0 0 0 0 0 0 0 0 0 0 0 0 0 0 0 0 0 127 0" result="hardAlpha"/>
<feOffset dx="-1" dy="1"/>
<feGaussianBlur stdDeviation="1"/>
<feComposite in2="hardAlpha" operator="out"/>
<feColorMatrix type="matrix" values="0 0 0 0 0 0 0 0 0 0 0 0 0 0 0 0 0 0 0.25 0"/>
<feBlend mode="normal" in2="BackgroundImageFix" result="effect1_dropShadow_40000163_3092"/>
<feBlend mode="normal" in="SourceGraphic" in2="effect1_dropShadow_40000163_3092" result="shape"/>
</filter>
<clipPath id="clip0_40000163_3092">
<rect width="151" height="162" fill="white"/>
</clipPath>
</defs>
</svg>
